<svg width="175" height="39" viewBox="0 0 175 39" fill="none" xmlns="http://www.w3.org/2000/svg">
<path d="M117.844 0.00390625C136.759 0.00390625 155.673 0.00390625 174.585 0.00390625C174.897 0.00390625 175 0.0471668 175 0.389669C175 12.7894 175 25.1892 175 37.589C175 37.9495 174.908 38.0036 174.563 38.0036C116.515 38.0036 58.4659 38.0036 0.417129 38.0036C0.288713 38.0036 0.119938 38.1045 0.020874 37.9207C0.066182 37.8835 0.116878 37.8531 0.1713 37.8305C0.44497 37.7742 0.725523 37.7572 1.00417 37.7801C13.2073 37.8089 25.4105 37.8089 37.6136 37.7801H59.5103C59.6864 37.7902 59.8631 37.7756 60.035 37.7368C60.0911 37.7191 60.1489 37.707 60.2074 37.7008C60.4863 37.7008 60.7651 37.7008 61.044 37.7008H87.3215C97.2523 37.7008 107.182 37.7008 117.11 37.7008C117.203 37.7219 117.3 37.7208 117.393 37.6976C117.485 37.6744 117.571 37.6297 117.642 37.5674C117.729 37.3675 117.755 37.1468 117.716 36.9328C117.716 24.9344 117.716 12.9349 117.716 0.93407C117.698 0.675281 117.709 0.415355 117.749 0.158931C117.771 0.102412 117.804 0.0500236 117.844 0.00390625Z" fill="#FEFEFE"/>
<path d="M37.6099 37.8809C37.4778 37.8809 37.3457 37.8989 37.2173 37.8989H0.479402C0.361994 37.8989 0.244585 37.8989 0.112501 37.8989C0.101799 37.8441 0.101799 37.7879 0.112501 37.7331C0.112501 33.1448 0.112501 28.5578 0.112501 23.9719C0.121336 23.8519 0.121336 23.7314 0.112501 23.6114C0.0964735 23.5574 0.0866279 23.5017 0.0831478 23.4455C0.0831478 15.7928 0.0831478 8.14013 0.0831478 0.487421C0.0708576 0.358476 0.078277 0.228451 0.105161 0.101664C0.255732 0.0441405 0.419676 0.0291511 0.578462 0.0583978H6.5186C6.67746 0.0859695 6.84095 0.0710279 6.99191 0.0151367H7.07996C7.11754 0.0598669 7.14843 0.109642 7.17169 0.162953C7.22973 0.431775 7.24704 0.707549 7.22305 0.981342C7.22305 12.9195 7.22305 24.8576 7.22305 36.7957C7.22305 37.7691 7.19004 37.6862 8.13297 37.6862H19.5069C19.683 37.6862 19.8738 37.6862 20.0353 37.6862C20.2994 37.6646 20.5636 37.6862 20.8278 37.6862C26.1821 37.6862 31.5364 37.6862 36.8907 37.6862C37.1182 37.6826 37.4301 37.5672 37.6099 37.8809Z" fill="#C3D94A"/>
<path d="M117.844 0.00360785V0.0902459C117.799 0.127834 117.748 0.158281 117.694 0.180492C117.48 0.229718 117.259 0.24555 117.04 0.227416H88.0112C87.7634 0.256575 87.512 0.22814 87.2774 0.144391C87.2522 0.129726 87.2316 0.108454 87.218 0.0829531C87.2044 0.0574526 87.1983 0.0287314 87.2003 0H117.844V0.00360785Z" fill="#546339"/>
<path d="M87.2041 0.00390625V0.0942557L87.1381 0.152081C86.931 0.228688 86.7085 0.255934 86.4886 0.231589H60.7872C60.567 0.256203 60.3442 0.227671 60.1377 0.148463C60.1125 0.133781 60.092 0.112484 60.0784 0.0869545C60.0648 0.0614247 60.0586 0.0326706 60.0607 0.00390625H87.2041Z" fill="#6A8046"/>
<path d="M0.112494 0.0941475C0.112494 7.6794 0.112494 15.2658 0.112494 22.8535C0.112494 23.0842 0.112494 23.315 0.112494 23.5457C0.107767 23.5524 0.10146 23.5579 0.0941147 23.5616C0.0867692 23.5654 0.0786013 23.5674 0.0703116 23.5674C0.0620219 23.5674 0.053854 23.5654 0.0465085 23.5616C0.0391631 23.5579 0.0328565 23.5524 0.0281288 23.5457C0.0281288 15.8307 0.0281288 8.11563 0.0281288 0.400588C0.0281288 0.274408 -0.0745684 0.10857 0.112494 0.0112305C0.141838 0.030458 0.15284 0.0496813 0.145504 0.0689088C0.142873 0.0756783 0.138407 0.081612 0.132587 0.086061C0.126767 0.0905101 0.119818 0.0933072 0.112494 0.0941475Z" fill="#D2E277"/>
<path d="M60.0789 0.00361896V0.0905238L60.0129 0.148455C59.8073 0.226145 59.5858 0.25348 59.3671 0.228116H38.4538C38.2786 0.235479 38.103 0.228212 37.9291 0.206391C37.872 0.195382 37.8174 0.174546 37.7677 0.144836C37.7549 0.138374 37.7437 0.129448 37.7345 0.118592C37.7254 0.107735 37.7186 0.0951708 37.7144 0.0816505C37.7103 0.0681301 37.709 0.0539321 37.7106 0.0399025C37.7122 0.0258729 37.7166 0.0123029 37.7236 0H60.1046L60.0789 0.00361896Z" fill="#79914D"/>
<path d="M37.7126 0.00390625V0.0905692C37.6314 0.152719 37.5378 0.197369 37.438 0.22163C37.3381 0.24589 37.2342 0.24922 37.1329 0.231393H20.6223C20.4471 0.247587 20.2705 0.220275 20.1087 0.151953C20.0835 0.137283 20.0629 0.116005 20.0493 0.0904976C20.0357 0.0649897 20.0296 0.0362548 20.0316 0.00751514H37.731L37.7126 0.00390625Z" fill="#98B850"/>
<path d="M0.0244141 23.5391H0.119847C0.160799 23.6472 0.173423 23.7637 0.156555 23.8779C0.156555 28.4206 0.156555 32.9633 0.156555 37.5059C0.168319 37.6064 0.159581 37.7081 0.130858 37.8052C0.130858 37.8292 0.130858 37.8533 0.130858 37.8773L0.0280826 37.8989V23.5391H0.0244141Z" fill="#DCE996"/>
<path d="M20.0133 0.00390625C20.0133 0.0328588 20.0133 0.0618133 20.0133 0.0907658L19.9473 0.148667C19.7421 0.227825 19.5204 0.256402 19.3015 0.231909H7.78443C7.53643 0.275259 7.28099 0.224865 7.06897 0.0907658V0.00390625H20.0133Z" fill="#A3C74D"/>
<path d="M0.112549 0.0939489V0.00390625H6.98096C6.90934 0.0533727 6.82736 0.086485 6.74102 0.100819C6.65468 0.115152 6.56617 0.110343 6.48197 0.086744C4.35883 0.0939474 2.23569 0.0963501 0.112549 0.0939489Z" fill="#C9DC5B"/>
<path d="M87.204 0.0947266H117.756C117.809 0.24511 117.823 0.406337 117.796 0.563409C117.796 12.7972 117.796 25.031 117.796 37.2647C117.814 37.4225 117.806 37.5821 117.771 37.737C117.602 37.7893 117.424 37.8028 117.25 37.7767H87.7984C87.6259 37.7425 87.4469 37.7601 87.2847 37.8271L87.204 37.8199C87.1656 37.7758 87.1346 37.7259 87.1123 37.6721C87.0759 37.4736 87.0648 37.2713 87.0792 37.0701C87.0792 24.9973 87.0792 12.9234 87.0792 0.84822C87.0646 0.646961 87.0757 0.444695 87.1123 0.246146C87.1342 0.192177 87.1652 0.142209 87.204 0.0983298V0.0947266Z" fill="#425324"/>
<path d="M87.204 0.0943112V0.177229C87.1457 0.340274 87.1306 0.515187 87.16 0.68556C87.16 12.8614 87.16 25.0373 87.16 37.2132C87.1792 37.3853 87.1705 37.5593 87.1343 37.7288C86.9656 37.7793 86.7875 37.7916 86.6133 37.7648H60.688C60.5136 37.7377 60.3351 37.7513 60.167 37.8045L60.0753 37.8369C60.0323 37.7956 59.9996 37.745 59.9799 37.6891C59.9338 37.4626 59.9189 37.231 59.9359 37.0005C59.9359 24.9568 59.9359 12.9143 59.9359 0.873031C59.8822 0.601524 59.9332 0.320094 60.079 0.0834961H87.204V0.0943112Z" fill="#5A7333"/>
<path d="M20.0133 0.090332H37.7127C37.8196 0.229651 37.8694 0.403366 37.8521 0.577044C37.8521 0.764519 37.8521 0.937573 37.8521 1.13947C37.8521 13.0345 37.8521 24.932 37.8521 36.8319C37.8521 37.7405 37.8044 37.6828 38.7106 37.6828H59.2571C59.5342 37.6334 59.82 37.6779 60.068 37.8089C60.0727 37.8152 60.0753 37.8228 60.0753 37.8306C60.0753 37.8384 60.0727 37.846 60.068 37.8522C59.9561 37.9126 59.8255 37.9306 59.7011 37.9027H37.9585C37.8411 37.9027 37.7237 37.9027 37.5916 37.9027C37.4327 37.8287 37.2534 37.8084 37.0816 37.845H19.995C19.8652 37.6503 19.8154 37.4146 19.8556 37.1852C19.8556 36.0604 19.8556 34.9355 19.8556 33.8143C19.8556 22.8758 19.8556 11.9397 19.8556 1.00608C19.7943 0.707051 19.8438 0.396365 19.995 0.129991L20.0133 0.090332Z" fill="#8DB13E"/>
<path d="M121.194 32.5385C121.194 29.9258 121.194 27.3131 121.194 24.7004C121.194 24.2858 121.194 23.8676 121.212 23.453C121.262 23.2869 121.275 23.1123 121.249 22.941C121.249 16.7085 121.249 10.4772 121.249 4.24717C121.249 4.02364 121.183 3.77126 121.465 3.64507H123.931C123.984 3.79431 123.998 3.95426 123.971 4.11016C123.971 9.13365 123.971 14.1571 123.971 19.1806C123.941 19.3369 123.957 19.4985 124.019 19.6457C124.199 19.6926 124.232 19.5267 124.305 19.4366C128.688 14.2809 133.067 9.12043 137.44 3.95514C137.523 3.84124 137.633 3.74995 137.762 3.69C137.89 3.63004 138.032 3.60341 138.174 3.61262C139.139 3.63786 140.108 3.61262 141.073 3.61262C141.078 3.67904 141.064 3.74553 141.033 3.80472C141.002 3.8639 140.954 3.91347 140.896 3.94792C137.105 8.40656 133.314 12.8628 129.523 17.3166C129.472 17.3579 129.431 17.4097 129.403 17.4683C129.375 17.5268 129.36 17.5908 129.36 17.6555C129.36 17.7203 129.375 17.7842 129.403 17.8428C129.431 17.9014 129.472 17.9532 129.523 17.9944C133.192 22.6598 136.852 27.3299 140.504 32.0049C140.592 32.1167 140.669 32.2393 140.753 32.3654C140.819 32.6611 140.588 32.571 140.456 32.5746C139.576 32.5746 138.695 32.5746 137.818 32.5746C137.687 32.564 137.555 32.5713 137.426 32.5962C136.325 31.2117 135.224 29.8309 134.149 28.4392C131.972 25.6559 129.8 22.8689 127.633 20.0783C127.428 19.8152 127.336 19.8476 127.141 20.0783C126.118 21.3006 125.079 22.5084 124.045 23.7234C124.009 23.7851 123.986 23.8533 123.977 23.9238C123.968 23.9944 123.974 24.0659 123.993 24.1344C123.993 26.7988 123.993 29.4631 123.993 32.1239C123.993 32.4844 123.916 32.607 123.538 32.5818C122.742 32.5421 121.968 32.6322 121.194 32.5385Z" fill="#2E3818"/>
<path d="M146.47 19.5874C146.47 22.8862 146.47 26.1886 146.47 29.4875C146.47 29.848 146.605 29.8949 146.921 29.8949C150.749 29.8949 154.577 29.8949 158.405 29.8949C158.561 29.8565 158.727 29.8744 158.871 29.9453C158.718 29.9973 158.554 30.0109 158.394 29.985H147.027C146.89 29.9815 146.753 29.9876 146.616 30.003C146.561 30.0391 146.642 30.1076 146.616 30.0607C146.591 30.0138 146.616 30.0319 146.616 30.021C146.707 29.9794 146.809 29.9692 146.906 29.9922H158.493C158.596 29.979 158.7 29.9901 158.798 30.0247C158.878 30.7998 158.798 31.5785 158.834 32.3537C158.843 32.3853 158.843 32.4186 158.835 32.4503C158.826 32.4819 158.809 32.5109 158.786 32.5342C158.763 32.5576 158.734 32.5745 158.701 32.5833C158.669 32.5921 158.635 32.5925 158.603 32.5844C158.53 32.5844 158.456 32.5844 158.383 32.5844H144.03C143.898 32.6003 143.765 32.5905 143.637 32.5556C143.588 32.4042 143.576 32.2438 143.601 32.0869C143.601 22.7636 143.601 13.4404 143.601 4.11712C143.573 3.96006 143.587 3.79876 143.641 3.64844C143.802 3.64844 143.96 3.64844 144.122 3.64844H158.306C158.467 3.64844 158.625 3.64844 158.787 3.64844C158.882 4.36949 158.787 5.09055 158.831 5.8116C158.804 6.00938 158.818 6.21033 158.871 6.40287C158.765 6.59755 158.585 6.4894 158.445 6.4894C154.603 6.4894 150.761 6.4894 146.921 6.4894C146.554 6.4894 146.455 6.5579 146.455 6.92924C146.472 10.0418 146.472 13.1544 146.455 16.2669C146.455 16.6274 146.561 16.7068 146.917 16.7068C150.76 16.6923 154.601 16.6923 158.442 16.7068C158.581 16.7068 158.761 16.6022 158.867 16.7933C158.805 17.5512 158.794 18.3124 158.834 19.0718C158.855 19.1347 158.857 19.2019 158.842 19.266C158.826 19.3302 158.793 19.389 158.745 19.4358C158.698 19.4827 158.639 19.5159 158.573 19.5318C158.508 19.5477 158.44 19.5457 158.376 19.5261C154.555 19.5141 150.734 19.5141 146.914 19.5261C146.84 19.4991 146.761 19.4906 146.684 19.5013C146.606 19.512 146.533 19.5416 146.47 19.5874Z" fill="#2E3818"/>
<path d="M117.752 37.7293V0.0947266H117.837C117.837 0.224513 117.837 0.354297 117.837 0.480479C117.837 12.767 117.837 25.0546 117.837 37.3435C117.837 37.4733 117.837 37.6031 117.837 37.7293C117.832 37.736 117.826 37.7415 117.818 37.7452C117.811 37.749 117.803 37.751 117.794 37.751C117.786 37.751 117.778 37.749 117.771 37.7452C117.763 37.7415 117.757 37.736 117.752 37.7293Z" fill="#3D4E1E"/>
<path d="M117.752 37.7293H117.837C117.741 37.9635 117.532 37.841 117.385 37.841C112.493 37.841 107.607 37.841 102.728 37.841H87.8095C87.6333 37.841 87.4426 37.841 87.2848 37.8158C87.3616 37.761 87.4502 37.7244 87.5437 37.7088C87.6373 37.6931 87.7332 37.6989 87.8241 37.7257H117.752V37.7293Z" fill="#3A4C1B"/>
<path d="M143.645 3.64502V32.5375C143.64 32.545 143.634 32.5514 143.627 32.5558C143.62 32.5602 143.611 32.5625 143.602 32.5625C143.594 32.5625 143.585 32.5602 143.578 32.5558C143.57 32.5514 143.564 32.545 143.56 32.5375C143.56 32.3933 143.56 32.2491 143.56 32.1085C143.56 22.7733 143.56 13.4381 143.56 4.10288C143.549 3.95146 143.443 3.76039 143.645 3.64502Z" fill="#2A3414"/>
<path d="M60.167 37.8199C60.2475 37.7699 60.3377 37.7371 60.4318 37.7233C60.526 37.7096 60.6219 37.7154 60.7137 37.7402H87.1123C87.1416 37.6968 87.171 37.7004 87.2003 37.7402C87.2297 37.7801 87.2003 37.7982 87.2003 37.8271C87.0829 37.8271 86.9655 37.8271 86.8334 37.8271H60.5155C60.4018 37.8199 60.2844 37.8199 60.167 37.8199Z" fill="#516C28"/>
<path d="M144.338 35.5806C144.338 35.2058 144.49 34.8464 144.759 34.5814C145.029 34.3164 145.395 34.1675 145.776 34.1675C146.158 34.1675 146.524 34.3164 146.793 34.5814C147.063 34.8464 147.214 35.2058 147.214 35.5806C147.214 35.963 147.06 36.3297 146.785 36.6001C146.509 36.8705 146.136 37.0225 145.747 37.0225C145.558 37.0197 145.371 36.98 145.197 36.9059C145.024 36.8317 144.867 36.7245 144.736 36.5904C144.605 36.4563 144.503 36.298 144.434 36.1246C144.366 35.9513 144.333 35.7664 144.338 35.5806Z" fill="#2A3414"/>
<path d="M155.25 34.5745C155.25 35.3497 155.25 36.0167 155.25 36.7017C155.25 36.8063 155.301 36.9613 155.114 36.9577C154.927 36.9541 154.989 36.7955 154.989 36.6981C154.989 35.965 154.989 35.2307 154.989 34.4952C154.989 34.3942 154.919 34.25 155.084 34.2032C155.121 34.1913 155.159 34.1865 155.197 34.1892C155.235 34.1918 155.272 34.2018 155.306 34.2186C155.34 34.2353 155.37 34.2585 155.395 34.2868C155.42 34.3151 155.439 34.3479 155.451 34.3834C155.895 35.1045 156.343 35.7932 156.853 36.5972C156.853 35.8292 156.853 35.1802 156.853 34.5276C156.853 34.4123 156.743 34.1923 156.996 34.2068C157.191 34.2068 157.114 34.4087 157.114 34.5204C157.114 35.1983 157.114 35.8725 157.114 36.5503C157.114 36.6837 157.231 36.8856 157.007 36.9577C156.783 37.0298 156.706 36.8496 156.611 36.6981L155.25 34.5745Z" fill="#2B3615"/>
<path d="M126.547 35.5845C126.537 35.4416 126.537 35.2983 126.547 35.1555C126.591 34.8382 126.382 34.3118 126.646 34.2433C126.911 34.157 127.193 34.1297 127.47 34.1634C127.747 34.1971 128.013 34.2909 128.249 34.438C128.485 34.623 128.659 34.8738 128.748 35.1576C128.836 35.4414 128.835 35.7448 128.745 36.028C128.671 36.3011 128.505 36.5417 128.275 36.7106C128.044 36.8795 127.763 36.9667 127.475 36.9581C126.547 36.9978 126.547 36.9978 126.547 36.1001V35.5845Z" fill="#2B3515"/>
<path d="M124.177 36.781C124.174 36.8236 124.156 36.864 124.127 36.8954C124.098 36.9269 124.058 36.9476 124.015 36.954C123.887 36.954 123.902 36.8495 123.902 36.7666C123.902 36.0047 123.902 35.2429 123.902 34.481C123.902 34.4053 123.865 34.2899 123.993 34.2791C124.053 34.2605 124.118 34.2614 124.177 34.2815C124.237 34.3016 124.288 34.34 124.324 34.3909C124.69 34.8487 124.947 35.3606 125.27 35.8329C125.417 36.0492 125.553 36.2691 125.721 36.5359C125.783 36.2687 125.799 35.9934 125.769 35.7211C125.769 35.2741 125.769 34.8307 125.769 34.3837C125.769 34.3008 125.769 34.2034 125.886 34.1926C125.908 34.1897 125.93 34.1921 125.951 34.1994C125.972 34.2068 125.99 34.219 126.005 34.235C126.02 34.2509 126.03 34.2701 126.036 34.291C126.042 34.3119 126.042 34.3338 126.037 34.3548C126.037 35.1744 126.037 35.9939 126.037 36.8134C126.039 36.8309 126.038 36.8486 126.034 36.8656C126.029 36.8826 126.02 36.8983 126.009 36.9119C125.997 36.9255 125.983 36.9366 125.967 36.9445C125.951 36.9523 125.934 36.9568 125.916 36.9576C125.844 36.9688 125.77 36.9551 125.707 36.919C125.645 36.8828 125.596 36.8265 125.571 36.7594C125.145 36.0744 124.712 35.3895 124.283 34.7045C124.217 34.6865 124.162 34.7045 124.162 34.7766C124.128 35.4445 124.133 36.1137 124.177 36.781Z" fill="#2E3818"/>
<path d="M133.562 34.8705C133.484 34.9052 133.397 34.9104 133.315 34.8851C133.234 34.8598 133.165 34.8058 133.122 34.7335C133.019 34.6299 132.897 34.5476 132.761 34.4914C132.626 34.4351 132.48 34.4062 132.333 34.4062C132.186 34.4062 132.04 34.4351 131.905 34.4914C131.769 34.5476 131.647 34.6299 131.544 34.7335C131.319 34.9543 131.19 35.2529 131.186 35.5656C131.182 35.8782 131.303 36.18 131.522 36.4065C131.621 36.5133 131.74 36.5998 131.873 36.6607C132.006 36.7216 132.15 36.7557 132.297 36.7611C132.443 36.7665 132.59 36.7429 132.727 36.692C132.864 36.641 132.99 36.5635 133.096 36.4641C133.151 36.4173 133.195 36.356 133.254 36.3163C133.288 36.2881 133.331 36.2726 133.375 36.2726C133.419 36.2726 133.462 36.2881 133.496 36.3163C133.573 36.3992 133.47 36.4677 133.423 36.5326C133.208 36.7814 132.913 36.9499 132.587 37.0097C132.261 37.0694 131.923 37.0169 131.632 36.8608C131.319 36.6895 131.081 36.4116 130.962 36.0796C130.843 35.7475 130.852 35.3841 130.986 35.058C131.076 34.8039 131.24 34.5815 131.458 34.4192C131.676 34.2568 131.939 34.1616 132.212 34.1458C132.486 34.1139 132.763 34.1666 133.005 34.2965C133.247 34.4263 133.441 34.6269 133.562 34.8705Z" fill="#2B3515"/>
<path d="M144 36.3203C143.845 36.6057 143.591 36.8268 143.284 36.9432C142.977 37.0597 142.637 37.0638 142.327 36.9548C142.025 36.8543 141.766 36.6583 141.589 36.3973C141.412 36.1364 141.329 35.8253 141.351 35.5127C141.362 35.2089 141.471 34.9164 141.661 34.6768C141.852 34.4372 142.114 34.2629 142.412 34.1788C142.716 34.0931 143.042 34.1142 143.332 34.2385C143.623 34.3628 143.86 34.5826 144.004 34.8602C143.824 34.9755 143.722 34.8602 143.597 34.752C143.492 34.6461 143.367 34.562 143.229 34.5045C143.09 34.4471 142.942 34.4175 142.791 34.4175C142.641 34.4175 142.493 34.4471 142.354 34.5045C142.216 34.562 142.091 34.6461 141.986 34.752C141.762 34.9753 141.636 35.2765 141.636 35.5902C141.636 35.904 141.762 36.2051 141.986 36.4284C142.089 36.5365 142.214 36.6226 142.352 36.6815C142.49 36.7404 142.639 36.7708 142.79 36.7708C142.94 36.7708 143.089 36.7404 143.228 36.6815C143.366 36.6226 143.49 36.5365 143.593 36.4284C143.639 36.3682 143.704 36.3247 143.778 36.3051C143.852 36.2855 143.93 36.2908 144 36.3203Z" fill="#2B3515"/>
<path d="M136.13 36.8682C136.13 37.0016 136.013 36.9692 135.943 36.9547C135.899 36.932 135.86 36.8987 135.832 36.8577C135.804 36.8168 135.787 36.7696 135.782 36.7203C135.675 36.5184 135.69 36.1794 135.481 36.1289C135.117 36.0751 134.747 36.0654 134.38 36.1001C134.323 36.113 134.271 36.1445 134.234 36.1896C134.196 36.2347 134.176 36.2908 134.175 36.3489C134.101 36.522 134.035 36.7095 133.966 36.8718C133.957 36.8919 133.945 36.9101 133.929 36.9253C133.913 36.9406 133.894 36.9524 133.874 36.9602C133.853 36.968 133.831 36.9715 133.809 36.9706C133.787 36.9696 133.765 36.9642 133.745 36.9547C133.643 36.9259 133.69 36.8393 133.716 36.778C134.035 35.9595 134.351 35.1409 134.685 34.3295C134.694 34.286 134.717 34.2466 134.751 34.2172C134.785 34.1878 134.827 34.1699 134.872 34.1662C134.917 34.1626 134.962 34.1733 135.001 34.1969C135.039 34.2205 135.068 34.2557 135.085 34.2971C135.452 35.1301 135.763 35.9775 136.101 36.8213L136.13 36.8682Z" fill="#2B3514"/>
<path d="M121.451 3.64517C121.377 3.73397 121.323 3.83701 121.293 3.94758C121.263 4.05816 121.256 4.17378 121.275 4.2869C121.275 10.4951 121.275 16.7033 121.275 22.9115C121.299 23.0016 121.305 23.0955 121.291 23.1878C121.278 23.2801 121.246 23.3688 121.197 23.4487C121.197 23.3189 121.197 23.1891 121.197 23.063C121.197 16.725 121.197 10.3882 121.197 4.05256C121.183 3.89032 121.021 3.56946 121.451 3.64517Z" fill="#2B3514"/>
<path d="M136.369 35.592C136.348 35.3195 136.348 35.0459 136.369 34.7735C136.398 34.5751 136.152 34.2506 136.582 34.1965C137.352 34.1028 137.862 34.3155 137.987 34.7771C138.043 34.9658 138.027 35.1682 137.941 35.3458C137.855 35.5233 137.705 35.6636 137.521 35.7398C137.451 35.7651 137.374 35.7651 137.308 35.7903C137.095 35.8732 136.78 35.6893 136.662 35.9129C136.606 36.1358 136.596 36.3677 136.633 36.5944C136.633 36.6521 136.633 36.7098 136.633 36.7675C136.633 36.8252 136.633 36.9514 136.519 36.9586C136.406 36.9658 136.362 36.8685 136.362 36.7603C136.366 36.3709 136.369 35.9814 136.369 35.592Z" fill="#2C3616"/>
<path d="M138.372 35.588V35.2274C138.372 34.0845 138.468 34.0088 139.649 34.1747C139.759 34.1747 139.858 34.1963 139.843 34.3405C139.829 34.4847 139.73 34.4523 139.645 34.4523C139.456 34.4684 139.266 34.4684 139.077 34.4523C138.6 34.3766 138.669 34.683 138.651 34.9751C138.633 35.2671 138.684 35.5051 139.088 35.4438C139.263 35.4285 139.44 35.4285 139.616 35.4438C139.711 35.4438 139.84 35.4149 139.847 35.5664C139.854 35.7178 139.737 35.7106 139.634 35.7106C139.458 35.7227 139.282 35.7227 139.106 35.7106C138.739 35.6601 138.666 35.8043 138.644 36.1577C138.611 36.6444 138.805 36.7309 139.234 36.7057C139.433 36.7057 139.818 36.5434 139.818 36.8283C139.818 37.1131 139.451 36.9472 139.231 36.9508C138.376 36.9725 138.376 36.9508 138.376 36.1036V35.5844L138.372 35.588Z" fill="#2C3616"/>
<path d="M130.352 36.2697C130.362 36.1442 130.329 36.019 130.259 35.9139C130.188 35.8088 130.084 35.7297 129.963 35.6892C129.779 35.6027 129.577 35.545 129.405 35.4404C129.277 35.364 129.181 35.2458 129.134 35.1067C129.086 34.9675 129.09 34.8163 129.145 34.6797C129.179 34.5227 129.269 34.3829 129.399 34.2852C129.529 34.1874 129.689 34.1381 129.853 34.146C129.994 34.1348 130.135 34.1712 130.252 34.2492C130.37 34.3272 130.456 34.4421 130.498 34.5751C130.535 34.6688 130.627 34.8058 130.473 34.8743C130.319 34.9428 130.304 34.8131 130.264 34.7121C130.248 34.6599 130.222 34.6113 130.187 34.5692C130.152 34.5271 130.109 34.4924 130.06 34.4671C130.011 34.4419 129.957 34.4266 129.902 34.4222C129.847 34.4179 129.791 34.4245 129.739 34.4417C129.644 34.4589 129.557 34.5076 129.494 34.5797C129.43 34.6518 129.394 34.7431 129.39 34.8383C129.378 34.9492 129.408 35.0607 129.477 35.1499C129.545 35.2391 129.645 35.2992 129.757 35.3178C129.938 35.3737 130.115 35.4424 130.286 35.5233C130.441 35.6096 130.56 35.7487 130.619 35.9147C130.677 36.0807 130.673 36.2621 130.605 36.4247C130.578 36.5967 130.489 36.7534 130.355 36.8661C130.22 36.9787 130.048 37.0396 129.871 37.0377C129.709 37.0522 129.548 37.0108 129.414 36.9206C129.28 36.8305 129.182 36.6972 129.137 36.5437C129.101 36.4392 128.965 36.2877 129.137 36.2084C129.31 36.1291 129.324 36.3274 129.372 36.4319C129.415 36.5493 129.502 36.6458 129.616 36.701C129.729 36.7562 129.86 36.7657 129.981 36.7276C130.088 36.7064 130.184 36.6488 130.251 36.5651C130.319 36.4813 130.355 36.3767 130.352 36.2697Z" fill="#2C3616"/>
<path d="M121.26 36.8208C121.502 35.9664 121.913 35.1732 122.21 34.3404C122.225 34.2929 122.256 34.2518 122.298 34.2248C122.34 34.1977 122.391 34.1863 122.441 34.1926C122.507 34.1961 122.57 34.2234 122.616 34.2693C122.663 34.3153 122.691 34.3765 122.694 34.4414L123.491 36.5468C123.538 36.673 123.597 36.7992 123.648 36.929C123.322 37.0588 123.344 36.7812 123.241 36.6333C123.138 36.4855 123.208 36.143 122.944 36.1142C122.567 36.0661 122.185 36.0746 121.81 36.1394C121.63 36.1755 121.627 36.4819 121.546 36.6694C121.491 36.7956 121.546 37.0299 121.271 36.947C121.258 36.9429 121.246 36.9351 121.237 36.9245C121.229 36.9139 121.224 36.901 121.222 36.8875C121.221 36.874 121.224 36.8605 121.231 36.8486C121.238 36.8367 121.248 36.8271 121.26 36.8208Z" fill="#2E3818"/>
<path d="M150.85 35.559C150.85 35.1985 150.85 34.8091 150.85 34.4341C150.84 34.3998 150.84 34.3633 150.849 34.3286C150.858 34.294 150.877 34.2624 150.902 34.2372C150.928 34.2121 150.961 34.1943 150.996 34.1858C151.032 34.1773 151.069 34.1784 151.104 34.189C151.324 34.189 151.544 34.189 151.764 34.2106C151.963 34.2243 152.149 34.3115 152.285 34.4546C152.421 34.5977 152.497 34.7862 152.498 34.9822C152.5 35.1781 152.43 35.3682 152.299 35.5164C152.169 35.6646 151.987 35.7606 151.79 35.7862C151.57 35.8366 151.258 35.6888 151.144 35.8979C151.086 36.1207 151.078 36.353 151.118 36.5794C151.118 36.6226 151.118 36.6659 151.118 36.7092C151.118 36.8173 151.155 36.9615 150.964 36.9543C150.773 36.9471 150.85 36.8137 150.85 36.7236C150.847 36.3378 150.85 35.9484 150.85 35.559Z" fill="#2B3615"/>
<path d="M143.56 32.5377H143.645C148.521 32.5377 153.397 32.5377 158.269 32.5377C158.699 32.5377 158.82 32.4152 158.798 32.0042C158.765 31.3446 158.798 30.6813 158.798 30.0181C158.801 30.0096 158.807 30.0023 158.815 29.9971C158.823 29.992 158.832 29.9893 158.842 29.9893C158.851 29.9893 158.86 29.992 158.868 29.9971C158.876 30.0023 158.882 30.0096 158.886 30.0181C158.886 30.7967 158.886 31.5753 158.911 32.3503C158.911 32.5918 158.827 32.6351 158.607 32.6315C157.873 32.6315 157.139 32.6315 156.405 32.6315C152.281 32.6315 148.157 32.6315 144.033 32.6315C143.872 32.6351 143.678 32.7432 143.56 32.5377Z" fill="#273110"/>
<path d="M152.879 36.0851C152.751 36.3008 152.656 36.5341 152.597 36.7772C152.546 36.8818 152.513 37.008 152.355 36.9575C152.142 36.889 152.311 36.7772 152.355 36.6943C152.645 35.9517 152.942 35.2127 153.239 34.4738C153.241 34.402 153.27 34.3335 153.32 34.2811C153.37 34.2287 153.438 34.1959 153.511 34.189C153.716 34.189 153.731 34.3332 153.786 34.4629C154.153 35.2704 154.343 36.1284 154.78 36.9863C154.222 36.8421 154.329 36.3555 154.116 36.0923C153.709 36.0007 153.287 35.9983 152.879 36.0851Z" fill="#2D3717"/>
<path d="M124.008 19.6489C123.956 19.5794 123.921 19.499 123.905 19.4139C123.89 19.3289 123.895 19.2415 123.92 19.1586C123.92 13.9886 123.92 8.82097 123.92 3.65576C124.103 3.69181 124.023 3.83963 124.023 3.93337C124.023 9.13223 124.023 14.3311 124.023 19.5299C124.02 19.5698 124.015 19.6096 124.008 19.6489Z" fill="#252F0E"/>
<path d="M146.47 19.5879C146.605 19.3824 146.818 19.4761 146.991 19.4761C150.744 19.4761 154.494 19.4761 158.247 19.4761C158.709 19.4761 158.823 19.3427 158.798 18.9172C158.761 18.344 158.798 17.7671 158.798 17.1902C158.778 17.1205 158.776 17.0473 158.79 16.9766C158.805 16.9058 158.836 16.8394 158.882 16.7827C158.882 17.63 158.882 18.481 158.908 19.3283C158.908 19.6239 158.731 19.5626 158.566 19.5626H154.028L146.47 19.5879Z" fill="#273210"/>
<path d="M148.844 36.8643L147.926 34.7191H147.868C147.868 35.3501 147.868 35.9774 147.868 36.6083C147.868 36.7273 147.978 36.9472 147.75 36.9688C147.523 36.9904 147.618 36.7561 147.614 36.6335C147.614 35.9702 147.614 35.3104 147.614 34.6471C147.614 34.4992 147.457 34.2505 147.787 34.2108C148.117 34.1712 148.099 34.4163 148.154 34.5966C148.356 35.2599 148.66 35.88 148.921 36.5182C149.064 36.6552 149.111 36.7886 148.844 36.8643Z" fill="#293313"/>
<path d="M157.4 34.1675C157.946 34.4559 157.924 35.1552 158.332 35.5806C158.533 35.1877 158.732 34.8056 158.922 34.4198C158.988 34.2828 159.076 34.117 159.238 34.2107C159.399 34.3045 159.212 34.4306 159.168 34.528C159.054 34.8084 158.915 35.0786 158.754 35.3355C158.488 35.7525 158.376 36.2459 158.434 36.7342C158.434 36.8243 158.475 36.9505 158.313 36.9613C158.291 36.9663 158.268 36.9651 158.246 36.958C158.225 36.9509 158.205 36.9382 158.191 36.9211C158.176 36.904 158.166 36.8832 158.163 36.8611C158.159 36.8389 158.162 36.8163 158.17 36.7955C158.328 35.8546 157.715 35.1661 157.367 34.391L157.297 34.236L157.4 34.1675Z" fill="#2D3717"/>
<path d="M158.875 30.0293H146.561V29.9424H158.856C158.866 29.9598 158.875 29.9779 158.882 29.9967C158.882 30.008 158.88 30.0192 158.875 30.0293Z" fill="#212C0A"/>
<path d="M121.194 32.5381C121.957 32.5381 122.72 32.5381 123.483 32.5381C123.85 32.5381 123.927 32.4299 123.927 32.0946C123.927 29.4265 123.927 26.7584 123.927 24.0902C123.927 23.964 123.927 23.8378 123.949 23.7117C123.96 23.7074 123.972 23.7074 123.982 23.7117C123.997 23.7152 124.01 23.7214 124.023 23.7297C124.023 26.6141 124.023 29.4986 124.023 32.383C124.023 32.5345 124.023 32.6607 123.806 32.6571C122.97 32.6571 122.137 32.6571 121.3 32.6571C121.284 32.6595 121.268 32.658 121.253 32.6526C121.238 32.6473 121.224 32.6382 121.214 32.6263C121.203 32.6145 121.196 32.6002 121.192 32.5847C121.189 32.5693 121.189 32.5532 121.194 32.5381Z" fill="#252F0E"/>
<path d="M148.844 36.8642C148.897 36.8223 148.934 36.7631 148.947 36.6971C148.961 36.6311 148.95 36.5626 148.917 36.5037C149.152 36.5037 149.108 36.2838 149.166 36.1432C149.456 35.5304 149.625 34.8671 149.974 34.2759C150.084 34.3191 150.26 34.2579 150.282 34.4417C150.282 34.5426 150.282 34.6508 150.117 34.6111C149.75 35.278 149.526 36.0134 149.214 36.7092C149.152 36.8966 149.097 37.1201 148.844 36.8642Z" fill="#2B3515"/>
<path d="M121.26 36.821V36.9435C120.82 36.9817 120.378 36.9817 119.939 36.9435C119.84 36.0999 119.917 35.2527 119.899 34.4199C119.899 34.2649 119.983 34.218 120.13 34.2685C120.192 34.9246 120.13 35.5844 120.159 36.2405C120.133 36.3964 120.147 36.5562 120.199 36.7056C120.563 36.738 120.941 36.565 121.26 36.821Z" fill="#353F20"/>
<path d="M150.131 34.6254C150.432 34.3695 150.062 34.3911 149.988 34.2902C150.256 34.2109 150.407 34.2361 150.392 34.5857C150.366 35.285 150.392 35.9878 150.392 36.6906C150.392 36.7915 150.443 36.9537 150.263 36.9501C150.084 36.9465 150.142 36.7843 150.142 36.687C150.128 36.0166 150.131 35.2958 150.131 34.6254Z" fill="#212C0A"/>
<path d="M137.396 32.6022C137.824 32.5223 138.262 32.5029 138.695 32.5446C139.264 32.5446 139.832 32.5446 140.401 32.5446C140.548 32.5446 140.695 32.5698 140.731 32.3755C140.778 32.4062 140.818 32.4466 140.847 32.4938C140.876 32.5411 140.894 32.594 140.9 32.6489C139.722 32.6129 138.57 32.6885 137.396 32.6022Z" fill="#283211"/>
<path d="M120.148 34.2538C119.913 34.2899 119.961 34.4737 119.961 34.6144C119.961 35.3859 119.961 36.1611 119.961 36.9326C119.862 36.7168 119.837 36.4748 119.891 36.244C119.891 35.6455 119.891 35.047 119.891 34.4413C119.88 34.2791 119.858 34.088 120.148 34.2538Z" fill="#464F33"/>
<path d="M158.875 6.40674C158.826 6.33576 158.793 6.25509 158.779 6.17038C158.765 6.08568 158.77 5.999 158.794 5.91644C158.794 5.15936 158.794 4.40228 158.794 3.6416C158.926 3.6416 158.897 3.75697 158.897 3.83267C158.889 4.6931 158.882 5.55112 158.875 6.40674Z" fill="#26300F"/>
<path d="M120.225 36.6919C120.17 36.6173 120.134 36.5313 120.119 36.4406C120.103 36.3499 120.11 36.2569 120.137 36.169C120.137 35.5306 120.137 34.8923 120.137 34.2539C120.19 34.8944 120.206 35.5375 120.185 36.1798C120.2 36.3529 120.225 36.5224 120.225 36.6919Z" fill="#464F33"/>
<path d="M124.177 36.7812C124.093 36.0886 124.069 35.3901 124.107 34.6935C124.107 34.5276 124.217 34.5745 124.265 34.6935C124.089 35.0541 124.217 35.4146 124.195 35.7752C124.173 36.1358 124.18 36.4531 124.177 36.7812Z" fill="#8E9483"/>
<path d="M152.88 36.0866C153.276 35.9379 153.714 35.9457 154.105 36.1084L152.88 36.0866Z" fill="#303A1B"/>
<path d="M20.0096 0.0899173C20.0096 12.6655 20.0096 25.2398 20.0096 37.813C15.8453 37.813 11.681 37.813 7.51661 37.813C7.14971 37.813 7.05798 37.6904 7.05798 37.3443C7.05798 24.9226 7.05798 12.5008 7.05798 0.0791016H20.0023L20.0096 0.0899173Z" fill="#99C13B"/>
<path d="M0.127197 37.8198C0.127197 36.5219 0.127197 35.2275 0.127197 33.9296C0.127197 30.4708 0.127197 27.012 0.127197 23.5532C0.172923 23.6182 0.203815 23.6921 0.217752 23.7699C0.231689 23.8477 0.228343 23.9275 0.207946 24.0039C0.207946 28.4578 0.207946 32.9117 0.207946 37.3655C0.226364 37.4427 0.228705 37.5227 0.214829 37.6008C0.200952 37.6789 0.171143 37.7534 0.127197 37.8198Z" fill="#C0D742"/>
<path d="M60.079 37.8198C59.9322 37.8198 59.7855 37.8198 59.6387 37.8198C52.4964 37.8198 45.3528 37.8198 38.208 37.8198C37.8411 37.8198 37.698 37.7657 37.698 37.3583C37.7102 24.9345 37.7102 12.5107 37.698 0.0869141H60.079C60.079 12.6597 60.079 25.2374 60.079 37.8198Z" fill="#6B863A"/>
<path d="M104.104 30.4572C105.567 30.4281 107.01 30.1157 108.35 29.5379C109.691 28.9601 110.902 28.1282 111.915 27.0899C112.356 26.6474 112.766 26.1752 113.14 25.6767C113.17 25.6116 113.217 25.5556 113.276 25.5149C113.336 25.4742 113.406 25.4504 113.478 25.4459C114.546 25.4459 115.61 25.4459 116.721 25.4459C116.576 25.8045 116.388 26.1446 116.16 26.459C113.724 30.2084 110.29 32.523 105.795 33.0998C95.8886 34.3725 89.7356 27.454 88.6569 20.9394C87.3618 13.1088 91.5225 7.33325 96.6408 4.62933C99.2292 3.2863 102.174 2.75412 105.08 3.10432C110.392 3.6415 114.252 6.32018 116.82 10.8664C116.859 10.9071 116.887 10.9559 116.903 11.0091C116.919 11.0622 116.922 11.1183 116.912 11.1728C115.837 11.1728 114.755 11.1728 113.676 11.1728C113.582 11.1614 113.493 11.1248 113.418 11.0669C113.344 11.0091 113.287 10.9322 113.254 10.8447C112.025 9.25123 110.594 7.87043 108.727 7.0196C104.034 4.8853 97.6534 5.43691 93.6432 11.1115C91.7793 13.7506 91.1959 16.6996 91.6142 19.8362C92.1792 24.0687 94.41 27.2305 98.2184 29.2819C99.6177 30.0269 101.18 30.4266 102.772 30.4464C103.214 30.3893 103.662 30.393 104.104 30.4572Z" fill="#FEFEFE"/>
<path d="M87.204 37.73H87.1123C87.1123 25.3901 87.1123 13.0502 87.1123 0.710352C87.0868 0.620645 87.0811 0.526613 87.0956 0.434577C87.1102 0.342541 87.1446 0.254629 87.1966 0.176758C87.2015 12.6945 87.204 25.2122 87.204 37.73Z" fill="#5C7537"/>
<path d="M113.621 11.2773H116.842V11.3104H113.621V11.2773Z" fill="#3B4C1B"/>
<path d="M104.104 30.4581C103.666 30.5049 103.224 30.5049 102.786 30.4581C103.215 30.3252 103.675 30.3252 104.104 30.4581Z" fill="#394B1A"/>
<path d="M67.1198 23.6187C66.5658 25.0211 66.0191 26.4236 65.4541 27.8261C64.867 29.3259 64.2836 30.8281 63.7039 32.3327C63.6765 32.4739 63.6 32.6013 63.4875 32.6932C63.1343 32.7763 62.7684 32.7934 62.4088 32.7437C61.8154 32.7861 61.2192 32.7692 60.6293 32.6932C60.4642 32.5562 60.6109 32.4264 60.655 32.3074C64.39 22.8519 68.1263 13.3928 71.8639 3.9301C71.8851 3.83449 71.9422 3.75024 72.0238 3.69413C72.1054 3.63801 72.2055 3.61414 72.3041 3.62726C73.2287 3.62726 74.1387 3.64889 75.0779 3.62726C75.2049 3.60904 75.3342 3.63921 75.4392 3.7116C75.5443 3.784 75.6172 3.89313 75.643 4.01663C77.5998 9.0256 79.5688 14.0334 81.5501 19.0399C83.2795 23.4288 85.0063 27.8176 86.7308 32.2065C86.7867 32.2734 86.8242 32.3533 86.8396 32.4385C86.855 32.5238 86.8479 32.6115 86.8188 32.6932C86.2108 32.7728 85.596 32.7897 84.9843 32.7437C84.6171 32.7911 84.2442 32.7728 83.8836 32.6896C83.6721 32.3628 83.5148 32.005 83.4177 31.6297C82.4123 29.0663 81.4217 26.5029 80.4237 23.9359C80.376 23.817 80.3137 23.7052 80.2586 23.5754C80.1734 23.5958 80.0858 23.6055 79.9981 23.6042C75.7017 23.6223 71.4273 23.6367 67.1198 23.6187Z" fill="#FEFEFE"/>
<path d="M67.1198 23.6186C67.1601 23.5773 67.2119 23.5487 67.2688 23.5364C67.3256 23.5242 67.3848 23.5289 67.439 23.5499H79.965C80.0141 23.5365 80.0656 23.5341 80.1158 23.5428C80.1659 23.5516 80.2135 23.5713 80.2549 23.6006C80.1852 23.6644 80.0993 23.7085 80.0064 23.7283C79.9134 23.748 79.8167 23.7426 79.7265 23.7127C75.7004 23.7127 71.6742 23.7127 67.6481 23.7127C67.4793 23.7055 67.2555 23.8755 67.1198 23.6186Z" fill="#566F2E"/>
<path d="M83.8799 32.6929H86.8151C86.8664 32.7572 86.8408 32.793 86.7637 32.793H83.9276C83.9148 32.7928 83.9022 32.7899 83.8908 32.7843C83.8793 32.7787 83.8694 32.7707 83.8616 32.7608C83.8618 32.737 83.8681 32.7137 83.8799 32.6929Z" fill="#4F6A26"/>
<path d="M60.6293 32.6968H63.4874C63.5205 32.7328 63.5205 32.7905 63.4874 32.7905C62.5408 32.7905 61.5942 32.7905 60.6476 32.7905C60.6412 32.7898 60.6352 32.7874 60.63 32.7836C60.6249 32.7798 60.6208 32.7747 60.6183 32.7689C60.6201 32.7446 60.6238 32.7205 60.6293 32.6968Z" fill="#4F6A26"/>
<path d="M146.917 35.5807C146.922 35.7322 146.897 35.8832 146.842 36.025C146.788 36.1669 146.705 36.2967 146.599 36.4072C146.494 36.5177 146.367 36.6067 146.226 36.669C146.086 36.7314 145.934 36.7658 145.78 36.7705C145.461 36.7705 145.155 36.6459 144.929 36.4241C144.703 36.2023 144.576 35.9015 144.576 35.5879C144.576 35.2742 144.703 34.9734 144.929 34.7517C145.155 34.5299 145.461 34.4053 145.78 34.4053C145.933 34.409 146.084 34.4424 146.224 34.5035C146.364 34.5646 146.491 34.6522 146.596 34.7614C146.702 34.8705 146.785 34.9991 146.84 35.1397C146.895 35.2802 146.921 35.4301 146.917 35.5807Z" fill="#FEFEFE"/>
<path d="M127.233 36.7051C126.866 36.7989 126.793 36.6042 126.815 36.2401C126.844 35.739 126.815 35.2308 126.815 34.7261C126.815 34.517 126.885 34.4629 127.09 34.4557C127.993 34.4161 128.473 34.7585 128.502 35.4939C128.543 36.305 128.147 36.6943 127.233 36.7051Z" fill="#FDFDFD"/>
<path d="M134.391 35.8113L134.879 34.5352C134.995 34.6595 135.072 34.8131 135.103 34.9786C135.463 35.9014 135.459 35.9014 134.391 35.8113Z" fill="#FAFAFA"/>
<path d="M136.622 35.0038C136.648 34.7585 136.486 34.423 136.989 34.4627C137.492 34.5024 137.69 34.625 137.701 34.9858C137.712 35.3465 137.495 35.5053 136.967 35.5413C136.439 35.5774 136.659 35.2311 136.622 35.0038Z" fill="#F7F7F6"/>
<path d="M122.427 34.438L122.951 35.8223H121.92L122.427 34.438Z" fill="#F2F2F0"/>
<path d="M122.856 35.9779H122.005V35.9448H122.856V35.9779Z" fill="#242E0D"/>
<path d="M151.111 34.9936C151.173 34.7806 150.95 34.434 151.441 34.4593C151.933 34.4846 152.175 34.6254 152.175 34.9899C152.175 35.3545 151.959 35.4989 151.441 35.5386C150.924 35.5783 151.181 35.1993 151.111 34.9936Z" fill="#F9F9F9"/>
<path d="M152.993 35.8198L153.496 34.4844L154.031 35.7404C154.006 35.9569 153.833 35.8631 153.731 35.8631C153.484 35.898 153.233 35.8832 152.993 35.8198Z" fill="#FAFAF9"/>
<path d="M152.993 35.8184C153.338 35.8184 153.698 35.9444 154.028 35.7393C154.123 35.8328 154.079 35.9012 153.969 35.9048C153.639 35.9048 153.309 35.9048 152.979 35.9048C152.975 35.8943 152.975 35.8829 152.979 35.8724C152.979 35.8535 152.984 35.835 152.993 35.8184Z" fill="#303A1B"/>
<path d="M68.2719 20.601C68.8589 19.0724 69.4202 17.5257 70 15.9899C71.1569 12.9303 72.3175 9.87185 73.4818 6.81462C73.4889 6.74386 73.5108 6.67529 73.5462 6.61325C73.5816 6.55121 73.6296 6.49702 73.6873 6.4541L75.4374 11.0003L79.0477 20.3739C79.0991 20.5072 79.1358 20.6442 79.1798 20.7812C79.0267 20.8679 78.8469 20.8973 78.6735 20.8642C75.3934 20.8642 72.1145 20.8642 68.8369 20.8642C68.6167 20.8534 68.3416 20.9363 68.2719 20.601Z" fill="#5A7333"/>
<path d="M68.2719 20.6011C68.3372 20.6786 68.4237 20.736 68.5213 20.7667C68.6188 20.7974 68.7233 20.7999 68.8222 20.7741H79.1799C79.1799 21.0227 78.9965 20.911 78.9048 20.911C75.4192 20.911 71.9336 20.911 68.448 20.911C68.1251 20.9182 68.1251 20.8209 68.2719 20.6011Z" fill="#516B28"/>
</svg>
