<svg width="203" height="30" viewBox="0 0 203 30" fill="none" xmlns="http://www.w3.org/2000/svg">
<path d="M32.198 0C32.198 0 32.9424 18.8248 25.8291 25.251C18.7158 31.6771 10.5272 30.9967 4.57184 26.6874C15.7381 15.574 32.198 0 32.198 0Z" fill="#CDD500"/>
<path d="M32.1982 0C32.1982 0 11.6026 0.453611 4.98561 7.25776C-1.63144 14.0619 -0.556166 21.4709 4.48933 26.6874C15.9864 15.8008 32.1982 0 32.1982 0Z" fill="#9ABF1D"/>
<path d="M17.806 13.7592C17.7233 13.6836 17.7233 13.5324 17.806 13.3812L27.4006 4.08209C27.4834 4.00649 27.6488 4.00649 27.8142 4.08209C27.9796 4.15769 27.8969 4.3089 27.8142 4.4601L18.2196 13.7592C18.0541 13.8348 17.8887 13.8348 17.806 13.7592Z" fill="white"/>
<path d="M8.5422 22.6805C8.45949 22.6049 8.45949 22.4537 8.5422 22.3025L16.7307 14.3643C16.8134 14.2887 16.9788 14.2887 17.1443 14.3643C17.227 14.4399 17.227 14.5911 17.1443 14.7423L8.95576 22.6805C8.79033 22.8317 8.62491 22.8317 8.5422 22.6805Z" fill="white"/>
<path d="M9.61809 23.4369C9.61809 23.4369 9.61809 23.3613 9.61809 23.4369L9.86629 21.698C9.86629 21.6224 9.78356 21.4712 9.61809 21.4712L7.79792 21.698C7.71518 21.698 7.71518 21.7736 7.71518 21.7736C7.71518 21.7736 7.71518 21.7736 7.71518 21.8492L7.46698 23.5125C7.46698 23.5881 7.54971 23.7393 7.71518 23.7393L9.53535 23.5125C9.53535 23.5125 9.53535 23.4369 9.61809 23.4369Z" fill="white"/>
<path d="M8.79023 15.12L8.70752 15.9516L9.61732 15.8004L9.70003 14.9688L8.79023 15.12ZM8.21126 16.4052C8.12855 16.3296 8.04584 16.1784 8.04584 16.1028L8.21126 14.9688V14.8931C8.29397 14.8175 8.37668 14.6663 8.45939 14.6663L9.70003 14.5151C9.78274 14.5151 9.94816 14.5151 10.0309 14.5907C10.1136 14.6663 10.1963 14.8175 10.1136 14.8931L9.94817 16.0272V16.1028C10.0309 16.1784 9.86545 16.3296 9.78274 16.3296L8.5421 16.4808C8.45939 16.4808 8.29397 16.4808 8.21126 16.4052Z" fill="white"/>
<path d="M16.7307 14.1374L17.3097 14.6667L17.5578 13.9106L16.7307 14.1374ZM17.3097 15.3471L16.069 14.213C15.9863 14.1374 15.9863 14.0618 15.9863 13.9862C15.9863 13.9106 16.069 13.835 16.1517 13.835L17.8886 13.3813C17.9713 13.3813 18.0541 13.3813 18.1368 13.457C18.2195 13.5326 18.2195 13.6082 18.2195 13.6838L17.8059 15.2715C17.8059 15.3471 17.7232 15.4228 17.6405 15.4228C17.4751 15.4228 17.3924 15.4228 17.3097 15.3471Z" fill="white"/>
<path d="M9.86544 14.742C9.78273 14.6664 9.78273 14.5152 9.86544 14.3639L19.9564 4.61139C20.0392 4.53579 20.2046 4.53579 20.37 4.61139C20.4527 4.68699 20.4527 4.83819 20.37 4.98939L10.279 14.742C10.1963 14.8932 9.94815 14.8932 9.86544 14.742Z" fill="white"/>
<path d="M5.15083 12.3983C5.06811 12.3227 5.06812 12.3227 5.06812 12.2471C5.06812 12.1715 5.06811 12.0959 5.15083 12.0959L11.6024 5.82086C11.6851 5.74526 11.8506 5.74526 12.016 5.82086C12.0987 5.89646 12.0987 6.04767 12.016 6.19887L5.72982 12.2471L8.70748 14.7419C8.79019 14.8175 8.79019 14.9687 8.70748 15.1199C8.62477 15.1955 8.45934 15.1955 8.29392 15.1199L5.15083 12.3983Z" fill="white"/>
<path d="M12.5123 5.2157L11.6852 5.44252L12.3468 5.97178L12.5123 5.2157ZM11.0235 5.51813C10.9408 5.44253 10.9408 5.36692 10.9408 5.29131C10.9408 5.2157 11.0235 5.14009 11.1062 5.14009L12.8431 4.61084C12.9258 4.61084 13.0085 4.61084 13.0912 4.68645C13.1739 4.76206 13.1739 4.83766 13.1739 4.91327L12.7604 6.50103C12.7604 6.57664 12.6777 6.65225 12.595 6.65225C12.5123 6.65225 12.4296 6.65225 12.3468 6.57664L11.0235 5.51813Z" fill="white"/>
<path d="M20.784 5.29111C21.4236 5.29111 21.9422 4.81725 21.9422 4.23271C21.9422 3.64818 21.4236 3.17432 20.784 3.17432C20.1443 3.17432 19.6257 3.64818 19.6257 4.23271C19.6257 4.81725 20.1443 5.29111 20.784 5.29111Z" fill="white"/>
<path d="M27.9801 4.91367C28.6197 4.91367 29.1383 4.43981 29.1383 3.85527C29.1383 3.27073 28.6197 2.79688 27.9801 2.79688C27.3404 2.79688 26.8218 3.27073 26.8218 3.85527C26.8218 4.43981 27.3404 4.91367 27.9801 4.91367Z" fill="white"/>
<path d="M7.54961 22.001L4.82009 19.6573C4.73738 19.5817 4.73738 19.4305 4.82009 19.2793L8.04588 16.1041C8.1286 16.0285 8.29402 16.0285 8.45945 16.1041C8.54216 16.1797 8.54216 16.3309 8.45945 16.4821L5.39908 19.4305L7.96317 21.623C8.04588 21.6986 8.04588 21.8498 7.96317 22.001C7.79775 22.0766 7.63232 22.0766 7.54961 22.001Z" fill="white"/>
<path d="M15.9862 21.319L15.9035 22.1505L16.8133 21.9994L16.8961 21.1678L15.9862 21.319ZM15.4899 22.5285C15.4072 22.4529 15.3245 22.3017 15.3245 22.2261L15.4072 21.0922C15.4072 20.941 15.4899 20.8654 15.6553 20.7898H15.738L16.9788 20.563C17.0615 20.563 17.2269 20.563 17.3096 20.6386C17.3924 20.7142 17.4751 20.8654 17.4751 20.941L17.3924 22.0749C17.3924 22.2261 17.3096 22.3017 17.1442 22.3773H17.0615L15.8208 22.6041C15.738 22.6797 15.5726 22.6797 15.4899 22.5285C15.4899 22.5285 15.4899 22.6041 15.4899 22.5285Z" fill="white"/>
<path d="M17.0614 21.0173C16.9787 20.9417 16.9787 20.7905 17.0614 20.6393L27.1524 10.8868C27.2351 10.8112 27.4006 10.8112 27.566 10.8868C27.6487 10.9624 27.6487 11.1136 27.566 11.2648L17.475 21.0173C17.3923 21.0929 17.2269 21.0929 17.0614 21.0173Z" fill="white"/>
<path d="M19.9567 25.1756L16.8963 22.4539C16.8136 22.3783 16.8136 22.2271 16.8963 22.0759C16.979 22.0003 17.1445 22.0003 17.3099 22.0759L20.2048 24.6464L26.491 18.5982C26.5737 18.5226 26.7391 18.5226 26.9045 18.5982C26.9872 18.6738 26.9872 18.825 26.9045 18.9762L20.453 25.2512C20.3702 25.3268 20.3702 25.3268 20.2875 25.3268C20.1221 25.2512 20.0394 25.1756 19.9567 25.1756Z" fill="white"/>
<path d="M26.5736 18.2955L27.1525 18.8247L27.4007 18.0687L26.5736 18.2955ZM27.1525 19.4295L25.912 18.2955C25.8293 18.2199 25.8293 18.1443 25.8293 18.0687C25.8293 17.9931 25.912 17.9175 25.9947 17.9175L27.7315 17.4639C27.8142 17.4639 27.8969 17.4639 27.9796 17.5395C28.0623 17.6151 28.0623 17.6907 28.0623 17.7663L27.5661 19.3539C27.5661 19.4295 27.4834 19.5051 27.4007 19.5051C27.3179 19.5051 27.1525 19.5051 27.1525 19.4295Z" fill="white"/>
<path d="M27.9801 11.4918C28.6197 11.4918 29.1383 11.0179 29.1383 10.4334C29.1383 9.84886 28.6197 9.375 27.9801 9.375C27.3404 9.375 26.8218 9.84886 26.8218 10.4334C26.8218 11.0179 27.3404 11.4918 27.9801 11.4918Z" fill="white"/>
<path d="M12.0988 25.9322L9.36928 23.5886C9.28657 23.513 9.28657 23.3618 9.36928 23.2106C9.452 23.135 9.61742 23.135 9.78284 23.2106L12.2642 25.403L15.3245 22.4546C15.4072 22.379 15.5726 22.379 15.738 22.4546C15.8208 22.5302 15.8208 22.6814 15.738 22.8326L12.5123 26.0078C12.3469 26.0078 12.1815 26.0078 12.0988 25.9322Z" fill="white"/>
<path d="M48.5753 8.39212L44.6878 15.9523H52.5455L48.5753 8.39212ZM48.9061 3.93164L59.5761 24.8732H57.0947L53.4553 17.9935H43.6125L40.0559 24.8732H37.4918L48.3271 3.93164H48.9061Z" fill="#121414"/>
<path d="M84.886 7.40858L83.149 8.92062C81.9083 7.78659 80.5022 6.87937 78.9306 6.27456C77.4418 5.66974 75.953 5.36734 74.4641 5.36734C72.6444 5.36734 70.9902 5.74534 69.3359 6.57696C67.6817 7.40858 66.441 8.46701 65.5311 9.82784C64.6213 11.1887 64.2077 12.7007 64.2077 14.2127C64.2077 15.8004 64.704 17.3124 65.6138 18.6732C66.5237 20.1097 67.8471 21.2437 69.4186 21.9997C71.0729 22.8313 72.8099 23.2093 74.795 23.2093C77.1937 23.2093 79.1788 22.6045 80.7503 21.3949C82.4046 20.1853 83.3144 18.5976 83.6453 16.632H76.3665V14.5907H86.2094C86.2094 17.8416 85.1341 20.4121 83.0663 22.3021C80.9984 24.1922 78.1862 25.175 74.7123 25.175C70.4939 25.175 67.1027 23.8898 64.6213 21.2437C62.7189 19.2024 61.7263 16.8588 61.7263 14.2127C61.7263 12.2471 62.3053 10.357 63.3806 8.69381C64.4558 7.03057 65.9447 5.66974 67.8471 4.68692C69.7495 3.7041 71.9 3.25049 74.2987 3.25049C76.2011 3.25049 78.1035 3.55289 79.7578 4.23331C81.5774 4.98933 83.2317 6.04775 84.886 7.40858Z" fill="#121414"/>
<path d="M92.5784 5.97289V13.0795H96.5486C98.0375 13.0795 99.1954 12.9283 99.9398 12.7015C100.684 12.3991 101.263 12.021 101.677 11.4162C102.09 10.8114 102.256 10.2066 102.256 9.45058C102.256 8.77016 102.008 8.08974 101.594 7.56053C101.181 6.95572 100.602 6.57771 99.9398 6.3509C99.2781 6.12409 98.1202 5.97289 96.5486 5.97289H92.5784ZM90.3452 3.93164H94.8944C97.4585 3.93164 99.1954 4.00724 100.105 4.23405C101.429 4.53646 102.587 5.14127 103.414 6.04849C104.241 6.95572 104.654 8.16535 104.654 9.52618C104.654 10.6602 104.324 11.643 103.745 12.5503C103.166 13.3819 102.339 14.0623 101.263 14.5159C100.188 14.9695 98.6992 15.1963 96.714 15.1963L104.985 24.949H102.173L93.9018 15.1963H92.5784V24.949H90.2625L90.3452 3.93164Z" fill="#121414"/>
<path d="M120.205 5.4431C118.468 5.4431 116.896 5.82111 115.407 6.65273C113.918 7.48435 112.678 8.54277 111.851 9.9036C111.023 11.2644 110.61 12.7765 110.61 14.5153C110.61 17.0102 111.52 19.127 113.422 20.7902C115.325 22.5291 117.558 23.3607 120.287 23.3607C122.107 23.3607 123.679 22.9827 125.25 22.1511C126.739 21.3951 127.98 20.261 128.807 18.9002C129.634 17.5394 130.047 16.0273 130.047 14.3641C130.047 12.7009 129.634 11.1888 128.807 9.828C127.98 8.46717 126.739 7.40875 125.25 6.57713C123.596 5.82111 121.942 5.4431 120.205 5.4431ZM120.122 3.40186C123.596 3.40186 126.491 4.46028 128.807 6.57713C131.123 8.69397 132.281 11.2644 132.281 14.3641C132.281 17.4638 131.123 20.0342 128.807 22.1511C126.491 24.2679 123.596 25.3263 120.287 25.3263C116.896 25.3263 114.001 24.2679 111.685 22.1511C109.369 20.0342 108.211 17.4638 108.211 14.4397C108.211 12.3985 108.707 10.584 109.783 8.84518C110.858 7.10634 112.264 5.74551 114.167 4.83829C115.986 3.85547 117.971 3.40186 120.122 3.40186Z" fill="#121414"/>
<path d="M136.499 3.93164H138.815V22.832H147.665V24.8732H136.582L136.499 3.93164Z" fill="#121414"/>
<path d="M159.989 8.31652L156.102 15.8767H163.959L159.989 8.31652ZM160.237 3.93164L170.907 24.8732H168.426L164.787 17.9935H154.944L151.387 24.8732H148.823L159.658 3.93164H160.237Z" fill="#121414"/>
<path d="M176.449 14.7421V22.7558H179.262C180.916 22.7558 182.157 22.6046 182.984 22.3022C183.728 21.9998 184.39 21.5462 184.886 20.8658C185.382 20.261 185.631 19.5049 185.631 18.8245C185.631 17.9173 185.3 17.0857 184.638 16.4053C183.976 15.7249 183.066 15.2713 181.908 14.9689C181.164 14.8177 179.758 14.7421 177.856 14.7421H176.449ZM176.449 5.97231V12.7008H177.773C179.344 12.7008 180.502 12.5496 181.247 12.3228C181.991 12.0204 182.57 11.6424 183.066 11.0376C183.48 10.4328 183.728 9.82798 183.728 9.07196C183.728 8.08915 183.397 7.33313 182.653 6.80392C181.908 6.27471 180.75 5.97231 179.179 5.97231H176.449ZM174.216 3.85547H178.765C180.585 3.85547 181.991 4.08227 182.984 4.46028C183.976 4.83829 184.721 5.4431 185.3 6.27471C185.879 7.10633 186.127 8.01354 186.127 8.99636C186.127 9.90358 185.879 10.8108 185.382 11.5668C184.886 12.3228 184.142 12.9276 183.232 13.4568C184.39 13.8348 185.3 14.2885 185.961 14.7421C186.623 15.2713 187.119 15.8761 187.45 16.5565C187.781 17.2369 187.946 18.0685 187.946 18.8245C187.946 20.4878 187.285 21.9242 185.961 23.0582C184.638 24.1922 182.818 24.797 180.585 24.797H174.299L174.216 3.85547Z" fill="#121414"/>
<path d="M189.683 20.942L191.668 19.8836C193.074 22.2272 194.646 23.3612 196.383 23.3612C197.127 23.3612 197.872 23.21 198.533 22.832C199.195 22.5296 199.691 22.076 200.105 21.5468C200.436 21.0176 200.601 20.4128 200.601 19.808C200.601 19.1276 200.353 18.4471 199.857 17.7667C199.112 16.8595 197.789 15.7255 195.887 14.4403C193.984 13.155 192.744 12.1722 192.33 11.5674C191.503 10.5846 191.089 9.52615 191.089 8.39213C191.089 7.48491 191.337 6.6533 191.834 5.89728C192.33 5.14126 192.992 4.53645 193.819 4.15844C194.646 3.70483 195.639 3.47803 196.631 3.47803C197.706 3.47803 198.699 3.70483 199.691 4.23404C200.601 4.68765 201.594 5.59487 202.669 6.9557L200.767 8.24093C199.94 7.1825 199.195 6.50209 198.533 6.19969C197.955 5.89728 197.293 5.67047 196.548 5.67047C195.639 5.67047 194.894 5.89728 194.315 6.42649C193.736 6.9557 193.405 7.56051 193.405 8.31653C193.405 8.77014 193.488 9.22375 193.736 9.67736C193.984 10.131 194.315 10.5846 194.894 11.0382C195.225 11.3406 196.218 12.021 197.872 13.155C199.857 14.5159 201.18 15.6499 201.925 16.7083C202.669 17.7667 203 18.8252 203 19.8836C203 21.3956 202.338 22.7564 201.098 23.8149C199.857 24.9489 198.285 25.4781 196.466 25.4781C195.06 25.4781 193.819 25.1757 192.661 24.4953C191.751 23.6637 190.676 22.5296 189.683 20.942Z" fill="#121414"/>
</svg>
