<svg width="107" height="75" viewBox="0 0 107 75" fill="none" xmlns="http://www.w3.org/2000/svg">
<path d="M45.8604 26.0609C42.6839 26.8254 39.3977 26.7519 36.1585 27.0018C33.2167 27.2223 30.3844 27.7368 27.8963 29.3686C27.7554 29.4568 27.6303 29.6185 27.3329 29.5009C27.6929 28.1779 28.2405 26.9283 28.8665 25.7081C30.4782 22.5768 32.4656 19.7102 35.204 17.3287C37.6295 15.2118 40.3679 13.7123 43.7166 13.33C46.9245 12.9772 49.6943 13.874 52.0102 15.9468C52.5892 16.4613 53.1056 16.5348 53.7941 16.4172C56.955 15.8733 60.116 15.888 63.2613 16.5936C65.4364 17.0788 67.455 17.902 69.2702 19.1369C73.0414 21.6948 75.0757 25.2671 76.0459 29.4568C76.5153 31.4708 76.6405 33.5289 76.6561 35.5871C76.6718 37.3953 76.6718 39.2182 76.6561 41.0264C76.6561 41.4527 76.7657 41.5409 77.1882 41.3792C80.3961 40.1296 83.2284 38.3949 85.3096 35.7488C85.7165 35.2195 86.1233 34.9843 86.8275 34.999C90.1449 35.0284 93.4467 35.0137 96.7641 35.0137C97.6248 35.0137 97.6561 35.0284 97.2336 35.69C94.6673 39.7327 91.3498 43.0845 87.0466 45.5395C86.5458 45.8188 86.671 45.9658 86.9683 46.2598C90.7239 50.0379 93.6032 54.3453 95.7157 59.1083C96.8111 61.5634 97.6873 64.0919 98.3133 66.7086C98.4541 67.3114 98.2507 67.3408 97.7343 67.3408C94.8081 67.3261 91.8975 67.3261 88.9713 67.3408C88.5175 67.3408 88.3297 67.2232 88.2358 66.8116C86.8275 60.4461 83.3536 55.1244 78.7687 50.3761C78.487 50.0821 78.2366 49.8321 77.7828 50.1114C77.329 50.4055 76.6092 50.2732 76.6092 51.1846C76.6718 56.3005 76.6248 61.4311 76.6561 66.5469C76.6561 67.2085 76.4684 67.3555 75.7798 67.3408C73.0414 67.2967 70.303 67.2967 67.5645 67.3408C66.8916 67.3555 66.7665 67.1497 66.7665 66.5616C66.7978 55.4184 66.8134 44.2752 66.8134 33.1173C66.8134 29.8537 66.3127 26.6784 64.654 23.7529C62.7918 20.4599 59.8187 18.5782 55.9379 17.9314C52.2293 17.314 48.6302 17.8432 45.0937 18.887C44.7964 18.9752 44.499 19.0634 44.1391 19.181C44.5147 19.328 44.8277 19.2251 45.125 19.1663C47.66 18.7105 50.2419 18.5194 52.8239 18.5635C53.2621 18.5635 53.9975 18.2842 54.1227 19.0928C54.0601 19.1663 53.9662 19.2251 53.9193 19.2986C52.464 22.3416 50.1011 24.488 46.815 25.7522C46.6898 25.7963 46.5646 25.8404 46.4551 25.8698C46.2673 25.8551 46.0639 25.958 45.8604 26.0609ZM32.1995 22.6063C36.8627 16.8876 42.9655 14.6531 50.5549 16.1232C50.461 15.6087 50.1324 15.4764 49.8507 15.3294C47.926 14.3003 45.8291 13.9181 43.6697 14.3297C38.3806 15.3441 34.7346 18.4753 31.9179 22.621C31.511 23.1061 31.1981 23.6206 30.9633 24.1939C31.0259 24.2233 31.0729 24.2527 31.1355 24.2821C31.4954 23.7235 31.8553 23.1649 32.1995 22.6063ZM30.8851 24.3998C30.8694 24.4439 30.8382 24.488 30.8382 24.5321C30.8382 24.5468 30.8694 24.5615 30.8851 24.5909C30.9164 24.5615 30.9477 24.5321 30.9633 24.488C30.9633 24.4586 30.9164 24.4292 30.8851 24.3998Z" fill="#565A04"/>
<path d="M26.0187 45.6864C24.1565 49.538 22.6386 53.4484 21.4337 57.4911C20.5418 60.5342 19.7594 63.5919 19.2117 66.7085C19.1334 67.1348 18.977 67.3259 18.4606 67.3112C15.6126 67.2818 12.7803 67.2818 9.93229 67.3112C9.33766 67.3112 9.32201 67.1201 9.4159 66.6791C11.4189 57.4617 14.2825 48.4943 18.4606 39.9237C19.2117 38.3948 20.0723 36.9101 21.0112 35.4694C21.2459 35.1166 21.512 34.9843 21.9501 34.9843C24.5634 34.999 27.161 35.0137 29.7742 34.9696C30.4471 34.9549 30.807 35.1901 31.1356 35.7046C33.342 39.1446 35.1885 42.761 36.7377 46.5097C39.4448 53.0662 41.3382 59.8433 42.6371 66.7673C42.7153 67.1936 42.6371 67.3259 42.1676 67.3259C39.2414 67.3112 36.3308 67.3112 33.4046 67.3259C33.0134 67.3259 32.8726 67.1936 32.81 66.8408C32.5753 65.4442 32.2779 64.0477 32.0432 62.6511C31.9493 62.0925 31.7615 61.8426 31.0574 61.8573C28.3189 61.9161 25.5805 61.872 22.8421 61.8867C22.2787 61.8867 22.1379 61.7985 22.2944 61.2398C22.7951 59.4904 23.2333 57.741 23.6558 55.977C23.8123 55.3448 24.0939 55.0655 24.8607 55.1096C26.3473 55.1831 27.8338 55.139 29.3204 55.1243C29.5551 55.1243 29.9464 55.2566 29.7899 54.7421C28.8979 51.6402 27.6774 48.656 26.1125 45.804C26.1282 45.7746 26.0969 45.7599 26.0187 45.6864Z" fill="#565A04"/>
<path d="M46.4708 54.7863C46.4708 50.8906 46.4552 46.9949 46.4865 43.0991C46.5021 42.3494 46.2517 42.1583 45.485 42.173C43.482 42.2171 41.479 42.1877 39.4604 42.1877C38.3181 42.1877 38.3024 42.1436 38.3024 41.0557C38.3181 39.3651 38.3181 37.6746 38.2868 35.984C38.2711 35.3077 38.4902 35.0284 39.2726 35.0284C47.3471 35.0431 55.4372 35.0431 63.5117 35.0284C64.169 35.0284 64.3724 35.2342 64.3724 35.837C64.3411 37.704 64.3411 39.5563 64.3724 41.4233C64.388 42.0407 64.1377 42.2171 63.4961 42.2024C61.4931 42.173 59.4745 42.1877 57.4715 42.1877C56.1727 42.1877 56.1727 42.1877 56.1727 43.3785C56.1727 51.067 56.1571 58.7555 56.204 66.444C56.204 67.1937 55.9536 67.326 55.2495 67.3113C52.558 67.2819 49.8821 67.2819 47.1906 67.3113C46.596 67.3113 46.4552 67.1349 46.4552 66.6057C46.4708 62.6659 46.4708 58.7261 46.4708 54.7863Z" fill="#C5DC3D"/>
<path d="M102.366 26.7666C101.583 26.8989 100.801 26.5902 100.003 26.1786C90.1133 21.1068 80.208 16.0644 70.3027 11.0074C64.8884 8.24362 59.4897 5.49457 54.0911 2.71612C53.6373 2.48091 53.3087 2.4809 52.8706 2.70142C47.0338 5.67098 41.197 8.62584 35.3602 11.5954C28.8819 14.8884 22.4035 18.1667 15.9251 21.4596C12.6234 23.1355 9.3216 24.7967 6.03548 26.4873C5.11224 26.9724 4.1577 26.6931 3.20316 26.7519C3.04668 26.7666 2.96843 26.6784 2.96843 26.5314C2.95279 26.2962 3.01538 26.1198 3.26575 26.0022C4.04816 25.62 4.81492 25.2083 5.58168 24.7967C19.5712 17.5051 33.5763 10.2135 47.5658 2.92193C49.2871 2.02518 51.0397 1.14313 52.7454 0.216982C53.2618 -0.0623329 53.653 -0.0770346 54.1694 0.202281C59.3489 2.92193 64.5441 5.61218 69.7393 8.30242C79.895 13.58 90.0663 18.8429 100.222 24.1058C101.333 24.6791 102.444 25.2818 103.571 25.8405C103.868 25.9875 104.103 26.1198 104.04 26.4873C103.962 26.9283 103.602 26.7225 103.352 26.7519C103.086 26.7813 102.804 26.7666 102.366 26.7666Z" fill="#565A04"/>
<path d="M53.5125 72.9416C71.0384 72.9416 88.5644 72.9416 106.09 72.9563C106.372 72.9563 106.826 72.7652 106.904 73.1328C107.029 73.6917 107.045 74.2946 106.873 74.8682C106.857 74.9123 106.685 74.927 106.591 74.9417C106.403 74.9564 106.231 74.9564 106.043 74.9564C71.1793 74.9564 36.3151 74.9564 1.45096 74.9564C1.13799 74.9564 0.825031 74.9417 0.512067 74.9564C0.167807 74.9711 0.0895659 74.8241 0.0582695 74.5299C-0.0825642 72.9563 -0.0982123 72.9563 1.57614 72.9563C18.883 72.9416 36.1899 72.9416 53.5125 72.9416Z" fill="#565A04"/>
<path d="M45.8605 26.061C46.0639 25.9434 46.2673 25.8552 46.5021 25.8699C46.5021 26.6343 46.3612 27.4134 46.7524 28.2514C46.7837 27.3399 46.7211 26.5314 46.862 25.7522C50.1325 24.488 52.511 22.3416 53.9663 19.2985C53.9976 19.2103 54.0915 19.1515 54.1698 19.0927C55.093 20.5187 54.9209 22.0329 54.4827 23.5324C53.9194 25.3994 52.511 26.7666 51.1653 28.1338C49.9291 29.3834 48.7398 30.6623 48.2077 32.3382C48.1451 32.5441 48.0669 32.7646 47.7226 32.9263C46.5959 30.7359 45.9544 28.4719 45.8605 26.061Z" fill="#C5DC3D"/>
<path d="M31.918 22.6208C34.7346 18.4752 38.3807 15.3587 43.6698 14.3296C45.8136 13.918 47.9105 14.3002 49.8508 15.3293C50.1325 15.4763 50.4611 15.6086 50.555 16.1231C42.95 14.653 36.8628 16.8875 32.1996 22.6061C32.1057 22.6061 32.0119 22.6061 31.918 22.6208Z" fill="#FEFEFD"/>
<path d="M46.8767 25.7522C46.7362 26.546 46.7831 27.3398 46.7674 28.2512C46.3771 27.4133 46.5176 26.6342 46.5176 25.8698C46.6269 25.8257 46.7518 25.7963 46.8767 25.7522Z" fill="#FEFEFD"/>
<path d="M31.9176 22.6208C32.0114 22.6208 32.1053 22.6208 32.1991 22.6208C31.8394 23.1797 31.4952 23.7386 31.1354 24.2828C31.0729 24.2534 31.0259 24.224 30.9634 24.1946C31.198 23.6209 31.5265 23.1062 31.9176 22.6208Z" fill="#C5DC3D"/>
<path d="M30.8848 24.3999C30.9159 24.4292 30.9625 24.4585 30.9469 24.4879C30.9469 24.5172 30.9003 24.5466 30.8692 24.5906C30.8537 24.5759 30.8226 24.5466 30.8226 24.5319C30.8537 24.4879 30.8692 24.4439 30.8848 24.3999Z" fill="#C5DC3D"/>
</svg>
