<svg width="105" height="66" viewBox="0 0 105 66" fill="none" xmlns="http://www.w3.org/2000/svg">
<path d="M35.0939 24.6058C33.6609 26.1341 32.2279 26.0012 30.9111 24.2071C30.3496 23.454 29.9042 22.5902 29.4201 21.7707C29.1683 21.3498 28.9747 20.8625 28.6842 20.486C28.3937 20.1094 28.0258 19.7994 27.6772 19.4671C30.3302 17.5179 33.506 18.1603 34.9777 20.9733C35.2294 21.4606 35.5005 22.1029 35.4231 22.6124C35.2294 23.6977 35.8491 24.0521 36.4494 24.5394C35.5005 19.7772 34.3193 15.1479 31.066 11.6705C31.1241 11.5819 31.1629 11.5154 31.221 11.4268C31.9568 12.1135 32.7314 12.7336 33.4092 13.4867C34.1063 14.2841 34.6872 15.2144 35.3843 16.189C35.791 15.3473 36.1589 14.5721 36.5656 13.7525C35.3456 12.8887 35.4231 11.5376 35.578 10.275C36.3138 4.51615 40.3998 0.352032 45.512 0.0419378C46.1898 -0.00236134 46.8869 -0.0245109 47.6034 0.0419378C46.0736 1.61456 45.88 3.74092 45.3377 5.75653C44.7181 8.10438 44.0791 10.4744 43.1883 12.6893C42.375 14.705 40.9613 16.1447 38.7925 15.9453C38.2116 15.901 37.65 15.6131 36.9916 15.3916C36.4688 16.6984 36.0234 17.9831 36.7786 19.6222C38.076 22.4573 38.6957 25.5582 38.8119 28.7699C38.8119 28.9914 38.8312 29.2129 38.87 29.4344C38.8893 29.5452 38.9668 29.6338 39.0443 29.7888C39.6058 29.1908 39.9738 28.7035 39.8188 27.6846C39.4703 25.2703 41.6197 22.2801 44.021 21.5713C45.5508 21.1283 47.0806 21.2391 48.4167 21.6156C47.4679 23.742 46.5383 25.8905 45.5508 27.9947C45.2022 28.7256 44.7181 29.4123 44.1759 29.966C42.9559 31.2064 41.5617 31.1178 40.1868 29.5895C39.7027 31.0956 39.083 32.4468 38.8506 33.8865C38.2309 37.6741 37.863 41.5281 37.224 45.3157C36.9142 47.1984 36.8561 48.8374 38.502 50.2772C35.6167 50.2772 32.9831 50.2772 30.3302 50.2772C31.1629 49.5905 32.0343 48.9703 32.7895 48.2172C34.5129 46.5339 34.8615 44.0531 35.5005 41.7717C35.6361 41.2844 35.6748 40.9079 35.8297 40.2656C36.1977 38.4936 35.9459 37.0317 34.8228 35.7913C33.293 36.921 32.499 36.7881 31.3178 35.1712C30.6788 34.3073 30.0785 33.4213 29.4588 32.5354C31.2984 31.0956 33.293 31.2285 34.4549 32.934C34.6291 33.1998 34.8809 33.5099 34.8615 33.7979C34.7647 35.0826 35.6361 35.5255 36.4881 36.4115C36.585 32.1588 37.9211 28.1497 35.0939 24.6058Z" fill="#026634"/>
<path d="M9.90051 35.282C10.7913 35.9022 11.5659 36.3895 12.3017 36.9654C15.5162 39.424 15.7099 46.9548 10.9462 48.904C9.18402 49.6128 7.26693 49.945 5.40793 50.1665C3.62639 50.3658 1.80612 50.2108 0.0245771 50.2108C0.992806 40.8637 0.973441 31.5609 0.0245771 22.1916C-0.0335166 22.2359 0.0245765 22.1695 0.0633057 22.1473C3.06482 22.0588 6.06633 21.948 8.99038 22.7897C11.1979 23.432 12.902 24.8053 13.3474 27.5075C13.8122 30.3205 12.9988 32.6462 10.9268 34.3517C10.5976 34.6618 10.2684 34.9498 9.90051 35.282ZM4.36224 42.0376C4.36224 43.5881 4.36224 45.1385 4.36224 46.689C4.36224 47.3092 4.47843 47.6857 5.13682 47.4864C5.9695 47.2206 6.84091 47.1098 7.65422 46.7776C10.0748 45.7587 11.1205 43.3444 10.4234 40.5093C9.90051 38.3386 7.92532 36.766 5.56284 36.5002C4.67207 36.4116 4.26542 36.5888 4.34288 37.7406C4.42034 39.1582 4.36224 40.5979 4.36224 42.0376ZM4.42034 34.3074C6.20188 34.1745 7.84787 33.8201 8.83546 32.026C9.70687 30.4313 9.7456 28.6815 8.89355 27.1088C7.90596 25.2483 6.20188 24.9603 4.42034 24.8274C4.42034 28.0391 4.42034 31.1179 4.42034 34.3074Z" fill="#026634"/>
<path d="M58.893 49.3915C58.1571 49.2143 57.5762 49.1035 57.034 48.9263C55.6785 48.4833 55.2524 47.0215 56.24 45.8697C57.0727 44.8951 58.1184 44.1199 59.1253 43.1896C58.8155 42.9459 58.4863 42.7023 58.1765 42.4586C56.24 40.886 55.4074 38.1616 56.0464 35.3929C56.6467 32.8014 58.738 30.5643 60.9262 30.3871C61.9526 30.3206 63.0951 30.3871 64.0246 30.8522C65.4382 31.5388 66.8324 31.4945 68.2847 31.3616C68.9819 31.2952 69.679 31.1845 70.4923 31.0737C70.3761 32.0926 70.2599 33.045 70.1244 34.1304C69.2142 34.1304 68.3622 34.1304 67.5295 34.1304C67.6651 35.4815 67.9943 36.7219 67.8781 37.9179C67.4908 41.8606 64.7217 44.1863 61.0812 43.8098C60.7907 43.7876 60.384 43.8098 60.2097 43.987C59.9193 44.3192 59.5707 44.8286 59.5901 45.2273C59.6094 45.5374 60.1517 46.0026 60.4809 46.0469C61.8557 46.2019 63.2306 46.2241 64.6055 46.2684C65.2252 46.2905 65.8448 46.2241 66.4258 46.357C68.8076 46.9107 69.8339 49.0149 69.1949 51.8722C68.7108 54.0872 67.3165 55.239 65.5544 55.9035C62.9789 56.8559 60.3647 56.8559 57.7311 56.125C57.3051 56.0142 56.8791 55.7706 56.5305 55.4826C55.6397 54.7739 55.4074 53.5999 56.027 52.6032C56.4724 51.8501 57.0921 51.2521 57.673 50.5876C58.0409 50.211 58.4088 49.8788 58.893 49.3915ZM64.7798 37.475C64.8572 37.4307 64.5087 35.0606 63.7341 34.1525C62.3205 32.5134 60.171 32.7571 59.3383 34.8834C58.68 36.5668 59.2415 39.2912 60.5196 40.4209C60.8101 40.6867 61.178 40.886 61.5265 40.9968C63.4243 41.4619 64.7798 40 64.7798 37.475ZM65.0702 52.8247C65.4963 52.5367 65.8255 51.6286 65.8448 51.0084C65.8642 50.1667 65.2832 49.613 64.5087 49.5687C63.2887 49.4801 62.0687 49.4358 60.8488 49.4358C60.1323 49.4358 59.4158 50.2775 59.2802 51.2299C59.1447 52.1602 59.4739 52.869 60.2291 53.1569C60.9262 53.4006 64.2957 53.3341 65.0702 52.8247Z" fill="#026634"/>
<path d="M82.9243 41.2623C82.963 37.0539 84.0475 33.8865 86.8553 31.7158C91.619 28.039 97.9706 31.2728 98.8033 37.7848C99.3261 41.816 98.629 45.4486 96.0341 48.3501C93.8459 50.8087 91.1349 51.3182 88.327 50.3214C85.4417 49.3026 83.8344 46.7775 83.1761 43.4551C83.0018 42.5913 82.9824 41.7053 82.9243 41.2623ZM95.5113 40.9522C95.4532 38.6265 94.8723 36.4337 93.4199 34.6839C91.7158 32.6461 89.0822 32.0038 87.3201 35.3484C86.5455 36.8324 86.3325 38.4493 86.4293 40.1327C86.5649 42.6356 87.2426 44.8948 88.8499 46.6889C90.6314 48.6602 92.7422 48.3944 94.1751 46.1352C95.124 44.6069 95.4338 42.8571 95.5113 40.9522Z" fill="#026634"/>
<path d="M29.9817 46.6663C29.5556 47.8624 29.2264 48.8148 28.8779 49.7673C28.8198 49.9445 28.6649 50.166 28.5099 50.2103C25.0243 51.2734 20.5124 50.9412 18.3048 46.0905C16.5039 42.1479 17.0461 36.1453 19.4667 32.8229C21.1708 30.4751 23.417 29.877 25.8957 30.4751C28.4906 31.1174 29.6912 33.3767 30.1947 36.1232C30.4658 37.6515 30.4077 39.2463 30.5045 40.9739C27.1932 40.9739 24.0561 40.9739 20.7835 40.9739C21.1127 43.5654 21.6742 45.8247 23.7656 47.065C25.7795 48.239 27.7741 47.5523 29.9817 46.6663ZM27.5804 38.2495C27.5804 37.6515 27.6192 37.1642 27.5804 36.6991C27.3287 34.1297 25.3341 32.4685 23.359 33.1773C21.9453 33.6646 20.6285 36.1453 20.9384 37.7401C20.9771 37.9394 21.2095 38.2052 21.345 38.2052C23.3783 38.2717 25.431 38.2495 27.5804 38.2495Z" fill="#026634"/>
<path d="M52.8512 50.2331C51.6893 50.2331 50.45 50.2331 49.1138 50.2331C49.0557 49.7458 48.9976 49.2585 48.9008 48.5718C48.4167 48.9484 48.165 49.192 47.6808 49.7015C47.1386 50.3438 45.6088 50.8976 44.3501 50.6761C42.7041 50.3881 41.2905 49.7015 40.6709 47.7744C40.0706 45.9582 40.3029 43.7653 41.6778 42.4364C43.0721 41.0852 43.4594 40.7751 45.2022 39.9334C45.7444 39.7119 47.3323 39.2689 47.797 39.1803C48.9202 38.9588 49.1138 38.1836 49.017 37.0318C48.7653 34.0195 47.0418 32.6683 44.505 33.5986C43.7305 33.8866 42.9752 34.3074 42.1038 34.7283C42.3749 33.6208 42.6267 32.624 42.8978 31.6051C42.9559 31.4058 43.0721 31.14 43.2076 31.0957C45.4733 30.1876 47.797 29.6781 50.024 31.14C52.0379 32.4468 52.3671 34.839 52.4639 37.1647C52.5801 39.8448 52.4445 42.5471 52.5026 45.2494C52.5607 46.9106 52.735 48.5497 52.8512 50.2331ZM49.017 44.895C49.017 44.1862 48.9976 43.4995 49.017 42.7908C49.0364 42.1706 48.8234 41.9491 48.2811 41.9712C47.1967 41.9934 46.0929 41.9712 45.0085 41.9712C44.8149 41.9712 44.5825 41.9934 44.4663 42.1263C43.8079 42.7908 43.8079 46.0025 44.4857 46.7113C45.7056 47.9959 47.2355 47.863 48.591 47.3979C49.5205 47.0878 48.8427 45.8031 49.017 44.9614C49.0364 44.9614 49.017 44.9393 49.017 44.895Z" fill="#026634"/>
<path d="M76.321 50.2332C74.7912 50.2332 73.3195 50.2332 71.7897 50.2332C72.6224 43.7212 72.5062 37.2757 71.751 30.6308C72.9129 30.6308 74.0554 30.6086 75.1979 30.6751C75.3722 30.6751 75.6433 31.1402 75.6626 31.406C75.7207 32.2255 75.682 33.0672 75.7788 33.9532C77.4829 31.7604 79.0127 29.2796 82.1885 30.6529C81.9755 31.9819 81.7625 33.333 81.5301 34.8613C79.7098 33.3552 77.9864 33.9089 76.3017 34.9278C76.0306 35.0828 75.7014 35.548 75.7207 35.8802C75.7594 39.8893 75.8369 43.8984 75.9337 47.9075C75.9725 48.6606 76.1661 49.3694 76.321 50.2332Z" fill="#026634"/>
<path d="M72.7967 64.0768C72.5063 63.9882 72.1383 63.9439 71.7317 63.8553C71.4799 63.811 71.1895 63.8553 70.899 63.9439C69.892 64.2318 68.7689 64.2318 67.607 63.966C67.0454 63.8331 66.329 63.5673 66.5032 62.7478C66.6194 62.2384 67.181 61.6847 67.607 61.5075C68.614 61.0645 69.4273 61.0645 70.473 60.998C70.8796 60.9759 71.6349 61.1752 71.7704 60.5772C71.906 59.9792 71.4606 59.8241 71.1701 59.802C69.7952 59.6248 69.2724 59.8241 67.9556 60.2449C67.4134 60.4221 67.2585 60.4886 66.8324 60.6879C66.7162 60.5107 66.5226 60.2007 66.4258 60.0456C66.7163 59.8906 66.9874 59.7134 67.2778 59.5583C68.8464 58.761 70.473 58.6281 72.0609 59.3147C72.6612 59.5805 72.6805 60.3114 72.7386 60.7987C72.8742 61.7954 72.7967 62.8143 72.7967 64.0768ZM71.693 61.9947C71.693 61.8397 71.4799 61.6847 71.3638 61.6847C70.2019 61.5739 69.5822 61.7733 68.6914 61.9947C68.3622 62.0833 67.7813 62.3491 67.8007 62.77C67.82 63.1908 68.401 63.4344 68.6914 63.4344C69.4079 63.4344 70.1631 63.3459 70.8409 63.0801C71.1895 62.925 71.7317 62.5263 71.693 61.9947Z" fill="#026634"/>
<path d="M8.15779 60.0676C8.58381 59.7797 8.9711 59.2703 9.41649 59.226C10.6171 59.0931 11.8371 59.0709 13.057 59.1374C13.8703 59.1817 14.277 59.7797 14.2576 60.7764C14.2383 61.8174 14.3351 62.8806 14.3932 64.121C14.0059 63.9881 13.5992 63.8109 13.2119 63.7223C12.9602 63.678 12.6891 63.7666 12.418 63.7666C11.2755 63.833 10.133 64.0102 9.00983 63.8995C8.62254 63.8552 7.92542 63.3015 7.92542 62.7034C7.92542 62.1497 8.56444 61.7067 8.9711 61.5738C10.0942 61.2637 11.2368 61.2194 12.3793 61.0201C12.5923 60.9758 13.1732 61.0422 13.1538 60.5328C13.1538 60.0898 12.5729 59.8461 12.2243 59.7576C11.2561 59.5139 10.2879 59.381 9.43585 60.3113C9.20347 60.5549 8.68063 60.422 8.27397 60.4663C8.21588 60.3556 8.17715 60.2005 8.15779 60.0676ZM13.1538 61.8396C13.1345 61.7067 12.9989 61.6624 12.9215 61.5738C11.9339 61.7067 10.9657 61.7953 9.99742 62.0168C9.72632 62.0832 9.2422 62.3712 9.26157 62.7477C9.26157 63.1021 9.72632 63.3679 9.95869 63.3679C10.772 63.3457 11.6047 63.3015 12.3793 63.0357C12.7085 62.9249 13.2119 62.349 13.1538 61.8396Z" fill="#026634"/>
<path d="M6.74378 61.7284H1.39914C1.34105 61.8392 1.28296 61.9499 1.30232 62.0828C1.37978 62.703 1.98008 63.0352 2.4642 63.2567C3.50989 63.4782 4.0521 63.5225 5.27207 62.7916C5.75619 62.4593 5.56254 62.6365 5.87238 62.26C6.06602 62.4372 6.60823 62.6808 6.66633 62.8359C6.25967 63.146 5.9111 63.5668 5.46572 63.744C4.12956 64.3421 2.7353 64.3864 1.39914 63.8105C0.605194 63.4561 0.0629856 62.7473 0.0242563 61.662C-0.014473 60.5545 0.469643 59.8236 1.28296 59.4027C2.63848 58.6939 4.01337 58.7382 5.40763 59.3363C6.27903 59.735 6.74378 60.4437 6.74378 61.7284ZM5.42699 61.0196C5.11715 59.6907 4.20702 59.5799 3.37434 59.6021C2.56102 59.6021 1.70898 59.7792 1.39914 61.0196C2.77403 61.0196 4.0521 61.0196 5.42699 61.0196Z" fill="#026634"/>
<path d="M97.2929 27.9943C97.2929 25.4914 98.9776 23.6309 101.185 23.653C103.296 23.6752 105 25.6243 105 28.0165C105 30.4086 103.199 32.4685 101.108 32.4464C98.9389 32.4242 97.2735 30.4751 97.2929 27.9943ZM104.284 28.0386C104.284 26.023 102.87 24.3618 101.127 24.3618C99.4617 24.3618 97.9126 26.1338 97.9126 28.0386C97.9126 29.9656 99.423 31.6933 101.127 31.6933C102.87 31.6933 104.284 30.0542 104.284 28.0386Z" fill="#026634"/>
<path d="M84.8608 58.8711C85.7323 58.8711 86.5456 59.159 87.2427 59.5799C88.6951 60.4437 88.7144 62.6143 87.2814 63.4781C85.6548 64.4527 83.9313 64.4748 82.3047 63.4117C81.0847 62.5921 81.0847 60.2886 82.3628 59.5356C83.118 59.0926 83.9507 58.8711 84.8608 58.8711ZM84.9383 63.5224C86.1776 63.5003 87.0684 62.6143 87.0297 61.4625C86.991 60.3329 86.0615 59.5577 84.8027 59.5799C83.5053 59.602 82.6533 60.3994 82.692 61.5511C82.7114 62.7915 83.5828 63.5446 84.9383 63.5224Z" fill="#026634"/>
<path d="M21.3644 60.4656C20.9384 60.3106 20.5317 60.067 20.0864 60.0005C19.2537 59.8676 18.421 59.7347 17.569 59.8233C17.2979 59.8898 17.1623 60.222 17.2011 60.3106C17.2785 60.5099 17.5496 60.7093 17.7239 60.7536C18.634 60.9972 19.5635 61.1523 20.4736 61.3737C21.0739 61.5066 21.7711 61.6617 21.8098 62.5476C21.8291 63.4557 21.132 63.7658 20.5124 63.9209C19.4861 64.1867 18.6728 64.2088 17.4141 63.8987C16.8719 63.7658 16.2522 63.3007 15.7294 62.9463C15.8068 62.7691 15.8649 62.5919 15.9424 62.4369C16.3684 62.6141 16.7944 62.8134 17.2011 62.9685C18.421 63.4115 20.8997 64.0316 20.6867 62.5033C20.6286 62.1047 19.7184 62.0382 19.2537 61.9939C18.3629 61.8832 17.4722 61.6395 16.6201 61.3294C15.8456 61.0415 15.7487 60.1777 16.3297 59.624C17.3173 58.6937 20.3962 59.2917 21.0739 59.6018C21.2482 59.6683 21.5 59.8012 21.5581 59.9119C21.5193 60.0005 21.4031 60.3549 21.3644 60.4656Z" fill="#026634"/>
<path d="M26.0506 62.9465C26.6509 61.839 27.2125 60.8866 27.6772 59.8898C28.0258 59.1589 28.4712 58.8931 29.2845 59.2475C28.142 61.2853 27.0382 63.3009 25.8569 65.2721C25.3147 66.1803 23.5526 65.9809 23.5526 65.9809C23.5526 65.9809 23.3008 65.6708 23.0878 65.3608C23.4945 65.3386 23.7462 65.3165 23.9979 65.2943C25.1985 65.1393 25.5665 64.3197 24.9274 63.168C24.211 61.8611 23.4945 60.5765 22.7586 59.2254C23.6106 58.9153 24.1141 59.1146 24.4821 59.9784C24.9081 60.9752 25.4697 61.8611 26.0506 62.9465Z" fill="#026634"/>
<path d="M41.5229 59.159C41.949 59.159 42.2588 59.159 42.7042 59.159C42.7042 59.8457 42.7042 60.488 42.7042 61.1525C42.7042 63.0353 42.9753 63.4118 44.3308 63.4118C45.8606 63.4118 46.2672 62.9245 46.2479 61.0418C46.2479 60.4659 46.2479 59.8678 46.2479 59.1812C46.6739 59.159 47.0418 59.1369 47.4485 59.1147C47.4485 60.776 47.4485 62.3486 47.4485 64.1206C46.9644 63.9434 46.5577 63.8105 46.0349 63.6333C45.1247 64.2092 43.9822 64.3421 42.7816 63.9656C42.0264 63.7219 41.523 63.2568 41.5423 62.2822C41.523 61.2633 41.5229 60.2444 41.5229 59.159Z" fill="#026634"/>
<path d="M94.5239 64.0322C94.5239 63.0133 94.5239 62.1716 94.5239 61.3299C94.5239 60.1117 94.0979 59.6466 92.9941 59.6244C91.8322 59.5801 91.0964 60.156 91.0189 61.1971C90.9608 62.1052 90.9995 63.0133 90.9995 63.9879C90.5154 63.9879 90.1862 63.9879 89.7795 63.9879C89.7795 62.3931 89.7795 60.8205 89.7795 59.2922C89.857 59.2257 89.9345 59.1593 89.9732 59.1814C91.1738 59.713 92.297 58.8935 93.4782 58.9599C95.2404 59.0707 95.6858 59.558 95.6858 61.5293C95.6858 62.3045 95.6858 63.1462 95.6858 64.0544C95.3372 64.0544 95.008 64.0322 94.5239 64.0322Z" fill="#026634"/>
<path d="M40.1094 60.6207C39.6833 60.4213 39.2573 60.1555 38.8119 59.9783C37.9018 59.6018 36.5463 59.3803 35.8298 60.1334C35.0165 60.9972 35.2101 62.5477 36.1784 63.1235C37.2047 63.7216 38.7345 62.9685 39.2186 62.6141C39.7608 62.2376 39.7414 62.2819 40.09 61.9718C40.1675 62.1268 40.3998 62.4591 40.4773 62.6141C40.0513 63.0128 39.451 63.5444 39.1218 63.7437C37.9212 64.2753 36.798 64.3639 35.578 63.8323C34.726 63.4558 34.087 62.5698 34.087 61.5066C34.087 60.4656 34.6485 59.5796 35.365 59.2252C36.9142 58.45 37.9793 58.6715 39.2573 59.2474C39.6446 59.4246 39.9738 59.6904 40.3417 59.9783C40.2643 60.1555 40.1868 60.4435 40.1094 60.6207Z" fill="#026634"/>
<path d="M65.593 59.226C64.7604 60.7322 63.9858 62.1497 63.2112 63.523C62.8239 64.2096 61.9138 64.2761 61.5265 63.6116C60.7132 62.2162 59.9386 60.7765 59.106 59.2703C59.8224 58.9824 60.3066 59.0045 60.6745 59.8019C61.1586 60.8429 61.7202 61.8175 62.3398 62.9693C62.9014 61.9282 63.4436 60.9537 63.9471 59.9791C64.4505 59.0267 64.4312 59.0267 65.593 59.226Z" fill="#026634"/>
<path d="M55.4073 63.4787C54.7489 64.409 53.9743 64.1875 53.374 63.8331C53.0448 63.6338 52.8705 63.2351 52.8124 62.637C52.7737 62.2826 52.8124 61.6181 52.8124 61.2416C52.7931 60.8207 52.8124 59.7797 52.8124 59.7797C52.8124 59.7797 52.3477 59.7797 52.0378 59.7797V58.9823C52.0378 58.9823 52.5801 58.9823 52.9286 58.938C52.948 58.185 52.948 57.7863 52.9286 57.3433H54.0131C54.0131 57.3433 54.013 58.4064 54.0518 58.938C54.4391 58.9823 54.6908 58.8937 55.0781 58.938C55.0781 58.938 55.0781 59.6468 55.0975 59.7354C54.7102 59.8019 54.0711 59.824 54.0711 59.824C54.0711 59.824 54.0324 61.7289 54.0905 62.7035C54.1099 62.925 54.4197 63.1908 54.6327 63.3237C54.8651 63.4566 55.1556 63.4344 55.4073 63.4787Z" fill="#026634"/>
<path d="M75.0043 58.9595C75.043 58.6051 74.9849 58.1178 75.0236 57.7191C75.3915 57.6748 75.6626 57.697 76.1274 57.6748C76.1661 58.2507 76.108 58.4279 76.1468 58.9816C76.5728 59.0259 76.9213 58.9595 77.3473 58.9816C77.3667 59.0702 77.328 59.6683 77.3473 59.7569C76.9407 59.8233 76.6309 59.779 76.1661 59.8455C76.1661 60.7093 76.1661 61.5732 76.1661 62.4592C76.1661 63.1458 76.534 63.3009 77.0569 63.3452C77.2311 63.3673 77.541 63.4781 77.541 63.6774C77.541 63.8989 77.2311 64.0096 77.0569 64.0539C75.7401 64.3862 75.0624 63.7439 75.043 62.2155C75.043 61.4403 75.043 60.665 75.043 59.8455C74.7332 59.8012 73.9005 59.8233 73.9005 59.8233C73.9005 59.8233 73.9973 59.0259 73.9005 58.9816C74.5589 58.9816 74.6944 59.0259 75.0043 58.9595Z" fill="#026634"/>
<path d="M49.5205 57.188C49.8884 57.188 50.1788 57.188 50.5467 57.188C50.5467 59.4472 50.5467 61.7286 50.5467 64.0321C50.2175 64.0542 49.9077 64.0099 49.5205 64.0321C49.5205 61.7286 49.5205 59.4915 49.5205 57.188Z" fill="#026634"/>
<path d="M78.7804 59.248C79.3806 59.248 79.9615 59.248 79.9615 59.248C79.9615 59.1816 79.9615 59.691 79.9615 60.2669C79.9615 61.1086 79.9615 61.9281 79.9809 62.8141C79.9615 63.3678 79.9615 63.9437 79.9615 63.9437C79.9615 63.9437 79.3806 63.9659 78.7804 63.9216C78.7804 62.3711 78.7804 60.7985 78.7804 59.248Z" fill="#026634"/>
<path d="M56.5692 59.1812C57.0339 59.1812 57.3437 59.1812 57.7116 59.1812C57.7309 59.602 57.7503 59.9564 57.7503 60.3108C57.7503 61.5068 57.7503 62.7029 57.7503 63.9654C57.3437 63.9654 57.0339 63.9654 56.5692 63.9654C56.5692 63.1459 56.5692 62.3485 56.5692 61.5733C56.5692 60.798 56.5692 60.045 56.5692 59.1812Z" fill="#026634"/>
<path d="M79.0708 57.0547C79.4387 56.9661 79.9421 57.2762 79.9421 57.697C79.9421 57.9849 79.4967 58.1399 79.3031 58.0956C79.0708 58.0735 78.6835 57.8963 78.6254 57.5863C78.6061 57.3869 78.8965 57.099 79.0708 57.0547Z" fill="#026634"/>
<path d="M5.42727 61.0201C4.07177 61.0201 2.77435 61.0201 1.39948 61.0201C1.70931 59.7797 2.56134 59.6025 3.37465 59.6025C4.20732 59.6025 5.11744 59.6911 5.42727 61.0201Z" fill="white"/>
<path d="M103.155 30.3932C101.78 30.2381 101.838 27.7573 100.173 28.4661C100.115 29.0199 100.037 29.6622 99.9794 30.3046C99.9019 30.3046 99.8245 30.2824 99.7277 30.2824C99.7277 28.8205 99.7277 27.3586 99.7277 25.7417C100.309 25.7417 100.909 25.6088 101.432 25.786C101.916 25.941 102.555 26.3176 102.69 26.7827C102.826 27.1814 102.013 28.3111 101.916 28.2668C102.303 28.9091 102.671 29.5736 103.155 30.3932ZM102.168 27.0264C102.245 26.1847 101.529 26.229 100.986 26.1847C100.463 26.1625 100.057 26.1847 100.076 27.0264C100.115 27.8016 102.129 27.4029 102.168 27.0264Z" fill="#026634"/>
</svg>
