<svg width="129" height="178" viewBox="0 0 129 178" fill="none" xmlns="http://www.w3.org/2000/svg">
<path d="M65.0006 177.46C64.6925 177.46 64.3845 177.46 64.0764 177.46C63.9994 177.46 63.9994 177.38 63.9224 177.38C62.3051 177.139 60.9958 176.337 59.7636 175.214C59.3015 174.813 58.8394 174.412 58.3773 174.171C56.4519 173.289 54.4495 172.406 52.5242 171.604C44.6687 168.396 36.8131 165.027 29.2657 161.096C23.5666 158.128 18.0215 154.919 12.9385 150.909C9.62687 148.261 6.54627 145.374 4.23582 141.764C2.61851 139.357 1.46328 136.71 1.30925 133.823C1.00119 129.411 0.847165 124.919 0.693135 120.426C0.539106 115.212 0.385075 109.918 0.385075 104.704C0.30806 90.3454 0.15403 75.9868 0.15403 61.6281C5.81145e-07 47.0288 0 32.3492 0 17.7499C0 15.6643 0 13.5787 0.770149 11.5733C2.54149 7.16141 5.54507 4.11319 10.089 2.74952C13.9397 1.54628 17.8675 1.22542 21.7952 1.22542C26.7242 1.22542 31.5761 1.38585 36.5051 1.46607C36.8901 1.46607 37.3522 1.54628 37.7373 1.54628C37.8143 1.86715 38.5 -0.928775 38.5 1C38.654 1.4813 38.2764 1.62655 38.5845 1.22547C38.8155 0.984823 39.2006 2.02758 39.4316 1.78693C39.5087 1.6265 39.7397 1.54628 39.8937 1.54628C43.3594 1.70671 46.8251 1.94736 50.2907 2.02758C55.8358 2.18801 61.3809 2.26823 66.926 2.18801C73.3952 2.10779 79.8645 1.94736 86.3337 1.78693C86.8728 1.78693 87.1039 1.94736 87.2579 2.42866C87.797 3.71212 87.3839 0.824339 88 2.02758C88.077 2.26823 88.269 2.02758 88.5 2.18801C88.8851 -0.539334 88.9522 2.42866 88.9522 2.18801C89.0293 1.54628 90.4925 3.07039 90.4155 2.42866C90.3385 1.70672 89.6454 2.50887 89.4913 1.70671C89.8764 1.70671 90.1075 1.70671 90.4155 1.70671C95.4985 1.6265 100.659 1.6265 105.741 2.02758C107.898 2.18801 110.054 2.42866 112.134 2.99017C115.214 3.71211 118.141 5.156 120.913 6.76032C124.148 8.60529 126.15 11.3326 127.152 15.0226C127.845 17.5895 128.076 20.1564 128.153 22.7233C128.23 34.8359 128.307 46.9486 128.384 58.981C128.461 68.6871 128.538 78.313 128.615 88.0192C128.692 101.897 128.769 115.774 128.923 129.732C128.923 130.534 129 131.336 129 132.138C129 133.421 129 134.785 129 136.069C128.923 136.309 128.923 136.55 128.846 136.791C128.384 138.796 127.229 140.4 125.919 141.924C123.147 145.053 119.912 147.459 116.447 149.705C109.9 154.037 103.046 157.647 96.0376 161.096C89.3373 164.385 82.483 167.593 75.7827 170.963C73.0101 172.326 70.1606 173.529 68.0812 176.016C67.311 176.899 66.1558 177.219 65.0006 177.46ZM88.1821 57.5371C88.1821 60.1842 88.1821 62.7511 88.1821 65.3982C88.1821 70.4519 88.1821 75.5857 88.2591 80.6393C88.3361 84.0084 88.3361 87.3774 88.5672 90.7465C88.7212 93.3134 89.6454 95.6397 91.1087 97.7253C92.649 99.8912 94.7284 101.094 97.5009 101.014C99.7343 100.934 102.045 101.014 104.278 101.014C105.433 101.014 106.589 100.774 107.744 100.372C110.901 99.2494 113.52 97.244 115.599 94.5969C118.064 91.6289 119.604 88.2598 119.604 84.249C119.604 64.9972 119.604 45.6651 119.604 26.4133C119.604 25.0496 119.373 23.7661 118.988 22.4827C117.448 17.9104 113.058 14.4611 108.36 14.3809C106.743 14.3006 105.048 14.3808 103.431 14.4611C100.967 14.5413 98.5791 14.9424 96.2687 15.7445C91.4167 17.4291 88.6442 21.119 88.4901 26.4133C88.4131 28.178 88.3361 29.9428 88.3361 31.7075C88.1821 40.4511 88.1821 48.954 88.1821 57.5371ZM55.6818 91.8695C55.6818 91.5487 55.6818 91.3883 55.6818 91.1476C55.6818 66.7619 55.6818 42.4565 55.6818 18.0708C55.6818 17.7499 55.6818 17.3488 55.6818 17.028C55.6048 15.183 54.6806 14.3006 52.9092 14.3006C52.2931 14.3006 51.677 14.3809 51.0609 14.3809C49.9057 14.4611 49.4436 14.7819 49.2125 15.9852C49.0585 17.1884 48.9045 18.4719 48.9045 19.6751C48.9045 44.3014 48.9045 68.9278 48.9045 93.6343C48.9045 94.5167 48.9815 95.3188 49.0585 96.2012C49.2895 98.0462 50.2137 99.2494 51.677 99.4901C53.5254 99.7307 55.4507 99.7307 57.0681 98.5275C60.2257 96.2012 63.4603 93.9552 66.6179 91.7091C68.4663 90.4257 70.3916 89.1422 72.24 87.939C72.6251 87.6983 73.0872 87.6181 73.4722 87.4577C73.7803 87.3774 74.0113 87.4577 74.0113 87.8587C74.0884 88.5005 74.1654 89.2224 74.1654 89.8641C74.1654 91.4685 74.0113 93.0728 74.0113 94.6771C74.0113 95.8803 74.3194 97.0836 74.8585 98.1264C75.3206 99.089 76.0137 99.8109 77.169 99.6505C77.323 99.6505 77.554 99.6505 77.7081 99.6505C79.4794 99.5703 80.4036 98.6077 80.4036 96.7627C80.4036 70.6123 80.4036 44.5421 80.4036 18.3917C80.4036 17.8301 80.2495 17.3488 79.8645 16.9478C78.8633 15.905 77.631 15.183 76.2448 14.7017C74.9355 14.3006 74.1654 14.7819 73.9343 16.1456C73.7033 17.3488 73.6263 18.6323 73.6263 19.9158C73.6263 39.2478 73.6263 58.6601 73.6263 77.9922C73.6263 78.4735 73.4722 78.8746 73.0872 79.1954C72.317 79.8372 71.5469 80.4789 70.6997 81.0404C67.157 83.4469 63.6143 85.7731 60.1487 88.1796C58.6084 89.1422 56.991 90.2652 55.6818 91.8695ZM10.166 58.259C10.089 58.259 10.089 58.259 10.0119 58.259C9.93493 67.3234 9.85791 76.3878 9.85791 85.4523C9.85791 88.9818 9.85791 92.4311 9.85791 95.9606C9.85791 98.367 10.9361 99.7307 13.1696 100.132C13.8627 100.292 14.5558 100.292 15.249 100.292C22.5654 100.292 29.8048 100.292 37.1212 100.292C38.4304 100.292 39.2776 99.8109 39.7397 98.6077C40.2018 97.4847 40.5869 96.2814 40.8179 95.0782C41.434 91.8695 41.434 88.5807 41.357 85.372C41.357 84.4897 41.126 83.5271 40.8179 82.6447C40.2788 80.9602 39.1236 80.0778 37.4293 79.9976C36.7361 79.9174 36.12 79.9174 35.4269 79.9174C30.6519 79.9174 25.877 79.9174 21.1791 79.9174C19.0997 79.9174 18.0215 78.9548 17.6364 76.8691C17.4824 75.9066 17.4054 75.0242 17.4054 74.0616C17.4054 69.7299 17.4054 65.3983 17.4054 61.0666C17.4054 49.2748 17.4054 37.5633 17.4054 25.7715C17.4054 24.8089 17.4054 23.8463 17.5594 22.8837C17.6364 21.9212 18.0215 21.6003 18.9457 21.5201C21.5642 21.3596 24.1827 21.1992 26.8012 21.119C30.729 20.9586 34.6567 20.7981 38.5845 20.6377C38.9696 20.6377 39.2776 20.5575 39.6627 20.4773C40.2788 20.3168 40.8179 19.9158 40.8949 19.274C40.9719 18.4719 41.126 17.5895 41.049 16.7873C40.9719 15.6643 40.3558 14.8621 39.2776 14.5413C38.4304 14.3006 37.5063 14.1402 36.6591 14.1402C33.6555 14.1402 30.5749 14.2204 27.5713 14.3809C22.8734 14.5413 18.1755 14.7819 13.5546 14.8621C12.0913 14.8621 11.1672 15.2632 10.7051 17.1082C10.397 18.3114 10.243 19.5147 10.166 20.7179C10.089 22.7233 10.243 24.6485 10.243 26.6539C10.166 37.1622 10.166 47.6705 10.166 58.259ZM63.9994 163.823C64.5385 163.342 65.0776 162.861 65.6167 162.46C66.6949 161.818 67.8501 161.096 69.0824 160.615C73.3952 158.77 77.7081 156.925 82.0209 155.08C84.8704 153.877 87.72 152.513 90.3385 150.828C91.7248 149.946 93.034 148.903 93.9582 147.459C94.4203 146.737 94.6513 145.935 94.4973 145.053C94.4203 144.732 94.3433 144.571 93.9582 144.652C92.1869 144.973 90.4155 145.213 88.5672 145.454C85.2555 145.855 81.9439 146.336 78.6322 146.657C75.0896 146.978 71.5469 147.219 68.0042 147.379C62.7672 147.539 57.5301 147.379 52.2931 146.898C49.1355 146.577 45.9779 146.256 42.8203 145.855C39.9707 145.534 37.1212 145.053 34.2716 144.652C33.8096 144.571 33.6555 144.732 33.6555 145.133C33.5015 146.336 34.0406 147.299 34.7337 148.181C35.6579 149.384 36.8901 150.187 38.1224 150.989C41.357 153.074 44.7457 154.518 48.2884 156.042C52.1391 157.647 55.9898 159.251 59.8406 160.936C61.3039 161.738 62.8442 162.54 63.9994 163.823ZM54.9887 121.79C54.9887 119.143 54.9887 116.496 54.9887 113.849C54.9887 113.047 54.9116 112.164 54.7576 111.362C54.6036 110.399 54.2185 110.159 53.2173 110.319C52.6012 110.399 52.3701 110.881 52.2931 111.442C52.1391 112.325 52.0621 113.207 52.0621 114.009C52.0621 119.223 52.0621 124.437 52.0621 129.651C52.0621 130.293 51.9851 130.855 51.831 131.496C51.677 132.138 51.2919 132.619 50.5988 132.699C50.1367 132.78 49.5976 132.78 49.1355 132.78C48.4424 132.78 47.9803 132.379 47.8263 131.657C47.7493 131.336 47.6722 131.095 47.6722 130.774C47.5182 124.758 47.3642 118.822 47.2102 112.806C47.2102 112.485 47.2101 112.164 47.1331 111.843C46.9791 110.319 46.7481 110.079 45.2848 110.239C44.5916 110.319 44.3606 110.48 44.2066 111.121C44.0525 111.924 43.9755 112.726 43.8985 113.528C43.7445 119.624 43.9755 125.721 44.2836 131.817C44.3606 133.903 45.5928 135.347 47.4412 135.587C48.2884 135.667 49.1355 135.748 49.9827 135.748C52.0621 135.828 54.1415 135.988 56.2209 135.988C57.6842 135.988 59.2245 135.828 60.6878 135.748C61.6119 135.748 61.6119 135.748 61.766 136.71C61.843 137.352 61.997 138.074 62.2281 138.716C62.4591 139.357 62.9212 139.518 63.5373 139.197C63.9994 138.956 64.3075 138.475 64.3845 137.994C64.4615 136.951 64.5385 135.908 64.6155 134.865C64.6155 134.304 64.4615 133.823 63.9224 133.582C63.0752 133.101 62.5361 132.298 62.3821 131.336C62.2281 130.453 62.151 129.571 62.151 128.769C62.2281 123.876 62.3821 118.983 62.5361 114.089C62.5361 113.127 62.5361 112.164 62.3821 111.121C62.3051 110.399 61.997 110.239 61.2269 110.159C60.6107 110.079 60.3027 110.319 60.0716 110.961C59.9176 111.522 59.7636 112.164 59.7636 112.726C59.6866 114.49 59.6866 116.255 59.6866 118.02C59.6096 122.111 59.4555 126.282 59.3015 130.373C59.3015 130.694 59.2245 131.015 59.2245 131.336C59.1475 131.897 58.9164 132.298 58.3773 132.459C56.4519 133.181 54.8346 132.058 54.8346 129.972C54.9887 127.325 54.9887 124.598 54.9887 121.79ZM85.5636 124.999C85.4866 127.806 85.4095 130.694 85.4095 133.502C85.4095 133.983 85.4095 134.544 85.4866 135.026C85.5636 135.748 85.9486 136.069 86.5648 136.149C87.3349 136.229 87.643 135.988 87.874 135.266C88.0281 134.705 88.1821 134.063 88.1821 133.421C88.2591 131.416 88.1821 129.411 88.2591 127.325C88.3361 123.475 88.4902 119.624 88.6442 115.774C88.6442 115.373 88.7212 114.972 88.7982 114.651C88.8752 114.17 89.1833 113.849 89.6454 113.688C91.6478 113.047 93.034 114.089 93.111 116.255C93.111 116.416 93.111 116.576 93.111 116.656C93.111 122.271 93.111 127.887 93.1881 133.502C93.1881 134.063 93.2651 134.625 93.4191 135.186C93.4961 135.427 93.6501 135.748 93.8812 135.828C94.6513 136.229 95.4985 135.828 95.6525 135.026C95.8066 134.143 95.9606 133.261 95.9606 132.298C95.9606 127.165 95.9606 122.111 95.9606 116.977C95.9606 116.496 95.9606 116.015 96.0376 115.533C96.1146 114.089 96.7307 113.528 97.963 113.448C99.8113 113.287 100.35 113.769 100.427 115.774C100.504 119.785 100.659 123.715 100.736 127.726C100.813 129.892 100.813 132.058 100.89 134.224C100.967 135.748 101.275 135.988 102.661 135.988C102.738 135.988 102.815 135.988 102.892 135.988C103.277 135.988 103.585 135.748 103.739 135.427C103.816 135.106 103.97 134.865 103.97 134.544C104.047 132.94 104.201 131.336 104.124 129.651C104.047 124.678 103.816 119.705 103.739 114.731C103.739 114.49 103.662 114.17 103.662 113.929C103.431 112.084 102.276 110.881 100.504 110.64C98.9642 110.48 97.5009 110.319 95.9606 110.319C93.7272 110.239 91.5707 110.159 89.3373 110.239C87.566 110.319 86.6418 111.121 86.1797 112.806C86.0257 113.367 85.9487 113.849 85.9487 114.41C85.7946 118.02 85.7176 121.469 85.5636 124.999ZM79.2484 134.143C79.4794 134.946 79.6334 135.748 79.8645 136.55C80.1725 137.432 80.4806 137.593 81.3278 137.512C81.7899 137.432 82.0209 137.111 82.1749 136.309C82.1749 136.069 82.1749 135.828 82.1749 135.507C82.0979 132.459 82.0979 129.491 82.0209 126.443C81.9439 122.191 81.8669 117.94 81.7898 113.688C81.7898 112.565 81.5588 111.522 80.8657 110.72C80.3266 110.079 79.7104 110.159 79.4024 110.881C79.2484 111.362 79.0943 111.843 79.0173 112.325C79.0173 114.25 79.0173 116.175 79.0173 118.02C79.0943 121.469 79.2484 124.919 79.3254 128.368C79.3254 129.812 78.7092 131.015 77.554 131.817C76.7069 132.379 75.8597 132.86 75.0125 133.421C74.0113 133.983 73.4722 133.742 73.3952 132.539C73.3952 132.459 73.3952 132.379 73.3952 132.298C73.3182 130.453 73.2412 128.608 73.2412 126.764C73.1642 123.154 73.0872 119.464 72.9331 115.854C72.8561 114.571 72.7021 113.207 72.5481 111.924C72.471 111.442 72.24 110.961 71.8549 110.64C71.3158 109.998 70.5457 110.239 70.3916 111.041C70.3146 111.442 70.2376 111.843 70.2376 112.244C70.1606 114.49 70.0836 116.817 70.0836 119.063C70.1606 121.549 70.3146 124.036 70.3916 126.523C70.4686 128.368 70.3916 130.293 70.3916 132.138C70.3916 133.261 70.5457 134.384 70.6997 135.427C70.9307 136.71 71.7779 137.272 73.0101 136.951C74.1654 136.63 75.2436 136.229 76.3218 135.748C77.323 135.266 78.2472 134.625 79.2484 134.143ZM38.2764 122.913C38.3534 122.913 38.3534 122.913 38.4304 122.913C38.4304 121.309 38.4304 119.705 38.4304 118.02C38.3534 116.416 38.1224 114.811 37.4293 113.287C36.7361 111.763 35.5809 110.64 33.8866 110.48C31.6531 110.239 29.4197 110.239 27.1863 110.64C25.723 110.881 25.1069 111.603 25.4919 113.608C25.646 114.571 26.4161 114.972 27.2633 114.731C27.4173 114.651 27.6484 114.41 27.6484 114.25C27.6484 113.448 27.8024 113.207 28.5725 113.207C29.8048 113.207 31.037 113.207 32.1922 113.367C33.9636 113.608 34.8878 114.651 35.1188 116.416C35.1958 117.458 35.1958 118.501 35.1958 119.544C35.1958 120.587 35.0418 121.63 35.0418 122.673C35.0418 123.234 34.8107 123.635 34.2716 123.715C33.5785 123.876 32.8854 123.876 32.1922 123.956C30.96 124.036 29.6507 124.036 28.4185 124.277C27.0322 124.517 26.1081 125.48 25.877 126.924C25.8 127.646 25.723 128.448 25.8 129.17C25.877 130.935 26.2621 132.619 27.2633 134.063C28.1104 135.266 29.1887 135.748 30.6519 135.667C32.0382 135.587 33.5015 135.427 34.8878 135.347C35.1188 135.347 35.4269 135.427 35.6579 135.587C36.8131 136.149 37.9684 136.229 39.1236 135.667C39.8167 135.347 40.1248 134.304 39.6627 133.823C38.8925 133.02 38.7385 132.058 38.6615 131.095C38.5845 128.368 38.4304 125.641 38.2764 122.913ZM120.066 124.598C119.989 121.389 119.912 118.18 119.912 114.972C119.912 113.528 119.296 112.405 118.064 111.763C115.753 110.399 113.212 110.079 110.67 110.72C108.591 111.282 107.898 113.207 108.822 115.052C109.207 115.774 109.823 115.934 110.439 115.453C110.824 115.212 110.901 114.811 110.824 114.33C110.747 113.127 111.133 112.646 112.211 112.405C113.443 112.164 114.675 112.244 115.83 112.806C116.755 113.207 117.217 113.929 117.217 114.972C117.217 116.977 117.217 118.983 117.217 120.988C117.217 122.111 116.601 122.833 115.522 122.993C114.906 123.074 114.213 123.234 113.597 123.154C111.98 123.074 110.824 123.876 109.977 125.239C108.822 127.084 108.514 129.17 108.745 131.336C108.822 132.379 108.976 133.341 109.746 134.063C110.901 135.186 112.365 135.748 113.982 135.507C114.752 135.427 115.599 135.266 116.37 135.186C116.832 135.106 117.294 135.106 117.602 135.667C118.064 136.55 119.065 136.63 119.604 135.748C119.835 135.347 120.066 134.705 119.989 134.224C120.297 131.095 120.143 127.806 120.066 124.598ZM20.2549 119.143C20.871 118.902 21.1021 118.662 21.1791 117.86C21.2561 116.977 21.2561 116.015 21.2561 115.132C21.2561 114.25 20.9481 113.528 20.3319 112.886C19.5618 112.084 18.6376 111.603 17.5594 111.362C15.0949 110.72 12.6304 110.801 10.166 110.961C8.85671 111.041 7.77851 111.683 7.2394 113.127C6.77731 114.41 7.08538 115.533 7.93254 116.576C8.47164 117.138 8.93373 117.218 9.47284 116.817C10.0119 116.496 10.089 116.015 9.78089 115.293C9.54985 114.811 9.70388 114.49 10.089 114.17C10.397 114.009 10.7051 113.769 11.0131 113.769C12.6304 113.769 14.3248 113.688 15.9421 113.769C16.9433 113.849 17.8675 114.41 18.1755 115.533C18.3295 116.015 18.2525 116.496 18.3296 116.977C18.4066 117.458 18.0985 117.699 17.6364 117.699C17.0973 117.699 16.4812 117.699 15.9421 117.779C15.1719 117.86 14.7869 118.18 14.7098 118.742C14.5558 119.544 14.7099 120.266 15.403 120.587C15.7881 120.828 16.2501 121.068 16.7122 121.068C17.4824 121.068 17.7904 121.469 17.9445 122.111C18.0215 122.352 18.0985 122.673 18.1755 122.913C18.4066 125.079 18.5606 127.245 18.7146 129.411C18.7916 130.052 18.7916 130.614 18.7916 131.256C18.7146 132.218 18.0985 132.619 17.2513 132.218C16.8663 132.058 16.5582 131.737 16.2501 131.496C15.326 130.534 14.4018 129.491 13.4776 128.528C13.1696 128.207 12.8615 127.887 12.5534 127.646C12.1684 127.325 11.8603 127.405 11.5522 127.806C10.9361 128.528 10.8591 129.25 11.4752 130.213C13.0925 132.78 15.249 134.705 18.0985 135.828C19.4848 136.389 20.3319 135.988 20.871 134.625C21.1021 134.143 21.2561 133.662 21.2561 133.181C21.2561 129.411 21.2561 125.721 21.1791 121.951C21.1791 120.988 21.1791 119.865 20.2549 119.143Z" fill="#52AE32"/>
<path d="M88.1821 57.5369C88.1821 49.034 88.1821 40.4509 88.1821 31.948C88.1821 30.1832 88.2591 28.4185 88.3361 26.6537C88.5672 21.3595 91.2627 17.6696 96.1147 15.985C98.4251 15.1829 100.89 14.7818 103.277 14.7016C104.894 14.6214 106.589 14.5411 108.206 14.6214C112.904 14.7016 117.371 18.1509 118.834 22.7232C119.219 24.0066 119.45 25.2901 119.45 26.6537C119.45 45.9056 119.45 65.2376 119.45 84.4894C119.45 88.5002 117.91 91.8693 115.445 94.8373C113.289 97.4042 110.748 99.4096 107.59 100.613C106.512 101.014 105.356 101.255 104.124 101.255C101.891 101.255 99.5803 101.174 97.3469 101.255C94.6514 101.335 92.572 100.132 90.9547 97.9657C89.4914 95.8801 88.5672 93.5538 88.4132 90.9869C88.1821 87.6178 88.1821 84.2488 88.1051 80.8797C88.0281 75.8261 88.0281 70.6923 88.0281 65.6387C88.2591 62.7509 88.2591 60.1038 88.1821 57.5369C88.2591 57.5369 88.1821 57.5369 88.1821 57.5369ZM112.365 56.5743C112.365 47.0286 112.365 37.4027 112.365 27.857C112.365 27.4559 112.365 27.0548 112.288 26.5735C112.211 25.1296 111.518 24.0868 110.362 23.3649C109.13 22.643 107.821 22.4023 106.512 22.3221C104.663 22.1617 102.815 22.1617 100.89 22.1617C99.8884 22.1617 98.8872 22.3221 97.963 22.5627C96.4997 22.8836 95.5756 23.9264 95.3445 25.5307C95.1905 26.4933 95.1135 27.4559 95.1135 28.4185C95.1135 47.911 95.1135 67.3232 95.1135 86.8157C95.1135 87.4574 95.1135 88.0991 95.2675 88.7409C95.6526 91.5484 97.4239 93.5538 100.35 93.7945C102.892 94.0351 105.279 93.7142 107.59 92.6714C109.361 91.9495 110.748 90.7462 111.595 88.9013C112.134 87.698 112.288 86.3344 112.288 85.0509C112.365 75.6657 112.365 66.12 112.365 56.5743Z" fill="white"/>
<path d="M55.682 91.8691C56.9912 90.2647 58.6085 89.1417 60.2258 88.0989C63.7685 85.6924 67.3112 83.3661 70.7769 80.9597C71.624 80.3981 72.3942 79.6762 73.1643 79.1147C73.5494 78.7938 73.7034 78.3927 73.7034 77.9114C73.7034 58.5793 73.7034 39.167 73.7034 19.8349C73.7034 18.5514 73.7804 17.3482 74.0115 16.0647C74.2425 14.701 75.0127 14.2197 76.3219 14.6208C77.7082 15.0219 78.9404 15.7438 79.9416 16.8669C80.3267 17.2679 80.4807 17.7492 80.4807 18.3108C80.4807 44.4613 80.4807 70.5315 80.4807 96.682C80.4807 98.527 79.5565 99.4896 77.7852 99.5698C77.6312 99.5698 77.4001 99.5698 77.2461 99.5698C76.0909 99.7303 75.3977 99.0885 74.9357 98.0457C74.3966 96.9227 74.1655 95.7997 74.0885 94.5964C74.0885 92.9921 74.1655 91.3878 74.2425 89.7834C74.2425 89.1417 74.1655 88.4198 74.0885 87.778C74.0885 87.377 73.8574 87.2967 73.5494 87.377C73.1643 87.5374 72.7022 87.6176 72.3171 87.8582C70.3918 89.0615 68.5434 90.345 66.6951 91.6284C63.4605 93.8745 60.3029 96.2008 57.1452 98.4468C55.4509 99.65 53.6026 99.65 51.7542 99.4094C50.2909 99.249 49.2898 97.9655 49.1357 96.1205C49.0587 95.2381 48.9817 94.436 48.9817 93.5536C48.9817 68.9272 48.9817 44.3008 48.9817 19.5942C48.9817 18.391 49.0587 17.1075 49.2897 15.9043C49.4438 14.7812 49.9829 14.3802 51.1381 14.2999C51.7542 14.2999 52.3703 14.2197 52.9865 14.2197C54.7578 14.2197 55.682 15.1021 55.759 16.9471C55.759 17.2679 55.759 17.669 55.759 17.9899C55.759 42.3756 55.759 66.6812 55.759 91.0669C55.682 91.3878 55.682 91.5482 55.682 91.8691Z" fill="white"/>
<path d="M10.1662 58.2589C10.1662 47.7506 10.1662 37.162 10.1662 26.6536C10.1662 24.6482 10.0122 22.723 10.0892 20.7176C10.0892 19.5144 10.3202 18.3111 10.6283 17.1079C11.0904 15.2629 12.0146 14.8618 13.4778 14.8618C18.1757 14.7014 22.8737 14.541 27.4945 14.3805C30.4981 14.3003 33.5787 14.2201 36.5823 14.1399C37.4295 14.1399 38.3536 14.3003 39.2008 14.541C40.279 14.8618 40.8951 15.664 40.9721 16.787C41.0492 17.5892 40.8951 18.4716 40.8181 19.2737C40.7411 19.9957 40.279 20.3166 39.5859 20.477C39.2778 20.5572 38.8927 20.5572 38.5077 20.6374C34.5799 20.7979 30.6522 20.8781 26.7244 21.1187C24.1059 21.1989 21.4874 21.3594 18.8689 21.5198C17.9447 21.6 17.5596 21.9209 17.4826 22.8835C17.4056 23.8461 17.3286 24.8087 17.3286 25.7713C17.3286 37.5631 17.3286 49.2747 17.3286 61.0665C17.3286 65.3982 17.3286 69.7298 17.3286 74.0615C17.3286 75.0241 17.4056 75.9867 17.5596 76.8691C17.9447 78.9547 19.0229 79.9173 21.1023 79.9173C25.8772 79.9173 30.6522 79.9173 35.3501 79.9173C36.0432 79.9173 36.7363 79.9173 37.3524 79.9976C39.0468 80.158 40.202 81.0404 40.7411 82.6447C41.0492 83.5271 41.2032 84.4095 41.2802 85.372C41.4342 88.6609 41.3572 91.8696 40.7411 95.0782C40.5101 96.2815 40.125 97.4847 39.6629 98.6077C39.2008 99.7308 38.3536 100.292 37.0444 100.292C29.728 100.292 22.4886 100.292 15.1722 100.292C14.479 100.292 13.7859 100.292 13.0928 100.132C10.8593 99.6506 9.78113 98.3671 9.78113 95.9606C9.78113 92.4311 9.78113 88.9818 9.78113 85.4523C9.85814 76.3878 9.85815 67.3234 9.93516 58.2589C10.0892 58.2589 10.0892 58.2589 10.1662 58.2589ZM25.3381 93.6343C27.5716 93.6343 29.805 93.6343 31.9614 93.6343C33.3477 93.6343 34.1948 92.9124 34.4259 91.5487C34.5799 90.6663 34.5799 89.7037 34.5029 88.8214C34.5029 87.939 33.9638 87.3775 33.0396 87.2972C32.5775 87.217 32.0384 87.217 31.5763 87.217C27.4945 87.217 23.4128 87.217 19.254 87.217C19.0229 87.217 18.7919 87.217 18.4838 87.217C17.7137 87.2972 17.3286 87.6983 17.3286 88.4203C17.3286 89.8642 17.3286 91.3081 17.3286 92.752C17.3286 93.3135 17.5596 93.5541 18.0987 93.5541C18.3298 93.5541 18.5608 93.5541 18.8689 93.5541C21.0253 93.6343 23.1817 93.6343 25.3381 93.6343Z" fill="white"/>
<path d="M63.9996 163.823C62.8444 162.54 61.3041 161.738 59.6868 161.016C55.836 159.331 51.9853 157.727 48.1345 156.123C44.6688 154.679 41.2032 153.155 37.9686 151.069C36.7363 150.267 35.5811 149.384 34.5799 148.261C33.8868 147.379 33.3477 146.416 33.5017 145.213C33.5787 144.732 33.7327 144.652 34.1178 144.732C36.9674 145.133 39.8169 145.534 42.6665 145.935C45.8241 146.336 48.9817 146.657 52.1393 146.978C57.3763 147.54 62.6133 147.62 67.8503 147.459C71.393 147.299 74.9357 147.058 78.4784 146.737C81.79 146.416 85.1017 145.935 88.4133 145.534C90.1847 145.293 91.956 144.973 93.8044 144.732C94.1124 144.652 94.2665 144.812 94.3435 145.133C94.4975 146.015 94.2665 146.818 93.8044 147.54C92.8802 148.983 91.5709 150.026 90.1847 150.909C87.5662 152.673 84.7166 153.957 81.8671 155.16C77.5542 157.005 73.2414 158.77 68.9286 160.695C67.7733 161.176 66.6181 161.898 65.4629 162.54C65.0778 162.861 64.6157 163.342 63.9996 163.823Z" fill="white"/>
<path d="M54.9886 121.79C54.9886 124.598 54.9886 127.325 54.9886 130.133C54.9886 132.218 56.5289 133.341 58.5313 132.619C59.0704 132.459 59.3015 131.978 59.3785 131.496C59.4555 131.175 59.4555 130.855 59.4555 130.534C59.6095 126.443 59.6865 122.271 59.8406 118.18C59.9176 116.416 59.8406 114.651 59.9176 112.886C59.9176 112.325 60.0716 111.683 60.2256 111.121C60.4567 110.48 60.7647 110.239 61.3809 110.319C62.151 110.399 62.4591 110.56 62.5361 111.282C62.6131 112.244 62.6901 113.207 62.6901 114.25C62.6131 119.143 62.4591 124.036 62.305 128.929C62.305 129.812 62.3821 130.694 62.5361 131.496C62.6901 132.459 63.2292 133.261 64.0764 133.742C64.5385 134.063 64.7695 134.464 64.7695 135.026C64.6925 136.069 64.6925 137.111 64.5385 138.154C64.4615 138.636 64.2304 139.117 63.6913 139.358C63.0752 139.678 62.6131 139.518 62.3821 138.876C62.151 138.235 61.997 137.593 61.92 136.871C61.7659 135.908 61.843 135.908 60.8418 135.908C59.3785 135.988 57.8382 136.149 56.3749 136.149C54.2955 136.149 52.2161 135.988 50.1366 135.908C49.2895 135.828 48.4423 135.828 47.5951 135.748C45.7468 135.507 44.5145 133.983 44.4375 131.978C44.1295 125.881 43.8984 119.785 44.0524 113.688C44.0524 112.886 44.2065 112.084 44.3605 111.282C44.5145 110.56 44.7456 110.399 45.4387 110.399C46.902 110.319 47.1331 110.48 47.2871 112.004C47.2871 112.325 47.3641 112.645 47.3641 112.966C47.5181 118.982 47.6722 124.919 47.8262 130.935C47.8262 131.256 47.9032 131.496 47.9802 131.817C48.1343 132.539 48.5963 132.94 49.2895 132.94C49.7516 132.94 50.2907 132.94 50.7528 132.86C51.4459 132.78 51.831 132.298 51.985 131.657C52.139 131.095 52.2161 130.453 52.2161 129.812C52.2161 124.598 52.2161 119.384 52.2161 114.169C52.2161 113.287 52.2931 112.405 52.4471 111.603C52.5241 111.121 52.7552 110.56 53.3713 110.48C54.2955 110.319 54.7576 110.56 54.9116 111.522C55.0656 112.325 55.0656 113.207 55.1426 114.009C54.9886 116.496 54.9886 119.143 54.9886 121.79Z" fill="white"/>
<path d="M85.5638 124.999C85.6408 121.55 85.7948 118.02 85.8719 114.571C85.8719 114.009 86.0259 113.448 86.1029 112.966C86.565 111.282 87.4892 110.48 89.2605 110.399C91.4939 110.319 93.6503 110.399 95.8838 110.48C97.4241 110.56 98.9644 110.64 100.428 110.801C102.199 111.041 103.277 112.244 103.585 114.089C103.662 114.33 103.662 114.651 103.662 114.892C103.816 119.865 103.97 124.838 104.047 129.812C104.047 131.416 103.97 133.021 103.893 134.705C103.893 135.026 103.739 135.347 103.662 135.587C103.508 135.989 103.277 136.149 102.815 136.149C102.738 136.149 102.661 136.149 102.584 136.149C101.121 136.149 100.813 135.908 100.813 134.384C100.736 132.218 100.736 130.053 100.659 127.887C100.582 123.876 100.428 119.945 100.351 115.934C100.274 114.009 99.7345 113.528 97.8862 113.608C96.6539 113.688 96.1148 114.33 95.9608 115.694C95.8838 116.175 95.8838 116.656 95.8838 117.138C95.8838 122.272 95.8838 127.325 95.8838 132.459C95.8838 133.341 95.8068 134.304 95.5757 135.186C95.4217 136.069 94.5745 136.39 93.8044 135.989C93.5733 135.908 93.3423 135.588 93.3423 135.347C93.1883 134.785 93.1112 134.224 93.1112 133.662C93.1112 128.047 93.0342 122.432 93.0342 116.817C93.0342 116.656 93.0342 116.496 93.0342 116.416C93.0342 114.25 91.648 113.207 89.5686 113.849C89.1065 114.009 88.7984 114.33 88.7214 114.811C88.6444 115.212 88.6444 115.533 88.5674 115.934C88.4133 119.785 88.3363 123.635 88.1823 127.486C88.1053 129.491 88.1823 131.496 88.1053 133.582C88.1053 134.224 87.9513 134.785 87.7972 135.427C87.5662 136.229 87.2581 136.39 86.488 136.309C85.7949 136.229 85.4868 135.989 85.4098 135.186C85.3328 134.705 85.3328 134.144 85.3328 133.662C85.4868 130.694 85.4868 127.806 85.5638 124.999Z" fill="white"/>
<path d="M79.2486 134.143C78.3244 134.705 77.4003 135.266 76.3991 135.667C75.3209 136.149 74.1656 136.55 73.0874 136.87C71.8552 137.191 71.008 136.71 70.777 135.346C70.5459 134.304 70.4689 133.181 70.4689 132.058C70.3919 130.213 70.4689 128.287 70.4689 126.442C70.3919 123.956 70.1609 121.469 70.1609 118.982C70.0839 116.736 70.2379 114.41 70.3149 112.164C70.3149 111.763 70.3919 111.362 70.4689 110.961C70.623 110.159 71.3931 109.918 71.9322 110.56C72.2403 110.881 72.5483 111.362 72.6254 111.843C72.8564 113.127 73.0104 114.49 73.0104 115.774C73.1645 119.384 73.1645 123.073 73.3185 126.683C73.3955 128.528 73.4725 130.373 73.4725 132.218C73.4725 132.298 73.4725 132.378 73.4725 132.459C73.5495 133.662 74.0886 133.983 75.0898 133.341C75.937 132.86 76.7842 132.298 77.6313 131.737C78.8636 130.935 79.4797 129.812 79.4027 128.287C79.3256 124.838 79.1716 121.389 79.0946 117.94C79.0176 116.014 79.0176 114.089 79.0946 112.244C79.0946 111.763 79.2486 111.282 79.4797 110.801C79.7877 110.079 80.4039 109.998 80.943 110.64C81.6361 111.522 81.8671 112.565 81.8671 113.608C81.9441 117.859 82.0212 122.111 82.0982 126.362C82.1752 129.41 82.1752 132.378 82.2522 135.427C82.2522 135.667 82.2522 135.908 82.2522 136.229C82.0982 137.031 81.8671 137.352 81.405 137.432C80.4809 137.512 80.1728 137.352 79.9418 136.469C79.5567 135.747 79.4027 134.945 79.2486 134.143Z" fill="white"/>
<path d="M38.2764 122.913C38.4305 125.641 38.5075 128.368 38.7385 131.095C38.8156 132.058 38.9696 133.02 39.7397 133.823C40.2018 134.304 39.8938 135.347 39.2006 135.668C38.0454 136.229 36.8902 136.229 35.735 135.587C35.5039 135.427 35.1959 135.347 34.9648 135.347C33.5785 135.427 32.1153 135.507 30.729 135.668C29.3427 135.748 28.1875 135.266 27.3403 134.063C26.3391 132.619 25.9541 130.935 25.877 129.17C25.8 128.448 25.877 127.646 25.9541 126.924C26.1851 125.48 27.0323 124.518 28.4956 124.277C29.7278 124.036 31.037 124.036 32.2693 123.956C32.9624 123.876 33.6556 123.876 34.3487 123.715C34.8878 123.635 35.1188 123.234 35.1188 122.673C35.1188 121.63 35.2729 120.587 35.2729 119.544C35.2729 118.501 35.2729 117.459 35.1958 116.416C34.9648 114.651 34.0406 113.608 32.2693 113.367C31.037 113.207 29.8048 113.207 28.6496 113.207C27.8794 113.207 27.7254 113.448 27.7254 114.25C27.7254 114.41 27.4944 114.731 27.3403 114.731C26.4932 114.972 25.723 114.491 25.569 113.608C25.1839 111.523 25.8 110.881 27.2633 110.64C29.4967 110.239 31.7302 110.159 33.9636 110.48C35.6579 110.64 36.8132 111.763 37.5063 113.287C38.1994 114.811 38.4305 116.335 38.5075 118.02C38.5845 119.624 38.5075 121.229 38.5075 122.913C38.3535 122.913 38.3535 122.913 38.2764 122.913ZM35.966 130.133C35.889 129.33 35.735 128.448 35.5809 127.566C35.4269 126.603 35.1188 126.443 34.1947 126.523C32.5773 126.683 31.037 126.844 29.4197 127.004C28.8036 127.084 28.4185 127.325 28.4185 128.047C28.2645 129.571 28.4956 131.015 29.1887 132.379C29.6508 133.261 30.4209 133.662 31.3451 133.582C32.2693 133.502 33.1935 133.341 34.0406 133.181C35.0418 133.02 35.5039 132.539 35.735 131.496C35.889 131.095 35.889 130.694 35.966 130.133Z" fill="white"/>
<path d="M120.066 124.598C120.143 127.887 120.22 131.095 120.297 134.384C120.297 134.866 120.143 135.507 119.912 135.908C119.373 136.791 118.372 136.711 117.91 135.828C117.602 135.267 117.14 135.267 116.678 135.347C115.83 135.427 115.06 135.587 114.29 135.668C112.673 135.828 111.21 135.347 110.054 134.224C109.284 133.502 109.13 132.459 109.053 131.496C108.899 129.331 109.13 127.245 110.285 125.4C111.133 124.036 112.211 123.234 113.905 123.314C114.521 123.314 115.214 123.234 115.83 123.154C116.986 122.993 117.525 122.271 117.525 121.148C117.525 119.143 117.525 117.138 117.525 115.132C117.525 114.17 116.986 113.367 116.138 112.966C114.983 112.405 113.751 112.405 112.519 112.565C111.364 112.806 111.055 113.287 111.133 114.49C111.133 114.972 111.133 115.293 110.747 115.613C110.131 116.015 109.438 115.934 109.13 115.212C108.206 113.287 108.822 111.362 110.978 110.881C113.52 110.239 116.061 110.56 118.372 111.924C119.604 112.645 120.143 113.688 120.22 115.132C119.912 118.18 120.066 121.389 120.066 124.598ZM115.214 132.459C115.753 132.379 116.37 132.379 116.909 132.299C117.448 132.299 117.679 131.978 117.756 131.496C117.833 130.855 117.833 130.293 117.833 129.651C117.756 127.806 116.678 126.523 114.983 126.202C113.443 125.881 112.365 126.523 112.057 128.127C111.903 128.929 111.903 129.732 111.826 130.534C111.826 131.577 112.211 132.138 113.212 132.299C113.828 132.379 114.521 132.379 115.214 132.459Z" fill="white"/>
<path d="M20.2568 119.143C21.104 119.945 21.181 120.988 21.181 121.95C21.258 125.721 21.258 129.41 21.258 133.181C21.258 133.662 21.104 134.223 20.873 134.624C20.2568 136.068 19.4867 136.389 18.1004 135.828C15.2509 134.705 13.0944 132.78 11.4771 130.213C10.861 129.17 10.938 128.448 11.5541 127.806C11.8622 127.485 12.2473 127.405 12.5553 127.646C12.8634 127.886 13.1715 128.207 13.4795 128.528C14.4037 129.491 15.3279 130.534 16.2521 131.496C16.5601 131.817 16.8682 132.058 17.2533 132.218C18.1004 132.619 18.7165 132.218 18.7936 131.255C18.7936 130.614 18.7936 130.052 18.7165 129.41C18.5625 127.245 18.3315 125.079 18.1774 122.913C18.1774 122.672 18.0234 122.352 17.9464 122.111C17.7924 121.469 17.4843 121.068 16.7141 121.068C16.2521 121.068 15.79 120.827 15.4049 120.587C14.7888 120.186 14.5577 119.544 14.7118 118.742C14.8658 118.18 15.1738 117.859 15.944 117.779C16.4831 117.699 17.0992 117.699 17.6383 117.699C18.1004 117.699 18.3315 117.458 18.3315 116.977C18.2545 116.496 18.3315 116.015 18.1774 115.533C17.8694 114.41 16.9452 113.849 15.944 113.768C14.3267 113.608 12.6324 113.688 11.015 113.768C10.707 113.768 10.3219 114.009 10.0909 114.17C9.70578 114.41 9.62876 114.811 9.78279 115.293C10.0909 116.015 10.0138 116.416 9.47474 116.817C8.93563 117.218 8.39653 117.138 7.93444 116.576C7.01025 115.613 6.77921 114.41 7.2413 113.127C7.70339 111.763 8.7816 111.041 10.1679 110.961C12.6323 110.801 15.1739 110.72 17.5613 111.362C18.6395 111.683 19.5637 112.084 20.3339 112.886C20.95 113.528 21.258 114.25 21.258 115.132C21.258 116.015 21.258 116.977 21.181 117.859C21.181 118.662 20.95 118.902 20.2568 119.143Z" fill="white"/>
<path d="M112.365 56.5742C112.365 66.1199 112.365 75.6657 112.365 85.2114C112.365 86.575 112.211 87.8585 111.672 89.0617C110.824 90.8265 109.438 92.0297 107.667 92.8319C105.356 93.8747 102.892 94.1955 100.427 93.9549C97.4238 93.634 95.7295 91.7088 95.3445 88.9013C95.2674 88.2596 95.1904 87.6178 95.1904 86.9761C95.1904 67.4836 95.1904 48.0714 95.1904 28.5789C95.1904 27.6163 95.2674 26.6537 95.4215 25.6911C95.6525 24.167 96.5767 23.1242 98.04 22.7231C98.9641 22.4825 99.9653 22.322 100.967 22.322C102.815 22.322 104.663 22.322 106.589 22.4825C107.898 22.5627 109.284 22.8835 110.439 23.5253C111.672 24.2472 112.288 25.29 112.365 26.7339C112.365 27.135 112.442 27.5361 112.442 28.0174C112.365 37.4828 112.365 47.0285 112.365 56.5742Z" fill="#52AE32"/>
<path d="M25.3381 93.6345C23.1817 93.6345 21.1022 93.6345 18.9458 93.6345C18.7148 93.6345 18.4837 93.6345 18.1757 93.6345C17.6366 93.6345 17.4055 93.3136 17.4055 92.8323C17.4055 91.3884 17.4055 89.9445 17.4055 88.5006C17.4055 87.6984 17.7906 87.3776 18.5607 87.2974C18.7918 87.2974 19.0228 87.2974 19.3309 87.2974C23.4127 87.2974 27.4945 87.2974 31.6533 87.2974C32.1154 87.2974 32.6545 87.2974 33.1166 87.3776C34.0408 87.4578 34.5799 88.0193 34.5799 88.9017C34.5799 89.7841 34.5799 90.7467 34.5029 91.6291C34.2718 93.0729 33.4247 93.7147 32.0384 93.7147C29.7279 93.7147 27.4945 93.6345 25.3381 93.6345Z" fill="#52AE32"/>
<path d="M35.968 130.133C35.891 130.694 35.891 131.095 35.814 131.496C35.5829 132.539 35.1207 133.02 34.1192 133.181C33.1948 133.341 32.2704 133.502 31.423 133.582C30.4986 133.662 29.7282 133.261 29.266 132.379C28.5727 131.015 28.3416 129.571 28.4957 128.047C28.5727 127.405 28.8809 127.085 29.4971 127.004C31.1149 126.844 32.6556 126.683 34.2733 126.523C35.1977 126.443 35.5058 126.683 35.6599 127.566C35.7369 128.448 35.891 129.331 35.968 130.133Z" fill="#52AE32"/>
<path d="M115.214 132.459C114.521 132.378 113.828 132.378 113.135 132.298C112.134 132.138 111.749 131.496 111.749 130.534C111.749 129.731 111.826 128.929 111.98 128.127C112.288 126.523 113.366 125.881 114.906 126.202C116.677 126.523 117.755 127.806 117.755 129.651C117.755 130.293 117.755 130.854 117.678 131.496C117.601 131.977 117.37 132.298 116.831 132.298C116.369 132.378 115.83 132.378 115.214 132.459Z" fill="#52AE32"/>
</svg>
