<svg width="127" height="71" viewBox="0 0 127 71" fill="none" xmlns="http://www.w3.org/2000/svg">
<path d="M19.5686 36.4883H23.042C25.6838 36.4883 27.2982 37.6102 27.2982 40.7087C27.2982 41.8306 26.9557 43.1128 26.0262 43.7005C27.6896 44.021 28.4723 45.8908 28.4723 47.6004C28.4723 50.6455 26.5154 52.0345 23.9226 52.0345H19.5686V36.4883ZM22.3571 49.6305H22.9442C24.4607 49.6305 25.7327 49.4168 25.7327 47.3867C25.7327 45.3566 24.2161 45.3032 22.7974 45.3032H22.3571V49.6305ZM22.3571 42.9525H22.6996C24.0694 42.9525 24.7054 42.5251 24.7054 40.9224C24.7054 39.3197 23.8737 38.8923 22.6996 38.8923H22.3571V42.9525Z" fill="#008866"/>
<path d="M34.245 52.088H31.6033V41.9375H34.245V52.088Z" fill="#008866"/>
<path d="M46.8667 47.0129C46.8667 50.1649 44.9099 52.4087 41.9746 52.4087C39.0393 52.4087 37.0825 50.1649 37.0825 47.0129C37.0825 43.8609 39.0882 41.6171 41.9746 41.6171C44.9099 41.5637 46.8667 43.8609 46.8667 47.0129ZM39.8221 47.0129C39.8221 48.4019 40.6537 49.8444 42.0235 49.8444C43.3933 49.8444 44.225 48.4019 44.225 47.0129C44.225 45.6239 43.3933 44.1815 42.0235 44.1815C40.6537 44.128 39.8221 45.5705 39.8221 47.0129Z" fill="#008866"/>
<path d="M56.3574 45.036C55.7704 44.3949 55.2323 44.021 54.4006 44.021C52.884 44.021 52.0524 45.5702 52.0524 47.0127C52.0524 48.6154 52.9819 49.951 54.4984 49.951C55.2323 49.951 55.8682 49.577 56.3574 48.9894V51.7674C55.6236 52.1948 54.8898 52.4085 54.0581 52.4085C51.3185 52.4085 49.3617 49.951 49.3617 47.0127C49.3617 44.021 51.3675 41.5635 54.2049 41.5635C54.9387 41.5635 55.7215 41.7772 56.3574 42.2046V45.036Z" fill="#008866"/>
<path d="M68.441 47.0129C68.441 50.1649 66.4842 52.4087 63.5489 52.4087C60.6136 52.4087 58.6567 50.1649 58.6567 47.0129C58.6567 43.8609 60.6625 41.6171 63.5489 41.6171C66.4352 41.5637 68.441 43.8609 68.441 47.0129ZM61.3474 47.0129C61.3474 48.4019 62.1791 49.8444 63.5489 49.8444C64.9187 49.8444 65.7503 48.4019 65.7503 47.0129C65.7503 45.6239 64.9187 44.1815 63.5489 44.1815C62.1791 44.128 61.3474 45.5705 61.3474 47.0129Z" fill="#008866"/>
<path d="M73.8714 42.8456C74.4584 41.9374 75.3879 41.5635 76.3174 41.5635C78.8124 41.5635 79.5462 43.4867 79.5462 45.8374V52.0345H76.9045V46.6921C76.9045 45.4634 76.9534 43.9141 75.4858 43.9141C73.9203 43.9141 73.8714 45.8374 73.8714 47.0661V52.0879H71.2296V41.9374H73.8714V42.8456Z" fill="#008866"/>
<path d="M86.1017 52.0881H83.4599V44.3417H82.5304V41.9376H83.4599V38.4651H86.1017V41.9376H87.7161V44.3417H86.1017V52.0881Z" fill="#008866"/>
<path d="M93.0485 42.9525C93.6356 42.0443 94.4183 41.5635 95.3967 41.5635C95.7881 41.5635 96.1305 41.6703 96.473 41.8306L96.1306 44.5018C95.7881 44.2347 95.4457 44.1278 95.0543 44.1278C93.1953 44.1278 93.0485 45.8908 93.0485 47.4935V52.0879H90.4067V41.9374H93.0485V42.9525Z" fill="#008866"/>
<path d="M107.236 47.0129C107.236 50.1649 105.279 52.4087 102.344 52.4087C99.4083 52.4087 97.4514 50.1649 97.4514 47.0129C97.4514 43.8609 99.4572 41.6171 102.344 41.6171C105.23 41.5637 107.236 43.8609 107.236 47.0129ZM100.142 47.0129C100.142 48.4019 100.974 49.8444 102.344 49.8444C103.713 49.8444 104.545 48.4019 104.545 47.0129C104.545 45.6239 103.713 44.1815 102.344 44.1815C100.974 44.128 100.142 45.5705 100.142 47.0129Z" fill="#008866"/>
<path d="M112.617 52.0881H109.975V34.5117H112.617V52.0881Z" fill="#008866"/>
<path d="M45.2034 32.9088L44.4207 34.7787H43.4911L46.72 27.0322L49.9488 34.7787H49.0193L48.2365 32.9088H45.2034ZM46.72 29.0623L45.5458 32.0541H47.943L46.72 29.0623Z" fill="#008866"/>
<path d="M53.8625 30.7721C54.156 30.2913 54.6452 30.0242 55.1344 30.0242C56.3085 30.0242 56.651 30.8789 56.651 32.0008V34.7254H55.8193V32.1077C55.8193 31.3063 55.7215 30.7721 54.8898 30.7721C53.8625 30.7721 53.8625 31.7871 53.8625 32.5885V34.7254H53.0308V30.131H53.8625V30.7721Z" fill="#008866"/>
<path d="M63.4511 34.0308C63.1086 34.565 62.5705 34.8855 61.9834 34.8855C60.6626 34.8855 59.9777 33.7102 59.9777 32.3746C59.9777 31.0925 60.7604 29.9706 61.9834 29.9706C62.6194 29.9706 63.1086 30.3445 63.4511 30.8788V26.1775H64.2827V34.7253H63.4511V34.0308ZM63.5 32.4281C63.5 31.5199 63.0108 30.7719 62.1302 30.7719C61.2985 30.7719 60.8093 31.5733 60.8093 32.4281C60.8093 33.2828 61.2985 34.0842 62.1302 34.0842C63.0108 34.1376 63.5 33.3363 63.5 32.4281Z" fill="#008866"/>
<path d="M68.3921 32.5885C68.3921 33.3899 68.8813 34.1378 69.6641 34.1378C70.3 34.1378 70.6425 33.8173 70.936 33.2296L71.6209 33.657C71.2295 34.4584 70.4957 34.9392 69.6641 34.9392C68.3921 34.9392 67.6094 33.8707 67.6094 32.5351C67.6094 31.0927 68.2943 30.0776 69.6641 30.0776C70.9849 30.0776 71.6209 31.1461 71.6209 32.5351V32.5885H68.3921ZM70.7893 31.9475C70.6914 31.253 70.2511 30.7721 69.6152 30.7721C68.9792 30.7721 68.5389 31.253 68.3921 31.9475H70.7893Z" fill="#008866"/>
<path d="M75.7303 30.8789C75.975 30.3447 76.3663 29.9707 76.9045 29.9707C77.1491 29.9707 77.3937 30.0776 77.5894 30.1844L77.198 30.9858C77.0512 30.8255 76.9045 30.7721 76.7088 30.7721C75.8282 30.7721 75.7303 31.6803 75.7303 32.4282V34.672H74.8987V30.0776H75.7303V30.8789Z" fill="#008866"/>
<path d="M80.916 30.7187C81.1606 30.2913 81.6009 30.0242 82.0412 30.0242C82.5793 30.0242 82.9707 30.3447 83.2642 30.8255C83.5089 30.3447 84.047 30.0242 84.5851 30.0242C85.7103 30.0242 86.0039 30.9858 86.0039 32.0008V34.7789H85.1722V32.1611C85.1722 31.5735 85.1233 30.8255 84.3894 30.8255C83.5089 30.8255 83.4599 31.7871 83.4599 32.5351V34.7789H82.6283V32.3214C82.6283 31.7337 82.5793 30.8255 81.8455 30.8255C80.9649 30.8255 80.916 31.7871 80.916 32.5351V34.7789H80.0844V30.1844H80.916V30.7187Z" fill="#008866"/>
<path d="M93.4888 34.7789H92.6572V34.0844C92.3147 34.6186 91.8255 34.9391 91.2384 34.9391C89.9665 34.9391 89.2327 33.7638 89.2327 32.4282C89.2327 31.1461 90.0154 30.0242 91.2384 30.0242C91.8744 30.0242 92.3636 30.3981 92.7061 30.9324V30.1844H93.5378V34.7789H93.4888ZM92.7061 32.4282C92.7061 31.52 92.2169 30.7721 91.3363 30.7721C90.5046 30.7721 90.0154 31.5735 90.0154 32.4282C90.0154 33.283 90.5046 34.0844 91.3363 34.0844C92.2169 34.1378 92.7061 33.3364 92.7061 32.4282Z" fill="#008866"/>
<path d="M98.0384 34.7788H97.2069V30.9857H96.7666V30.1309H97.2069V28.3679H98.0384V30.1309H98.8211V30.9857H98.0384V34.7788Z" fill="#008866"/>
<path d="M102.588 34.7788H101.805V30.9857H101.365V30.1309H101.805V28.3679H102.588V30.1309H103.42V30.9857H102.588V34.7788Z" fill="#008866"/>
<path d="M31.3586 37.8773C31.3586 36.9157 32.0435 36.1677 32.9241 36.1677C33.8047 36.1677 34.4896 36.9157 34.4896 37.8773C34.4896 38.8389 33.8047 39.5868 32.9241 39.5868C32.0925 39.5868 31.3586 38.8389 31.3586 37.8773Z" fill="#E63027"/>
<path d="M20.9873 18.2709C19.9599 17.2025 18.1009 16.9353 16.4376 17.7367C14.7743 18.4846 13.7469 19.8736 12.9153 22.5982C12.1814 24.8955 11.7901 29.1159 12.3282 29.5968C12.7685 29.9707 14.1872 29.3296 15.557 28.5283C16.9757 27.7803 20.2045 25.6434 21.3787 23.3996C22.406 21.4229 22.2592 19.6065 20.9873 18.2709ZM14.97 25.5366C14.5297 25.9105 13.8937 25.9639 13.3555 25.3229C12.9153 24.842 13.1109 23.9338 13.3555 23.6667C13.8937 22.9722 14.8721 22.9722 15.2635 23.453C15.6549 23.9338 15.6059 25.0023 14.97 25.5366ZM16.193 20.7818C15.8016 20.0873 16.2419 19.2326 16.6333 18.9654C17.0736 18.6983 17.9542 18.6449 18.3455 19.286C18.7369 19.9805 18.5412 20.7818 18.0031 21.1558C17.4649 21.5298 16.6333 21.5298 16.193 20.7818ZM19.0304 24.842C18.688 25.3763 17.7096 25.59 17.1714 25.0023C16.6822 24.4681 16.78 23.6667 17.0736 23.2928C17.5628 22.6517 18.3455 22.7585 18.8347 23.0791C19.324 23.3996 19.3729 24.3078 19.0304 24.842Z" fill="#E63027"/>
<path d="M33.2177 11.1122C31.8968 10.5246 28.9126 9.88349 26.1241 10.8451C22.455 12.0739 21.0852 15.5998 22.2593 17.5765C24.0204 20.5148 26.3687 19.7669 28.9126 18.5381C31.0651 17.4696 33.2177 15.7067 34.5875 14.2108C36.0062 12.6615 34.2939 11.593 33.2177 11.1122ZM25.7327 15.7067C25.2924 16.1341 24.5097 16.0806 23.9715 15.5998C23.5802 15.2793 23.4823 14.3711 23.8737 13.8368C24.314 13.2492 25.1946 13.0889 25.7327 13.73C26.2708 14.3177 26.173 15.2793 25.7327 15.7067ZM28.7169 17.6833C28.2277 18.1107 27.2493 18.0039 26.9068 17.3628C26.5644 16.7751 26.8579 15.9738 27.4449 15.5998C27.8852 15.2793 28.7169 15.4395 29.0593 15.8669C29.4018 16.4012 29.304 17.2025 28.7169 17.6833ZM29.6953 14.5313C28.8637 14.4245 28.6191 13.6231 28.6191 13.2492C28.6191 12.9821 28.8637 11.967 29.7932 11.967C30.6738 11.967 31.0651 12.5012 31.0651 13.1958C31.0162 13.73 30.4291 14.6382 29.6953 14.5313Z" fill="#E63027"/>
<path d="M42.5127 13.3558C42.4149 13.1956 41.4364 13.8901 38.3544 14.3175C36.8378 14.5312 35.8105 14.5846 35.2723 14.4777C35.0767 14.7449 34.0493 15.6531 33.4623 16.1339C32.973 16.5613 31.5543 17.7366 29.6953 18.805C27.2492 20.2475 25.5859 20.3543 24.8032 20.1406C25.537 20.8351 27.2003 21.1557 28.4723 20.8351C29.9399 20.4612 31.7011 19.2859 31.9457 19.0187C32.1903 18.7516 32.4838 18.7516 32.8752 18.7516C33.2666 18.7516 34.8321 18.3242 35.6148 17.8434C36.3975 17.3626 37.1803 16.7749 37.376 16.5078C37.6695 16.0804 38.3055 16.0804 38.5012 16.0804C38.9904 16.027 40.1156 15.4394 40.9472 14.8517C41.8767 14.264 42.6595 13.623 42.5127 13.3558Z" fill="white"/>
<path d="M18.9815 27.0323C16.3398 29.1158 13.9426 30.0774 13.9426 30.0774C13.9426 30.0774 12.9642 32.3212 11.9369 33.9239C11.252 34.9924 10.3714 36.2212 9.88215 36.8088C9.63755 37.1294 9.58862 37.2896 9.68647 37.343C9.88215 37.3965 10.8606 36.9157 11.9369 36.1143C12.8174 35.4198 13.6002 34.4582 13.7469 34.0308C13.8937 33.7102 14.4808 33.55 14.9211 33.3897C15.3614 33.176 16.0952 32.6418 17.0247 31.6801C17.9053 30.7719 18.9815 28.7953 19.0794 28.261C19.1283 27.7268 19.3729 27.7802 19.6664 27.5665C19.911 27.3528 21.2319 26.8186 22.0636 25.2693C23.1399 23.1858 22.6506 21.7968 22.6017 21.3694C22.5039 23.3461 21.4765 25.109 18.9815 27.0323Z" fill="white"/>
<path d="M26.8579 22.2775C26.8579 22.2775 26.5155 22.2775 26.2219 22.1707C25.9284 22.0638 25.7327 21.9036 25.7327 21.9036C25.7327 21.9036 25.3903 22.2775 24.7543 22.7049C24.2162 23.0789 23.5802 23.346 23.5802 23.346C23.5802 23.346 23.5802 23.6665 23.5802 23.8802C23.5313 24.1474 23.4334 24.6816 23.4334 24.6816C23.4334 24.6816 24.3629 24.2542 25.2435 23.6665C26.1241 23.1323 26.8579 22.2775 26.8579 22.2775Z" fill="white"/>
<path d="M29.0593 24.0406C29.0593 24.0406 28.9615 23.5598 28.9126 23.2927C28.8147 23.0255 28.668 22.5981 28.668 22.5981C28.668 22.5981 27.9341 23.9872 26.124 25.3762C24.4118 26.6583 22.9442 26.872 22.9442 26.872C22.9442 26.872 23.1888 27.3528 23.3355 27.5131C23.5312 27.6734 23.8247 27.8871 23.8247 27.8871C23.8247 27.8871 25.4881 27.5131 26.9557 26.3378C28.3744 25.1625 29.0593 24.0406 29.0593 24.0406Z" fill="white"/>
<path d="M27.4939 28.1008C26.7601 28.5816 25.2924 29.0624 25.2924 29.0624C25.2924 29.0624 27.1514 29.7035 28.1788 28.9556C29.4018 28.0474 29.2061 26.2844 29.2061 26.2844C29.2061 26.2844 28.3745 27.5132 27.4939 28.1008Z" fill="white"/>
<path d="M18.0029 21.1559C18.4921 20.7819 18.7367 19.9805 18.3453 19.286C17.954 18.645 17.0246 18.7518 16.6332 18.9655C16.2419 19.1792 15.8016 20.0874 16.193 20.7819C16.6332 21.5298 17.4648 21.5298 18.0029 21.1559Z" fill="#008866"/>
<path d="M15.2633 23.453C14.8719 22.9722 13.8936 22.9722 13.3555 23.6667C13.1109 23.9873 12.9152 24.8421 13.3555 25.3229C13.8936 25.9639 14.5295 25.9105 14.9698 25.5366C15.6057 25.0023 15.6546 23.9339 15.2633 23.453Z" fill="#008866"/>
<path d="M17.1225 23.3462C16.8289 23.7201 16.6822 24.468 17.2203 25.0557C17.7095 25.5899 18.6878 25.3762 19.0791 24.8954C19.4216 24.3612 19.3726 23.453 18.8835 23.1325C18.3943 22.8119 17.6116 22.6516 17.1225 23.3462Z" fill="#008866"/>
<path d="M25.7325 15.7065C26.1728 15.3326 26.2706 14.3175 25.7325 13.7299C25.1944 13.1422 24.265 13.3025 23.8737 13.8367C23.4823 14.3709 23.6291 15.2791 23.9715 15.5997C24.5096 16.0805 25.2922 16.0805 25.7325 15.7065Z" fill="#008866"/>
<path d="M29.6952 14.5313C30.4289 14.6382 31.0159 13.73 31.0159 13.1423C31.0159 12.4478 30.6246 11.9136 29.7441 11.9136C28.8147 11.9136 28.5701 12.982 28.5701 13.1957C28.619 13.6231 28.9125 14.4779 29.6952 14.5313Z" fill="#008866"/>
<path d="M28.7167 17.6833C29.3037 17.2024 29.4015 16.4011 29.0102 15.8668C28.6678 15.386 27.8362 15.2792 27.3959 15.5997C26.8089 16.0271 26.5643 16.8285 26.8578 17.3627C27.2492 17.9504 28.2275 18.0572 28.7167 17.6833Z" fill="#008866"/>
<path d="M43.0998 13.0888C42.953 12.7683 42.4638 12.7148 41.8278 12.982C41.0451 13.2491 39.6753 13.5696 38.6968 13.7299C37.1313 13.997 35.9572 14.0504 35.6637 13.8902C35.9572 13.3025 35.7615 12.6614 35.5659 12.1806C35.0277 11.1121 33.6579 10.6313 32.8752 10.3642C31.7011 9.99023 29.9399 9.72312 28.2276 9.88339C26.1729 10.0971 24.6075 10.6847 23.2377 11.8601C22.4549 12.5546 21.8189 13.3559 21.4765 14.5847C21.3786 14.2107 21.0851 13.8367 20.7916 13.6765C20.9384 13.3025 21.0362 13.0354 21.183 12.7148C21.2808 12.4477 21.3786 12.0203 21.2808 11.6998C21.2319 11.4861 20.547 10.4176 20.4981 10.3642C20.2045 10.2039 19.9599 10.4176 20.0088 10.7382C20.0578 10.9519 20.6448 11.5929 20.6448 11.8601C20.6937 12.234 20.3513 13.0888 20.2045 13.5162C19.9599 13.4628 19.275 13.5696 18.8837 13.8367C18.4434 14.1039 18.052 14.6381 18.052 15.0655C18.052 15.0655 17.8074 15.0121 17.4649 15.0121C17.0736 14.9586 16.4865 14.9052 16.2908 14.5847C15.8994 13.997 15.7038 13.5162 15.3613 13.7833C15.1656 13.9436 15.3613 14.2641 15.4592 14.4244C15.6548 14.6915 15.9973 15.386 16.4376 15.386C16.829 15.4394 17.7095 15.5997 18.052 15.5997C18.052 15.5997 18.1009 15.9737 18.1988 16.134C18.3455 16.2942 18.5412 16.6148 18.5412 16.6148C18.5412 16.6148 16.8779 16.6682 15.8505 17.2024C14.7743 17.7367 13.0131 19.0188 11.9857 22.9722C11.203 25.9105 11.2519 27.7803 11.3008 28.7954C11.4476 30.6118 12.1814 30.5583 13.0131 30.2912C12.7685 31.0391 11.79 32.8021 11.203 33.7638C10.9095 34.2446 10.0289 35.4733 9.49074 36.1678C8.90368 36.9692 8.708 37.3966 8.9526 37.8239C9.29505 38.4116 10.3224 37.8239 11.1051 37.3431C12.5239 36.4884 13.698 35.1528 13.9426 34.672C14.0404 34.4583 14.334 34.1911 14.5786 34.1377C14.9699 34.0309 15.8016 33.7103 17.1714 32.3747C18.4923 31.0391 19.5686 28.9556 19.6175 28.6351C19.6664 28.2611 19.8621 28.2611 20.1556 28.0474C20.4491 27.8872 20.8894 27.4063 20.8894 27.4063C20.8894 27.4063 21.0851 27.7803 21.4276 28.2611C21.77 28.7419 22.0635 29.009 22.0635 29.009C22.0635 29.009 21.7211 30.0775 21.6722 30.772C21.6722 31.0391 21.8189 31.4131 22.1125 31.5734C22.5528 31.8405 24.5096 32.3747 25.0967 32.4816C25.3902 32.535 25.3413 32.7487 25.2434 33.2295C25.1456 33.7103 24.9988 34.2446 25.4391 34.2446C25.8305 34.2446 25.8794 33.4432 25.9283 32.9624C25.9773 32.5884 25.9773 32.0542 25.7816 31.9473C25.5859 31.7871 24.8521 31.6802 24.265 31.52C23.5312 31.3597 22.9441 31.146 22.6506 30.9857C22.3082 30.772 22.4549 30.4515 22.5038 30.1844C22.6017 29.757 22.6995 29.4364 22.6995 29.4364C22.6995 29.4364 23.4823 30.0775 24.7053 30.4515C26.2219 30.9857 27.7874 31.0391 28.8636 30.3981C29.7931 29.8104 30.3802 28.1543 30.527 27.4598C30.6737 26.7653 31.0162 24.8954 30.6248 23.2927C31.0162 23.3461 31.4565 23.5598 31.6032 23.6133C31.8967 23.7735 31.9457 23.7735 31.8478 25.2694C31.8478 25.6968 31.8478 25.7502 31.8478 26.4447C31.8478 27.2995 31.9457 27.4598 32.2392 27.5666C32.6795 27.7269 33.5112 27.8872 33.7068 27.8872C34.0982 27.8872 34.245 27.2995 33.7068 27.1392C33.2666 27.0324 32.8752 26.9789 32.6795 26.8187C32.5327 26.7118 32.5816 25.3228 32.5816 24.9489C32.5816 24.3612 32.6795 23.453 32.4838 23.1859C32.2881 22.9722 31.75 22.8119 31.3097 22.6516C31.0651 22.5448 30.8694 22.4914 30.478 22.3845C30.3802 22.0106 30.1356 21.316 29.891 20.9955C30.4291 20.7284 30.9183 20.5147 31.3586 20.2476C31.75 19.9805 32.0924 19.7668 32.2392 19.5531C32.4349 19.3928 32.6306 19.2859 32.8752 19.2859C33.1687 19.2859 34.3428 19.0188 35.0277 18.7517C35.7615 18.4846 37.0335 17.6298 37.4249 17.3093C37.8162 16.9353 38.1098 16.6148 38.5011 16.5613C38.9904 16.5079 40.1645 16.1874 41.1429 15.4394C42.1213 14.7449 43.3933 13.8902 43.0998 13.0888ZM12.2793 29.5967C11.7411 29.1159 12.1325 24.8954 12.8663 22.5982C13.7469 19.8736 14.7253 18.4846 16.3887 17.7367C18.052 16.9887 19.911 17.2558 20.9384 18.2709C22.2592 19.6065 22.3571 21.4229 21.3297 23.3996C20.1556 25.6434 16.9268 27.7803 15.5081 28.5282C14.1383 29.3296 12.7196 30.0241 12.2793 29.5967ZM21.9657 25.2694C21.134 26.8721 19.8621 27.3529 19.5686 27.5666C19.3239 27.7803 19.0793 27.7803 18.9815 28.2611C18.9326 28.7954 17.8074 30.772 16.9268 31.6802C15.9484 32.6419 15.2635 33.1761 14.8232 33.3898C14.4318 33.5501 13.7958 33.7103 13.6491 34.0309C13.4534 34.4048 12.7196 35.3665 11.839 36.1144C10.8116 36.9157 9.78427 37.45 9.58858 37.3431C9.49074 37.2897 9.49074 37.1294 9.78427 36.8089C10.3224 36.1678 11.1541 34.9391 11.839 33.924C12.8663 32.3213 13.8447 30.0775 13.8447 30.0775C13.8447 30.0775 16.2419 29.1159 18.8837 27.0324C21.4765 25.1091 22.5038 23.3461 22.5038 21.3695C22.6017 21.8503 23.0909 23.2393 21.9657 25.2694ZM22.2592 17.5764C21.0362 15.5463 22.406 12.0738 26.124 10.845C28.9125 9.88339 31.8968 10.5245 33.2176 11.1121C34.2939 11.5929 36.0551 12.6614 34.6364 14.1573C33.2176 15.6531 31.114 17.4161 28.9615 18.4846C26.3686 19.7668 24.0204 20.5147 22.2592 17.5764ZM23.629 23.3996C23.629 23.3996 24.2161 23.1324 24.8031 22.7585C25.4391 22.3311 25.7816 21.9571 25.7816 21.9571C25.7816 21.9571 25.9773 22.1174 26.2708 22.2242C26.5643 22.3311 26.9068 22.3311 26.9068 22.3311C26.9068 22.3311 26.1729 23.1859 25.2924 23.7735C24.4118 24.3612 23.4823 24.7886 23.4823 24.7886C23.4823 24.7886 23.5801 24.2543 23.629 23.9872C23.629 23.7201 23.629 23.3996 23.629 23.3996ZM23.8247 27.8337C23.8247 27.8337 23.5312 27.6735 23.3355 27.4598C23.1398 27.2995 22.9441 26.8187 22.9441 26.8187C22.9441 26.8187 24.4118 26.605 26.124 25.3228C27.983 23.9338 28.6679 22.5448 28.6679 22.5448C28.6679 22.5448 28.8636 23.0256 28.9125 23.2393C29.0104 23.5064 29.0593 23.9872 29.0593 23.9872C29.0593 23.9872 28.3744 25.1625 26.9557 26.2844C25.488 27.4598 23.8247 27.8337 23.8247 27.8337ZM28.2276 28.9556C27.1514 29.7036 25.3413 29.0625 25.3413 29.0625C25.3413 29.0625 26.76 28.5817 27.5427 28.1008C28.4233 27.5132 29.3039 26.2844 29.3039 26.2844C29.3039 26.2844 29.4507 28.0474 28.2276 28.9556ZM41.0451 14.7984C40.2134 15.386 39.0882 15.9737 38.599 16.0271C38.4033 16.0271 37.7673 16.0271 37.4738 16.4545C37.2781 16.775 36.4954 17.3093 35.7126 17.7901C34.9299 18.2709 33.3644 18.6983 32.973 18.6983C32.5817 18.6983 32.2881 18.6983 32.0435 18.9654C31.7989 19.2325 30.0377 20.4078 28.5701 20.7818C27.2492 21.1558 25.6348 20.7818 24.901 20.0873C25.6837 20.301 27.3471 20.1941 29.7931 18.7517C31.6521 17.6832 33.0219 16.4545 33.5601 16.0805C34.1471 15.5997 35.1745 14.6915 35.3702 14.4244C35.9083 14.5312 36.9357 14.4778 38.4522 14.2641C41.5343 13.8367 42.5127 13.1422 42.6105 13.3025C42.6595 13.623 41.8767 14.2641 41.0451 14.7984Z" fill="#008866"/>
<path d="M44.7631 59.5138C44.7631 58.5521 45.448 57.8042 46.3286 57.8042C47.2092 57.8042 47.8941 58.5521 47.8941 59.5138C47.8941 60.4754 47.2092 61.2233 46.3286 61.2233C45.448 61.2233 44.7631 60.4754 44.7631 59.5138Z" fill="#E63027"/>
<path d="M58.7546 59.5138C58.7546 58.5521 59.4395 57.8042 60.3201 57.8042C61.2007 57.8042 61.8856 58.5521 61.8856 59.5138C61.8856 60.4754 61.2007 61.2233 60.3201 61.2233C59.4885 61.2233 58.7546 60.4754 58.7546 59.5138Z" fill="#E63027"/>
<path d="M72.795 59.5138C72.795 58.5521 73.4799 57.8042 74.3605 57.8042C75.2411 57.8042 75.926 58.5521 75.926 59.5138C75.926 60.4754 75.2411 61.2233 74.3605 61.2233C73.4799 61.2233 72.795 60.4754 72.795 59.5138Z" fill="#E63027"/>
<path d="M86.8356 59.5138C86.8356 58.5521 87.5205 57.8042 88.4011 57.8042C89.2816 57.8042 89.9665 58.5521 89.9665 59.5138C89.9665 60.4754 89.2816 61.2233 88.4011 61.2233C87.5205 61.2233 86.8356 60.4754 86.8356 59.5138Z" fill="#E63027"/>
<path d="M100.827 59.5138C100.827 58.5521 101.512 57.8042 102.392 57.8042C103.273 57.8042 103.958 58.5521 103.958 59.5138C103.958 60.4754 103.273 61.2233 102.392 61.2233C101.561 61.2233 100.827 60.4754 100.827 59.5138Z" fill="#E63027"/>
</svg>
