<svg width="179" height="51" viewBox="0 0 179 51" fill="none" xmlns="http://www.w3.org/2000/svg">
<path d="M25.8508 44.8687C22.5483 44.4542 19.3179 43.6013 16.2476 42.3333C10.0221 39.7383 5.03171 34.9065 2.2892 28.8186C-0.453308 22.7306 -0.742508 15.8425 1.48031 9.55211C1.79579 8.75494 2.15262 7.97426 2.54935 7.21315C2.57885 7.07308 2.63905 6.94104 2.72575 6.82629C2.81244 6.71154 2.92353 6.61686 3.05124 6.54883C3.17896 6.48081 3.32021 6.44106 3.46512 6.43245C3.61003 6.42383 3.75509 6.44652 3.89018 6.49892C7.51404 7.83802 11.3372 7.14171 15.0879 7.3024C20.1794 7.51666 25.1985 8.03445 29.7102 10.7127C29.7911 11.0237 29.7698 11.3521 29.6493 11.6504C29.5289 11.9488 29.3155 12.2018 29.0398 12.3731C26.434 15.5299 24.5769 19.2205 23.604 23.1752C23.5834 23.5697 23.4831 23.956 23.3088 24.3117C23.1346 24.6674 22.89 24.9851 22.5893 25.2463C22.3079 25.334 22.0032 25.3126 21.7372 25.1866C21.4712 25.0605 21.2641 24.8392 21.1579 24.5679C18.3733 21.2811 15.0841 18.4436 11.4097 16.1583C14.9144 19.2747 18.1172 22.7057 20.9767 26.4069C21.5962 27.113 22.0811 27.9235 22.4081 28.7994C22.4642 29.01 22.5006 29.2251 22.5168 29.4422C22.7869 34.1325 23.878 38.7415 25.7421 43.0653C25.9213 43.3292 26.0259 43.6355 26.045 43.9524C26.0641 44.2694 25.9971 44.5857 25.8508 44.8687Z" fill="#8CC53F"/>
<path d="M169.483 27.7628C168.196 32.1372 166.783 36.4758 165.66 40.8858C165.116 43.0105 163.612 42.1535 162.398 42.2964C162.132 42.3986 161.847 42.4407 161.562 42.4194C161.278 42.3982 161.002 42.3141 160.755 42.1735C160.507 42.0329 160.296 41.8394 160.135 41.6072C159.974 41.3751 159.868 41.1102 159.825 40.8323C158.703 36.4734 157.311 32.1862 155.658 27.9949C155.15 31.8336 154.48 35.6545 154.19 39.5111C154.027 41.7964 153.266 42.4749 150.929 42.3678C146.58 42.1535 146.526 42.3678 147.105 38.172C148.102 31.0302 149.189 24.067 150.168 17.0145C150.313 15.9611 150.675 15.4255 151.78 15.5683H151.998C157.941 15.3719 157.941 15.3719 159.59 20.9246C160.568 24.2812 161.528 27.62 162.507 31.0123C162.845 30.8063 163.119 30.5121 163.298 30.1624C163.477 29.8126 163.554 29.4209 163.521 29.0305C164.729 25.0192 165.937 20.9841 167.145 16.9252C167.163 16.7118 167.225 16.5042 167.327 16.3151C167.429 16.1261 167.569 15.9595 167.738 15.8257C167.908 15.692 168.104 15.5938 168.313 15.5373C168.523 15.4807 168.742 15.4669 168.957 15.4969C174.701 15.2469 174.737 15.2112 175.679 20.8532C176.803 27.4593 177.836 34.0833 178.941 40.6895C179.122 41.8143 178.941 42.3142 177.618 42.3499C171.784 42.5106 171.802 42.5641 171.168 36.8507C170.824 33.8155 170.352 30.7981 169.954 27.7628H169.61H169.483Z" fill="#056839"/>
<path d="M106.355 26.8173C103.293 31.495 100.267 36.0121 97.2952 40.6185C96.9959 41.2119 96.5196 41.701 95.9301 42.0201C95.3407 42.3392 94.6663 42.4732 93.9975 42.4039C88.761 42.3146 88.761 42.4039 88.761 37.1727C88.761 30.6024 88.761 24.0499 88.761 17.5332C88.761 16.0156 89.1959 15.6406 90.6998 15.6406C96.1356 15.6406 96.1356 15.6406 96.1356 20.9969V30.8344C96.4354 30.7947 96.7158 30.6657 96.9392 30.4647C97.1626 30.2637 97.3184 30.0002 97.3858 29.7096C100.067 25.6567 102.822 21.6039 105.358 17.4796C105.659 16.8909 106.132 16.4053 106.718 16.0867C107.303 15.768 107.972 15.6312 108.638 15.6942C114.074 15.7835 114.074 15.6942 114.074 21.0504C114.074 27.6207 114.074 34.1732 114.074 40.6899C114.139 40.9369 114.137 41.1963 114.07 41.4426C114.002 41.6888 113.87 41.9132 113.686 42.0937C113.503 42.2741 113.276 42.4042 113.026 42.4711C112.776 42.5381 112.512 42.5396 112.262 42.4753C106.699 42.4753 106.717 42.4753 106.699 37.1191C106.699 33.834 106.699 30.5547 106.699 27.2815C106.614 27.1074 106.497 26.9501 106.355 26.8173Z" fill="#056839"/>
<path d="M130.889 42.9923C122.083 42.8138 116.52 37.0649 116.701 28.3522C116.883 20.1215 122.88 14.6939 131.595 14.8724C140.311 15.051 145.928 20.9071 145.728 29.1556C145.529 37.4041 139.477 43.153 130.889 42.9923Z" fill="#056839"/>
<path d="M64.1006 28.9238C64.1006 25.0672 64.1006 21.2285 64.1006 17.3719C64.1006 16.0506 64.3362 15.5864 65.9126 15.5864C71.3484 15.6757 76.911 15.5864 82.4193 15.5864C83.8507 15.5864 84.2312 15.9971 84.2312 17.3719C84.2312 21.9962 84.2312 21.9962 79.4839 21.9962C77.4546 21.9962 75.4252 22.0855 73.414 21.9962C71.602 21.8891 71.8013 22.9068 71.8195 24.0316C71.8376 25.1565 71.5477 26.1921 73.3415 26.1206C75.576 25.9224 77.8278 26.0426 80.0275 26.4777C84.4305 27.5847 86.4599 30.0486 86.3693 34.4052C86.4104 36.2854 85.7296 38.1117 84.4631 39.5186C83.1966 40.9255 81.4377 41.8093 79.5383 41.9934C74.791 42.7611 70.0075 42.2433 65.224 42.3862C63.8651 42.3862 64.1912 41.4756 64.1912 40.7614C64.0825 36.7798 64.1006 32.8519 64.1006 28.9238Z" fill="#056839"/>
<path d="M25.8509 44.8673C23.4668 39.969 22.1344 34.6384 21.9371 29.2093C23.0243 28.9058 23.2598 29.87 23.7491 30.4234C24.934 31.988 25.9826 33.6483 26.8837 35.3869C25.8509 32.066 23.586 29.0486 22.4082 25.5314V25.2279C23.2464 21.6267 24.6202 18.1672 26.4851 14.9619C27.4635 13.4443 28.6775 12.1409 29.7285 10.7126L30.1452 10.6055C31.9571 11.391 32.5551 13.2121 33.7691 14.5333C36.0209 18.135 37.1662 22.3021 37.0668 26.5312C33.8537 32.796 31.4201 39.4202 29.8191 46.2599C29.3341 46.5202 28.7762 46.6175 28.2301 46.5369C27.684 46.4563 27.1794 46.2024 26.7931 45.8136L25.8509 44.8673Z" fill="#39B44A"/>
<path d="M47.576 3.46383L50.5475 2.80322C52.3595 4.99931 52.7037 7.731 53.6097 10.2485C55.5874 15.0524 57.2636 19.9717 58.6287 24.9783C58.6287 26.7638 58.6287 28.5492 58.6287 30.3346C58.685 30.5015 58.6855 30.6818 58.63 30.8489C58.5746 31.016 58.4661 31.1612 58.3207 31.2631C58.116 31.3169 57.8994 31.3062 57.7012 31.2326C57.5029 31.1589 57.3331 31.026 57.2154 30.8524C56.7838 30.3709 56.4734 29.7959 56.3095 29.1741C54.3345 23.5143 52.1964 17.9258 50.2757 12.2481C49.4966 9.99849 48.6088 7.80244 47.884 5.53494C47.5156 4.90904 47.4053 4.16757 47.576 3.46383Z" fill="#077B3F"/>
<path d="M58.502 37.2793C58.2517 38.309 57.6505 39.2228 56.7987 39.8682C56.3182 39.8682 55.8573 39.6801 55.5175 39.3452C55.1777 39.0104 54.9868 38.5562 54.9868 38.0827C52.4138 31.1195 49.9496 24.1027 47.431 17.1216C47.3151 16.8344 47.2647 16.5255 47.2835 16.2169C47.3023 15.9084 47.3898 15.6077 47.5397 15.3362V14.6577C47.3947 13.5864 48.2464 13.4436 48.953 13.1222C49.0679 13.1176 49.1825 13.1376 49.2888 13.1807C49.3952 13.2239 49.4908 13.2892 49.5691 13.3722C50.7292 15.2558 51.608 17.2943 52.1783 19.4248C54.3164 25.3704 56.5269 31.2802 58.502 37.2793Z" fill="#0D8241"/>
<path d="M47.5396 15.3188C49.2609 20.2823 50.9641 25.2459 52.7036 30.1915C53.7002 33.0125 54.7873 35.7799 55.7839 38.6009C55.8374 38.8791 55.9574 39.1408 56.1338 39.3643C56.3103 39.5878 56.5381 39.7667 56.7986 39.8864C56.2729 40.8083 55.5106 41.5779 54.588 42.1182C54.2417 41.9403 53.9409 41.6872 53.7086 41.3778C53.4763 41.0685 53.3185 40.7111 53.2472 40.3327C50.6017 33.7266 48.3368 26.9956 45.9994 20.2823C45.7504 19.8107 45.6115 19.2903 45.5927 18.759C45.5738 18.2277 45.6757 17.699 45.8907 17.2114C46.278 16.4592 46.8436 15.81 47.5396 15.3188Z" fill="#0F8642"/>
<path d="M58.5019 37.2793C56.69 35.7795 56.69 33.512 55.929 31.5838C53.646 25.7097 51.8884 19.6571 49.3336 13.8902C49.2941 13.6777 49.2941 13.4599 49.3336 13.2474C49.1886 12.2297 49.8771 12.0512 50.6563 11.9619C52.7038 17.5503 54.7331 23.1566 56.8168 28.7449C56.8183 29.2264 56.9705 29.6956 57.2526 30.0886C57.5347 30.4816 57.9331 30.7793 58.3932 30.941V24.7634C57.828 22.124 57.645 19.419 57.8496 16.729C57.8496 15.1043 57.7228 13.4974 57.8496 11.8726C57.9765 10.2479 57.1611 7.9804 58.5744 6.24854C58.8333 7.35425 58.9007 8.49512 58.7737 9.62297C58.7737 18.1454 58.7737 26.662 58.7737 35.1725C58.885 35.886 58.7909 36.6159 58.5019 37.2793Z" fill="#097E40"/>
<path d="M42.7199 21.2468C43.1281 20.3067 43.7476 19.4703 44.5318 18.8008C44.7981 18.9102 45.0341 19.0807 45.22 19.2981C45.406 19.5155 45.5365 19.7735 45.6009 20.0506C48.2825 27.6565 51.2359 35.1552 53.7183 42.8325C53.3559 43.6538 52.3775 43.5467 51.8158 44.0645C51.2927 43.8581 50.8352 43.5175 50.4911 43.0779C50.1469 42.6383 49.9286 42.1158 49.8589 41.5649C47.8658 36.2086 45.8183 30.7631 44.0789 25.264C43.6621 23.8714 42.4844 22.7823 42.7199 21.2468Z" fill="#148C44"/>
<path d="M38.6975 27.7628C39.1577 26.5637 39.8058 25.4432 40.6182 24.4419C41.1984 24.9868 41.6019 25.6889 41.7778 26.4594C44.079 32.5299 46.1446 38.6897 48.4639 44.7602C48.5572 44.9525 48.6056 45.163 48.6056 45.3761C48.6056 45.5893 48.5572 45.7998 48.4639 45.9921C47.9604 46.4296 47.3222 46.6875 46.6519 46.7241C45.6916 47.2062 45.2749 46.5099 45.0212 45.8671C42.8106 39.8681 40.5276 33.9047 38.6975 27.7628Z" fill="#1B9846"/>
<path d="M42.7199 21.2461C44.858 24.192 45.311 27.7985 46.6699 31.048C48.4819 35.3508 49.4422 39.9751 51.7977 44.0816C51.6418 44.3423 51.4263 44.5635 51.1684 44.7278C50.9105 44.892 50.6172 44.9948 50.3119 45.0278C49.8555 45.0293 49.4153 44.8609 49.0793 44.5564C48.7434 44.2518 48.5365 43.8336 48.5 43.3852C46.3438 37.172 44.0064 31.0301 41.8864 24.7991C41.6005 24.0633 41.6005 23.2495 41.8864 22.5137C41.9924 22.0029 42.29 21.5502 42.7199 21.2461Z" fill="#179045"/>
<path d="M58.3568 16.6937C58.3568 19.3838 58.3568 22.0798 58.3568 24.7817C56.2006 18.872 54.0263 12.9621 51.9245 7.01664C51.2399 5.69367 50.775 4.27109 50.5475 2.80304C51.0763 2.53125 51.6788 2.43126 52.2688 2.51737C53.7364 2.62449 53.6821 3.96358 54.0807 4.82059C55.494 8.7664 56.8167 12.7658 58.3568 16.6937Z" fill="#04783E"/>
<path d="M45.5103 47.1719C44.7249 47.6888 43.8087 47.9793 42.8649 48.011C41.669 48.4574 41.3247 47.5468 41.0529 46.7791C39.4585 42.726 38.1357 38.5659 36.5775 34.495C36.3349 33.6665 36.373 32.7827 36.6862 31.9775C36.802 31.2453 37.1219 30.5591 37.6103 29.9956C38.1855 30.2 38.6943 30.5532 39.0833 31.0182C39.4722 31.4831 39.727 32.0427 39.8208 32.6381C41.2341 36.5304 42.6112 40.4228 44.0245 44.3151C44.3595 45.3404 44.8613 46.3052 45.5103 47.1719Z" fill="#20A048"/>
<path d="M34.077 7.64098C34.5501 7.13824 35.1958 6.82649 35.8889 6.76611C36.1586 6.8732 36.3981 7.04268 36.5873 7.26021C36.7766 7.47775 36.9099 7.73692 36.976 8.01591C38.4437 11.5869 39.6395 15.39 40.9804 19.0502C41.1243 19.531 41.1553 20.0378 41.071 20.5321L39.4402 22.7104C38.2625 23.2639 38.0451 22.2819 37.8095 21.6034C36.4687 17.6932 34.8923 13.8723 33.6783 9.92638C33.4578 9.56104 33.3768 9.13017 33.4499 8.71124C33.523 8.29231 33.7453 7.9128 34.077 7.64098Z" fill="#199546"/>
<path d="M41.8683 22.5146C42.9555 27.3709 45.1117 31.8879 46.6156 36.6013C47.3041 38.7617 48.1195 40.8863 48.8805 43.0287C48.9508 43.4491 49.1181 43.8479 49.3694 44.1946C49.6207 44.5412 49.9494 44.8265 50.3301 45.0284C49.8356 45.5151 49.2045 45.8447 48.5181 45.9746C45.8727 40.2971 44.242 34.2625 41.9589 28.4421C41.2715 27.2009 40.823 25.845 40.6362 24.4429C40.8668 23.7042 41.292 23.0388 41.8683 22.5146Z" fill="#189446"/>
<path d="M34.0771 7.64209C33.9444 7.89024 33.8661 8.16312 33.8474 8.44303C33.8286 8.72294 33.8699 9.00362 33.9684 9.2668C35.4723 13.4268 36.9219 17.5867 38.3533 21.7645C38.382 22.0118 38.4972 22.2414 38.679 22.4141C38.8609 22.5868 39.0981 22.6917 39.3499 22.7108L37.0125 26.5137C36.0159 25.1568 36.4326 23.5142 36.1065 22.0323C35.5176 19.4122 34.5407 16.8916 33.2074 14.5515C32.8813 12.659 31.3955 10.9808 31.9028 8.96326C32.5108 8.35893 33.2561 7.90605 34.0771 7.64209Z" fill="#1C9A47"/>
<path d="M31.7759 44.9216C32.2351 42.5492 33.0025 40.2448 34.0589 38.0654C34.4375 38.2688 34.7596 38.5608 34.9966 38.9158C35.2336 39.2708 35.3782 39.6777 35.4179 40.1008C36.1064 42.1006 37.0124 44.0289 37.5741 46.0643C37.9025 47.1462 38.5299 48.1168 39.386 48.8675C37.5503 49.4871 35.6183 49.7832 33.6784 49.7424C32.4282 48.3676 32.4463 46.5107 31.7759 44.9216Z" fill="#28AE4A"/>
<path d="M53.7003 42.8506C51.7978 40.7616 51.5803 37.9585 50.6019 35.4767C48.4276 29.9776 46.525 24.3714 44.5138 18.8008C44.8008 18.1484 45.257 17.5819 45.8365 17.1582C46.5971 20.7746 47.7325 24.3045 49.2248 27.6923C50.9281 32.5308 52.5226 37.405 54.6606 42.1007L53.7003 42.8506Z" fill="#128A43"/>
<path d="M48.8806 13.2656L47.5035 14.6404C47.2741 14.5996 47.0384 14.6087 46.813 14.6673C46.5876 14.7259 46.378 14.8325 46.199 14.9796C45.8388 15.0253 45.4749 14.929 45.1865 14.7117C44.898 14.4943 44.7084 14.1735 44.6588 13.8191C43.6441 11.1231 42.5932 8.46292 41.6691 5.69555C41.6102 5.528 41.5994 5.3477 41.6377 5.17445C41.6761 5.0012 41.7622 4.8417 41.8866 4.71355C42.9821 4.22527 44.1638 3.9524 45.3655 3.91016C46.8694 6.90963 47.7572 10.1412 48.8806 13.2656Z" fill="#0F8442"/>
<path d="M45.5104 47.1704C45.1188 47.2103 44.7271 47.0955 44.4214 46.8511C44.1156 46.6068 43.9208 46.2528 43.8797 45.867C42.3939 41.6714 40.8175 37.5115 39.368 33.3694C38.9976 32.1534 38.3812 31.0237 37.556 30.0486C37.701 29.2125 38.0916 28.4366 38.6794 27.8169C39.4483 28.7456 39.9824 29.8409 40.2377 31.0127C41.9651 35.7737 43.6804 40.5347 45.3836 45.2957C45.4084 45.6515 45.5514 45.9894 45.7904 46.2572C46.0295 46.525 46.3513 46.7079 46.7063 46.7776C46.5514 46.9298 46.3628 47.0445 46.1553 47.1126C45.9477 47.1808 45.727 47.2005 45.5104 47.1704Z" fill="#1D9C47"/>
<path d="M39.3859 48.8663C38.9274 48.9082 38.4699 48.7764 38.1064 48.4979C37.743 48.2193 37.5008 47.8149 37.429 47.3667C36.3781 44.2424 35.2004 41.1538 34.0588 38.0652C34.2231 36.9531 34.6515 35.8948 35.3091 34.9766C35.747 35.1446 36.1329 35.4225 36.4284 35.7826C36.724 36.1427 36.919 36.5725 36.9942 37.0297C38.4256 40.8324 39.7121 44.6708 41.1616 48.4557C40.6426 48.8064 40.0091 48.9529 39.3859 48.8663Z" fill="#25A849"/>
<path d="M37.5741 6.01703C38.2209 5.5803 38.9684 5.31021 39.7484 5.23145C41.4154 7.01686 41.5604 9.32006 42.4482 11.3376C43.2273 13.123 43.7347 14.9084 44.4232 16.6938C43.9252 17.3849 43.3127 17.9885 42.6113 18.4792C41.7597 18.9613 41.3973 18.2828 41.1255 17.7651C39.5852 14.3514 38.2659 10.8449 37.1755 7.26684C37.1064 7.0432 37.1076 6.80419 37.1787 6.58118C37.2498 6.35818 37.3876 6.16156 37.5741 6.01703Z" fill="#158C44"/>
<path d="M44.4232 16.6753C44.1024 16.6025 43.8142 16.4291 43.6018 16.1812C43.3895 15.9334 43.2644 15.6243 43.2454 15.3005C42.0374 11.9438 40.8657 8.58712 39.7302 5.23044C40.4025 4.88665 41.1472 4.7032 41.9046 4.69482C42.9555 7.62299 44.0064 10.5511 45.0936 13.4793C45.1633 13.7931 45.3016 14.0883 45.4987 14.3442C45.6958 14.6001 45.9471 14.8107 46.2351 14.9613L44.4232 16.6753Z" fill="#128943"/>
<path d="M58.52 6.26693L58.3751 11.9446C58.0479 11.9819 57.7185 11.8959 57.4529 11.7038C57.1874 11.5117 57.0055 11.2278 56.9436 10.909C55.8565 8.28442 54.8418 5.55275 53.9177 2.96387C53.8647 2.79285 53.8471 2.61309 53.8657 2.43523C53.8844 2.25738 53.939 2.085 54.0264 1.92829L54.5881 1.67835C55.4318 1.1822 56.3582 0.837607 57.3241 0.660645C58.0604 1.76969 58.451 3.06692 58.4475 4.39219C58.52 5.01709 58.5019 5.64203 58.52 6.26693Z" fill="#06713E"/>
<path d="M41.1616 48.4563C40.7645 48.2127 40.426 47.887 40.1694 47.5016C39.9129 47.1162 39.7444 46.6804 39.6758 46.2245C38.5117 42.3657 37.0519 38.5995 35.3091 34.9585C35.5565 33.8831 36.0117 32.8647 36.6499 31.959C37.1754 35.6905 39.0416 39.0114 40.0926 42.5823C40.4731 43.8678 41.0167 45.0997 41.4696 46.3495C41.4917 46.7376 41.6416 47.108 41.8967 47.4044C42.1517 47.7009 42.498 47.9072 42.8829 47.9921C42.3923 48.3616 41.7748 48.5281 41.1616 48.4563Z" fill="#23A549"/>
<path d="M48.8805 13.2651C46.9886 10.4509 45.7854 7.24249 45.3654 3.89235C46.0471 3.58683 46.7911 3.44023 47.5397 3.4639C48.8085 6.21953 49.8624 9.06636 50.6924 11.9797L49.3697 13.2651H48.8805Z" fill="#0A7F40"/>
<path d="M54.0263 1.92773C55.0651 4.62961 56.104 7.3315 57.1429 10.0334C57.2864 10.8036 57.7283 11.4886 58.375 11.9438C58.375 13.5268 58.375 15.1098 58.375 16.6929C57.9992 16.5633 57.6736 16.322 57.4431 16.0021C57.2126 15.6823 57.0887 15.2998 57.0885 14.9075C55.6631 10.9916 54.2317 7.07559 52.7942 3.15965C52.6635 2.91786 52.4988 2.69548 52.3049 2.49907L54.0263 1.92773Z" fill="#05753F"/>
<path d="M37.574 6.01709C38.6871 9.98446 40.0858 13.8686 41.7596 17.6399C41.8226 17.845 41.9455 18.0272 42.1131 18.1638C42.2807 18.3004 42.4855 18.3852 42.7018 18.4076C42.2847 19.2214 41.7054 19.944 40.9986 20.5322L35.8164 6.76697C36.2999 6.32924 36.9192 6.06502 37.574 6.01709Z" fill="#179045"/>
<path d="M156.455 9.96197C154.752 8.98008 157.361 6.39146 154.462 5.96299C150.621 5.28459 152.233 8.49809 151.509 10.0513L151.001 9.85486V2.03538L151.672 1.60693C151.418 4.17772 151.98 5.65949 154.734 5.17747C157.089 4.78471 154.933 2.73166 156.546 1.89258V9.96197H156.455Z" fill="#197349"/>
<path d="M122.844 7.3563C121.63 9.69547 120.144 10.4812 117.879 9.89191C116.988 9.7107 116.191 9.22347 115.63 8.51711C115.069 7.81074 114.781 6.93113 114.817 6.03495C114.728 5.11916 114.989 4.20362 115.548 3.46724C116.108 2.73087 116.926 2.22658 117.843 2.05299C118.631 1.79809 119.482 1.79809 120.271 2.05299C120.853 2.25763 121.385 2.58141 121.832 3.00302C122.278 3.42463 122.629 3.93452 122.862 4.49929C123.118 5.43567 123.112 6.42314 122.844 7.3563Z" fill="#157145"/>
<path d="M81.9663 9.81982C81.9663 7.4094 81.9663 4.98113 81.9663 2.57071C81.9683 2.48145 81.9891 2.39355 82.0274 2.31265C82.0657 2.23175 82.1207 2.15959 82.1889 2.1008C82.2571 2.04201 82.337 1.99786 82.4234 1.97117C82.5099 1.94448 82.601 1.93584 82.6911 1.94578H83.1259C87.9819 1.46369 88 1.46368 87.9819 6.23096C88.1485 7.43835 87.9988 8.66767 87.5471 9.80195C86.9167 8.08791 86.7543 6.2408 87.076 4.44546C87.076 2.65997 86.17 2.74924 84.9379 2.65997C83.7058 2.57069 82.7454 2.65997 82.8542 4.44546C83.0497 6.19355 83.0009 7.9598 82.7092 9.69483H81.9663V9.81982Z" fill="#167246"/>
<path d="M140.691 9.8024C140.197 7.96362 140.056 6.05013 140.274 4.16024C140.274 2.37475 139.151 2.85683 138.245 2.87469C137.339 2.89254 136.125 2.41046 136.234 4.16024C136.343 5.91002 136.234 7.92767 136.234 10.231C135.827 9.90468 135.523 9.47144 135.356 8.98158C135.189 8.49172 135.167 7.9653 135.292 7.46341C135.292 6.69565 135.292 5.89217 135.292 5.10655C135.292 1.94623 135.292 2.08909 138.463 1.89269C140.727 1.74985 141.579 2.42831 141.253 4.66018C140.999 6.35639 141.507 8.12404 140.691 9.8024Z" fill="#197348"/>
<path d="M90.0115 9.7836C90.0115 7.40306 90.0115 5.07608 90.0115 2.80266C89.9971 2.67869 90.0129 2.5531 90.0576 2.43635C90.1023 2.3196 90.1746 2.21504 90.2684 2.13128C90.3623 2.04752 90.475 1.98697 90.5974 1.95469C90.7197 1.92242 90.8481 1.91932 90.9718 1.94565H91.4067C95.9365 1.65998 95.9728 1.66002 95.9184 6.10567C96.1211 7.37586 95.9514 8.67664 95.4292 9.85498C94.9011 8.25482 94.7584 6.55548 95.0125 4.89156C95.1393 3.10615 94.487 2.78481 92.8381 2.80266C92.5681 2.72595 92.2821 2.72258 92.0103 2.79297C91.7385 2.86335 91.4911 3.00487 91.2943 3.20248C91.0975 3.4001 90.9585 3.64648 90.8922 3.91554C90.8258 4.18461 90.8346 4.46631 90.9175 4.73088C91.1753 6.42685 91.0891 8.15639 90.6638 9.81929H90.0115V9.7836Z" fill="#187348"/>
<path d="M126.794 4.07118L128.968 8.03485L132.193 1.42871L133.353 9.76672L132.773 9.85597C131.903 8.42762 132.175 6.71363 131.65 4.74965L129.059 10.106C128.05 8.59308 127.252 6.9537 126.685 5.2317C126.614 5.14862 126.561 5.0526 126.529 4.94918C126.496 4.84577 126.484 4.73699 126.494 4.62912C126.504 4.52125 126.536 4.41643 126.587 4.32067C126.639 4.22491 126.709 4.14012 126.794 4.07118Z" fill="#137044"/>
<path d="M64.5899 5.85617C64.6319 5.14853 64.6319 4.43907 64.5899 3.73143C64.4087 2.26732 64.9704 1.57097 66.4925 1.82094C67.1448 1.92807 68.3044 1.42815 68.3044 2.28518C68.3044 3.14222 67.2173 2.82081 66.6012 2.87437C65.5865 2.87437 65.7314 3.6243 65.7133 4.23136C65.7133 5.71332 65.7133 7.21314 65.7133 8.6951C65.7133 9.15933 65.8402 9.85568 65.1154 9.81997C64.3906 9.78426 64.608 9.08789 64.5899 8.62366C64.5718 7.64164 64.5899 6.80248 64.5899 5.85617Z" fill="#3F8A67"/>
<path d="M101.898 4.26763L104.308 9.62379L104.09 10.3022C101.825 6.8386 99.6147 6.37439 97.3317 10.0166C97.9685 7.65684 98.8996 5.38401 100.104 3.25C100.237 3.3312 100.35 3.44064 100.435 3.57038C100.519 3.70011 100.573 3.84683 100.593 3.99983C100.498 4.69792 100.468 5.40312 100.503 6.10663C101.155 5.94595 100.992 5.39243 101.1 4.99964C101.209 4.60686 101.318 4.17836 101.898 4.26763Z" fill="#106E42"/>
<path d="M170.661 5.99836C170.95 4.10592 172.599 3.24898 174.031 1.4458C174.031 4.37374 174.031 6.69468 174.031 8.99775C174.031 9.35482 174.031 9.7833 173.578 9.83686C173.125 9.89042 172.944 9.39051 172.944 8.97988C172.944 7.56947 172.944 6.14122 172.944 4.69511C171.802 4.69511 171.784 6.26618 170.642 5.96267L170.661 5.99836Z" fill="#3C8864"/>
<path d="M170.624 5.96299C170.425 7.85546 168.649 8.51606 167.834 9.94434L167.327 9.78366C167.327 7.47461 167.327 5.15958 167.327 2.83863C167.276 2.6658 167.298 2.48033 167.386 2.32299C167.474 2.16565 167.622 2.04931 167.798 1.99951C168.396 1.99951 168.414 2.44583 168.414 2.87432C168.414 4.3383 168.414 5.80232 168.414 7.31987C169.465 7.10563 169.555 5.76658 170.642 5.99868L170.624 5.96299Z" fill="#378661"/>
<path d="M31.7757 44.9214C33.3883 46.1533 33.1528 48.0815 33.5876 49.7419C32.4732 50.1399 31.2675 50.2204 30.1088 49.974L31.7757 44.9214Z" fill="#2EB34E"/>
<path d="M72.7979 5.98163C70.08 5.98163 70.5874 8.17743 70.533 9.81982C69.3009 9.73056 69.6452 8.98076 69.627 8.5166C69.5488 7.17285 69.5488 5.82582 69.627 4.48206C69.627 3.64302 68.9929 2.41119 70.1706 2.05415C70.7014 1.81479 71.2991 1.76042 71.8654 1.89992C72.4318 2.03941 72.9331 2.36447 73.2872 2.82178C73.3234 2.88784 73.3451 2.9607 73.3508 3.03556C73.3566 3.11042 73.3464 3.18561 73.3207 3.25631C73.2951 3.32701 73.2547 3.39165 73.2021 3.44596C73.1495 3.50027 73.0859 3.54306 73.0154 3.57159C72.4899 3.87508 71.584 3.32164 71.3665 4.16069C71.1491 4.99973 71.9645 4.96404 72.4356 5.23182C72.5106 5.25573 72.58 5.29451 72.6393 5.34574C72.6987 5.39698 72.7468 5.45958 72.7807 5.52978C72.8146 5.59997 72.8337 5.67627 72.8366 5.75396C72.8396 5.83165 72.8264 5.90913 72.7979 5.98163Z" fill="#167246"/>
<path d="M79.3209 5.14255C77.9438 8.8208 77.7445 9.14217 76.1681 10.0171C78.4149 6.62453 74.7548 4.839 74.5011 1.625C76.3131 2.98202 76.5848 4.94611 77.7807 6.33884L78.886 4.28546C79.6833 4.24975 79.5746 4.67831 79.3209 5.14255Z" fill="#157145"/>
<path d="M110.178 6.90945C109.725 6.60594 109.345 6.35601 109.29 7.26654C109.481 8.34609 109.248 9.4565 108.638 10.373V1.60693C109.671 2.85668 109.073 3.91007 109.472 4.98129L112.806 1.96403L113.331 2.49961C112.534 3.21376 111.755 3.94576 110.939 4.62419C110.779 4.70434 110.64 4.82196 110.536 4.96685C110.432 5.11173 110.366 5.27952 110.342 5.45552C110.319 5.63152 110.34 5.81044 110.403 5.97672C110.466 6.143 110.569 6.29158 110.704 6.40955C110.677 6.53502 110.612 6.64966 110.519 6.73875C110.425 6.82783 110.307 6.88729 110.178 6.90945Z" fill="#0F6E41"/>
<path d="M147.558 5.12352C148.156 6.40927 148.754 7.69502 149.37 8.98076C149.479 9.23077 149.841 9.6415 149.262 9.82007C149.113 9.8509 148.958 9.82824 148.825 9.75615C148.692 9.68406 148.59 9.56733 148.537 9.4272C146.417 6.83786 145.529 6.87358 143.482 9.55222C143.3 9.78437 143.01 9.87366 142.503 9.55222L144.206 5.9807C144.635 5.94581 145.064 6.03915 145.438 6.24856C145.687 6.30921 145.949 6.28587 146.182 6.18223C146.415 6.0786 146.606 5.90068 146.725 5.6771C146.906 5.37352 147.051 4.98066 147.558 5.12352Z" fill="#116F43"/>
<path d="M162.543 5.69536C163.098 4.20536 164.02 2.87415 165.225 1.8208V9.78418H164.681C164.376 8.44902 164.303 7.07259 164.464 5.71324C164.446 4.48124 164.391 3.62418 162.543 5.69536Z" fill="#0D6D3F"/>
<path d="M31.9207 8.96191C32.5005 10.7475 33.7326 12.5331 33.2253 14.5508L30.127 10.5868L31.9207 8.96191Z" fill="#1F9D48"/>
<path d="M126.794 4.07101L126.667 5.19581C125.199 5.57074 126.232 6.7848 125.87 7.53466C125.507 8.28452 126.051 9.81993 124.945 9.69496C123.84 9.56998 124.945 8.26665 124.945 7.51679C125.144 5.66729 125.483 3.83509 125.96 2.03564C126.243 2.29327 126.464 2.6094 126.608 2.9613C126.753 3.3132 126.816 3.69217 126.794 4.07101Z" fill="#1C754B"/>
<path d="M160.622 8.08769C160.268 8.82147 159.708 9.44068 159.01 9.87305V1.51758C160.441 3.83855 159.01 5.9988 160.151 7.73059C160.604 7.4985 160.677 7.64135 160.622 8.08769Z" fill="#096A3C"/>
<path d="M144.913 6.83838L144.079 5.99925L145.891 1.42871L147.413 5.14231C147.275 5.24119 147.166 5.37394 147.096 5.52741C147.026 5.68088 146.998 5.84971 147.015 6.01712C146.838 6.0007 146.667 5.94437 146.515 5.85247C146.364 5.76057 146.236 5.63558 146.141 5.48715C146.047 5.33872 145.988 5.17085 145.97 4.99651C145.952 4.82217 145.974 4.64603 146.036 4.48173C145.835 5.33666 145.452 6.13981 144.913 6.83838Z" fill="#1B754A"/>
<path d="M26.7386 45.8135L29.7645 46.2599L29.2572 49.6348C28.1738 48.5343 27.3183 47.2364 26.7386 45.8135Z" fill="#34B652"/>
<path d="M110.178 6.90897L110.704 6.39111L114.201 9.15893L113.458 9.92676C111.791 9.58748 111.175 8.01609 110.178 6.90897Z" fill="#227950"/>
<path d="M100.231 4.33814L100.122 3.23132C100.137 2.93513 100.218 2.64582 100.359 2.38371C100.5 2.12159 100.697 1.89299 100.937 1.71387L101.898 4.26672C101.76 4.36148 101.65 4.49097 101.58 4.64166C101.51 4.79234 101.482 4.95876 101.499 5.12365C100.756 5.35572 100.72 4.48096 100.231 4.33814Z" fill="#21784F"/>
<path d="M79.321 5.1416C79.3378 4.97235 79.3079 4.80178 79.2346 4.64784C79.1612 4.4939 79.0471 4.36225 78.9043 4.26679C78.9813 3.74818 79.1659 3.25077 79.4464 2.80544C79.727 2.36011 80.0975 1.9764 80.535 1.67822C80.5207 2.93157 80.0948 4.14665 79.321 5.1416Z" fill="#277C54"/>
<path d="M72.7798 3.4101L73.3053 2.8208C73.5283 3.04189 73.6953 3.31171 73.7927 3.60835C73.89 3.90498 73.915 4.2201 73.8656 4.52804C73.8161 4.83598 73.6937 5.12806 73.5082 5.3806C73.3227 5.63313 73.0793 5.839 72.7979 5.98145L72.2181 5.48146C72.1278 5.11749 72.1319 4.73696 72.2301 4.37497C72.3283 4.01297 72.5173 3.68115 72.7798 3.4101Z" fill="#187348"/>
<path d="M160.622 8.08789L160.169 7.67735C160.641 6.7466 161.378 5.97134 162.289 5.44629C162.258 5.9888 162.089 6.51489 161.798 6.97639C161.506 7.43788 161.102 7.82006 160.622 8.08789Z" fill="#2C7F57"/>
<path d="M170.642 1.21489C170.266 1.30014 169.871 1.24278 169.535 1.05416C169.199 0.865533 168.948 0.559403 168.83 0.196532C169.736 -0.393035 170.298 0.678931 171.059 0.446677C171.295 0.911184 170.914 1.03623 170.642 1.21489Z" fill="#2C7F58"/>
<path d="M170.642 1.21544L171.059 0.447141C171.184 0.280963 171.354 0.152693 171.55 0.0768984C171.745 0.00110346 171.958 -0.0191665 172.164 0.0183357C172.228 0.0872144 172.273 0.170793 172.295 0.261365C172.317 0.351938 172.316 0.44654 172.291 0.536458C172.131 0.812808 171.882 1.02915 171.584 1.15191C171.286 1.27467 170.955 1.297 170.642 1.21544Z" fill="#247A51"/>
<path d="M122.844 7.35596V4.53467C123.118 4.95537 123.264 5.44503 123.264 5.94529C123.264 6.44555 123.118 6.93526 122.844 7.35596Z" fill="#1A7449"/>
<path d="M120.271 2.10693H117.843C118.202 1.8713 118.625 1.74561 119.057 1.74561C119.489 1.74561 119.911 1.8713 120.271 2.10693Z" fill="#1A7449"/>
<path d="M21.937 28.6201C20.2199 26.1516 18.3117 23.8176 16.2294 21.6389C14.182 19.4428 12.0438 17.3359 10.0326 15.0684C14.8147 17.5694 19.0168 21.023 22.3719 25.2099C22.4625 26.4061 23.7671 27.7274 21.937 28.6201Z" fill="#F4F7F5"/>
<path d="M21.9371 28.6205C22.4126 27.5615 22.5698 26.3904 22.3901 25.2461C24.7025 28.8689 26.4723 32.8015 27.6448 36.9224C25.4523 34.5478 24.3289 31.4235 21.9553 29.1918V28.6205H21.9371Z" fill="#8CC641"/>
<path d="M124.511 29.2985C124.385 28.063 124.557 26.8156 125.014 25.6582C125.47 24.5008 126.198 23.4662 127.138 22.639C127.915 22.0224 128.826 21.5917 129.8 21.3807C130.774 21.1697 131.785 21.1841 132.752 21.4228C133.72 21.6616 134.618 22.1182 135.376 22.7567C136.134 23.3952 136.732 24.1983 137.122 25.1028C138.135 27.3637 138.22 29.9235 137.357 32.2444C136.952 33.5477 136.121 34.6827 134.994 35.4735C133.867 36.2643 132.507 36.6669 131.124 36.6187C129.734 36.6331 128.379 36.1945 127.268 35.3711C126.157 34.5478 125.353 33.3858 124.982 32.0659C124.663 31.1774 124.503 30.241 124.511 29.2985Z" fill="#FEFEFE"/>
<path d="M71.6565 33.4407C71.4753 32.2802 71.6565 31.0661 74.0302 31.2446C77.4004 31.4767 78.6869 32.0659 78.6869 34.0834C78.6869 36.1009 77.4548 36.6722 73.849 36.94C71.0405 37.1721 71.7652 35.4403 71.6565 33.4407Z" fill="#FAFCFB"/>
<path d="M119.093 9.12259C118.678 9.14173 118.264 9.07958 117.874 8.93964C117.484 8.79969 117.126 8.58479 116.82 8.30742C116.515 8.03005 116.269 7.69571 116.096 7.32385C115.923 6.95198 115.827 6.54999 115.813 6.14119C115.781 5.71661 115.835 5.28998 115.97 4.8858C116.106 4.48163 116.322 4.10786 116.605 3.78602C116.887 3.46417 117.232 3.2006 117.619 3.01041C118.005 2.82021 118.426 2.70714 118.857 2.67773C119.707 2.74697 120.508 3.09948 121.127 3.67716C121.746 4.25484 122.147 5.0232 122.264 5.85554C122.235 6.68891 121.896 7.48271 121.311 8.08535C120.726 8.68799 119.936 9.05723 119.093 9.12259Z" fill="#FCFDFC"/>
<path d="M100.231 4.33828C101.245 3.67771 101.01 4.96316 101.499 5.12384C101.209 5.65944 102.93 6.90918 100.937 6.90918C99.977 6.90918 99.1254 6.9092 99.8321 5.58804C99.9984 5.18254 100.132 4.76462 100.231 4.33828Z" fill="#EAF2EE"/>
<path d="M72.7799 3.4097C72.8869 3.77255 72.8912 4.15735 72.7921 4.52241C72.6931 4.88746 72.4946 5.21888 72.2182 5.48075C71.6746 5.35578 70.823 6.01637 70.6237 5.03441C70.4769 4.70987 70.4181 4.35335 70.453 3.99972C70.488 3.6461 70.6154 3.30746 70.823 3.01691C71.1479 2.86245 71.5152 2.81722 71.8687 2.88816C72.2221 2.95911 72.5422 3.14232 72.7799 3.4097Z" fill="#FAFCFB"/>
<path d="M144.913 6.83841C144.98 5.79856 145.337 4.79722 145.946 3.94531L147.069 5.99905C146.942 7.64205 145.692 6.4991 144.913 6.83841Z" fill="#EEF4F1"/>
</svg>
