<svg width="45" height="75" viewBox="0 0 45 75" fill="none" xmlns="http://www.w3.org/2000/svg">
<path d="M13.7283 13.8974C13.7283 13.8974 13.7552 14.037 13.8358 14.5114C13.9164 14.9858 14.0239 14.5951 14.9373 14.9021C15.8507 15.209 16.6298 15.237 17.8119 15.516C19.0209 15.7672 19.5044 15.6555 20.4716 15.6835C21.4388 15.7114 21.8955 15.7672 23.9641 15.7393C26.0328 15.7114 27.403 15.9346 28.6925 15.9346C29.9821 15.9346 31.3791 15.3486 31.3791 15.2649C31.3791 15.1811 31.2447 14.93 31.2447 14.7904C31.2447 14.6509 30.8686 13.7858 30.7612 13.6184C30.6537 13.4509 30.2507 12.6696 30.1433 12.5021C30.0358 12.3347 28.3701 9.73937 28.2358 9.59984C28.0746 9.46031 27.1612 8.81846 26.5164 8.73474C25.8716 8.65102 25.2268 8.62311 24.5821 8.59521C23.9373 8.5673 24.1522 8.76265 23.7224 8.93009C23.2925 9.12543 22.8627 9.34868 22.4597 9.4324C22.0836 9.51612 21.385 9.34868 20.8477 9.15334C20.3104 8.95799 19.6388 8.70684 19.397 8.62312C19.1283 8.5394 18.0537 8.62312 18.0537 8.62312L15.8507 10.3812L13.7821 13.4509L13.7283 13.8974Z" fill="#E83F31"/>
<path d="M22.6746 74.9566C22.5672 74.9566 22.4597 74.9566 22.3522 74.9566C22.3254 74.9566 22.3254 74.9286 22.2985 74.9286C21.7343 74.8449 21.2776 74.5659 20.8478 74.1752C20.6866 74.0356 20.5254 73.8961 20.3642 73.8124C19.6925 73.5054 18.994 73.1984 18.3224 72.9194C15.5821 71.8031 12.8418 70.6311 10.209 69.2636C8.2209 68.2311 6.28657 67.1149 4.51343 65.7195C3.35821 64.7986 2.28358 63.794 1.47761 62.5382C0.913433 61.701 0.510448 60.7801 0.456717 59.7755C0.349254 58.2406 0.295523 56.6779 0.241791 55.1151C0.18806 53.3012 0.134328 51.4594 0.134328 49.6455C0.107463 44.6502 0.0537315 39.655 0.0537315 34.6597C2.04168e-07 29.5808 0 24.4739 0 19.3949C0 18.6694 0 17.9438 0.268657 17.2461C0.886567 15.7113 1.93433 14.6508 3.5194 14.1764C4.86269 13.7578 6.23284 13.6462 7.60299 13.6462C9.32239 13.6462 11.0149 13.702 12.7343 13.7299C12.8687 13.7299 13.0299 13.7578 13.1642 13.7578C13.191 13.8695 13.191 13.9811 13.2448 14.0648C13.2985 14.2323 13.4328 14.2602 13.5403 14.1206C13.6209 14.0369 13.6746 13.9253 13.7552 13.8416C13.7821 13.7857 13.8627 13.7578 13.9164 13.7578C15.1254 13.8137 16.3343 13.8974 17.5433 13.9253C19.4776 13.9811 21.4119 14.009 23.3463 13.9811C25.603 13.9532 27.8597 13.8974 30.1164 13.8416C30.3045 13.8416 30.3851 13.8974 30.4388 14.0648C30.6269 14.5113 30.8149 14.9299 31.0299 15.3485C31.0567 15.4322 31.1642 15.4601 31.2448 15.5159C31.2985 15.4322 31.406 15.3485 31.406 15.2648C31.4328 15.0415 31.406 14.7904 31.3791 14.5671C31.3522 14.316 31.2716 14.0927 31.2179 13.8137C31.3522 13.8137 31.4328 13.8137 31.5403 13.8137C33.3134 13.7857 35.1134 13.7857 36.8866 13.9253C37.6388 13.9811 38.391 14.0648 39.1164 14.2602C40.191 14.5113 41.2119 15.0136 42.1791 15.5718C43.3075 16.2136 44.006 17.1624 44.3552 18.4461C44.597 19.3391 44.6776 20.2321 44.7045 21.1251C44.7313 25.339 44.7582 29.5529 44.7851 33.7388C44.8119 37.1155 44.8388 40.4643 44.8657 43.8409C44.8925 48.6687 44.9194 53.4965 44.9731 58.3522C44.9731 58.6313 45 58.9104 45 59.1894C45 59.6359 45 60.1104 45 60.5569C44.9731 60.6406 44.9731 60.7243 44.9463 60.808C44.7851 61.5057 44.3821 62.0638 43.9254 62.594C42.9582 63.6824 41.8299 64.5196 40.6209 65.3009C38.3373 66.8079 35.9463 68.0637 33.5015 69.2636C31.1642 70.4078 28.7731 71.5241 26.4358 72.6961C25.4687 73.1705 24.4746 73.5891 23.7493 74.4542C23.4806 74.7612 23.0776 74.8728 22.6746 74.9566ZM30.7612 33.2365C30.7612 33.2365 30.7881 33.2365 30.7612 33.2365C30.7612 34.1574 30.7612 35.0504 30.7612 35.9713C30.7612 37.7294 30.7612 39.5154 30.7881 41.2735C30.8149 42.4456 30.8149 43.6177 30.8955 44.7897C30.9493 45.6827 31.2716 46.492 31.7821 47.2176C32.3194 47.9711 33.0448 48.3897 34.0119 48.3618C34.791 48.3339 35.597 48.3618 36.3761 48.3618C36.7791 48.3618 37.1821 48.278 37.5851 48.1385C38.6866 47.7478 39.6 47.0502 40.3254 46.1292C41.1851 45.0967 41.7224 43.9246 41.7224 42.5293C41.7224 35.8318 41.7224 29.1064 41.7224 22.4088C41.7224 21.9344 41.6418 21.4879 41.5075 21.0414C40.9701 19.4507 39.4388 18.2508 37.8 18.2229C37.2358 18.195 36.6448 18.2229 36.0806 18.2508C35.2209 18.2787 34.3881 18.4182 33.5821 18.6973C31.8896 19.2833 30.9224 20.567 30.8687 22.4088C30.8418 23.0228 30.8149 23.6367 30.8149 24.2506C30.7612 27.2924 30.7612 30.2505 30.7612 33.2365ZM19.4239 45.1804C19.4239 45.0688 19.4239 45.013 19.4239 44.9293C19.4239 36.4457 19.4239 27.9901 19.4239 19.5066C19.4239 19.3949 19.4239 19.2554 19.4239 19.1438C19.397 18.5019 19.0746 18.195 18.4567 18.195C18.2418 18.195 18.0269 18.2229 17.8119 18.2229C17.409 18.2508 17.2478 18.3624 17.1672 18.781C17.1134 19.1996 17.0597 19.6461 17.0597 20.0647C17.0597 28.6319 17.0597 37.1992 17.0597 45.7944C17.0597 46.1013 17.0866 46.3804 17.1134 46.6874C17.194 47.3292 17.5164 47.7478 18.0269 47.8315C18.6716 47.9153 19.3433 47.9153 19.9075 47.4967C21.009 46.6874 22.1373 45.906 23.2388 45.1246C23.8836 44.6781 24.5552 44.2316 25.2 43.813C25.3343 43.7293 25.4955 43.7014 25.6299 43.6456C25.7373 43.6177 25.8179 43.6456 25.8179 43.7851C25.8448 44.0084 25.8716 44.2595 25.8716 44.4828C25.8716 45.0409 25.8179 45.599 25.8179 46.1572C25.8179 46.5757 25.9254 46.9943 26.1134 47.3571C26.2746 47.692 26.5164 47.9432 26.9194 47.8874C26.9731 47.8874 27.0537 47.8874 27.1075 47.8874C27.7254 47.8594 28.0478 47.5246 28.0478 46.8827C28.0478 37.7852 28.0478 28.7157 28.0478 19.6182C28.0478 19.4228 27.994 19.2554 27.8597 19.1159C27.5104 18.7531 27.0806 18.5019 26.597 18.3345C26.1403 18.195 25.8716 18.3624 25.791 18.8368C25.7104 19.2554 25.6836 19.7019 25.6836 20.1484C25.6836 26.8738 25.6836 33.6272 25.6836 40.3526C25.6836 40.5201 25.6299 40.6596 25.4955 40.7712C25.2269 40.9945 24.9582 41.2177 24.6627 41.4131C23.4269 42.2503 22.191 43.0595 20.9821 43.8967C20.4448 44.2316 19.8806 44.6223 19.4239 45.1804ZM3.54627 33.4877C3.5194 33.4877 3.5194 33.4877 3.49254 33.4877C3.46567 36.6411 3.43881 39.7945 3.43881 42.9479C3.43881 44.1758 3.43881 45.3758 3.43881 46.6037C3.43881 47.4408 3.81493 47.9153 4.59403 48.0548C4.83582 48.1106 5.07761 48.1106 5.3194 48.1106C7.87164 48.1106 10.397 48.1106 12.9493 48.1106C13.406 48.1106 13.7015 47.9432 13.8627 47.5246C14.0239 47.1339 14.1582 46.7153 14.2388 46.2967C14.4537 45.1804 14.4537 44.0363 14.4269 42.92C14.4269 42.613 14.3463 42.2782 14.2388 41.9712C14.0507 41.3852 13.6478 41.0782 13.0567 41.0503C12.8149 41.0224 12.6 41.0224 12.3582 41.0224C10.6925 41.0224 9.02687 41.0224 7.38806 41.0224C6.66269 41.0224 6.28657 40.6875 6.15224 39.9619C6.09851 39.6271 6.07164 39.3201 6.07164 38.9852C6.07164 37.4783 6.07164 35.9713 6.07164 34.4644C6.07164 30.3621 6.07164 26.2878 6.07164 22.1856C6.07164 21.8507 6.07164 21.5158 6.12537 21.1809C6.15224 20.8461 6.28657 20.7344 6.60896 20.7065C7.52239 20.6507 8.43582 20.5949 9.34925 20.567C10.7194 20.5112 12.0896 20.4554 13.4597 20.3996C13.594 20.3996 13.7015 20.3717 13.8358 20.3438C14.0507 20.2879 14.2388 20.1484 14.2657 19.9252C14.2925 19.6461 14.3463 19.3391 14.3194 19.0601C14.2925 18.6694 14.0776 18.3903 13.7015 18.2787C13.406 18.195 13.0836 18.1391 12.7881 18.1391C11.7403 18.1391 10.6657 18.1671 9.61791 18.2229C7.97911 18.2787 6.3403 18.3624 4.72836 18.3903C4.21791 18.3903 3.89552 18.5298 3.73433 19.1717C3.62687 19.5903 3.57313 20.0089 3.54627 20.4275C3.5194 21.1251 3.57314 21.7949 3.57314 22.4925C3.54627 26.1483 3.54627 29.804 3.54627 33.4877ZM22.3254 70.2125C22.5134 70.045 22.7015 69.8776 22.8896 69.7381C23.2657 69.5148 23.6687 69.2636 24.0985 69.0962C25.603 68.4544 27.1075 67.8125 28.6119 67.1707C29.606 66.7521 30.6 66.2777 31.5134 65.6916C31.997 65.3847 32.4537 65.0219 32.7761 64.5196C32.9373 64.2684 33.0179 63.9893 32.9642 63.6824C32.9373 63.5707 32.9104 63.5149 32.7761 63.5428C32.1582 63.6545 31.5403 63.7382 30.8955 63.8219C29.7403 63.9614 28.5851 64.1289 27.4299 64.2405C26.194 64.3521 24.9582 64.4358 23.7224 64.4917C21.8955 64.5475 20.0687 64.4917 18.2418 64.3242C17.1403 64.2126 16.0388 64.101 14.9373 63.9614C13.9433 63.8498 12.9493 63.6824 11.9552 63.5428C11.794 63.5149 11.7403 63.5707 11.7403 63.7103C11.6866 64.1289 11.8746 64.4637 12.1164 64.7707C12.4388 65.1893 12.8687 65.4684 13.2985 65.7474C14.4269 66.473 15.609 66.9753 16.8448 67.5055C18.1881 68.0637 19.5313 68.6218 20.8746 69.2078C21.3851 69.4869 21.9224 69.766 22.3254 70.2125ZM19.1821 55.5895C19.1821 54.6686 19.1821 53.7477 19.1821 52.8268C19.1821 52.5477 19.1552 52.2407 19.1015 51.9617C19.0478 51.6268 18.9134 51.5431 18.5642 51.5989C18.3493 51.6268 18.2687 51.7942 18.2418 51.9896C18.1881 52.2966 18.1612 52.6035 18.1612 52.8826C18.1612 54.6965 18.1612 56.5104 18.1612 58.3243C18.1612 58.5476 18.1343 58.7429 18.0806 58.9662C18.0269 59.1894 17.8925 59.3569 17.6507 59.3848C17.4896 59.4127 17.3015 59.4127 17.1403 59.4127C16.8985 59.4127 16.7373 59.2732 16.6836 59.022C16.6567 58.9104 16.6299 58.8267 16.6299 58.715C16.5761 56.6221 16.5224 54.557 16.4687 52.464C16.4687 52.3524 16.4687 52.2407 16.4418 52.1291C16.3881 51.5989 16.3075 51.5152 15.797 51.571C15.5552 51.5989 15.4746 51.6547 15.4209 51.878C15.3672 52.157 15.3403 52.4361 15.3134 52.7152C15.2597 54.836 15.3403 56.9569 15.4478 59.0778C15.4746 59.8034 15.9045 60.3057 16.5493 60.3894C16.8448 60.4173 17.1403 60.4452 17.4358 60.4452C18.1612 60.4731 18.8866 60.5289 19.6119 60.5289C20.1224 60.5289 20.6597 60.4731 21.1702 60.4452C21.4925 60.4452 21.4925 60.4452 21.5463 60.7801C21.5731 61.0033 21.6269 61.2545 21.7075 61.4778C21.7881 61.701 21.9493 61.7568 22.1642 61.6452C22.3254 61.5615 22.4328 61.394 22.4597 61.2266C22.4866 60.8638 22.5134 60.501 22.5403 60.1383C22.5403 59.9429 22.4866 59.7755 22.2985 59.6918C22.003 59.5243 21.8149 59.2453 21.7612 58.9104C21.7075 58.6034 21.6806 58.2964 21.6806 58.0174C21.7075 56.3151 21.7612 54.6128 21.8149 52.9105C21.8149 52.5756 21.8149 52.2407 21.7612 51.878C21.7343 51.6268 21.6269 51.571 21.3582 51.5431C21.1433 51.5152 21.0358 51.5989 20.9552 51.8221C20.9015 52.0175 20.8478 52.2407 20.8478 52.4361C20.8209 53.05 20.8209 53.664 20.8209 54.2779C20.794 55.7011 20.7403 57.1523 20.6866 58.5755C20.6866 58.6871 20.6597 58.7988 20.6597 58.9104C20.6328 59.1057 20.5522 59.2453 20.3642 59.3011C19.6925 59.5522 19.1284 59.1615 19.1284 58.436C19.1821 57.5151 19.1821 56.5662 19.1821 55.5895ZM29.8478 56.7058C29.8209 57.6825 29.794 58.6871 29.794 59.6638C29.794 59.8313 29.794 60.0266 29.8209 60.1941C29.8478 60.4452 29.9821 60.5569 30.197 60.5848C30.4657 60.6127 30.5731 60.5289 30.6537 60.2778C30.7075 60.0824 30.7612 59.8592 30.7612 59.6359C30.7881 58.9383 30.7612 58.2406 30.7881 57.5151C30.8149 56.1756 30.8687 54.836 30.9224 53.4965C30.9224 53.357 30.9493 53.2175 30.9761 53.1058C31.003 52.9384 31.1104 52.8268 31.2716 52.771C31.9701 52.5477 32.4537 52.9105 32.4806 53.664C32.4806 53.7198 32.4806 53.7756 32.4806 53.8035C32.4806 55.757 32.4806 57.7104 32.5075 59.6638C32.5075 59.8592 32.5343 60.0545 32.5881 60.2499C32.6149 60.3336 32.6687 60.4452 32.7493 60.4731C33.0179 60.6127 33.3134 60.4731 33.3672 60.1941C33.4209 59.8871 33.4746 59.5801 33.4746 59.2453C33.4746 57.4592 33.4746 55.7011 33.4746 53.9151C33.4746 53.7477 33.4746 53.5803 33.5015 53.4128C33.5284 52.9105 33.7433 52.7152 34.1731 52.6872C34.8179 52.6314 35.006 52.7989 35.0328 53.4965C35.0597 54.8918 35.1134 56.2593 35.1403 57.6546C35.1672 58.4081 35.1672 59.1615 35.194 59.915C35.2209 60.4452 35.3284 60.5289 35.8119 60.5289C35.8388 60.5289 35.8657 60.5289 35.8925 60.5289C36.0269 60.5289 36.1343 60.4452 36.1881 60.3336C36.2149 60.222 36.2687 60.1383 36.2687 60.0266C36.2955 59.4685 36.3493 58.9104 36.3224 58.3243C36.2955 56.5941 36.2149 54.8639 36.1881 53.1338C36.1881 53.05 36.1612 52.9384 36.1612 52.8547C36.0806 52.2128 35.6776 51.7942 35.0597 51.7105C34.5224 51.6547 34.0119 51.5989 33.4746 51.5989C32.6955 51.571 31.9433 51.5431 31.1642 51.571C30.5463 51.5989 30.2239 51.878 30.0627 52.464C30.009 52.6593 29.9821 52.8268 29.9821 53.0221C29.9284 54.2779 29.9015 55.4779 29.8478 56.7058ZM27.6448 59.8871C27.7254 60.1662 27.7791 60.4452 27.8597 60.7243C27.9672 61.0313 28.0746 61.0871 28.3702 61.0592C28.5313 61.0313 28.6119 60.9196 28.6657 60.6406C28.6657 60.5569 28.6657 60.4731 28.6657 60.3615C28.6388 59.3011 28.6388 58.2685 28.6119 57.2081C28.5851 55.729 28.5582 54.25 28.5313 52.771C28.5313 52.3803 28.4507 52.0175 28.209 51.7384C28.0209 51.5152 27.806 51.5431 27.6985 51.7943C27.6448 51.9617 27.591 52.1291 27.5642 52.2966C27.5642 52.9663 27.5642 53.6361 27.5642 54.2779C27.591 55.4779 27.6448 56.6779 27.6716 57.8778C27.6716 58.3802 27.4567 58.7987 27.0537 59.0778C26.7582 59.2732 26.4627 59.4406 26.1672 59.6359C25.8179 59.8313 25.6299 59.7476 25.603 59.329C25.603 59.3011 25.603 59.2732 25.603 59.2453C25.5761 58.6034 25.5493 57.9616 25.5493 57.3197C25.5224 56.0639 25.4955 54.7802 25.4418 53.5244C25.4149 53.0779 25.3612 52.6035 25.3075 52.157C25.2806 51.9896 25.2 51.8222 25.0657 51.7105C24.8776 51.4873 24.609 51.571 24.5552 51.8501C24.5284 51.9896 24.5015 52.1291 24.5015 52.2687C24.4746 53.05 24.4478 53.8593 24.4478 54.6407C24.4746 55.5058 24.5284 56.3709 24.5552 57.236C24.5821 57.8778 24.5552 58.5476 24.5552 59.1894C24.5552 59.5801 24.609 59.9708 24.6627 60.3336C24.7433 60.7801 25.0388 60.9754 25.4687 60.8638C25.8716 60.7522 26.2478 60.6127 26.6239 60.4452C26.9731 60.2778 27.2955 60.0545 27.6448 59.8871ZM13.3522 55.9802C13.3791 55.9802 13.3791 55.9802 13.406 55.9802C13.406 55.4221 13.406 54.8639 13.406 54.2779C13.3791 53.7198 13.2985 53.1617 13.0567 52.6314C12.8149 52.1012 12.4119 51.7105 11.8209 51.6547C11.0418 51.571 10.2627 51.571 9.48358 51.7105C8.97314 51.7942 8.75821 52.0454 8.89254 52.7431C8.94627 53.0779 9.21493 53.2175 9.51045 53.1338C9.56418 53.1058 9.64478 53.0221 9.64478 52.9663C9.64478 52.6872 9.69851 52.6035 9.96716 52.6035C10.397 52.6035 10.8269 52.6035 11.2299 52.6593C11.8478 52.7431 12.1701 53.1058 12.2507 53.7198C12.2776 54.0826 12.2776 54.4454 12.2776 54.8081C12.2776 55.1709 12.2239 55.5337 12.2239 55.8965C12.2239 56.0918 12.1433 56.2314 11.9552 56.2593C11.7134 56.3151 11.4716 56.3151 11.2299 56.343C10.8 56.3709 10.3433 56.3709 9.91343 56.4546C9.42985 56.5383 9.10746 56.8732 9.02687 57.3755C9 57.6267 8.97313 57.9057 9 58.1569C9.02687 58.7708 9.16119 59.3569 9.51045 59.8592C9.80597 60.2778 10.1821 60.4452 10.6925 60.4173C11.1761 60.3894 11.6866 60.3336 12.1702 60.3057C12.2507 60.3057 12.3582 60.3336 12.4388 60.3894C12.8418 60.5848 13.2448 60.6127 13.6478 60.4173C13.8896 60.3057 13.997 59.9429 13.8358 59.7755C13.5672 59.4964 13.5134 59.1615 13.4866 58.8267C13.4597 57.8778 13.406 56.929 13.3522 55.9802ZM41.8836 56.5662C41.8567 55.45 41.8299 54.3337 41.8299 53.2175C41.8299 52.7152 41.6149 52.3245 41.1851 52.1012C40.3791 51.6268 39.4925 51.5152 38.606 51.7384C37.8806 51.9338 37.6388 52.6035 37.9612 53.2454C38.0955 53.4965 38.3104 53.5523 38.5254 53.3849C38.6597 53.3012 38.6866 53.1617 38.6597 52.9942C38.6328 52.5756 38.7672 52.4082 39.1433 52.3245C39.5731 52.2407 40.003 52.2687 40.406 52.464C40.7284 52.6035 40.8896 52.8547 40.8896 53.2175C40.8896 53.9151 40.8896 54.6128 40.8896 55.3104C40.8896 55.7011 40.6746 55.9523 40.2985 56.0081C40.0836 56.036 39.8418 56.0918 39.6269 56.0639C39.0627 56.036 38.6597 56.3151 38.3642 56.7895C37.9612 57.4313 37.8537 58.1569 37.9343 58.9104C37.9612 59.2732 38.0149 59.608 38.2836 59.8592C38.6866 60.2499 39.197 60.4452 39.7612 60.3615C40.0299 60.3336 40.3254 60.2778 40.594 60.2499C40.7552 60.222 40.9164 60.222 41.0239 60.4173C41.1851 60.7243 41.5343 60.7522 41.7224 60.4452C41.803 60.3057 41.8836 60.0824 41.8567 59.915C41.9642 58.8267 41.9104 57.6825 41.8836 56.5662ZM7.06567 54.6686C7.2806 54.5849 7.36119 54.5012 7.38806 54.2221C7.41493 53.9151 7.41493 53.5803 7.41493 53.2733C7.41493 52.9663 7.30746 52.7152 7.09254 52.4919C6.82388 52.2128 6.50149 52.0454 6.12537 51.9617C5.26567 51.7384 4.40597 51.7663 3.54627 51.8221C3.08955 51.8501 2.71343 52.0733 2.52537 52.5756C2.36418 53.0221 2.47164 53.4128 2.76717 53.7756C2.95522 53.9709 3.11642 53.9989 3.30448 53.8593C3.49254 53.7477 3.5194 53.5803 3.41194 53.3291C3.33134 53.1617 3.38507 53.05 3.5194 52.9384C3.62687 52.8826 3.73433 52.7989 3.84179 52.7989C4.40597 52.7989 4.99701 52.771 5.56119 52.7989C5.91045 52.8268 6.23284 53.0221 6.3403 53.4128C6.39403 53.5803 6.36717 53.7477 6.39403 53.9151C6.4209 54.0826 6.31343 54.1663 6.15224 54.1663C5.96418 54.1663 5.74925 54.1663 5.56119 54.1942C5.29254 54.2221 5.15821 54.3337 5.13134 54.5291C5.07761 54.8081 5.13134 55.0593 5.37313 55.1709C5.50746 55.2546 5.66866 55.3384 5.82985 55.3384C6.09851 55.3384 6.20597 55.4779 6.2597 55.7011C6.28657 55.7849 6.31343 55.8965 6.3403 55.9802C6.4209 56.7337 6.47463 57.4871 6.52836 58.2406C6.55522 58.4639 6.55522 58.6592 6.55522 58.8825C6.52836 59.2173 6.31343 59.3569 6.01791 59.2173C5.88358 59.1615 5.77612 59.0499 5.66866 58.9662C5.34627 58.6313 5.02388 58.2685 4.70149 57.9337C4.59403 57.822 4.48657 57.7104 4.37911 57.6267C4.24478 57.5151 4.13731 57.543 4.02985 57.6825C3.81493 57.9336 3.78806 58.1848 4.00299 58.5197C4.56716 59.4127 5.3194 60.0824 6.31343 60.4731C6.79702 60.6685 7.09254 60.5289 7.2806 60.0545C7.36119 59.8871 7.41493 59.7197 7.41493 59.5522C7.41493 58.2406 7.41493 56.9569 7.38806 55.6453C7.38806 55.3105 7.38806 54.9198 7.06567 54.6686Z" fill="#52AE32"/>
<path d="M30.7612 33.2365C30.7612 30.2785 30.7612 27.2925 30.7612 24.3344C30.7612 23.7205 30.7881 23.1065 30.8149 22.4926C30.8955 20.6508 31.8358 19.3671 33.5284 18.7811C34.3343 18.502 35.194 18.3625 36.0269 18.3345C36.5911 18.3066 37.1821 18.2787 37.7463 18.3066C39.3851 18.3345 40.9433 19.5345 41.4538 21.1252C41.5881 21.5717 41.6687 22.0182 41.6687 22.4926C41.6687 29.1901 41.6687 35.9155 41.6687 42.6131C41.6687 44.0084 41.1314 45.1804 40.2717 46.213C39.5194 47.106 38.6328 47.8036 37.5314 48.2222C37.1552 48.3618 36.7522 48.4455 36.3224 48.4455C35.5433 48.4455 34.7373 48.4176 33.9582 48.4455C33.0179 48.4734 32.2925 48.0548 31.7284 47.3013C31.2179 46.5758 30.8955 45.7665 30.8418 44.8735C30.7612 43.7014 30.7612 42.5293 30.7343 41.3573C30.7075 39.5992 30.7075 37.8132 30.7075 36.0551C30.7881 35.0504 30.7881 34.1295 30.7612 33.2365C30.7881 33.2365 30.7612 33.2365 30.7612 33.2365ZM39.197 32.9017C39.197 29.5808 39.197 26.232 39.197 22.9112C39.197 22.7717 39.197 22.6321 39.1702 22.4647C39.1433 21.9624 38.9015 21.5996 38.4985 21.3484C38.0687 21.0973 37.612 21.0136 37.1552 20.9856C36.5105 20.9298 35.8657 20.9298 35.194 20.9298C34.8448 20.9298 34.4955 20.9856 34.1731 21.0694C33.6627 21.181 33.3403 21.5438 33.2597 22.1019C33.206 22.4368 33.1791 22.7717 33.1791 23.1065C33.1791 29.8878 33.1791 36.6411 33.1791 43.4223C33.1791 43.6456 33.1791 43.8688 33.2328 44.0921C33.3672 45.0688 33.9851 45.7665 35.006 45.8502C35.8925 45.9339 36.7254 45.8223 37.5314 45.4595C38.1493 45.2083 38.6328 44.7897 38.9284 44.1479C39.1164 43.7293 39.1702 43.2549 39.1702 42.8084C39.197 39.5434 39.197 36.2225 39.197 32.9017Z" fill="white"/>
<path d="M19.424 45.1805C19.8807 44.6224 20.4449 44.2317 21.009 43.8689C22.2449 43.0317 23.4807 42.2224 24.6896 41.3852C24.9852 41.1899 25.2538 40.9387 25.5225 40.7434C25.6568 40.6317 25.7105 40.4922 25.7105 40.3248C25.7105 33.5993 25.7105 26.8459 25.7105 20.1205C25.7105 19.674 25.7374 19.2554 25.818 18.8089C25.8986 18.3345 26.1672 18.167 26.624 18.3066C27.1075 18.4461 27.5374 18.6973 27.8866 19.088C28.021 19.2275 28.0747 19.3949 28.0747 19.5903C28.0747 28.6878 28.0747 37.7574 28.0747 46.8549C28.0747 47.4967 27.7523 47.8316 27.1344 47.8595C27.0807 47.8595 27.0001 47.8595 26.9463 47.8595C26.5434 47.9153 26.3016 47.6921 26.1404 47.3293C25.9523 46.9386 25.8717 46.5479 25.8449 46.1293C25.8449 45.5712 25.8717 45.0131 25.8986 44.4549C25.8986 44.2317 25.8717 43.9805 25.8449 43.7573C25.8449 43.6177 25.7643 43.5898 25.6568 43.6177C25.5225 43.6735 25.3613 43.7014 25.2269 43.7852C24.5553 44.2038 23.9105 44.6503 23.2658 45.0968C22.1374 45.8782 21.0359 46.6874 19.9344 47.4688C19.3434 47.8874 18.6986 47.8874 18.0538 47.8037C17.5434 47.7479 17.1941 47.3014 17.1404 46.6595C17.1135 46.3526 17.0867 46.0735 17.0867 45.7665C17.0867 37.1992 17.0867 28.632 17.0867 20.0368C17.0867 19.6182 17.1135 19.1717 17.1941 18.7531C17.2479 18.3624 17.4359 18.2229 17.8389 18.1949C18.0538 18.1949 18.2688 18.167 18.4837 18.167C19.1016 18.167 19.424 18.474 19.4508 19.1159C19.4508 19.2275 19.4508 19.367 19.4508 19.4786C19.4508 27.9622 19.4508 36.4179 19.4508 44.9014C19.424 45.0131 19.424 45.0689 19.424 45.1805Z" fill="white"/>
<path d="M3.54632 33.4877C3.54632 29.832 3.54632 26.1483 3.54632 22.4926C3.54632 21.7949 3.49258 21.1251 3.51945 20.4275C3.51945 20.0089 3.60005 19.5903 3.70751 19.1717C3.86871 18.5298 4.19109 18.3903 4.70154 18.3903C6.34034 18.3345 7.97915 18.2787 9.59109 18.2229C10.6388 18.195 11.7135 18.1671 12.7612 18.1391C13.0568 18.1391 13.3791 18.195 13.6747 18.2787C14.0508 18.3903 14.2657 18.6694 14.2926 19.0601C14.3194 19.3391 14.2657 19.6461 14.2388 19.9252C14.212 20.1763 14.0508 20.2879 13.809 20.3438C13.7015 20.3717 13.5672 20.3717 13.4329 20.3996C12.0627 20.4554 10.6926 20.4833 9.32243 20.567C8.409 20.5949 7.49557 20.6507 6.58214 20.7065C6.25975 20.7344 6.12542 20.8461 6.09855 21.181C6.07169 21.5158 6.04482 21.8507 6.04482 22.1856C6.04482 26.2878 6.04482 30.3622 6.04482 34.4645C6.04482 35.9714 6.04482 37.4784 6.04482 38.9853C6.04482 39.3202 6.07169 39.6551 6.12542 39.962C6.25975 40.6876 6.63587 41.0225 7.36124 41.0225C9.02691 41.0225 10.6926 41.0225 12.3314 41.0225C12.5732 41.0225 12.815 41.0225 13.0299 41.0504C13.6209 41.1062 14.0239 41.4132 14.212 41.9713C14.3194 42.2783 14.3732 42.5852 14.4 42.9201C14.4538 44.0643 14.4269 45.1805 14.212 46.2968C14.1314 46.7154 13.9971 47.134 13.8359 47.5247C13.6747 47.9154 13.3791 48.1107 12.9224 48.1107C10.3702 48.1107 7.84482 48.1107 5.29258 48.1107C5.05079 48.1107 4.809 48.1107 4.56721 48.0549C3.78811 47.8875 3.41199 47.441 3.41199 46.6038C3.41199 45.3759 3.41199 44.1759 3.41199 42.948C3.43885 39.7946 3.43885 36.6412 3.46572 33.4877C3.51945 33.4877 3.51945 33.4877 3.54632 33.4877ZM8.83885 45.7945C9.61795 45.7945 10.3971 45.7945 11.1493 45.7945C11.6329 45.7945 11.9284 45.5433 12.009 45.0689C12.0627 44.762 12.0627 44.4271 12.0359 44.1201C12.0359 43.8131 11.8478 43.6178 11.5254 43.5899C11.3642 43.562 11.1762 43.562 11.015 43.562C9.59109 43.562 8.16721 43.562 6.71646 43.562C6.63587 43.562 6.55527 43.562 6.44781 43.562C6.17915 43.5899 6.04482 43.7294 6.04482 43.9806C6.04482 44.4829 6.04482 44.9852 6.04482 45.4875C6.04482 45.6829 6.12542 45.7666 6.31348 45.7666C6.39408 45.7666 6.47467 45.7666 6.58214 45.7666C7.33437 45.7945 8.08661 45.7945 8.83885 45.7945Z" fill="white"/>
<path d="M22.3254 70.2126C21.9224 69.7661 21.3851 69.4871 20.8209 69.2359C19.4776 68.6499 18.1344 68.0917 16.7911 67.5336C15.5821 67.0313 14.3732 66.5011 13.2448 65.7755C12.815 65.4964 12.412 65.1895 12.0627 64.7988C11.8209 64.4918 11.6329 64.1569 11.6866 63.7383C11.7135 63.5709 11.7672 63.543 11.9015 63.5709C12.8956 63.7104 13.8896 63.8499 14.8836 63.9895C15.9851 64.129 17.0866 64.2406 18.1881 64.3523C20.015 64.5476 21.8418 64.5755 23.6687 64.5197C24.9045 64.4639 26.1403 64.3802 27.3762 64.2685C28.5314 64.1569 29.6866 63.9895 30.8418 63.8499C31.4597 63.7662 32.0776 63.6546 32.7224 63.5709C32.8299 63.543 32.8836 63.5988 32.9105 63.7104C32.9642 64.0174 32.8836 64.2964 32.7224 64.5476C32.4 65.0499 31.9433 65.4127 31.4597 65.7197C30.5463 66.3336 29.5523 66.7801 28.5582 67.1987C27.0538 67.8406 25.5493 68.4545 24.0448 69.1243C23.6418 69.2917 23.2388 69.5429 22.8359 69.7661C22.7015 69.8778 22.5403 70.0452 22.3254 70.2126Z" fill="white"/>
<path d="M19.1821 55.5896C19.1821 56.5663 19.1821 57.5152 19.1821 58.4919C19.1821 59.2175 19.7194 59.6081 20.4179 59.357C20.606 59.3012 20.6866 59.1337 20.7134 58.9663C20.7403 58.8547 20.7403 58.743 20.7403 58.6314C20.794 57.2082 20.8209 55.757 20.8746 54.3338C20.9015 53.7198 20.8746 53.1059 20.9015 52.492C20.9015 52.2966 20.9552 52.0734 21.009 51.878C21.0895 51.6548 21.197 51.571 21.4119 51.5989C21.6806 51.6269 21.7881 51.6827 21.8149 51.9338C21.8418 52.2687 21.8687 52.6036 21.8687 52.9664C21.8418 54.6687 21.7881 56.371 21.7343 58.0733C21.7343 58.3803 21.7612 58.6872 21.8149 58.9663C21.8687 59.3012 22.0567 59.5802 22.3522 59.7477C22.5134 59.8593 22.594 59.9988 22.594 60.1942C22.5672 60.557 22.5672 60.9198 22.5134 61.2825C22.4866 61.45 22.406 61.6174 22.2179 61.7011C22.003 61.8128 21.8418 61.757 21.7612 61.5337C21.6806 61.3104 21.6269 61.0872 21.6 60.836C21.5463 60.5012 21.5731 60.5012 21.2239 60.5012C20.7134 60.5291 20.1761 60.5849 19.6657 60.5849C18.9403 60.5849 18.2149 60.5291 17.4895 60.5012C17.194 60.4733 16.8985 60.4733 16.603 60.4453C15.9582 60.3616 15.5283 59.8314 15.5015 59.1337C15.394 57.0128 15.3134 54.8919 15.3671 52.771C15.3671 52.492 15.4209 52.2129 15.4746 51.9338C15.5283 51.6827 15.6089 51.6269 15.8507 51.6269C16.3612 51.5989 16.4418 51.6548 16.4955 52.185C16.4955 52.2966 16.5224 52.4082 16.5224 52.5199C16.5761 54.6129 16.6298 56.678 16.6836 58.7709C16.6836 58.8826 16.7104 58.9663 16.7373 59.0779C16.791 59.3291 16.9522 59.4686 17.194 59.4686C17.3552 59.4686 17.5433 59.4686 17.7045 59.4407C17.9463 59.4128 18.0806 59.2454 18.1343 59.0221C18.188 58.8268 18.2149 58.6035 18.2149 58.3803C18.2149 56.5663 18.2149 54.7524 18.2149 52.9385C18.2149 52.6315 18.2418 52.3245 18.2955 52.0455C18.3224 51.878 18.403 51.6827 18.6179 51.6548C18.9403 51.5989 19.1015 51.6827 19.1552 52.0175C19.2089 52.2966 19.2089 52.6036 19.2358 52.8827C19.1821 53.7478 19.1821 54.6687 19.1821 55.5896Z" fill="white"/>
<path d="M29.8478 56.7059C29.8747 55.5059 29.9284 54.278 29.9553 53.078C29.9553 52.8827 30.009 52.6874 30.0359 52.5199C30.1971 51.9339 30.5194 51.6548 31.1374 51.6269C31.9165 51.599 32.6687 51.6269 33.4478 51.6548C33.9851 51.6827 34.5224 51.7106 35.0329 51.7664C35.6508 51.8502 36.0269 52.2688 36.1344 52.9106C36.1612 52.9943 36.1612 53.106 36.1612 53.1897C36.215 54.9199 36.2687 56.6501 36.2955 58.3803C36.2955 58.9384 36.2687 59.4966 36.2418 60.0826C36.2418 60.1942 36.1881 60.3059 36.1612 60.3896C36.1075 60.5291 36.0269 60.5849 35.8657 60.5849C35.8388 60.5849 35.812 60.5849 35.7851 60.5849C35.2747 60.5849 35.1672 60.5012 35.1672 59.971C35.1403 59.2175 35.1403 58.464 35.1135 57.7106C35.0866 56.3152 35.0329 54.9478 35.006 53.5525C34.9791 52.8827 34.7911 52.7153 34.1463 52.7432C33.7165 52.7711 33.5284 52.9943 33.4747 53.4687C33.4478 53.6362 33.4478 53.8036 33.4478 53.9711C33.4478 55.7571 33.4478 57.5152 33.4478 59.3012C33.4478 59.6082 33.4209 59.9431 33.3403 60.2501C33.2866 60.557 32.9911 60.6687 32.7224 60.5291C32.6418 60.5012 32.5612 60.3896 32.5612 60.3059C32.5075 60.1105 32.4806 59.9152 32.4806 59.7198C32.4806 57.7664 32.4538 55.8129 32.4538 53.8594C32.4538 53.8036 32.4538 53.7478 32.4538 53.7199C32.4538 52.9664 31.9702 52.6036 31.2448 52.8269C31.0836 52.8827 30.9762 52.9943 30.9493 53.1618C30.9224 53.3013 30.9224 53.4129 30.8956 53.5525C30.8418 54.892 30.815 56.2315 30.7612 57.571C30.7344 58.2687 30.7612 58.9663 30.7344 59.6919C30.7344 59.9152 30.6806 60.1105 30.6269 60.3338C30.5463 60.6128 30.4389 60.6687 30.1702 60.6407C29.9284 60.6128 29.8209 60.5291 29.7941 60.2501C29.7672 60.0826 29.7672 59.8873 29.7672 59.7198C29.8209 58.6873 29.8209 57.6826 29.8478 56.7059Z" fill="white"/>
<path d="M27.6449 59.8871C27.3225 60.0825 27.0001 60.2778 26.6508 60.4174C26.2747 60.5848 25.8717 60.7243 25.4956 60.8359C25.0658 60.9476 24.7702 60.7801 24.6897 60.3057C24.6091 59.943 24.5822 59.5523 24.5822 59.1616C24.5553 58.5197 24.5822 57.85 24.5822 57.2081C24.5553 56.3431 24.4747 55.478 24.4747 54.6129C24.4479 53.8315 24.5016 53.0222 24.5285 52.2409C24.5285 52.1013 24.5553 51.9618 24.5822 51.8223C24.6359 51.5432 24.9046 51.4595 25.0926 51.6827C25.2001 51.7944 25.3076 51.9618 25.3344 52.1292C25.415 52.5757 25.4688 53.0501 25.4688 53.4966C25.5225 54.7524 25.5225 56.0361 25.5762 57.2919C25.6031 57.9337 25.6299 58.5755 25.6299 59.2174C25.6299 59.2453 25.6299 59.2732 25.6299 59.3011C25.6568 59.7197 25.8449 59.8313 26.1941 59.6081C26.4897 59.4406 26.7852 59.2453 27.0807 59.05C27.5105 58.7709 27.7255 58.3802 27.6986 57.85C27.6717 56.65 27.618 55.4501 27.5911 54.2501C27.5643 53.5803 27.5643 52.9106 27.5911 52.2688C27.5911 52.1013 27.6449 51.9339 27.7255 51.7665C27.8329 51.5153 28.0479 51.4874 28.2359 51.7106C28.4777 52.0176 28.5583 52.3804 28.5583 52.7432C28.5852 54.2222 28.612 55.7012 28.6389 57.1802C28.6658 58.2407 28.6658 59.2732 28.6926 60.3336C28.6926 60.4174 28.6926 60.5011 28.6926 60.6127C28.6389 60.8918 28.5583 61.0034 28.3971 61.0313C28.0747 61.0592 27.9673 61.0034 27.8867 60.6964C27.7523 60.4453 27.6986 60.1662 27.6449 59.8871Z" fill="white"/>
<path d="M13.3522 55.9803C13.406 56.9291 13.4328 57.878 13.5134 58.8268C13.5403 59.1617 13.594 59.4965 13.8627 59.7756C14.0239 59.943 13.9164 60.3058 13.6746 60.4174C13.2716 60.6128 12.8686 60.6128 12.4657 60.3895C12.3851 60.3337 12.2776 60.3058 12.197 60.3058C11.7134 60.3337 11.203 60.3616 10.7194 60.4174C10.2358 60.4453 9.83282 60.2779 9.5373 59.8593C9.18805 59.357 9.05372 58.771 9.02685 58.157C8.99999 57.9059 9.02685 57.6268 9.05372 57.3756C9.13431 56.8733 9.42984 56.5385 9.94028 56.4547C10.3701 56.371 10.8269 56.371 11.2567 56.3431C11.4985 56.3152 11.7403 56.3152 11.9821 56.2594C12.1701 56.2315 12.2507 56.092 12.2507 55.8966C12.2507 55.5338 12.3045 55.171 12.3045 54.8083C12.3045 54.4455 12.3045 54.0827 12.2776 53.7199C12.197 53.106 11.8746 52.7432 11.2567 52.6595C10.8269 52.6037 10.397 52.6037 9.99401 52.6037C9.72536 52.6037 9.67163 52.6874 9.67163 52.9664C9.67163 53.0223 9.59103 53.1339 9.5373 53.1339C9.24178 53.2176 8.97312 53.0502 8.91939 52.7432C8.78506 52.0176 8.99999 51.7944 9.51043 51.7107C10.2895 51.5711 11.0686 51.5432 11.8477 51.6548C12.4388 51.7107 12.8418 52.1013 13.0836 52.6316C13.3254 53.1618 13.406 53.692 13.4328 54.278C13.4597 54.8362 13.4328 55.3943 13.4328 55.9803C13.3791 55.9803 13.3791 55.9803 13.3522 55.9803ZM12.5463 58.4919C12.5194 58.2128 12.4657 57.9059 12.4119 57.5989C12.3582 57.264 12.2507 57.2082 11.9283 57.2361C11.3642 57.2919 10.8268 57.3477 10.2627 57.4036C10.0477 57.4315 9.91342 57.5152 9.91342 57.7663C9.85969 58.2966 9.94028 58.7989 10.1821 59.2733C10.3433 59.5802 10.6119 59.7198 10.9343 59.6919C11.2567 59.664 11.5791 59.6082 11.8746 59.5523C12.2239 59.4965 12.3851 59.3291 12.4657 58.9663C12.5194 58.8268 12.5194 58.6872 12.5463 58.4919Z" fill="white"/>
<path d="M41.8836 56.5664C41.9105 57.7105 41.9373 58.8268 41.9642 59.971C41.9642 60.1384 41.9105 60.3617 41.8299 60.5012C41.6418 60.8082 41.2925 60.7803 41.1314 60.4733C41.0239 60.278 40.8627 60.278 40.7015 60.3059C40.406 60.3338 40.1373 60.3896 39.8687 60.4175C39.3045 60.4733 38.794 60.3059 38.391 59.9152C38.1224 59.664 38.0687 59.3012 38.0418 58.9663C37.9881 58.2129 38.0687 57.4873 38.4716 56.8454C38.7672 56.371 39.1433 56.092 39.7343 56.1199C39.9493 56.1199 40.191 56.092 40.406 56.0641C40.809 56.0082 40.997 55.7571 40.997 55.3664C40.997 54.6687 40.997 53.9711 40.997 53.2734C40.997 52.9385 40.809 52.6594 40.5134 52.5199C40.1105 52.3246 39.6806 52.3246 39.2508 52.3804C38.8478 52.4641 38.7403 52.6315 38.7672 53.0501C38.7672 53.2176 38.7672 53.3292 38.6328 53.4408C38.4179 53.5804 38.1761 53.5525 38.0687 53.3013C37.7463 52.6315 37.9612 51.9618 38.7134 51.7943C39.6 51.5711 40.4866 51.6827 41.2925 52.1571C41.7224 52.4083 41.9105 52.7711 41.9373 53.2734C41.8299 54.3338 41.8836 55.4501 41.8836 56.5664ZM40.1911 59.3012C40.3791 59.2733 40.594 59.2733 40.7821 59.2454C40.9702 59.2454 41.0508 59.1338 41.0776 58.9663C41.1045 58.7431 41.1045 58.5477 41.1045 58.3245C41.0776 57.6826 40.7015 57.2361 40.1105 57.1245C39.5731 57.0129 39.197 57.2361 39.0896 57.7943C39.0358 58.0733 39.0358 58.3524 39.009 58.6315C39.009 58.9943 39.1433 59.1896 39.4925 59.2454C39.7075 59.2733 39.9493 59.2733 40.1911 59.3012Z" fill="white"/>
<path d="M7.06634 54.6687C7.36186 54.9477 7.38872 55.3105 7.38872 55.6454C7.41559 56.957 7.41559 58.2406 7.41559 59.5522C7.41559 59.7197 7.36186 59.915 7.28126 60.0545C7.06633 60.5569 6.79768 60.6685 6.3141 60.4731C5.32006 60.0825 4.56783 59.4127 4.00365 58.5197C3.78872 58.1569 3.81558 57.9058 4.03051 57.6825C4.13797 57.5709 4.2723 57.543 4.37977 57.6267C4.48723 57.7104 4.59469 57.8221 4.70215 57.9337C5.02454 58.2686 5.34693 58.6313 5.66932 58.9662C5.77678 59.0778 5.88424 59.1615 6.01857 59.2174C6.3141 59.3569 6.52902 59.2174 6.55589 58.8825C6.55589 58.6592 6.55589 58.4639 6.52902 58.2406C6.47529 57.4872 6.39469 56.7337 6.34096 55.9802C6.34096 55.8965 6.28723 55.7849 6.26036 55.7012C6.20663 55.4779 6.09917 55.3384 5.83051 55.3384C5.66932 55.3384 5.50812 55.2547 5.3738 55.171C5.15887 55.0314 5.07827 54.8082 5.132 54.5291C5.18574 54.3338 5.2932 54.2222 5.56185 54.1942C5.74991 54.1663 5.96484 54.1663 6.1529 54.1663C6.3141 54.1663 6.39469 54.0826 6.39469 53.9152C6.36783 53.7477 6.39469 53.5803 6.34096 53.4129C6.2335 53.0222 5.91111 52.8268 5.56185 52.7989C4.99767 52.7431 4.40663 52.771 3.84245 52.7989C3.73499 52.7989 3.60066 52.8827 3.52006 52.9385C3.38573 53.0222 3.35887 53.1617 3.4126 53.3292C3.52006 53.5803 3.4932 53.7198 3.30514 53.8594C3.11708 53.9989 2.92902 53.971 2.76782 53.7757C2.44543 53.4408 2.36484 53.0222 2.52603 52.5757C2.68723 52.1013 3.06334 51.8501 3.54693 51.8222C4.40663 51.7664 5.2932 51.7385 6.12604 51.9618C6.50216 52.0734 6.82454 52.2129 7.0932 52.492C7.30813 52.7152 7.41559 52.9664 7.41559 53.2733C7.41559 53.5803 7.41559 53.9152 7.38872 54.2222C7.38872 54.5012 7.30813 54.5849 7.06634 54.6687Z" fill="white"/>
<path d="M39.197 32.9016C39.197 36.2225 39.197 39.5434 39.197 42.8642C39.197 43.3386 39.1433 43.7851 38.9552 44.2037C38.6597 44.8177 38.1761 45.2363 37.5582 45.5153C36.7523 45.8781 35.8925 45.9897 35.0329 45.906C33.9851 45.7944 33.3941 45.1246 33.2597 44.1479C33.2329 43.9247 33.206 43.7014 33.206 43.4782C33.206 36.6969 33.206 29.9436 33.206 23.1623C33.206 22.8274 33.2329 22.4926 33.2866 22.1577C33.3672 21.6275 33.6896 21.2647 34.2 21.1252C34.5224 21.0414 34.8717 20.9856 35.2209 20.9856C35.8657 20.9856 36.5105 20.9856 37.1821 21.0414C37.6388 21.0693 38.1224 21.181 38.5254 21.4042C38.9552 21.6554 39.1702 22.0182 39.197 22.5205C39.197 22.66 39.2239 22.7995 39.2239 22.967C39.197 26.2599 39.197 29.5808 39.197 32.9016Z" fill="#52AE32"/>
<path d="M8.83883 45.7954C8.08659 45.7954 7.36121 45.7954 6.60897 45.7954C6.52837 45.7954 6.44778 45.7954 6.34031 45.7954C6.15225 45.7954 6.07166 45.6838 6.07166 45.5163C6.07166 45.0137 6.07166 44.5112 6.07166 44.0087C6.07166 43.7295 6.20598 43.6178 6.47464 43.5899C6.55524 43.5899 6.63584 43.5899 6.7433 43.5899C8.16718 43.5899 9.59107 43.5899 11.0418 43.5899C11.203 43.5899 11.3911 43.5899 11.5523 43.6178C11.8747 43.6458 12.0627 43.8412 12.0627 44.1483C12.0627 44.4554 12.0627 44.7904 12.0358 45.0975C11.9553 45.6 11.6597 45.8234 11.1761 45.8234C10.3702 45.8234 9.59107 45.7954 8.83883 45.7954Z" fill="#52AE32"/>
<path d="M12.547 58.4919C12.5201 58.6873 12.5201 58.8268 12.4932 58.9663C12.4126 59.3291 12.2514 59.4965 11.902 59.5523C11.5796 59.6082 11.2571 59.664 10.9615 59.6919C10.639 59.7198 10.3703 59.5803 10.2091 59.2733C9.96723 58.7989 9.88661 58.2966 9.94035 57.7664C9.96723 57.5431 10.0747 57.4315 10.2897 57.4036C10.854 57.3478 11.3915 57.292 11.9558 57.2362C12.2783 57.2083 12.3858 57.292 12.4395 57.5989C12.4664 57.9059 12.5201 58.2129 12.547 58.4919Z" fill="#52AE32"/>
<path d="M40.191 59.3021C39.9492 59.2741 39.7074 59.2741 39.4657 59.2462C39.1164 59.1904 38.9821 58.9671 38.9821 58.6321C38.9821 58.3529 39.009 58.0737 39.0627 57.7945C39.1702 57.2362 39.5462 57.0129 40.0835 57.1245C40.7014 57.2362 41.0775 57.6829 41.0775 58.325C41.0775 58.5483 41.0775 58.7437 41.0506 58.9671C41.0237 59.1346 40.9431 59.2462 40.7551 59.2462C40.5939 59.2741 40.4059 59.2741 40.191 59.3021Z" fill="#52AE32"/>
<path d="M29.4991 11.9434C29.2573 11.9434 28.9886 11.9713 28.7467 11.9155C27.7793 11.8039 27.3225 11.3015 27.1344 10.269C27.1075 10.1295 27.1075 9.98994 27.1344 9.85041C27.1612 9.73879 27.215 9.65507 27.2956 9.51553C27.5643 9.73879 27.8062 9.93413 28.048 10.1574C28.5855 10.6318 29.0423 11.1899 29.4454 11.776C29.4723 11.8039 29.4991 11.8318 29.526 11.8876C29.4991 11.8876 29.4991 11.9155 29.4991 11.9434Z" fill="white"/>
<path d="M17.4902 9.26495C17.4364 9.48829 17.3827 9.71163 17.3289 9.93497C17.2483 10.2141 17.1408 10.4933 17.0333 10.7446C16.7377 11.4425 16.0122 11.8055 15.3403 11.61C15.3135 11.61 15.2866 11.5821 15.2328 11.5542C15.3672 11.3588 15.5016 11.1913 15.6359 11.0238C16.1734 10.3817 16.7646 9.79538 17.4364 9.32078C17.4633 9.32078 17.4633 9.29286 17.4902 9.26495C17.4902 9.26495 17.4633 9.26495 17.4902 9.26495Z" fill="white"/>
<path d="M25.7104 0C25.9254 0.0279064 26.1403 0.0558127 26.3552 0.111625C26.4896 0.167438 26.6507 0.223251 26.7582 0.334877C27 0.530221 26.9731 0.893004 26.7045 1.08835C26.5433 1.22788 26.3821 1.17207 26.3015 0.976724C26.2746 0.920911 26.2746 0.865098 26.2478 0.837192C26.0597 0.418596 25.6836 0.334877 25.2806 0.530221C24.609 0.893004 24.3134 1.47904 24.1522 2.1767C23.9642 2.95808 23.9104 3.76736 23.9104 4.57665C23.9104 4.66037 23.9373 4.68827 24.0179 4.71618C24.609 4.88362 25.0388 5.27431 25.3881 5.77662C25.6299 6.1115 25.8985 6.44638 26.1134 6.80916C26.2478 7.03241 26.3284 7.28357 26.4358 7.50682C26.4627 7.56263 26.4627 7.64635 26.4358 7.73007C26.3821 7.8696 26.4358 7.92542 26.5701 7.98123C27.403 8.45564 28.1284 9.04167 28.8 9.71142C28.8537 9.76724 28.8806 9.79514 28.9343 9.85096C29.2298 9.68352 29.4716 9.48817 29.6597 9.23702C29.9284 8.93005 30.1164 8.53936 30.197 8.14867C30.2507 7.92542 30.4119 7.81379 30.6537 7.8417C30.8418 7.8696 31.003 8.03704 31.003 8.23239C30.9761 8.45564 30.9492 8.67889 30.8687 8.90214C30.7612 9.29283 30.4925 9.57189 30.1701 9.79514C29.9284 9.99049 29.6328 10.1579 29.3642 10.3254C29.4716 10.4649 29.5791 10.6044 29.6866 10.7719C29.9552 11.1626 30.197 11.5532 30.4388 11.9439C30.4925 12.0277 30.5194 12.0556 30.6269 12.0277C30.9224 11.9439 31.191 11.8323 31.4866 11.7486C31.7284 11.6649 31.9433 11.5812 32.1851 11.5253C32.5075 11.4695 32.803 11.4695 32.8836 11.9439C32.8836 11.9997 32.8836 12.0556 32.8836 12.1114C32.8298 12.2788 32.6955 12.3346 32.5343 12.3346C32.4269 12.3346 32.2925 12.3067 32.1851 12.3346C32.0239 12.3346 31.8627 12.3346 31.7284 12.4183C31.4597 12.5579 31.191 12.6974 30.9224 12.8648C30.9493 12.9207 30.9493 12.9486 30.9761 13.0044C31.1373 13.4788 31.3254 13.9253 31.4597 14.3997C31.5672 14.7904 31.6478 15.1811 31.594 15.5718C31.5672 15.7113 31.5403 15.8229 31.406 15.8787C31.3791 15.8787 31.3791 15.8787 31.3522 15.8787C31.2716 15.7671 31.1642 15.6555 31.0836 15.516C30.8418 14.9857 30.6269 14.4555 30.3582 13.9253C29.9015 12.9486 29.3642 12.0277 28.6657 11.1905C27.8597 10.2137 26.8925 9.46027 25.7642 8.93005C25.5224 8.81842 25.2537 8.87423 25.0388 8.98586C24.8507 9.09748 24.6896 9.20911 24.5284 9.37655C24.1522 9.71142 23.7761 9.99049 23.2925 10.1021C23.1045 10.13 23.0776 10.2137 23.1045 10.437C23.1313 11.3579 23.0507 12.2509 22.8358 13.1439C22.7821 13.3113 22.7015 13.5067 22.6209 13.6462C22.4597 13.9253 22.191 13.9253 22.0567 13.6183C21.9493 13.3672 21.8687 13.0881 21.8418 12.809C21.7881 12.0277 21.7881 11.2463 21.7881 10.437C21.7881 10.0742 21.6806 9.93468 21.3582 9.82305C21.0896 9.73933 20.8209 9.68352 20.5791 9.57189C20.3373 9.46027 20.1224 9.34864 19.9075 9.20911C19.6119 9.01377 19.3433 8.81842 18.994 8.7347C18.9134 8.70679 18.806 8.7347 18.6985 8.76261C17.2478 9.37655 16.1194 10.3812 15.1791 11.637C14.6149 12.3904 14.1851 13.1997 13.7284 14.009C13.6478 14.1485 13.5403 14.316 13.4328 14.4276C13.2985 14.5671 13.1642 14.5392 13.1105 14.3718C13.0567 14.1206 13.0567 13.8695 13.0836 13.6183C13.1373 13.0881 13.2985 12.5858 13.4866 12.0835C13.5134 12.0277 13.5134 11.9997 13.5403 11.916C13.3791 11.8602 13.2179 11.8044 13.0836 11.7765C12.7343 11.6649 12.3851 11.5532 12.0358 11.4416C11.9821 11.4137 11.9015 11.3858 11.8478 11.3579C11.6597 11.2463 11.6597 11.1347 11.8478 11.0509C12.0896 10.9114 12.3314 10.8835 12.5731 10.9114C13.003 10.9672 13.406 11.1347 13.809 11.3858C14.2119 10.6044 14.7224 9.90677 15.3672 9.29283C15.206 9.12539 15.0179 8.98586 14.8836 8.81842C14.6149 8.51145 14.3731 8.20448 14.1582 7.8696C14.0776 7.75798 14.0239 7.59054 13.997 7.4231C13.9702 7.28357 14.0508 7.14404 14.1851 7.08822C14.3194 7.03241 14.4806 6.9766 14.6418 6.94869C14.8299 6.92079 14.9642 7.00451 15.0179 7.17194C15.0448 7.25566 15.0716 7.31148 15.0985 7.39519C15.206 7.95332 15.5552 8.37192 15.8508 8.81842C16.1731 8.59517 16.4687 8.37192 16.7642 8.17657C17.2209 7.8696 17.7313 7.61844 18.2687 7.4231C18.3493 7.39519 18.403 7.33938 18.403 7.25566C18.403 6.94869 18.5373 6.69753 18.6985 6.44638C19.2358 5.60919 19.9881 5.05106 20.9284 4.74409C20.9552 4.74409 21.009 4.71618 21.0627 4.68827C21.0358 4.40921 21.0358 4.13015 21.009 3.85108C20.9552 3.26505 20.8746 2.65111 20.7134 2.09298C20.5791 1.70229 20.4179 1.33951 20.0418 1.11626C19.9075 1.03254 19.7731 0.920911 19.6119 0.865098C19.5313 0.837192 19.397 0.809285 19.3164 0.837192C19.1552 0.893005 19.0209 0.976724 18.8597 1.06044C18.7522 1.11626 18.6448 1.19997 18.5105 1.08835C18.3761 0.976724 18.3224 0.69766 18.403 0.558128C18.4567 0.474409 18.5105 0.39069 18.591 0.362783C18.994 0.111626 19.397 0.0558128 19.8269 0.279064C20.391 0.586034 20.794 1.06044 21.1433 1.59066C21.4388 2.03717 21.5194 2.56739 21.6537 3.0697C21.7612 3.51621 21.8955 3.96271 22.0299 4.40921C22.0567 4.49293 22.0836 4.63246 22.2448 4.52084C22.2716 4.49293 22.3254 4.54874 22.3522 4.54874C22.5672 4.57665 22.7552 4.49293 22.8896 4.32549C23.0776 4.07433 23.1851 3.76736 23.2388 3.46039C23.4 2.79064 23.5343 2.12089 23.803 1.50695C23.991 1.08835 24.2328 0.669753 24.5821 0.390689C24.8507 0.195345 25.1194 0.0558129 25.4687 0.0279065C25.5224 0.0279065 25.5493 0 25.603 0C25.6567 0 25.6836 0 25.7104 0ZM21.9761 7.89751C21.9761 7.36729 21.5731 6.9766 21.0896 7.03241C20.7403 7.06032 20.4985 7.25566 20.2836 7.53473C20.1761 7.64635 20.1761 7.78588 20.2567 7.89751C20.4985 8.2882 20.8209 8.56726 21.2508 8.67889C21.5463 8.76261 21.7612 8.65098 21.8687 8.34401C21.9224 8.20448 21.9493 8.03704 21.9761 7.89751Z" fill="black"/>
<path d="M26.1407 13.8983C25.8182 13.8703 25.4689 13.8424 25.1464 13.7866C24.8508 13.7308 24.6627 13.5074 24.609 13.2003C24.5552 12.8932 24.6627 12.6699 24.8777 12.5023C25.3345 12.1115 25.8182 11.9998 26.3826 12.2232C26.7319 12.3627 27.0544 12.5303 27.35 12.7815C27.4306 12.8653 27.5112 12.949 27.565 13.0328C27.7531 13.312 27.6724 13.5912 27.3769 13.7028C27.1619 13.7866 26.9469 13.8145 26.7319 13.8424C26.5438 13.8703 26.3557 13.8703 26.1676 13.8703C26.1407 13.8703 26.1407 13.8983 26.1407 13.8983Z" fill="black"/>
<path d="M17.6241 13.5074C17.436 13.5074 17.2211 13.5074 17.033 13.4795C16.7374 13.4237 16.603 13.2282 16.6567 12.9211C16.6836 12.6978 16.7642 12.5303 16.9255 12.3907C17.4092 11.9998 17.9466 11.7765 18.5915 11.8602C18.8871 11.9161 19.1559 12.0557 19.3709 12.279C19.6127 12.5303 19.6396 12.8653 19.5321 13.1724C19.4515 13.4516 19.1021 13.6191 18.7797 13.5633C18.4034 13.5074 18.0272 13.4795 17.6241 13.4237C17.6241 13.4795 17.6241 13.4795 17.6241 13.5074Z" fill="black"/>
<path d="M21.976 7.89784C21.9491 8.06535 21.9223 8.20494 21.8685 8.34453C21.7611 8.65163 21.5462 8.7633 21.2507 8.67955C20.8209 8.56787 20.4985 8.28869 20.2567 7.89784C20.1761 7.75825 20.203 7.64658 20.2836 7.5349C20.4985 7.25572 20.7403 7.0603 21.0895 7.03238C21.573 6.97654 21.976 7.33948 21.976 7.89784Z" fill="white"/>
</svg>
