<svg width="29" height="29" viewBox="0 0 29 29" fill="none" xmlns="http://www.w3.org/2000/svg">
<g clip-path="url(#clip0)">
<path d="M28.2393 22.3719L22.3696 18.4575C21.6247 17.9648 20.6263 18.1269 20.0756 18.8301L18.3658 21.0284C18.146 21.3182 17.7466 21.4022 17.4287 21.2256L17.1035 21.0463C16.0253 20.4587 14.6838 19.727 11.9809 17.0232C9.27806 14.3193 8.54496 12.9768 7.95728 11.9006L7.77895 11.5754C7.59994 11.2576 7.68239 10.8565 7.97223 10.635L10.1691 8.92569C10.872 8.37494 11.0344 7.37674 10.5422 6.63163L6.62779 0.761929C6.12336 0.00317009 5.11134 -0.224605 4.33044 0.24482L1.87595 1.71924C1.10473 2.17264 0.538916 2.90693 0.297153 3.76825C-0.586706 6.9887 0.0782125 12.5467 8.26565 20.7351C14.7786 27.2475 19.6271 28.9989 22.9597 28.9989C23.7267 29.0022 24.4907 28.9024 25.2311 28.7022C26.0926 28.4607 26.827 27.8948 27.2801 27.1234L28.756 24.6704C29.2261 23.8893 28.9984 22.8766 28.2393 22.3719ZM27.9233 24.1745L26.4508 26.629C26.1254 27.1858 25.5972 27.5952 24.9768 27.7714C22.0038 28.5877 16.8097 27.9116 8.94942 20.0513C1.08916 12.191 0.413136 6.99742 1.22938 4.02394C1.40584 3.4028 1.81575 2.87391 2.37323 2.54805L4.82773 1.07556C5.16656 0.871682 5.6058 0.970505 5.82468 1.29976L7.95105 4.49218L9.73576 7.16896C9.94949 7.49216 9.87927 7.92534 9.57436 8.1645L7.37697 9.87377C6.70826 10.3851 6.5173 11.3103 6.92901 12.0446L7.1035 12.3616C7.72113 13.4944 8.489 14.9036 11.2924 17.7065C14.0958 20.5094 15.5045 21.2773 16.6368 21.8949L16.9543 22.0699C17.6885 22.4815 18.6138 22.2906 19.1251 21.6219L20.8344 19.4245C21.0736 19.1198 21.5066 19.0496 21.8299 19.2631L27.6991 23.1775C28.0286 23.3962 28.1274 23.8357 27.9233 24.1745Z" fill="#036877"/>
<path d="M16.4325 4.83582C20.9676 4.84086 24.6428 8.51612 24.6479 13.0513C24.6479 13.3182 24.8643 13.5345 25.1312 13.5345C25.3981 13.5345 25.6144 13.3182 25.6144 13.0513C25.6088 7.98253 21.5012 3.87488 16.4325 3.86933C16.1656 3.86933 15.9492 4.08567 15.9492 4.35257C15.9492 4.61948 16.1656 4.83582 16.4325 4.83582Z" fill="#036877"/>
<path d="M16.4325 7.73539C19.3669 7.73885 21.7449 10.1168 21.7484 13.0513C21.7484 13.3182 21.9648 13.5345 22.2316 13.5345C22.4985 13.5345 22.7148 13.3182 22.7148 13.0513C22.7108 9.58324 19.9005 6.77287 16.4325 6.76891C16.1656 6.76891 15.9492 6.98524 15.9492 7.25215C15.9492 7.51906 16.1656 7.73539 16.4325 7.73539Z" fill="#036877"/>
<path d="M16.4325 10.635C17.7663 10.6366 18.8471 11.7174 18.8488 13.0513C18.8488 13.3182 19.0652 13.5345 19.332 13.5345C19.5989 13.5345 19.8153 13.3182 19.8153 13.0513C19.8131 11.1839 18.2999 9.67058 16.4325 9.66848C16.1656 9.66848 15.9492 9.88482 15.9492 10.1517C15.9492 10.4186 16.1656 10.635 16.4325 10.635Z" fill="#036877"/>
</g>
<defs>
<clipPath id="clip0">
<rect width="29" height="29" fill="white"/>
</clipPath>
</defs>
</svg>
