<svg width="464" height="190" viewBox="0 0 464 190" fill="none" xmlns="http://www.w3.org/2000/svg">
<path d="M0.108826 133.072C0.34754 133.041 0.570839 132.939 0.748304 132.78C0.925768 132.62 1.04877 132.411 1.10056 132.181C1.68877 131.087 2.35622 130.036 3.09779 129.035C3.11084 129.273 3.18778 129.503 3.32082 129.702C3.45387 129.901 3.63829 130.062 3.85536 130.169C4.77822 130.723 5.65976 131.357 6.61017 131.924C6.90953 132.067 7.17026 132.278 7.37127 132.538C7.57228 132.798 7.70792 133.101 7.76718 133.423C9.53534 136.951 11.494 140.385 13.6349 143.71C16.7616 148.84 19.4889 154.186 22.7671 159.222C24.0343 161.166 25.1638 163.191 26.2795 165.216C26.4467 165.565 26.7211 165.854 27.0644 166.043C27.4077 166.232 27.8027 166.311 28.1941 166.269C40.2142 166.269 52.2297 166.269 64.2407 166.269C64.5427 166.339 64.8588 166.322 65.1517 166.222C65.4446 166.122 65.702 165.941 65.8936 165.702C66.0627 166.406 66.5016 167.02 67.1194 167.416C68.3125 168.145 69.4372 168.976 70.4803 169.9C70.4883 169.958 70.4883 170.017 70.4803 170.076C69.2406 172.452 69.2406 172.452 66.596 172.452C52.822 172.452 39.1582 172.452 25.4393 172.452C24.7831 172.522 24.1212 172.387 23.5476 172.067C22.974 171.747 22.5177 171.258 22.2437 170.67C15.3475 158.844 8.40537 147.044 1.41735 135.272C1.32444 134.95 1.16371 134.65 0.945469 134.392C0.72723 134.134 0.456321 133.923 0.150146 133.774V133.072H0.108826Z" fill="white" fill-opacity="0.15"/>
<path d="M237.38 0.525879C240.42 5.74595 243.459 10.966 246.499 16.1861C249.116 20.6546 251.76 25.1097 254.377 29.5782C254.454 29.7431 254.514 29.915 254.556 30.0912C254.305 30.2532 254.004 30.3243 253.705 30.2923C253.406 30.2603 253.127 30.1271 252.917 29.9157C251.016 28.5657 249.019 27.4587 247.174 26.0682C246.436 25.4185 245.492 25.0372 244.501 24.9882C244.129 24.4212 243.744 23.8812 243.413 23.3007L233.647 6.74944C233.383 6.53992 233.07 6.39714 232.736 6.33359C232.403 6.27005 232.058 6.28769 231.733 6.38495C227.229 6.38495 222.711 6.38495 218.207 6.38495C217.938 6.45806 217.656 6.47051 217.382 6.42141C217.107 6.37231 216.848 6.26291 216.623 6.10144C215.025 4.37341 212.849 3.4014 210.975 2.05138C210.668 1.91327 210.401 1.70301 210.197 1.43925C209.992 1.17548 209.858 0.86638 209.805 0.539372H237.353L237.38 0.525879Z" fill="white" fill-opacity="0.15"/>
<path d="M209.818 0.525879C209.872 0.852872 210.006 1.16196 210.21 1.42571C210.415 1.68947 210.682 1.89972 210.989 2.03782C212.862 3.38778 215.039 4.34625 216.637 6.0877C216.862 6.24917 217.121 6.35856 217.395 6.40766C217.67 6.45676 217.952 6.44428 218.221 6.37118C222.725 6.37118 227.243 6.37118 231.747 6.37118C232.072 6.27392 232.416 6.2563 232.75 6.31984C233.084 6.38339 233.397 6.52616 233.661 6.73567C221.255 6.73567 208.859 6.73567 196.471 6.73567C196.047 6.6677 195.611 6.74284 195.236 6.9488C194.861 7.15477 194.568 7.4794 194.405 7.86963C192.483 7.31804 190.753 6.25775 189.405 4.80524C189.347 4.70151 189.314 4.58602 189.309 4.46775C189.298 4.41946 189.304 4.36898 189.327 4.32476C189.35 4.28053 189.387 4.24523 189.433 4.22475C189.518 4.18898 189.591 4.1284 189.64 4.05116C189.689 3.97392 189.713 3.88374 189.708 3.79277C189.694 3.73407 189.697 3.67262 189.716 3.61538C189.736 3.55813 189.771 3.50737 189.819 3.46878L190.08 3.09079C190.259 2.15932 191.196 1.55183 191.21 0.552863H209.832L209.818 0.525879Z" fill="white" fill-opacity="0.15"/>
<path d="M210.962 188.219C211.581 188.219 212.201 188.138 212.807 188.138C228.372 188.138 243.937 188.138 259.501 188.138C260.097 188.078 260.698 188.203 261.217 188.497C261.736 188.79 262.148 189.236 262.394 189.772C270.502 203.632 278.647 217.471 286.829 231.286C287.104 231.759 287.325 232.258 287.573 232.744C286.698 232.782 285.84 232.503 285.162 231.961C282.876 230.395 280.562 228.897 278.275 227.344C277.662 226.931 277.007 226.583 276.319 226.304C275.672 226.034 275.41 226.399 275.328 226.979C275.001 226.7 274.746 226.348 274.584 225.953C269.005 216.503 263.399 207.053 257.89 197.521C257.63 196.958 257.196 196.49 256.65 196.182C256.104 195.875 255.472 195.743 254.846 195.807C235.856 195.87 216.866 195.87 197.876 195.807C197.132 195.807 196.389 195.807 195.645 195.807C195.932 195.634 196.252 195.518 196.585 195.467C196.919 195.416 197.259 195.431 197.587 195.51C202.394 195.51 207.229 195.51 212.008 195.51H230.769C231.292 195.51 232.146 195.793 232.27 195.213C232.394 194.632 231.567 194.335 231.127 194.024C228.923 192.485 226.581 191.108 224.46 189.461C223.78 188.877 222.898 188.569 221.995 188.597C218.895 188.597 215.81 188.597 212.711 188.597C212.409 188.661 212.096 188.661 211.794 188.595C211.492 188.53 211.208 188.402 210.962 188.219Z" fill="white" fill-opacity="0.15"/>
<path d="M174.268 110.121C172.257 113.591 170.218 117.047 168.248 120.543C167.794 121.367 166.747 121.893 166.871 122.987C166.995 124.08 168.014 124.337 168.579 125.066C170.251 127.002 171.312 129.373 171.632 131.891C171.953 134.408 171.519 136.962 170.383 139.241C169.645 140.634 168.682 141.901 167.532 142.994C167.374 143.108 167.242 143.254 167.145 143.421C167.049 143.589 166.991 143.775 166.974 143.967C166.957 144.159 166.982 144.352 167.047 144.533C167.113 144.715 167.217 144.881 167.353 145.019C170.011 149.474 172.628 153.943 175.259 158.412C175.934 159.559 176.637 160.747 177.229 161.908C176.561 161.945 175.905 161.727 175.397 161.301C174.512 160.679 173.592 160.107 172.642 159.586C171.898 159.168 171.857 159.748 171.857 160.261C169.612 156.913 167.725 153.349 165.645 149.92C165.039 148.934 164.433 147.935 163.896 146.909C163.83 146.733 163.727 146.571 163.594 146.436C163.461 146.3 163.301 146.193 163.123 146.122C162.945 146.051 162.754 146.017 162.562 146.022C162.371 146.028 162.182 146.072 162.009 146.153C159.076 147.051 155.91 146.878 153.097 145.667C151.194 144.904 149.499 143.716 148.148 142.197C146.797 140.678 145.827 138.871 145.315 136.919C144.915 135.569 145.315 135.569 143.469 135.569H105.342C105.033 135.585 104.724 135.622 104.419 135.677L104.736 135.232H129.598C129.781 135.253 129.966 135.253 130.149 135.232C130.322 135.205 130.482 135.125 130.604 135.002C130.635 134.95 130.654 134.893 130.661 134.834C130.668 134.774 130.662 134.714 130.644 134.657C130.625 134.6 130.595 134.547 130.555 134.502C130.515 134.457 130.466 134.42 130.411 134.395C129.474 133.72 128.538 133.045 127.656 132.289C126.775 131.533 125.397 132.086 124.24 131.992C123.62 131.992 123.001 131.992 122.381 131.992C121.717 132.138 121.021 132.027 120.439 131.681C123.483 131.681 126.513 131.614 129.557 131.6H143.138C144.874 131.6 144.874 131.6 145.356 129.967C146.176 127.135 147.94 124.653 150.366 122.918C152.793 121.184 155.742 120.295 158.744 120.395C159.864 120.411 160.975 120.598 162.036 120.948C162.198 121.032 162.376 121.081 162.558 121.091C162.74 121.101 162.923 121.073 163.093 121.008C163.263 120.942 163.417 120.841 163.543 120.712C163.67 120.583 163.767 120.429 163.827 120.26C165.7 116.979 167.67 113.739 169.571 110.459C169.873 109.796 170.282 109.185 170.783 108.65C171.105 108.604 171.433 108.625 171.746 108.711C172.059 108.797 172.35 108.946 172.601 109.149C173.131 109.513 173.688 109.838 174.268 110.121ZM167.78 133.504C167.785 132.287 167.545 131.081 167.073 129.956C166.601 128.831 165.907 127.809 165.029 126.948C164.152 126.087 163.11 125.405 161.963 124.94C160.816 124.476 159.586 124.239 158.345 124.242C155.837 124.246 153.432 125.219 151.653 126.951C149.873 128.682 148.862 131.032 148.841 133.49C148.791 134.739 148.999 135.984 149.452 137.152C149.905 138.32 150.594 139.386 151.478 140.287C152.361 141.188 153.421 141.905 154.594 142.395C155.767 142.885 157.028 143.138 158.303 143.139C159.578 143.14 160.84 142.889 162.014 142.4C163.187 141.912 164.248 141.197 165.133 140.297C166.018 139.397 166.708 138.332 167.163 137.165C167.618 135.998 167.828 134.752 167.78 133.504Z" fill="white" fill-opacity="0.15"/>
<path d="M179.226 94.3117C180.296 92.1238 181.506 90.0045 182.849 87.9665C183.058 87.6786 183.17 87.3342 183.17 86.981C183.17 86.6278 183.058 86.2834 182.849 85.9955C179.818 80.9059 176.788 75.8298 173.841 70.6997C173.628 70.1716 173.241 69.7282 172.742 69.4396C172.243 69.1511 171.66 69.0339 171.086 69.1067C170.106 69.1386 169.129 68.973 168.217 68.6199C167.305 68.2669 166.476 67.7341 165.783 67.0544C165.09 66.3747 164.546 65.5627 164.186 64.6687C163.826 63.7747 163.656 62.8177 163.689 61.857C163.727 60.8968 163.962 59.9539 164.379 59.084C164.795 58.2142 165.386 57.4352 166.116 56.7932C166.845 56.1512 167.699 55.6591 168.626 55.3463C169.553 55.0335 170.535 54.9062 171.513 54.9719C172.723 55.0542 173.892 55.4359 174.911 56.0813C175.93 56.7268 176.766 57.6149 177.339 58.6626C177.913 59.7103 178.206 60.8836 178.192 62.0726C178.177 63.2616 177.856 64.4276 177.256 65.4616C176.872 65.9857 176.671 66.6184 176.686 67.2639C176.701 67.9095 176.93 68.5327 177.339 69.0392C180.025 73.4133 182.587 77.8684 185.19 82.2829C185.496 82.6895 185.725 83.1468 185.865 83.633C185.882 83.8598 185.948 84.0804 186.059 84.2802C186.17 84.4799 186.323 84.654 186.508 84.7909C186.694 84.9277 186.907 85.0241 187.133 85.0735C187.359 85.123 187.594 85.1243 187.821 85.0775C194.148 85.0775 200.475 85.0775 206.802 85.0775C207.163 85.109 207.525 85.0212 207.829 84.8279C208.134 84.6346 208.364 84.3471 208.482 84.011C209.127 82.6105 210.222 81.4559 211.601 80.7243C212.979 79.9927 214.564 79.7246 216.113 79.9609C217.861 80.2044 219.457 81.0663 220.602 82.3839C221.746 83.7016 222.359 85.384 222.325 87.114C222.291 88.844 221.613 90.5021 220.418 91.7758C219.223 93.0494 217.594 93.8505 215.838 94.0281C214.32 94.2575 212.769 93.9836 211.429 93.2498C210.088 92.5161 209.037 91.3645 208.441 89.9781C208.321 89.6393 208.085 89.3512 207.775 89.162C207.464 88.9728 207.096 88.8939 206.733 88.9385C200.305 88.9385 193.914 88.9385 187.559 88.9385C187.247 88.9288 186.94 89.0238 186.689 89.2079C186.439 89.3919 186.26 89.654 186.182 89.9511C185.09 92.1315 183.843 94.2337 182.449 96.2422C181.196 95.8777 180.535 94.5412 179.226 94.3117ZM215.039 83.0254C213.975 83.0243 212.952 83.425 212.183 84.1441C211.413 84.8632 210.956 85.8455 210.906 86.8865C210.931 87.9531 211.374 88.9693 212.144 89.7237C212.914 90.4781 213.95 90.9125 215.039 90.9366C216.135 90.9366 217.186 90.5099 217.961 89.7503C218.735 88.9908 219.171 87.9607 219.171 86.8865C219.16 86.3688 219.045 85.8582 218.833 85.384C218.621 84.9097 218.316 84.4811 217.935 84.1225C217.553 83.764 217.104 83.4825 216.612 83.2943C216.12 83.1061 215.594 83.0147 215.066 83.0254H215.039ZM170.962 65.9881C172.025 65.9881 173.044 65.5742 173.796 64.8375C174.548 64.1007 174.97 63.1015 174.97 62.0595C174.97 61.0176 174.548 60.0184 173.796 59.2816C173.044 58.5449 172.025 58.131 170.962 58.131C170.434 58.1327 169.912 58.2366 169.426 58.4365C168.939 58.6364 168.498 58.9284 168.127 59.2959C167.756 59.6634 167.462 60.0991 167.263 60.578C167.064 61.0568 166.964 61.5695 166.967 62.0866C166.965 62.6023 167.069 63.1131 167.271 63.5892C167.473 64.0653 167.77 64.4971 168.144 64.8592C168.519 65.2213 168.964 65.5065 169.452 65.698C169.941 65.8896 170.463 65.9836 170.989 65.9746L170.962 65.9881Z" fill="white" fill-opacity="0.15"/>
<path d="M216.912 78.2462C213.937 78.2462 210.962 78.2462 208 78.3137C203.042 78.3137 198.083 78.3137 193.124 78.3137C192.583 78.361 192.041 78.2405 191.574 77.9691C191.107 77.6978 190.738 77.2894 190.521 76.8017C183.487 64.8046 176.421 52.8256 169.323 40.8646C168.981 40.4474 168.794 39.9282 168.794 39.393C168.794 38.8579 168.981 38.3387 169.323 37.9215C169.722 37.3815 170.066 36.8011 170.438 36.2476C171.665 36.4418 172.792 37.0252 173.648 37.9081C174.29 38.4819 175.121 38.8123 175.989 38.8396C175.944 39.1997 175.98 39.5652 176.094 39.9104C176.208 40.2556 176.398 40.5721 176.65 40.8376C178.854 44.6986 181.223 48.4651 183.345 52.3936C184.832 55.0936 186.471 57.7936 188.152 60.4936C190.245 63.7876 192.188 67.2436 194.088 70.5917C194.321 71.1051 194.712 71.5346 195.206 71.8202C195.7 72.1057 196.272 72.2331 196.843 72.1846C209.116 72.1846 221.388 72.1846 233.661 72.1846C233.381 72.3737 233.062 72.5006 232.727 72.5566C232.391 72.6125 232.047 72.5962 231.719 72.5087H212.587C212.269 72.4262 211.936 72.41 211.611 72.4611C211.286 72.5123 210.976 72.6296 210.7 72.8056C210.759 73.0545 210.871 73.2885 211.027 73.493C211.184 73.6975 211.382 73.8679 211.609 73.9936C212.766 74.8036 213.923 75.6002 215.121 76.3292C215.544 76.5014 215.924 76.7622 216.233 77.0934C216.542 77.4245 216.774 77.818 216.912 78.2462Z" fill="white" fill-opacity="0.15"/>
<path d="M212.022 195.429C207.215 195.429 202.38 195.429 197.601 195.429C197.273 195.35 196.933 195.335 196.599 195.386C196.266 195.437 195.946 195.553 195.659 195.726C193.772 198.804 191.802 201.828 190.053 205.001C187.422 209.753 184.543 214.451 181.788 219.068C181.182 220.26 180.472 221.398 179.667 222.47C177.245 221.632 175.06 220.244 173.29 218.42C174.667 215.572 176.416 212.925 178.014 210.198C182.036 203.327 186.127 196.482 190.121 189.597C190.327 189.101 190.697 188.688 191.172 188.426C191.648 188.164 192.2 188.067 192.739 188.152C194.116 188.274 195.493 188.22 196.871 188.247C198.086 188.668 199.393 188.766 200.659 188.53C202.325 188.53 203.813 188.53 204.942 190.029C205.438 190.481 206 190.859 206.609 191.149C208.221 192.243 209.832 193.35 211.457 194.43C211.633 194.533 211.778 194.679 211.877 194.855C211.977 195.03 212.027 195.228 212.022 195.429Z" fill="white" fill-opacity="0.15"/>
<path d="M120.452 131.627C121.035 131.973 121.731 132.084 122.395 131.938C123.014 131.938 123.634 131.938 124.254 131.938C125.411 132.032 126.775 131.465 127.67 132.235C128.565 133.004 129.488 133.666 130.425 134.341C130.48 134.366 130.529 134.403 130.569 134.448C130.609 134.493 130.639 134.546 130.657 134.603C130.676 134.66 130.681 134.72 130.675 134.78C130.668 134.839 130.648 134.897 130.618 134.948C130.495 135.071 130.336 135.151 130.163 135.178C129.98 135.199 129.795 135.199 129.612 135.178H104.75C104.379 134.538 103.843 134.004 103.195 133.632C102.547 133.26 101.81 133.062 101.059 133.058C99.1027 130.25 97.5325 127.213 95.7694 124.283C94.2818 121.826 92.808 119.369 91.4168 116.858C91.2393 116.419 90.9109 116.055 90.4884 115.828C90.0658 115.601 89.5757 115.526 89.1028 115.616C87.4195 115.724 85.7522 115.239 84.4012 114.249C83.0502 113.259 82.1042 111.829 81.7337 110.216C81.3698 108.66 81.5515 107.029 82.2496 105.586C82.9476 104.144 84.1213 102.974 85.5811 102.266C87.0409 101.557 88.7016 101.352 90.2953 101.682C91.8889 102.013 93.3224 102.86 94.3645 104.087C95.3364 105.196 95.9187 106.582 96.0254 108.041C96.132 109.5 95.7574 110.953 94.9568 112.187C94.5999 112.616 94.405 113.152 94.405 113.706C94.405 114.259 94.5999 114.796 94.9568 115.225C97.9228 120.139 100.838 125.089 103.703 130.075C103.912 130.563 104.275 130.973 104.738 131.245C105.201 131.517 105.741 131.637 106.279 131.587C111.017 131.519 115.742 131.6 120.452 131.627ZM92.9044 108.542C92.8804 107.507 92.453 106.521 91.7102 105.785C90.9673 105.05 89.9654 104.621 88.91 104.586C87.814 104.586 86.763 105.013 85.988 105.773C85.2131 106.532 84.7777 107.562 84.7777 108.636C84.7885 109.168 84.906 109.693 85.1237 110.18C85.3413 110.668 85.6548 111.108 86.0462 111.477C86.4376 111.845 86.8993 112.135 87.4049 112.328C87.9104 112.522 88.4499 112.616 88.9926 112.605C90.0449 112.54 91.0319 112.083 91.7515 111.327C92.471 110.572 92.8687 109.575 92.8631 108.542H92.9044Z" fill="white" fill-opacity="0.15"/>
<path d="M82.381 117.343C85.4388 122.487 88.4829 127.63 91.582 132.747C91.7538 133.069 91.8171 133.435 91.7626 133.794C91.7081 134.154 91.5388 134.486 91.279 134.745C88.9007 138.795 86.5132 142.845 84.1165 146.895C82.5738 149.488 81.0036 152.053 79.4471 154.618C79.4327 154.379 79.3537 154.148 79.2182 153.948C79.0826 153.749 78.8954 153.589 78.6758 153.484C77.8906 153.025 77.1331 152.512 76.3755 151.999C76.0185 151.83 75.7075 151.58 75.468 151.27C75.2286 150.96 75.0675 150.599 74.9981 150.217C75.0991 149.935 75.2187 149.66 75.3562 149.393C78.111 144.668 80.8658 139.943 83.7721 135.258C84.1488 134.765 84.3524 134.166 84.3524 133.55C84.3524 132.935 84.1488 132.335 83.7721 131.843C81.4994 128.224 79.3645 124.525 77.2433 120.826C75.9657 118.902 74.8155 116.9 73.7998 114.832L73.5518 114.414V114.292C73.556 114.172 73.5244 114.053 73.4608 113.95C73.3972 113.847 73.3044 113.764 73.1937 113.712C72.8138 113.297 72.5357 112.803 72.381 112.267C72.4637 111.929 72.505 111.457 73.0422 111.713C73.5794 111.97 73.9513 112.307 74.4196 112.591C77.0642 114.171 79.4058 116.263 82.381 117.343Z" fill="white" fill-opacity="0.15"/>
<path d="M14.2685 110.12C15.9076 106.88 17.9048 103.829 19.7781 100.67C20.7423 98.9873 21.7294 97.3178 22.7395 95.6618C22.7772 95.4227 22.8977 95.2035 23.0808 95.0413C23.2639 94.879 23.4985 94.7835 23.745 94.7708H25.7836H44.9432C45.8716 94.6152 46.8256 94.808 47.6154 95.3108C49.3363 96.6819 51.1443 97.9444 53.0286 99.0907C53.3022 99.2063 53.5381 99.3934 53.7106 99.6315C53.883 99.8695 53.9854 100.149 54.0065 100.441C53.3687 100.629 52.6978 100.684 52.0369 100.603H28.9103C28.2399 100.467 27.5424 100.552 26.9268 100.846L24.7643 104.423C22.8773 107.528 21.183 110.755 19.1445 113.765C17.3401 113.347 16.1004 111.997 14.5715 111.065C14.4468 110.943 14.3541 110.794 14.3013 110.629C14.2485 110.465 14.2373 110.29 14.2685 110.12Z" fill="white" fill-opacity="0.15"/>
<path d="M26.913 100.792C27.5287 100.499 28.2261 100.413 28.8965 100.549H51.968C52.6289 100.631 53.2999 100.575 53.9377 100.387C53.9166 100.096 53.8142 99.8159 53.6417 99.5778C53.4692 99.3397 53.2333 99.1527 52.9597 99.0371C51.0754 97.8908 49.2674 96.6282 47.5465 95.257C46.7567 94.7542 45.8027 94.5614 44.8744 94.717H25.7147H23.6761C24.2271 94.717 24.7781 94.6225 25.329 94.6225C39.3234 94.6225 53.3178 94.6225 67.3123 94.6225C67.8788 94.5707 68.4478 94.6922 68.9411 94.9702C69.4343 95.2482 69.8277 95.6691 70.0671 96.1751C73.8411 102.723 77.7116 109.216 81.5546 115.724C81.8576 116.25 82.1056 116.79 82.381 117.33C79.4059 116.25 77.0643 114.158 74.4059 112.578C73.9376 112.294 73.5106 111.93 73.0285 111.7C72.5464 111.471 72.4637 111.916 72.3673 112.254C70.2048 109.081 68.3591 105.706 66.4583 102.372C66.2134 101.832 65.7998 101.383 65.2773 101.09C64.7548 100.796 64.1506 100.673 63.5519 100.738C51.3344 100.806 39.1306 100.792 26.913 100.792Z" fill="white" fill-opacity="0.15"/>
<path d="M185.962 180.471C184.075 183.67 182.27 186.938 180.259 190.07C177.807 193.89 175.838 197.981 173.372 201.774C173.028 202.179 172.845 202.692 172.858 203.218C172.871 203.744 173.078 204.248 173.441 204.636C174.292 205.741 174.761 207.082 174.781 208.466C174.801 209.85 174.37 211.204 173.551 212.332C172.796 213.487 171.715 214.403 170.44 214.969C169.165 215.536 167.749 215.727 166.365 215.522C164.981 215.316 163.687 214.722 162.64 213.811C161.593 212.899 160.838 211.71 160.466 210.388C160.16 209.345 160.106 208.246 160.308 207.18C160.511 206.113 160.965 205.107 161.633 204.242C162.302 203.377 163.167 202.677 164.16 202.197C165.153 201.717 166.246 201.471 167.353 201.477C167.889 201.526 168.427 201.406 168.887 201.134C169.348 200.862 169.709 200.452 169.915 199.965C173.785 193.337 177.711 186.735 181.595 180.106C181.868 179.819 182.073 179.477 182.196 179.104C182.32 178.731 182.359 178.336 182.312 177.946C183.703 178.349 184.962 179.103 185.962 180.133C185.948 180.245 185.948 180.359 185.962 180.471ZM171.499 208.484C171.492 207.445 171.067 206.452 170.316 205.719C169.566 204.986 168.55 204.572 167.491 204.569C166.395 204.569 165.344 204.996 164.569 205.755C163.794 206.515 163.359 207.545 163.359 208.619C163.403 209.659 163.846 210.644 164.599 211.377C165.353 212.11 166.361 212.538 167.422 212.575C168.515 212.56 169.559 212.122 170.323 211.355C171.087 210.588 171.51 209.556 171.499 208.484Z" fill="white" fill-opacity="0.15"/>
<path d="M216.912 78.2473C216.778 77.8141 216.548 77.4153 216.238 77.0793C215.929 76.7432 215.547 76.4783 215.121 76.3032C213.923 75.5607 212.752 74.7777 211.609 73.9677C211.382 73.842 211.184 73.6715 211.027 73.467C210.871 73.2625 210.759 73.0285 210.7 72.7796C210.976 72.6036 211.286 72.4863 211.611 72.4351C211.936 72.384 212.269 72.4001 212.587 72.4826H231.719C232.047 72.5702 232.391 72.5865 232.727 72.5305C233.062 72.4746 233.381 72.3477 233.661 72.1586L239.405 62.5869C240.686 63.3834 241.995 64.1664 243.262 65.0034C243.67 65.3711 244.209 65.5653 244.763 65.5435C242.601 69.5936 240.08 73.5492 237.78 77.5723C237.643 77.84 237.426 78.0601 237.157 78.2026C236.889 78.3451 236.582 78.4031 236.278 78.3688L216.912 78.2473Z" fill="white" fill-opacity="0.15"/>
<path d="M185.962 180.471C185.948 180.359 185.948 180.246 185.962 180.133C191.719 180.133 197.463 180.133 203.221 180.133C204.102 180.133 205.521 180.619 205.783 179.836C206.127 178.783 204.488 178.662 203.882 177.973C203.776 177.913 203.675 177.845 203.579 177.771C203.307 177.404 202.93 177.124 202.497 176.965C202.063 176.807 201.591 176.777 201.141 176.88C196.687 176.88 192.233 176.88 187.78 176.88C187.481 176.954 187.17 176.966 186.866 176.915C186.563 176.863 186.273 176.75 186.017 176.583C195.576 176.583 205.121 176.583 214.681 176.583C215.252 176.673 215.837 176.568 216.339 176.286C216.841 176.003 217.228 175.56 217.435 175.03C218.186 173.651 219.397 172.564 220.866 171.953C222.334 171.341 223.972 171.241 225.507 171.669C227.074 172.05 228.465 172.935 229.46 174.181C230.454 175.428 230.994 176.965 230.994 178.547C230.994 180.129 230.454 181.666 229.46 182.913C228.465 184.159 227.074 185.044 225.507 185.426C223.965 185.839 222.325 185.721 220.861 185.092C219.397 184.463 218.198 183.361 217.463 181.969C217.257 181.44 216.869 180.999 216.366 180.72C215.863 180.441 215.277 180.344 214.708 180.444C205.08 180.498 195.521 180.471 185.962 180.471ZM223.579 174.585C223.05 174.585 222.527 174.687 222.039 174.885C221.551 175.083 221.108 175.373 220.735 175.739C220.361 176.106 220.065 176.54 219.863 177.018C219.661 177.497 219.557 178.009 219.557 178.527C219.557 179.045 219.661 179.557 219.863 180.035C220.065 180.514 220.361 180.948 220.735 181.314C221.108 181.68 221.551 181.971 222.039 182.169C222.527 182.367 223.05 182.469 223.579 182.469C224.127 182.49 224.674 182.399 225.185 182.203C225.696 182.007 226.16 181.71 226.548 181.329C226.936 180.949 227.24 180.494 227.44 179.993C227.64 179.492 227.732 178.956 227.711 178.419C227.678 177.376 227.225 176.388 226.451 175.671C225.676 174.955 224.643 174.569 223.579 174.598V174.585Z" fill="white" fill-opacity="0.15"/>
<path d="M244.501 24.9741C245.492 25.0231 246.436 25.4045 247.174 26.0542C249.019 27.4042 251.017 28.5922 252.917 29.9018C253.127 30.1132 253.406 30.2463 253.705 30.2784C254.004 30.3104 254.305 30.2393 254.556 30.0773C256.526 32.8719 258.041 35.923 259.846 38.8121C259.981 39.0153 260.048 39.2555 260.036 39.4981C260.023 39.7407 259.933 39.9732 259.777 40.1622C257.752 43.4833 255.92 46.9124 253.744 50.166C251.499 49.9905 250.025 48.5189 248.496 47.1554C249.322 45.3193 250.479 43.6723 251.443 41.9172C253.179 38.7986 253.193 40.0541 251.443 36.949C249.171 32.9394 246.65 29.1188 244.501 24.9741Z" fill="white" fill-opacity="0.15"/>
<path d="M189.267 4.41357C189.273 4.53185 189.306 4.64734 189.364 4.75108C190.711 6.20365 192.441 7.26402 194.364 7.81563C194.102 8.28813 193.868 8.78764 193.579 9.24664L182.243 28.2549C181.498 28.0388 180.808 27.6708 180.218 27.1749C179.231 26.4122 178.136 25.7938 176.967 25.3389L177.146 24.9743L177.408 24.5963C179.474 20.5463 181.898 16.7663 184.185 12.8647C185.838 10.0297 187.353 7.11361 189.267 4.41357Z" fill="white" fill-opacity="0.15"/>
<path d="M101.059 133.071C101.81 133.075 102.547 133.273 103.195 133.645C103.843 134.017 104.379 134.551 104.75 135.191L104.433 135.636L95.301 151.297C95.1325 151.623 94.9439 151.938 94.7363 152.242C94.4468 152.549 94.2861 152.951 94.2861 153.369C94.2861 153.787 94.4468 154.19 94.7363 154.496C95.6009 155.687 96.0482 157.12 96.0109 158.58C95.9737 160.041 95.4539 161.45 94.5297 162.597C93.9972 162.555 93.4871 162.368 93.0565 162.058C92.626 161.748 92.2919 161.327 92.0917 160.842C92.2156 160.572 92.3534 160.302 92.4636 160.018C92.8534 159.183 92.929 158.239 92.6769 157.355C92.4248 156.47 91.8612 155.701 91.0862 155.185C90.3489 154.683 89.4648 154.429 88.5677 154.464C87.6705 154.498 86.8091 154.817 86.1138 155.374C85.8575 155.716 85.5024 155.975 85.0945 156.116C83.9925 156.116 83.3176 155.306 82.3397 154.969C83.019 153.736 84.062 152.732 85.3324 152.089C86.6029 151.446 88.0417 151.193 89.4608 151.364C89.7891 151.416 90.1256 151.358 90.4157 151.198C90.7057 151.039 90.9323 150.788 91.0586 150.487C94.1991 145.087 97.3579 139.727 100.535 134.408C100.708 134.23 100.843 134.02 100.933 133.791C101.023 133.561 101.066 133.317 101.059 133.071Z" fill="white" fill-opacity="0.15"/>
<path d="M212.022 195.429C212.021 195.218 211.96 195.012 211.846 194.833C211.731 194.654 211.568 194.51 211.375 194.417C209.749 193.337 208.138 192.23 206.526 191.136C205.917 190.846 205.355 190.468 204.86 190.016C203.73 188.558 202.243 188.477 200.576 188.517C199.31 188.753 198.003 188.655 196.788 188.234C201.513 188.072 206.223 188.126 210.948 188.234C211.202 188.407 211.49 188.524 211.795 188.578C212.099 188.631 212.411 188.62 212.711 188.544C215.81 188.544 218.895 188.544 221.995 188.544C222.898 188.515 223.78 188.824 224.46 189.408C226.581 191.055 228.923 192.432 231.127 193.971C231.568 194.282 232.504 194.417 232.27 195.159C232.036 195.902 231.292 195.456 230.769 195.456L212.022 195.429Z" fill="white" fill-opacity="0.15"/>
<path d="M186.003 176.556C186.259 176.724 186.549 176.837 186.852 176.888C187.156 176.939 187.467 176.927 187.766 176.853C192.22 176.853 196.673 176.853 201.127 176.853C201.578 176.75 202.049 176.78 202.483 176.939C202.916 177.097 203.293 177.377 203.565 177.744C203.661 177.818 203.762 177.886 203.868 177.947C204.488 178.635 206.113 178.757 205.769 179.81C205.521 180.593 204.102 180.107 203.207 180.107C197.449 180.107 191.705 180.107 185.948 180.107C184.948 179.076 183.689 178.322 182.298 177.92C180.149 174.72 178.303 171.345 176.375 168.024C174.839 165.685 173.437 163.265 172.174 160.774L171.926 160.369C171.907 160.365 171.89 160.356 171.875 160.345C171.86 160.333 171.848 160.318 171.84 160.301C171.832 160.284 171.828 160.266 171.829 160.247C171.829 160.228 171.834 160.21 171.843 160.193C171.843 159.68 171.843 159.113 172.628 159.518C173.579 160.039 174.498 160.611 175.383 161.233C175.891 161.66 176.547 161.877 177.215 161.84L186.003 176.556Z" fill="white" fill-opacity="0.15"/>
<path d="M14.2685 110.121C14.2259 110.298 14.2301 110.483 14.2807 110.657C14.3313 110.832 14.4267 110.992 14.5578 111.12C16.0729 112.011 17.3126 113.361 19.1307 113.82C18.9241 114.252 18.7313 114.698 18.4834 115.17C16.5274 118.505 14.544 121.839 12.5881 125.174C10.9628 127.955 9.35119 130.763 7.73964 133.557C7.68037 133.236 7.54474 132.933 7.34373 132.672C7.14272 132.412 6.88198 132.202 6.58262 132.059C5.65977 131.492 4.77823 130.857 3.82783 130.304C3.61075 130.197 3.42635 130.036 3.29331 129.837C3.16027 129.637 3.08331 129.407 3.07025 129.17C3.29272 128.543 3.60834 127.951 4.00689 127.415C6.98208 122.339 9.96644 117.263 12.96 112.187C13.387 111.363 13.8415 110.715 14.2685 110.121Z" fill="white" fill-opacity="0.15"/>
<path d="M74.9845 150.216C75.0539 150.599 75.2149 150.96 75.4544 151.27C75.6938 151.58 76.0048 151.829 76.3619 151.998C77.1057 152.511 77.877 153.024 78.6621 153.483C78.8818 153.588 79.069 153.749 79.2045 153.948C79.3401 154.147 79.4191 154.378 79.4335 154.617C78.3535 156.846 77.0623 158.971 75.5767 160.963C75.0258 161.638 74.888 162.637 74.3784 163.393C73.3749 165.272 72.2333 167.077 70.9624 168.793C70.8513 169.187 70.6844 169.565 70.4666 169.914C69.4234 168.99 68.2987 168.158 67.1057 167.429C66.4879 167.033 66.049 166.419 65.8798 165.715C68.8091 160.468 71.844 155.302 74.9845 150.216Z" fill="white" fill-opacity="0.15"/>
<path d="M248.496 47.1558C250.038 48.5058 251.498 50.0044 253.744 50.1664C252.008 53.636 249.859 56.9167 247.917 60.2243C246.953 61.8984 245.906 63.532 244.887 65.1925C244.83 65.2477 244.792 65.3183 244.777 65.395V65.4896C244.223 65.5114 243.683 65.3172 243.275 64.9495C242.008 64.1125 240.713 63.3295 239.419 62.5329C241.65 58.6853 243.868 54.8376 246.127 51.0034C246.813 49.6625 247.605 48.3761 248.496 47.1558Z" fill="white" fill-opacity="0.15"/>
<path d="M176.967 25.3398C178.136 25.7948 179.231 26.4131 180.218 27.1757C180.808 27.6716 181.498 28.0396 182.243 28.2556C182.168 28.6773 181.983 29.0727 181.706 29.4031L176.003 38.8525C175.134 38.8252 174.304 38.4949 173.662 37.9211C172.806 37.0383 171.679 36.455 170.452 36.2607C172.532 32.5889 174.667 28.8766 176.967 25.3398Z" fill="white" fill-opacity="0.15"/>
<path d="M179.226 94.3115C180.604 94.5545 181.21 95.8776 182.477 96.1881C179.818 100.873 177.16 105.558 174.212 110.107C173.637 109.815 173.085 109.481 172.56 109.108C172.309 108.905 172.018 108.756 171.704 108.67C171.391 108.584 171.063 108.563 170.741 108.609C172.918 104.464 175.452 100.508 177.807 96.4581C178.169 95.6778 178.648 94.9544 179.226 94.3115Z" fill="white" fill-opacity="0.15"/>
<path d="M82.4637 154.969C83.3866 155.32 84.0615 156.184 85.2185 156.116C85.1359 156.521 85.0532 156.94 84.9568 157.345C84.7777 157.971 84.7589 158.631 84.9022 159.266C85.0454 159.901 85.3463 160.492 85.7781 160.986C86.2099 161.48 86.7593 161.862 87.3776 162.098C87.996 162.334 88.6643 162.417 89.3232 162.34C90.4221 162.168 91.4306 161.64 92.1882 160.841C92.3884 161.327 92.7225 161.748 93.1531 162.058C93.5836 162.368 94.0937 162.554 94.6262 162.596C93.6182 163.987 92.1237 164.966 90.4271 165.347C88.7305 165.728 86.9503 165.484 85.4252 164.662C83.9166 163.864 82.7464 162.567 82.1233 161.001C81.5002 159.436 81.4646 157.705 82.023 156.116C82.0918 155.738 82.2984 155.36 82.4637 154.969Z" fill="white" fill-opacity="0.15"/>
<path d="M177.422 24.5972L177.16 24.9756C177.144 24.8914 177.162 24.8043 177.211 24.7334C177.261 24.6625 177.336 24.6135 177.422 24.5972Z" fill="white" fill-opacity="0.15"/>
<path d="M244.791 65.394C244.806 65.3174 244.844 65.247 244.9 65.1919V65.3267L244.791 65.394Z" fill="white" fill-opacity="0.15"/>
<path d="M189.667 3.73926C189.672 3.83036 189.648 3.92067 189.598 3.99802C189.549 4.07537 189.477 4.13606 189.391 4.17187C189.382 4.08006 189.405 3.9879 189.454 3.90969C189.504 3.83147 189.579 3.77156 189.667 3.73926Z" fill="white" fill-opacity="0.15"/>
<path d="M190.066 3.06348L189.819 3.46875C189.806 3.42615 189.803 3.38153 189.809 3.33763C189.815 3.29373 189.83 3.25149 189.853 3.21352C189.876 3.17555 189.907 3.14265 189.944 3.11684C189.981 3.09104 190.022 3.07287 190.066 3.06348Z" fill="white" fill-opacity="0.15"/>
<path d="M171.912 160.409L172.16 160.815C172.081 160.781 172.014 160.724 171.97 160.651C171.925 160.578 171.905 160.494 171.912 160.409Z" fill="white" fill-opacity="0.15"/>
<path d="M73.5381 114.295C73.4275 114.242 73.3347 114.159 73.2711 114.056C73.2075 113.952 73.1759 113.833 73.1801 113.712C73.2907 113.764 73.3835 113.848 73.4471 113.951C73.5107 114.055 73.5423 114.174 73.5381 114.295Z" fill="white" fill-opacity="0.15"/>
<path d="M73.8549 114.82C73.7717 114.787 73.7021 114.728 73.6571 114.652C73.6121 114.576 73.5945 114.488 73.607 114.401L73.8549 114.82Z" fill="white" fill-opacity="0.15"/>
</svg>
