<svg width="400" height="508" viewBox="0 0 400 508" fill="none" xmlns="http://www.w3.org/2000/svg">
<g clip-path="url(#clip0)">
<path d="M328.458 120.537C329.242 118.941 330.111 117.389 331.061 115.886C331.156 115.727 331.295 115.599 331.461 115.518C331.628 115.437 331.814 115.406 331.998 115.43H332.92C347.117 115.43 361.309 115.43 375.496 115.43C375.974 115.368 376.459 115.457 376.883 115.685C377.308 115.913 377.651 116.267 377.865 116.7C384.945 129.085 392.057 141.452 399.201 153.801C399.297 154.277 399.573 154.698 399.972 154.974V155.719C399.642 155.719 399.642 155.982 399.518 156.189C396.763 161.02 394.008 165.933 391.061 170.668C390.133 170.722 389.219 170.426 388.499 169.839C387.562 169.149 386.543 168.57 385.565 167.948C387.493 164.125 389.793 160.509 391.928 156.81C392.243 156.369 392.413 155.841 392.413 155.298C392.413 154.756 392.243 154.228 391.928 153.787C386.051 143.665 380.216 133.543 374.422 123.422C374.186 122.899 373.795 122.463 373.301 122.174C372.808 121.884 372.236 121.756 371.667 121.807C360 121.807 348.334 121.807 336.653 121.807C336.157 121.807 335.661 121.807 335.166 121.807C334.931 121.807 334.615 121.807 334.546 122.083C334.38 122.98 333.485 123.463 333.292 124.305C332.53 124.065 331.823 123.676 331.212 123.159C330.252 122.396 329.184 121.777 328.044 121.324L328.223 120.937L328.458 120.537Z" fill="white" fill-opacity="0.5"/>
<path d="M-63 135.513C-62.7613 135.482 -62.538 135.377 -62.3605 135.214C-62.1831 135.051 -62.0601 134.837 -62.0083 134.602C-61.4201 133.483 -60.7526 132.409 -60.011 131.386C-59.998 131.629 -59.921 131.864 -59.788 132.068C-59.655 132.271 -59.4705 132.436 -59.2535 132.545C-58.3306 133.111 -57.4491 133.76 -56.4987 134.34C-56.1993 134.486 -55.9386 134.701 -55.7376 134.967C-55.5365 135.233 -55.4009 135.543 -55.3416 135.872C-53.5735 139.479 -51.6148 142.99 -49.4739 146.389C-46.3472 151.634 -43.62 157.1 -40.3417 162.248C-39.0745 164.236 -37.9451 166.306 -36.8294 168.376C-36.6622 168.734 -36.3877 169.029 -36.0444 169.222C-35.7011 169.416 -35.3061 169.496 -34.9148 169.453C-22.8946 169.453 -10.8791 169.453 1.13185 169.453C1.43384 169.525 1.74995 169.508 2.04285 169.405C2.33575 169.303 2.59319 169.118 2.78473 168.873C2.9539 169.594 3.39277 170.221 4.01061 170.626C5.20367 171.371 6.32838 172.221 7.37148 173.166C7.37943 173.225 7.37943 173.286 7.37148 173.345C6.13181 175.775 6.13181 175.775 3.4872 175.775C-10.2868 175.775 -23.9506 175.775 -37.6696 175.775C-38.3257 175.846 -38.9876 175.708 -39.5612 175.381C-40.1349 175.054 -40.5911 174.554 -40.8652 173.953C-47.7613 161.862 -54.7035 149.798 -61.6915 137.763C-61.7844 137.433 -61.9451 137.126 -62.1634 136.862C-62.3816 136.598 -62.6525 136.383 -62.9587 136.23V135.513H-63Z" fill="white" fill-opacity="0.5"/>
<path d="M174.271 0C177.311 5.33696 180.35 10.6739 183.39 16.0109C186.007 20.5795 188.651 25.1343 191.268 29.7029C191.345 29.8715 191.405 30.0472 191.448 30.2274C191.196 30.393 190.895 30.4657 190.596 30.433C190.297 30.4002 190.018 30.2641 189.808 30.048C187.908 28.6677 185.91 27.5359 184.065 26.1143C183.327 25.45 182.383 25.0602 181.393 25.0101C181.021 24.4304 180.635 23.8783 180.304 23.2848L170.539 6.36292C170.274 6.14871 169.961 6.00273 169.628 5.93776C169.294 5.87279 168.949 5.89083 168.624 5.99027C164.12 5.99027 159.602 5.99027 155.098 5.99027C154.829 6.06501 154.547 6.07775 154.273 6.02755C153.998 5.97734 153.739 5.8655 153.514 5.70041C151.916 3.93369 149.74 2.93991 147.866 1.55967C147.559 1.41846 147.292 1.20349 147.088 0.933819C146.883 0.664149 146.749 0.348125 146.696 0.0137949H174.244L174.271 0Z" fill="white" fill-opacity="0.5"/>
<path d="M146.71 0C146.763 0.33433 146.897 0.650354 147.102 0.920024C147.306 1.1897 147.573 1.40467 147.88 1.54587C149.754 2.92612 151.93 3.90609 153.528 5.68661C153.753 5.85171 154.012 5.96355 154.287 6.01375C154.561 6.06395 154.843 6.0512 155.112 5.97645C159.616 5.97645 164.134 5.97645 168.638 5.97645C168.963 5.87701 169.308 5.859 169.641 5.92397C169.975 5.98894 170.288 6.13492 170.552 6.34912C158.147 6.34912 145.75 6.34912 133.363 6.34912C132.938 6.27963 132.503 6.35645 132.127 6.56704C131.752 6.77763 131.459 7.10954 131.296 7.50853C129.374 6.94457 127.644 5.86048 126.297 4.37538C126.238 4.26932 126.205 4.15124 126.2 4.03032C126.189 3.98094 126.196 3.92933 126.218 3.88411C126.241 3.8389 126.278 3.8028 126.324 3.78186C126.41 3.74529 126.482 3.68336 126.531 3.60438C126.58 3.52541 126.604 3.43321 126.6 3.3402C126.585 3.28018 126.588 3.21735 126.608 3.15882C126.627 3.10029 126.662 3.04839 126.71 3.00893L126.971 2.62246C127.15 1.67009 128.087 1.04897 128.101 0.0275898H146.723L146.71 0Z" fill="white" fill-opacity="0.5"/>
<path d="M241.309 249.714C239.34 246.843 237.769 243.738 236.02 240.743C233.265 236.133 230.648 231.523 228.045 226.871C227.859 226.433 227.534 226.069 227.121 225.835C226.708 225.6 226.229 225.508 225.759 225.574C224.033 225.623 222.349 225.036 221.027 223.924C219.704 222.813 218.834 221.253 218.582 219.542C218.285 217.835 218.607 216.078 219.492 214.589C220.376 213.1 221.764 211.978 223.403 211.426C225.035 210.864 226.815 210.914 228.413 211.566C230.011 212.219 231.319 213.429 232.095 214.974C232.808 216.154 233.121 217.536 232.984 218.91C232.847 220.283 232.269 221.576 231.337 222.592C231.099 222.796 230.945 223.081 230.905 223.392C230.864 223.703 230.939 224.018 231.117 224.276C231.309 224.594 231.489 224.925 231.668 225.243C236.254 233.207 240.882 241.157 245.442 249.148C245.663 249.612 246.024 249.995 246.473 250.243C246.923 250.49 247.439 250.59 247.948 250.529C259.684 250.529 271.364 250.529 283.141 250.529C284.835 250.529 284.835 250.529 285.193 249.148C286.058 245.814 288.177 242.945 291.108 241.143C294.038 239.341 297.552 238.748 300.91 239.487C302.549 239.859 303.554 239.763 304.284 238.244C304.263 238.478 304.306 238.714 304.408 238.925C304.51 239.137 304.667 239.316 304.863 239.445C305.626 239.907 306.31 240.49 306.888 241.171C306.751 241.483 306.734 241.835 306.841 242.158C306.948 242.482 307.171 242.754 307.466 242.924C309.807 245.113 311.242 248.103 311.488 251.302C311.742 253.188 311.547 255.108 310.92 256.904C310.293 258.701 309.251 260.323 307.879 261.64C306.502 263.02 306.502 263.02 307.466 264.759C313.554 275.304 319.656 285.849 325.689 296.422C325.94 297.004 326.368 297.491 326.913 297.813C327.457 298.136 328.09 298.277 328.719 298.216C334.491 298.12 340.262 298.216 346.033 298.216C346.57 298.3 347.119 298.199 347.591 297.931C348.064 297.663 348.432 297.243 348.637 296.739C349.421 295.196 350.745 293.998 352.357 293.374C353.969 292.75 355.754 292.744 357.369 293.358C358.953 293.936 360.286 295.049 361.138 296.506C361.991 297.962 362.31 299.671 362.041 301.338C361.772 303.006 360.931 304.527 359.664 305.639C358.396 306.752 356.781 307.388 355.097 307.436C353.719 307.501 352.354 307.151 351.178 306.43C350.001 305.709 349.068 304.651 348.499 303.392C348.345 302.965 348.048 302.603 347.659 302.369C347.27 302.136 346.813 302.043 346.364 302.109C340.345 302.109 334.325 302.109 328.306 302.109C327.626 301.992 326.927 302.151 326.364 302.55C325.909 301.032 324.422 300.839 323.334 300.149L312.893 282.095L303.94 266.636C302.962 264.938 303.1 265.256 301.502 265.615C298.103 266.511 294.489 266.029 291.444 264.272C288.398 262.514 286.167 259.624 285.235 256.229C284.766 254.6 284.766 254.587 283.003 254.587H248.568C247.893 254.587 247.191 254.587 246.53 254.518C246.805 253.993 247.687 254.518 247.907 253.758C246.345 252.435 244.682 251.235 242.935 250.17C242.473 249.812 241.89 249.649 241.309 249.714ZM307.631 252.64C307.69 251.362 307.492 250.084 307.047 248.884C306.602 247.684 305.92 246.586 305.042 245.656C304.165 244.725 303.109 243.982 301.938 243.47C300.767 242.958 299.505 242.688 298.227 242.676C296.949 242.664 295.683 242.91 294.502 243.4C293.322 243.89 292.252 244.613 291.357 245.526C290.462 246.44 289.759 247.524 289.292 248.716C288.825 249.908 288.602 251.181 288.637 252.461C288.704 254.925 289.723 257.267 291.478 258.994C293.233 260.721 295.588 261.7 298.048 261.723C300.508 261.746 302.881 260.813 304.668 259.119C306.455 257.425 307.517 255.103 307.631 252.64ZM354.849 296.022C353.774 296.054 352.755 296.504 352.007 297.277C351.258 298.051 350.84 299.085 350.84 300.162C350.761 300.754 350.811 301.355 350.985 301.926C351.16 302.496 351.455 303.022 351.851 303.468C352.248 303.913 352.735 304.268 353.281 304.507C353.827 304.746 354.417 304.863 355.013 304.852C355.608 304.841 356.194 304.701 356.73 304.442C357.267 304.183 357.741 303.811 358.12 303.351C358.5 302.891 358.776 302.355 358.929 301.778C359.082 301.202 359.109 300.599 359.008 300.011C358.969 298.934 358.513 297.915 357.736 297.171C356.959 296.426 355.924 296.014 354.849 296.022ZM229.767 218.438C229.767 217.354 229.343 216.313 228.586 215.539C227.829 214.765 226.799 214.319 225.717 214.297C225.126 214.199 224.52 214.232 223.942 214.392C223.364 214.552 222.828 214.837 222.371 215.225C221.914 215.614 221.547 216.098 221.295 216.643C221.043 217.188 220.912 217.782 220.912 218.383C220.912 218.984 221.043 219.577 221.295 220.122C221.547 220.667 221.914 221.151 222.371 221.54C222.828 221.929 223.364 222.213 223.942 222.373C224.52 222.534 225.126 222.566 225.717 222.468C226.78 222.447 227.794 222.017 228.548 221.266C229.302 220.516 229.739 219.503 229.767 218.438Z" fill="white" fill-opacity="0.5"/>
<path d="M120.194 419.512C120.494 419.131 120.657 418.659 120.657 418.173C120.657 417.688 120.494 417.216 120.194 416.835C113.969 406.106 107.77 395.358 101.6 384.592C100.814 383.212 100.801 383.212 99.3268 383.598C97.6137 384.069 95.8245 384.194 94.0629 383.966C92.3012 383.738 90.6023 383.161 89.0647 382.27C87.5271 381.379 86.1813 380.191 85.1056 378.775C84.0298 377.358 83.2455 375.742 82.798 374.019C82.3848 372.639 82.3848 372.57 80.9936 372.57H43.239C42.9985 372.514 42.7482 372.516 42.5087 372.576C42.2692 372.636 42.0474 372.752 41.8616 372.915C41.1521 372.802 40.4939 372.474 39.9745 371.977C39.5268 371.581 38.9463 371.369 38.3492 371.383C38.4758 371.102 38.5234 370.791 38.487 370.485C38.4506 370.178 38.3315 369.888 38.1426 369.644C34.9746 364.123 31.7928 358.685 28.6798 353.178C28.4817 352.838 28.1775 352.572 27.8141 352.423C27.4507 352.273 27.0483 352.247 26.6688 352.35C24.8859 352.457 23.1271 351.894 21.7363 350.771C20.3455 349.648 19.4227 348.045 19.1482 346.277C18.9945 345.303 19.0405 344.308 19.2835 343.353C19.5265 342.398 19.9614 341.503 20.5615 340.722C21.1616 339.941 21.9144 339.291 22.7737 338.812C23.6331 338.333 24.581 338.034 25.5595 337.935C26.538 337.835 27.5265 337.936 28.4645 338.233C29.4026 338.529 30.2704 339.014 31.0151 339.658C31.7597 340.302 32.3654 341.091 32.7952 341.977C33.2249 342.864 33.4697 343.829 33.5145 344.813C33.6056 346.443 33.1176 348.052 32.1371 349.354C31.8989 349.595 31.7574 349.915 31.7396 350.254C31.7218 350.592 31.829 350.926 32.0407 351.19C35.2271 356.665 38.3905 362.149 41.531 367.643C41.6929 367.971 41.9516 368.241 42.272 368.416C42.5924 368.591 42.9589 368.663 43.3216 368.623C55.8468 368.623 68.3766 368.623 80.9109 368.623C82.3985 368.623 82.4399 368.623 82.8393 367.049C83.7746 363.626 86.0227 360.713 89.0933 358.944C92.164 357.175 95.8079 356.695 99.2304 357.608C100.69 357.995 100.69 357.967 101.531 356.711C101.638 356.563 101.753 356.42 101.875 356.283C102.666 357.279 103.751 357.998 104.974 358.34C104.217 359.527 104.409 360.341 105.484 361.432C107.853 363.898 109.183 367.184 109.198 370.607C109.214 374.031 107.913 377.329 105.566 379.816C105.323 380.096 105.06 380.359 104.781 380.603C104.673 380.665 104.58 380.749 104.509 380.851C104.437 380.953 104.389 381.07 104.368 381.193C104.347 381.316 104.353 381.441 104.387 381.561C104.42 381.682 104.48 381.793 104.561 381.887C104.768 382.191 104.919 382.536 105.112 382.867C111.283 393.568 117.444 404.27 123.597 414.971C123.782 415.383 124.092 415.726 124.483 415.951C124.873 416.177 125.325 416.273 125.773 416.227C131.788 416.227 137.802 416.227 143.817 416.227C144.313 416.303 144.821 416.208 145.256 415.957C145.692 415.706 146.029 415.315 146.214 414.847C146.781 413.622 147.706 412.599 148.867 411.913C150.029 411.228 151.371 410.913 152.715 411.01C154.027 410.998 155.315 411.362 156.428 412.059C157.541 412.756 158.432 413.757 158.996 414.944C159.861 416.624 160.035 418.577 159.478 420.384C158.922 422.19 157.681 423.706 156.021 424.605C155.209 425.068 154.313 425.363 153.386 425.474C152.459 425.585 151.519 425.51 150.622 425.253C149.724 424.996 148.886 424.562 148.158 423.977C147.429 423.392 146.825 422.667 146.379 421.845C146.14 421.262 145.709 420.778 145.158 420.474C144.607 420.17 143.968 420.065 143.349 420.175C137.577 420.175 131.82 420.175 126.048 420.175C125.685 420.091 125.308 420.088 124.944 420.167C124.58 420.246 124.237 420.404 123.941 420.63C123.635 420.665 123.324 420.636 123.03 420.543C122.736 420.45 122.464 420.297 122.233 420.092C121.652 419.645 120.923 419.437 120.194 419.512ZM95.8282 380.065C97.6976 380.057 99.5226 379.493 101.072 378.445C102.622 377.397 103.826 375.912 104.534 374.178C105.241 372.444 105.419 370.539 105.045 368.704C104.671 366.868 103.763 365.185 102.434 363.867C101.105 362.549 99.4165 361.656 97.5811 361.3C95.7458 360.945 93.8463 361.142 92.1231 361.869C90.3999 362.595 88.9305 363.817 87.9007 365.381C86.8709 366.944 86.327 368.778 86.3379 370.652C86.3525 373.16 87.3601 375.561 89.1395 377.326C90.9189 379.091 93.3245 380.076 95.8282 380.065ZM22.2611 345.062C22.2611 346.16 22.6965 347.213 23.4714 347.99C24.2464 348.766 25.2974 349.203 26.3934 349.203C27.4624 349.17 28.4802 348.736 29.2454 347.987C30.0106 347.238 30.4674 346.229 30.5256 345.159C30.5267 344.093 30.1179 343.068 29.3842 342.297C28.6505 341.526 27.6484 341.068 26.5862 341.018C26.0306 340.969 25.471 341.038 24.9437 341.221C24.4164 341.403 23.9332 341.694 23.5255 342.075C23.1177 342.457 22.7944 342.919 22.5766 343.434C22.3588 343.948 22.2513 344.503 22.2611 345.062ZM152.508 422.231C153.604 422.231 154.655 421.795 155.43 421.019C156.205 420.242 156.641 419.189 156.641 418.091C156.616 417.026 156.183 416.011 155.431 415.258C154.68 414.505 153.667 414.071 152.605 414.047C151.522 414.034 150.478 414.453 149.703 415.211C148.928 415.969 148.485 417.005 148.473 418.091C148.46 419.176 148.878 420.222 149.635 420.999C150.391 421.775 151.425 422.219 152.508 422.231Z" fill="white" fill-opacity="0.5"/>
<path d="M16.5174 394.199C13.7626 399.14 10.8977 404.067 8.12907 409.022C7.96513 409.316 7.71371 409.551 7.40997 409.695C7.10622 409.838 6.76529 409.883 6.43486 409.823H-4.41906C-15.1628 409.823 -25.8927 409.823 -36.6365 409.823C-37.1665 409.87 -37.6979 409.749 -38.1552 409.476C-38.6126 409.204 -38.9728 408.794 -39.1847 408.305C-46.2094 396.011 -53.2801 383.741 -60.3967 371.493C-60.7187 371.058 -60.8926 370.531 -60.8926 369.989C-60.8926 369.447 -60.7187 368.92 -60.3967 368.485C-58.8815 366.069 -57.4766 363.598 -56.0303 361.142C-54.5377 362.563 -52.832 363.741 -50.9752 364.634C-51.5279 366.096 -52.2539 367.486 -53.1378 368.774C-53.4085 369.142 -53.5545 369.587 -53.5545 370.044C-53.5545 370.501 -53.4085 370.946 -53.1378 371.314C-47.1139 381.675 -41.1452 392.055 -35.2316 402.452C-35.0446 402.832 -34.743 403.143 -34.3696 403.341C-33.9963 403.54 -33.5702 403.615 -33.1517 403.557C-21.2142 403.557 -9.2767 403.557 2.66079 403.557C3.08329 403.607 3.51093 403.522 3.8822 403.314C4.25346 403.106 4.5492 402.785 4.72689 402.397C6.00787 400.051 7.41283 397.773 8.70758 395.496C9.46412 394.019 10.3249 392.599 11.2833 391.245C11.8908 391.247 12.4773 391.467 12.9362 391.866C14.0744 392.726 15.271 393.505 16.5174 394.199Z" fill="white" fill-opacity="0.5"/>
<path d="M147.853 191.896C148.473 191.896 149.092 191.813 149.698 191.813C165.263 191.813 180.828 191.813 196.392 191.813C196.988 191.751 197.589 191.88 198.108 192.179C198.627 192.479 199.039 192.935 199.285 193.483C207.393 207.654 215.538 221.801 223.72 235.926C223.995 236.409 224.216 236.919 224.464 237.416C223.59 237.455 222.732 237.17 222.053 236.616C219.767 235.015 217.453 233.483 215.166 231.895C214.553 231.473 213.898 231.117 213.21 230.833C212.563 230.557 212.301 230.929 212.219 231.523C211.892 231.237 211.637 230.877 211.475 230.474C205.896 220.812 200.29 211.15 194.781 201.406C194.521 200.83 194.087 200.352 193.541 200.037C192.995 199.722 192.363 199.588 191.737 199.653C172.747 199.717 153.757 199.717 134.767 199.653C134.024 199.653 133.28 199.653 132.536 199.653C132.824 199.476 133.143 199.358 133.477 199.306C133.81 199.254 134.15 199.268 134.478 199.349C139.285 199.349 144.12 199.349 148.9 199.349H167.66C168.183 199.349 169.037 199.639 169.161 199.046C169.285 198.452 168.459 198.148 168.018 197.831C165.814 196.257 163.472 194.85 161.351 193.166C160.671 192.569 159.79 192.253 158.886 192.282C155.787 192.282 152.701 192.282 149.602 192.282C149.3 192.348 148.987 192.347 148.685 192.28C148.383 192.214 148.099 192.083 147.853 191.896Z" fill="white" fill-opacity="0.5"/>
<path d="M125.842 433.646C126.572 431.921 127.66 430.403 128.597 428.76C128.689 428.528 128.855 428.334 129.069 428.206C129.284 428.079 129.534 428.026 129.781 428.056C130.208 428.056 130.649 428.056 131.09 428.056C144.988 428.056 158.886 428.056 172.784 428.056C173.44 427.996 174.098 428.145 174.664 428.482C175.231 428.82 175.677 429.327 175.938 429.933C182.825 441.914 189.712 453.839 196.599 465.82C197.797 467.89 197.811 467.89 196.599 469.961C196.379 470.333 196.117 470.678 195.869 471.037C194.541 470.404 193.281 469.636 192.109 468.746C191.656 468.322 191.062 468.081 190.442 468.07C190.334 467.782 190.21 467.501 190.07 467.228C184.009 456.692 177.958 446.156 171.916 435.62C171.713 435.214 171.39 434.881 170.99 434.669C170.59 434.456 170.133 434.374 169.685 434.433C158.335 434.433 146.971 434.516 135.621 434.433C133.555 434.433 132.04 434.737 131.214 436.752C130.607 436.481 130.038 436.133 129.519 435.717C128.484 434.732 127.22 434.021 125.842 433.646Z" fill="white" fill-opacity="0.5"/>
<path d="M176.613 504.301C176.26 504.79 175.955 505.312 175.704 505.861C175.194 507.6 174.891 507.724 173.045 507.724H139.988C136.82 507.724 133.666 507.724 130.497 507.724C130.049 507.783 129.593 507.699 129.194 507.484C128.796 507.268 128.476 506.932 128.28 506.523C121.136 494.027 113.959 481.55 106.751 469.091C106.483 468.759 106.336 468.345 106.336 467.918C106.336 467.49 106.483 467.076 106.751 466.744C107.646 465.488 108.211 463.984 109.175 462.797C109.717 462.785 110.256 462.887 110.757 463.096C111.257 463.305 111.709 463.617 112.082 464.011C112.894 464.591 113.555 465.488 114.726 465.392C114.505 465.902 114.248 466.396 113.955 466.869C113.73 467.159 113.609 467.516 113.609 467.883C113.609 468.25 113.73 468.607 113.955 468.898C120.208 479.691 126.448 490.494 132.674 501.306C132.929 501.479 133.219 501.595 133.523 501.648C133.827 501.7 134.138 501.687 134.437 501.609H169.203C169.813 501.738 170.449 501.656 171.007 501.375L171.365 501.223C172.019 501.358 172.635 501.636 173.169 502.037C174.299 502.783 175.208 503.928 176.613 504.301Z" fill="white" fill-opacity="0.5"/>
<path d="M329.987 310.252C330.008 310.032 330.112 309.829 330.279 309.685C330.446 309.541 330.662 309.467 330.882 309.479H332.19C346.212 309.479 360.234 309.479 374.256 309.479C374.818 309.423 375.384 309.541 375.877 309.817C376.369 310.094 376.765 310.515 377.011 311.025C383.916 323.107 390.859 335.165 397.837 347.201C398.085 347.629 398.306 348.085 398.581 348.499C398.751 348.72 398.843 348.992 398.843 349.272C398.843 349.551 398.751 349.823 398.581 350.044C398.099 350.981 397.542 351.876 396.915 352.722C395.565 351.555 394.139 350.481 392.645 349.506C392.361 349.39 392.054 349.342 391.749 349.368L378.774 326.76C376.887 323.475 374.986 320.204 373.127 316.905C372.988 316.526 372.724 316.206 372.378 316C372.031 315.794 371.624 315.713 371.226 315.773C370.795 315.801 370.362 315.801 369.931 315.773H334.064C335.331 314.917 335.345 314.807 334.188 313.965C333.031 313.123 331.998 312.433 330.909 311.66C330.622 311.56 330.376 311.368 330.209 311.113C330.042 310.859 329.964 310.556 329.987 310.252Z" fill="white" fill-opacity="0.5"/>
<path d="M167.536 313.827C166.985 313.827 166.42 313.827 165.869 313.827C153.831 313.827 141.792 313.827 129.767 313.827C129.171 313.881 128.572 313.745 128.057 313.438C127.543 313.13 127.138 312.667 126.902 312.115C120.993 301.764 115.015 291.412 109.065 281.115C108.762 280.577 108.5 280.011 108.225 279.473C108.847 279.394 109.476 279.551 109.988 279.914C111.682 281.046 113.363 282.178 115.029 283.351C116.609 284.536 118.266 285.615 119.988 286.581C120.387 286.788 120.787 287.009 121.062 286.415C121.496 286.856 121.842 287.376 122.082 287.947C125.236 293.399 128.404 298.824 131.475 304.317C131.715 304.867 132.123 305.327 132.64 305.63C133.158 305.933 133.758 306.063 134.354 306.001C146.861 306.001 159.368 306.001 171.875 306.001C172.55 306.001 173.252 306.001 173.913 306.001C173.371 306.312 172.733 306.411 172.123 306.277H161.709C161.282 306.277 160.842 306.277 160.415 306.277C160.266 306.23 160.106 306.233 159.96 306.286C159.813 306.338 159.688 306.437 159.602 306.567C159.561 306.75 159.586 306.941 159.672 307.107C159.757 307.274 159.898 307.405 160.07 307.478C160.304 307.671 160.594 307.809 160.855 307.975C162.729 309.272 164.602 310.597 166.489 311.881C166.858 312.037 167.163 312.316 167.354 312.67C167.544 313.023 167.608 313.432 167.536 313.827Z" fill="white" fill-opacity="0.5"/>
<path d="M111.159 112.048C109.148 115.596 107.109 119.129 105.139 122.704C104.685 123.546 103.638 124.084 103.762 125.202C103.886 126.32 104.905 126.583 105.47 127.328C107.142 129.307 108.203 131.732 108.523 134.305C108.844 136.879 108.41 139.49 107.274 141.82C106.536 143.245 105.573 144.54 104.423 145.658C104.265 145.774 104.133 145.923 104.037 146.094C103.94 146.266 103.882 146.456 103.865 146.652C103.848 146.848 103.873 147.045 103.938 147.231C104.004 147.417 104.108 147.586 104.244 147.728C106.903 152.283 109.52 156.851 112.15 161.42C112.825 162.593 113.528 163.808 114.12 164.995C113.452 165.033 112.796 164.81 112.288 164.374C111.403 163.738 110.484 163.153 109.533 162.621C108.79 162.193 108.748 162.786 108.748 163.311C106.503 159.888 104.616 156.244 102.536 152.738C101.93 151.731 101.324 150.709 100.787 149.66C100.721 149.48 100.618 149.315 100.485 149.176C100.352 149.037 100.192 148.928 100.014 148.855C99.8364 148.783 99.6455 148.748 99.4536 148.753C99.2617 148.759 99.0731 148.804 98.8999 148.887C95.9668 149.805 92.8014 149.629 89.9881 148.39C88.0852 147.61 86.3906 146.395 85.0395 144.842C83.6883 143.289 82.7179 141.442 82.2057 139.446C81.8063 138.066 82.2058 138.066 80.36 138.066H42.2335C41.9238 138.083 41.6156 138.12 41.3107 138.177L41.6275 137.721H66.4896C66.6726 137.743 66.8575 137.743 67.0405 137.721C67.2133 137.694 67.3727 137.612 67.4951 137.486C67.5257 137.434 67.5451 137.375 67.5519 137.314C67.5587 137.253 67.5529 137.192 67.5348 137.133C67.5167 137.075 67.4866 137.021 67.4466 136.975C67.4066 136.929 67.3574 136.891 67.3022 136.865C66.3656 136.175 65.429 135.485 64.5474 134.712C63.6659 133.939 62.2885 134.505 61.1315 134.409C60.5117 134.409 59.8918 134.409 59.272 134.409C58.608 134.558 57.9119 134.445 57.3299 134.091C60.3739 134.091 63.4042 134.022 66.4483 134.008H80.0294C81.765 134.008 81.765 134.008 82.2471 132.338C83.067 129.443 84.831 126.906 87.2576 125.132C89.6841 123.358 92.6336 122.45 95.6354 122.552C96.7554 122.569 97.866 122.759 98.9274 123.118C99.0888 123.204 99.2668 123.254 99.4492 123.264C99.6316 123.275 99.8141 123.245 99.9841 123.179C100.154 123.112 100.308 123.009 100.435 122.877C100.561 122.745 100.658 122.587 100.718 122.414C102.591 119.06 104.561 115.748 106.462 112.394C106.764 111.716 107.173 111.091 107.674 110.544C107.996 110.497 108.324 110.518 108.637 110.606C108.95 110.694 109.241 110.847 109.492 111.055C110.022 111.427 110.58 111.759 111.159 112.048ZM104.671 135.954C104.677 134.711 104.436 133.478 103.964 132.328C103.492 131.177 102.798 130.132 101.921 129.252C101.044 128.372 100.001 127.674 98.8542 127.199C97.7069 126.725 96.4772 126.482 95.236 126.486C92.7283 126.489 90.3234 127.485 88.5438 129.255C86.7642 131.025 85.7537 133.428 85.7319 135.941C85.6824 137.217 85.8904 138.491 86.3435 139.685C86.7967 140.879 87.4856 141.969 88.3691 142.89C89.2525 143.811 90.3124 144.544 91.4851 145.045C92.6579 145.546 93.9195 145.805 95.1944 145.805C96.4693 145.806 97.7312 145.55 98.9047 145.05C100.078 144.551 101.139 143.82 102.024 142.9C102.909 141.98 103.599 140.891 104.054 139.698C104.509 138.504 104.719 137.231 104.671 135.954Z" fill="white" fill-opacity="0.5"/>
<path d="M119.974 324.344C117.531 320.167 115.089 315.989 112.646 311.812C110.277 307.671 107.894 303.654 105.594 299.527C105.395 299.058 105.047 298.668 104.603 298.418C104.159 298.168 103.646 298.073 103.142 298.147C101.899 298.194 100.665 297.919 99.5594 297.348C98.4536 296.777 97.5134 295.93 96.8296 294.889C96.1459 293.848 95.7418 292.647 95.6563 291.404C95.5708 290.16 95.8069 288.916 96.3417 287.791C96.8764 286.665 97.6919 285.697 98.7092 284.98C99.7264 284.262 100.911 283.82 102.149 283.696C103.386 283.571 104.635 283.769 105.774 284.27C106.914 284.77 107.905 285.557 108.652 286.553C109.55 287.681 110.073 289.062 110.147 290.503C110.221 291.944 109.843 293.372 109.065 294.586C108.713 295.032 108.522 295.584 108.522 296.153C108.522 296.721 108.713 297.273 109.065 297.719C113.656 305.476 118.147 313.27 122.536 321.101C122.756 321.597 123.125 322.011 123.592 322.286C124.059 322.561 124.6 322.682 125.139 322.633C134.441 322.568 143.748 322.568 153.059 322.633C153.629 322.729 154.214 322.625 154.716 322.338C155.218 322.051 155.606 321.599 155.814 321.059C156.702 319.423 158.186 318.192 159.957 317.625C161.727 317.058 163.648 317.197 165.319 318.014C166.99 318.83 168.282 320.262 168.926 322.009C169.57 323.757 169.516 325.686 168.775 327.395C168.297 328.649 167.463 329.737 166.377 330.524C165.291 331.311 163.999 331.763 162.66 331.825C161.259 332.003 159.838 331.732 158.6 331.05C157.363 330.368 156.373 329.31 155.773 328.03C155.563 327.541 155.194 327.138 154.726 326.888C154.258 326.637 153.719 326.553 153.197 326.649C143.335 326.649 133.473 326.649 123.61 326.649C123.19 326.04 122.651 325.522 122.026 325.126C121.401 324.73 120.703 324.464 119.974 324.344ZM162.054 320.562C160.981 320.562 159.951 320.979 159.179 321.726C158.408 322.473 157.957 323.491 157.922 324.565C157.922 325.663 158.357 326.716 159.132 327.493C159.907 328.27 160.958 328.706 162.054 328.706C163.131 328.706 164.165 328.277 164.927 327.513C165.689 326.75 166.117 325.714 166.117 324.634C166.117 323.554 165.689 322.519 164.927 321.755C164.165 320.991 163.131 320.562 162.054 320.562ZM106.958 290.956C106.963 290.157 106.731 289.375 106.292 288.708C105.853 288.041 105.226 287.52 104.491 287.212C103.756 286.903 102.945 286.82 102.163 286.973C101.381 287.127 100.661 287.51 100.097 288.074C99.5319 288.638 99.1472 289.357 98.9913 290.14C98.8355 290.924 98.9154 291.736 99.2211 292.474C99.5268 293.212 100.044 293.842 100.708 294.284C101.372 294.727 102.152 294.961 102.949 294.959C103.476 294.966 103.999 294.868 104.487 294.669C104.975 294.471 105.418 294.176 105.79 293.803C106.163 293.43 106.457 292.986 106.655 292.497C106.853 292.008 106.951 291.484 106.944 290.956H106.958Z" fill="white" fill-opacity="0.5"/>
<path d="M116.117 95.8857C117.187 93.6488 118.397 91.4821 119.74 89.3985C119.949 89.1042 120.061 88.752 120.061 88.3909C120.061 88.0298 119.949 87.6777 119.74 87.3834C116.71 82.1798 113.679 76.9901 110.732 71.7452C110.519 71.2052 110.132 70.7519 109.633 70.4569C109.134 70.1619 108.551 70.0421 107.977 70.1165C106.997 70.1491 106.02 69.9798 105.108 69.6188C104.196 69.2579 103.368 68.7131 102.674 68.0183C101.981 67.3234 101.437 66.4932 101.077 65.5792C100.717 64.6651 100.548 63.6867 100.58 62.7046C100.619 61.7228 100.853 60.7588 101.27 59.8695C101.687 58.9802 102.277 58.1837 103.007 57.5273C103.736 56.8709 104.59 56.3679 105.517 56.048C106.444 55.7282 107.426 55.5981 108.404 55.6653C109.614 55.7494 110.783 56.1397 111.802 56.7995C112.821 57.4594 113.657 58.3674 114.23 59.4386C114.804 60.5098 115.097 61.7093 115.083 62.9249C115.068 64.1405 114.747 65.3326 114.148 66.3898C113.763 66.9256 113.563 67.5725 113.578 68.2325C113.592 68.8925 113.822 69.5297 114.23 70.0475C116.916 74.5195 119.478 79.0743 122.082 83.5877C122.388 84.0033 122.616 84.4709 122.756 84.9679C122.773 85.1998 122.839 85.4254 122.95 85.6296C123.061 85.8338 123.214 86.0119 123.399 86.1518C123.585 86.2917 123.798 86.3902 124.024 86.4408C124.251 86.4913 124.485 86.4927 124.712 86.4448C131.039 86.4448 137.366 86.4448 143.693 86.4448C144.054 86.4771 144.416 86.3872 144.721 86.1896C145.025 85.992 145.255 85.698 145.373 85.3544C146.018 83.9226 147.113 82.7422 148.492 81.9942C149.87 81.2462 151.455 80.972 153.004 81.2137C154.752 81.4627 156.349 82.3438 157.493 83.6909C158.637 85.0381 159.25 86.7581 159.216 88.5269C159.183 90.2957 158.504 91.9909 157.309 93.293C156.114 94.5952 154.485 95.4142 152.729 95.5958C151.212 95.8304 149.66 95.5503 148.32 94.8001C146.98 94.0499 145.928 92.8726 145.332 91.4551C145.212 91.1087 144.977 90.8142 144.666 90.6208C144.355 90.4273 143.987 90.3467 143.624 90.3923C137.196 90.3923 130.805 90.3923 124.451 90.3923C124.138 90.3824 123.831 90.4795 123.581 90.6677C123.33 90.8558 123.151 91.1238 123.073 91.4275C121.981 93.6567 120.734 95.806 119.34 97.8595C118.087 97.4868 117.426 96.1203 116.117 95.8857ZM151.93 84.3468C150.866 84.3457 149.844 84.7553 149.074 85.4905C148.304 86.2257 147.847 87.23 147.798 88.2943C147.822 89.3848 148.265 90.4238 149.035 91.1951C149.805 91.9663 150.842 92.4105 151.93 92.4351C153.026 92.4351 154.077 91.9988 154.852 91.2223C155.627 90.4457 156.062 89.3925 156.062 88.2943C156.051 87.765 155.937 87.243 155.724 86.7582C155.512 86.2733 155.207 85.8351 154.826 85.4685C154.445 85.1019 153.995 84.8142 153.503 84.6217C153.011 84.4293 152.486 84.3358 151.957 84.3468H151.93ZM107.853 66.9281C108.916 66.9281 109.935 66.5049 110.687 65.7517C111.439 64.9984 111.861 63.9768 111.861 62.9116C111.861 61.8463 111.439 60.8247 110.687 60.0715C109.935 59.3182 108.916 58.8951 107.853 58.8951C107.325 58.8969 106.803 59.003 106.317 59.2074C105.83 59.4118 105.389 59.7104 105.018 60.0861C104.647 60.4618 104.353 60.9072 104.154 61.3968C103.955 61.8864 103.855 62.4106 103.858 62.9392C103.857 63.4664 103.96 63.9887 104.162 64.4755C104.364 64.9622 104.661 65.4037 105.036 65.7739C105.41 66.1442 105.855 66.4357 106.343 66.6315C106.832 66.8273 107.354 66.9235 107.88 66.9143L107.853 66.9281Z" fill="white" fill-opacity="0.5"/>
<path d="M376.929 194.863C376.352 195.096 375.723 195.163 375.11 195.056C361.157 195.056 347.204 195.056 333.251 195.056C332.651 195.12 332.046 194.993 331.523 194.693C330.999 194.393 330.582 193.936 330.331 193.386C323.343 181.148 316.3 168.942 309.202 156.768C308.855 156.344 308.665 155.813 308.665 155.264C308.665 154.715 308.855 154.184 309.202 153.76C309.614 153.008 310.074 152.284 310.579 151.593C311.923 153.199 313.726 154.355 315.744 154.905C315.808 155.525 316.047 156.114 316.433 156.603L320.565 163.877C325.083 171.73 329.629 179.584 334.105 187.465C334.298 187.912 334.627 188.286 335.045 188.534C335.463 188.782 335.949 188.891 336.433 188.845C339.532 188.763 342.631 188.845 345.744 188.845C348.031 188.845 350.331 188.721 352.631 188.928C352.728 189.351 352.923 189.746 353.201 190.079C353.479 190.412 353.831 190.675 354.229 190.847C355.718 191.73 357.141 192.722 358.485 193.814C358.879 194.188 359.345 194.476 359.854 194.661C360.364 194.846 360.906 194.924 361.447 194.891C366.639 194.794 371.791 194.863 376.929 194.863Z" fill="white" fill-opacity="0.5"/>
<path d="M153.803 79.4609C150.828 79.4609 147.853 79.4608 144.891 79.5299C139.933 79.5299 134.974 79.5299 130.015 79.5299C129.474 79.5782 128.932 79.455 128.465 79.1776C127.998 78.9002 127.629 78.4826 127.412 77.984C120.378 65.7182 113.312 53.4708 106.214 41.2418C105.872 40.8153 105.685 40.2845 105.685 39.7373C105.685 39.1901 105.872 38.6594 106.214 38.2329C106.613 37.6808 106.958 37.0873 107.33 36.5214C108.556 36.72 109.683 37.3164 110.539 38.2191C111.181 38.8058 112.012 39.1435 112.88 39.1715C112.835 39.5397 112.871 39.9134 112.985 40.2663C113.099 40.6192 113.289 40.9428 113.542 41.2142C115.745 45.1617 118.115 49.0126 120.236 53.0291C121.723 55.7896 123.363 58.5501 125.043 61.3106C127.137 64.6784 129.079 68.2118 130.98 71.6348C131.213 72.1598 131.603 72.5989 132.097 72.8909C132.591 73.1828 133.163 73.3131 133.734 73.2635C146.007 73.2635 158.28 73.2635 170.552 73.2635C170.272 73.4568 169.953 73.5866 169.618 73.6438C169.282 73.701 168.939 73.6843 168.61 73.5948H149.478C149.16 73.5105 148.827 73.4939 148.502 73.5462C148.177 73.5985 147.867 73.7185 147.591 73.8984C147.651 74.1528 147.762 74.3921 147.919 74.6012C148.075 74.8102 148.273 74.9845 148.5 75.113C149.657 75.9412 150.814 76.7556 152.012 77.5009C152.436 77.6769 152.815 77.9436 153.124 78.2822C153.434 78.6208 153.665 79.0231 153.803 79.4609Z" fill="white" fill-opacity="0.5"/>
<path d="M322.08 374.516C319.684 370.831 317.631 366.939 315.414 363.157C312.934 358.933 310.538 354.668 308.045 350.459C307.798 350.112 307.665 349.697 307.665 349.272C307.665 348.846 307.798 348.431 308.045 348.085C312.875 339.803 317.682 331.494 322.466 323.157C322.601 322.951 322.748 322.753 322.907 322.564C322.909 322.777 322.973 322.986 323.09 323.165C323.207 323.343 323.373 323.484 323.568 323.571C324.381 324.082 325.207 324.606 325.992 325.159C326.348 325.329 326.659 325.582 326.898 325.896C327.138 326.211 327.299 326.578 327.37 326.967C326.584 328.347 325.827 329.851 325.014 331.259C321.832 336.78 318.678 342.301 315.372 347.822C315.06 348.23 314.89 348.73 314.89 349.244C314.89 349.758 315.06 350.258 315.372 350.666C318.361 355.303 320.648 360.327 323.637 365.02C326.199 369.051 328.444 373.302 330.813 377.442C331.21 377.924 331.446 378.517 331.488 379.14C330.508 379.026 329.586 378.617 328.843 377.967C326.929 376.587 324.987 375.358 323.072 374.019C322.452 373.55 322.177 373.771 322.08 374.516Z" fill="white" fill-opacity="0.5"/>
<path d="M148.913 199.266C144.106 199.266 139.271 199.266 134.492 199.266C134.164 199.186 133.824 199.171 133.49 199.223C133.157 199.275 132.837 199.393 132.55 199.57C130.663 202.717 128.693 205.809 126.944 209.052C124.313 213.911 121.434 218.714 118.679 223.434C118.073 224.653 117.364 225.816 116.558 226.913C114.136 226.056 111.951 224.637 110.181 222.772C111.558 219.86 113.307 217.154 114.905 214.366C118.927 207.341 123.018 200.343 127.013 193.304C127.218 192.797 127.588 192.375 128.064 192.107C128.539 191.839 129.091 191.74 129.63 191.827C131.007 191.951 132.384 191.896 133.762 191.923C134.977 192.354 136.284 192.454 137.55 192.213C139.216 192.213 140.704 192.213 141.833 193.745C142.329 194.208 142.891 194.594 143.5 194.891C145.112 196.009 146.723 197.141 148.349 198.245C148.524 198.35 148.669 198.5 148.769 198.679C148.868 198.859 148.918 199.061 148.913 199.266Z" fill="white" fill-opacity="0.5"/>
<path d="M389.187 366.166C387.81 368.926 386.226 371.466 384.725 374.116C382.149 378.657 379.504 383.157 376.942 387.698C376.779 388.125 376.484 388.49 376.1 388.738C375.716 388.986 375.263 389.105 374.807 389.078C364.945 389.078 355.083 389.078 345.221 389.078C344.972 389.068 344.724 389.045 344.477 389.009C344.436 388.67 344.304 388.349 344.095 388.079C343.887 387.809 343.609 387.601 343.292 387.477C342.204 386.773 341.13 386.097 340.069 385.296C339.198 384.805 338.434 384.143 337.824 383.35C338.469 383.05 339.189 382.954 339.89 383.074C350.166 383.074 360.427 383.074 370.703 383.074C371.391 383.074 372.204 383.419 372.755 382.646C373.031 382.094 373.278 381.528 373.595 381.003C376.35 376.228 379.105 371.457 381.86 366.69C382.598 365.256 383.431 363.873 384.353 362.55C386.076 363.597 387.695 364.808 389.187 366.166Z" fill="white" fill-opacity="0.5"/>
<path d="M121.035 286.512C120.759 287.105 120.36 286.884 119.96 286.677C118.238 285.712 116.582 284.633 115.002 283.448C113.335 282.274 111.655 281.143 109.96 280.011C109.449 279.648 108.819 279.49 108.197 279.569C105.952 275.718 103.693 271.881 101.448 268.03C98.6932 263.365 96.09 258.686 93.3627 254.048C93.1058 253.711 92.9666 253.299 92.9666 252.875C92.9666 252.451 93.1058 252.039 93.3627 251.702C95.1809 248.831 96.6684 245.753 98.583 242.937C99.0712 242.99 99.5298 243.198 99.8916 243.531C101.586 244.718 103.321 245.863 105.029 247.037C104.257 248.654 103.392 250.225 102.44 251.743C101.724 253.124 101.724 253.124 102.605 254.324C102.977 254.821 103.252 255.373 103.583 255.898C106.6 260.77 109.093 265.905 112.109 270.805C114.52 274.766 116.902 278.741 118.996 282.923C119.519 284.202 120.204 285.408 121.035 286.512Z" fill="white" fill-opacity="0.5"/>
<path d="M360.221 209.798C359.479 210.677 358.534 211.36 357.469 211.788C356.403 212.216 355.248 212.376 354.106 212.254C352.965 212.131 351.87 211.73 350.919 211.085C349.968 210.44 349.189 209.572 348.65 208.555C348.426 208.027 348.035 207.587 347.538 207.303C347.04 207.019 346.463 206.906 345.896 206.982C340.074 207.046 334.257 207.046 328.444 206.982C327.904 206.917 327.357 207.025 326.882 207.29C326.407 207.555 326.028 207.964 325.799 208.459C321.901 215.36 317.921 222.261 313.954 229.066C313.753 229.376 313.537 229.675 313.306 229.963C312.634 229.847 312.012 229.535 311.516 229.066C311.053 228.662 310.462 228.437 309.849 228.431C311.598 224.87 313.733 221.53 315.689 218.079C317.921 214.145 320.18 210.212 322.494 206.319C322.787 205.919 322.945 205.436 322.945 204.939C322.945 204.443 322.787 203.959 322.494 203.559C319.505 198.48 316.571 193.359 313.637 188.252C313.334 187.714 313.072 187.148 312.797 186.609C313.068 186.58 313.342 186.606 313.603 186.687C313.863 186.768 314.105 186.901 314.312 187.079C315.042 187.631 315.827 188.114 316.585 188.611C316.823 188.85 317.136 189.001 317.471 189.038C317.807 189.076 318.145 188.998 318.43 188.818C320.469 191.785 322.08 195.015 323.94 198.093C324.739 199.473 325.524 200.771 326.254 202.137C326.383 202.416 326.596 202.648 326.862 202.802C327.129 202.955 327.436 203.022 327.741 202.993C334.169 202.993 340.56 202.993 346.915 202.993C347.191 203.025 347.471 202.972 347.717 202.841C347.963 202.711 348.163 202.508 348.292 202.261C349.298 202.482 349.986 203.435 351.047 203.504C350.954 203.927 350.89 204.356 350.854 204.787C350.843 205.403 350.97 206.013 351.224 206.573C351.478 207.133 351.853 207.63 352.323 208.027C352.793 208.423 353.345 208.71 353.939 208.866C354.533 209.022 355.154 209.043 355.758 208.928C356.177 208.83 356.591 208.71 356.997 208.569C358.278 208.459 359.008 209.77 360.221 209.798Z" fill="white" fill-opacity="0.5"/>
<path d="M230.456 257.899C227.701 262.827 224.946 267.727 221.998 272.53C220.786 274.517 219.781 276.671 218.596 278.672C216.323 282.495 214.381 286.525 211.709 290.128C211.457 290.564 211.254 291.027 211.103 291.508C211.028 291.213 210.879 290.942 210.669 290.722C210.459 290.502 210.195 290.34 209.905 290.252C208.72 289.396 207.48 288.623 206.254 287.823C205.973 287.703 205.727 287.513 205.54 287.272C205.352 287.03 205.228 286.745 205.18 286.443C205.621 285.628 206.034 284.8 206.558 284C210.543 277.08 214.533 270.179 218.527 263.296C220.428 260.039 222.191 256.698 224.257 253.538C225.759 254.49 227.26 255.442 228.747 256.422C229.428 256.769 230.014 257.276 230.456 257.899Z" fill="white" fill-opacity="0.5"/>
<path d="M57.3436 134.036C57.9257 134.389 58.6218 134.503 59.2858 134.353C59.9056 134.353 60.5254 134.353 61.1453 134.353C62.3023 134.45 63.6659 133.87 64.5612 134.657C65.4566 135.444 66.3794 136.12 67.316 136.81C67.3712 136.836 67.4204 136.874 67.4604 136.92C67.5004 136.966 67.5305 137.02 67.5486 137.078C67.5667 137.137 67.5725 137.198 67.5657 137.259C67.5589 137.32 67.5395 137.378 67.5089 137.431C67.3865 137.556 67.2271 137.639 67.0543 137.666C66.8713 137.688 66.6864 137.688 66.5034 137.666H41.6413C41.2705 137.011 40.734 136.466 40.0859 136.086C39.4378 135.705 38.701 135.503 37.9498 135.499C35.9939 132.628 34.4237 129.522 32.6606 126.527C31.173 124.015 29.6992 121.503 28.308 118.936C28.1305 118.487 27.8021 118.115 27.3796 117.883C26.957 117.651 26.4669 117.574 25.994 117.666C24.3107 117.776 22.6434 117.281 21.2924 116.269C19.9414 115.256 18.9954 113.794 18.6249 112.145C18.2609 110.554 18.4427 108.887 19.1407 107.412C19.8388 105.937 21.0125 104.741 22.4723 104.017C23.9321 103.292 25.5928 103.082 27.1865 103.42C28.7801 103.758 30.2136 104.624 31.2556 105.879C32.2276 107.013 32.8099 108.43 32.9165 109.921C33.0232 111.413 32.6486 112.899 31.8479 114.16C31.4911 114.599 31.2962 115.147 31.2962 115.713C31.2962 116.279 31.4911 116.827 31.8479 117.266C34.8139 122.29 37.7294 127.351 40.5944 132.449C40.8034 132.948 41.1659 133.367 41.6293 133.645C42.0926 133.923 42.6325 134.045 43.1702 133.994C47.9084 133.925 52.6329 134.008 57.3436 134.036ZM29.7956 110.434C29.7715 109.376 29.3442 108.367 28.6014 107.615C27.8585 106.863 26.8565 106.424 25.8011 106.389C24.7052 106.389 23.6542 106.826 22.8792 107.602C22.1043 108.379 21.6689 109.432 21.6689 110.53C21.6797 111.074 21.7972 111.61 22.0149 112.109C22.2325 112.607 22.546 113.057 22.9374 113.434C23.3288 113.811 23.7905 114.107 24.296 114.305C24.8016 114.503 25.3411 114.599 25.8838 114.588C26.9361 114.521 27.9231 114.054 28.6427 113.281C29.3622 112.509 29.7599 111.49 29.7543 110.434H29.7956Z" fill="white" fill-opacity="0.5"/>
<path d="M19.2722 119.433C22.33 124.692 25.374 129.95 28.4732 135.181C28.645 135.51 28.7082 135.885 28.6538 136.252C28.5993 136.619 28.43 136.96 28.1702 137.224C25.7919 141.365 23.4044 145.506 21.0077 149.646C19.465 152.296 17.8947 154.919 16.3383 157.541C16.3239 157.297 16.2449 157.061 16.1093 156.857C15.9738 156.653 15.7866 156.489 15.5669 156.382C14.7818 155.913 14.0242 155.388 13.2667 154.864C12.9097 154.691 12.5986 154.436 12.3592 154.119C12.1198 153.802 11.9587 153.433 11.8893 153.042C11.9903 152.754 12.1099 152.472 12.2474 152.2C15.0022 147.369 17.757 142.538 20.6633 137.749C21.04 137.245 21.2436 136.632 21.2436 136.003C21.2436 135.373 21.04 134.76 20.6633 134.257C18.3906 130.558 16.2556 126.776 14.1344 122.994C12.8569 121.027 11.7067 118.98 10.6909 116.866L10.443 116.438V116.313C10.4472 116.19 10.4155 116.069 10.3519 115.963C10.2884 115.858 10.1956 115.773 10.0849 115.72C9.70493 115.296 9.42692 114.791 9.27222 114.243C9.35486 113.898 9.39618 113.415 9.93336 113.677C10.4706 113.939 10.8425 114.284 11.3108 114.574C13.9554 116.189 16.297 118.329 19.2722 119.433Z" fill="white" fill-opacity="0.5"/>
<path d="M-14.2124 330.362H2.31647C3.48726 330.362 4.67182 330.445 5.84261 330.362C6.37936 330.277 6.92917 330.375 7.40377 330.64C7.87838 330.905 8.25024 331.323 8.45967 331.825C11.5588 337.346 14.7406 342.798 17.8949 348.278L23.9279 358.754C24.1345 359.126 24.2998 359.527 24.4926 359.913C23.6949 359.772 22.946 359.43 22.3164 358.919C20.3742 357.387 18.1841 356.159 16.2145 354.779C15.6084 354.242 14.8189 353.96 14.0106 353.992C13.5837 353.548 13.2428 353.028 13.0051 352.46C10.2503 347.698 7.49549 342.936 4.74069 338.133C4.52955 337.667 4.17465 337.281 3.72828 337.033C3.2819 336.784 2.76766 336.686 2.26136 336.753C-0.644959 336.753 -3.53749 336.753 -6.44381 336.753C-6.41103 336.442 -6.47229 336.128 -6.61967 335.852C-6.76704 335.577 -6.99372 335.352 -7.27026 335.207C-9.46033 333.937 -11.3198 332.143 -13.7578 331.273C-13.9309 331.202 -14.0724 331.071 -14.156 330.903C-14.2396 330.736 -14.2596 330.543 -14.2124 330.362Z" fill="white" fill-opacity="0.5"/>
<path d="M167.536 313.827C167.569 313.456 167.484 313.084 167.294 312.764C167.103 312.445 166.817 312.193 166.475 312.046C164.588 310.763 162.715 309.452 160.842 308.14C160.594 307.961 160.291 307.837 160.057 307.643C159.884 307.57 159.743 307.439 159.658 307.273C159.572 307.106 159.548 306.915 159.588 306.732C159.674 306.602 159.8 306.504 159.946 306.451C160.093 306.399 160.252 306.396 160.401 306.443C160.828 306.443 161.269 306.443 161.696 306.443H172.109C172.719 306.576 173.357 306.478 173.899 306.167H181.503L193.899 306.084C195.635 307.326 197.37 308.596 199.12 309.81C199.348 309.896 199.547 310.046 199.694 310.242C199.84 310.437 199.928 310.671 199.946 310.915C198.569 313.993 198.569 313.993 195.208 313.979H169.574C168.886 313.896 168.211 313.855 167.536 313.827Z" fill="white" fill-opacity="0.5"/>
<path d="M-36.1958 102.511C-35.5802 102.211 -34.8827 102.124 -34.2123 102.263H-11.1408C-10.4799 102.346 -9.80895 102.29 -9.17115 102.097C-9.19227 101.799 -9.29467 101.513 -9.46714 101.27C-9.63961 101.026 -9.87553 100.835 -10.1491 100.717C-12.0334 99.5447 -13.8414 98.2539 -15.5623 96.852C-16.3521 96.338 -17.3062 96.1409 -18.2345 96.2999H-37.3941H-39.4327C-38.8817 96.2999 -38.3308 96.2033 -37.7798 96.2033C-23.7854 96.2033 -9.79099 96.2033 4.20341 96.2033C4.76996 96.1504 5.33895 96.2746 5.83223 96.5588C6.3255 96.843 6.71885 97.2734 6.95822 97.7906C10.7323 104.485 14.6028 111.124 18.4457 117.777C18.7488 118.315 18.9967 118.867 19.2722 119.419C16.297 118.315 13.9554 116.176 11.297 114.561C10.8287 114.271 10.4017 113.898 9.91964 113.663C9.43755 113.429 9.35489 113.884 9.25848 114.229C7.09595 110.986 5.25024 107.535 3.34943 104.126C3.1046 103.575 2.69099 103.115 2.1685 102.815C1.646 102.515 1.04173 102.389 0.443111 102.456C-11.7744 102.525 -23.9782 102.511 -36.1958 102.511Z" fill="white" fill-opacity="0.5"/>
<path d="M122.853 183.973C120.966 187.244 119.161 190.585 117.15 193.787C114.699 197.693 112.729 201.875 110.263 205.753C109.919 206.167 109.737 206.691 109.749 207.229C109.762 207.768 109.969 208.283 110.332 208.68C111.183 209.809 111.653 211.18 111.672 212.595C111.692 214.01 111.261 215.394 110.442 216.547C109.687 217.728 108.607 218.665 107.331 219.244C106.056 219.823 104.64 220.019 103.256 219.809C101.872 219.598 100.578 218.991 99.5311 218.059C98.4842 217.128 97.7291 215.912 97.3572 214.559C97.0509 213.493 96.9969 212.37 97.1995 211.28C97.4021 210.189 97.8557 209.161 98.5242 208.276C99.1927 207.392 100.058 206.676 101.051 206.186C102.044 205.695 103.137 205.443 104.244 205.45C104.78 205.5 105.318 205.377 105.779 205.099C106.24 204.821 106.6 204.402 106.806 203.904C110.677 197.127 114.602 190.377 118.487 183.6C118.759 183.307 118.964 182.957 119.088 182.575C119.211 182.194 119.251 181.79 119.203 181.392C120.594 181.803 121.853 182.575 122.853 183.628C122.84 183.743 122.84 183.859 122.853 183.973ZM108.39 212.613C108.383 211.552 107.958 210.536 107.207 209.786C106.457 209.037 105.441 208.614 104.382 208.611C103.286 208.611 102.235 209.047 101.46 209.823C100.685 210.6 100.25 211.653 100.25 212.751C100.294 213.814 100.737 214.821 101.491 215.571C102.244 216.321 103.252 216.758 104.313 216.795C105.407 216.781 106.45 216.333 107.214 215.549C107.978 214.765 108.401 213.709 108.39 212.613Z" fill="white" fill-opacity="0.5"/>
<path d="M153.803 79.4608C153.669 79.018 153.439 78.6102 153.129 78.2667C152.82 77.9231 152.438 77.6522 152.013 77.4733C150.814 76.7141 149.643 75.9136 148.5 75.0854C148.273 74.9569 148.075 74.7826 147.919 74.5736C147.762 74.3645 147.651 74.1252 147.591 73.8708C147.867 73.6909 148.177 73.5709 148.502 73.5186C148.827 73.4663 149.16 73.4828 149.478 73.5672H168.61C168.939 73.6566 169.282 73.6733 169.618 73.6161C169.953 73.5589 170.272 73.4292 170.552 73.2359L176.296 63.45C177.577 64.2643 178.886 65.0648 180.153 65.9206C180.561 66.2964 181.101 66.495 181.654 66.4727C179.492 70.6134 176.971 74.6576 174.671 78.7707C174.534 79.0445 174.317 79.2695 174.048 79.4152C173.78 79.5609 173.473 79.6202 173.169 79.5851L153.803 79.4608Z" fill="white" fill-opacity="0.5"/>
<path d="M376.929 194.863C371.777 194.863 366.639 194.863 361.488 194.863C360.947 194.897 360.405 194.819 359.896 194.633C359.386 194.448 358.92 194.16 358.526 193.787C357.182 192.694 355.76 191.702 354.27 190.819C353.872 190.648 353.52 190.385 353.242 190.051C352.965 189.718 352.77 189.324 352.673 188.901C353.347 188.901 354.05 188.832 354.711 188.832C360.4 188.832 366.088 188.832 371.777 188.832C372.285 188.895 372.799 188.795 373.247 188.547C373.695 188.299 374.053 187.916 374.27 187.451C375.882 184.525 377.631 181.682 379.325 178.811C380.606 179.639 381.915 180.44 383.168 181.296C383.58 181.661 384.12 181.85 384.67 181.82C383.044 185.064 381.157 188.169 379.27 191.261C378.526 192.434 378.196 193.952 376.929 194.863Z" fill="white" fill-opacity="0.5"/>
<path d="M230.456 257.899C230.014 257.235 229.413 256.694 228.706 256.326C227.219 255.346 225.717 254.407 224.216 253.441C224.282 253.138 224.275 252.824 224.196 252.524C224.117 252.224 223.968 251.947 223.761 251.716C221.007 246.954 218.252 242.22 215.497 237.444C214.283 235.535 213.197 233.548 212.246 231.495C212.329 230.902 212.604 230.529 213.238 230.805C213.926 231.089 214.581 231.446 215.194 231.868C217.48 233.455 219.794 235.001 222.081 236.588C222.759 237.142 223.617 237.427 224.491 237.389C227.347 242.293 230.212 247.198 233.086 252.102C233.249 252.325 233.336 252.593 233.336 252.868C233.336 253.144 233.249 253.412 233.086 253.634C232.136 255.028 231.489 256.588 230.456 257.899Z" fill="white" fill-opacity="0.5"/>
<path d="M240.524 264.248C237.949 268.831 235.579 273.537 232.549 277.844C232.136 278.423 231.874 279.114 231.461 279.735C231.235 280.132 231.138 280.591 231.185 281.047C231.232 281.502 231.42 281.931 231.723 282.274C232.32 283.169 232.709 284.187 232.861 285.252C233.013 286.318 232.924 287.404 232.602 288.43C232.279 289.457 231.731 290.398 230.997 291.184C230.263 291.97 229.363 292.581 228.362 292.971C227.023 293.494 225.56 293.609 224.156 293.302C222.752 292.995 221.469 292.28 220.469 291.246C219.491 290.194 218.84 288.879 218.595 287.463C218.35 286.046 218.523 284.588 219.092 283.268C219.659 281.931 220.626 280.803 221.859 280.039C223.093 279.275 224.532 278.913 225.979 279.003C226.51 279.103 227.059 279.009 227.526 278.738C227.994 278.467 228.349 278.037 228.527 277.526C231.282 272.613 234.147 267.726 236.971 262.84C237.191 262.468 237.467 262.123 237.714 261.778C238.348 262.882 239.781 263.172 240.524 264.248ZM229.753 286.263C229.779 285.195 229.382 284.16 228.649 283.384C227.916 282.609 226.907 282.155 225.841 282.122C224.752 282.1 223.699 282.51 222.909 283.262C222.12 284.014 221.659 285.048 221.626 286.139C221.626 287.237 222.062 288.29 222.837 289.067C223.612 289.843 224.663 290.28 225.759 290.28C226.809 290.245 227.807 289.81 228.55 289.064C229.292 288.318 229.722 287.316 229.753 286.263Z" fill="white" fill-opacity="0.5"/>
<path d="M104.974 247.037C103.252 245.877 101.531 244.718 99.8365 243.531C99.4747 243.198 99.0162 242.99 98.528 242.937C99.437 240.908 100.677 239.059 101.779 237.14C104.217 232.848 106.696 228.569 109.162 224.29C109.395 223.719 109.736 223.199 110.167 222.758C111.937 224.623 114.122 226.042 116.544 226.899C112.867 233.745 108.969 240.411 104.974 247.037Z" fill="white" fill-opacity="0.5"/>
<path d="M122.853 183.973C122.84 183.858 122.84 183.743 122.853 183.628C128.61 183.628 134.354 183.628 140.112 183.628C140.993 183.628 142.412 184.125 142.674 183.324C143.018 182.248 141.379 182.124 140.773 181.42C140.667 181.358 140.566 181.289 140.47 181.213C140.198 180.838 139.821 180.551 139.388 180.389C138.954 180.227 138.483 180.197 138.032 180.302C133.578 180.302 129.125 180.302 124.671 180.302C124.372 180.377 124.061 180.389 123.757 180.337C123.454 180.285 123.164 180.169 122.908 179.998C132.467 179.998 142.013 179.998 151.572 179.998C152.143 180.091 152.729 179.983 153.23 179.694C153.732 179.405 154.119 178.952 154.327 178.411C155.078 177 156.288 175.89 157.757 175.264C159.225 174.639 160.863 174.537 162.398 174.974C163.965 175.364 165.356 176.268 166.351 177.543C167.345 178.817 167.885 180.389 167.885 182.006C167.885 183.624 167.345 185.195 166.351 186.47C165.356 187.744 163.965 188.648 162.398 189.039C160.856 189.461 159.216 189.341 157.752 188.698C156.288 188.055 155.089 186.928 154.354 185.505C154.148 184.964 153.76 184.513 153.257 184.228C152.754 183.943 152.168 183.843 151.599 183.946C141.971 184.001 132.412 183.973 122.853 183.973ZM160.47 177.955C159.942 177.955 159.419 178.059 158.931 178.262C158.443 178.465 157.999 178.761 157.626 179.136C157.252 179.51 156.956 179.954 156.754 180.443C156.552 180.932 156.448 181.456 156.448 181.986C156.448 182.515 156.552 183.039 156.754 183.528C156.956 184.017 157.252 184.461 157.626 184.835C157.999 185.21 158.443 185.507 158.931 185.709C159.419 185.912 159.942 186.016 160.47 186.016C161.018 186.037 161.565 185.945 162.076 185.744C162.587 185.544 163.051 185.239 163.439 184.851C163.827 184.462 164.131 183.997 164.331 183.485C164.531 182.973 164.623 182.425 164.602 181.875C164.57 180.809 164.116 179.798 163.342 179.066C162.567 178.334 161.534 177.939 160.47 177.969V177.955Z" fill="white" fill-opacity="0.5"/>
<path d="M199.946 310.804C199.928 310.56 199.84 310.327 199.694 310.131C199.547 309.936 199.348 309.786 199.12 309.7C197.37 308.471 195.635 307.215 193.899 305.973C195.91 302.426 197.894 298.865 199.946 295.332C201.682 292.336 203.293 289.272 205.208 286.374C205.256 286.676 205.379 286.961 205.567 287.203C205.755 287.444 206.001 287.634 206.282 287.754C207.508 288.555 208.748 289.328 209.932 290.183C210.223 290.271 210.486 290.433 210.696 290.653C210.906 290.873 211.056 291.144 211.131 291.439C209.68 294.294 208.061 297.059 206.282 299.721C205.731 300.507 205.428 301.474 204.905 302.302C203.279 305.173 201.778 308.044 199.946 310.804Z" fill="white" fill-opacity="0.5"/>
<path d="M181.393 24.9962C182.383 25.0463 183.327 25.4362 184.065 26.1004C185.91 27.4807 187.908 28.6953 189.808 30.0341C190.018 30.2502 190.297 30.3864 190.596 30.4191C190.895 30.4518 191.196 30.3792 191.448 30.2135C193.417 33.0707 194.932 36.19 196.737 39.1437C196.873 39.3515 196.939 39.5971 196.927 39.8451C196.914 40.0932 196.824 40.3308 196.668 40.524C194.643 43.9194 192.811 47.4252 190.635 50.7516C188.39 50.5722 186.916 49.0677 185.387 47.6737C186.213 45.7965 187.37 44.1127 188.335 42.3183C190.07 39.13 190.084 40.4136 188.335 37.239C186.062 33.1397 183.541 29.2336 181.393 24.9962Z" fill="white" fill-opacity="0.5"/>
<path d="M14.0244 353.854C14.8327 353.822 15.6221 354.104 16.2282 354.641C18.2392 356.021 20.3604 357.291 22.3301 358.782C22.9598 359.292 23.7086 359.634 24.5064 359.775L30.14 369.354C30.2645 369.53 30.3315 369.739 30.3315 369.955C30.3315 370.17 30.2645 370.38 30.14 370.555C28.2667 373.674 26.6138 376.932 24.6303 379.954C23.6193 379.428 22.6479 378.828 21.724 378.16C21.051 377.551 20.2287 377.132 19.3411 376.946C20.2321 375.034 21.2586 373.189 22.4127 371.425C22.7334 371.018 22.9078 370.514 22.9078 369.996C22.9078 369.478 22.7334 368.974 22.4127 368.567C21.2282 366.759 20.2089 364.841 19.1483 362.95C17.4954 359.955 15.4706 357.07 14.0244 353.854Z" fill="white" fill-opacity="0.5"/>
<path d="M190.387 468.07C191.007 468.081 191.601 468.322 192.054 468.746C193.226 469.636 194.486 470.404 195.814 471.037C193.913 474.433 191.957 477.786 189.96 481.113C188.583 483.528 187.205 486.04 185.828 488.525C185.231 489.745 184.525 490.909 183.72 492.003C182.724 491.558 181.796 490.972 180.965 490.264C180.232 489.628 179.351 489.187 178.404 488.98C178.453 488.805 178.517 488.634 178.596 488.469L190.387 468.07Z" fill="white" fill-opacity="0.5"/>
<path d="M126.159 3.9751C126.164 4.09602 126.197 4.2141 126.255 4.32016C127.603 5.80526 129.333 6.88937 131.255 7.45333C130.993 7.93641 130.759 8.4471 130.47 8.91639L119.134 28.3503C118.389 28.1294 117.699 27.7531 117.109 27.2461C116.122 26.4663 115.027 25.8341 113.858 25.369L114.037 24.9963L114.299 24.6098C116.365 20.4691 118.79 16.6044 121.076 12.6155C122.729 9.71694 124.244 6.73559 126.159 3.9751Z" fill="white" fill-opacity="0.5"/>
<path d="M37.9497 135.513C38.7009 135.517 39.4377 135.719 40.0858 136.099C40.7339 136.48 41.2704 137.025 41.6412 137.68L41.3243 138.135L32.1922 154.146C32.0237 154.479 31.8351 154.802 31.6274 155.112C31.338 155.426 31.1772 155.837 31.1772 156.265C31.1772 156.692 31.338 157.104 31.6274 157.417C32.4921 158.634 32.9393 160.099 32.9021 161.592C32.8648 163.086 32.3451 164.527 31.4208 165.699C30.8883 165.656 30.3783 165.465 29.9477 165.148C29.5171 164.831 29.1831 164.401 28.9828 163.904C29.1068 163.628 29.2446 163.352 29.3547 163.062C29.7446 162.208 29.8202 161.244 29.5681 160.339C29.3159 159.435 28.7524 158.649 27.9773 158.121C27.2401 157.608 26.356 157.349 25.4588 157.384C24.5617 157.419 23.7003 157.745 23.0049 158.314C22.7486 158.664 22.3936 158.928 21.9856 159.074C20.8837 159.074 20.2088 158.245 19.2308 157.9C19.9101 156.64 20.9532 155.613 22.2236 154.956C23.494 154.298 24.9328 154.04 26.352 154.215C26.6803 154.268 27.0168 154.208 27.3068 154.045C27.5969 153.882 27.8235 153.626 27.9498 153.318C31.0903 147.797 34.2491 142.317 37.4263 136.879C37.5992 136.697 37.7344 136.483 37.8242 136.248C37.9141 136.014 37.9567 135.764 37.9497 135.513Z" fill="white" fill-opacity="0.5"/>
<path d="M148.913 199.266C148.912 199.05 148.851 198.839 148.737 198.656C148.622 198.473 148.459 198.326 148.266 198.231C146.641 197.127 145.029 195.995 143.418 194.877C142.808 194.58 142.246 194.194 141.751 193.731C140.621 192.241 139.134 192.158 137.467 192.199C136.201 192.44 134.894 192.34 133.679 191.909C138.404 191.744 143.114 191.799 147.839 191.909C148.093 192.086 148.382 192.206 148.686 192.261C148.99 192.316 149.303 192.304 149.602 192.227C152.701 192.227 155.787 192.227 158.886 192.227C159.79 192.198 160.671 192.513 161.351 193.11C163.472 194.794 165.814 196.202 168.018 197.776C168.459 198.093 169.395 198.231 169.161 198.99C168.927 199.749 168.183 199.294 167.66 199.294L148.913 199.266Z" fill="white" fill-opacity="0.5"/>
<path d="M122.894 179.971C123.151 180.142 123.44 180.257 123.744 180.31C124.047 180.362 124.359 180.35 124.657 180.274C129.111 180.274 133.564 180.274 138.018 180.274C138.469 180.169 138.94 180.2 139.374 180.362C139.808 180.524 140.184 180.81 140.456 181.185C140.552 181.261 140.653 181.33 140.759 181.392C141.379 182.096 143.004 182.22 142.66 183.297C142.412 184.097 140.993 183.601 140.098 183.601C134.34 183.601 128.597 183.601 122.839 183.601C121.839 182.547 120.58 181.776 119.189 181.365C117.04 178.093 115.195 174.643 113.266 171.247C111.73 168.856 110.328 166.382 109.065 163.835L108.817 163.421C108.799 163.417 108.781 163.409 108.766 163.397C108.751 163.385 108.74 163.37 108.732 163.352C108.724 163.335 108.72 163.316 108.72 163.297C108.721 163.278 108.726 163.259 108.735 163.242C108.735 162.717 108.735 162.138 109.52 162.552C110.47 163.084 111.39 163.669 112.274 164.305C112.782 164.741 113.439 164.964 114.106 164.926L122.894 179.971Z" fill="white" fill-opacity="0.5"/>
<path d="M372.769 382.577C372.218 383.35 371.391 383.005 370.716 383.005C360.441 383.005 350.179 383.005 339.904 383.005C339.203 382.885 338.483 382.981 337.838 383.281C338.448 384.074 339.212 384.736 340.083 385.227C341.13 385.986 342.218 386.704 343.306 387.408C343.623 387.532 343.901 387.74 344.109 388.01C344.318 388.28 344.45 388.601 344.491 388.94L331.157 389.023C330.914 389.055 330.667 389.014 330.448 388.903C330.229 388.792 330.049 388.617 329.932 388.401C327.342 383.778 324.518 379.264 322.08 374.599C322.191 373.854 322.452 373.633 323.155 374.13C325.056 375.51 326.998 376.752 328.926 378.077C329.669 378.727 330.591 379.136 331.571 379.25C332.258 379.683 332.752 380.366 332.948 381.155C333.169 381.723 333.571 382.201 334.092 382.516C334.613 382.83 335.223 382.963 335.827 382.894C347.48 382.811 359.119 382.894 370.772 382.894C371.453 382.945 372.137 382.836 372.769 382.577Z" fill="white" fill-opacity="0.5"/>
<path d="M120.194 419.512C120.929 419.438 121.665 419.65 122.247 420.106C122.478 420.31 122.75 420.464 123.044 420.557C123.338 420.649 123.648 420.679 123.955 420.644C121.696 424.992 119.12 429.16 116.71 433.425C116.267 434.304 115.775 435.156 115.236 435.979C114.637 436.58 114.281 437.383 114.238 438.232C114.194 439.081 114.467 439.916 115.002 440.575C115.565 441.439 115.875 442.444 115.897 443.476C115.919 444.509 115.652 445.526 115.126 446.413C114.079 446.331 113.459 445.24 112.371 445.254C112.371 444.771 112.509 444.288 112.522 443.791C112.555 443.162 112.438 442.534 112.182 441.958C111.926 441.383 111.537 440.877 111.048 440.481C110.559 440.085 109.983 439.811 109.368 439.681C108.753 439.551 108.116 439.569 107.509 439.733C106.933 439.929 106.376 440.174 105.842 440.465C104.905 440.009 104.299 438.96 103.087 438.933C103.731 438.042 104.6 437.339 105.604 436.895C106.609 436.451 107.713 436.283 108.803 436.407C109.303 436.484 109.815 436.39 110.255 436.139C110.695 435.889 111.038 435.497 111.228 435.026C114.175 429.851 117.192 424.688 120.194 419.512Z" fill="white" fill-opacity="0.5"/>
<path d="M318.044 316.891C317.69 317.799 317.228 318.661 316.667 319.458C316.468 319.756 316.375 320.113 316.402 320.471C316.429 320.829 316.576 321.168 316.819 321.432C317.506 322.361 317.95 323.448 318.109 324.594C318.268 325.739 318.137 326.906 317.728 327.988C317.16 329.646 316.005 331.038 314.482 331.9C312.959 332.763 311.174 333.035 309.463 332.667C307.714 332.307 306.159 331.312 305.099 329.872C304.038 328.432 303.547 326.65 303.72 324.869C303.866 323.082 304.688 321.419 306.016 320.219C307.345 319.019 309.08 318.371 310.868 318.409C311.493 318.498 312.129 318.37 312.67 318.046C313.212 317.722 313.626 317.222 313.843 316.629C314.138 315.88 314.568 315.192 315.111 314.6C315.496 316.118 316.791 316.463 318.044 316.891ZM310.91 329.644C311.98 329.645 313.008 329.23 313.779 328.486C314.55 327.742 315.003 326.727 315.042 325.655C315.017 324.565 314.574 323.526 313.804 322.755C313.035 321.983 311.998 321.539 310.91 321.515C309.849 321.539 308.839 321.971 308.088 322.721C307.336 323.472 306.902 324.483 306.874 325.545C306.863 326.082 306.959 326.615 307.157 327.114C307.356 327.613 307.652 328.067 308.028 328.449C308.404 328.831 308.853 329.134 309.348 329.339C309.843 329.544 310.374 329.648 310.91 329.644Z" fill="white" fill-opacity="0.5"/>
<path d="M33.0462 388.167C32.978 388.403 32.8808 388.631 32.7569 388.843C32.2576 389.367 31.9699 390.058 31.9496 390.782C31.9292 391.506 32.1776 392.212 32.6467 392.763C33.4336 394.118 33.7368 395.7 33.5064 397.251C33.2761 398.801 32.526 400.227 31.3795 401.293C30.2468 402.408 28.7802 403.118 27.205 403.316C25.6299 403.514 24.0334 403.189 22.6611 402.389C21.2888 401.589 20.2166 400.36 19.6093 398.89C19.002 397.42 18.8932 395.792 19.2997 394.254C19.6848 392.739 20.5547 391.393 21.7761 390.42C22.9975 389.448 24.5032 388.904 26.0627 388.871C26.2455 388.845 26.431 388.845 26.6137 388.871C26.8456 388.955 27.0928 388.99 27.3389 388.972C27.5851 388.954 27.8246 388.884 28.0419 388.767C28.2591 388.649 28.4492 388.487 28.5995 388.291C28.7498 388.095 28.857 387.869 28.914 387.629C29.0357 387.417 29.1838 387.223 29.3547 387.049C29.7766 387.001 30.2036 387.039 30.6106 387.16C31.0176 387.281 31.3962 387.482 31.7239 387.753C31.9049 387.908 32.1155 388.024 32.3427 388.095C32.57 388.167 32.8093 388.191 33.0462 388.167ZM26.3933 400.134C27.4652 400.098 28.4812 399.646 29.2266 398.873C29.972 398.1 30.3884 397.068 30.3878 395.993C30.3393 394.918 29.886 393.902 29.1191 393.149C28.3522 392.395 27.329 391.962 26.2556 391.935C25.7129 391.948 25.178 392.067 24.6814 392.287C24.1849 392.507 23.7364 392.822 23.3616 393.216C22.9868 393.609 22.6931 394.073 22.4972 394.58C22.3012 395.087 22.207 395.628 22.2198 396.172C22.2249 396.71 22.3379 397.242 22.552 397.736C22.7662 398.229 23.0771 398.675 23.4664 399.046C23.8557 399.416 24.3155 399.705 24.8183 399.894C25.3211 400.084 25.8567 400.17 26.3933 400.147V400.134Z" fill="white" fill-opacity="0.5"/>
<path d="M328.045 121.296C329.184 121.75 330.252 122.368 331.213 123.132C331.823 123.648 332.53 124.038 333.292 124.277C333.216 124.892 332.956 125.469 332.549 125.934C330.937 128.777 329.312 131.62 327.645 134.436C326.268 136.658 325.18 138.977 323.678 141.103C322.923 140.897 322.225 140.519 321.64 139.998C320.645 139.222 319.552 138.582 318.389 138.094L318.568 137.707L318.802 137.362C320.304 134.298 322.122 131.413 323.816 128.46C325.18 126.058 326.433 123.574 328.045 121.296Z" fill="white" fill-opacity="0.5"/>
<path d="M11.8756 153.042C11.9451 153.433 12.1061 153.802 12.3456 154.119C12.585 154.436 12.896 154.691 13.253 154.864C13.9968 155.388 14.7682 155.913 15.5533 156.382C15.773 156.489 15.9602 156.653 16.0957 156.857C16.2313 157.061 16.3103 157.297 16.3246 157.541C15.2447 159.82 13.9535 161.992 12.4679 164.029C11.9169 164.719 11.7792 165.74 11.2696 166.513C10.2661 168.434 9.12445 170.279 7.85362 172.034C7.74244 172.437 7.57553 172.823 7.35775 173.18C6.31461 172.235 5.18991 171.385 3.99688 170.64C3.37904 170.235 2.94016 169.607 2.771 168.887C5.70028 163.523 8.73516 158.241 11.8756 153.042Z" fill="white" fill-opacity="0.5"/>
<path d="M185.387 47.6738C186.93 49.0541 188.39 50.5862 190.635 50.7518C188.899 54.299 186.751 57.6531 184.808 61.0347C183.844 62.7462 182.797 64.4163 181.778 66.114C181.722 66.1704 181.683 66.2425 181.668 66.321V66.4176C181.114 66.4399 180.574 66.2414 180.167 65.8655C178.899 65.0098 177.605 64.2092 176.31 63.3949C178.541 59.4612 180.759 55.5274 183.018 51.6075C183.704 50.2367 184.496 48.9214 185.387 47.6738Z" fill="white" fill-opacity="0.5"/>
<path d="M125.842 433.646C127.191 434.001 128.434 434.678 129.464 435.62C129.983 436.036 130.552 436.384 131.159 436.655C129.712 439.595 127.963 442.383 126.338 445.213C125.2 447.405 123.945 449.533 122.577 451.589C121.536 451.043 120.537 450.421 119.588 449.726C118.935 449.149 118.142 448.754 117.288 448.58C118.817 445.392 120.732 442.424 122.495 439.374C123.457 437.379 124.576 435.463 125.842 433.646Z" fill="white" fill-opacity="0.5"/>
<path d="M105.002 358.34C103.778 357.998 102.694 357.279 101.903 356.283C102.743 354.765 103.555 353.233 104.423 351.728C107.444 346.456 110.475 341.193 113.514 335.938C113.765 335.369 114.109 334.847 114.533 334.393C115.622 334.931 116.365 336.035 117.619 336.325C117.624 336.76 117.461 337.181 117.164 337.498C113.307 344.206 109.442 350.91 105.566 357.608C105.395 357.865 105.206 358.109 105.002 358.34Z" fill="white" fill-opacity="0.5"/>
<path d="M19.3411 377.056C20.2286 377.242 21.0509 377.661 21.724 378.271C22.6479 378.939 23.6192 379.538 24.6303 380.065C22.0545 384.882 19.3411 389.616 16.4623 394.254C15.1906 393.546 13.9708 392.748 12.8122 391.866C12.3533 391.467 11.7667 391.247 11.1593 391.245C13.7626 386.359 16.5174 381.652 19.3411 377.056Z" fill="white" fill-opacity="0.5"/>
<path d="M117.247 448.635C118.1 448.81 118.893 449.205 119.547 449.781C120.511 450.459 121.524 451.063 122.577 451.589C122.161 452.618 121.634 453.599 121.007 454.515C118.9 458.145 116.875 461.858 114.657 465.378C113.486 465.475 112.825 464.577 112.013 463.998C111.64 463.603 111.188 463.291 110.688 463.082C110.187 462.873 109.649 462.771 109.106 462.783C109.855 461.169 110.715 459.611 111.682 458.118C113.5 454.985 115.222 451.713 117.247 448.635Z" fill="white" fill-opacity="0.5"/>
<path d="M318.389 138.094C319.552 138.582 320.645 139.222 321.639 139.998C322.225 140.519 322.923 140.897 323.678 141.103C323.489 141.761 323.181 142.378 322.769 142.925C320.446 146.918 318.113 150.907 315.772 154.891C313.753 154.341 311.95 153.185 310.607 151.579C311.984 148.818 313.623 146.182 315.152 143.504C316.107 141.629 317.188 139.821 318.389 138.094Z" fill="white" fill-opacity="0.5"/>
<path d="M389.187 366.166C387.699 364.775 386.08 363.531 384.353 362.453C385.097 360.84 385.953 359.281 386.915 357.788C388.526 355.027 390.165 352.17 391.804 349.368C392.11 349.342 392.416 349.39 392.7 349.506C394.194 350.481 395.62 351.555 396.97 352.722C394.49 357.263 391.984 361.79 389.187 366.166Z" fill="white" fill-opacity="0.5"/>
<path d="M318.416 188.859C318.131 189.04 317.793 189.117 317.457 189.08C317.122 189.042 316.809 188.891 316.571 188.652C315.813 188.141 315.028 187.672 314.298 187.12C314.091 186.942 313.85 186.809 313.589 186.728C313.328 186.648 313.054 186.621 312.783 186.651C312.676 186.64 312.573 186.607 312.48 186.554C312.4 186.199 312.242 185.867 312.018 185.58C311.794 185.294 311.51 185.061 311.185 184.898C310.981 184.774 310.818 184.593 310.715 184.377C310.612 184.161 310.575 183.92 310.607 183.683C311.534 183.664 312.431 183.349 313.169 182.786C313.953 182.28 314.525 181.504 314.779 180.604C315.033 179.704 314.95 178.743 314.546 177.9C314.184 177.035 313.532 176.323 312.701 175.89C311.871 175.456 310.916 175.327 310.001 175.526C309.032 175.664 308.154 176.172 307.55 176.943C306.947 177.715 306.665 178.691 306.764 179.667C306.764 180.095 306.833 180.536 306.874 180.964C306.823 181.075 306.747 181.171 306.651 181.245C306.555 181.319 306.442 181.368 306.322 181.389C306.203 181.409 306.08 181.4 305.965 181.362C305.85 181.324 305.746 181.259 305.662 181.171C305.114 180.693 304.439 180.386 303.72 180.288C303.506 178.684 303.851 177.056 304.697 175.678C305.543 174.3 306.837 173.257 308.361 172.724C309.896 172.153 311.579 172.122 313.133 172.637C314.687 173.153 316.02 174.183 316.912 175.559C317.804 176.934 318.201 178.573 318.039 180.206C317.877 181.838 317.165 183.366 316.02 184.539C316.529 186.168 317.824 187.313 318.416 188.859Z" fill="white" fill-opacity="0.5"/>
<path d="M178.403 488.966C179.351 489.173 180.232 489.615 180.965 490.25C181.796 490.958 182.724 491.544 183.72 491.989C181.475 496.13 179.161 500.271 176.627 504.287C175.249 503.928 174.313 502.769 173.1 502.093C172.566 501.691 171.95 501.413 171.296 501.278C173.541 497.137 175.897 492.997 178.403 488.966Z" fill="white" fill-opacity="0.5"/>
<path d="M327.369 326.981C327.299 326.591 327.137 326.225 326.898 325.91C326.659 325.596 326.348 325.343 325.992 325.172C325.207 324.62 324.381 324.096 323.568 323.585C323.373 323.498 323.207 323.357 323.09 323.178C322.973 323 322.909 322.791 322.907 322.578C325.152 318.437 327.411 314.296 329.986 310.266C329.97 310.565 330.051 310.862 330.217 311.111C330.384 311.36 330.627 311.548 330.909 311.646C331.998 312.419 333.099 313.164 334.188 313.951C335.276 314.738 335.331 314.903 334.064 315.759C333.642 316.109 333.28 316.523 332.989 316.988C331.368 320.455 329.49 323.795 327.369 326.981Z" fill="white" fill-opacity="0.5"/>
<path d="M113.859 25.369C115.027 25.8341 116.122 26.4664 117.109 27.2461C117.699 27.7532 118.389 28.1294 119.134 28.3503C119.059 28.7814 118.874 29.1857 118.597 29.5235L112.894 39.1853C112.026 39.1573 111.195 38.8196 110.553 38.2329C109.697 37.3302 108.57 36.7339 107.343 36.5352C109.423 32.7809 111.558 28.9853 113.859 25.369Z" fill="white" fill-opacity="0.5"/>
<path d="M384.669 181.751C384.12 181.781 383.58 181.592 383.168 181.227C381.915 180.371 380.606 179.57 379.325 178.742C381.308 175.057 383.375 171.413 385.592 167.866C386.57 168.487 387.589 169.08 388.526 169.757C389.247 170.344 390.161 170.639 391.088 170.585C389.146 174.422 386.901 178.08 384.669 181.751Z" fill="white" fill-opacity="0.5"/>
<path d="M33.0463 388.167C32.8005 388.199 32.5509 388.178 32.3135 388.107C32.0762 388.036 31.8565 387.915 31.6689 387.753C31.3412 387.483 30.9626 387.281 30.5556 387.16C30.1486 387.039 29.7216 387.001 29.2997 387.049C30.1728 385.219 31.1572 383.444 32.2474 381.735C34.2446 378.271 36.2832 374.834 38.308 371.383C38.905 371.369 39.4855 371.581 39.9333 371.977C40.4527 372.474 41.1108 372.802 41.8203 372.915C39.0242 378.064 36.1454 383.171 33.0463 388.167Z" fill="white" fill-opacity="0.5"/>
<path d="M318.045 316.891C316.805 316.449 315.496 316.104 315.056 314.613C316.199 312.06 317.81 309.755 319.188 307.326C320.565 304.896 321.943 302.509 323.32 300.107C324.422 300.797 325.909 301.004 326.35 302.509C323.926 306.797 321.497 311.08 319.064 315.359C318.832 315.934 318.485 316.455 318.045 316.891Z" fill="white" fill-opacity="0.5"/>
<path d="M116.117 95.8857C117.495 96.1342 118.101 97.4868 119.368 97.8043C116.71 102.594 114.051 107.383 111.104 112.035C110.528 111.735 109.976 111.394 109.451 111.013C109.2 110.806 108.909 110.653 108.596 110.565C108.283 110.477 107.954 110.456 107.633 110.503C109.809 106.265 112.343 102.221 114.699 98.0803C115.061 97.2825 115.539 96.5429 116.117 95.8857Z" fill="white" fill-opacity="0.5"/>
<path d="M360.221 209.797C359.009 209.797 358.279 208.417 357.011 208.597C357.314 208.293 357.645 208.017 357.92 207.686C358.443 207.149 358.796 206.471 358.938 205.735C359.08 204.999 359.004 204.238 358.719 203.545C358.469 202.844 358.031 202.225 357.453 201.757C356.874 201.29 356.178 200.991 355.441 200.895C354.528 200.802 353.61 201.006 352.822 201.476C352.033 201.945 351.416 202.656 351.061 203.504C349.973 203.504 349.284 202.496 348.306 202.261C348.767 200.904 349.653 199.732 350.832 198.919C352.01 198.106 353.419 197.695 354.849 197.748C356.281 197.672 357.702 198.046 358.911 198.818C360.121 199.59 361.061 200.722 361.598 202.054C362.207 203.327 362.402 204.759 362.154 206.148C361.907 207.538 361.231 208.814 360.221 209.797Z" fill="white" fill-opacity="0.5"/>
<path d="M103.128 438.946C104.299 438.946 104.905 440.009 105.883 440.478C105.369 440.909 104.991 441.479 104.795 442.121C104.435 443.049 104.42 444.076 104.754 445.014C105.088 445.952 105.748 446.738 106.613 447.228C107.45 447.711 108.435 447.869 109.38 447.67C110.326 447.472 111.165 446.931 111.737 446.151C111.971 445.875 112.178 445.571 112.398 445.268C113.486 445.268 114.106 446.344 115.153 446.427C114.624 447.729 113.726 448.846 112.569 449.641C111.413 450.436 110.049 450.873 108.646 450.898C107.244 450.923 105.865 450.535 104.681 449.782C103.497 449.029 102.56 447.944 101.985 446.662C101.337 445.42 101.098 444.004 101.304 442.618C101.509 441.231 102.148 439.946 103.128 438.946Z" fill="white" fill-opacity="0.5"/>
<path d="M240.524 264.248C239.767 263.172 238.348 262.868 237.632 261.764C238.891 259.211 240.294 256.732 241.833 254.338C242.231 253.846 242.448 253.232 242.448 252.599C242.448 251.966 242.231 251.352 241.833 250.86C241.607 250.493 241.418 250.104 241.268 249.7C241.829 249.634 242.395 249.782 242.852 250.115C244.6 251.18 246.262 252.38 247.825 253.703C247.659 254.462 246.778 253.938 246.447 254.462C245.872 254.934 245.431 255.548 245.166 256.243C243.651 258.907 242.287 261.695 240.524 264.248Z" fill="white" fill-opacity="0.5"/>
<path d="M19.3549 157.9C20.2778 158.259 20.9527 159.143 22.1097 159.074C22.0271 159.488 21.9444 159.916 21.848 160.33C21.6689 160.97 21.6501 161.645 21.7933 162.294C21.9366 162.943 22.2374 163.547 22.6692 164.052C23.101 164.557 23.6504 164.948 24.2688 165.189C24.8872 165.431 25.5554 165.516 26.2144 165.437C27.3132 165.26 28.3217 164.721 29.0794 163.904C29.2796 164.401 29.6137 164.831 30.0442 165.148C30.4748 165.465 30.9849 165.656 31.5174 165.699C30.5093 167.121 29.0148 168.121 27.3183 168.511C25.6217 168.9 23.8414 168.651 22.3163 167.811C20.8078 166.995 19.6376 165.668 19.0145 164.068C18.3913 162.468 18.3558 160.698 18.9141 159.074C18.983 158.687 19.1896 158.301 19.3549 157.9Z" fill="white" fill-opacity="0.5"/>
<path d="M309.904 228.417C310.517 228.423 311.108 228.648 311.571 229.052C312.067 229.521 312.69 229.833 313.361 229.949C311.396 233.437 309.427 236.924 307.452 240.412C307.284 240.661 307.095 240.897 306.888 241.115C306.31 240.435 305.626 239.852 304.863 239.39C304.667 239.261 304.51 239.081 304.408 238.87C304.306 238.658 304.263 238.423 304.284 238.189C305.992 234.839 307.867 231.577 309.904 228.417Z" fill="white" fill-opacity="0.5"/>
<path d="M117.605 336.325C116.352 336.035 115.622 334.945 114.52 334.392C115.897 331.48 117.715 328.871 119.217 326.014C119.598 325.526 119.858 324.953 119.974 324.344C121.415 324.57 122.708 325.359 123.569 326.539C121.847 329.396 120.098 332.239 118.431 335.124C118.183 335.552 117.825 335.883 117.605 336.325Z" fill="white" fill-opacity="0.5"/>
<path d="M310.607 183.669C310.575 183.906 310.612 184.147 310.715 184.363C310.818 184.579 310.981 184.76 311.185 184.884C311.51 185.047 311.794 185.28 312.018 185.566C312.242 185.853 312.4 186.185 312.48 186.54C311.488 186.798 310.451 186.834 309.443 186.645C308.436 186.455 307.482 186.045 306.651 185.444C305.819 184.843 305.131 184.066 304.634 183.167C304.136 182.269 303.843 181.271 303.775 180.246C304.506 180.314 305.201 180.598 305.772 181.061C305.856 181.148 305.96 181.214 306.075 181.252C306.191 181.29 306.313 181.299 306.433 181.278C306.552 181.258 306.665 181.209 306.761 181.135C306.857 181.061 306.934 180.964 306.984 180.854C307.33 181.571 307.837 182.199 308.466 182.688C309.094 183.176 309.827 183.512 310.607 183.669Z" fill="white" fill-opacity="0.5"/>
<path d="M328.458 120.537L328.223 120.923C328.209 120.842 328.225 120.757 328.269 120.686C328.312 120.615 328.379 120.562 328.458 120.537Z" fill="white" fill-opacity="0.5"/>
<path d="M114.313 24.6097L114.051 24.9962C114.035 24.9102 114.054 24.8213 114.103 24.7489C114.152 24.6765 114.227 24.6265 114.313 24.6097Z" fill="white" fill-opacity="0.5"/>
<path d="M181.682 66.319C181.697 66.2412 181.735 66.1698 181.791 66.1139V66.2506L181.682 66.319Z" fill="white" fill-opacity="0.5"/>
<path d="M126.558 3.28503C126.563 3.37805 126.539 3.47025 126.49 3.54922C126.44 3.62819 126.368 3.69015 126.283 3.72672C126.274 3.63299 126.296 3.53889 126.346 3.45904C126.395 3.37918 126.47 3.31802 126.558 3.28503Z" fill="white" fill-opacity="0.5"/>
<path d="M126.958 2.59485L126.71 3.00893C126.697 2.9654 126.694 2.91981 126.7 2.87496C126.706 2.83011 126.721 2.78695 126.744 2.74815C126.768 2.70935 126.798 2.67574 126.835 2.64938C126.872 2.62301 126.913 2.60444 126.958 2.59485Z" fill="white" fill-opacity="0.5"/>
<path d="M108.803 163.463L109.051 163.877C108.972 163.842 108.905 163.784 108.861 163.71C108.816 163.635 108.796 163.549 108.803 163.463Z" fill="white" fill-opacity="0.5"/>
<path d="M318.788 137.376L318.554 137.721C318.546 137.683 318.546 137.644 318.554 137.605C318.561 137.567 318.576 137.531 318.598 137.499C318.62 137.466 318.648 137.439 318.681 137.418C318.714 137.397 318.75 137.383 318.788 137.376Z" fill="white" fill-opacity="0.5"/>
<path d="M132.577 501.278H168.872C169.547 501.278 170.249 501.278 170.91 501.361C170.353 501.642 169.717 501.724 169.106 501.595H134.34C134.041 501.671 133.729 501.682 133.425 501.627C133.121 501.572 132.832 501.453 132.577 501.278Z" fill="white" fill-opacity="0.5"/>
<path d="M10.4293 116.313C10.3186 116.26 10.2258 116.175 10.1623 116.07C10.0987 115.965 10.0671 115.843 10.0712 115.72C10.1819 115.773 10.2747 115.858 10.3383 115.963C10.4019 116.069 10.4335 116.19 10.4293 116.313Z" fill="white" fill-opacity="0.5"/>
<path d="M10.7461 116.852C10.6629 116.819 10.5932 116.758 10.5483 116.681C10.5033 116.603 10.4857 116.513 10.4982 116.424L10.7461 116.852Z" fill="white" fill-opacity="0.5"/>
</g>
<defs>
<clipPath id="clip0">
<rect width="463" height="508" fill="white" transform="translate(-63)"/>
</clipPath>
</defs>
</svg>
