<svg width="802" height="878" viewBox="0 0 802 878" fill="none" xmlns="http://www.w3.org/2000/svg">
<g opacity="0.8" clip-path="url(#clip0)">
<path d="M678.076 208.33C679.435 205.572 680.94 202.888 682.585 200.29C682.749 200.016 682.991 199.795 683.279 199.655C683.567 199.515 683.89 199.462 684.207 199.503H685.806C710.397 199.503 734.98 199.503 759.555 199.503C760.382 199.397 761.222 199.551 761.958 199.944C762.693 200.337 763.288 200.951 763.658 201.698C775.922 223.104 788.241 244.479 800.616 265.821C800.782 266.645 801.261 267.372 801.952 267.849V269.137C801.38 269.137 801.38 269.591 801.165 269.948C796.393 278.298 791.621 286.79 786.515 294.973C784.909 295.066 783.326 294.556 782.078 293.541C780.455 292.349 778.69 291.347 776.996 290.273C780.336 283.665 784.32 277.415 788.018 271.022C788.564 270.26 788.858 269.347 788.858 268.41C788.858 267.473 788.564 266.559 788.018 265.797C777.839 248.303 767.73 230.809 757.693 213.315C757.286 212.413 756.608 211.659 755.753 211.159C754.898 210.659 753.908 210.437 752.922 210.524C732.713 210.524 712.504 210.524 692.272 210.524C691.413 210.524 690.554 210.524 689.695 210.524C689.289 210.524 688.741 210.524 688.621 211.001C688.335 212.552 686.784 213.387 686.45 214.842C685.13 214.428 683.905 213.755 682.847 212.862C681.183 211.542 679.334 210.473 677.36 209.689L677.67 209.021L678.076 208.33Z" fill="white" fill-opacity="0.5"/>
<path d="M0 234.213C0.413497 234.159 0.800291 233.979 1.10769 233.697C1.41509 233.415 1.62816 233.046 1.71786 232.639C2.73676 230.706 3.8929 228.848 5.17742 227.08C5.20004 227.5 5.33331 227.907 5.56376 228.259C5.79422 228.611 6.11367 228.895 6.48968 229.084C8.08824 230.062 9.61522 231.183 11.2615 232.185C11.78 232.438 12.2317 232.81 12.5799 233.27C12.9281 233.73 13.163 234.266 13.2657 234.833C16.3284 241.069 19.7212 247.137 23.4296 253.011C28.8456 262.076 33.5698 271.523 39.2482 280.421C41.4433 283.856 43.3997 287.435 45.3323 291.013C45.6219 291.63 46.0973 292.141 46.692 292.475C47.2867 292.809 47.9709 292.948 48.6487 292.874C69.4698 292.874 90.2828 292.874 111.088 292.874C111.611 292.997 112.159 292.969 112.666 292.791C113.173 292.614 113.619 292.295 113.951 291.872C114.244 293.116 115.004 294.201 116.075 294.901C118.141 296.189 120.089 297.658 121.896 299.291C121.91 299.394 121.91 299.498 121.896 299.601C119.749 303.799 119.749 303.799 115.168 303.799C91.3088 303.799 67.6406 303.799 43.8769 303.799C42.7403 303.923 41.5938 303.685 40.6002 303.119C39.6066 302.554 38.8163 301.69 38.3416 300.65C26.3961 279.753 14.3711 258.903 2.26661 238.101C2.10567 237.531 1.82725 237.001 1.44922 236.545C1.07119 236.089 0.601925 235.717 0.0715744 235.453V234.213H0Z" fill="white" fill-opacity="0.5"/>
<path d="M410.997 0C416.262 9.22411 421.527 18.4482 426.792 27.6723C431.325 35.5685 435.906 43.4408 440.439 51.3369C440.572 51.6283 440.676 51.9319 440.749 52.2434C440.314 52.5297 439.792 52.6553 439.274 52.5987C438.756 52.5421 438.274 52.3068 437.91 51.9333C434.618 49.5478 431.158 47.5916 427.961 45.1345C426.683 43.9864 425.048 43.3127 423.332 43.2261C422.688 42.2242 422.02 41.2699 421.447 40.2441L404.531 10.9973C404.073 10.6271 403.531 10.3748 402.953 10.2625C402.375 10.1502 401.778 10.1814 401.215 10.3533C393.413 10.3533 385.587 10.3533 377.785 10.3533C377.32 10.4824 376.831 10.5045 376.356 10.4177C375.88 10.3309 375.431 10.1376 375.041 9.85228C372.274 6.79878 368.504 5.08119 365.259 2.69564C364.727 2.45159 364.264 2.08005 363.91 1.61396C363.556 1.14788 363.323 0.601681 363.231 0.0238424H410.949L410.997 0Z" fill="white" fill-opacity="0.5"/>
<path d="M363.255 0C363.347 0.577839 363.58 1.12404 363.934 1.59012C364.288 2.05621 364.751 2.42775 365.283 2.6718C368.528 5.05734 372.298 6.75108 375.065 9.82843C375.455 10.1138 375.904 10.3071 376.38 10.3938C376.855 10.4806 377.344 10.4586 377.809 10.3294C385.611 10.3294 393.437 10.3294 401.239 10.3294C401.802 10.1575 402.399 10.1264 402.977 10.2387C403.555 10.351 404.097 10.6033 404.555 10.9735C383.066 10.9735 361.593 10.9735 340.136 10.9735C339.4 10.8534 338.646 10.9861 337.996 11.3501C337.346 11.7141 336.838 12.2877 336.557 12.9773C333.227 12.0026 330.23 10.1289 327.896 7.56217C327.795 7.37887 327.738 7.17478 327.729 6.96579C327.71 6.88045 327.721 6.79125 327.76 6.7131C327.799 6.63494 327.864 6.57256 327.944 6.53637C328.092 6.47316 328.217 6.36612 328.302 6.22962C328.387 6.09313 328.429 5.93377 328.421 5.77302C328.396 5.66928 328.401 5.56069 328.435 5.45953C328.468 5.35838 328.53 5.26867 328.612 5.20047L329.065 4.53252C329.375 2.8865 330.998 1.81299 331.021 0.0476847H363.279L363.255 0Z" fill="white" fill-opacity="0.5"/>
<path d="M527.119 431.593C523.707 426.631 520.987 421.263 517.957 416.087C513.185 408.119 508.652 400.151 504.143 392.112C503.82 391.355 503.258 390.726 502.542 390.32C501.826 389.915 500.997 389.757 500.182 389.87C497.193 389.954 494.277 388.94 491.986 387.018C489.695 385.097 488.188 382.402 487.752 379.445C487.236 376.495 487.795 373.457 489.327 370.884C490.859 368.311 493.263 366.371 496.102 365.418C498.929 364.447 502.012 364.533 504.78 365.66C507.548 366.787 509.814 368.879 511.157 371.549C512.394 373.59 512.935 375.977 512.698 378.351C512.461 380.726 511.46 382.96 509.845 384.717C509.433 385.069 509.166 385.561 509.096 386.099C509.026 386.636 509.156 387.18 509.463 387.627C509.797 388.176 510.108 388.748 510.418 389.297C518.363 403.062 526.379 416.802 534.277 430.615C534.66 431.417 535.285 432.078 536.064 432.506C536.843 432.934 537.737 433.107 538.619 433C558.947 433 579.18 433 599.579 433C602.514 433 602.514 433 603.134 430.615C604.631 424.851 608.303 419.892 613.379 416.778C618.455 413.665 624.541 412.639 630.357 413.916C633.197 414.56 634.938 414.393 636.203 411.769C636.167 412.173 636.24 412.58 636.417 412.945C636.593 413.311 636.866 413.621 637.205 413.844C638.527 414.643 639.712 415.65 640.712 416.826C640.476 417.366 640.447 417.974 640.632 418.533C640.817 419.093 641.203 419.564 641.714 419.856C645.769 423.64 648.255 428.807 648.681 434.336C649.121 437.596 648.784 440.914 647.698 444.019C646.612 447.124 644.807 449.929 642.43 452.204C640.044 454.589 640.044 454.589 641.714 457.595C652.26 475.821 662.83 494.046 673.28 512.32C673.714 513.325 674.456 514.167 675.4 514.725C676.343 515.282 677.438 515.526 678.529 515.421C688.526 515.254 698.523 515.421 708.52 515.421C709.449 515.565 710.4 515.392 711.219 514.929C712.037 514.465 712.675 513.739 713.029 512.868C714.387 510.202 716.682 508.13 719.474 507.052C722.266 505.973 725.357 505.963 728.156 507.024C730.899 508.023 733.207 509.947 734.685 512.465C736.162 514.982 736.715 517.936 736.248 520.817C735.782 523.699 734.326 526.327 732.13 528.251C729.935 530.174 727.137 531.273 724.219 531.356C721.833 531.469 719.469 530.863 717.431 529.617C715.393 528.371 713.777 526.542 712.791 524.367C712.524 523.628 712.01 523.003 711.337 522.599C710.663 522.195 709.87 522.036 709.093 522.148C698.666 522.148 688.24 522.148 677.813 522.148C676.635 521.947 675.425 522.221 674.449 522.911C673.662 520.287 671.085 519.953 669.2 518.761L651.115 487.558L635.607 460.84C633.913 457.905 634.151 458.454 631.383 459.074C625.497 460.624 619.236 459.79 613.961 456.753C608.685 453.716 604.821 448.721 603.206 442.852C602.395 440.038 602.395 440.014 599.341 440.014H539.693C538.524 440.014 537.307 440.014 536.162 439.894C536.639 438.988 538.166 439.894 538.548 438.582C535.841 436.295 532.962 434.221 529.934 432.38C529.134 431.761 528.124 431.479 527.119 431.593ZM642.001 436.65C642.103 434.44 641.759 432.231 640.988 430.157C640.218 428.083 639.037 426.185 637.516 424.578C635.996 422.97 634.167 421.686 632.138 420.801C630.11 419.916 627.924 419.449 625.711 419.429C623.498 419.408 621.303 419.833 619.259 420.679C617.214 421.526 615.361 422.776 613.81 424.354C612.259 425.933 611.043 427.808 610.234 429.867C609.424 431.927 609.038 434.128 609.099 436.34C609.216 440.599 610.98 444.646 614.02 447.632C617.06 450.617 621.14 452.307 625.4 452.348C629.661 452.388 633.772 450.774 636.868 447.847C639.963 444.92 641.803 440.906 642.001 436.65ZM723.79 511.628C721.929 511.684 720.163 512.462 718.867 513.798C717.57 515.135 716.846 516.923 716.847 518.784C716.71 519.807 716.795 520.846 717.098 521.832C717.4 522.818 717.912 523.727 718.598 524.497C719.284 525.267 720.129 525.88 721.074 526.293C722.019 526.706 723.043 526.91 724.074 526.891C725.105 526.871 726.12 526.63 727.049 526.182C727.978 525.734 728.8 525.091 729.457 524.296C730.114 523.501 730.592 522.574 730.858 521.577C731.123 520.581 731.17 519.538 730.995 518.522C730.927 516.662 730.136 514.901 728.791 513.614C727.446 512.327 725.652 511.614 723.79 511.628ZM507.125 377.536C507.126 375.663 506.391 373.864 505.08 372.526C503.768 371.188 501.984 370.417 500.111 370.38C499.086 370.211 498.037 370.267 497.036 370.544C496.035 370.821 495.106 371.312 494.315 371.984C493.523 372.656 492.886 373.492 492.45 374.434C492.014 375.377 491.788 376.402 491.788 377.441C491.788 378.479 492.014 379.505 492.45 380.447C492.886 381.39 493.523 382.226 494.315 382.898C495.106 383.569 496.035 384.061 497.036 384.338C498.037 384.615 499.086 384.671 500.111 384.502C501.951 384.466 503.708 383.722 505.014 382.425C506.32 381.127 507.076 379.376 507.125 377.536Z" fill="white" fill-opacity="0.5"/>
<path d="M317.326 725.063C317.845 724.403 318.127 723.588 318.127 722.749C318.127 721.909 317.845 721.095 317.326 720.435C306.542 701.891 295.805 683.316 285.116 664.708C283.756 662.323 283.732 662.323 281.18 662.991C278.212 663.804 275.113 664.02 272.061 663.626C269.01 663.232 266.067 662.236 263.404 660.695C260.74 659.155 258.409 657.102 256.546 654.654C254.682 652.206 253.324 649.412 252.549 646.435C251.833 644.05 251.833 643.93 249.423 643.93H184.025C183.609 643.833 183.175 643.837 182.76 643.941C182.345 644.044 181.961 644.245 181.639 644.527C180.41 644.33 179.27 643.764 178.371 642.905C177.595 642.22 176.59 641.854 175.555 641.879C175.774 641.393 175.857 640.856 175.794 640.326C175.731 639.797 175.525 639.294 175.197 638.873C169.71 629.331 164.198 619.932 158.806 610.413C158.463 609.826 157.936 609.367 157.307 609.109C156.677 608.85 155.98 608.806 155.323 608.982C152.234 609.167 149.188 608.194 146.779 606.253C144.37 604.312 142.771 601.542 142.296 598.486C142.029 596.803 142.109 595.084 142.53 593.434C142.951 591.783 143.704 590.236 144.744 588.886C145.783 587.537 147.087 586.413 148.576 585.585C150.064 584.756 151.706 584.24 153.401 584.068C155.096 583.896 156.808 584.071 158.433 584.583C160.058 585.095 161.561 585.933 162.851 587.046C164.141 588.159 165.19 589.523 165.935 591.055C166.679 592.588 167.103 594.255 167.181 595.957C167.338 598.773 166.493 601.554 164.795 603.805C164.382 604.221 164.137 604.775 164.106 605.36C164.075 605.945 164.261 606.521 164.628 606.978C170.147 616.441 175.627 625.919 181.067 635.414C181.347 635.981 181.795 636.447 182.35 636.75C182.905 637.053 183.54 637.178 184.168 637.108C205.864 637.108 227.568 637.108 249.28 637.108C251.857 637.108 251.928 637.108 252.62 634.388C254.24 628.472 258.134 623.436 263.453 620.38C268.772 617.323 275.084 616.493 281.013 618.071C283.542 618.739 283.542 618.691 284.997 616.52C285.183 616.264 285.382 616.017 285.593 615.781C286.964 617.501 288.843 618.745 290.962 619.335C289.65 621.387 289.984 622.794 291.845 624.679C295.948 628.942 298.252 634.621 298.279 640.538C298.305 646.455 296.052 652.154 291.988 656.454C291.566 656.938 291.111 657.392 290.628 657.814C290.44 657.92 290.279 658.067 290.155 658.243C290.031 658.419 289.948 658.621 289.912 658.833C289.875 659.045 289.886 659.263 289.944 659.47C290.002 659.678 290.105 659.87 290.246 660.033C290.604 660.558 290.866 661.154 291.2 661.726C301.889 680.222 312.562 698.718 323.219 717.214C323.541 717.926 324.077 718.518 324.754 718.908C325.43 719.297 326.212 719.464 326.989 719.385C337.408 719.385 347.826 719.385 358.245 719.385C359.104 719.516 359.983 719.351 360.737 718.918C361.492 718.485 362.076 717.808 362.396 716.999C363.378 714.882 364.981 713.113 366.993 711.929C369.004 710.744 371.329 710.199 373.657 710.368C375.93 710.347 378.162 710.976 380.089 712.18C382.017 713.385 383.56 715.115 384.537 717.166C386.037 720.07 386.337 723.446 385.373 726.569C384.409 729.691 382.259 732.311 379.384 733.865C377.977 734.664 376.426 735.174 374.82 735.366C373.215 735.558 371.587 735.429 370.032 734.984C368.477 734.54 367.026 733.79 365.764 732.779C364.502 731.768 363.454 730.515 362.682 729.094C362.269 728.086 361.522 727.25 360.567 726.725C359.612 726.2 358.506 726.017 357.433 726.208C347.436 726.208 337.463 726.208 327.466 726.208C326.837 726.062 326.184 726.058 325.553 726.194C324.922 726.33 324.329 726.603 323.816 726.995C323.285 727.055 322.747 727.004 322.238 726.844C321.728 726.683 321.258 726.418 320.857 726.065C319.852 725.292 318.588 724.933 317.326 725.063ZM275.119 656.884C278.357 656.87 281.519 655.895 284.203 654.084C286.887 652.273 288.974 649.707 290.199 646.71C291.423 643.713 291.732 640.42 291.084 637.247C290.437 634.075 288.863 631.166 286.562 628.888C284.26 626.611 281.335 625.067 278.156 624.452C274.977 623.837 271.686 624.179 268.701 625.434C265.717 626.69 263.171 628.802 261.387 631.504C259.604 634.206 258.662 637.377 258.68 640.614C258.706 644.95 260.451 649.099 263.533 652.15C266.616 655.2 270.783 656.903 275.119 656.884ZM147.688 596.386C147.688 598.284 148.442 600.105 149.784 601.447C151.127 602.789 152.947 603.543 154.846 603.543C156.697 603.486 158.46 602.736 159.786 601.442C161.111 600.148 161.903 598.403 162.003 596.553C162.005 594.712 161.297 592.94 160.026 591.607C158.755 590.274 157.019 589.483 155.18 589.397C154.217 589.313 153.248 589.432 152.334 589.747C151.421 590.062 150.584 590.565 149.878 591.224C149.171 591.883 148.612 592.683 148.234 593.573C147.857 594.462 147.671 595.421 147.688 596.386ZM373.3 729.762C375.198 729.762 377.019 729.008 378.361 727.666C379.703 726.324 380.457 724.504 380.457 722.605C380.415 720.765 379.665 719.012 378.363 717.71C377.061 716.408 375.307 715.658 373.467 715.616C371.59 715.594 369.782 716.318 368.44 717.628C367.098 718.939 366.331 720.73 366.309 722.605C366.287 724.481 367.011 726.289 368.322 727.631C369.633 728.974 371.423 729.74 373.3 729.762Z" fill="white" fill-opacity="0.5"/>
<path d="M137.739 681.312C132.967 689.852 128.004 698.368 123.208 706.932C122.924 707.44 122.489 707.846 121.963 708.094C121.437 708.342 120.846 708.42 120.274 708.316H101.473C82.8627 708.316 64.2765 708.316 45.6664 708.316C44.7483 708.397 43.8279 708.187 43.0357 707.716C42.2434 707.245 41.6195 706.537 41.2525 705.692C29.0843 684.445 16.8367 663.237 4.50945 642.069C3.9516 641.317 3.65045 640.406 3.65045 639.469C3.65045 638.533 3.9516 637.621 4.50945 636.869C7.13395 632.694 9.56758 628.424 12.0728 624.178C14.6583 626.635 17.6129 628.671 20.8291 630.213C19.8719 632.74 18.6142 635.143 17.0832 637.37C16.6143 638.005 16.3613 638.775 16.3613 639.565C16.3613 640.354 16.6143 641.124 17.0832 641.759C27.5176 659.667 37.8565 677.606 48.1 695.577C48.4239 696.233 48.9463 696.771 49.593 697.113C50.2397 697.456 50.9779 697.586 51.7028 697.486C72.3806 697.486 93.0585 697.486 113.736 697.486C114.468 697.573 115.209 697.426 115.852 697.066C116.495 696.706 117.007 696.151 117.315 695.482C119.534 691.426 121.968 687.49 124.211 683.554C125.521 681.002 127.012 678.546 128.672 676.207C129.724 676.21 130.74 676.591 131.535 677.28C133.507 678.766 135.58 680.113 137.739 681.312Z" fill="white" fill-opacity="0.5"/>
<path d="M365.235 331.662C366.309 331.662 367.382 331.519 368.432 331.519C395.393 331.519 422.354 331.519 449.315 331.519C450.347 331.413 451.387 331.635 452.287 332.153C453.186 332.671 453.899 333.459 454.325 334.406C468.37 358.897 482.479 383.349 496.651 407.761C497.128 408.596 497.51 409.479 497.94 410.338C496.425 410.404 494.939 409.912 493.764 408.954C489.804 406.187 485.795 403.539 481.835 400.796C480.773 400.066 479.637 399.45 478.447 398.959C477.325 398.482 476.872 399.126 476.729 400.151C476.162 399.657 475.721 399.036 475.44 398.338C465.777 381.64 456.067 364.941 446.523 348.099C446.073 347.105 445.322 346.277 444.376 345.733C443.429 345.189 442.336 344.957 441.25 345.069C408.356 345.181 375.463 345.181 342.569 345.069C341.281 345.069 339.992 345.069 338.704 345.069C339.202 344.763 339.756 344.559 340.333 344.469C340.911 344.379 341.5 344.405 342.068 344.544C350.395 344.544 358.769 344.544 367.048 344.544H399.545C400.451 344.544 401.93 345.045 402.145 344.02C402.36 342.994 400.928 342.469 400.165 341.92C396.347 339.201 392.291 336.767 388.617 333.857C387.438 332.825 385.912 332.28 384.346 332.33C378.978 332.33 373.634 332.33 368.265 332.33C367.742 332.444 367.2 332.442 366.677 332.327C366.154 332.212 365.662 331.985 365.235 331.662Z" fill="white" fill-opacity="0.5"/>
<path d="M327.108 749.491C328.373 746.509 330.258 743.885 331.88 741.046C332.04 740.645 332.328 740.309 332.699 740.089C333.07 739.868 333.504 739.777 333.932 739.829C334.672 739.829 335.435 739.829 336.199 739.829C360.272 739.829 384.346 739.829 408.42 739.829C409.557 739.725 410.697 739.983 411.678 740.566C412.659 741.148 413.431 742.026 413.884 743.073C425.813 763.78 437.743 784.391 449.672 805.098C451.748 808.676 451.772 808.676 449.672 812.254C449.291 812.899 448.837 813.495 448.408 814.115C446.108 813.02 443.925 811.693 441.894 810.155C441.11 809.422 440.081 809.006 439.007 808.986C438.821 808.489 438.606 808.004 438.363 807.531C427.865 789.321 417.383 771.112 406.917 752.902C406.566 752.2 406.005 751.626 405.313 751.258C404.62 750.89 403.83 750.748 403.052 750.85C383.392 750.85 363.708 750.993 344.048 750.85C340.469 750.85 337.845 751.375 336.413 754.858C335.363 754.389 334.377 753.788 333.479 753.069C331.684 751.367 329.495 750.138 327.108 749.491Z" fill="white" fill-opacity="0.5"/>
<path d="M415.053 871.607C414.441 872.452 413.914 873.354 413.478 874.302C412.596 877.308 412.071 877.523 408.874 877.523H351.612C346.124 877.523 340.66 877.523 335.173 877.523C334.395 877.625 333.605 877.48 332.916 877.107C332.226 876.735 331.671 876.154 331.331 875.447C318.957 853.85 306.526 832.285 294.04 810.751C293.575 810.178 293.321 809.462 293.321 808.724C293.321 807.985 293.575 807.269 294.04 806.696C295.59 804.525 296.569 801.925 298.239 799.873C299.178 799.852 300.111 800.028 300.978 800.39C301.845 800.752 302.627 801.291 303.273 801.973C304.681 802.974 305.826 804.525 307.854 804.358C307.471 805.24 307.025 806.093 306.518 806.911C306.129 807.412 305.918 808.029 305.918 808.664C305.918 809.299 306.129 809.916 306.518 810.417C317.35 829.072 328.158 847.743 338.942 866.43C339.385 866.729 339.887 866.93 340.413 867.021C340.94 867.111 341.479 867.089 341.996 866.955H402.217C403.275 867.177 404.377 867.034 405.342 866.549L405.963 866.287C407.096 866.519 408.163 867 409.088 867.694C411.045 868.982 412.619 870.962 415.053 871.607Z" fill="white" fill-opacity="0.5"/>
<path d="M680.724 536.223C680.76 535.843 680.942 535.492 681.231 535.243C681.52 534.994 681.894 534.867 682.275 534.887H684.541C708.83 534.887 733.119 534.887 757.407 534.887C758.381 534.789 759.36 534.994 760.214 535.471C761.067 535.949 761.753 536.678 762.179 537.559C774.14 558.44 786.165 579.282 798.254 600.084C798.683 600.823 799.065 601.611 799.542 602.326C799.836 602.709 799.996 603.179 799.996 603.662C799.996 604.145 799.836 604.615 799.542 604.998C798.707 606.616 797.742 608.164 796.655 609.626C794.318 607.609 791.847 605.752 789.259 604.068C788.768 603.866 788.237 603.784 787.708 603.829L765.233 564.754C761.964 559.076 758.672 553.423 755.451 547.721C755.211 547.066 754.753 546.513 754.153 546.157C753.553 545.801 752.848 545.662 752.158 545.765C751.411 545.813 750.662 545.813 749.915 545.765H687.786C689.981 544.286 690.005 544.095 688.001 542.64C685.997 541.185 684.207 539.992 682.323 538.656C681.825 538.484 681.398 538.152 681.109 537.711C680.82 537.271 680.684 536.748 680.724 536.223Z" fill="white" fill-opacity="0.5"/>
<path d="M399.33 542.402C398.376 542.402 397.397 542.402 396.443 542.402C375.59 542.402 354.737 542.402 333.908 542.402C332.875 542.496 331.838 542.26 330.946 541.729C330.055 541.197 329.354 540.397 328.946 539.443C318.71 521.552 308.355 503.66 298.048 485.864C297.523 484.934 297.07 483.956 296.593 483.025C297.67 482.889 298.76 483.161 299.646 483.789C302.581 485.745 305.492 487.701 308.379 489.729C311.116 491.777 313.985 493.642 316.968 495.311C317.66 495.669 318.352 496.05 318.829 495.025C319.581 495.787 320.18 496.686 320.595 497.673C326.059 507.095 331.546 516.471 336.867 525.965C337.281 526.916 337.988 527.711 338.885 528.235C339.781 528.758 340.821 528.982 341.853 528.875C363.517 528.875 385.181 528.875 406.846 528.875C408.015 528.875 409.231 528.875 410.377 528.875C409.438 529.413 408.332 529.583 407.275 529.353H389.237C388.498 529.353 387.734 529.353 386.995 529.353C386.738 529.272 386.461 529.277 386.207 529.367C385.953 529.458 385.735 529.628 385.587 529.854C385.517 530.169 385.559 530.5 385.708 530.788C385.856 531.075 386.1 531.302 386.398 531.428C386.804 531.762 387.305 532.001 387.758 532.287C391.003 534.529 394.248 536.819 397.517 539.038C398.156 539.309 398.685 539.79 399.014 540.401C399.344 541.013 399.455 541.718 399.33 542.402Z" fill="white" fill-opacity="0.5"/>
<path d="M301.674 193.659C298.191 199.789 294.66 205.896 291.248 212.075C290.461 213.53 288.647 214.46 288.862 216.393C289.077 218.325 290.842 218.778 291.821 220.067C294.717 223.488 296.554 227.678 297.109 232.126C297.664 236.574 296.913 241.087 294.946 245.115C293.667 247.576 291.999 249.815 290.007 251.747C289.733 251.948 289.505 252.205 289.338 252.501C289.171 252.798 289.069 253.126 289.04 253.465C289.011 253.804 289.054 254.145 289.167 254.466C289.281 254.787 289.461 255.08 289.697 255.325C294.302 263.197 298.835 271.093 303.392 278.989C304.561 281.017 305.778 283.116 306.804 285.168C305.647 285.233 304.51 284.849 303.631 284.095C302.098 282.996 300.505 281.985 298.859 281.065C297.571 280.325 297.499 281.351 297.499 282.258C293.61 276.342 290.341 270.044 286.739 263.984C285.689 262.243 284.639 260.478 283.709 258.665C283.595 258.352 283.417 258.067 283.186 257.828C282.956 257.588 282.678 257.399 282.37 257.274C282.062 257.148 281.731 257.088 281.399 257.097C281.067 257.107 280.74 257.186 280.44 257.329C275.359 258.915 269.876 258.61 265.003 256.47C261.707 255.121 258.772 253.022 256.431 250.338C254.091 247.654 252.41 244.46 251.523 241.012C250.831 238.626 251.523 238.626 248.326 238.626H182.283C181.747 238.655 181.213 238.719 180.685 238.817L181.234 238.03H224.299C224.616 238.067 224.937 238.067 225.254 238.03C225.553 237.983 225.829 237.84 226.041 237.624C226.094 237.533 226.128 237.431 226.14 237.326C226.151 237.221 226.141 237.115 226.11 237.014C226.078 236.913 226.026 236.82 225.957 236.74C225.888 236.66 225.803 236.596 225.707 236.551C224.085 235.358 222.462 234.165 220.935 232.829C219.408 231.493 217.022 232.471 215.018 232.304C213.945 232.304 212.871 232.304 211.797 232.304C210.647 232.563 209.441 232.367 208.433 231.756C213.706 231.756 218.955 231.636 224.228 231.613H247.753C250.759 231.613 250.759 231.613 251.594 228.726C253.015 223.722 256.07 219.337 260.273 216.272C264.477 213.206 269.586 211.636 274.785 211.812C276.725 211.841 278.649 212.171 280.488 212.791C280.767 212.939 281.075 213.025 281.391 213.043C281.707 213.061 282.023 213.011 282.318 212.895C282.613 212.779 282.879 212.602 283.098 212.374C283.318 212.146 283.485 211.873 283.589 211.574C286.834 205.777 290.246 200.052 293.539 194.255C294.062 193.083 294.771 192.004 295.638 191.058C296.196 190.977 296.764 191.014 297.306 191.166C297.849 191.318 298.353 191.582 298.788 191.941C299.706 192.584 300.671 193.158 301.674 193.659ZM290.437 234.976C290.446 232.826 290.03 230.696 289.213 228.708C288.395 226.72 287.192 224.913 285.672 223.392C284.153 221.871 282.348 220.665 280.361 219.845C278.373 219.024 276.243 218.605 274.093 218.611C269.75 218.617 265.584 220.337 262.501 223.397C259.419 226.457 257.668 230.609 257.631 234.952C257.545 237.159 257.905 239.36 258.69 241.423C259.475 243.487 260.668 245.371 262.199 246.963C263.729 248.555 265.565 249.822 267.596 250.688C269.628 251.554 271.813 252.001 274.021 252.002C276.23 252.004 278.416 251.56 280.448 250.697C282.481 249.834 284.319 248.57 285.851 246.98C287.384 245.391 288.58 243.508 289.368 241.446C290.156 239.383 290.519 237.183 290.437 234.976Z" fill="white" fill-opacity="0.5"/>
<path d="M316.944 560.579C312.713 553.359 308.482 546.139 304.251 538.919C300.148 531.762 296.02 524.82 292.035 517.687C291.691 516.876 291.088 516.202 290.319 515.77C289.551 515.338 288.661 515.174 287.789 515.302C285.635 515.383 283.498 514.907 281.582 513.921C279.667 512.934 278.038 511.47 276.854 509.671C275.67 507.871 274.97 505.796 274.822 503.647C274.673 501.498 275.082 499.347 276.009 497.402C276.935 495.457 278.348 493.784 280.11 492.544C281.872 491.304 283.924 490.54 286.068 490.325C288.212 490.11 290.375 490.451 292.348 491.316C294.321 492.181 296.038 493.541 297.332 495.263C298.888 497.212 299.794 499.6 299.922 502.09C300.051 504.58 299.395 507.048 298.048 509.147C297.438 509.918 297.107 510.872 297.107 511.855C297.107 512.837 297.438 513.791 298.048 514.562C306.001 527.969 313.779 541.439 321.382 554.973C321.762 555.831 322.402 556.547 323.211 557.022C324.02 557.497 324.957 557.707 325.891 557.621C342.004 557.51 358.125 557.51 374.254 557.621C375.241 557.787 376.255 557.607 377.124 557.112C377.994 556.616 378.666 555.835 379.026 554.902C380.564 552.073 383.134 549.947 386.202 548.966C389.269 547.986 392.596 548.226 395.49 549.638C398.385 551.049 400.623 553.523 401.738 556.543C402.853 559.564 402.76 562.898 401.477 565.851C400.648 568.02 399.204 569.9 397.323 571.26C395.441 572.62 393.203 573.402 390.884 573.509C388.457 573.817 385.995 573.347 383.852 572.169C381.708 570.99 379.994 569.163 378.954 566.949C378.591 566.105 377.951 565.409 377.141 564.975C376.33 564.542 375.396 564.397 374.492 564.563C357.409 564.563 340.326 564.563 323.243 564.563C322.514 563.511 321.581 562.615 320.499 561.931C319.417 561.247 318.208 560.787 316.944 560.579ZM389.834 554.043C387.976 554.042 386.191 554.763 384.855 556.054C383.519 557.345 382.738 559.105 382.676 560.961C382.676 562.859 383.43 564.679 384.773 566.022C386.115 567.364 387.936 568.118 389.834 568.118C391.701 568.118 393.491 567.376 394.811 566.056C396.131 564.737 396.872 562.947 396.872 561.08C396.872 559.214 396.131 557.424 394.811 556.104C393.491 554.784 391.701 554.043 389.834 554.043ZM294.397 502.873C294.407 501.492 294.006 500.14 293.245 498.988C292.484 497.835 291.398 496.935 290.124 496.401C288.851 495.867 287.447 495.724 286.092 495.989C284.737 496.255 283.491 496.917 282.513 497.891C281.535 498.866 280.868 500.109 280.598 501.463C280.328 502.817 280.467 504.221 280.996 505.496C281.526 506.772 282.423 507.861 283.572 508.625C284.722 509.39 286.074 509.796 287.454 509.791C288.367 509.804 289.272 509.634 290.117 509.291C290.963 508.948 291.731 508.438 292.376 507.793C293.021 507.149 293.53 506.381 293.873 505.536C294.216 504.69 294.386 503.785 294.374 502.873H294.397Z" fill="white" fill-opacity="0.5"/>
<path d="M310.264 165.724C312.117 161.858 314.212 158.113 316.539 154.512C316.9 154.003 317.095 153.394 317.095 152.77C317.095 152.146 316.9 151.538 316.539 151.029C311.29 142.035 306.041 133.066 300.935 124.001C300.566 123.067 299.897 122.284 299.032 121.774C298.168 121.264 297.158 121.057 296.163 121.186C294.465 121.242 292.774 120.949 291.194 120.326C289.614 119.702 288.179 118.76 286.978 117.559C285.776 116.358 284.835 114.923 284.211 113.344C283.587 111.764 283.294 110.073 283.351 108.375C283.417 106.678 283.823 105.012 284.545 103.475C285.267 101.938 286.29 100.562 287.554 99.4272C288.818 98.2927 290.296 97.4233 291.902 96.8705C293.508 96.3177 295.208 96.0928 296.903 96.209C298.999 96.3544 301.024 97.0289 302.789 98.1694C304.554 99.3099 306.001 100.879 306.995 102.731C307.989 104.582 308.497 106.655 308.472 108.756C308.447 110.857 307.89 112.918 306.852 114.745C306.185 115.671 305.839 116.789 305.864 117.929C305.89 119.07 306.287 120.171 306.995 121.066C311.648 128.796 316.085 136.668 320.595 144.469C321.125 145.187 321.521 145.995 321.764 146.854C321.793 147.255 321.907 147.645 322.099 147.998C322.291 148.351 322.557 148.658 322.878 148.9C323.199 149.142 323.568 149.312 323.96 149.4C324.352 149.487 324.759 149.489 325.152 149.407C336.111 149.407 347.07 149.407 358.03 149.407C358.656 149.462 359.282 149.307 359.81 148.966C360.337 148.624 360.735 148.116 360.94 147.522C362.057 145.047 363.955 143.007 366.342 141.714C368.73 140.422 371.476 139.948 374.158 140.365C377.186 140.796 379.952 142.319 381.934 144.647C383.916 146.975 384.978 149.948 384.919 153.005C384.86 156.062 383.685 158.992 381.615 161.243C379.545 163.493 376.723 164.909 373.681 165.223C371.053 165.628 368.365 165.144 366.044 163.847C363.723 162.551 361.901 160.516 360.869 158.066C360.661 157.468 360.253 156.959 359.715 156.624C359.176 156.29 358.539 156.15 357.91 156.229C346.776 156.229 335.705 156.229 324.698 156.229C324.157 156.212 323.625 156.38 323.191 156.705C322.758 157.03 322.448 157.494 322.313 158.018C320.421 161.871 318.261 165.586 315.847 169.135C313.676 168.491 312.53 166.129 310.264 165.724ZM372.297 145.781C370.456 145.779 368.684 146.487 367.351 147.757C366.018 149.028 365.226 150.764 365.14 152.603C365.182 154.488 365.95 156.284 367.283 157.617C368.616 158.95 370.412 159.717 372.297 159.76C374.196 159.76 376.016 159.006 377.359 157.664C378.701 156.322 379.455 154.501 379.455 152.603C379.437 151.688 379.238 150.786 378.87 149.948C378.503 149.11 377.974 148.353 377.314 147.719C376.654 147.086 375.875 146.588 375.022 146.256C374.17 145.923 373.26 145.762 372.345 145.781H372.297ZM295.948 115.675C297.79 115.675 299.556 114.944 300.858 113.642C302.16 112.34 302.891 110.574 302.891 108.733C302.891 106.892 302.16 105.126 300.858 103.824C299.556 102.523 297.79 101.791 295.948 101.791C295.034 101.794 294.13 101.978 293.288 102.331C292.445 102.684 291.68 103.2 291.037 103.85C290.394 104.499 289.886 105.269 289.542 106.115C289.197 106.961 289.023 107.867 289.029 108.781C289.026 109.692 289.204 110.595 289.555 111.436C289.905 112.277 290.419 113.04 291.068 113.68C291.717 114.32 292.487 114.824 293.333 115.162C294.18 115.501 295.085 115.667 295.996 115.651L295.948 115.675Z" fill="white" fill-opacity="0.5"/>
<path d="M762.036 336.791C761.038 337.194 759.947 337.31 758.887 337.125C734.717 337.125 710.548 337.125 686.379 337.125C685.34 337.235 684.292 337.015 683.385 336.497C682.477 335.979 681.755 335.189 681.321 334.239C669.216 313.087 657.016 291.991 644.721 270.95C644.12 270.217 643.792 269.298 643.792 268.35C643.792 267.402 644.12 266.483 644.721 265.75C645.435 264.451 646.232 263.2 647.107 262.005C649.435 264.781 652.557 266.779 656.054 267.73C656.164 268.802 656.578 269.82 657.247 270.664L664.405 283.236C672.23 296.81 680.104 310.383 687.858 324.005C688.192 324.777 688.762 325.424 689.487 325.853C690.211 326.281 691.052 326.469 691.89 326.39C697.259 326.247 702.627 326.39 708.019 326.39C711.98 326.39 715.964 326.176 719.949 326.533C720.117 327.265 720.455 327.946 720.936 328.522C721.417 329.099 722.027 329.553 722.716 329.849C725.296 331.376 727.761 333.09 730.089 334.978C730.771 335.623 731.578 336.121 732.46 336.442C733.343 336.762 734.282 336.897 735.219 336.839C744.213 336.672 753.137 336.791 762.036 336.791Z" fill="white" fill-opacity="0.5"/>
<path d="M375.542 137.336C370.389 137.336 365.235 137.336 360.106 137.455C351.516 137.455 342.927 137.455 334.338 137.455C333.401 137.539 332.461 137.326 331.652 136.846C330.843 136.367 330.205 135.645 329.828 134.783C317.644 113.584 305.405 92.416 293.109 71.2801C292.517 70.543 292.194 69.6255 292.194 68.6798C292.194 67.7341 292.517 66.8167 293.109 66.0796C293.801 65.1254 294.398 64.0996 295.042 63.1215C297.166 63.4648 299.119 64.4957 300.601 66.0558C301.714 67.0698 303.152 67.6535 304.657 67.7018C304.578 68.3382 304.64 68.9841 304.838 69.594C305.036 70.204 305.365 70.7632 305.802 71.2324C309.62 78.055 313.723 84.7107 317.398 91.6526C319.974 96.4237 322.814 101.195 325.725 105.966C329.351 111.787 332.715 117.894 336.008 123.81C336.411 124.717 337.088 125.476 337.943 125.981C338.799 126.485 339.79 126.71 340.78 126.625C362.038 126.625 383.297 126.625 404.555 126.625C404.07 126.959 403.517 127.183 402.936 127.282C402.355 127.381 401.76 127.352 401.191 127.197H368.051C367.499 127.052 366.924 127.023 366.361 127.113C365.798 127.204 365.26 127.411 364.782 127.722C364.885 128.162 365.078 128.575 365.349 128.937C365.62 129.298 365.963 129.599 366.357 129.821C368.361 131.253 370.365 132.66 372.441 133.948C373.173 134.253 373.831 134.714 374.367 135.299C374.902 135.884 375.304 136.579 375.542 137.336Z" fill="white" fill-opacity="0.5"/>
<path d="M667.029 647.294C662.878 640.924 659.323 634.197 655.481 627.661C651.187 620.361 647.035 612.99 642.717 605.714C642.289 605.115 642.059 604.398 642.059 603.662C642.059 602.927 642.289 602.209 642.717 601.611C651.083 587.297 659.41 572.936 667.697 558.528C667.931 558.171 668.186 557.829 668.461 557.502C668.465 557.871 668.575 558.232 668.778 558.54C668.981 558.849 669.268 559.093 669.606 559.243C671.014 560.126 672.445 561.032 673.805 561.987C674.422 562.282 674.96 562.719 675.374 563.262C675.789 563.805 676.069 564.439 676.191 565.112C674.831 567.497 673.519 570.098 672.111 572.531C666.6 582.073 661.136 591.615 655.41 601.157C654.868 601.862 654.574 602.726 654.574 603.615C654.574 604.503 654.868 605.367 655.41 606.072C660.587 614.087 664.548 622.77 669.725 630.881C674.163 637.847 678.052 645.195 682.156 652.351C682.843 653.183 683.252 654.209 683.325 655.286C681.628 655.088 680.031 654.381 678.744 653.258C675.427 650.872 672.063 648.749 668.747 646.435C667.673 645.624 667.196 646.006 667.029 647.294Z" fill="white" fill-opacity="0.5"/>
<path d="M367.072 344.401C358.745 344.401 350.371 344.401 342.092 344.401C341.524 344.262 340.935 344.236 340.357 344.326C339.78 344.416 339.226 344.62 338.728 344.926C335.459 350.365 332.047 355.709 329.017 361.315C324.46 369.712 319.473 378.014 314.702 386.172C313.652 388.278 312.423 390.289 311.027 392.184C306.832 390.703 303.047 388.25 299.981 385.027C302.366 379.994 305.397 375.318 308.164 370.499C315.131 358.357 322.217 346.262 329.136 334.096C329.492 333.22 330.133 332.491 330.957 332.027C331.78 331.563 332.737 331.393 333.67 331.543C336.056 331.758 338.441 331.662 340.827 331.71C342.932 332.454 345.196 332.627 347.389 332.211C350.276 332.211 352.852 332.211 354.809 334.859C355.667 335.659 356.64 336.326 357.696 336.839C360.487 338.771 363.279 340.727 366.094 342.636C366.399 342.817 366.65 343.076 366.822 343.386C366.994 343.697 367.08 344.047 367.072 344.401Z" fill="white" fill-opacity="0.5"/>
<path d="M783.271 632.861C780.885 637.632 778.141 642.022 775.54 646.602C771.079 654.45 766.498 662.227 762.06 670.076C761.777 670.815 761.266 671.445 760.601 671.873C759.936 672.302 759.152 672.508 758.362 672.461C741.279 672.461 724.195 672.461 707.112 672.461C706.681 672.444 706.251 672.404 705.824 672.342C705.753 671.756 705.524 671.201 705.163 670.735C704.802 670.269 704.321 669.909 703.772 669.694C701.887 668.477 700.026 667.308 698.189 665.925C696.679 665.077 695.357 663.933 694.3 662.561C695.417 662.044 696.665 661.877 697.879 662.084C715.678 662.084 733.453 662.084 751.252 662.084C752.445 662.084 753.852 662.68 754.807 661.345C755.284 660.39 755.713 659.412 756.262 658.506C761.034 650.252 765.806 642.006 770.578 633.768C771.856 631.289 773.299 628.898 774.896 626.611C777.881 628.422 780.686 630.515 783.271 632.861Z" fill="white" fill-opacity="0.5"/>
<path d="M318.782 495.192C318.304 496.217 317.612 495.836 316.921 495.478C313.937 493.809 311.068 491.944 308.331 489.896C305.444 487.868 302.533 485.912 299.599 483.956C298.712 483.328 297.622 483.056 296.545 483.192C292.656 476.537 288.743 469.905 284.854 463.249C280.082 455.186 275.573 447.099 270.849 439.083C270.404 438.501 270.162 437.789 270.162 437.056C270.162 436.323 270.404 435.61 270.849 435.028C273.998 430.066 276.575 424.746 279.891 419.88C280.737 419.971 281.531 420.331 282.158 420.906C285.092 422.957 288.099 424.937 291.057 426.965C289.719 429.76 288.221 432.476 286.572 435.1C285.331 437.485 285.331 437.485 286.858 439.561C287.502 440.419 287.979 441.374 288.552 442.28C293.777 450.701 298.096 459.575 303.321 468.044C307.496 474.891 311.624 481.761 315.25 488.989C316.155 491.2 317.342 493.285 318.782 495.192Z" fill="white" fill-opacity="0.5"/>
<path d="M733.095 362.603C731.811 364.122 730.174 365.303 728.328 366.043C726.482 366.783 724.482 367.059 722.504 366.848C720.526 366.636 718.631 365.942 716.983 364.828C715.335 363.714 713.986 362.212 713.053 360.456C712.665 359.543 711.988 358.782 711.126 358.291C710.264 357.8 709.265 357.605 708.281 357.736C698.197 357.848 688.12 357.848 678.052 357.736C677.117 357.624 676.17 357.81 675.347 358.269C674.524 358.727 673.867 359.434 673.471 360.289C666.719 372.217 659.824 384.144 652.952 395.905C652.605 396.44 652.23 396.958 651.831 397.456C650.667 397.255 649.588 396.715 648.729 395.905C647.928 395.207 646.904 394.818 645.842 394.808C648.872 388.653 652.57 382.88 655.958 376.916C659.824 370.117 663.737 363.318 667.745 356.591C668.253 355.899 668.526 355.064 668.526 354.206C668.526 353.348 668.253 352.512 667.745 351.82C662.567 343.041 657.485 334.191 652.403 325.365C651.879 324.434 651.425 323.456 650.948 322.526C651.418 322.475 651.893 322.52 652.344 322.66C652.796 322.799 653.214 323.03 653.573 323.337C654.837 324.291 656.197 325.126 657.509 325.985C657.923 326.398 658.464 326.659 659.045 326.724C659.626 326.789 660.212 326.654 660.706 326.343C664.238 331.472 667.029 337.054 670.25 342.373C671.634 344.759 672.994 347.001 674.258 349.363C674.483 349.845 674.851 350.247 675.312 350.511C675.773 350.776 676.305 350.892 676.835 350.842C687.969 350.842 699.04 350.842 710.047 350.842C710.526 350.897 711.01 350.806 711.436 350.58C711.862 350.354 712.209 350.005 712.433 349.578C714.175 349.959 715.367 351.606 717.205 351.725C717.044 352.456 716.932 353.197 716.871 353.943C716.852 355.007 717.071 356.061 717.511 357.03C717.951 357.998 718.601 358.856 719.415 359.542C720.228 360.227 721.185 360.723 722.214 360.992C723.243 361.262 724.319 361.299 725.364 361.1C726.09 360.93 726.807 360.723 727.512 360.48C729.731 360.289 730.995 362.555 733.095 362.603Z" fill="white" fill-opacity="0.5"/>
<path d="M508.318 445.739C503.546 454.256 498.775 462.724 493.669 471.026C491.569 474.461 489.827 478.183 487.775 481.642C483.839 488.25 480.475 495.215 475.846 501.442C475.41 502.196 475.058 502.996 474.796 503.827C474.666 503.317 474.407 502.849 474.044 502.469C473.68 502.089 473.224 501.809 472.72 501.656C470.668 500.177 468.521 498.841 466.398 497.458C465.911 497.25 465.485 496.922 465.159 496.505C464.834 496.088 464.619 495.595 464.537 495.072C465.3 493.665 466.016 492.233 466.923 490.85C473.826 478.89 480.737 466.962 487.656 455.067C490.949 449.437 494.003 443.664 497.582 438.201C500.182 439.847 502.783 441.493 505.36 443.187C506.538 443.785 507.553 444.661 508.318 445.739Z" fill="white" fill-opacity="0.5"/>
<path d="M208.457 231.66C209.465 232.271 210.671 232.468 211.821 232.209C212.895 232.209 213.968 232.209 215.042 232.209C217.046 232.376 219.408 231.374 220.959 232.734C222.51 234.094 224.109 235.262 225.731 236.455C225.827 236.5 225.912 236.565 225.981 236.645C226.05 236.724 226.102 236.818 226.134 236.919C226.165 237.02 226.175 237.126 226.163 237.231C226.152 237.336 226.118 237.437 226.065 237.529C225.853 237.745 225.577 237.887 225.278 237.934C224.961 237.972 224.64 237.972 224.323 237.934H181.258C180.616 236.803 179.686 235.861 178.563 235.203C177.441 234.546 176.165 234.196 174.863 234.189C171.475 229.227 168.755 223.86 165.702 218.683C163.125 214.341 160.572 209.999 158.162 205.562C157.855 204.787 157.286 204.143 156.554 203.742C155.822 203.341 154.973 203.209 154.154 203.368C151.238 203.558 148.35 202.702 146.01 200.953C143.669 199.203 142.031 196.676 141.389 193.826C140.759 191.076 141.073 188.194 142.283 185.645C143.492 183.096 145.525 181.029 148.053 179.777C150.582 178.525 153.459 178.162 156.219 178.746C158.98 179.33 161.463 180.827 163.268 182.995C164.951 184.955 165.96 187.405 166.145 189.982C166.33 192.56 165.681 195.128 164.294 197.308C163.676 198.066 163.338 199.014 163.338 199.992C163.338 200.97 163.676 201.918 164.294 202.676C169.431 211.359 174.482 220.106 179.444 228.917C179.806 229.779 180.434 230.504 181.237 230.984C182.039 231.465 182.975 231.677 183.906 231.589C192.114 231.469 200.297 231.613 208.457 231.66ZM160.739 190.867C160.697 189.039 159.957 187.296 158.67 185.996C157.383 184.696 155.648 183.938 153.82 183.878C151.921 183.878 150.101 184.632 148.758 185.974C147.416 187.316 146.662 189.136 146.662 191.034C146.681 191.974 146.884 192.901 147.261 193.762C147.638 194.624 148.181 195.402 148.859 196.053C149.537 196.705 150.337 197.216 151.213 197.558C152.088 197.901 153.023 198.067 153.963 198.048C155.786 197.932 157.495 197.124 158.742 195.789C159.988 194.455 160.677 192.694 160.667 190.867H160.739Z" fill="white" fill-opacity="0.5"/>
<path d="M142.51 206.421C147.807 215.51 153.08 224.599 158.448 233.64C158.746 234.209 158.855 234.857 158.761 235.491C158.667 236.126 158.373 236.714 157.923 237.171C153.804 244.328 149.668 251.484 145.517 258.641C142.844 263.221 140.124 267.754 137.428 272.286C137.403 271.864 137.267 271.455 137.032 271.103C136.797 270.751 136.473 270.468 136.092 270.282C134.732 269.471 133.42 268.565 132.108 267.658C131.489 267.359 130.951 266.918 130.536 266.371C130.121 265.823 129.842 265.185 129.722 264.509C129.897 264.011 130.104 263.525 130.342 263.054C135.114 254.705 139.886 246.355 144.92 238.077C145.573 237.207 145.925 236.148 145.925 235.06C145.925 233.972 145.573 232.913 144.92 232.042C140.983 225.649 137.285 219.112 133.611 212.576C131.398 209.177 129.406 205.639 127.646 201.984L127.217 201.245V201.03C127.224 200.817 127.169 200.607 127.059 200.425C126.949 200.243 126.788 200.097 126.596 200.004C125.938 199.272 125.457 198.399 125.189 197.452C125.332 196.855 125.403 196.02 126.334 196.474C127.264 196.927 127.909 197.523 128.72 198.024C133.301 200.815 137.357 204.513 142.51 206.421Z" fill="white" fill-opacity="0.5"/>
<path d="M84.509 570.98H113.14C115.168 570.98 117.22 571.123 119.248 570.98C120.178 570.833 121.13 571.002 121.952 571.46C122.774 571.919 123.418 572.64 123.781 573.509C129.149 583.051 134.661 592.474 140.125 601.945L150.575 620.051C150.933 620.695 151.219 621.387 151.553 622.055C150.171 621.811 148.874 621.22 147.783 620.337C144.419 617.689 140.626 615.566 137.214 613.18C136.164 612.252 134.796 611.765 133.396 611.821C132.657 611.053 132.066 610.155 131.655 609.173C126.883 600.943 122.111 592.712 117.339 584.411C116.973 583.606 116.359 582.939 115.585 582.51C114.812 582.08 113.922 581.91 113.044 582.025C108.01 582.025 103 582.025 97.9656 582.025C98.0223 581.488 97.9162 580.946 97.661 580.469C97.4057 579.993 97.013 579.604 96.534 579.353C92.7404 577.159 89.5194 574.058 85.2964 572.555C84.9966 572.432 84.7515 572.205 84.6067 571.915C84.4618 571.626 84.4271 571.293 84.509 570.98Z" fill="white" fill-opacity="0.5"/>
<path d="M399.33 542.401C399.387 541.76 399.24 541.118 398.91 540.565C398.58 540.012 398.084 539.578 397.493 539.324C394.224 537.106 390.979 534.839 387.734 532.573C387.305 532.263 386.78 532.048 386.374 531.714C386.076 531.588 385.832 531.361 385.684 531.074C385.536 530.786 385.493 530.456 385.563 530.14C385.711 529.915 385.929 529.744 386.183 529.654C386.437 529.563 386.714 529.558 386.971 529.639C387.71 529.639 388.474 529.639 389.214 529.639H407.251C408.308 529.87 409.414 529.7 410.353 529.162H423.523L444.996 529.019C448.002 531.166 451.009 533.36 454.039 535.46C454.434 535.608 454.779 535.867 455.033 536.205C455.287 536.543 455.438 536.947 455.47 537.368C453.084 542.688 453.084 542.688 447.263 542.664H402.861C401.668 542.521 400.499 542.449 399.33 542.401Z" fill="white" fill-opacity="0.5"/>
<path d="M24.5272 193.659C27.3664 187.933 30.826 182.542 34.0708 176.96C35.7409 173.986 37.4508 171.036 39.2005 168.11C39.2657 167.687 39.4744 167.3 39.7917 167.013C40.1089 166.726 40.5152 166.557 40.9422 166.535H44.4734H77.6614C79.2694 166.26 80.9219 166.601 82.29 167.489C85.2709 169.912 88.4028 172.143 91.6667 174.169C92.1406 174.373 92.5492 174.704 92.848 175.124C93.1467 175.545 93.3241 176.04 93.3607 176.554C92.2559 176.887 91.0936 176.985 89.9488 176.841H49.8894C48.7281 176.6 47.52 176.751 46.4537 177.27L42.7078 183.592C39.4391 189.078 36.5044 194.78 32.9733 200.1C29.8477 199.36 27.7004 196.975 25.0521 195.329C24.836 195.113 24.6754 194.849 24.5839 194.558C24.4925 194.267 24.473 193.959 24.5272 193.659Z" fill="white" fill-opacity="0.5"/>
<path d="M46.4298 177.175C47.4961 176.656 48.7043 176.505 49.8655 176.745H89.8295C90.9743 176.889 92.1366 176.792 93.2414 176.459C93.2048 175.944 93.0274 175.449 92.7287 175.029C92.4299 174.608 92.0213 174.278 91.5474 174.073C88.2834 172.048 85.1516 169.817 82.1707 167.394C80.8026 166.505 79.1501 166.165 77.5421 166.44H44.354H40.8229C41.7773 166.44 42.7316 166.273 43.686 166.273C67.9268 166.273 92.1677 166.273 116.409 166.273C117.39 166.181 118.376 166.396 119.23 166.887C120.084 167.378 120.766 168.122 121.18 169.016C127.718 180.586 134.422 192.06 141.079 203.559C141.604 204.489 142.033 205.443 142.51 206.397C137.357 204.489 133.301 200.791 128.696 198C127.885 197.499 127.145 196.855 126.31 196.45C125.475 196.044 125.332 196.831 125.165 197.428C121.419 191.822 118.222 185.858 114.929 179.966C114.505 179.013 113.789 178.219 112.884 177.7C111.979 177.181 110.932 176.964 109.895 177.079C88.732 177.198 67.5928 177.175 46.4298 177.175Z" fill="white" fill-opacity="0.5"/>
<path d="M321.931 317.969C318.662 323.623 315.537 329.396 312.053 334.93C307.806 341.682 304.394 348.91 300.124 355.613C299.528 356.328 299.211 357.234 299.233 358.164C299.255 359.094 299.614 359.985 300.243 360.671C301.717 362.622 302.53 364.993 302.564 367.438C302.599 369.883 301.852 372.276 300.434 374.268C299.126 376.31 297.254 377.929 295.044 378.929C292.835 379.93 290.384 380.269 287.986 379.905C285.588 379.542 283.347 378.492 281.533 376.882C279.72 375.272 278.412 373.171 277.768 370.833C277.237 368.99 277.144 367.049 277.495 365.164C277.846 363.279 278.631 361.502 279.789 359.974C280.947 358.445 282.446 357.208 284.166 356.36C285.886 355.512 287.78 355.077 289.697 355.088C290.625 355.175 291.557 354.962 292.355 354.482C293.154 354.001 293.777 353.277 294.135 352.416C300.839 340.703 307.639 329.038 314.368 317.325C314.839 316.817 315.195 316.213 315.409 315.554C315.623 314.894 315.691 314.196 315.608 313.508C318.019 314.219 320.199 315.552 321.931 317.373C321.908 317.571 321.908 317.771 321.931 317.969ZM296.879 367.469C296.866 365.634 296.13 363.878 294.83 362.583C293.53 361.288 291.771 360.557 289.936 360.551C288.037 360.551 286.217 361.305 284.874 362.647C283.532 363.989 282.778 365.81 282.778 367.708C282.855 369.545 283.623 371.286 284.928 372.581C286.233 373.877 287.978 374.633 289.816 374.698C291.711 374.672 293.518 373.897 294.842 372.543C296.165 371.188 296.898 369.363 296.879 367.469Z" fill="white" fill-opacity="0.5"/>
<path d="M375.542 137.336C375.31 136.57 374.911 135.866 374.375 135.272C373.839 134.678 373.178 134.21 372.441 133.901C370.365 132.589 368.337 131.205 366.357 129.774C365.963 129.551 365.62 129.25 365.349 128.889C365.078 128.528 364.885 128.114 364.782 127.674C365.26 127.363 365.798 127.156 366.361 127.066C366.924 126.975 367.499 127.004 368.051 127.15H401.191C401.76 127.304 402.355 127.333 402.936 127.234C403.517 127.135 404.07 126.911 404.555 126.577L414.504 109.663C416.723 111.071 418.99 112.455 421.185 113.934C421.891 114.583 422.827 114.926 423.786 114.888C420.04 122.044 415.673 129.034 411.689 136.143C411.452 136.616 411.076 137.005 410.611 137.257C410.145 137.509 409.614 137.611 409.088 137.551L375.542 137.336Z" fill="white" fill-opacity="0.5"/>
<path d="M762.036 336.791C753.113 336.791 744.213 336.791 735.29 336.791C734.353 336.849 733.414 336.714 732.532 336.394C731.649 336.074 730.842 335.576 730.16 334.931C727.832 333.042 725.368 331.328 722.788 329.802C722.098 329.506 721.488 329.051 721.007 328.475C720.526 327.899 720.188 327.217 720.02 326.486C721.189 326.486 722.406 326.367 723.551 326.367C733.405 326.367 743.259 326.367 753.113 326.367C753.992 326.475 754.884 326.303 755.659 325.875C756.435 325.446 757.055 324.783 757.431 323.981C760.223 318.924 763.253 314.009 766.187 309.048C768.406 310.479 770.673 311.863 772.844 313.342C773.558 313.974 774.492 314.3 775.445 314.248C772.629 319.854 769.361 325.222 766.092 330.565C764.804 332.593 764.231 335.217 762.036 336.791Z" fill="white" fill-opacity="0.5"/>
<path d="M508.318 445.739C507.554 444.591 506.512 443.656 505.288 443.02C502.711 441.326 500.111 439.704 497.51 438.034C497.624 437.51 497.612 436.967 497.475 436.448C497.339 435.93 497.081 435.451 496.723 435.052C491.951 426.822 487.179 418.639 482.407 410.385C480.305 407.086 478.424 403.652 476.776 400.104C476.92 399.078 477.397 398.434 478.494 398.911C479.685 399.402 480.821 400.018 481.882 400.748C485.843 403.491 489.851 406.163 493.812 408.906C494.987 409.864 496.473 410.356 497.987 410.29C502.934 418.767 507.897 427.243 512.875 435.72C513.156 436.104 513.308 436.568 513.308 437.044C513.308 437.52 513.156 437.984 512.875 438.368C511.229 440.777 510.108 443.473 508.318 445.739Z" fill="white" fill-opacity="0.5"/>
<path d="M525.759 456.713C521.298 464.633 517.194 472.767 511.945 480.21C511.229 481.212 510.776 482.405 510.06 483.478C509.668 484.166 509.501 484.959 509.583 485.746C509.664 486.533 509.989 487.275 510.513 487.868C511.547 489.414 512.221 491.173 512.484 493.015C512.748 494.856 512.595 496.733 512.036 498.507C511.477 500.282 510.527 501.908 509.256 503.266C507.985 504.625 506.425 505.68 504.692 506.356C502.372 507.259 499.838 507.458 497.406 506.928C494.974 506.397 492.753 505.161 491.021 503.374C489.326 501.556 488.197 499.284 487.774 496.835C487.35 494.386 487.649 491.867 488.635 489.585C489.617 487.274 491.291 485.324 493.428 484.004C495.564 482.684 498.057 482.059 500.564 482.214C501.484 482.386 502.434 482.224 503.244 481.755C504.054 481.287 504.669 480.544 504.978 479.662C509.75 471.169 514.712 462.724 519.604 454.279C519.985 453.635 520.462 453.039 520.892 452.442C521.989 454.351 524.471 454.852 525.759 456.713ZM507.101 494.762C507.146 492.916 506.459 491.127 505.19 489.787C503.92 488.446 502.171 487.662 500.326 487.605C498.439 487.567 496.614 488.275 495.247 489.575C493.879 490.875 493.081 492.662 493.025 494.547C493.025 496.445 493.779 498.266 495.121 499.608C496.463 500.95 498.284 501.704 500.182 501.704C502.002 501.644 503.731 500.893 505.017 499.603C506.302 498.313 507.048 496.582 507.101 494.762Z" fill="white" fill-opacity="0.5"/>
<path d="M20.829 630.213C17.6819 628.662 14.7928 626.634 12.2636 624.202C13.719 620.981 15.6755 618.047 17.4172 614.994C23.9387 603.575 30.476 592.172 37.0293 580.785C37.5439 579.955 38.1097 579.159 38.7233 578.399C40.2026 580.451 42.6601 581.238 44.5211 582.789C44.9801 583.155 45.5086 583.423 46.0745 583.579C46.6404 583.735 47.2321 583.775 47.8137 583.695C47.7269 583.998 47.6152 584.293 47.4796 584.578L22.4037 628.138C22.0045 628.917 21.4715 629.619 20.829 630.213Z" fill="white" fill-opacity="0.5"/>
<path d="M47.742 583.815C47.1604 583.894 46.5687 583.854 46.0028 583.699C45.4369 583.543 44.9085 583.274 44.4494 582.908C42.5884 581.358 40.1309 580.523 38.6517 578.519C39.6932 576.289 40.8643 574.123 42.159 572.03C42.4145 571.558 42.822 571.185 43.3157 570.973C43.8093 570.761 44.3601 570.721 44.8789 570.861H57.4527H84.5327C84.5473 571.128 84.6415 571.384 84.8031 571.597C84.9647 571.809 85.1863 571.969 85.4394 572.054C89.6624 573.533 92.8834 576.634 96.677 578.853C97.1582 579.101 97.5528 579.489 97.8084 579.966C98.064 580.443 98.1687 580.987 98.1086 581.525C96.9395 581.525 95.7227 581.644 94.5774 581.644C80.3813 581.644 66.1851 581.644 52.0128 581.644C51.1632 581.513 50.2939 581.652 49.5276 582.041C48.7614 582.431 48.1368 583.051 47.742 583.815Z" fill="white" fill-opacity="0.5"/>
<path d="M290.962 426.965C287.979 424.961 284.997 422.957 282.062 420.906C281.436 420.331 280.641 419.971 279.796 419.88C281.37 416.373 283.518 413.176 285.426 409.861C289.65 402.442 293.944 395.046 298.215 387.651C298.62 386.665 299.211 385.765 299.957 385.003C303.023 388.227 306.808 390.679 311.003 392.16C304.633 403.992 297.881 415.514 290.962 426.965Z" fill="white" fill-opacity="0.5"/>
<path d="M321.931 317.969C321.908 317.771 321.908 317.571 321.931 317.373C331.904 317.373 341.853 317.373 351.826 317.373C353.353 317.373 355.811 318.232 356.264 316.848C356.861 314.988 354.021 314.773 352.972 313.556C352.788 313.449 352.613 313.33 352.447 313.198C351.975 312.55 351.323 312.055 350.572 311.775C349.821 311.495 349.004 311.443 348.224 311.624C340.509 311.624 332.795 311.624 325.08 311.624C324.563 311.755 324.024 311.776 323.498 311.685C322.972 311.595 322.47 311.395 322.026 311.099C338.585 311.099 355.119 311.099 371.677 311.099C372.667 311.259 373.681 311.073 374.55 310.574C375.419 310.074 376.089 309.291 376.449 308.356C377.75 305.918 379.847 303.998 382.391 302.918C384.935 301.837 387.772 301.66 390.43 302.416C393.144 303.09 395.554 304.653 397.277 306.856C398.999 309.058 399.935 311.774 399.935 314.57C399.935 317.366 398.999 320.082 397.277 322.284C395.554 324.487 393.144 326.05 390.43 326.724C387.76 327.455 384.919 327.247 382.383 326.135C379.847 325.024 377.769 323.076 376.497 320.617C376.14 319.683 375.468 318.902 374.597 318.41C373.725 317.917 372.71 317.745 371.725 317.922C355.047 318.017 338.489 317.969 321.931 317.969ZM387.09 307.568C386.175 307.568 385.269 307.749 384.424 308.099C383.579 308.449 382.811 308.962 382.164 309.609C381.517 310.256 381.004 311.023 380.654 311.869C380.303 312.714 380.123 313.62 380.123 314.534C380.123 315.449 380.303 316.355 380.654 317.2C381.004 318.045 381.517 318.813 382.164 319.46C382.811 320.107 383.579 320.62 384.424 320.97C385.269 321.32 386.175 321.5 387.09 321.5C388.04 321.537 388.987 321.377 389.872 321.03C390.757 320.684 391.561 320.158 392.233 319.486C392.906 318.814 393.432 318.01 393.778 317.125C394.125 316.24 394.285 315.293 394.248 314.343C394.192 312.5 393.407 310.754 392.065 309.488C390.723 308.223 388.934 307.541 387.09 307.592V307.568Z" fill="white" fill-opacity="0.5"/>
<path d="M455.47 537.177C455.438 536.756 455.286 536.352 455.033 536.014C454.779 535.676 454.434 535.417 454.039 535.269C451.009 533.145 448.002 530.975 444.996 528.828C448.48 522.697 451.915 516.542 455.47 510.435C458.477 505.259 461.268 499.963 464.584 494.953C464.667 495.476 464.881 495.969 465.207 496.386C465.532 496.803 465.959 497.131 466.445 497.339C468.569 498.722 470.716 500.058 472.768 501.537C473.272 501.689 473.728 501.969 474.091 502.35C474.455 502.73 474.714 503.198 474.844 503.708C472.331 508.641 469.527 513.421 466.445 518.021C465.491 519.381 464.966 521.051 464.06 522.482C461.244 527.444 458.644 532.406 455.47 537.177Z" fill="white" fill-opacity="0.5"/>
<path d="M423.332 43.2022C425.048 43.2888 426.683 43.9626 427.961 45.1107C431.158 47.4962 434.618 49.5955 437.91 51.9094C438.274 52.2829 438.756 52.5182 439.274 52.5748C439.792 52.6314 440.314 52.5058 440.749 52.2196C444.161 57.1576 446.786 62.549 449.911 67.6541C450.146 68.0131 450.262 68.4376 450.24 68.8663C450.219 69.295 450.062 69.7058 449.792 70.0396C446.285 75.908 443.111 81.9673 439.342 87.7165C435.453 87.4064 432.9 84.8061 430.251 82.3967C431.683 79.1524 433.687 76.2421 435.357 73.1408C438.363 67.6302 438.387 69.8487 435.357 64.362C431.42 57.2769 427.054 50.5258 423.332 43.2022Z" fill="white" fill-opacity="0.5"/>
<path d="M133.42 611.582C134.82 611.527 136.188 612.014 137.238 612.942C140.721 615.328 144.395 617.522 147.807 620.099C148.898 620.981 150.195 621.572 151.577 621.816L161.335 638.372C161.551 638.675 161.667 639.038 161.667 639.41C161.667 639.782 161.551 640.144 161.335 640.447C158.09 645.839 155.227 651.468 151.792 656.693C150.04 655.783 148.358 654.746 146.757 653.592C145.592 652.539 144.167 651.815 142.63 651.492C144.173 648.189 145.951 645 147.95 641.95C148.506 641.247 148.808 640.377 148.808 639.481C148.808 638.585 148.506 637.715 147.95 637.012C145.898 633.887 144.133 630.571 142.296 627.303C139.433 622.126 135.925 617.141 133.42 611.582Z" fill="white" fill-opacity="0.5"/>
<path d="M438.912 808.987C439.986 809.006 441.014 809.422 441.799 810.155C443.83 811.693 446.012 813.02 448.313 814.116C445.02 819.984 441.632 825.781 438.173 831.53C435.787 835.705 433.401 840.046 431.015 844.34C429.98 846.449 428.759 848.461 427.364 850.352C425.639 849.582 424.032 848.57 422.593 847.346C421.321 846.248 419.796 845.485 418.155 845.128C418.24 844.824 418.352 844.529 418.489 844.245L438.912 808.987Z" fill="white" fill-opacity="0.5"/>
<path d="M327.657 6.87042C327.666 7.07942 327.723 7.2835 327.824 7.46681C330.158 10.0336 333.155 11.9073 336.485 12.882C336.032 13.7169 335.626 14.5996 335.125 15.4107L315.489 48.9991C314.198 48.6174 313.003 47.967 311.982 47.0907C310.271 45.7431 308.375 44.6503 306.351 43.8464L306.661 43.2023L307.114 42.5343C310.693 35.3777 314.892 28.6982 318.853 21.804C321.716 16.7943 324.341 11.6415 327.657 6.87042Z" fill="white" fill-opacity="0.5"/>
<path d="M174.863 234.213C176.164 234.22 177.441 234.57 178.563 235.227C179.686 235.885 180.615 236.827 181.258 237.958L180.709 238.745L164.89 266.418C164.598 266.994 164.272 267.551 163.912 268.088C163.411 268.63 163.132 269.341 163.132 270.08C163.132 270.818 163.411 271.529 163.912 272.072C165.41 274.175 166.184 276.707 166.12 279.288C166.055 281.869 165.155 284.359 163.554 286.385C162.632 286.311 161.748 285.981 161.002 285.433C160.256 284.886 159.678 284.141 159.331 283.284C159.546 282.806 159.784 282.329 159.975 281.828C160.651 280.352 160.781 278.685 160.345 277.122C159.908 275.559 158.932 274.201 157.589 273.288C156.312 272.401 154.781 271.953 153.227 272.013C151.673 272.074 150.181 272.638 148.976 273.622C148.532 274.226 147.917 274.683 147.211 274.934C145.302 274.934 144.133 273.503 142.439 272.906C143.615 270.727 145.422 268.954 147.623 267.818C149.823 266.681 152.316 266.235 154.774 266.537C155.343 266.629 155.925 266.525 156.428 266.244C156.93 265.962 157.323 265.519 157.542 264.986C162.981 255.444 168.453 245.974 173.957 236.575C174.256 236.26 174.49 235.89 174.646 235.484C174.801 235.079 174.875 234.647 174.863 234.213Z" fill="white" fill-opacity="0.5"/>
<path d="M367.072 344.401C367.07 344.028 366.965 343.663 366.766 343.347C366.568 343.031 366.286 342.776 365.951 342.612C363.136 340.704 360.344 338.747 357.553 336.815C356.497 336.303 355.524 335.635 354.666 334.835C352.709 332.259 350.132 332.116 347.245 332.187C345.052 332.603 342.788 332.43 340.684 331.686C348.868 331.4 357.028 331.495 365.211 331.686C365.651 331.992 366.151 332.199 366.678 332.294C367.205 332.389 367.747 332.368 368.265 332.235C373.634 332.235 378.978 332.235 384.346 332.235C385.912 332.184 387.438 332.73 388.617 333.762C392.291 336.672 396.347 339.105 400.165 341.825C400.928 342.373 402.551 342.612 402.145 343.924C401.74 345.236 400.451 344.449 399.545 344.449L367.072 344.401Z" fill="white" fill-opacity="0.5"/>
<path d="M322.003 311.051C322.447 311.348 322.948 311.547 323.474 311.638C324 311.728 324.539 311.707 325.057 311.576C332.771 311.576 340.485 311.576 348.2 311.576C348.981 311.395 349.798 311.448 350.549 311.728C351.3 312.008 351.952 312.503 352.423 313.151C352.589 313.282 352.765 313.402 352.948 313.509C354.022 314.725 356.837 314.94 356.24 316.801C355.811 318.184 353.353 317.325 351.803 317.325C341.83 317.325 331.88 317.325 321.907 317.325C320.175 315.505 317.995 314.172 315.585 313.461C311.863 307.807 308.665 301.843 305.325 295.975C302.665 291.842 300.235 287.566 298.048 283.164L297.619 282.449C297.586 282.442 297.556 282.427 297.53 282.406C297.505 282.386 297.484 282.359 297.47 282.329C297.456 282.299 297.45 282.266 297.451 282.233C297.451 282.2 297.46 282.168 297.475 282.139C297.475 281.232 297.475 280.23 298.835 280.946C300.481 281.866 302.074 282.877 303.607 283.975C304.487 284.73 305.624 285.114 306.781 285.049L322.003 311.051Z" fill="white" fill-opacity="0.5"/>
<path d="M24.5272 193.659C24.4534 193.971 24.4606 194.297 24.5483 194.606C24.636 194.915 24.8012 195.197 25.0282 195.424C27.6527 196.998 29.8001 199.384 32.9495 200.195C32.5916 200.958 32.2576 201.746 31.8281 202.581C28.4401 208.473 25.0044 214.365 21.6164 220.257C18.801 225.172 16.0095 230.134 13.218 235.072C13.1153 234.504 12.8804 233.968 12.5322 233.508C12.184 233.048 11.7324 232.677 11.2138 232.424C9.61528 231.422 8.0883 230.301 6.44202 229.323C6.06601 229.134 5.74659 228.849 5.51614 228.497C5.28568 228.145 5.15238 227.739 5.12976 227.319C5.51512 226.211 6.06183 225.166 6.7522 224.217C11.9058 215.248 17.0752 206.278 22.2606 197.309C23.0002 195.853 23.7876 194.708 24.5272 193.659Z" fill="white" fill-opacity="0.5"/>
<path d="M754.831 661.225C753.876 662.561 752.445 661.965 751.276 661.965C733.477 661.965 715.702 661.965 697.903 661.965C696.689 661.758 695.441 661.925 694.324 662.442C695.381 663.814 696.703 664.958 698.213 665.806C700.026 667.118 701.911 668.358 703.796 669.575C704.345 669.79 704.826 670.15 705.187 670.616C705.548 671.082 705.777 671.637 705.848 672.223L682.752 672.366C682.331 672.423 681.903 672.351 681.524 672.159C681.145 671.967 680.833 671.665 680.629 671.292C676.143 663.301 671.252 655.5 667.029 647.437C667.22 646.149 667.673 645.767 668.89 646.626C672.183 649.011 675.547 651.158 678.887 653.448C680.174 654.572 681.771 655.279 683.468 655.476C684.659 656.224 685.514 657.404 685.854 658.768C686.237 659.749 686.934 660.576 687.836 661.12C688.738 661.664 689.794 661.893 690.84 661.774C711.025 661.631 731.186 661.774 751.371 661.774C752.551 661.862 753.735 661.674 754.831 661.225Z" fill="white" fill-opacity="0.5"/>
<path d="M317.326 725.063C318.599 724.934 319.873 725.301 320.881 726.089C321.282 726.442 321.752 726.707 322.262 726.868C322.771 727.028 323.309 727.08 323.84 727.019C319.927 734.533 315.465 741.738 311.29 749.109C310.523 750.627 309.671 752.101 308.737 753.522C307.699 754.562 307.083 755.949 307.008 757.416C306.933 758.883 307.404 760.326 308.331 761.466C309.307 762.96 309.844 764.697 309.882 766.481C309.92 768.264 309.457 770.023 308.546 771.557C306.733 771.414 305.659 769.529 303.774 769.553C303.774 768.718 304.013 767.883 304.037 767.024C304.093 765.937 303.891 764.852 303.447 763.857C303.003 762.863 302.33 761.987 301.483 761.303C300.636 760.619 299.638 760.145 298.573 759.92C297.507 759.696 296.403 759.727 295.352 760.011C294.355 760.35 293.39 760.773 292.465 761.275C290.842 760.488 289.793 758.675 287.693 758.627C288.809 757.088 290.314 755.873 292.053 755.106C293.793 754.339 295.705 754.048 297.595 754.262C298.461 754.396 299.347 754.233 300.109 753.8C300.872 753.367 301.465 752.689 301.794 751.876C306.9 742.931 312.125 734.009 317.326 725.063Z" fill="white" fill-opacity="0.5"/>
<path d="M660.038 547.697C659.424 549.267 658.623 550.757 657.652 552.134C657.307 552.65 657.146 553.267 657.193 553.885C657.241 554.504 657.495 555.089 657.915 555.546C659.106 557.151 659.874 559.03 660.149 561.01C660.425 562.99 660.198 565.008 659.489 566.877C658.506 569.743 656.506 572.149 653.868 573.639C651.23 575.129 648.137 575.601 645.174 574.964C642.144 574.342 639.451 572.621 637.614 570.133C635.777 567.644 634.926 564.564 635.225 561.486C635.479 558.398 636.902 555.524 639.203 553.45C641.504 551.375 644.51 550.256 647.608 550.321C648.689 550.476 649.791 550.254 650.729 549.694C651.667 549.134 652.384 548.269 652.761 547.244C653.272 545.951 654.016 544.762 654.956 543.737C655.624 546.361 657.867 546.958 660.038 547.697ZM647.679 569.74C649.533 569.741 651.315 569.023 652.65 567.737C653.985 566.451 654.769 564.698 654.837 562.846C654.794 560.961 654.027 559.165 652.693 557.832C651.36 556.499 649.564 555.731 647.679 555.689C645.843 555.731 644.092 556.478 642.791 557.775C641.49 559.071 640.737 560.818 640.689 562.655C640.669 563.582 640.836 564.504 641.18 565.366C641.523 566.228 642.036 567.013 642.687 567.673C643.339 568.334 644.117 568.857 644.974 569.212C645.831 569.567 646.751 569.746 647.679 569.74Z" fill="white" fill-opacity="0.5"/>
<path d="M166.369 670.887C166.251 671.296 166.083 671.688 165.868 672.056C165.003 672.961 164.505 674.155 164.47 675.407C164.435 676.658 164.865 677.878 165.678 678.831C167.04 681.172 167.566 683.908 167.167 686.587C166.768 689.267 165.468 691.731 163.482 693.574C161.52 695.5 158.98 696.729 156.251 697.071C153.523 697.413 150.758 696.85 148.381 695.468C146.004 694.085 144.146 691.961 143.094 689.421C142.042 686.88 141.854 684.065 142.558 681.407C143.225 678.789 144.732 676.462 146.848 674.782C148.963 673.102 151.572 672.161 154.273 672.104C154.589 672.059 154.911 672.059 155.227 672.104C155.629 672.25 156.057 672.309 156.483 672.278C156.91 672.247 157.325 672.126 157.701 671.924C158.077 671.721 158.407 671.441 158.667 671.102C158.927 670.763 159.113 670.372 159.212 669.957C159.423 669.591 159.679 669.255 159.975 668.955C160.706 668.872 161.446 668.937 162.151 669.146C162.856 669.355 163.511 669.704 164.079 670.171C164.393 670.439 164.757 670.64 165.151 670.763C165.545 670.886 165.959 670.928 166.369 670.887ZM154.845 691.57C156.702 691.508 158.462 690.727 159.753 689.391C161.044 688.056 161.766 686.27 161.765 684.413C161.681 682.555 160.895 680.799 159.567 679.497C158.239 678.195 156.466 677.446 154.607 677.4C153.667 677.421 152.74 677.628 151.88 678.008C151.02 678.387 150.243 678.933 149.594 679.613C148.945 680.293 148.436 681.095 148.097 681.971C147.757 682.848 147.594 683.783 147.616 684.723C147.625 685.653 147.821 686.572 148.192 687.425C148.563 688.278 149.101 689.048 149.776 689.689C150.45 690.33 151.246 690.829 152.117 691.156C152.988 691.483 153.916 691.632 154.845 691.593V691.57Z" fill="white" fill-opacity="0.5"/>
<path d="M677.36 209.642C679.335 210.426 681.183 211.494 682.848 212.814C683.905 213.707 685.13 214.38 686.45 214.794C686.317 215.856 685.868 216.853 685.162 217.657C682.371 222.571 679.555 227.486 676.668 232.352C674.282 236.193 672.397 240.2 669.797 243.874C668.489 243.518 667.28 242.865 666.266 241.966C664.543 240.624 662.649 239.517 660.635 238.674L660.945 238.006L661.351 237.409C663.951 232.114 667.101 227.128 670.035 222.023C672.397 217.872 674.569 213.578 677.36 209.642Z" fill="white" fill-opacity="0.5"/>
<path d="M129.698 264.509C129.818 265.185 130.097 265.823 130.512 266.371C130.927 266.918 131.466 267.359 132.084 267.658C133.372 268.565 134.709 269.471 136.069 270.282C136.449 270.468 136.773 270.751 137.008 271.103C137.243 271.455 137.38 271.864 137.405 272.286C135.534 276.224 133.297 279.978 130.724 283.498C129.77 284.691 129.531 286.456 128.648 287.792C126.91 291.112 124.933 294.301 122.731 297.334C122.539 298.031 122.25 298.698 121.872 299.314C120.065 297.682 118.117 296.213 116.051 294.925C114.98 294.225 114.22 293.14 113.927 291.895C119.001 282.623 124.258 273.495 129.698 264.509Z" fill="white" fill-opacity="0.5"/>
<path d="M430.251 82.3968C432.923 84.7823 435.453 87.4303 439.342 87.7166C436.335 93.8474 432.613 99.6443 429.249 105.489C427.579 108.447 425.766 111.334 424 114.268C423.902 114.365 423.836 114.49 423.809 114.626V114.793C422.85 114.831 421.915 114.488 421.209 113.838C419.014 112.359 416.771 110.976 414.528 109.568C418.393 102.769 422.235 95.9706 426.147 89.1956C427.337 86.8262 428.709 84.5531 430.251 82.3968Z" fill="white" fill-opacity="0.5"/>
<path d="M327.108 749.491C329.445 750.104 331.598 751.274 333.383 752.902C334.281 753.621 335.268 754.222 336.318 754.691C333.813 759.772 330.783 764.591 327.967 769.482C325.997 773.27 323.823 776.95 321.454 780.503C319.65 779.559 317.92 778.483 316.276 777.282C315.144 776.286 313.77 775.603 312.292 775.302C314.94 769.792 318.257 764.663 321.311 759.391C322.977 755.942 324.916 752.632 327.108 749.491Z" fill="white" fill-opacity="0.5"/>
<path d="M291.01 619.335C288.891 618.745 287.012 617.501 285.641 615.781C287.097 613.157 288.504 610.509 290.007 607.909C295.241 598.796 300.49 589.699 305.754 580.618C306.188 579.634 306.785 578.731 307.52 577.946C309.405 578.877 310.693 580.785 312.864 581.286C312.874 582.038 312.592 582.765 312.077 583.314C305.397 594.907 298.7 606.493 291.988 618.071C291.69 618.514 291.363 618.936 291.01 619.335Z" fill="white" fill-opacity="0.5"/>
<path d="M142.63 651.683C144.167 652.006 145.591 652.73 146.757 653.783C148.358 654.937 150.04 655.974 151.792 656.884C147.33 665.209 142.63 673.392 137.643 681.407C135.44 680.183 133.327 678.804 131.32 677.28C130.526 676.591 129.51 676.21 128.457 676.207C132.967 667.762 137.739 659.627 142.63 651.683Z" fill="white" fill-opacity="0.5"/>
<path d="M312.22 775.398C313.698 775.698 315.072 776.381 316.205 777.378C317.874 778.549 319.629 779.593 321.454 780.503C320.732 782.282 319.82 783.977 318.734 785.56C315.083 791.834 311.576 798.251 307.735 804.334C305.707 804.501 304.561 802.951 303.154 801.949C302.508 801.267 301.726 800.728 300.859 800.366C299.992 800.005 299.059 799.829 298.119 799.85C299.416 797.061 300.907 794.366 302.581 791.786C305.73 786.371 308.713 780.717 312.22 775.398Z" fill="white" fill-opacity="0.5"/>
<path d="M660.635 238.674C662.649 239.517 664.543 240.624 666.265 241.966C667.28 242.865 668.488 243.519 669.797 243.874C669.469 245.011 668.935 246.079 668.222 247.023C664.198 253.925 660.158 260.82 656.102 267.706C652.605 266.755 649.482 264.758 647.154 261.981C649.54 257.21 652.379 252.653 655.028 248.025C656.682 244.784 658.555 241.66 660.635 238.674Z" fill="white" fill-opacity="0.5"/>
<path d="M783.271 632.861C780.693 630.457 777.888 628.308 774.896 626.444C776.185 623.656 777.668 620.962 779.334 618.381C782.125 613.61 784.965 608.672 787.804 603.829C788.332 603.784 788.864 603.866 789.355 604.068C791.943 605.752 794.414 607.609 796.751 609.626C792.456 617.474 788.114 625.299 783.271 632.861Z" fill="white" fill-opacity="0.5"/>
<path d="M660.683 326.414C660.188 326.726 659.602 326.86 659.021 326.795C658.44 326.73 657.899 326.47 657.486 326.056C656.173 325.174 654.813 324.363 653.549 323.408C653.19 323.101 652.772 322.871 652.321 322.731C651.869 322.592 651.394 322.546 650.924 322.597C650.74 322.579 650.561 322.522 650.399 322.43C650.261 321.817 649.988 321.242 649.6 320.747C649.212 320.252 648.719 319.849 648.157 319.568C647.803 319.353 647.521 319.04 647.343 318.667C647.165 318.295 647.099 317.878 647.155 317.468C648.761 317.434 650.315 316.891 651.592 315.918C652.951 315.042 653.943 313.701 654.382 312.146C654.821 310.591 654.678 308.929 653.978 307.473C653.352 305.977 652.221 304.748 650.783 303.999C649.345 303.249 647.69 303.027 646.105 303.37C644.427 303.608 642.906 304.486 641.861 305.82C640.815 307.154 640.327 308.84 640.498 310.526C640.498 311.266 640.617 312.029 640.689 312.769C640.601 312.96 640.469 313.126 640.302 313.254C640.136 313.382 639.941 313.468 639.734 313.503C639.527 313.538 639.314 313.522 639.115 313.457C638.915 313.391 638.735 313.278 638.589 313.127C637.641 312.3 636.472 311.769 635.225 311.6C634.855 308.828 635.453 306.014 636.918 303.632C638.383 301.251 640.625 299.447 643.266 298.527C645.924 297.54 648.839 297.487 651.531 298.377C654.223 299.268 656.532 301.049 658.076 303.426C659.621 305.804 660.309 308.637 660.029 311.458C659.748 314.279 658.514 316.921 656.531 318.947C657.414 321.762 659.657 323.742 660.683 326.414Z" fill="white" fill-opacity="0.5"/>
<path d="M418.155 845.103C419.796 845.461 421.321 846.224 422.592 847.322C424.032 848.546 425.639 849.558 427.364 850.328C423.475 857.484 419.467 864.641 415.077 871.583C412.691 870.962 411.069 868.959 408.969 867.79C408.044 867.095 406.976 866.615 405.843 866.382C409.732 859.226 413.812 852.069 418.155 845.103Z" fill="white" fill-opacity="0.5"/>
<path d="M676.191 565.136C676.069 564.463 675.789 563.829 675.374 563.286C674.959 562.743 674.422 562.306 673.805 562.011C672.445 561.057 671.013 560.15 669.606 559.267C669.268 559.117 668.981 558.873 668.778 558.564C668.575 558.256 668.465 557.895 668.46 557.526C672.349 550.369 676.262 543.213 680.724 536.247C680.695 536.764 680.836 537.277 681.124 537.707C681.412 538.138 681.833 538.462 682.323 538.633C684.207 539.968 686.116 541.257 688.001 542.616C689.886 543.976 689.981 544.262 687.786 545.741C687.057 546.345 686.428 547.062 685.925 547.865C683.117 553.857 679.863 559.63 676.191 565.136Z" fill="white" fill-opacity="0.5"/>
<path d="M306.351 43.8463C308.375 44.6502 310.271 45.743 311.982 47.0907C313.003 47.967 314.198 48.6173 315.489 48.9991C315.36 49.7441 315.039 50.4429 314.558 51.0268L304.681 67.7256C303.176 67.6773 301.738 67.0936 300.625 66.0796C299.143 64.5195 297.19 63.4887 295.066 63.1454C298.668 56.6567 302.367 50.0965 306.351 43.8463Z" fill="white" fill-opacity="0.5"/>
<path d="M775.445 314.129C774.492 314.18 773.558 313.854 772.844 313.222C770.673 311.743 768.406 310.359 766.187 308.928C769.623 302.559 773.202 296.261 777.043 290.13C778.737 291.204 780.503 292.229 782.125 293.398C783.374 294.413 784.957 294.923 786.563 294.83C783.199 301.461 779.31 307.783 775.445 314.129Z" fill="white" fill-opacity="0.5"/>
<path d="M166.37 670.887C165.944 670.942 165.511 670.907 165.1 670.783C164.689 670.66 164.309 670.452 163.984 670.171C163.416 669.704 162.76 669.355 162.055 669.146C161.35 668.937 160.611 668.872 159.88 668.955C161.392 665.792 163.097 662.724 164.986 659.77C168.445 653.783 171.976 647.843 175.484 641.879C176.518 641.854 177.524 642.22 178.299 642.905C179.199 643.765 180.339 644.33 181.568 644.527C176.724 653.425 171.738 662.251 166.37 670.887Z" fill="white" fill-opacity="0.5"/>
<path d="M660.038 547.697C657.891 546.934 655.624 546.338 654.861 543.761C656.841 539.348 659.633 535.364 662.019 531.165C664.404 526.967 666.79 522.84 669.176 518.689C671.085 519.882 673.662 520.24 674.425 522.84C670.226 530.251 666.019 537.654 661.804 545.049C661.403 546.044 660.802 546.945 660.038 547.697Z" fill="white" fill-opacity="0.5"/>
<path d="M310.264 165.724C312.65 166.153 313.7 168.491 315.895 169.04C311.29 177.318 306.685 185.595 301.579 193.635C300.583 193.118 299.626 192.527 298.716 191.869C298.282 191.51 297.777 191.246 297.235 191.094C296.692 190.942 296.124 190.906 295.567 190.987C299.336 183.663 303.726 176.673 307.806 169.517C308.433 168.138 309.262 166.86 310.264 165.724Z" fill="white" fill-opacity="0.5"/>
<path d="M733.095 362.603C730.995 362.603 729.731 360.217 727.536 360.527C728.061 360.003 728.633 359.525 729.11 358.953C730.015 358.025 730.628 356.854 730.874 355.582C731.12 354.31 730.988 352.994 730.494 351.796C730.061 350.584 729.302 349.515 728.3 348.707C727.298 347.899 726.092 347.383 724.816 347.216C723.235 347.056 721.645 347.408 720.279 348.22C718.913 349.031 717.844 350.26 717.229 351.725C715.344 351.725 714.151 349.983 712.457 349.578C713.256 347.232 714.79 345.206 716.831 343.801C718.873 342.395 721.313 341.686 723.79 341.777C726.271 341.646 728.731 342.292 730.827 343.627C732.923 344.961 734.55 346.916 735.481 349.22C736.535 351.419 736.873 353.894 736.444 356.296C736.016 358.697 734.845 360.903 733.095 362.603Z" fill="white" fill-opacity="0.5"/>
<path d="M287.765 758.651C289.793 758.651 290.842 760.488 292.536 761.299C291.646 762.043 290.992 763.029 290.652 764.138C290.027 765.742 290.002 767.517 290.58 769.138C291.159 770.759 292.302 772.118 293.801 772.965C295.25 773.8 296.957 774.073 298.594 773.73C300.232 773.386 301.685 772.451 302.677 771.104C303.082 770.627 303.44 770.102 303.822 769.577C305.707 769.577 306.78 771.438 308.594 771.581C307.678 773.831 306.122 775.762 304.118 777.136C302.114 778.509 299.752 779.264 297.323 779.307C294.894 779.351 292.506 778.68 290.454 777.378C288.403 776.077 286.779 774.202 285.784 771.986C284.661 769.84 284.248 767.393 284.604 764.996C284.959 762.6 286.066 760.379 287.765 758.651Z" fill="white" fill-opacity="0.5"/>
<path d="M525.759 456.713C524.447 454.852 521.99 454.327 520.749 452.419C522.931 448.007 525.36 443.722 528.026 439.584C528.716 438.734 529.092 437.673 529.092 436.579C529.092 435.484 528.716 434.423 528.026 433.573C527.635 432.938 527.308 432.267 527.048 431.569C528.02 431.454 529 431.709 529.791 432.285C532.819 434.126 535.698 436.2 538.405 438.487C538.118 439.799 536.591 438.893 536.019 439.799C535.023 440.614 534.258 441.675 533.8 442.877C531.175 447.481 528.813 452.299 525.759 456.713Z" fill="white" fill-opacity="0.5"/>
<path d="M142.654 272.906C144.252 273.527 145.421 275.053 147.425 274.934C147.282 275.65 147.139 276.389 146.972 277.105C146.662 278.212 146.629 279.378 146.877 280.5C147.126 281.622 147.647 282.666 148.395 283.539C149.143 284.412 150.094 285.087 151.165 285.504C152.237 285.922 153.394 286.068 154.535 285.931C156.439 285.627 158.186 284.695 159.498 283.284C159.845 284.141 160.424 284.886 161.169 285.433C161.915 285.981 162.799 286.311 163.721 286.385C161.975 288.842 159.386 290.572 156.448 291.245C153.509 291.918 150.425 291.487 147.783 290.035C145.17 288.624 143.143 286.332 142.064 283.566C140.985 280.8 140.923 277.741 141.89 274.934C142.009 274.266 142.367 273.598 142.654 272.906Z" fill="white" fill-opacity="0.5"/>
<path d="M645.938 394.784C647 394.794 648.024 395.184 648.825 395.881C649.684 396.692 650.763 397.231 651.926 397.432C648.522 403.459 645.111 409.487 641.691 415.514C641.398 415.946 641.071 416.353 640.712 416.731C639.712 415.554 638.528 414.547 637.205 413.749C636.866 413.526 636.594 413.215 636.417 412.85C636.241 412.484 636.167 412.078 636.203 411.674C639.16 405.883 642.409 400.246 645.938 394.784Z" fill="white" fill-opacity="0.5"/>
<path d="M312.841 581.286C310.669 580.785 309.405 578.9 307.496 577.946C309.882 572.913 313.031 568.404 315.632 563.466C316.293 562.622 316.743 561.632 316.944 560.579C319.44 560.97 321.68 562.334 323.172 564.372C320.189 569.31 317.159 574.225 314.272 579.21C313.843 579.95 313.222 580.523 312.841 581.286Z" fill="white" fill-opacity="0.5"/>
<path d="M647.155 317.445C647.099 317.854 647.164 318.271 647.342 318.644C647.52 319.016 647.803 319.329 648.157 319.544C648.719 319.825 649.212 320.228 649.6 320.723C649.988 321.218 650.261 321.793 650.399 322.406C648.681 322.853 646.884 322.914 645.139 322.586C643.394 322.259 641.742 321.551 640.302 320.512C638.862 319.473 637.669 318.129 636.808 316.576C635.947 315.023 635.439 313.3 635.32 311.528C636.587 311.646 637.791 312.135 638.78 312.936C638.926 313.087 639.106 313.2 639.305 313.266C639.505 313.331 639.717 313.347 639.924 313.312C640.131 313.277 640.327 313.191 640.493 313.063C640.66 312.936 640.792 312.769 640.88 312.578C641.479 313.818 642.357 314.903 643.446 315.748C644.534 316.592 645.804 317.173 647.155 317.445Z" fill="white" fill-opacity="0.5"/>
<path d="M678.076 208.33L677.67 208.998C677.646 208.856 677.674 208.711 677.748 208.588C677.823 208.465 677.939 208.373 678.076 208.33Z" fill="white" fill-opacity="0.5"/>
<path d="M307.138 42.5342L306.685 43.2022C306.657 43.0535 306.689 42.8999 306.774 42.7747C306.859 42.6496 306.99 42.5631 307.138 42.5342Z" fill="white" fill-opacity="0.5"/>
<path d="M423.833 114.621C423.859 114.487 423.925 114.364 424.022 114.268V114.503L423.833 114.621Z" fill="white" fill-opacity="0.5"/>
<path d="M328.349 5.67761C328.357 5.83837 328.316 5.99773 328.23 6.13422C328.145 6.27071 328.02 6.3778 327.872 6.441C327.856 6.27899 327.895 6.11637 327.981 5.97835C328.067 5.84034 328.197 5.73462 328.349 5.67761Z" fill="white" fill-opacity="0.5"/>
<path d="M329.041 4.48483L328.612 5.2005C328.59 5.12527 328.585 5.04648 328.595 4.96896C328.605 4.89144 328.631 4.81685 328.671 4.74979C328.712 4.68274 328.765 4.62464 328.829 4.57907C328.892 4.53351 328.965 4.50142 329.041 4.48483Z" fill="white" fill-opacity="0.5"/>
<path d="M297.595 282.52L298.024 283.236C297.887 283.176 297.771 283.076 297.694 282.947C297.617 282.819 297.582 282.669 297.595 282.52Z" fill="white" fill-opacity="0.5"/>
<path d="M661.327 237.433L660.921 238.03C660.907 237.964 660.907 237.896 660.92 237.83C660.933 237.764 660.959 237.701 660.997 237.645C661.035 237.59 661.084 237.542 661.14 237.506C661.197 237.469 661.26 237.445 661.327 237.433Z" fill="white" fill-opacity="0.5"/>
<path d="M338.775 866.382H401.644C402.813 866.382 404.03 866.382 405.175 866.525C404.209 867.011 403.107 867.153 402.05 866.931H341.829C341.311 867.061 340.77 867.08 340.243 866.985C339.717 866.891 339.216 866.685 338.775 866.382Z" fill="white" fill-opacity="0.5"/>
<path d="M127.193 201.03C127.001 200.937 126.84 200.791 126.73 200.609C126.62 200.427 126.565 200.217 126.573 200.004C126.764 200.097 126.925 200.243 127.035 200.425C127.145 200.607 127.2 200.817 127.193 201.03Z" fill="white" fill-opacity="0.5"/>
<path d="M127.742 201.96C127.598 201.903 127.477 201.799 127.399 201.665C127.321 201.531 127.291 201.374 127.312 201.221L127.742 201.96Z" fill="white" fill-opacity="0.5"/>
</g>
<defs>
<clipPath id="clip0">
<rect width="802" height="878" fill="white"/>
</clipPath>
</defs>
</svg>
