<svg width="215" height="508" viewBox="0 0 215 508" fill="none" xmlns="http://www.w3.org/2000/svg">
<g clip-path="url(#clip0)">
<path d="M143.458 120.537C144.242 118.941 145.111 117.389 146.061 115.886C146.156 115.727 146.295 115.599 146.461 115.518C146.628 115.437 146.814 115.407 146.998 115.43H147.92C162.117 115.43 176.309 115.43 190.496 115.43C190.974 115.368 191.459 115.458 191.883 115.685C192.308 115.913 192.651 116.268 192.865 116.7C199.945 129.085 207.057 141.452 214.201 153.801C214.297 154.277 214.573 154.698 214.972 154.974V155.72C214.642 155.72 214.642 155.982 214.518 156.189C211.763 161.02 209.008 165.933 206.061 170.668C205.133 170.722 204.219 170.426 203.499 169.84C202.562 169.149 201.543 168.57 200.565 167.949C202.493 164.125 204.793 160.509 206.928 156.81C207.243 156.369 207.413 155.841 207.413 155.299C207.413 154.756 207.243 154.228 206.928 153.787C201.051 143.665 195.216 133.544 189.422 123.422C189.186 122.899 188.795 122.463 188.301 122.174C187.808 121.885 187.236 121.756 186.667 121.807C175 121.807 163.334 121.807 151.653 121.807C151.157 121.807 150.661 121.807 150.166 121.807C149.931 121.807 149.615 121.807 149.546 122.083C149.38 122.98 148.485 123.463 148.292 124.305C147.53 124.065 146.823 123.676 146.212 123.16C145.252 122.396 144.184 121.777 143.044 121.324L143.223 120.937L143.458 120.537Z" fill="white" fill-opacity="0.5"/>
<path d="M-10.7287 0C-7.6892 5.33696 -4.64973 10.6739 -1.61026 16.0109C1.0068 20.5795 3.65142 25.1343 6.26849 29.7029C6.345 29.8715 6.40497 30.0472 6.44756 30.2274C6.1961 30.393 5.89492 30.4657 5.5958 30.433C5.29668 30.4002 5.01828 30.2641 4.80844 30.048C2.90762 28.6677 0.910416 27.5359 -0.935307 26.1143C-1.6733 25.45 -2.61674 25.0602 -3.60747 25.0101C-3.97937 24.4304 -4.36506 23.8783 -4.69563 23.2848L-14.4614 6.36292C-14.7258 6.14871 -15.0387 6.00273 -15.3724 5.93776C-15.7062 5.87279 -16.0508 5.89083 -16.376 5.99027C-20.8801 5.99027 -25.398 5.99027 -29.9021 5.99027C-30.1709 6.06501 -30.453 6.07775 -30.7273 6.02755C-31.0017 5.97734 -31.2611 5.8655 -31.4861 5.70041C-33.0839 3.93369 -35.2602 2.93991 -37.1335 1.55967C-37.4406 1.41846 -37.708 1.20349 -37.9123 0.933819C-38.1165 0.664149 -38.2512 0.348125 -38.3043 0.0137949H-10.7562L-10.7287 0Z" fill="white" fill-opacity="0.5"/>
<path d="M56.3094 249.714C54.3397 246.843 52.7695 243.738 51.0202 240.742C48.2654 236.132 45.6483 231.522 43.045 226.871C42.859 226.433 42.5342 226.069 42.121 225.834C41.7077 225.6 41.2289 225.508 40.7585 225.574C39.033 225.623 37.3494 225.036 36.0268 223.924C34.7042 222.812 33.8345 221.253 33.5823 219.542C33.2848 217.835 33.6075 216.078 34.4919 214.589C35.3764 213.1 36.764 211.978 38.4032 211.426C40.035 210.864 41.8148 210.914 43.4128 211.566C45.0108 212.218 46.3188 213.429 47.0946 214.973C47.8085 216.154 48.1206 217.535 47.984 218.909C47.8474 220.283 47.2694 221.576 46.337 222.592C46.0993 222.796 45.9452 223.081 45.9045 223.392C45.8639 223.703 45.9394 224.018 46.1166 224.276C46.3094 224.594 46.4885 224.925 46.6676 225.242C51.2544 233.206 55.8824 241.157 60.4416 249.148C60.6628 249.612 61.0236 249.995 61.4734 250.243C61.9231 250.49 62.439 250.59 62.9485 250.528C74.6839 250.528 86.3643 250.528 98.1411 250.528C99.8353 250.528 99.8353 250.528 100.193 249.148C101.058 245.814 103.177 242.944 106.108 241.143C109.038 239.341 112.552 238.747 115.91 239.486C117.549 239.859 118.554 239.762 119.284 238.244C119.263 238.478 119.306 238.713 119.408 238.925C119.51 239.136 119.667 239.316 119.863 239.445C120.626 239.907 121.31 240.49 121.888 241.17C121.751 241.483 121.734 241.834 121.841 242.158C121.948 242.482 122.171 242.754 122.466 242.923C124.807 245.113 126.242 248.102 126.488 251.301C126.742 253.188 126.547 255.107 125.92 256.904C125.293 258.7 124.251 260.323 122.879 261.639C121.502 263.02 121.502 263.02 122.466 264.759C128.554 275.304 134.656 285.849 140.689 296.422C140.94 297.004 141.368 297.491 141.913 297.813C142.457 298.136 143.09 298.277 143.719 298.216C149.491 298.119 155.262 298.216 161.033 298.216C161.57 298.3 162.119 298.199 162.591 297.931C163.064 297.663 163.432 297.243 163.637 296.739C164.421 295.196 165.745 293.998 167.357 293.374C168.969 292.75 170.754 292.744 172.369 293.357C173.953 293.936 175.286 295.049 176.138 296.506C176.991 297.962 177.31 299.671 177.041 301.338C176.772 303.005 175.931 304.526 174.664 305.639C173.396 306.752 171.781 307.388 170.097 307.436C168.719 307.501 167.354 307.151 166.178 306.43C165.001 305.709 164.068 304.65 163.499 303.392C163.345 302.964 163.048 302.603 162.659 302.369C162.27 302.135 161.813 302.043 161.364 302.108C155.345 302.108 149.325 302.108 143.306 302.108C142.626 301.992 141.927 302.151 141.364 302.55C140.909 301.032 139.422 300.838 138.334 300.148L127.893 282.095L118.94 266.636C117.962 264.938 118.1 265.256 116.502 265.615C113.103 266.511 109.489 266.028 106.444 264.271C103.398 262.514 101.167 259.624 100.235 256.229C99.7664 254.6 99.7664 254.586 98.0034 254.586H63.5683C62.8934 254.586 62.1909 254.586 61.5297 254.517C61.8052 253.993 62.6868 254.517 62.9071 253.758C61.3449 252.435 59.6824 251.235 57.9347 250.17C57.4727 249.812 56.8897 249.648 56.3094 249.714ZM122.631 252.64C122.69 251.361 122.492 250.084 122.047 248.883C121.602 247.683 120.92 246.585 120.042 245.655C119.165 244.725 118.109 243.982 116.938 243.47C115.767 242.958 114.505 242.688 113.227 242.676C111.949 242.664 110.683 242.91 109.502 243.4C108.322 243.889 107.252 244.613 106.357 245.526C105.462 246.439 104.759 247.524 104.292 248.716C103.825 249.907 103.602 251.181 103.637 252.461C103.704 254.925 104.723 257.267 106.478 258.994C108.233 260.721 110.588 261.699 113.048 261.723C115.508 261.746 117.881 260.812 119.668 259.119C121.455 257.425 122.517 255.103 122.631 252.64ZM169.849 296.021C168.774 296.054 167.755 296.504 167.007 297.277C166.258 298.05 165.84 299.085 165.84 300.162C165.761 300.754 165.811 301.355 165.985 301.926C166.16 302.496 166.455 303.022 166.851 303.467C167.248 303.913 167.735 304.267 168.281 304.506C168.827 304.745 169.417 304.863 170.013 304.852C170.608 304.841 171.194 304.701 171.73 304.442C172.267 304.183 172.741 303.811 173.12 303.351C173.5 302.891 173.776 302.355 173.929 301.778C174.082 301.201 174.109 300.598 174.008 300.01C173.969 298.934 173.513 297.915 172.736 297.17C171.959 296.426 170.924 296.013 169.849 296.021ZM44.7668 218.438C44.767 217.354 44.343 216.313 43.5858 215.539C42.8287 214.764 41.7988 214.319 40.7172 214.297C40.1257 214.199 39.5199 214.232 38.9421 214.392C38.3643 214.552 37.8282 214.837 37.3711 215.225C36.914 215.614 36.5467 216.098 36.2948 216.643C36.0429 217.188 35.9124 217.782 35.9124 218.382C35.9124 218.983 36.0429 219.577 36.2948 220.122C36.5467 220.667 36.914 221.151 37.3711 221.54C37.8282 221.928 38.3643 222.213 38.9421 222.373C39.5199 222.533 40.1257 222.566 40.7172 222.468C41.78 222.447 42.7938 222.017 43.5479 221.266C44.3021 220.515 44.7386 219.502 44.7668 218.438Z" fill="white" fill-opacity="0.5"/>
<path d="M-37.1473 191.896C-36.5275 191.896 -35.9076 191.813 -35.3016 191.813C-19.7369 191.813 -4.1723 191.813 11.3923 191.813C11.9885 191.751 12.5888 191.88 13.108 192.179C13.6273 192.479 14.0391 192.935 14.2849 193.483C22.3932 207.654 30.5382 221.801 38.72 235.926C38.9955 236.409 39.2159 236.919 39.4638 237.416C38.5895 237.455 37.7317 237.17 37.0534 236.616C34.7669 235.015 32.4528 233.483 30.1663 231.895C29.5535 231.473 28.8979 231.117 28.2104 230.832C27.563 230.556 27.3013 230.929 27.2187 231.523C26.8917 231.237 26.6369 230.877 26.4749 230.474C20.8964 220.812 15.2904 211.15 9.78081 201.406C9.52111 200.83 9.08739 200.351 8.54107 200.037C7.99475 199.722 7.36349 199.588 6.73672 199.653C-12.2531 199.717 -31.2428 199.717 -50.2326 199.653C-50.9764 199.653 -51.7202 199.653 -52.464 199.653C-52.1765 199.476 -51.8567 199.358 -51.5233 199.306C-51.1899 199.254 -50.8495 199.268 -50.5218 199.349C-45.7147 199.349 -40.8801 199.349 -36.1005 199.349H-17.3402C-16.8168 199.349 -15.9628 199.639 -15.8389 199.045C-15.7149 198.452 -16.5414 198.148 -16.9821 197.831C-19.186 196.257 -21.5276 194.849 -23.6488 193.166C-24.3292 192.569 -25.2104 192.253 -26.1143 192.282C-29.2135 192.282 -32.2988 192.282 -35.398 192.282C-35.7002 192.348 -36.0128 192.347 -36.3147 192.28C-36.6166 192.214 -36.9006 192.082 -37.1473 191.896Z" fill="white" fill-opacity="0.5"/>
<path d="M-59.1582 433.646C-58.4282 431.921 -57.34 430.402 -56.4034 428.76C-56.311 428.528 -56.1448 428.333 -55.9305 428.206C-55.7163 428.079 -55.4661 428.026 -55.2188 428.056C-54.7918 428.056 -54.3511 428.056 -53.9103 428.056C-40.0123 428.056 -26.1143 428.056 -12.2163 428.056C-11.5602 427.996 -10.902 428.145 -10.3356 428.482C-9.76915 428.819 -9.32347 429.327 -9.0621 429.933C-2.17509 441.914 4.71192 453.839 11.5989 465.82C12.7973 467.89 12.811 467.89 11.5989 469.96C11.3785 470.333 11.1168 470.678 10.8689 471.037C9.54098 470.403 8.28104 469.636 7.10863 468.746C6.65565 468.321 6.06184 468.081 5.44194 468.069C5.33408 467.782 5.20993 467.501 5.07005 467.227C-0.990513 456.692 -7.04189 446.156 -13.0841 435.62C-13.2866 435.214 -13.6104 434.881 -14.0103 434.668C-14.4103 434.456 -14.8665 434.373 -15.3155 434.433C-26.6653 434.433 -38.0288 434.515 -49.3786 434.433C-51.4447 434.433 -52.9599 434.736 -53.7863 436.751C-54.3928 436.48 -54.9622 436.132 -55.4805 435.716C-56.5164 434.732 -57.7802 434.02 -59.1582 433.646Z" fill="white" fill-opacity="0.5"/>
<path d="M144.987 310.252C145.008 310.032 145.112 309.829 145.279 309.685C145.446 309.541 145.662 309.467 145.882 309.479H147.19C161.212 309.479 175.234 309.479 189.256 309.479C189.818 309.423 190.384 309.541 190.877 309.817C191.369 310.094 191.765 310.515 192.011 311.025C198.916 323.107 205.859 335.165 212.837 347.201C213.085 347.629 213.306 348.085 213.581 348.499C213.751 348.72 213.843 348.992 213.843 349.272C213.843 349.551 213.751 349.823 213.581 350.044C213.099 350.981 212.542 351.876 211.915 352.722C210.565 351.555 209.139 350.481 207.645 349.506C207.361 349.39 207.054 349.342 206.749 349.368L193.774 326.76C191.887 323.475 189.986 320.204 188.127 316.905C187.988 316.526 187.724 316.206 187.377 316C187.031 315.794 186.624 315.713 186.226 315.773C185.795 315.801 185.362 315.801 184.931 315.773H149.064C150.331 314.917 150.345 314.807 149.188 313.965C148.031 313.123 146.998 312.433 145.909 311.66C145.622 311.56 145.376 311.368 145.209 311.113C145.042 310.859 144.964 310.556 144.987 310.252Z" fill="white" fill-opacity="0.5"/>
<path d="M191.929 194.863C191.352 195.096 190.723 195.163 190.11 195.057C176.157 195.057 162.204 195.057 148.251 195.057C147.651 195.12 147.047 194.993 146.523 194.693C145.999 194.394 145.582 193.936 145.331 193.387C138.343 181.148 131.3 168.942 124.202 156.769C123.855 156.344 123.665 155.813 123.665 155.264C123.665 154.716 123.855 154.184 124.202 153.76C124.614 153.008 125.074 152.285 125.579 151.593C126.923 153.199 128.726 154.355 130.744 154.905C130.808 155.525 131.047 156.114 131.433 156.603L135.565 163.877C140.083 171.731 144.629 179.584 149.105 187.465C149.298 187.912 149.627 188.287 150.045 188.535C150.463 188.783 150.949 188.891 151.433 188.846C154.532 188.763 157.631 188.846 160.744 188.846C163.031 188.846 165.331 188.721 167.631 188.928C167.728 189.352 167.923 189.746 168.201 190.079C168.479 190.413 168.831 190.676 169.229 190.847C170.718 191.73 172.141 192.722 173.485 193.814C173.879 194.188 174.345 194.476 174.854 194.661C175.364 194.846 175.906 194.925 176.447 194.891C181.639 194.794 186.791 194.863 191.929 194.863Z" fill="white" fill-opacity="0.5"/>
<path d="M137.08 374.516C134.684 370.831 132.631 366.938 130.414 363.157C127.934 358.933 125.538 354.668 123.045 350.458C122.798 350.112 122.665 349.697 122.665 349.271C122.665 348.846 122.798 348.431 123.045 348.084C127.875 339.803 132.682 331.494 137.466 323.157C137.601 322.951 137.748 322.753 137.907 322.563C137.909 322.777 137.973 322.986 138.09 323.164C138.207 323.343 138.373 323.484 138.568 323.571C139.381 324.082 140.207 324.606 140.992 325.158C141.348 325.329 141.659 325.582 141.898 325.896C142.138 326.211 142.299 326.577 142.37 326.966C141.584 328.347 140.827 329.851 140.014 331.259C136.832 336.78 133.678 342.301 130.372 347.822C130.06 348.23 129.89 348.73 129.89 349.244C129.89 349.758 130.06 350.258 130.372 350.665C133.361 355.303 135.648 360.327 138.637 365.02C141.199 369.05 143.444 373.301 145.813 377.442C146.21 377.923 146.446 378.517 146.488 379.14C145.508 379.026 144.586 378.617 143.843 377.967C141.929 376.586 139.987 375.358 138.072 374.019C137.452 373.55 137.177 373.771 137.08 374.516Z" fill="white" fill-opacity="0.5"/>
<path d="M204.187 366.166C202.81 368.926 201.226 371.466 199.725 374.116C197.149 378.657 194.504 383.156 191.942 387.697C191.779 388.125 191.484 388.489 191.1 388.738C190.716 388.986 190.263 389.105 189.807 389.078C179.945 389.078 170.083 389.078 160.221 389.078C159.972 389.068 159.724 389.045 159.477 389.009C159.436 388.67 159.304 388.349 159.095 388.079C158.887 387.809 158.609 387.601 158.292 387.477C157.204 386.773 156.13 386.096 155.069 385.296C154.198 384.805 153.434 384.143 152.824 383.35C153.469 383.05 154.189 382.954 154.89 383.074C165.166 383.074 175.427 383.074 185.703 383.074C186.391 383.074 187.204 383.419 187.755 382.646C188.031 382.094 188.278 381.528 188.595 381.003C191.35 376.228 194.105 371.456 196.86 366.69C197.598 365.256 198.431 363.872 199.353 362.549C201.076 363.597 202.695 364.808 204.187 366.166Z" fill="white" fill-opacity="0.5"/>
<path d="M175.221 209.798C174.479 210.677 173.534 211.36 172.469 211.788C171.403 212.216 170.248 212.376 169.106 212.254C167.965 212.131 166.87 211.73 165.919 211.085C164.968 210.44 164.189 209.572 163.65 208.555C163.426 208.027 163.035 207.587 162.538 207.303C162.04 207.019 161.463 206.906 160.896 206.982C155.074 207.046 149.257 207.046 143.444 206.982C142.904 206.917 142.357 207.025 141.882 207.29C141.407 207.555 141.028 207.964 140.799 208.459C136.901 215.36 132.921 222.261 128.954 229.066C128.753 229.376 128.537 229.675 128.306 229.963C127.634 229.847 127.012 229.535 126.516 229.066C126.053 228.662 125.462 228.437 124.849 228.431C126.598 224.87 128.733 221.53 130.689 218.079C132.921 214.145 135.18 210.212 137.494 206.319C137.787 205.919 137.945 205.436 137.945 204.939C137.945 204.443 137.787 203.959 137.494 203.559C134.505 198.48 131.571 193.359 128.637 188.252C128.334 187.714 128.072 187.148 127.797 186.609C128.068 186.58 128.342 186.606 128.603 186.687C128.863 186.768 129.105 186.901 129.312 187.079C130.042 187.631 130.827 188.114 131.585 188.611C131.823 188.85 132.136 189.001 132.471 189.038C132.807 189.076 133.145 188.998 133.43 188.818C135.469 191.785 137.08 195.015 138.94 198.093C139.739 199.473 140.524 200.771 141.254 202.137C141.383 202.416 141.596 202.648 141.862 202.802C142.129 202.955 142.436 203.022 142.741 202.993C149.169 202.993 155.56 202.993 161.915 202.993C162.191 203.025 162.471 202.972 162.717 202.841C162.963 202.711 163.163 202.508 163.292 202.261C164.298 202.482 164.986 203.435 166.047 203.504C165.954 203.927 165.89 204.356 165.854 204.787C165.843 205.403 165.97 206.013 166.224 206.573C166.478 207.133 166.853 207.63 167.323 208.027C167.793 208.423 168.345 208.71 168.939 208.866C169.533 209.022 170.154 209.043 170.758 208.928C171.177 208.83 171.591 208.71 171.997 208.569C173.278 208.459 174.008 209.77 175.221 209.798Z" fill="white" fill-opacity="0.5"/>
<path d="M45.4555 257.899C42.7007 262.827 39.9459 267.727 36.9982 272.53C35.7861 274.517 34.7806 276.671 33.596 278.672C31.3233 282.495 29.3812 286.525 26.709 290.128C26.4573 290.564 26.254 291.027 26.1029 291.508C26.0281 291.213 25.8785 290.942 25.6685 290.722C25.4586 290.502 25.1954 290.34 24.9046 290.252C23.72 289.396 22.4804 288.623 21.2545 287.823C20.9734 287.703 20.7274 287.513 20.5395 287.272C20.3516 287.03 20.2279 286.745 20.1801 286.443C20.6209 285.628 21.0341 284.8 21.5575 284C25.5428 277.08 29.5327 270.179 33.5272 263.296C35.428 260.039 37.1911 256.698 39.2572 253.538C40.7586 254.49 42.2599 255.442 43.7475 256.422C44.4278 256.769 45.014 257.276 45.4555 257.899Z" fill="white" fill-opacity="0.5"/>
<path d="M-17.4642 313.827C-17.4311 313.456 -17.5159 313.084 -17.7064 312.764C-17.8968 312.444 -18.1833 312.193 -18.5248 312.046C-20.4118 310.763 -22.2851 309.451 -24.1584 308.14C-24.4063 307.961 -24.7093 307.836 -24.9435 307.643C-25.1155 307.57 -25.2566 307.439 -25.3421 307.273C-25.4277 307.106 -25.4524 306.915 -25.4118 306.732C-25.3262 306.602 -25.2005 306.503 -25.0539 306.451C-24.9072 306.399 -24.7476 306.396 -24.5991 306.442C-24.1721 306.442 -23.7314 306.442 -23.3044 306.442H-12.8912C-12.2808 306.576 -11.6427 306.478 -11.1006 306.166H-3.49732L8.8993 306.083C10.6348 307.326 12.3704 308.596 14.1197 309.81C14.3481 309.896 14.5472 310.046 14.6936 310.241C14.84 310.437 14.9276 310.671 14.9461 310.914C13.5687 313.992 13.5687 313.992 10.2079 313.978H-15.4256C-16.1143 313.896 -16.7892 313.854 -17.4642 313.827Z" fill="white" fill-opacity="0.5"/>
<path d="M191.929 194.863C186.777 194.863 181.639 194.863 176.488 194.863C175.947 194.897 175.405 194.819 174.896 194.633C174.386 194.448 173.92 194.16 173.526 193.787C172.182 192.694 170.76 191.702 169.27 190.819C168.872 190.648 168.52 190.385 168.242 190.051C167.965 189.718 167.769 189.324 167.672 188.901C168.347 188.901 169.05 188.832 169.711 188.832C175.4 188.832 181.088 188.832 186.777 188.832C187.285 188.895 187.799 188.795 188.247 188.547C188.695 188.299 189.053 187.916 189.27 187.451C190.882 184.525 192.631 181.682 194.325 178.811C195.606 179.639 196.915 180.44 198.168 181.296C198.58 181.661 199.12 181.85 199.669 181.82C198.044 185.064 196.157 188.169 194.27 191.261C193.526 192.434 193.196 193.952 191.929 194.863Z" fill="white" fill-opacity="0.5"/>
<path d="M45.4555 257.899C45.0145 257.235 44.4126 256.694 43.7062 256.326C42.2186 255.346 40.7173 254.407 39.2159 253.441C39.2818 253.138 39.275 252.824 39.1959 252.524C39.1169 252.224 38.968 251.947 38.7614 251.716C36.0066 246.954 33.2518 242.22 30.497 237.444C29.2832 235.535 28.1973 233.548 27.2463 231.495C27.329 230.902 27.6045 230.529 28.2381 230.805C28.9255 231.09 29.5811 231.446 30.1939 231.868C32.4804 233.455 34.7944 235.001 37.0809 236.588C37.7592 237.142 38.6171 237.427 39.4914 237.389C42.3472 242.293 45.2122 247.198 48.0863 252.102C48.2486 252.325 48.3361 252.593 48.3361 252.868C48.3361 253.144 48.2486 253.412 48.0863 253.634C47.1359 255.028 46.4886 256.588 45.4555 257.899Z" fill="white" fill-opacity="0.5"/>
<path d="M55.5244 264.248C52.9486 268.83 50.5795 273.537 47.5492 277.843C47.136 278.423 46.8743 279.113 46.461 279.734C46.2349 280.132 46.1385 280.591 46.1854 281.046C46.2324 281.502 46.4202 281.931 46.7228 282.274C47.3197 283.169 47.7085 284.186 47.8607 285.252C48.0128 286.317 47.9243 287.403 47.6018 288.43C47.2792 289.457 46.7308 290.398 45.997 291.184C45.2632 291.969 44.3627 292.58 43.3619 292.971C42.0229 293.494 40.5598 293.609 39.1558 293.302C37.7518 292.995 36.4695 292.28 35.4694 291.246C34.491 290.194 33.8396 288.879 33.595 287.462C33.3504 286.045 33.5231 284.588 34.092 283.268C34.659 281.931 35.6257 280.802 36.8591 280.039C38.0925 279.275 39.5319 278.913 40.979 279.003C41.5098 279.103 42.0587 279.008 42.5261 278.737C42.9936 278.467 43.3488 278.037 43.5272 277.526C46.282 272.612 49.147 267.726 51.9706 262.84C52.191 262.467 52.4665 262.122 52.7144 261.777C53.3481 262.882 54.7806 263.171 55.5244 264.248ZM44.7531 286.263C44.7791 285.195 44.3823 284.16 43.6493 283.384C42.9164 282.608 41.9069 282.155 40.8413 282.122C39.7523 282.1 38.6985 282.509 37.9092 283.262C37.1199 284.014 36.6589 285.048 36.6264 286.139C36.6264 287.237 37.0618 288.29 37.8367 289.067C38.6116 289.843 39.6627 290.28 40.7586 290.28C41.8094 290.245 42.8075 289.81 43.5496 289.064C44.2918 288.318 44.7221 287.316 44.7531 286.263Z" fill="white" fill-opacity="0.5"/>
<path d="M14.9461 310.804C14.9276 310.56 14.84 310.327 14.6936 310.131C14.5472 309.935 14.3481 309.786 14.1197 309.7C12.3704 308.471 10.6348 307.215 8.89929 305.973C10.9103 302.426 12.8938 298.865 14.9461 295.331C16.6816 292.336 18.2932 289.272 20.2078 286.374C20.2556 286.676 20.3792 286.961 20.5672 287.203C20.7551 287.444 21.0011 287.634 21.2821 287.754C22.508 288.554 23.7477 289.327 24.9323 290.183C25.2231 290.271 25.4862 290.433 25.6962 290.653C25.9061 290.873 26.0558 291.144 26.1306 291.439C24.6799 294.294 23.0609 297.059 21.2821 299.72C20.7312 300.507 20.4281 301.473 19.9047 302.302C18.2794 305.172 16.7781 308.043 14.9461 310.804Z" fill="white" fill-opacity="0.5"/>
<path d="M-3.60748 24.9961C-2.61675 25.0462 -1.67331 25.4361 -0.935314 26.1003C0.910408 27.4806 2.90762 28.6951 4.80844 30.034C5.01828 30.2501 5.29668 30.3862 5.5958 30.419C5.89492 30.4517 6.1961 30.379 6.44756 30.2134C8.41724 33.0705 9.93239 36.1899 11.7368 39.1436C11.8726 39.3514 11.9391 39.597 11.9267 39.845C11.9143 40.093 11.8237 40.3307 11.6679 40.5239C9.64315 43.9193 7.81119 47.4251 5.63489 50.7515C3.38972 50.5721 1.9159 49.0676 0.386983 47.6735C1.21343 45.7964 2.37042 44.1125 3.33461 42.3182C5.07014 39.1298 5.08391 40.4134 3.33461 37.2389C1.06189 33.1395 -1.45873 29.2335 -3.60748 24.9961Z" fill="white" fill-opacity="0.5"/>
<path d="M5.38694 468.07C6.00684 468.081 6.60061 468.322 7.05359 468.746C8.22601 469.636 9.48599 470.404 10.8139 471.037C8.9131 474.433 6.95719 477.787 4.95995 481.113C3.58254 483.528 2.20514 486.041 0.827735 488.525C0.230561 489.745 -0.474745 490.909 -1.27969 492.003C-2.27588 491.558 -3.20351 490.972 -4.0345 490.264C-4.76827 489.629 -5.64902 489.187 -6.5965 488.98C-6.54724 488.805 -6.48269 488.634 -6.40364 488.47L5.38694 468.07Z" fill="white" fill-opacity="0.5"/>
<path d="M187.769 382.577C187.218 383.35 186.391 383.005 185.716 383.005C175.441 383.005 165.179 383.005 154.904 383.005C154.203 382.885 153.483 382.982 152.838 383.281C153.448 384.075 154.212 384.736 155.083 385.227C156.13 385.986 157.218 386.704 158.306 387.408C158.623 387.532 158.901 387.741 159.109 388.01C159.318 388.28 159.45 388.601 159.491 388.94L146.157 389.023C145.914 389.056 145.667 389.014 145.448 388.903C145.229 388.792 145.049 388.617 144.932 388.402C142.342 383.778 139.518 379.264 137.08 374.599C137.191 373.854 137.452 373.633 138.155 374.13C140.056 375.51 141.998 376.752 143.926 378.077C144.669 378.728 145.591 379.137 146.571 379.251C147.258 379.683 147.752 380.366 147.948 381.155C148.169 381.723 148.571 382.201 149.092 382.516C149.613 382.831 150.223 382.964 150.827 382.894C162.48 382.812 174.119 382.894 185.772 382.894C186.453 382.945 187.137 382.837 187.769 382.577Z" fill="white" fill-opacity="0.5"/>
<path d="M133.044 316.891C132.69 317.799 132.228 318.661 131.667 319.458C131.468 319.756 131.375 320.113 131.402 320.471C131.429 320.829 131.576 321.168 131.819 321.432C132.506 322.361 132.95 323.448 133.109 324.594C133.268 325.739 133.137 326.906 132.728 327.988C132.16 329.646 131.005 331.038 129.482 331.9C127.959 332.763 126.174 333.035 124.463 332.667C122.714 332.307 121.159 331.312 120.099 329.872C119.038 328.432 118.547 326.65 118.72 324.869C118.866 323.082 119.688 321.419 121.016 320.219C122.345 319.019 124.08 318.371 125.868 318.409C126.493 318.498 127.129 318.37 127.67 318.046C128.212 317.722 128.626 317.222 128.843 316.629C129.138 315.88 129.568 315.192 130.111 314.6C130.496 316.118 131.791 316.463 133.044 316.891ZM125.91 329.644C126.98 329.645 128.008 329.23 128.779 328.486C129.55 327.742 130.003 326.727 130.042 325.655C130.017 324.565 129.574 323.526 128.804 322.755C128.035 321.983 126.998 321.539 125.91 321.515C124.849 321.539 123.839 321.971 123.088 322.721C122.336 323.472 121.902 324.483 121.874 325.545C121.863 326.082 121.959 326.615 122.157 327.114C122.356 327.613 122.652 328.067 123.028 328.449C123.404 328.831 123.853 329.134 124.348 329.339C124.843 329.544 125.374 329.648 125.91 329.644Z" fill="white" fill-opacity="0.5"/>
<path d="M143.045 121.296C144.184 121.749 145.252 122.368 146.213 123.132C146.823 123.648 147.53 124.037 148.292 124.277C148.216 124.891 147.956 125.468 147.549 125.934C145.937 128.777 144.312 131.62 142.645 134.436C141.268 136.658 140.18 138.977 138.678 141.102C137.923 140.897 137.225 140.519 136.64 139.998C135.645 139.222 134.552 138.581 133.389 138.093L133.568 137.707L133.802 137.362C135.304 134.298 137.122 131.413 138.816 128.459C140.18 126.058 141.433 123.573 143.045 121.296Z" fill="white" fill-opacity="0.5"/>
<path d="M0.386894 47.6738C1.92959 49.0541 3.38963 50.5862 5.6348 50.7518C3.89927 54.299 1.7505 57.6531 -0.191633 61.0347C-1.15582 62.7462 -2.20262 64.4163 -3.22189 66.114C-3.27844 66.1704 -3.31684 66.2425 -3.33211 66.321V66.4176C-3.88576 66.4399 -4.42564 66.2414 -4.83347 65.8655C-6.10068 65.0098 -7.39543 64.2092 -8.69019 63.3949C-6.45879 59.4612 -4.24118 55.5274 -1.98224 51.6075C-1.29565 50.2367 -0.503545 48.9214 0.386894 47.6738Z" fill="white" fill-opacity="0.5"/>
<path d="M133.389 138.094C134.552 138.582 135.645 139.222 136.64 139.998C137.225 140.519 137.923 140.897 138.678 141.103C138.489 141.761 138.181 142.378 137.769 142.925C135.446 146.918 133.113 150.907 130.772 154.891C128.753 154.341 126.951 153.185 125.607 151.579C126.984 148.818 128.623 146.182 130.152 143.504C131.107 141.629 132.189 139.821 133.389 138.094Z" fill="white" fill-opacity="0.5"/>
<path d="M204.187 366.166C202.699 364.775 201.08 363.531 199.353 362.453C200.097 360.84 200.953 359.281 201.915 357.788C203.526 355.027 205.165 352.17 206.804 349.368C207.11 349.342 207.416 349.39 207.7 349.506C209.194 350.481 210.62 351.555 211.97 352.722C209.49 357.263 206.984 361.79 204.187 366.166Z" fill="white" fill-opacity="0.5"/>
<path d="M133.416 188.859C133.131 189.039 132.793 189.117 132.457 189.08C132.122 189.042 131.809 188.891 131.571 188.652C130.813 188.141 130.028 187.672 129.298 187.12C129.091 186.942 128.85 186.809 128.589 186.728C128.328 186.647 128.054 186.621 127.783 186.651C127.676 186.64 127.573 186.607 127.48 186.554C127.4 186.199 127.242 185.866 127.018 185.58C126.794 185.294 126.51 185.061 126.185 184.898C125.981 184.774 125.818 184.593 125.715 184.377C125.612 184.161 125.575 183.92 125.607 183.683C126.534 183.663 127.431 183.349 128.169 182.786C128.953 182.279 129.525 181.504 129.779 180.604C130.033 179.704 129.95 178.743 129.546 177.9C129.184 177.035 128.532 176.323 127.701 175.89C126.871 175.456 125.916 175.327 125.001 175.526C124.032 175.663 123.154 176.171 122.55 176.943C121.947 177.715 121.665 178.691 121.764 179.667C121.764 180.094 121.833 180.536 121.874 180.964C121.823 181.075 121.747 181.171 121.651 181.245C121.555 181.319 121.442 181.368 121.322 181.389C121.203 181.409 121.08 181.4 120.965 181.362C120.85 181.324 120.746 181.259 120.662 181.171C120.114 180.693 119.439 180.386 118.72 180.288C118.506 178.684 118.851 177.056 119.697 175.678C120.543 174.3 121.837 173.256 123.361 172.724C124.896 172.153 126.579 172.122 128.133 172.637C129.687 173.153 131.02 174.183 131.912 175.559C132.804 176.934 133.201 178.573 133.039 180.206C132.877 181.838 132.165 183.366 131.02 184.539C131.529 186.168 132.824 187.313 133.416 188.859Z" fill="white" fill-opacity="0.5"/>
<path d="M142.369 326.98C142.299 326.591 142.137 326.224 141.898 325.91C141.659 325.596 141.348 325.343 140.992 325.172C140.207 324.62 139.381 324.096 138.568 323.585C138.373 323.498 138.207 323.357 138.09 323.178C137.973 323 137.909 322.791 137.907 322.577C140.152 318.437 142.411 314.296 144.986 310.266C144.97 310.565 145.051 310.861 145.217 311.11C145.384 311.36 145.627 311.547 145.909 311.646C146.998 312.419 148.099 313.164 149.188 313.951C150.276 314.738 150.331 314.903 149.064 315.759C148.642 316.108 148.28 316.523 147.989 316.987C146.368 320.455 144.49 323.795 142.369 326.98Z" fill="white" fill-opacity="0.5"/>
<path d="M199.669 181.751C199.12 181.781 198.58 181.592 198.168 181.227C196.915 180.371 195.606 179.57 194.325 178.742C196.308 175.057 198.375 171.413 200.592 167.866C201.57 168.487 202.589 169.08 203.526 169.757C204.247 170.344 205.161 170.639 206.088 170.585C204.146 174.422 201.901 178.08 199.669 181.751Z" fill="white" fill-opacity="0.5"/>
<path d="M133.045 316.891C131.805 316.449 130.496 316.104 130.056 314.613C131.199 312.06 132.81 309.755 134.188 307.326C135.565 304.896 136.943 302.509 138.32 300.107C139.422 300.797 140.909 301.004 141.35 302.509C138.926 306.797 136.497 311.08 134.064 315.359C133.832 315.934 133.485 316.455 133.045 316.891Z" fill="white" fill-opacity="0.5"/>
<path d="M175.221 209.797C174.009 209.797 173.279 208.417 172.011 208.597C172.314 208.293 172.645 208.017 172.92 207.686C173.443 207.149 173.796 206.471 173.938 205.735C174.08 204.999 174.004 204.238 173.719 203.545C173.469 202.844 173.031 202.225 172.453 201.757C171.874 201.29 171.178 200.991 170.441 200.895C169.528 200.802 168.61 201.006 167.822 201.476C167.033 201.945 166.416 202.656 166.061 203.504C164.973 203.504 164.284 202.496 163.306 202.261C163.767 200.904 164.653 199.732 165.832 198.919C167.01 198.106 168.419 197.695 169.849 197.748C171.281 197.672 172.702 198.046 173.911 198.818C175.121 199.59 176.061 200.722 176.598 202.054C177.207 203.327 177.402 204.759 177.154 206.148C176.907 207.538 176.231 208.814 175.221 209.797Z" fill="white" fill-opacity="0.5"/>
<path d="M55.5244 264.249C54.7668 263.172 53.3481 262.868 52.6318 261.764C53.8914 259.212 55.2939 256.732 56.8329 254.338C57.231 253.847 57.4483 253.233 57.4483 252.599C57.4483 251.966 57.231 251.352 56.8329 250.86C56.6073 250.493 56.4182 250.105 56.2682 249.701C56.8294 249.634 57.395 249.782 57.8522 250.115C59.5998 251.18 61.2623 252.38 62.8246 253.703C62.6593 254.463 61.7777 253.938 61.4472 254.463C60.8725 254.934 60.4309 255.548 60.1662 256.243C58.6511 258.907 57.2874 261.695 55.5244 264.249Z" fill="white" fill-opacity="0.5"/>
<path d="M124.904 228.417C125.517 228.423 126.108 228.648 126.571 229.052C127.067 229.521 127.69 229.833 128.361 229.949C126.396 233.437 124.427 236.924 122.452 240.411C122.284 240.661 122.095 240.897 121.888 241.115C121.31 240.435 120.626 239.852 119.863 239.39C119.667 239.261 119.51 239.081 119.408 238.87C119.306 238.658 119.263 238.423 119.284 238.189C120.992 234.839 122.867 231.577 124.904 228.417Z" fill="white" fill-opacity="0.5"/>
<path d="M125.607 183.67C125.575 183.907 125.612 184.148 125.715 184.363C125.818 184.579 125.981 184.76 126.185 184.884C126.51 185.047 126.794 185.28 127.018 185.566C127.242 185.853 127.4 186.186 127.48 186.541C126.488 186.799 125.451 186.834 124.443 186.645C123.436 186.455 122.482 186.045 121.651 185.444C120.819 184.843 120.131 184.066 119.634 183.167C119.136 182.269 118.843 181.272 118.775 180.247C119.506 180.314 120.201 180.598 120.772 181.061C120.856 181.148 120.96 181.214 121.075 181.252C121.191 181.29 121.313 181.299 121.433 181.279C121.552 181.258 121.665 181.209 121.761 181.135C121.857 181.061 121.934 180.964 121.984 180.854C122.33 181.572 122.837 182.199 123.466 182.688C124.094 183.176 124.827 183.512 125.607 183.67Z" fill="white" fill-opacity="0.5"/>
<path d="M143.458 120.537L143.223 120.924C143.209 120.842 143.226 120.758 143.269 120.687C143.312 120.616 143.379 120.563 143.458 120.537Z" fill="white" fill-opacity="0.5"/>
<path d="M133.788 137.376L133.554 137.721C133.546 137.683 133.546 137.644 133.554 137.605C133.561 137.567 133.576 137.531 133.598 137.499C133.62 137.466 133.648 137.439 133.681 137.418C133.714 137.397 133.75 137.383 133.788 137.376Z" fill="white" fill-opacity="0.5"/>
</g>
<defs>
<clipPath id="clip0">
<rect width="463" height="508" fill="white" transform="translate(-248)"/>
</clipPath>
</defs>
</svg>
