<svg width="330" height="339" viewBox="0 0 330 339" fill="none" xmlns="http://www.w3.org/2000/svg">
<path d="M103.93 3.39649C106.911 8.64896 109.892 13.9014 112.872 19.1539C115.439 23.6503 118.034 28.1336 120.601 32.63C120.675 32.7958 120.733 32.9682 120.774 33.145C120.521 33.3042 120.219 33.3721 119.92 33.3369C119.621 33.3017 119.344 33.1655 119.137 32.9519C117.251 31.5816 115.267 30.4532 113.437 29.0429C112.706 28.3853 111.767 27.9939 110.777 27.9343C110.411 27.3634 110.032 26.8192 109.708 26.2352L100.128 9.57987C99.8656 9.36753 99.5544 9.2214 99.2214 9.15428C98.8883 9.08716 98.5436 9.10111 98.2173 9.19488C93.7134 9.14663 89.1958 9.09823 84.692 9.04998C84.4224 9.1202 84.1402 9.12964 83.8664 9.0776C83.5926 9.02556 83.3344 8.91339 83.1112 8.7495C81.5329 7.00442 79.3676 6.00912 77.5096 4.63908C77.2041 4.49768 76.939 4.28456 76.7377 4.01861C76.5364 3.75267 76.4052 3.44213 76.3558 3.11457L103.902 3.40969L103.93 3.39649Z" fill="white" fill-opacity="0.15"/>
<path d="M76.3698 3.10066C76.4192 3.42825 76.5504 3.73882 76.7517 4.00479C76.953 4.27076 77.2181 4.4839 77.5236 4.62531C79.3816 5.99549 81.5471 6.97739 83.1253 8.73615C83.3485 8.90005 83.6067 9.01223 83.8804 9.06427C84.1542 9.11632 84.4365 9.10686 84.706 9.03663C89.2098 9.08489 93.7274 9.13329 98.2313 9.18155C98.5576 9.08777 98.9023 9.07384 99.2354 9.14096C99.5684 9.20809 99.8796 9.35423 100.142 9.5666C87.7366 9.43368 75.3407 9.30086 62.954 9.16814C62.5303 9.09562 62.0941 9.16609 61.7165 9.36807C61.3389 9.57004 61.0424 9.89156 60.8753 10.2801C58.9593 9.70785 57.2412 8.6289 55.91 7.16179C55.853 7.05742 55.8213 6.94157 55.8174 6.82323C55.8071 6.77482 55.814 6.7244 55.8371 6.68041C55.8602 6.63642 55.8979 6.60152 55.9441 6.58153C56.0299 6.54667 56.1028 6.48686 56.1529 6.41014C56.203 6.33342 56.228 6.24349 56.2244 6.15246C56.2108 6.09359 56.2142 6.03217 56.2344 5.97512C56.2545 5.91808 56.2904 5.86769 56.3382 5.8296L56.6041 5.45438C56.7936 4.52472 57.737 3.9272 57.7619 2.92827L76.3833 3.12779L76.3698 3.10066Z" fill="white" fill-opacity="0.15"/>
<path d="M75.4111 190.796C76.0309 190.803 76.6516 190.728 77.2576 190.735C92.8213 190.901 108.385 191.068 123.949 191.235C124.545 191.181 125.144 191.313 125.66 191.612C126.176 191.911 126.583 192.361 126.823 192.899C134.775 206.846 142.765 220.77 150.792 234.672C151.062 235.148 151.277 235.65 151.519 236.138C150.644 236.166 149.79 235.879 149.117 235.329C146.849 233.739 144.552 232.216 142.283 230.639C141.674 230.219 141.023 229.864 140.338 229.578C139.694 229.301 139.428 229.663 139.339 230.243C139.015 229.959 138.765 229.605 138.607 229.209C133.135 219.699 127.635 210.19 122.232 200.6C121.979 200.034 121.55 199.561 121.008 199.248C120.465 198.934 119.835 198.796 119.208 198.853C100.218 198.712 81.2295 198.509 62.2416 198.243C61.4978 198.235 60.7541 198.227 60.0103 198.219C60.2998 198.049 60.6208 197.937 60.9547 197.889C61.2887 197.842 61.6289 197.86 61.9557 197.942C66.7625 197.994 71.5969 198.046 76.3762 198.097L95.1353 198.298C95.6587 198.303 96.5095 198.596 96.6399 198.017C96.7704 197.438 95.9473 197.132 95.51 196.817C93.3235 195.254 90.9975 193.852 88.8949 192.182C88.2211 191.591 87.3433 191.273 86.4392 191.292C83.3402 191.259 80.255 191.226 77.156 191.193C76.8532 191.253 76.5405 191.249 76.2394 191.181C75.9382 191.113 75.6557 190.981 75.4111 190.796Z" fill="white" fill-opacity="0.15"/>
<path d="M93.7575 310.262C93.2066 310.256 92.6418 310.25 92.0909 310.244C80.0531 310.115 68.0154 309.986 55.9914 309.857C55.3941 309.904 54.797 309.764 54.2857 309.458C53.7745 309.152 53.3753 308.695 53.1453 308.152C47.35 297.965 41.4858 287.776 35.6485 277.642C35.3514 277.112 35.0959 276.556 34.8263 276.026C35.4493 275.956 36.0766 276.117 36.5845 276.477C38.2662 277.602 39.9341 278.727 41.5878 279.893C43.1546 281.069 44.7992 282.142 46.5108 283.105C46.9079 283.311 47.3049 283.532 47.5869 282.954C48.0159 283.39 48.3562 283.902 48.5894 284.463C51.6837 289.829 54.7921 295.169 57.8034 300.574C58.0368 301.115 58.4397 301.569 58.9539 301.871C59.4681 302.173 60.0668 302.306 60.6635 302.252C73.1696 302.386 85.6757 302.52 98.1818 302.654C98.8566 302.661 99.5591 302.669 100.22 302.676C99.6747 302.974 99.0355 303.064 98.4266 302.927L88.0141 302.815C87.5871 302.81 87.1464 302.806 86.7194 302.801C86.5715 302.754 86.4118 302.755 86.2646 302.805C86.1174 302.854 85.9907 302.949 85.9036 303.076C85.8611 303.254 85.8836 303.442 85.9674 303.605C86.0511 303.769 86.1907 303.899 86.3619 303.972C86.594 304.163 86.8817 304.301 87.1416 304.466C89.0005 305.755 90.8592 307.071 92.732 308.347C93.0997 308.504 93.4017 308.78 93.5881 309.128C93.7745 309.476 93.8343 309.876 93.7575 310.262Z" fill="white" fill-opacity="0.15"/>
<path d="M39.5939 112.309C37.5441 115.757 35.467 119.191 33.4583 122.666C32.9945 123.485 31.9419 124 32.0536 125.095C32.1653 126.19 33.1816 126.457 33.7382 127.192C35.3883 129.146 36.4226 131.529 36.7148 134.049C37.007 136.569 36.5446 139.119 35.3838 141.386C34.6295 142.771 33.6527 144.028 32.4907 145.108C32.3309 145.22 32.1975 145.364 32.0993 145.531C32.0011 145.698 31.9404 145.883 31.9213 146.075C31.9022 146.266 31.9251 146.46 31.9885 146.642C32.0519 146.824 32.1544 146.991 32.2889 147.131C34.8973 151.614 37.4641 156.111 40.0448 160.607C40.7068 161.762 41.3959 162.957 41.9752 164.124C41.307 164.154 40.6531 163.93 40.1502 163.497C39.2722 162.866 38.359 162.284 37.4147 161.753C36.6757 161.327 36.6278 161.907 36.6221 162.42C34.4146 159.048 32.5676 155.464 30.5262 152.013C29.9312 151.021 29.3364 150.016 28.8107 148.984C28.7469 148.806 28.646 148.644 28.5145 148.507C28.3829 148.37 28.2236 148.262 28.0467 148.188C27.8698 148.115 27.6793 148.079 27.4874 148.083C27.2955 148.086 27.1064 148.129 26.9322 148.208C23.9893 149.074 20.826 148.867 18.0264 147.626C16.1322 146.843 14.4511 145.636 13.117 144.103C11.7829 142.57 10.8328 140.752 10.3425 138.795C9.95823 137.441 10.3577 137.445 8.51205 137.426L-29.6122 137.017C-29.922 137.03 -30.2307 137.063 -30.5362 137.115L-30.2144 136.673L-5.3538 136.94C-5.17104 136.963 -4.98611 136.965 -4.80288 136.945C-4.62983 136.921 -4.46953 136.842 -4.34579 136.721C-4.31457 136.669 -4.29457 136.612 -4.28707 136.553C-4.27957 136.494 -4.28474 136.433 -4.30222 136.376C-4.31971 136.319 -4.34913 136.266 -4.38865 136.22C-4.42817 136.174 -4.47693 136.137 -4.53181 136.111C-5.46083 135.426 -6.38985 134.741 -7.26287 133.976C-8.13589 133.21 -9.5194 133.749 -10.6753 133.642C-11.2951 133.636 -11.9149 133.629 -12.5347 133.622C-13.2003 133.762 -13.8951 133.643 -14.4732 133.291C-11.4293 133.324 -8.39848 133.289 -5.35445 133.308L8.22591 133.453C9.96133 133.472 9.96135 133.472 10.4617 131.844C11.3133 129.021 13.1049 126.558 15.5508 124.85C17.9967 123.141 20.9559 122.284 23.9564 122.416C25.0762 122.444 26.1846 122.643 27.242 123.005C27.4024 123.09 27.5799 123.141 27.7622 123.153C27.9444 123.165 28.1272 123.139 28.298 123.075C28.4688 123.012 28.6236 122.913 28.7517 122.785C28.8798 122.657 28.9783 122.504 29.0403 122.335C30.9502 119.075 32.956 115.856 34.8934 112.596C35.203 111.937 35.6191 111.33 36.1257 110.801C36.4481 110.758 36.7759 110.782 37.0881 110.872C37.4003 110.961 37.6898 111.114 37.9382 111.32C38.4645 111.689 39.0179 112.02 39.5939 112.309ZM32.8449 135.621C32.8639 134.404 32.6372 133.196 32.1778 132.066C31.7184 130.936 31.0353 129.906 30.1679 129.036C29.3006 128.166 28.2661 127.472 27.1241 126.996C25.9821 126.519 24.7551 126.269 23.5139 126.259C21.0064 126.236 18.5907 127.183 16.7918 128.896C14.9929 130.608 13.9562 132.947 13.9069 135.404C13.8434 136.652 14.0374 137.9 14.4775 139.073C14.9175 140.245 15.5945 141.319 16.4678 142.229C17.3411 143.139 18.3928 143.868 19.56 144.37C20.7273 144.873 21.986 145.139 23.2607 145.154C24.5355 145.168 25.8002 144.931 26.9791 144.455C28.158 143.979 29.2269 143.275 30.1217 142.385C31.0165 141.495 31.7189 140.437 32.1868 139.275C32.6547 138.113 32.8785 136.87 32.8449 135.621Z" fill="white" fill-opacity="0.15"/>
<path d="M44.7292 96.5542C45.8233 94.3779 47.0569 92.2717 48.4226 90.2483C48.6346 89.9626 48.7506 89.6194 48.7545 89.2662C48.7585 88.9131 48.6502 88.5675 48.4447 88.2774C45.4715 83.1556 42.4983 78.0474 39.6083 72.8861C39.4013 72.3557 39.0198 71.9082 38.5241 71.6143C38.0284 71.3204 37.4468 71.197 36.8715 71.2636C35.891 71.2851 34.9165 71.109 34.0084 70.7462C33.1003 70.3834 32.2778 69.8417 31.592 69.1547C30.9062 68.4676 30.3717 67.6499 30.0215 66.752C29.6714 65.8542 29.5131 64.8955 29.5564 63.9353C29.6054 62.9755 29.8505 62.0351 30.277 61.1698C30.7035 60.3045 31.3029 59.5319 32.0395 58.8977C32.7762 58.2635 33.6352 57.7807 34.5658 57.4778C35.4963 57.1749 36.4793 57.0581 37.4567 57.1344C38.666 57.2296 39.8309 57.6238 40.8426 58.2801C41.8542 58.9364 42.6796 59.8334 43.2415 60.8872C43.8035 61.9411 44.0836 63.1173 44.0559 64.3061C44.0281 65.4949 43.6933 66.6574 43.0827 67.6849C42.692 68.2049 42.4847 68.8354 42.4924 69.481C42.5001 70.1267 42.7223 70.7523 43.1253 71.2631C45.762 75.6657 48.274 80.1479 50.8277 84.5901C51.1291 84.9999 51.3526 85.4597 51.4875 85.9473C51.5016 86.1743 51.5651 86.3956 51.6738 86.5965C51.7824 86.7974 51.9337 86.9732 52.1175 87.112C52.3012 87.2508 52.5131 87.3495 52.739 87.4014C52.9649 87.4532 53.1995 87.4571 53.427 87.4127C59.7535 87.4805 66.08 87.5482 72.4065 87.616C72.7675 87.6514 73.1302 87.5675 73.4369 87.3775C73.7436 87.1875 73.9766 86.9024 74.0988 86.5676C74.759 85.1741 75.8673 84.0313 77.2538 83.3145C78.6403 82.5978 80.2284 82.3466 81.7745 82.5995C83.5195 82.8618 85.1064 83.7406 86.2359 85.0705C87.3654 86.4003 87.9595 88.0891 87.9063 89.8187C87.853 91.5482 87.156 93.199 85.9468 94.4597C84.7375 95.7204 83.0995 96.5041 81.3415 96.6629C79.822 96.876 78.2733 96.5855 76.9416 95.8374C75.6098 95.0893 74.5712 93.9266 73.9907 92.5338C73.8743 92.1938 73.6423 91.9032 73.3336 91.7107C73.0248 91.5182 72.658 91.4353 72.2944 91.4761C65.8669 91.4072 59.4762 91.3388 53.1221 91.2707C52.8094 91.2576 52.5016 91.3493 52.2492 91.5307C51.9967 91.712 51.8149 91.9722 51.7335 92.2684C50.6172 94.4369 49.3464 96.5257 47.9305 98.5191C46.6812 98.1412 46.0351 96.7977 44.7292 96.5542ZM80.6659 85.6523C79.6026 85.6398 78.5754 86.0295 77.7978 86.7403C77.0201 87.4511 76.552 88.4284 76.4907 89.4689C76.5033 90.5357 76.9351 91.5566 77.6963 92.3192C78.4575 93.0818 79.4894 93.5273 80.5773 93.563C81.6732 93.5747 82.7289 93.1593 83.5123 92.4081C84.2957 91.6569 84.7426 90.6315 84.7546 89.5574C84.7497 89.0396 84.6407 88.5279 84.4339 88.0514C84.2271 87.5749 83.9266 87.143 83.5494 86.7804C83.1723 86.4178 82.7259 86.1315 82.2359 85.938C81.7459 85.7445 81.2217 85.6475 80.6934 85.6526L80.6659 85.6523ZM36.7824 68.144C37.8454 68.1553 38.8695 67.7524 39.6294 67.0237C40.3893 66.2951 40.8228 65.3004 40.8344 64.2586C40.8461 63.2167 40.435 62.213 39.6916 61.4683C38.9482 60.7235 37.9334 60.2987 36.8704 60.2873C36.3429 60.2834 35.8198 60.3817 35.331 60.5763C34.8423 60.771 34.3976 61.0583 34.0224 61.4218C33.6472 61.7853 33.3489 62.2178 33.1446 62.6945C32.9403 63.1713 32.8341 63.6828 32.8319 64.1999C32.8242 64.7155 32.9216 65.2274 33.1184 65.7057C33.3152 66.1839 33.6074 66.6188 33.9779 66.9849C34.3484 67.3511 34.7898 67.641 35.2762 67.8377C35.7625 68.0345 36.284 68.1341 36.8101 68.1307L36.7824 68.144Z" fill="white" fill-opacity="0.15"/>
<path d="M82.5926 80.8934C79.6176 80.8616 76.6426 80.8297 73.6806 80.8654C68.7223 80.8123 63.7639 80.7592 58.8055 80.7061C58.2642 80.7476 57.7232 80.6213 57.2591 80.3449C56.795 80.0686 56.4313 79.6563 56.2194 79.1663C49.3202 67.0945 42.3887 55.0403 35.4248 43.0038C35.0874 42.583 34.9068 42.0619 34.9128 41.5267C34.9188 40.9915 35.1111 40.4744 35.4578 40.0609C35.8632 39.5252 36.2141 38.9485 36.5921 38.399C37.8163 38.6064 38.9372 39.2018 39.7827 40.0938C40.4187 40.6745 41.2453 41.0137 42.1137 41.0503C42.0643 41.41 42.0959 41.7758 42.2062 42.1222C42.3166 42.4686 42.503 42.7871 42.7525 43.0553C44.9129 46.9397 47.2397 50.7314 49.3168 54.6825C50.7741 57.3983 52.3829 60.1157 54.033 62.8336C56.0896 66.1499 57.9929 69.6265 59.8562 72.9948C60.0833 73.5107 60.4691 73.9443 60.9597 74.2352C61.4503 74.526 62.0212 74.6595 62.593 74.6172C74.8649 74.7487 87.1368 74.8801 99.4087 75.0116C99.1263 75.1976 98.806 75.3212 98.47 75.3735C98.134 75.4259 97.7904 75.4058 97.4631 75.3148L78.3321 75.1099C78.0148 75.024 77.6826 75.0042 77.357 75.0519C77.0315 75.0995 76.7197 75.2135 76.4418 75.3866C76.4986 75.6361 76.6075 75.8713 76.7617 76.0774C76.9158 76.2836 77.1119 76.4561 77.3376 76.5843C78.4854 77.4066 79.6335 78.2155 80.8236 78.9573C81.2447 79.134 81.6212 79.3989 81.9268 79.7334C82.2324 80.0678 82.4597 80.4638 82.5926 80.8934Z" fill="white" fill-opacity="0.15"/>
<path d="M76.3909 198.017C71.5841 197.965 66.7497 197.913 61.9704 197.862C61.6436 197.78 61.3034 197.761 60.9695 197.809C60.6355 197.856 60.3145 197.968 60.025 198.138C58.1037 201.196 56.1003 204.199 54.3155 207.352C51.6316 212.076 48.7004 216.743 45.8941 221.33C45.2747 222.515 44.5523 223.646 43.7349 224.709C41.3225 223.845 39.1528 222.434 37.4033 220.591C38.8125 217.757 40.5913 215.13 42.2195 212.42C46.3183 205.592 50.4856 198.792 54.5569 191.95C54.7675 191.457 55.1426 191.048 55.6208 190.791C56.0991 190.534 56.6523 190.443 57.1899 190.534C58.5659 190.67 59.9438 190.631 61.3208 190.673C62.5309 191.107 63.8368 191.219 65.1053 190.997C66.7718 191.015 68.2594 191.03 69.372 192.541C69.8624 192.999 70.4199 193.383 71.026 193.679C72.6252 194.79 74.2243 195.914 75.8374 197.012C76.0121 197.116 76.1554 197.264 76.2527 197.441C76.3499 197.617 76.3976 197.816 76.3909 198.017Z" fill="white" fill-opacity="0.15"/>
<path d="M47.5584 283.048C47.2764 283.626 46.8794 283.406 46.4823 283.199C44.7707 282.236 43.1261 281.163 41.5593 279.987C39.9056 278.822 38.2376 277.697 36.5559 276.572C36.0481 276.211 35.4208 276.05 34.7978 276.121C32.595 272.33 30.3782 268.553 28.1753 264.763C25.4718 260.17 22.9199 255.566 20.2436 251.001C19.9904 250.669 19.8557 250.264 19.8604 249.85C19.865 249.435 20.0087 249.033 20.2693 248.706C22.1188 245.918 23.64 242.923 25.5853 240.19C26.0729 240.247 26.5292 240.455 26.8873 240.785C28.5684 241.964 30.2913 243.103 31.9863 244.268C31.1959 245.842 30.3142 247.37 29.3454 248.844C28.6141 250.186 28.6141 250.186 29.4824 251.37C29.8488 251.86 30.1182 252.403 30.443 252.92C33.406 257.717 35.8427 262.766 38.8054 267.59C41.1723 271.491 43.5115 275.404 45.5593 279.517C46.0677 280.773 46.7397 281.96 47.5584 283.048Z" fill="white" fill-opacity="0.15"/>
<path d="M157.286 256.236C154.477 261.026 151.669 265.788 148.669 270.455C147.435 272.386 146.406 274.481 145.2 276.425C142.885 280.14 140.899 284.061 138.188 287.556C137.931 287.98 137.723 288.431 137.567 288.9C137.495 288.61 137.348 288.344 137.141 288.126C136.933 287.909 136.672 287.748 136.382 287.658C135.207 286.809 133.976 286.039 132.759 285.243C132.479 285.123 132.235 284.935 132.05 284.697C131.865 284.458 131.744 284.178 131.7 283.882C132.149 283.09 132.571 282.285 133.104 281.507C137.164 274.782 141.23 268.075 145.299 261.386C147.236 258.221 149.035 254.973 151.136 251.904C152.627 252.851 154.118 253.799 155.594 254.773C156.271 255.119 156.851 255.621 157.286 256.236Z" fill="white" fill-opacity="0.15"/>
<path d="M93.7575 310.261C93.7946 309.899 93.7139 309.534 93.527 309.22C93.34 308.905 93.0563 308.656 92.7164 308.509C90.8436 307.233 88.9848 305.931 87.126 304.628C86.88 304.45 86.5784 304.325 86.3464 304.134C86.1751 304.06 86.0355 303.931 85.9518 303.767C85.868 303.603 85.8455 303.416 85.888 303.238C85.9751 303.111 86.1018 303.016 86.249 302.966C86.3962 302.917 86.5559 302.916 86.7038 302.963C87.1308 302.968 87.5715 302.972 87.9985 302.977L98.4111 303.088C99.0199 303.225 99.6591 303.136 100.205 302.838L107.807 302.919L120.204 302.971C121.926 304.204 123.648 305.465 125.383 306.672C125.611 306.758 125.808 306.907 125.953 307.1C126.097 307.292 126.182 307.522 126.198 307.76C124.787 310.756 124.787 310.756 121.426 310.706L95.7942 310.432C95.1065 310.343 94.4321 310.296 93.7575 310.261Z" fill="white" fill-opacity="0.15"/>
<path d="M50.4995 182.78C48.5768 185.959 46.7359 189.206 44.6899 192.317C42.1955 196.111 40.1801 200.18 37.6723 203.947C37.3236 204.348 37.1351 204.858 37.1419 205.385C37.1487 205.912 37.3502 206.418 37.7091 206.81C38.5475 207.923 39.002 209.27 39.0063 210.654C39.0106 212.038 38.5646 213.387 37.7331 214.505C36.9649 215.653 35.8741 216.557 34.5924 217.11C33.3108 217.662 31.8933 217.839 30.5114 217.619C29.1295 217.398 27.8425 216.79 26.8058 215.868C25.7692 214.945 25.0275 213.748 24.6703 212.421C24.3758 211.375 24.3341 210.276 24.5486 209.212C24.7632 208.147 25.228 207.147 25.9061 206.289C26.5843 205.431 27.4572 204.74 28.4554 204.271C29.4537 203.802 30.5498 203.567 31.6567 203.585C32.1919 203.64 32.7309 203.526 33.1949 203.259C33.6589 202.991 34.0235 202.586 34.2354 202.101C38.1799 195.514 42.1792 188.955 46.1375 182.368C46.413 182.084 46.622 181.744 46.7498 181.372C46.8777 181 46.9214 180.606 46.8779 180.216C48.2647 180.633 49.5151 181.401 50.5033 182.442C50.4887 182.554 50.4874 182.667 50.4995 182.78ZM35.724 210.636C35.7284 209.598 35.3145 208.599 34.5722 207.858C33.8299 207.117 32.8193 206.693 31.7598 206.678C30.664 206.667 29.6082 207.082 28.8248 207.833C28.0414 208.584 27.5945 209.61 27.5825 210.684C27.6153 211.724 28.0474 212.714 28.7925 213.455C29.5376 214.196 30.5407 214.635 31.6013 214.683C32.6949 214.68 33.743 214.253 34.5158 213.494C35.2885 212.736 35.723 211.708 35.724 210.636Z" fill="white" fill-opacity="0.15"/>
<path d="M82.5926 80.8937C82.4633 80.4592 82.2376 80.0579 81.9319 79.7186C81.6262 79.3792 81.2478 79.1102 80.8239 78.9306C79.6339 78.1753 78.472 77.3797 77.3379 76.5575C77.1122 76.4294 76.9161 76.2568 76.762 76.0506C76.6078 75.8445 76.4989 75.6092 76.4421 75.3598C76.72 75.1867 77.0318 75.0727 77.3573 75.025C77.6829 74.9774 78.0151 74.9971 78.3324 75.083L97.4634 75.288C97.7907 75.379 98.1343 75.399 98.4703 75.3467C98.8063 75.2943 99.1267 75.1708 99.409 74.9848L105.26 65.475C106.532 66.2852 107.831 67.0822 109.089 67.9327C109.493 68.3047 110.03 68.5047 110.584 68.4888C108.377 72.5156 105.812 76.444 103.467 80.4423C103.327 80.7086 103.107 80.9264 102.837 81.066C102.567 81.2056 102.259 81.2603 101.956 81.2227L82.5926 80.8937Z" fill="white" fill-opacity="0.15"/>
<path d="M157.286 256.236C156.852 255.582 156.256 255.046 155.554 254.679C154.077 253.704 152.586 252.77 151.096 251.809C151.165 251.513 151.161 251.206 151.086 250.911C151.01 250.617 150.864 250.345 150.66 250.117C147.957 245.43 145.255 240.77 142.552 236.07C141.36 234.19 140.296 232.234 139.367 230.216C139.456 229.637 139.736 229.275 140.366 229.552C141.051 229.838 141.702 230.193 142.31 230.612C144.579 232.189 146.876 233.726 149.145 235.303C149.818 235.852 150.672 236.14 151.547 236.112C154.349 240.939 157.16 245.767 159.98 250.595C160.14 250.814 160.225 251.077 160.222 251.346C160.219 251.616 160.128 251.877 159.963 252.093C158.998 253.446 158.333 254.965 157.286 256.236Z" fill="white" fill-opacity="0.15"/>
<path d="M31.9312 244.268C30.2223 243.116 28.5133 241.963 26.8322 240.784C26.4741 240.455 26.0179 240.246 25.5303 240.19C26.4615 238.215 27.7213 236.419 28.8442 234.554C31.3291 230.382 33.8551 226.224 36.3674 222.065C36.6072 221.509 36.9543 221.004 37.3896 220.577C39.1392 222.42 41.3088 223.832 43.7213 224.696C39.9688 231.352 35.998 237.831 31.9312 244.268Z" fill="white" fill-opacity="0.15"/>
<path d="M50.4995 182.78C50.4874 182.668 50.4887 182.555 50.5033 182.443C56.2605 182.504 62.0039 182.566 67.7611 182.628C68.6426 182.637 70.0558 183.138 70.3262 182.358C70.6824 181.309 69.0447 181.17 68.4464 180.475C68.3414 180.413 68.2409 180.344 68.1457 180.269C67.8776 179.899 67.5045 179.615 67.0727 179.452C66.6409 179.289 66.1697 179.254 65.7178 179.352C61.2644 179.304 56.8111 179.257 52.3578 179.209C52.0582 179.28 51.7468 179.288 51.4437 179.234C51.1407 179.179 50.8526 179.063 50.5981 178.893C60.1567 178.995 69.7016 179.098 79.2602 179.2C79.8303 179.297 80.4171 179.198 80.9219 178.921C81.4266 178.643 81.8187 178.204 82.0322 177.677C82.7987 176.306 84.0214 175.233 85.4967 174.637C86.972 174.041 88.6111 173.958 90.141 174.403C91.7033 174.801 93.0847 175.7 94.0651 176.957C95.0455 178.214 95.5685 179.757 95.5508 181.339C95.5331 182.921 94.9757 184.452 93.9674 185.688C92.9591 186.923 91.5578 187.793 89.9869 188.158C88.4405 188.555 86.802 188.419 85.3452 187.775C83.8883 187.13 82.7012 186.015 81.9821 184.616C81.7821 184.085 81.3991 183.639 80.8993 183.355C80.3994 183.071 79.8142 182.967 79.2445 183.061C69.6164 183.012 60.0581 182.883 50.4995 182.78ZM88.1801 177.298C87.6519 177.292 87.1278 177.388 86.6376 177.581C86.1475 177.774 85.7009 178.06 85.3233 178.422C84.9457 178.784 84.6446 179.215 84.4372 179.691C84.2297 180.167 84.1199 180.679 84.1141 181.196C84.1083 181.714 84.2066 182.227 84.4034 182.708C84.6002 183.188 84.8915 183.626 85.2609 183.996C85.6302 184.366 86.0703 184.661 86.5561 184.864C87.0418 185.068 87.5636 185.175 88.0918 185.181C88.6399 185.208 89.1877 185.123 89.7008 184.932C90.214 184.742 90.6814 184.449 91.0736 184.073C91.4659 183.697 91.7746 183.245 91.9803 182.747C92.186 182.248 92.2844 181.713 92.2691 181.176C92.2484 180.132 91.8062 179.139 91.0396 178.415C90.2731 177.69 89.2447 177.293 88.1799 177.311L88.1801 177.298Z" fill="white" fill-opacity="0.15"/>
<path d="M126.199 307.652C126.183 307.414 126.098 307.184 125.954 306.991C125.81 306.798 125.612 306.65 125.385 306.563C123.649 305.343 121.927 304.096 120.205 302.863C122.255 299.415 124.278 295.953 126.368 292.52C128.137 289.609 129.782 286.629 131.728 283.815C131.772 284.111 131.893 284.392 132.078 284.63C132.263 284.868 132.507 285.056 132.787 285.176C134.004 285.973 135.235 286.742 136.41 287.591C136.7 287.681 136.962 287.842 137.169 288.059C137.377 288.277 137.523 288.543 137.595 288.833C136.113 291.609 134.464 294.296 132.656 296.88C132.096 297.644 131.783 298.585 131.25 299.39C129.594 302.18 128.061 304.972 126.199 307.652Z" fill="white" fill-opacity="0.15"/>
<path d="M110.777 27.9199C111.767 27.9795 112.706 28.371 113.437 29.0285C115.267 30.3983 117.251 31.6076 119.137 32.9374C119.345 33.151 119.622 33.2871 119.92 33.3224C120.219 33.3576 120.521 33.2897 120.774 33.1304C122.712 35.9459 124.193 39.013 125.965 41.9213C126.099 42.1259 126.163 42.3668 126.148 42.6093C126.132 42.8517 126.039 43.0832 125.881 43.2705C123.819 46.5696 121.949 49.9789 119.737 53.2089C117.494 53.0094 116.036 51.5222 114.523 50.1423C115.37 48.3153 116.545 46.6808 117.529 44.9362C119.299 41.8364 119.299 43.0919 117.584 39.9683C115.357 35.9346 112.879 32.0873 110.777 27.9199Z" fill="white" fill-opacity="0.15"/>
<path d="M55.7765 6.76898C55.7804 6.8873 55.8121 7.00315 55.8691 7.1075C57.2003 8.57446 58.9184 9.65332 60.8345 10.2255C60.5675 10.6952 60.3278 11.1922 60.0334 11.6481L48.4852 30.5342C47.7426 30.3102 47.0567 29.9348 46.4726 29.4326C45.4938 28.6594 44.4059 28.0292 43.2427 27.5618L43.4258 27.1992L43.6918 26.824C45.8031 22.7962 48.2695 19.0423 50.5996 15.1654C52.2841 12.3481 53.8318 9.44841 55.7765 6.76898Z" fill="white" fill-opacity="0.15"/>
<path d="M76.3909 198.017C76.3922 197.806 76.3333 197.598 76.221 197.418C76.1086 197.238 75.9472 197.092 75.7549 196.997C74.1417 195.9 72.5427 194.776 70.9435 193.665C70.3374 193.368 69.7799 192.985 69.2895 192.527C68.1764 191.057 66.6898 190.96 65.0227 190.982C63.7542 191.204 62.4483 191.092 61.2383 190.658C65.9643 190.547 70.6741 190.651 75.3971 190.81C75.649 190.986 75.9365 191.106 76.2402 191.163C76.5439 191.22 76.8564 191.212 77.1566 191.139C80.2556 191.173 83.3408 191.206 86.4397 191.239C87.3439 191.22 88.2217 191.538 88.8955 192.129C90.9981 193.799 93.3241 195.201 95.5106 196.763C95.9479 197.079 96.883 197.224 96.6405 197.964C96.398 198.704 95.6593 198.25 95.1359 198.245L76.3909 198.017Z" fill="white" fill-opacity="0.15"/>
<path d="M50.5847 178.866C50.8392 179.036 51.1273 179.153 51.4304 179.207C51.7335 179.261 52.0448 179.253 52.3444 179.182C56.7977 179.23 61.251 179.277 65.7043 179.325C66.1562 179.227 66.6274 179.262 67.0592 179.425C67.491 179.588 67.8642 179.873 68.1322 180.242C68.2275 180.318 68.328 180.386 68.433 180.448C69.0451 181.143 70.6689 181.282 70.3128 182.331C70.0561 183.112 68.6429 182.61 67.7477 182.601C61.9905 182.539 56.2471 182.478 50.4899 182.416C49.5017 181.375 48.2514 180.607 46.8645 180.19C44.7517 176.967 42.9438 173.573 41.0528 170.231C39.5432 167.876 38.1679 165.441 36.9332 162.937L36.6898 162.529C36.6712 162.525 36.6538 162.517 36.6391 162.505C36.6244 162.493 36.6127 162.478 36.6049 162.461C36.5971 162.444 36.5934 162.425 36.5941 162.406C36.5948 162.388 36.6 162.369 36.6091 162.353C36.6149 161.84 36.6212 161.273 37.4017 161.686C38.346 162.217 39.2592 162.8 40.1372 163.43C40.64 163.863 41.2941 164.087 41.9622 164.057L50.5847 178.866Z" fill="white" fill-opacity="0.15"/>
<path d="M114.523 50.1431C116.05 51.5096 117.493 53.0236 119.737 53.2097C117.962 56.6603 115.777 59.9176 113.798 63.204C112.815 64.8676 111.75 66.4897 110.712 68.1392C110.655 68.1938 110.616 68.2639 110.6 68.3405L110.599 68.435C110.045 68.4509 109.507 68.2509 109.103 67.879C107.846 67.0284 106.56 66.2316 105.274 65.4213C107.548 61.598 109.809 57.7745 112.111 53.965C112.812 52.6316 113.619 51.3538 114.523 50.1431Z" fill="white" fill-opacity="0.15"/>
<path d="M43.2428 27.5615C44.406 28.0289 45.4939 28.659 46.4727 29.4322C47.0568 29.9344 47.7427 30.3098 48.4853 30.5338C48.406 30.9547 48.2164 31.3481 47.9353 31.6755L42.1274 41.064C41.2589 41.0274 40.4323 40.6882 39.7963 40.1075C38.9508 39.2155 37.8299 38.6201 36.6058 38.4127C38.7267 34.7631 40.9031 31.0737 43.2428 27.5615Z" fill="white" fill-opacity="0.15"/>
<path d="M44.7292 96.5543C46.1038 96.812 46.6951 98.1414 47.9587 98.4655C45.248 103.121 42.5373 107.777 39.5389 112.295C38.9669 111.996 38.4182 111.656 37.8973 111.278C37.649 111.072 37.3594 110.92 37.0472 110.83C36.735 110.741 36.4072 110.717 36.0848 110.759C38.3074 106.638 40.886 102.71 43.2866 98.6855C43.6573 97.9091 44.1435 97.1908 44.7292 96.5543Z" fill="white" fill-opacity="0.15"/>
<path d="M43.7056 26.8242L43.4397 27.1998C43.4245 27.1154 43.4439 27.0286 43.4937 26.9582C43.5436 26.8878 43.6197 26.8396 43.7056 26.8242Z" fill="white" fill-opacity="0.15"/>
<path d="M110.613 68.3406C110.629 68.264 110.668 68.1939 110.725 68.1394L110.723 68.2743L110.613 68.3406Z" fill="white" fill-opacity="0.15"/>
<path d="M56.1835 6.09819C56.1871 6.18944 56.1622 6.27958 56.1121 6.35648C56.0619 6.43338 55.9891 6.49335 55.9032 6.52829C55.8952 6.43629 55.9184 6.34427 55.969 6.26651C56.0197 6.18876 56.0951 6.12959 56.1835 6.09819Z" fill="white" fill-opacity="0.15"/>
<path d="M56.5906 5.42759L56.3381 5.83036C56.3263 5.7876 56.3235 5.74294 56.3299 5.69909C56.3364 5.65524 56.3519 5.61314 56.3756 5.57541C56.3992 5.53767 56.4305 5.50509 56.4675 5.47967C56.5045 5.45425 56.5464 5.43652 56.5906 5.42759Z" fill="white" fill-opacity="0.15"/>
<path d="M36.6755 162.569L36.9189 162.978C36.8399 162.943 36.774 162.885 36.7303 162.812C36.6867 162.739 36.6675 162.654 36.6755 162.569Z" fill="white" fill-opacity="0.15"/>
</svg>
