<svg width="427" height="508" viewBox="0 0 427 508" fill="none" xmlns="http://www.w3.org/2000/svg">
<g clip-path="url(#clip0)">
<path d="M391.458 120.537C392.242 118.941 393.111 117.389 394.061 115.886C394.156 115.727 394.295 115.599 394.461 115.518C394.628 115.437 394.814 115.406 394.998 115.43H395.92C410.117 115.43 424.309 115.43 438.496 115.43C438.974 115.368 439.459 115.457 439.883 115.685C440.308 115.913 440.651 116.267 440.865 116.7C447.945 129.085 455.057 141.452 462.201 153.801C462.297 154.277 462.573 154.698 462.972 154.974V155.719C462.642 155.719 462.642 155.982 462.518 156.189C459.763 161.02 457.008 165.933 454.061 170.668C453.133 170.722 452.219 170.426 451.499 169.839C450.562 169.149 449.543 168.57 448.565 167.948C450.493 164.125 452.793 160.509 454.928 156.81C455.243 156.369 455.413 155.841 455.413 155.298C455.413 154.756 455.243 154.228 454.928 153.787C449.051 143.665 443.216 133.543 437.422 123.422C437.186 122.899 436.795 122.463 436.301 122.174C435.808 121.884 435.236 121.756 434.667 121.807C423 121.807 411.334 121.807 399.653 121.807C399.157 121.807 398.661 121.807 398.166 121.807C397.931 121.807 397.615 121.807 397.546 122.083C397.38 122.98 396.485 123.463 396.292 124.305C395.53 124.065 394.823 123.676 394.212 123.159C393.252 122.396 392.184 121.777 391.044 121.324L391.223 120.937L391.458 120.537Z" fill="white" fill-opacity="0.5"/>
<path d="M0 135.513C0.238715 135.482 0.462014 135.377 0.639478 135.214C0.816943 135.051 0.939946 134.837 0.991731 134.602C1.57995 133.483 2.2474 132.409 2.98896 131.386C3.00202 131.629 3.07895 131.864 3.212 132.068C3.34504 132.271 3.52946 132.436 3.74654 132.545C4.6694 133.111 5.55093 133.76 6.50134 134.34C6.8007 134.486 7.06144 134.701 7.26245 134.967C7.46346 135.233 7.59909 135.543 7.65835 135.872C9.42651 139.479 11.3852 142.99 13.5261 146.389C16.6528 151.634 19.38 157.1 22.6583 162.248C23.9255 164.236 25.0549 166.306 26.1706 168.376C26.3378 168.734 26.6123 169.029 26.9556 169.222C27.2989 169.416 27.6939 169.496 28.0852 169.453C40.1054 169.453 52.1209 169.453 64.1319 169.453C64.4338 169.525 64.75 169.508 65.0429 169.405C65.3358 169.303 65.5932 169.118 65.7847 168.873C65.9539 169.594 66.3928 170.221 67.0106 170.626C68.2037 171.371 69.3284 172.221 70.3715 173.166C70.3794 173.225 70.3794 173.286 70.3715 173.345C69.1318 175.775 69.1318 175.775 66.4872 175.775C52.7132 175.775 39.0494 175.775 25.3304 175.775C24.6743 175.846 24.0124 175.708 23.4388 175.381C22.8651 175.054 22.4089 174.554 22.1348 173.953C15.2387 161.862 8.29655 149.798 1.30853 137.763C1.21562 137.433 1.05488 137.126 0.836643 136.862C0.618405 136.598 0.347495 136.383 0.0413204 136.23V135.513H0Z" fill="white" fill-opacity="0.5"/>
<path d="M237.271 0C240.311 5.33696 243.35 10.6739 246.39 16.0109C249.007 20.5795 251.651 25.1343 254.268 29.7029C254.345 29.8715 254.405 30.0472 254.448 30.2274C254.196 30.393 253.895 30.4657 253.596 30.433C253.297 30.4002 253.018 30.2641 252.808 30.048C250.908 28.6677 248.91 27.5359 247.065 26.1143C246.327 25.45 245.383 25.0602 244.393 25.0101C244.021 24.4304 243.635 23.8783 243.304 23.2848L233.539 6.36292C233.274 6.14871 232.961 6.00273 232.628 5.93776C232.294 5.87279 231.949 5.89083 231.624 5.99027C227.12 5.99027 222.602 5.99027 218.098 5.99027C217.829 6.06501 217.547 6.07775 217.273 6.02755C216.998 5.97734 216.739 5.8655 216.514 5.70041C214.916 3.93369 212.74 2.93991 210.866 1.55967C210.559 1.41846 210.292 1.20349 210.088 0.933819C209.883 0.664149 209.749 0.348125 209.696 0.0137949H237.244L237.271 0Z" fill="white" fill-opacity="0.5"/>
<path d="M209.71 0C209.763 0.33433 209.897 0.650354 210.102 0.920024C210.306 1.1897 210.573 1.40467 210.88 1.54587C212.754 2.92612 214.93 3.90609 216.528 5.68661C216.753 5.85171 217.012 5.96355 217.287 6.01375C217.561 6.06395 217.843 6.0512 218.112 5.97645C222.616 5.97645 227.134 5.97645 231.638 5.97645C231.963 5.87701 232.308 5.859 232.641 5.92397C232.975 5.98894 233.288 6.13492 233.552 6.34912C221.147 6.34912 208.75 6.34912 196.363 6.34912C195.938 6.27963 195.503 6.35645 195.127 6.56704C194.752 6.77763 194.459 7.10954 194.296 7.50853C192.374 6.94457 190.644 5.86048 189.297 4.37538C189.238 4.26932 189.205 4.15124 189.2 4.03032C189.189 3.98094 189.196 3.92933 189.218 3.88411C189.241 3.8389 189.278 3.8028 189.324 3.78186C189.41 3.74529 189.482 3.68336 189.531 3.60438C189.58 3.52541 189.604 3.43321 189.6 3.3402C189.585 3.28018 189.588 3.21735 189.608 3.15882C189.627 3.10029 189.662 3.04839 189.71 3.00893L189.971 2.62246C190.15 1.67009 191.087 1.04897 191.101 0.0275898H209.723L209.71 0Z" fill="white" fill-opacity="0.5"/>
<path d="M304.309 249.714C302.34 246.843 300.769 243.738 299.02 240.743C296.265 236.133 293.648 231.523 291.045 226.871C290.859 226.433 290.534 226.069 290.121 225.835C289.708 225.6 289.229 225.508 288.759 225.574C287.033 225.623 285.349 225.036 284.027 223.924C282.704 222.813 281.834 221.253 281.582 219.542C281.285 217.835 281.607 216.078 282.492 214.589C283.376 213.1 284.764 211.978 286.403 211.426C288.035 210.864 289.815 210.914 291.413 211.566C293.011 212.219 294.319 213.429 295.095 214.974C295.808 216.154 296.121 217.536 295.984 218.91C295.847 220.283 295.269 221.576 294.337 222.592C294.099 222.796 293.945 223.081 293.905 223.392C293.864 223.703 293.939 224.018 294.117 224.276C294.309 224.594 294.489 224.925 294.668 225.243C299.254 233.207 303.882 241.157 308.442 249.148C308.663 249.612 309.024 249.995 309.473 250.243C309.923 250.49 310.439 250.59 310.948 250.529C322.684 250.529 334.364 250.529 346.141 250.529C347.835 250.529 347.835 250.529 348.193 249.148C349.058 245.814 351.177 242.945 354.108 241.143C357.038 239.341 360.552 238.748 363.91 239.487C365.549 239.859 366.554 239.763 367.284 238.244C367.263 238.478 367.306 238.714 367.408 238.925C367.51 239.137 367.667 239.316 367.863 239.445C368.626 239.907 369.31 240.49 369.888 241.171C369.751 241.483 369.734 241.835 369.841 242.158C369.948 242.482 370.171 242.754 370.466 242.924C372.807 245.113 374.242 248.103 374.488 251.302C374.742 253.188 374.547 255.108 373.92 256.904C373.293 258.701 372.251 260.323 370.879 261.64C369.502 263.02 369.502 263.02 370.466 264.759C376.554 275.304 382.656 285.849 388.689 296.422C388.94 297.004 389.368 297.491 389.913 297.813C390.457 298.136 391.09 298.277 391.719 298.216C397.491 298.12 403.262 298.216 409.033 298.216C409.57 298.3 410.119 298.199 410.591 297.931C411.064 297.663 411.432 297.243 411.637 296.739C412.421 295.196 413.745 293.998 415.357 293.374C416.969 292.75 418.754 292.744 420.369 293.358C421.953 293.936 423.286 295.049 424.138 296.506C424.991 297.962 425.31 299.671 425.041 301.338C424.772 303.006 423.931 304.527 422.664 305.639C421.396 306.752 419.781 307.388 418.097 307.436C416.719 307.501 415.354 307.151 414.178 306.43C413.001 305.709 412.068 304.651 411.499 303.392C411.345 302.965 411.048 302.603 410.659 302.369C410.27 302.136 409.813 302.043 409.364 302.109C403.345 302.109 397.325 302.109 391.306 302.109C390.626 301.992 389.927 302.151 389.364 302.55C388.909 301.032 387.422 300.839 386.334 300.149L375.893 282.095L366.94 266.636C365.962 264.938 366.1 265.256 364.502 265.615C361.103 266.511 357.489 266.029 354.444 264.272C351.398 262.514 349.167 259.624 348.235 256.229C347.766 254.6 347.766 254.587 346.003 254.587H311.568C310.893 254.587 310.191 254.587 309.53 254.518C309.805 253.993 310.687 254.518 310.907 253.758C309.345 252.435 307.682 251.235 305.935 250.17C305.473 249.812 304.89 249.649 304.309 249.714ZM370.631 252.64C370.69 251.362 370.492 250.084 370.047 248.884C369.602 247.684 368.92 246.586 368.042 245.656C367.165 244.725 366.109 243.982 364.938 243.47C363.767 242.958 362.505 242.688 361.227 242.676C359.949 242.664 358.683 242.91 357.502 243.4C356.322 243.89 355.252 244.613 354.357 245.526C353.462 246.44 352.759 247.524 352.292 248.716C351.825 249.908 351.602 251.181 351.637 252.461C351.704 254.925 352.723 257.267 354.478 258.994C356.233 260.721 358.588 261.7 361.048 261.723C363.508 261.746 365.881 260.813 367.668 259.119C369.455 257.425 370.517 255.103 370.631 252.64ZM417.849 296.022C416.774 296.054 415.755 296.504 415.007 297.277C414.258 298.051 413.84 299.085 413.84 300.162C413.761 300.754 413.811 301.355 413.985 301.926C414.16 302.496 414.455 303.022 414.851 303.468C415.248 303.913 415.735 304.268 416.281 304.507C416.827 304.746 417.417 304.863 418.013 304.852C418.608 304.841 419.194 304.701 419.73 304.442C420.267 304.183 420.741 303.811 421.12 303.351C421.5 302.891 421.776 302.355 421.929 301.778C422.082 301.202 422.109 300.599 422.008 300.011C421.969 298.934 421.513 297.915 420.736 297.171C419.959 296.426 418.924 296.014 417.849 296.022ZM292.767 218.438C292.767 217.354 292.343 216.313 291.586 215.539C290.829 214.765 289.799 214.319 288.717 214.297C288.126 214.199 287.52 214.232 286.942 214.392C286.364 214.552 285.828 214.837 285.371 215.225C284.914 215.614 284.547 216.098 284.295 216.643C284.043 217.188 283.912 217.782 283.912 218.383C283.912 218.984 284.043 219.577 284.295 220.122C284.547 220.667 284.914 221.151 285.371 221.54C285.828 221.929 286.364 222.213 286.942 222.373C287.52 222.534 288.126 222.566 288.717 222.468C289.78 222.447 290.794 222.017 291.548 221.266C292.302 220.516 292.739 219.503 292.767 218.438Z" fill="white" fill-opacity="0.5"/>
<path d="M183.194 419.512C183.494 419.131 183.657 418.659 183.657 418.173C183.657 417.688 183.494 417.216 183.194 416.835C176.969 406.106 170.77 395.358 164.6 384.592C163.814 383.212 163.801 383.212 162.327 383.598C160.614 384.069 158.824 384.194 157.063 383.966C155.301 383.738 153.602 383.161 152.065 382.27C150.527 381.379 149.181 380.191 148.106 378.775C147.03 377.358 146.245 375.742 145.798 374.019C145.385 372.639 145.385 372.57 143.994 372.57H106.239C105.999 372.514 105.748 372.516 105.509 372.576C105.269 372.636 105.047 372.752 104.862 372.915C104.152 372.802 103.494 372.474 102.975 371.977C102.527 371.581 101.946 371.369 101.349 371.383C101.476 371.102 101.523 370.791 101.487 370.485C101.451 370.178 101.332 369.888 101.143 369.644C97.9746 364.123 94.7928 358.685 91.6798 353.178C91.4817 352.838 91.1775 352.572 90.8141 352.423C90.4507 352.273 90.0483 352.247 89.6688 352.35C87.8859 352.457 86.1271 351.894 84.7363 350.771C83.3455 349.648 82.4227 348.045 82.1482 346.277C81.9945 345.303 82.0405 344.308 82.2835 343.353C82.5265 342.398 82.9614 341.503 83.5615 340.722C84.1616 339.941 84.9144 339.291 85.7737 338.812C86.6331 338.333 87.581 338.034 88.5595 337.935C89.538 337.835 90.5265 337.936 91.4645 338.233C92.4026 338.529 93.2704 339.014 94.0151 339.658C94.7597 340.302 95.3654 341.091 95.7952 341.977C96.2249 342.864 96.4697 343.829 96.5145 344.813C96.6056 346.443 96.1176 348.052 95.1371 349.354C94.8989 349.595 94.7574 349.915 94.7396 350.254C94.7218 350.592 94.829 350.926 95.0407 351.19C98.2271 356.665 101.391 362.149 104.531 367.643C104.693 367.971 104.952 368.241 105.272 368.416C105.592 368.591 105.959 368.663 106.322 368.623C118.847 368.623 131.377 368.623 143.911 368.623C145.399 368.623 145.44 368.623 145.839 367.049C146.775 363.626 149.023 360.713 152.093 358.944C155.164 357.175 158.808 356.695 162.23 357.608C163.69 357.995 163.69 357.967 164.531 356.711C164.638 356.563 164.753 356.42 164.875 356.283C165.666 357.279 166.751 357.998 167.974 358.34C167.217 359.527 167.409 360.341 168.484 361.432C170.853 363.898 172.183 367.184 172.198 370.607C172.214 374.031 170.913 377.329 168.566 379.816C168.323 380.096 168.06 380.359 167.781 380.603C167.673 380.665 167.58 380.749 167.509 380.851C167.437 380.953 167.389 381.07 167.368 381.193C167.347 381.316 167.353 381.441 167.387 381.561C167.42 381.682 167.48 381.793 167.561 381.887C167.768 382.191 167.919 382.536 168.112 382.867C174.283 393.568 180.444 404.27 186.597 414.971C186.782 415.383 187.092 415.726 187.483 415.951C187.873 416.177 188.325 416.273 188.773 416.227C194.788 416.227 200.802 416.227 206.817 416.227C207.313 416.303 207.821 416.208 208.256 415.957C208.692 415.706 209.029 415.315 209.214 414.847C209.781 413.622 210.706 412.599 211.867 411.913C213.029 411.228 214.371 410.913 215.715 411.01C217.027 410.998 218.315 411.362 219.428 412.059C220.541 412.756 221.432 413.757 221.996 414.944C222.861 416.624 223.035 418.577 222.478 420.384C221.922 422.19 220.681 423.706 219.021 424.605C218.209 425.068 217.313 425.363 216.386 425.474C215.459 425.585 214.519 425.51 213.622 425.253C212.724 424.996 211.886 424.562 211.158 423.977C210.429 423.392 209.825 422.667 209.379 421.845C209.14 421.262 208.709 420.778 208.158 420.474C207.607 420.17 206.968 420.065 206.349 420.175C200.577 420.175 194.82 420.175 189.048 420.175C188.685 420.091 188.308 420.088 187.944 420.167C187.58 420.246 187.237 420.404 186.941 420.63C186.635 420.665 186.324 420.636 186.03 420.543C185.736 420.45 185.464 420.297 185.233 420.092C184.652 419.645 183.923 419.437 183.194 419.512ZM158.828 380.065C160.698 380.057 162.523 379.493 164.072 378.445C165.622 377.397 166.826 375.912 167.534 374.178C168.241 372.444 168.419 370.539 168.045 368.704C167.671 366.868 166.763 365.185 165.434 363.867C164.105 362.549 162.417 361.656 160.581 361.3C158.746 360.945 156.846 361.142 155.123 361.869C153.4 362.595 151.93 363.817 150.901 365.381C149.871 366.944 149.327 368.778 149.338 370.652C149.352 373.16 150.36 375.561 152.14 377.326C153.919 379.091 156.325 380.076 158.828 380.065ZM85.2611 345.062C85.2611 346.16 85.6965 347.213 86.4714 347.99C87.2464 348.766 88.2974 349.203 89.3934 349.203C90.4624 349.17 91.4802 348.736 92.2454 347.987C93.0106 347.238 93.4674 346.229 93.5256 345.159C93.5267 344.093 93.1179 343.068 92.3842 342.297C91.6505 341.526 90.6484 341.068 89.5862 341.018C89.0306 340.969 88.471 341.038 87.9437 341.221C87.4164 341.403 86.9332 341.694 86.5255 342.075C86.1177 342.457 85.7944 342.919 85.5766 343.434C85.3588 343.948 85.2513 344.503 85.2611 345.062ZM215.508 422.231C216.604 422.231 217.655 421.795 218.43 421.019C219.205 420.242 219.641 419.189 219.641 418.091C219.616 417.026 219.183 416.011 218.431 415.258C217.68 414.505 216.667 414.071 215.605 414.047C214.522 414.034 213.478 414.453 212.703 415.211C211.928 415.969 211.485 417.005 211.473 418.091C211.46 419.176 211.878 420.222 212.635 420.999C213.391 421.775 214.425 422.219 215.508 422.231Z" fill="white" fill-opacity="0.5"/>
<path d="M79.5174 394.199C76.7626 399.14 73.8977 404.067 71.1291 409.022C70.9651 409.316 70.7137 409.551 70.41 409.695C70.1062 409.838 69.7653 409.883 69.4349 409.823H58.5809C47.8372 409.823 37.1073 409.823 26.3635 409.823C25.8335 409.87 25.3021 409.749 24.8448 409.476C24.3874 409.204 24.0272 408.794 23.8153 408.305C16.7906 396.011 9.71991 383.741 2.60333 371.493C2.28128 371.058 2.10742 370.531 2.10742 369.989C2.10742 369.447 2.28128 368.92 2.60333 368.485C4.11847 366.069 5.52342 363.598 6.96969 361.142C8.46234 362.563 10.168 363.741 12.0248 364.634C11.4721 366.096 10.7461 367.486 9.86222 368.774C9.59152 369.142 9.44549 369.587 9.44549 370.044C9.44549 370.501 9.59152 370.946 9.86222 371.314C15.8861 381.675 21.8548 392.055 27.7684 402.452C27.9554 402.832 28.257 403.143 28.6304 403.341C29.0037 403.54 29.4298 403.615 29.8483 403.557C41.7858 403.557 53.7233 403.557 65.6608 403.557C66.0833 403.607 66.5109 403.522 66.8822 403.314C67.2535 403.106 67.5492 402.785 67.7269 402.397C69.0079 400.051 70.4128 397.773 71.7076 395.496C72.4641 394.019 73.3249 392.599 74.2833 391.245C74.8908 391.247 75.4773 391.467 75.9362 391.866C77.0744 392.726 78.271 393.505 79.5174 394.199Z" fill="white" fill-opacity="0.5"/>
<path d="M210.853 191.896C211.473 191.896 212.092 191.813 212.698 191.813C228.263 191.813 243.828 191.813 259.392 191.813C259.988 191.751 260.589 191.88 261.108 192.179C261.627 192.479 262.039 192.935 262.285 193.483C270.393 207.654 278.538 221.801 286.72 235.926C286.995 236.409 287.216 236.919 287.464 237.416C286.59 237.455 285.732 237.17 285.053 236.616C282.767 235.015 280.453 233.483 278.166 231.895C277.553 231.473 276.898 231.117 276.21 230.833C275.563 230.557 275.301 230.929 275.219 231.523C274.892 231.237 274.637 230.877 274.475 230.474C268.896 220.812 263.29 211.15 257.781 201.406C257.521 200.83 257.087 200.352 256.541 200.037C255.995 199.722 255.363 199.588 254.737 199.653C235.747 199.717 216.757 199.717 197.767 199.653C197.024 199.653 196.28 199.653 195.536 199.653C195.824 199.476 196.143 199.358 196.477 199.306C196.81 199.254 197.15 199.268 197.478 199.349C202.285 199.349 207.12 199.349 211.9 199.349H230.66C231.183 199.349 232.037 199.639 232.161 199.046C232.285 198.452 231.459 198.148 231.018 197.831C228.814 196.257 226.472 194.85 224.351 193.166C223.671 192.569 222.79 192.253 221.886 192.282C218.787 192.282 215.701 192.282 212.602 192.282C212.3 192.348 211.987 192.347 211.685 192.28C211.383 192.214 211.099 192.083 210.853 191.896Z" fill="white" fill-opacity="0.5"/>
<path d="M188.842 433.646C189.572 431.921 190.66 430.403 191.597 428.76C191.689 428.528 191.855 428.334 192.069 428.206C192.284 428.079 192.534 428.026 192.781 428.056C193.208 428.056 193.649 428.056 194.09 428.056C207.988 428.056 221.886 428.056 235.784 428.056C236.44 427.996 237.098 428.145 237.664 428.482C238.231 428.82 238.677 429.327 238.938 429.933C245.825 441.914 252.712 453.839 259.599 465.82C260.797 467.89 260.811 467.89 259.599 469.961C259.379 470.333 259.117 470.678 258.869 471.037C257.541 470.404 256.281 469.636 255.109 468.746C254.656 468.322 254.062 468.081 253.442 468.07C253.334 467.782 253.21 467.501 253.07 467.228C247.009 456.692 240.958 446.156 234.916 435.62C234.713 435.214 234.39 434.881 233.99 434.669C233.59 434.456 233.133 434.374 232.685 434.433C221.335 434.433 209.971 434.516 198.621 434.433C196.555 434.433 195.04 434.737 194.214 436.752C193.607 436.481 193.038 436.133 192.519 435.717C191.484 434.732 190.22 434.021 188.842 433.646Z" fill="white" fill-opacity="0.5"/>
<path d="M239.613 504.301C239.26 504.79 238.955 505.312 238.704 505.861C238.194 507.6 237.891 507.724 236.045 507.724H202.988C199.82 507.724 196.666 507.724 193.497 507.724C193.049 507.783 192.593 507.699 192.194 507.484C191.796 507.268 191.476 506.932 191.28 506.523C184.136 494.027 176.959 481.55 169.751 469.091C169.483 468.759 169.336 468.345 169.336 467.918C169.336 467.49 169.483 467.076 169.751 466.744C170.646 465.488 171.211 463.984 172.175 462.797C172.717 462.785 173.256 462.887 173.757 463.096C174.257 463.305 174.709 463.617 175.082 464.011C175.894 464.591 176.555 465.488 177.726 465.392C177.505 465.902 177.248 466.396 176.955 466.869C176.73 467.159 176.609 467.516 176.609 467.883C176.609 468.25 176.73 468.607 176.955 468.898C183.208 479.691 189.448 490.494 195.674 501.306C195.929 501.479 196.219 501.595 196.523 501.648C196.827 501.7 197.138 501.687 197.437 501.609H232.203C232.813 501.738 233.449 501.656 234.007 501.375L234.365 501.223C235.019 501.358 235.635 501.636 236.169 502.037C237.299 502.783 238.208 503.928 239.613 504.301Z" fill="white" fill-opacity="0.5"/>
<path d="M392.987 310.252C393.008 310.032 393.112 309.829 393.279 309.685C393.446 309.541 393.662 309.467 393.882 309.479H395.19C409.212 309.479 423.234 309.479 437.256 309.479C437.818 309.423 438.384 309.541 438.877 309.817C439.369 310.094 439.765 310.515 440.011 311.025C446.916 323.107 453.859 335.165 460.837 347.201C461.085 347.629 461.306 348.085 461.581 348.499C461.751 348.72 461.843 348.992 461.843 349.272C461.843 349.551 461.751 349.823 461.581 350.044C461.099 350.981 460.542 351.876 459.915 352.722C458.565 351.555 457.139 350.481 455.645 349.506C455.361 349.39 455.054 349.342 454.749 349.368L441.774 326.76C439.887 323.475 437.986 320.204 436.127 316.905C435.988 316.526 435.724 316.206 435.377 316C435.031 315.794 434.624 315.713 434.226 315.773C433.795 315.801 433.362 315.801 432.931 315.773H397.064C398.331 314.917 398.345 314.807 397.188 313.965C396.031 313.123 394.998 312.433 393.909 311.66C393.622 311.56 393.376 311.368 393.209 311.113C393.042 310.859 392.964 310.556 392.987 310.252Z" fill="white" fill-opacity="0.5"/>
<path d="M230.536 313.827C229.985 313.827 229.42 313.827 228.869 313.827C216.831 313.827 204.792 313.827 192.767 313.827C192.171 313.881 191.572 313.745 191.057 313.438C190.543 313.13 190.138 312.667 189.902 312.115C183.993 301.764 178.015 291.412 172.065 281.115C171.762 280.577 171.5 280.011 171.225 279.473C171.847 279.394 172.476 279.551 172.988 279.914C174.682 281.046 176.363 282.178 178.029 283.351C179.609 284.536 181.266 285.615 182.988 286.581C183.387 286.788 183.787 287.009 184.062 286.415C184.496 286.856 184.842 287.376 185.082 287.947C188.236 293.399 191.404 298.824 194.475 304.317C194.715 304.867 195.123 305.327 195.64 305.63C196.158 305.933 196.758 306.063 197.354 306.001C209.861 306.001 222.368 306.001 234.875 306.001C235.55 306.001 236.252 306.001 236.913 306.001C236.371 306.312 235.733 306.411 235.123 306.277H224.709C224.282 306.277 223.842 306.277 223.415 306.277C223.266 306.23 223.106 306.233 222.96 306.286C222.813 306.338 222.688 306.437 222.602 306.567C222.561 306.75 222.586 306.941 222.672 307.107C222.757 307.274 222.898 307.405 223.07 307.478C223.304 307.671 223.594 307.809 223.855 307.975C225.729 309.272 227.602 310.597 229.489 311.881C229.858 312.037 230.163 312.316 230.354 312.67C230.544 313.023 230.608 313.432 230.536 313.827Z" fill="white" fill-opacity="0.5"/>
<path d="M174.159 112.048C172.148 115.596 170.109 119.129 168.139 122.704C167.685 123.546 166.638 124.084 166.762 125.202C166.886 126.32 167.905 126.583 168.47 127.328C170.142 129.307 171.203 131.732 171.523 134.305C171.844 136.879 171.41 139.49 170.274 141.82C169.536 143.245 168.573 144.54 167.423 145.658C167.265 145.774 167.133 145.923 167.037 146.094C166.94 146.266 166.882 146.456 166.865 146.652C166.848 146.848 166.873 147.045 166.938 147.231C167.004 147.417 167.108 147.586 167.244 147.728C169.903 152.283 172.52 156.851 175.15 161.42C175.825 162.593 176.528 163.808 177.12 164.995C176.452 165.033 175.796 164.81 175.288 164.374C174.403 163.738 173.484 163.153 172.533 162.621C171.79 162.193 171.748 162.786 171.748 163.311C169.503 159.888 167.616 156.244 165.536 152.738C164.93 151.731 164.324 150.709 163.787 149.66C163.721 149.48 163.618 149.315 163.485 149.176C163.352 149.037 163.192 148.928 163.014 148.855C162.836 148.783 162.645 148.748 162.454 148.753C162.262 148.759 162.073 148.804 161.9 148.887C158.967 149.805 155.801 149.629 152.988 148.39C151.085 147.61 149.391 146.395 148.039 144.842C146.688 143.289 145.718 141.442 145.206 139.446C144.806 138.066 145.206 138.066 143.36 138.066H105.234C104.924 138.083 104.616 138.12 104.311 138.177L104.627 137.721H129.49C129.673 137.743 129.858 137.743 130.041 137.721C130.213 137.694 130.373 137.612 130.495 137.486C130.526 137.434 130.545 137.375 130.552 137.314C130.559 137.253 130.553 137.192 130.535 137.133C130.517 137.075 130.487 137.021 130.447 136.975C130.407 136.929 130.357 136.891 130.302 136.865C129.366 136.175 128.429 135.485 127.547 134.712C126.666 133.939 125.289 134.505 124.131 134.409C123.512 134.409 122.892 134.409 122.272 134.409C121.608 134.558 120.912 134.445 120.33 134.091C123.374 134.091 126.404 134.022 129.448 134.008H143.029C144.765 134.008 144.765 134.008 145.247 132.338C146.067 129.443 147.831 126.906 150.258 125.132C152.684 123.358 155.634 122.45 158.635 122.552C159.755 122.569 160.866 122.759 161.927 123.118C162.089 123.204 162.267 123.254 162.449 123.264C162.632 123.275 162.814 123.245 162.984 123.179C163.154 123.112 163.308 123.009 163.435 122.877C163.561 122.745 163.658 122.587 163.718 122.414C165.591 119.06 167.561 115.748 169.462 112.394C169.764 111.716 170.173 111.091 170.674 110.544C170.996 110.497 171.324 110.518 171.637 110.606C171.95 110.694 172.241 110.847 172.492 111.055C173.022 111.427 173.58 111.759 174.159 112.048ZM167.671 135.954C167.677 134.711 167.436 133.478 166.964 132.328C166.492 131.177 165.798 130.132 164.921 129.252C164.044 128.372 163.001 127.674 161.854 127.199C160.707 126.725 159.477 126.482 158.236 126.486C155.728 126.489 153.323 127.485 151.544 129.255C149.764 131.025 148.754 133.428 148.732 135.941C148.682 137.217 148.89 138.491 149.344 139.685C149.797 140.879 150.486 141.969 151.369 142.89C152.253 143.811 153.312 144.544 154.485 145.045C155.658 145.546 156.92 145.805 158.194 145.805C159.469 145.806 160.731 145.55 161.905 145.05C163.078 144.551 164.139 143.82 165.024 142.9C165.909 141.98 166.599 140.891 167.054 139.698C167.509 138.504 167.719 137.231 167.671 135.954Z" fill="white" fill-opacity="0.5"/>
<path d="M182.974 324.344C180.531 320.167 178.089 315.989 175.646 311.812C173.277 307.671 170.894 303.654 168.594 299.527C168.395 299.058 168.047 298.668 167.603 298.418C167.159 298.168 166.646 298.073 166.142 298.147C164.899 298.194 163.665 297.919 162.559 297.348C161.454 296.777 160.513 295.93 159.83 294.889C159.146 293.848 158.742 292.647 158.656 291.404C158.571 290.16 158.807 288.916 159.342 287.791C159.876 286.665 160.692 285.697 161.709 284.98C162.726 284.262 163.911 283.82 165.149 283.696C166.386 283.571 167.635 283.769 168.774 284.27C169.914 284.77 170.905 285.557 171.652 286.553C172.55 287.681 173.073 289.062 173.147 290.503C173.221 291.944 172.843 293.372 172.065 294.586C171.713 295.032 171.522 295.584 171.522 296.153C171.522 296.721 171.713 297.273 172.065 297.719C176.656 305.476 181.147 313.27 185.536 321.101C185.756 321.597 186.125 322.011 186.592 322.286C187.059 322.561 187.6 322.682 188.139 322.633C197.441 322.568 206.748 322.568 216.059 322.633C216.629 322.729 217.214 322.625 217.716 322.338C218.218 322.051 218.606 321.599 218.814 321.059C219.702 319.423 221.186 318.192 222.957 317.625C224.727 317.058 226.648 317.197 228.319 318.014C229.99 318.83 231.282 320.262 231.926 322.009C232.57 323.757 232.516 325.686 231.775 327.395C231.297 328.649 230.463 329.737 229.377 330.524C228.291 331.311 226.999 331.763 225.66 331.825C224.259 332.003 222.838 331.732 221.6 331.05C220.363 330.368 219.373 329.31 218.773 328.03C218.563 327.541 218.194 327.138 217.726 326.888C217.258 326.637 216.719 326.553 216.197 326.649C206.335 326.649 196.473 326.649 186.61 326.649C186.19 326.04 185.651 325.522 185.026 325.126C184.401 324.73 183.703 324.464 182.974 324.344ZM225.054 320.562C223.981 320.562 222.951 320.979 222.179 321.726C221.408 322.473 220.957 323.491 220.922 324.565C220.922 325.663 221.357 326.716 222.132 327.493C222.907 328.27 223.958 328.706 225.054 328.706C226.131 328.706 227.165 328.277 227.927 327.513C228.689 326.75 229.117 325.714 229.117 324.634C229.117 323.554 228.689 322.519 227.927 321.755C227.165 320.991 226.131 320.562 225.054 320.562ZM169.958 290.956C169.963 290.157 169.731 289.375 169.292 288.708C168.853 288.041 168.226 287.52 167.491 287.212C166.756 286.903 165.945 286.82 165.163 286.973C164.381 287.127 163.661 287.51 163.097 288.074C162.532 288.638 162.147 289.357 161.991 290.14C161.835 290.924 161.915 291.736 162.221 292.474C162.527 293.212 163.044 293.842 163.708 294.284C164.372 294.727 165.152 294.961 165.949 294.959C166.476 294.966 166.999 294.868 167.487 294.669C167.975 294.471 168.418 294.176 168.79 293.803C169.163 293.43 169.457 292.986 169.655 292.497C169.853 292.008 169.951 291.484 169.944 290.956H169.958Z" fill="white" fill-opacity="0.5"/>
<path d="M179.117 95.8857C180.187 93.6488 181.397 91.4821 182.74 89.3985C182.949 89.1042 183.061 88.752 183.061 88.3909C183.061 88.0298 182.949 87.6777 182.74 87.3834C179.71 82.1798 176.679 76.9901 173.732 71.7452C173.519 71.2052 173.132 70.7519 172.633 70.4569C172.134 70.1619 171.551 70.0421 170.977 70.1165C169.997 70.1491 169.02 69.9798 168.108 69.6188C167.196 69.2579 166.368 68.7131 165.674 68.0183C164.981 67.3234 164.437 66.4932 164.077 65.5792C163.717 64.6651 163.548 63.6867 163.58 62.7046C163.619 61.7228 163.853 60.7588 164.27 59.8695C164.687 58.9802 165.277 58.1837 166.007 57.5273C166.736 56.8709 167.59 56.3679 168.517 56.048C169.444 55.7282 170.426 55.5981 171.404 55.6653C172.614 55.7494 173.783 56.1397 174.802 56.7995C175.821 57.4594 176.657 58.3674 177.23 59.4386C177.804 60.5098 178.097 61.7093 178.083 62.9249C178.068 64.1405 177.747 65.3326 177.148 66.3898C176.763 66.9256 176.563 67.5725 176.578 68.2325C176.592 68.8925 176.822 69.5297 177.23 70.0475C179.916 74.5195 182.478 79.0743 185.082 83.5877C185.388 84.0033 185.616 84.4709 185.756 84.9679C185.773 85.1998 185.839 85.4254 185.95 85.6296C186.061 85.8338 186.214 86.0119 186.399 86.1518C186.585 86.2917 186.798 86.3902 187.024 86.4408C187.251 86.4913 187.485 86.4927 187.712 86.4448C194.039 86.4448 200.366 86.4448 206.693 86.4448C207.054 86.4771 207.416 86.3872 207.721 86.1896C208.025 85.992 208.255 85.698 208.373 85.3544C209.018 83.9226 210.113 82.7422 211.492 81.9942C212.87 81.2462 214.455 80.972 216.004 81.2137C217.752 81.4627 219.349 82.3438 220.493 83.6909C221.637 85.0381 222.25 86.7581 222.216 88.5269C222.183 90.2957 221.504 91.9909 220.309 93.293C219.114 94.5952 217.485 95.4142 215.729 95.5958C214.212 95.8304 212.66 95.5503 211.32 94.8001C209.98 94.0499 208.928 92.8726 208.332 91.4551C208.212 91.1087 207.977 90.8142 207.666 90.6208C207.355 90.4273 206.987 90.3467 206.624 90.3923C200.196 90.3923 193.805 90.3923 187.451 90.3923C187.138 90.3824 186.831 90.4795 186.581 90.6677C186.33 90.8558 186.151 91.1238 186.073 91.4275C184.981 93.6567 183.734 95.806 182.34 97.8595C181.087 97.4868 180.426 96.1203 179.117 95.8857ZM214.93 84.3468C213.866 84.3457 212.844 84.7553 212.074 85.4905C211.304 86.2257 210.847 87.23 210.798 88.2943C210.822 89.3848 211.265 90.4238 212.035 91.1951C212.805 91.9663 213.842 92.4105 214.93 92.4351C216.026 92.4351 217.077 91.9988 217.852 91.2223C218.627 90.4457 219.062 89.3925 219.062 88.2943C219.051 87.765 218.937 87.243 218.724 86.7582C218.512 86.2733 218.207 85.8351 217.826 85.4685C217.445 85.1019 216.995 84.8142 216.503 84.6217C216.011 84.4293 215.486 84.3358 214.957 84.3468H214.93ZM170.853 66.9281C171.916 66.9281 172.935 66.5049 173.687 65.7517C174.439 64.9984 174.861 63.9768 174.861 62.9116C174.861 61.8463 174.439 60.8247 173.687 60.0715C172.935 59.3182 171.916 58.8951 170.853 58.8951C170.325 58.8969 169.803 59.003 169.317 59.2074C168.83 59.4118 168.389 59.7104 168.018 60.0861C167.647 60.4618 167.353 60.9072 167.154 61.3968C166.955 61.8864 166.855 62.4106 166.858 62.9392C166.857 63.4664 166.96 63.9887 167.162 64.4755C167.364 64.9622 167.661 65.4037 168.036 65.7739C168.41 66.1442 168.855 66.4357 169.343 66.6315C169.832 66.8273 170.354 66.9235 170.88 66.9143L170.853 66.9281Z" fill="white" fill-opacity="0.5"/>
<path d="M439.929 194.863C439.352 195.096 438.723 195.163 438.11 195.056C424.157 195.056 410.204 195.056 396.251 195.056C395.651 195.12 395.047 194.993 394.523 194.693C393.999 194.393 393.582 193.936 393.331 193.386C386.343 181.148 379.3 168.942 372.202 156.768C371.855 156.344 371.665 155.813 371.665 155.264C371.665 154.715 371.855 154.184 372.202 153.76C372.614 153.008 373.074 152.284 373.579 151.593C374.923 153.199 376.726 154.355 378.744 154.905C378.808 155.525 379.047 156.114 379.433 156.603L383.565 163.877C388.083 171.73 392.629 179.584 397.105 187.465C397.298 187.912 397.627 188.286 398.045 188.534C398.463 188.782 398.949 188.891 399.433 188.845C402.532 188.763 405.631 188.845 408.744 188.845C411.031 188.845 413.331 188.721 415.631 188.928C415.728 189.351 415.923 189.746 416.201 190.079C416.479 190.412 416.831 190.675 417.229 190.847C418.718 191.73 420.141 192.722 421.485 193.814C421.879 194.188 422.345 194.476 422.854 194.661C423.364 194.846 423.906 194.924 424.447 194.891C429.639 194.794 434.791 194.863 439.929 194.863Z" fill="white" fill-opacity="0.5"/>
<path d="M216.803 79.4609C213.828 79.4609 210.853 79.4608 207.891 79.5299C202.933 79.5299 197.974 79.5299 193.015 79.5299C192.474 79.5782 191.932 79.455 191.465 79.1776C190.998 78.9002 190.629 78.4826 190.412 77.984C183.378 65.7182 176.312 53.4708 169.214 41.2418C168.872 40.8153 168.685 40.2845 168.685 39.7373C168.685 39.1901 168.872 38.6594 169.214 38.2329C169.613 37.6808 169.958 37.0873 170.33 36.5214C171.556 36.72 172.683 37.3164 173.539 38.2191C174.181 38.8058 175.012 39.1435 175.88 39.1715C175.835 39.5397 175.871 39.9134 175.985 40.2663C176.099 40.6192 176.289 40.9428 176.542 41.2142C178.745 45.1617 181.115 49.0126 183.236 53.0291C184.723 55.7896 186.363 58.5501 188.043 61.3106C190.137 64.6784 192.079 68.2118 193.98 71.6348C194.213 72.1598 194.603 72.5989 195.097 72.8909C195.591 73.1828 196.163 73.3131 196.734 73.2635C209.007 73.2635 221.28 73.2635 233.552 73.2635C233.272 73.4568 232.953 73.5866 232.618 73.6438C232.282 73.701 231.939 73.6843 231.61 73.5948H212.478C212.16 73.5105 211.827 73.4939 211.502 73.5462C211.177 73.5985 210.867 73.7185 210.591 73.8984C210.651 74.1528 210.762 74.3921 210.919 74.6012C211.075 74.8102 211.273 74.9845 211.5 75.113C212.657 75.9412 213.814 76.7556 215.012 77.5009C215.436 77.6769 215.815 77.9436 216.124 78.2822C216.434 78.6208 216.665 79.0231 216.803 79.4609Z" fill="white" fill-opacity="0.5"/>
<path d="M385.08 374.516C382.684 370.831 380.631 366.939 378.414 363.157C375.934 358.933 373.538 354.668 371.045 350.459C370.798 350.112 370.665 349.697 370.665 349.272C370.665 348.846 370.798 348.431 371.045 348.085C375.875 339.803 380.682 331.494 385.466 323.157C385.601 322.951 385.748 322.753 385.907 322.564C385.909 322.777 385.973 322.986 386.09 323.165C386.207 323.343 386.373 323.484 386.568 323.571C387.381 324.082 388.207 324.606 388.992 325.159C389.348 325.329 389.659 325.582 389.898 325.896C390.138 326.211 390.299 326.578 390.37 326.967C389.584 328.347 388.827 329.851 388.014 331.259C384.832 336.78 381.678 342.301 378.372 347.822C378.06 348.23 377.89 348.73 377.89 349.244C377.89 349.758 378.06 350.258 378.372 350.666C381.361 355.303 383.648 360.327 386.637 365.02C389.199 369.051 391.444 373.302 393.813 377.442C394.21 377.924 394.446 378.517 394.488 379.14C393.508 379.026 392.586 378.617 391.843 377.967C389.929 376.587 387.987 375.358 386.072 374.019C385.452 373.55 385.177 373.771 385.08 374.516Z" fill="white" fill-opacity="0.5"/>
<path d="M211.913 199.266C207.106 199.266 202.271 199.266 197.492 199.266C197.164 199.186 196.824 199.171 196.49 199.223C196.157 199.275 195.837 199.393 195.55 199.57C193.663 202.717 191.693 205.809 189.944 209.052C187.313 213.911 184.434 218.714 181.679 223.434C181.073 224.653 180.364 225.816 179.558 226.913C177.136 226.056 174.951 224.637 173.181 222.772C174.558 219.86 176.307 217.154 177.905 214.366C181.927 207.341 186.018 200.343 190.013 193.304C190.218 192.797 190.588 192.375 191.064 192.107C191.539 191.839 192.091 191.74 192.63 191.827C194.007 191.951 195.384 191.896 196.762 191.923C197.977 192.354 199.284 192.454 200.55 192.213C202.216 192.213 203.704 192.213 204.833 193.745C205.329 194.208 205.891 194.594 206.5 194.891C208.112 196.009 209.723 197.141 211.349 198.245C211.524 198.35 211.669 198.5 211.769 198.679C211.868 198.859 211.918 199.061 211.913 199.266Z" fill="white" fill-opacity="0.5"/>
<path d="M452.187 366.166C450.81 368.926 449.226 371.466 447.725 374.116C445.149 378.657 442.504 383.157 439.942 387.698C439.779 388.125 439.484 388.49 439.1 388.738C438.716 388.986 438.263 389.105 437.807 389.078C427.945 389.078 418.083 389.078 408.221 389.078C407.972 389.068 407.724 389.045 407.477 389.009C407.436 388.67 407.304 388.349 407.095 388.079C406.887 387.809 406.609 387.601 406.292 387.477C405.204 386.773 404.13 386.097 403.069 385.296C402.198 384.805 401.434 384.143 400.824 383.35C401.469 383.05 402.189 382.954 402.89 383.074C413.166 383.074 423.427 383.074 433.703 383.074C434.391 383.074 435.204 383.419 435.755 382.646C436.031 382.094 436.278 381.528 436.595 381.003C439.35 376.228 442.105 371.457 444.86 366.69C445.598 365.256 446.431 363.873 447.353 362.55C449.076 363.597 450.695 364.808 452.187 366.166Z" fill="white" fill-opacity="0.5"/>
<path d="M184.035 286.512C183.759 287.105 183.36 286.884 182.96 286.677C181.238 285.712 179.582 284.633 178.002 283.448C176.335 282.274 174.655 281.143 172.96 280.011C172.449 279.648 171.819 279.49 171.197 279.569C168.952 275.718 166.693 271.881 164.448 268.03C161.693 263.365 159.09 258.686 156.363 254.048C156.106 253.711 155.967 253.299 155.967 252.875C155.967 252.451 156.106 252.039 156.363 251.702C158.181 248.831 159.668 245.753 161.583 242.937C162.071 242.99 162.53 243.198 162.892 243.531C164.586 244.718 166.321 245.863 168.029 247.037C167.257 248.654 166.392 250.225 165.44 251.743C164.724 253.124 164.724 253.124 165.605 254.324C165.977 254.821 166.252 255.373 166.583 255.898C169.6 260.77 172.093 265.905 175.109 270.805C177.52 274.766 179.902 278.741 181.996 282.923C182.519 284.202 183.204 285.408 184.035 286.512Z" fill="white" fill-opacity="0.5"/>
<path d="M423.221 209.798C422.479 210.677 421.534 211.36 420.469 211.788C419.403 212.216 418.248 212.376 417.106 212.254C415.965 212.131 414.87 211.73 413.919 211.085C412.968 210.44 412.189 209.572 411.65 208.555C411.426 208.027 411.035 207.587 410.538 207.303C410.04 207.019 409.463 206.906 408.896 206.982C403.074 207.046 397.257 207.046 391.444 206.982C390.904 206.917 390.357 207.025 389.882 207.29C389.407 207.555 389.028 207.964 388.799 208.459C384.901 215.36 380.921 222.261 376.954 229.066C376.753 229.376 376.537 229.675 376.306 229.963C375.634 229.847 375.012 229.535 374.516 229.066C374.053 228.662 373.462 228.437 372.849 228.431C374.598 224.87 376.733 221.53 378.689 218.079C380.921 214.145 383.18 210.212 385.494 206.319C385.787 205.919 385.945 205.436 385.945 204.939C385.945 204.443 385.787 203.959 385.494 203.559C382.505 198.48 379.571 193.359 376.637 188.252C376.334 187.714 376.072 187.148 375.797 186.609C376.068 186.58 376.342 186.606 376.603 186.687C376.863 186.768 377.105 186.901 377.312 187.079C378.042 187.631 378.827 188.114 379.585 188.611C379.823 188.85 380.136 189.001 380.471 189.038C380.807 189.076 381.145 188.998 381.43 188.818C383.469 191.785 385.08 195.015 386.94 198.093C387.739 199.473 388.524 200.771 389.254 202.137C389.383 202.416 389.596 202.648 389.862 202.802C390.129 202.955 390.436 203.022 390.741 202.993C397.169 202.993 403.56 202.993 409.915 202.993C410.191 203.025 410.471 202.972 410.717 202.841C410.963 202.711 411.163 202.508 411.292 202.261C412.298 202.482 412.986 203.435 414.047 203.504C413.954 203.927 413.89 204.356 413.854 204.787C413.843 205.403 413.97 206.013 414.224 206.573C414.478 207.133 414.853 207.63 415.323 208.027C415.793 208.423 416.345 208.71 416.939 208.866C417.533 209.022 418.154 209.043 418.758 208.928C419.177 208.83 419.591 208.71 419.997 208.569C421.278 208.459 422.008 209.77 423.221 209.798Z" fill="white" fill-opacity="0.5"/>
<path d="M293.456 257.899C290.701 262.827 287.946 267.727 284.998 272.53C283.786 274.517 282.781 276.671 281.596 278.672C279.323 282.495 277.381 286.525 274.709 290.128C274.457 290.564 274.254 291.027 274.103 291.508C274.028 291.213 273.879 290.942 273.669 290.722C273.459 290.502 273.195 290.34 272.905 290.252C271.72 289.396 270.48 288.623 269.254 287.823C268.973 287.703 268.727 287.513 268.54 287.272C268.352 287.03 268.228 286.745 268.18 286.443C268.621 285.628 269.034 284.8 269.558 284C273.543 277.08 277.533 270.179 281.527 263.296C283.428 260.039 285.191 256.698 287.257 253.538C288.759 254.49 290.26 255.442 291.747 256.422C292.428 256.769 293.014 257.276 293.456 257.899Z" fill="white" fill-opacity="0.5"/>
<path d="M120.344 134.036C120.926 134.389 121.622 134.503 122.286 134.353C122.906 134.353 123.525 134.353 124.145 134.353C125.302 134.45 126.666 133.87 127.561 134.657C128.457 135.444 129.379 136.12 130.316 136.81C130.371 136.836 130.42 136.874 130.46 136.92C130.5 136.966 130.53 137.02 130.549 137.078C130.567 137.137 130.573 137.198 130.566 137.259C130.559 137.32 130.54 137.378 130.509 137.431C130.387 137.556 130.227 137.639 130.054 137.666C129.871 137.688 129.686 137.688 129.503 137.666H104.641C104.271 137.011 103.734 136.466 103.086 136.086C102.438 135.705 101.701 135.503 100.95 135.499C98.9939 132.628 97.4237 129.522 95.6606 126.527C94.173 124.015 92.6992 121.503 91.308 118.936C91.1305 118.487 90.8021 118.115 90.3796 117.883C89.957 117.651 89.4669 117.574 88.994 117.666C87.3107 117.776 85.6434 117.281 84.2924 116.269C82.9414 115.256 81.9954 113.794 81.6249 112.145C81.2609 110.554 81.4427 108.887 82.1407 107.412C82.8388 105.937 84.0125 104.741 85.4723 104.017C86.9321 103.292 88.5928 103.082 90.1865 103.42C91.7801 103.758 93.2136 104.624 94.2556 105.879C95.2276 107.013 95.8099 108.43 95.9165 109.921C96.0232 111.413 95.6486 112.899 94.8479 114.16C94.4911 114.599 94.2962 115.147 94.2962 115.713C94.2962 116.279 94.4911 116.827 94.8479 117.266C97.8139 122.29 100.729 127.351 103.594 132.449C103.803 132.948 104.166 133.367 104.629 133.645C105.093 133.923 105.632 134.045 106.17 133.994C110.908 133.925 115.633 134.008 120.344 134.036ZM92.7956 110.434C92.7715 109.376 92.3442 108.367 91.6014 107.615C90.8585 106.863 89.8565 106.424 88.8011 106.389C87.7052 106.389 86.6542 106.826 85.8792 107.602C85.1043 108.379 84.6689 109.432 84.6689 110.53C84.6797 111.074 84.7972 111.61 85.0149 112.109C85.2325 112.607 85.546 113.057 85.9374 113.434C86.3288 113.811 86.7905 114.107 87.296 114.305C87.8016 114.503 88.3411 114.599 88.8838 114.588C89.9361 114.521 90.9231 114.054 91.6427 113.281C92.3622 112.509 92.7599 111.49 92.7543 110.434H92.7956Z" fill="white" fill-opacity="0.5"/>
<path d="M82.2722 119.433C85.33 124.692 88.374 129.95 91.4732 135.181C91.645 135.51 91.7082 135.885 91.6538 136.252C91.5993 136.619 91.43 136.96 91.1702 137.224C88.7919 141.365 86.4044 145.506 84.0077 149.646C82.465 152.296 80.8947 154.919 79.3383 157.541C79.3239 157.297 79.2449 157.061 79.1093 156.857C78.9738 156.653 78.7866 156.489 78.5669 156.382C77.7818 155.913 77.0242 155.388 76.2667 154.864C75.9097 154.691 75.5986 154.436 75.3592 154.119C75.1198 153.802 74.9587 153.433 74.8893 153.042C74.9903 152.754 75.1099 152.472 75.2474 152.2C78.0022 147.369 80.757 142.538 83.6633 137.749C84.04 137.245 84.2436 136.632 84.2436 136.003C84.2436 135.373 84.04 134.76 83.6633 134.257C81.3906 130.558 79.2556 126.776 77.1344 122.994C75.8569 121.027 74.7067 118.98 73.6909 116.866L73.443 116.438V116.313C73.4472 116.19 73.4155 116.069 73.3519 115.963C73.2884 115.858 73.1956 115.773 73.0849 115.72C72.7049 115.296 72.4269 114.791 72.2722 114.243C72.3549 113.898 72.3962 113.415 72.9334 113.677C73.4706 113.939 73.8425 114.284 74.3108 114.574C76.9554 116.189 79.297 118.329 82.2722 119.433Z" fill="white" fill-opacity="0.5"/>
<path d="M48.7876 330.362H65.3165C66.4873 330.362 67.6718 330.445 68.8426 330.362C69.3794 330.277 69.9292 330.375 70.4038 330.64C70.8784 330.905 71.2502 331.323 71.4597 331.825C74.5588 337.346 77.7406 342.798 80.8949 348.278L86.9279 358.754C87.1345 359.126 87.2998 359.527 87.4926 359.913C86.6949 359.772 85.946 359.43 85.3164 358.919C83.3742 357.387 81.1841 356.159 79.2145 354.779C78.6084 354.242 77.8189 353.96 77.0106 353.992C76.5837 353.548 76.2428 353.028 76.0051 352.46C73.2503 347.698 70.4955 342.936 67.7407 338.133C67.5295 337.667 67.1746 337.281 66.7283 337.033C66.2819 336.784 65.7677 336.686 65.2614 336.753C62.355 336.753 59.4625 336.753 56.5562 336.753C56.589 336.442 56.5277 336.128 56.3803 335.852C56.233 335.577 56.0063 335.352 55.7297 335.207C53.5397 333.937 51.6802 332.143 49.2422 331.273C49.0691 331.202 48.9276 331.071 48.844 330.903C48.7604 330.736 48.7404 330.543 48.7876 330.362Z" fill="white" fill-opacity="0.5"/>
<path d="M230.536 313.827C230.569 313.456 230.484 313.084 230.294 312.764C230.103 312.445 229.817 312.193 229.475 312.046C227.588 310.763 225.715 309.452 223.842 308.14C223.594 307.961 223.291 307.837 223.057 307.643C222.884 307.57 222.743 307.439 222.658 307.273C222.572 307.106 222.548 306.915 222.588 306.732C222.674 306.602 222.8 306.504 222.946 306.451C223.093 306.399 223.252 306.396 223.401 306.443C223.828 306.443 224.269 306.443 224.696 306.443H235.109C235.719 306.576 236.357 306.478 236.899 306.167H244.503L256.899 306.084C258.635 307.326 260.37 308.596 262.12 309.81C262.348 309.896 262.547 310.046 262.694 310.242C262.84 310.437 262.928 310.671 262.946 310.915C261.569 313.993 261.569 313.993 258.208 313.979H232.574C231.886 313.896 231.211 313.855 230.536 313.827Z" fill="white" fill-opacity="0.5"/>
<path d="M14.1597 112.048C15.7988 108.736 17.796 105.617 19.6693 102.387C20.6335 100.666 21.6206 98.9592 22.6307 97.2661C22.6683 97.0216 22.7888 96.7975 22.972 96.6316C23.1551 96.4657 23.3897 96.3681 23.6362 96.3551H25.6748H44.8344C45.7627 96.1961 46.7168 96.3932 47.5066 96.9072C49.2274 98.309 51.0355 99.5999 52.9198 100.772C53.1934 100.89 53.4293 101.081 53.6018 101.325C53.7742 101.568 53.8766 101.854 53.8977 102.152C53.2599 102.345 52.5889 102.401 51.928 102.318H28.8014C28.1311 102.179 27.4336 102.266 26.818 102.566L24.6555 106.224C22.7684 109.398 21.0742 112.697 19.0357 115.775C17.2313 115.347 15.9916 113.967 14.4627 113.015C14.338 112.89 14.2452 112.737 14.1925 112.569C14.1397 112.401 14.1284 112.222 14.1597 112.048Z" fill="white" fill-opacity="0.5"/>
<path d="M26.8042 102.511C27.4198 102.211 28.1173 102.124 28.7877 102.263H51.8592C52.5201 102.346 53.1911 102.29 53.8288 102.097C53.8077 101.799 53.7053 101.513 53.5329 101.27C53.3604 101.026 53.1245 100.835 52.8509 100.717C50.9666 99.5447 49.1586 98.2539 47.4377 96.852C46.6479 96.338 45.6938 96.1409 44.7655 96.2999H25.6059H23.5673C24.1183 96.2999 24.6692 96.2033 25.2202 96.2033C39.2146 96.2033 53.209 96.2033 67.2034 96.2033C67.77 96.1504 68.339 96.2746 68.8322 96.5588C69.3255 96.843 69.7188 97.2734 69.9582 97.7906C73.7323 104.485 77.6028 111.124 81.4457 117.777C81.7488 118.315 81.9967 118.867 82.2722 119.419C79.297 118.315 76.9554 116.176 74.297 114.561C73.8287 114.271 73.4017 113.898 72.9196 113.663C72.4376 113.429 72.3549 113.884 72.2585 114.229C70.096 110.986 68.2502 107.535 66.3494 104.126C66.1046 103.575 65.691 103.115 65.1685 102.815C64.646 102.515 64.0417 102.389 63.4431 102.456C51.2256 102.525 39.0218 102.511 26.8042 102.511Z" fill="white" fill-opacity="0.5"/>
<path d="M185.853 183.973C183.966 187.244 182.161 190.585 180.15 193.787C177.699 197.693 175.729 201.875 173.263 205.753C172.919 206.167 172.737 206.691 172.749 207.229C172.762 207.768 172.969 208.283 173.332 208.68C174.183 209.809 174.653 211.18 174.672 212.595C174.692 214.01 174.261 215.394 173.442 216.547C172.687 217.728 171.607 218.665 170.331 219.244C169.056 219.823 167.64 220.019 166.256 219.809C164.872 219.598 163.578 218.991 162.531 218.059C161.484 217.128 160.729 215.912 160.357 214.559C160.051 213.493 159.997 212.37 160.2 211.28C160.402 210.189 160.856 209.161 161.524 208.276C162.193 207.392 163.058 206.676 164.051 206.186C165.044 205.695 166.137 205.443 167.244 205.45C167.78 205.5 168.318 205.377 168.779 205.099C169.24 204.821 169.6 204.402 169.806 203.904C173.677 197.127 177.602 190.377 181.487 183.6C181.759 183.307 181.964 182.957 182.088 182.575C182.211 182.194 182.251 181.79 182.203 181.392C183.594 181.803 184.853 182.575 185.853 183.628C185.84 183.743 185.84 183.859 185.853 183.973ZM171.39 212.613C171.383 211.552 170.958 210.536 170.207 209.786C169.457 209.037 168.441 208.614 167.382 208.611C166.286 208.611 165.235 209.047 164.46 209.823C163.685 210.6 163.25 211.653 163.25 212.751C163.294 213.814 163.737 214.821 164.491 215.571C165.244 216.321 166.252 216.758 167.313 216.795C168.407 216.781 169.45 216.333 170.214 215.549C170.978 214.765 171.401 213.709 171.39 212.613Z" fill="white" fill-opacity="0.5"/>
<path d="M216.803 79.4608C216.669 79.018 216.439 78.6102 216.129 78.2667C215.82 77.9231 215.438 77.6522 215.013 77.4733C213.814 76.7141 212.643 75.9136 211.5 75.0854C211.273 74.9569 211.075 74.7826 210.919 74.5736C210.762 74.3645 210.651 74.1252 210.591 73.8708C210.867 73.6909 211.177 73.5709 211.502 73.5186C211.827 73.4663 212.16 73.4828 212.478 73.5672H231.61C231.939 73.6566 232.282 73.6733 232.618 73.6161C232.953 73.5589 233.272 73.4292 233.552 73.2359L239.296 63.45C240.577 64.2643 241.886 65.0648 243.153 65.9206C243.561 66.2964 244.101 66.495 244.654 66.4727C242.492 70.6134 239.971 74.6576 237.671 78.7707C237.534 79.0445 237.317 79.2695 237.048 79.4152C236.78 79.5609 236.473 79.6202 236.169 79.5851L216.803 79.4608Z" fill="white" fill-opacity="0.5"/>
<path d="M439.929 194.863C434.777 194.863 429.639 194.863 424.488 194.863C423.947 194.897 423.405 194.819 422.896 194.633C422.386 194.448 421.92 194.16 421.526 193.787C420.182 192.694 418.76 191.702 417.27 190.819C416.872 190.648 416.52 190.385 416.242 190.051C415.965 189.718 415.769 189.324 415.672 188.901C416.347 188.901 417.05 188.832 417.711 188.832C423.4 188.832 429.088 188.832 434.777 188.832C435.285 188.895 435.799 188.795 436.247 188.547C436.695 188.299 437.053 187.916 437.27 187.451C438.882 184.525 440.631 181.682 442.325 178.811C443.606 179.639 444.915 180.44 446.168 181.296C446.58 181.661 447.12 181.85 447.669 181.82C446.044 185.064 444.157 188.169 442.27 191.261C441.526 192.434 441.196 193.952 439.929 194.863Z" fill="white" fill-opacity="0.5"/>
<path d="M293.456 257.899C293.014 257.235 292.413 256.694 291.706 256.326C290.219 255.346 288.717 254.407 287.216 253.441C287.282 253.138 287.275 252.824 287.196 252.524C287.117 252.224 286.968 251.947 286.761 251.716C284.007 246.954 281.252 242.22 278.497 237.444C277.283 235.535 276.197 233.548 275.246 231.495C275.329 230.902 275.604 230.529 276.238 230.805C276.926 231.089 277.581 231.446 278.194 231.868C280.48 233.455 282.794 235.001 285.081 236.588C285.759 237.142 286.617 237.427 287.491 237.389C290.347 242.293 293.212 247.198 296.086 252.102C296.249 252.325 296.336 252.593 296.336 252.868C296.336 253.144 296.249 253.412 296.086 253.634C295.136 255.028 294.489 256.588 293.456 257.899Z" fill="white" fill-opacity="0.5"/>
<path d="M303.524 264.248C300.949 268.831 298.579 273.537 295.549 277.844C295.136 278.423 294.874 279.114 294.461 279.735C294.235 280.132 294.138 280.591 294.185 281.047C294.232 281.502 294.42 281.931 294.723 282.274C295.32 283.169 295.709 284.187 295.861 285.252C296.013 286.318 295.924 287.404 295.602 288.43C295.279 289.457 294.731 290.398 293.997 291.184C293.263 291.97 292.363 292.581 291.362 292.971C290.023 293.494 288.56 293.609 287.156 293.302C285.752 292.995 284.469 292.28 283.469 291.246C282.491 290.194 281.84 288.879 281.595 287.463C281.35 286.046 281.523 284.588 282.092 283.268C282.659 281.931 283.626 280.803 284.859 280.039C286.093 279.275 287.532 278.913 288.979 279.003C289.51 279.103 290.059 279.009 290.526 278.738C290.994 278.467 291.349 278.037 291.527 277.526C294.282 272.613 297.147 267.726 299.971 262.84C300.191 262.468 300.467 262.123 300.714 261.778C301.348 262.882 302.781 263.172 303.524 264.248ZM292.753 286.263C292.779 285.195 292.382 284.16 291.649 283.384C290.916 282.609 289.907 282.155 288.841 282.122C287.752 282.1 286.699 282.51 285.909 283.262C285.12 284.014 284.659 285.048 284.626 286.139C284.626 287.237 285.062 288.29 285.837 289.067C286.612 289.843 287.663 290.28 288.759 290.28C289.809 290.245 290.807 289.81 291.55 289.064C292.292 288.318 292.722 287.316 292.753 286.263Z" fill="white" fill-opacity="0.5"/>
<path d="M12.0247 364.634C10.2078 363.736 8.53996 362.563 7.07983 361.156C7.92005 359.292 9.04952 357.594 10.055 355.828C13.8199 349.221 17.594 342.623 21.3773 336.035C21.6743 335.555 22.001 335.094 22.3552 334.655C23.2092 335.842 24.6279 336.297 25.7023 337.194C25.9673 337.406 26.2724 337.562 26.5991 337.652C26.9258 337.742 27.2674 337.765 27.6031 337.719C27.553 337.894 27.4885 338.065 27.4103 338.23L12.9338 363.433C12.7033 363.884 12.3956 364.29 12.0247 364.634Z" fill="white" fill-opacity="0.5"/>
<path d="M27.5617 337.788C27.226 337.834 26.8844 337.811 26.5577 337.721C26.231 337.631 25.9259 337.475 25.6609 337.263C24.5865 336.366 23.1678 335.883 22.3138 334.724C22.9151 333.434 23.5912 332.18 24.3386 330.969C24.4861 330.696 24.7214 330.481 25.0064 330.358C25.2914 330.235 25.6094 330.212 25.9089 330.293H33.1678H48.8013C48.8097 330.447 48.8641 330.596 48.9574 330.719C49.0507 330.842 49.1786 330.934 49.3247 330.983C51.7627 331.839 53.6222 333.633 55.8123 334.917C56.0901 335.06 56.3178 335.285 56.4654 335.561C56.613 335.837 56.6734 336.152 56.6387 336.463C55.9638 336.463 55.2613 336.532 54.6002 336.532C46.4046 336.532 38.2091 336.532 30.0273 336.532C29.5368 336.456 29.035 336.537 28.5926 336.762C28.1502 336.987 27.7897 337.346 27.5617 337.788Z" fill="white" fill-opacity="0.5"/>
<path d="M167.974 247.037C166.252 245.877 164.531 244.718 162.836 243.531C162.475 243.198 162.016 242.99 161.528 242.937C162.437 240.908 163.677 239.059 164.779 237.14C167.217 232.848 169.696 228.569 172.162 224.29C172.395 223.719 172.736 223.199 173.167 222.758C174.937 224.623 177.122 226.042 179.544 226.899C175.867 233.745 171.969 240.411 167.974 247.037Z" fill="white" fill-opacity="0.5"/>
<path d="M185.853 183.973C185.84 183.858 185.84 183.743 185.853 183.628C191.61 183.628 197.354 183.628 203.112 183.628C203.993 183.628 205.412 184.125 205.674 183.324C206.018 182.248 204.379 182.124 203.773 181.42C203.667 181.358 203.566 181.289 203.47 181.213C203.198 180.838 202.821 180.551 202.388 180.389C201.954 180.227 201.483 180.197 201.032 180.302C196.578 180.302 192.125 180.302 187.671 180.302C187.372 180.377 187.061 180.389 186.757 180.337C186.454 180.285 186.164 180.169 185.908 179.998C195.467 179.998 205.013 179.998 214.572 179.998C215.143 180.091 215.729 179.983 216.23 179.694C216.732 179.405 217.119 178.952 217.327 178.411C218.078 177 219.288 175.89 220.757 175.264C222.225 174.639 223.863 174.537 225.398 174.974C226.965 175.364 228.356 176.268 229.351 177.543C230.345 178.817 230.885 180.389 230.885 182.006C230.885 183.624 230.345 185.195 229.351 186.47C228.356 187.744 226.965 188.648 225.398 189.039C223.856 189.461 222.216 189.341 220.752 188.698C219.288 188.055 218.089 186.928 217.354 185.505C217.148 184.964 216.76 184.513 216.257 184.228C215.754 183.943 215.168 183.843 214.599 183.946C204.971 184.001 195.412 183.973 185.853 183.973ZM223.47 177.955C222.942 177.955 222.419 178.059 221.931 178.262C221.443 178.465 220.999 178.761 220.626 179.136C220.252 179.51 219.956 179.954 219.754 180.443C219.552 180.932 219.448 181.456 219.448 181.986C219.448 182.515 219.552 183.039 219.754 183.528C219.956 184.017 220.252 184.461 220.626 184.835C220.999 185.21 221.443 185.507 221.931 185.709C222.419 185.912 222.942 186.016 223.47 186.016C224.018 186.037 224.565 185.945 225.076 185.744C225.587 185.544 226.051 185.239 226.439 184.851C226.827 184.462 227.131 183.997 227.331 183.485C227.531 182.973 227.623 182.425 227.602 181.875C227.57 180.809 227.116 179.798 226.342 179.066C225.567 178.334 224.534 177.939 223.47 177.969V177.955Z" fill="white" fill-opacity="0.5"/>
<path d="M262.946 310.804C262.928 310.56 262.84 310.327 262.694 310.131C262.547 309.936 262.348 309.786 262.12 309.7C260.37 308.471 258.635 307.215 256.899 305.973C258.91 302.426 260.894 298.865 262.946 295.332C264.682 292.336 266.293 289.272 268.208 286.374C268.256 286.676 268.379 286.961 268.567 287.203C268.755 287.444 269.001 287.634 269.282 287.754C270.508 288.555 271.748 289.328 272.932 290.183C273.223 290.271 273.486 290.433 273.696 290.653C273.906 290.873 274.056 291.144 274.131 291.439C272.68 294.294 271.061 297.059 269.282 299.721C268.731 300.507 268.428 301.474 267.905 302.302C266.279 305.173 264.778 308.044 262.946 310.804Z" fill="white" fill-opacity="0.5"/>
<path d="M244.393 24.9962C245.383 25.0463 246.327 25.4362 247.065 26.1004C248.91 27.4807 250.908 28.6953 252.808 30.0341C253.018 30.2502 253.297 30.3864 253.596 30.4191C253.895 30.4518 254.196 30.3792 254.448 30.2135C256.417 33.0707 257.932 36.19 259.737 39.1437C259.873 39.3515 259.939 39.5971 259.927 39.8451C259.914 40.0932 259.824 40.3308 259.668 40.524C257.643 43.9194 255.811 47.4252 253.635 50.7516C251.39 50.5722 249.916 49.0677 248.387 47.6737C249.213 45.7965 250.37 44.1127 251.335 42.3183C253.07 39.13 253.084 40.4136 251.335 37.239C249.062 33.1397 246.541 29.2336 244.393 24.9962Z" fill="white" fill-opacity="0.5"/>
<path d="M77.0244 353.854C77.8327 353.822 78.6221 354.104 79.2282 354.641C81.2392 356.021 83.3604 357.291 85.3301 358.782C85.9598 359.292 86.7086 359.634 87.5064 359.775L93.14 369.354C93.2645 369.53 93.3315 369.739 93.3315 369.955C93.3315 370.17 93.2645 370.38 93.14 370.555C91.2667 373.674 89.6138 376.932 87.6303 379.954C86.6193 379.428 85.6479 378.828 84.724 378.16C84.051 377.551 83.2287 377.132 82.3411 376.946C83.2321 375.034 84.2586 373.189 85.4127 371.425C85.7334 371.018 85.9078 370.514 85.9078 369.996C85.9078 369.478 85.7334 368.974 85.4127 368.567C84.2282 366.759 83.2089 364.841 82.1483 362.95C80.4954 359.955 78.4706 357.07 77.0244 353.854Z" fill="white" fill-opacity="0.5"/>
<path d="M253.387 468.07C254.007 468.081 254.601 468.322 255.054 468.746C256.226 469.636 257.486 470.404 258.814 471.037C256.913 474.433 254.957 477.786 252.96 481.113C251.583 483.528 250.205 486.04 248.828 488.525C248.231 489.745 247.525 490.909 246.72 492.003C245.724 491.558 244.796 490.972 243.965 490.264C243.232 489.628 242.351 489.187 241.404 488.98C241.453 488.805 241.517 488.634 241.596 488.469L253.387 468.07Z" fill="white" fill-opacity="0.5"/>
<path d="M189.159 3.9751C189.164 4.09602 189.197 4.2141 189.255 4.32016C190.603 5.80526 192.333 6.88937 194.255 7.45333C193.993 7.93641 193.759 8.4471 193.47 8.91639L182.134 28.3503C181.389 28.1294 180.699 27.7531 180.109 27.2461C179.122 26.4663 178.027 25.8341 176.858 25.369L177.037 24.9963L177.299 24.6098C179.365 20.4691 181.79 16.6044 184.076 12.6155C185.729 9.71694 187.244 6.73559 189.159 3.9751Z" fill="white" fill-opacity="0.5"/>
<path d="M100.95 135.513C101.701 135.517 102.438 135.719 103.086 136.099C103.734 136.48 104.27 137.025 104.641 137.68L104.324 138.135L95.1922 154.146C95.0237 154.479 94.8351 154.802 94.6274 155.112C94.338 155.426 94.1772 155.837 94.1772 156.265C94.1772 156.692 94.338 157.104 94.6274 157.417C95.4921 158.634 95.9393 160.099 95.9021 161.592C95.8648 163.086 95.3451 164.527 94.4208 165.699C93.8883 165.656 93.3783 165.465 92.9477 165.148C92.5171 164.831 92.1831 164.401 91.9828 163.904C92.1068 163.628 92.2446 163.352 92.3547 163.062C92.7446 162.208 92.8202 161.244 92.5681 160.339C92.3159 159.435 91.7524 158.649 90.9773 158.121C90.2401 157.608 89.356 157.349 88.4588 157.384C87.5617 157.419 86.7003 157.745 86.0049 158.314C85.7486 158.664 85.3936 158.928 84.9856 159.074C83.8837 159.074 83.2088 158.245 82.2308 157.9C82.9101 156.64 83.9532 155.613 85.2236 154.956C86.494 154.298 87.9328 154.04 89.352 154.215C89.6803 154.268 90.0168 154.208 90.3068 154.045C90.5969 153.882 90.8235 153.626 90.9498 153.318C94.0903 147.797 97.2491 142.317 100.426 136.879C100.599 136.697 100.734 136.483 100.824 136.248C100.914 136.014 100.957 135.764 100.95 135.513Z" fill="white" fill-opacity="0.5"/>
<path d="M211.913 199.266C211.912 199.05 211.851 198.839 211.737 198.656C211.622 198.473 211.459 198.326 211.266 198.231C209.641 197.127 208.029 195.995 206.418 194.877C205.808 194.58 205.246 194.194 204.751 193.731C203.621 192.241 202.134 192.158 200.467 192.199C199.201 192.44 197.894 192.34 196.679 191.909C201.404 191.744 206.114 191.799 210.839 191.909C211.093 192.086 211.382 192.206 211.686 192.261C211.99 192.316 212.303 192.304 212.602 192.227C215.701 192.227 218.787 192.227 221.886 192.227C222.79 192.198 223.671 192.513 224.351 193.11C226.472 194.794 228.814 196.202 231.018 197.776C231.459 198.093 232.395 198.231 232.161 198.99C231.927 199.749 231.183 199.294 230.66 199.294L211.913 199.266Z" fill="white" fill-opacity="0.5"/>
<path d="M185.894 179.971C186.151 180.142 186.44 180.257 186.744 180.31C187.047 180.362 187.359 180.35 187.657 180.274C192.111 180.274 196.564 180.274 201.018 180.274C201.469 180.169 201.94 180.2 202.374 180.362C202.808 180.524 203.184 180.81 203.456 181.185C203.552 181.261 203.653 181.33 203.759 181.392C204.379 182.096 206.004 182.22 205.66 183.297C205.412 184.097 203.993 183.601 203.098 183.601C197.34 183.601 191.597 183.601 185.839 183.601C184.839 182.547 183.58 181.776 182.189 181.365C180.04 178.093 178.195 174.643 176.266 171.247C174.73 168.856 173.328 166.382 172.065 163.835L171.817 163.421C171.799 163.417 171.781 163.409 171.766 163.397C171.751 163.385 171.74 163.37 171.732 163.352C171.724 163.335 171.72 163.316 171.72 163.297C171.721 163.278 171.726 163.259 171.735 163.242C171.735 162.717 171.735 162.138 172.52 162.552C173.47 163.084 174.39 163.669 175.274 164.305C175.782 164.741 176.439 164.964 177.106 164.926L185.894 179.971Z" fill="white" fill-opacity="0.5"/>
<path d="M14.1597 112.048C14.1171 112.229 14.1213 112.418 14.1719 112.597C14.2225 112.776 14.3179 112.938 14.449 113.07C15.9641 113.981 17.2038 115.361 19.0219 115.83C18.8153 116.272 18.6225 116.727 18.3746 117.211C16.4186 120.62 14.4352 124.029 12.4793 127.438C10.8539 130.282 9.24238 133.152 7.63082 136.01C7.57156 135.681 7.43592 135.371 7.23491 135.105C7.0339 134.839 6.77316 134.624 6.47381 134.477C5.55095 133.898 4.66941 133.249 3.719 132.683C3.50193 132.574 3.31753 132.409 3.18448 132.206C3.05144 132.002 2.97448 131.767 2.96143 131.524C3.18389 130.883 3.49951 130.278 3.89807 129.729C6.87326 124.54 9.85763 119.35 12.8512 114.16C13.2782 113.318 13.7327 112.656 14.1597 112.048Z" fill="white" fill-opacity="0.5"/>
<path d="M435.769 382.577C435.218 383.35 434.391 383.005 433.716 383.005C423.441 383.005 413.179 383.005 402.904 383.005C402.203 382.885 401.483 382.981 400.838 383.281C401.448 384.074 402.211 384.736 403.083 385.227C404.13 385.986 405.218 386.704 406.306 387.408C406.623 387.532 406.901 387.74 407.109 388.01C407.318 388.28 407.449 388.601 407.491 388.94L394.157 389.023C393.914 389.055 393.667 389.014 393.448 388.903C393.229 388.792 393.049 388.617 392.932 388.401C390.342 383.778 387.518 379.264 385.08 374.599C385.191 373.854 385.452 373.633 386.155 374.13C388.056 375.51 389.998 376.752 391.926 378.077C392.669 378.727 393.591 379.136 394.571 379.25C395.258 379.683 395.752 380.366 395.948 381.155C396.169 381.723 396.571 382.201 397.092 382.516C397.613 382.83 398.223 382.963 398.827 382.894C410.48 382.811 422.119 382.894 433.771 382.894C434.453 382.945 435.137 382.836 435.769 382.577Z" fill="white" fill-opacity="0.5"/>
<path d="M183.194 419.512C183.929 419.438 184.665 419.65 185.247 420.106C185.478 420.31 185.75 420.464 186.044 420.557C186.338 420.649 186.648 420.679 186.955 420.644C184.696 424.992 182.12 429.16 179.71 433.425C179.267 434.304 178.775 435.156 178.236 435.979C177.637 436.58 177.281 437.383 177.238 438.232C177.194 439.081 177.467 439.916 178.002 440.575C178.565 441.439 178.875 442.444 178.897 443.476C178.919 444.509 178.652 445.526 178.126 446.413C177.079 446.331 176.459 445.24 175.371 445.254C175.371 444.771 175.509 444.288 175.522 443.791C175.555 443.162 175.438 442.534 175.182 441.958C174.926 441.383 174.537 440.877 174.048 440.481C173.559 440.085 172.983 439.811 172.368 439.681C171.753 439.551 171.116 439.569 170.509 439.733C169.933 439.929 169.376 440.174 168.842 440.465C167.905 440.009 167.299 438.96 166.087 438.933C166.731 438.042 167.6 437.339 168.604 436.895C169.609 436.451 170.713 436.283 171.803 436.407C172.303 436.484 172.815 436.39 173.255 436.139C173.695 435.889 174.038 435.497 174.228 435.026C177.175 429.851 180.192 424.688 183.194 419.512Z" fill="white" fill-opacity="0.5"/>
<path d="M381.045 316.891C380.69 317.799 380.228 318.661 379.667 319.458C379.468 319.756 379.375 320.113 379.402 320.471C379.43 320.829 379.576 321.168 379.819 321.432C380.506 322.361 380.95 323.448 381.109 324.594C381.268 325.739 381.137 326.906 380.728 327.988C380.16 329.646 379.005 331.038 377.482 331.9C375.959 332.763 374.174 333.035 372.463 332.667C370.714 332.307 369.159 331.312 368.099 329.872C367.038 328.432 366.547 326.65 366.72 324.869C366.867 323.082 367.688 321.419 369.016 320.219C370.345 319.019 372.08 318.371 373.868 318.409C374.493 318.498 375.129 318.37 375.67 318.046C376.212 317.722 376.626 317.222 376.843 316.629C377.138 315.88 377.568 315.192 378.111 314.6C378.496 316.118 379.791 316.463 381.045 316.891ZM373.91 329.644C374.98 329.645 376.009 329.23 376.779 328.486C377.55 327.742 378.003 326.727 378.042 325.655C378.017 324.565 377.574 323.526 376.804 322.755C376.035 321.983 374.998 321.539 373.91 321.515C372.849 321.539 371.839 321.971 371.088 322.721C370.336 323.472 369.902 324.483 369.874 325.545C369.863 326.082 369.959 326.615 370.157 327.114C370.356 327.613 370.652 328.067 371.028 328.449C371.404 328.831 371.853 329.134 372.348 329.339C372.843 329.544 373.374 329.648 373.91 329.644Z" fill="white" fill-opacity="0.5"/>
<path d="M96.0462 388.167C95.978 388.403 95.8808 388.631 95.7569 388.843C95.2576 389.367 94.9699 390.058 94.9496 390.782C94.9292 391.506 95.1776 392.212 95.6467 392.763C96.4336 394.118 96.7368 395.7 96.5064 397.251C96.2761 398.801 95.526 400.227 94.3795 401.293C93.2468 402.408 91.7802 403.118 90.205 403.316C88.6299 403.514 87.0334 403.189 85.6611 402.389C84.2888 401.589 83.2166 400.36 82.6093 398.89C82.002 397.42 81.8932 395.792 82.2997 394.254C82.6848 392.739 83.5547 391.393 84.7761 390.42C85.9975 389.448 87.5032 388.904 89.0627 388.871C89.2455 388.845 89.431 388.845 89.6137 388.871C89.8456 388.955 90.0928 388.99 90.3389 388.972C90.5851 388.954 90.8246 388.884 91.0419 388.767C91.2591 388.649 91.4492 388.487 91.5995 388.291C91.7498 388.095 91.857 387.869 91.914 387.629C92.0357 387.417 92.1838 387.223 92.3547 387.049C92.7766 387.001 93.2036 387.039 93.6106 387.16C94.0176 387.281 94.3962 387.482 94.7239 387.753C94.9049 387.908 95.1155 388.024 95.3427 388.095C95.57 388.167 95.8093 388.191 96.0462 388.167ZM89.3933 400.134C90.4652 400.098 91.4812 399.646 92.2266 398.873C92.972 398.1 93.3884 397.068 93.3878 395.993C93.3393 394.918 92.886 393.902 92.1191 393.149C91.3522 392.395 90.329 391.962 89.2556 391.935C88.7129 391.948 88.178 392.067 87.6814 392.287C87.1849 392.507 86.7364 392.822 86.3616 393.216C85.9868 393.609 85.6931 394.073 85.4972 394.58C85.3012 395.087 85.207 395.628 85.2198 396.172C85.2249 396.71 85.3379 397.242 85.552 397.736C85.7662 398.229 86.0771 398.675 86.4664 399.046C86.8557 399.416 87.3155 399.705 87.8183 399.894C88.3211 400.084 88.8567 400.17 89.3933 400.147V400.134Z" fill="white" fill-opacity="0.5"/>
<path d="M391.045 121.296C392.184 121.75 393.252 122.368 394.213 123.132C394.823 123.648 395.53 124.038 396.292 124.277C396.216 124.892 395.956 125.469 395.549 125.934C393.937 128.777 392.312 131.62 390.645 134.436C389.268 136.658 388.18 138.977 386.678 141.103C385.923 140.897 385.225 140.519 384.64 139.998C383.645 139.222 382.552 138.582 381.389 138.094L381.568 137.707L381.802 137.362C383.304 134.298 385.122 131.413 386.816 128.46C388.18 126.058 389.433 123.574 391.045 121.296Z" fill="white" fill-opacity="0.5"/>
<path d="M74.8756 153.042C74.9451 153.433 75.1061 153.802 75.3456 154.119C75.585 154.436 75.896 154.691 76.253 154.864C76.9968 155.388 77.7682 155.913 78.5533 156.382C78.773 156.489 78.9602 156.653 79.0957 156.857C79.2313 157.061 79.3103 157.297 79.3246 157.541C78.2447 159.82 76.9535 161.992 75.4679 164.029C74.9169 164.719 74.7792 165.74 74.2696 166.513C73.2661 168.434 72.1245 170.279 70.8536 172.034C70.7424 172.437 70.5755 172.823 70.3578 173.18C69.3146 172.235 68.1899 171.385 66.9969 170.64C66.379 170.235 65.9402 169.607 65.771 168.887C68.7003 163.523 71.7352 158.241 74.8756 153.042Z" fill="white" fill-opacity="0.5"/>
<path d="M248.387 47.6738C249.93 49.0541 251.39 50.5862 253.635 50.7518C251.899 54.299 249.751 57.6531 247.808 61.0347C246.844 62.7462 245.797 64.4163 244.778 66.114C244.722 66.1704 244.683 66.2425 244.668 66.321V66.4176C244.114 66.4399 243.574 66.2414 243.167 65.8655C241.899 65.0098 240.605 64.2092 239.31 63.3949C241.541 59.4612 243.759 55.5274 246.018 51.6075C246.704 50.2367 247.496 48.9214 248.387 47.6738Z" fill="white" fill-opacity="0.5"/>
<path d="M188.842 433.646C190.191 434.001 191.434 434.678 192.464 435.62C192.983 436.036 193.552 436.384 194.159 436.655C192.712 439.595 190.963 442.383 189.338 445.213C188.2 447.405 186.945 449.533 185.577 451.589C184.536 451.043 183.537 450.421 182.588 449.726C181.935 449.149 181.142 448.754 180.288 448.58C181.817 445.392 183.732 442.424 185.495 439.374C186.457 437.379 187.576 435.463 188.842 433.646Z" fill="white" fill-opacity="0.5"/>
<path d="M168.002 358.34C166.778 357.998 165.694 357.279 164.903 356.283C165.743 354.765 166.555 353.233 167.423 351.728C170.444 346.456 173.475 341.193 176.514 335.938C176.765 335.369 177.109 334.847 177.533 334.393C178.622 334.931 179.365 336.035 180.619 336.325C180.624 336.76 180.461 337.181 180.164 337.498C176.307 344.206 172.442 350.91 168.566 357.608C168.395 357.865 168.206 358.109 168.002 358.34Z" fill="white" fill-opacity="0.5"/>
<path d="M82.3411 377.056C83.2286 377.242 84.0509 377.661 84.724 378.271C85.6479 378.939 86.6192 379.538 87.6303 380.065C85.0545 384.882 82.3411 389.616 79.4623 394.254C78.1906 393.546 76.9708 392.748 75.8122 391.866C75.3533 391.467 74.7667 391.247 74.1593 391.245C76.7626 386.359 79.5174 381.652 82.3411 377.056Z" fill="white" fill-opacity="0.5"/>
<path d="M180.247 448.635C181.1 448.81 181.893 449.205 182.547 449.781C183.511 450.459 184.524 451.063 185.577 451.589C185.161 452.618 184.634 453.599 184.007 454.515C181.9 458.145 179.875 461.858 177.657 465.378C176.486 465.475 175.825 464.577 175.013 463.998C174.64 463.603 174.188 463.291 173.688 463.082C173.187 462.873 172.649 462.771 172.106 462.783C172.855 461.169 173.715 459.611 174.682 458.118C176.5 454.985 178.222 451.713 180.247 448.635Z" fill="white" fill-opacity="0.5"/>
<path d="M381.389 138.094C382.552 138.582 383.645 139.222 384.64 139.998C385.225 140.519 385.923 140.897 386.678 141.103C386.489 141.761 386.181 142.378 385.769 142.925C383.446 146.918 381.113 150.907 378.772 154.891C376.753 154.341 374.951 153.185 373.607 151.579C374.984 148.818 376.623 146.182 378.152 143.504C379.107 141.629 380.189 139.821 381.389 138.094Z" fill="white" fill-opacity="0.5"/>
<path d="M381.416 188.859C381.131 189.04 380.793 189.117 380.457 189.08C380.122 189.042 379.809 188.891 379.571 188.652C378.813 188.141 378.028 187.672 377.298 187.12C377.091 186.942 376.85 186.809 376.589 186.728C376.328 186.648 376.054 186.621 375.783 186.651C375.676 186.64 375.573 186.607 375.48 186.554C375.4 186.199 375.242 185.867 375.018 185.58C374.794 185.294 374.51 185.061 374.185 184.898C373.981 184.774 373.818 184.593 373.715 184.377C373.612 184.161 373.575 183.92 373.607 183.683C374.534 183.664 375.431 183.349 376.169 182.786C376.953 182.28 377.525 181.504 377.779 180.604C378.033 179.704 377.95 178.743 377.546 177.9C377.184 177.035 376.532 176.323 375.701 175.89C374.871 175.456 373.916 175.327 373.001 175.526C372.032 175.664 371.154 176.172 370.55 176.943C369.947 177.715 369.665 178.691 369.764 179.667C369.764 180.095 369.833 180.536 369.874 180.964C369.823 181.075 369.747 181.171 369.651 181.245C369.555 181.319 369.442 181.368 369.322 181.389C369.203 181.409 369.08 181.4 368.965 181.362C368.85 181.324 368.746 181.259 368.662 181.171C368.114 180.693 367.439 180.386 366.72 180.288C366.506 178.684 366.851 177.056 367.697 175.678C368.543 174.3 369.837 173.257 371.361 172.724C372.896 172.153 374.579 172.122 376.133 172.637C377.687 173.153 379.02 174.183 379.912 175.559C380.804 176.934 381.201 178.573 381.039 180.206C380.877 181.838 380.165 183.366 379.02 184.539C379.529 186.168 380.824 187.313 381.416 188.859Z" fill="white" fill-opacity="0.5"/>
<path d="M241.403 488.966C242.351 489.173 243.232 489.615 243.965 490.25C244.796 490.958 245.724 491.544 246.72 491.989C244.475 496.13 242.161 500.271 239.627 504.287C238.249 503.928 237.313 502.769 236.1 502.093C235.566 501.691 234.95 501.413 234.296 501.278C236.541 497.137 238.897 492.997 241.403 488.966Z" fill="white" fill-opacity="0.5"/>
<path d="M390.37 326.981C390.299 326.591 390.138 326.225 389.898 325.91C389.659 325.596 389.348 325.343 388.992 325.172C388.207 324.62 387.381 324.096 386.568 323.585C386.373 323.498 386.207 323.357 386.09 323.178C385.973 323 385.909 322.791 385.907 322.578C388.152 318.437 390.411 314.296 392.987 310.266C392.97 310.565 393.051 310.862 393.218 311.111C393.384 311.36 393.627 311.548 393.909 311.646C394.998 312.419 396.1 313.164 397.188 313.951C398.276 314.738 398.331 314.903 397.064 315.759C396.642 316.109 396.28 316.523 395.989 316.988C394.368 320.455 392.49 323.795 390.37 326.981Z" fill="white" fill-opacity="0.5"/>
<path d="M176.859 25.369C178.027 25.8341 179.122 26.4664 180.109 27.2461C180.699 27.7532 181.389 28.1294 182.134 28.3503C182.059 28.7814 181.874 29.1857 181.597 29.5235L175.894 39.1853C175.026 39.1573 174.195 38.8196 173.553 38.2329C172.697 37.3302 171.57 36.7339 170.343 36.5352C172.423 32.7809 174.558 28.9853 176.859 25.369Z" fill="white" fill-opacity="0.5"/>
<path d="M96.0463 388.167C95.8005 388.199 95.5509 388.178 95.3135 388.107C95.0762 388.036 94.8565 387.915 94.6689 387.753C94.3412 387.483 93.9626 387.281 93.5556 387.16C93.1486 387.039 92.7216 387.001 92.2997 387.049C93.1728 385.219 94.1572 383.444 95.2474 381.735C97.2446 378.271 99.2832 374.834 101.308 371.383C101.905 371.369 102.486 371.581 102.933 371.977C103.453 372.474 104.111 372.802 104.82 372.915C102.024 378.064 99.1454 383.171 96.0463 388.167Z" fill="white" fill-opacity="0.5"/>
<path d="M381.045 316.891C379.805 316.449 378.496 316.104 378.056 314.613C379.199 312.06 380.81 309.755 382.188 307.326C383.565 304.896 384.943 302.509 386.32 300.107C387.422 300.797 388.91 301.004 389.35 302.509C386.926 306.797 384.497 311.08 382.064 315.359C381.832 315.934 381.486 316.455 381.045 316.891Z" fill="white" fill-opacity="0.5"/>
<path d="M179.117 95.8857C180.495 96.1342 181.101 97.4868 182.368 97.8043C179.71 102.594 177.051 107.383 174.104 112.035C173.528 111.735 172.976 111.394 172.451 111.013C172.2 110.806 171.909 110.653 171.596 110.565C171.283 110.477 170.954 110.456 170.633 110.503C172.809 106.265 175.343 102.221 177.699 98.0803C178.061 97.2825 178.539 96.5429 179.117 95.8857Z" fill="white" fill-opacity="0.5"/>
<path d="M423.221 209.797C422.009 209.797 421.279 208.417 420.011 208.597C420.314 208.293 420.645 208.017 420.92 207.686C421.443 207.149 421.796 206.471 421.938 205.735C422.08 204.999 422.004 204.238 421.719 203.545C421.469 202.844 421.031 202.225 420.453 201.757C419.874 201.29 419.178 200.991 418.441 200.895C417.528 200.802 416.61 201.006 415.822 201.476C415.033 201.945 414.416 202.656 414.061 203.504C412.973 203.504 412.284 202.496 411.306 202.261C411.767 200.904 412.653 199.732 413.832 198.919C415.01 198.106 416.419 197.695 417.849 197.748C419.281 197.672 420.702 198.046 421.911 198.818C423.121 199.59 424.061 200.722 424.598 202.054C425.207 203.327 425.402 204.759 425.154 206.148C424.907 207.538 424.231 208.814 423.221 209.797Z" fill="white" fill-opacity="0.5"/>
<path d="M166.128 438.946C167.299 438.946 167.905 440.009 168.883 440.478C168.369 440.909 167.991 441.479 167.795 442.121C167.435 443.049 167.42 444.076 167.754 445.014C168.088 445.952 168.748 446.738 169.613 447.228C170.45 447.711 171.435 447.869 172.38 447.67C173.326 447.472 174.165 446.931 174.737 446.151C174.971 445.875 175.178 445.571 175.398 445.268C176.486 445.268 177.106 446.344 178.153 446.427C177.624 447.729 176.726 448.846 175.569 449.641C174.413 450.436 173.049 450.873 171.646 450.898C170.244 450.923 168.865 450.535 167.681 449.782C166.497 449.029 165.56 447.944 164.985 446.662C164.337 445.42 164.098 444.004 164.304 442.618C164.509 441.231 165.148 439.946 166.128 438.946Z" fill="white" fill-opacity="0.5"/>
<path d="M303.524 264.248C302.767 263.172 301.348 262.868 300.632 261.764C301.891 259.211 303.294 256.732 304.833 254.338C305.231 253.846 305.448 253.232 305.448 252.599C305.448 251.966 305.231 251.352 304.833 250.86C304.607 250.493 304.418 250.104 304.268 249.7C304.829 249.634 305.395 249.782 305.852 250.115C307.6 251.18 309.262 252.38 310.825 253.703C310.659 254.462 309.778 253.938 309.447 254.462C308.872 254.934 308.431 255.548 308.166 256.243C306.651 258.907 305.287 261.695 303.524 264.248Z" fill="white" fill-opacity="0.5"/>
<path d="M82.3549 157.9C83.2778 158.259 83.9527 159.143 85.1097 159.074C85.0271 159.488 84.9444 159.916 84.848 160.33C84.6689 160.97 84.6501 161.645 84.7933 162.294C84.9366 162.943 85.2374 163.547 85.6692 164.052C86.101 164.557 86.6504 164.948 87.2688 165.189C87.8872 165.431 88.5554 165.516 89.2144 165.437C90.3132 165.26 91.3217 164.721 92.0794 163.904C92.2796 164.401 92.6137 164.831 93.0442 165.148C93.4748 165.465 93.9849 165.656 94.5174 165.699C93.5093 167.121 92.0148 168.121 90.3183 168.511C88.6217 168.9 86.8414 168.651 85.3163 167.811C83.8078 166.995 82.6376 165.668 82.0145 164.068C81.3913 162.468 81.3558 160.698 81.9141 159.074C81.983 158.687 82.1896 158.301 82.3549 157.9Z" fill="white" fill-opacity="0.5"/>
<path d="M372.904 228.417C373.517 228.423 374.108 228.648 374.571 229.052C375.067 229.521 375.69 229.833 376.361 229.949C374.396 233.437 372.427 236.924 370.452 240.412C370.284 240.661 370.095 240.897 369.888 241.115C369.31 240.435 368.626 239.852 367.863 239.39C367.667 239.261 367.51 239.081 367.408 238.87C367.306 238.658 367.263 238.423 367.284 238.189C368.992 234.839 370.867 231.577 372.904 228.417Z" fill="white" fill-opacity="0.5"/>
<path d="M180.605 336.325C179.352 336.035 178.622 334.945 177.52 334.392C178.897 331.48 180.715 328.871 182.217 326.014C182.598 325.526 182.858 324.953 182.974 324.344C184.415 324.57 185.708 325.359 186.569 326.539C184.847 329.396 183.098 332.239 181.431 335.124C181.183 335.552 180.825 335.883 180.605 336.325Z" fill="white" fill-opacity="0.5"/>
<path d="M373.607 183.669C373.575 183.906 373.612 184.147 373.715 184.363C373.818 184.579 373.981 184.76 374.185 184.884C374.51 185.047 374.794 185.28 375.018 185.566C375.242 185.853 375.4 186.185 375.48 186.54C374.488 186.798 373.451 186.834 372.443 186.645C371.436 186.455 370.482 186.045 369.651 185.444C368.819 184.843 368.131 184.066 367.634 183.167C367.136 182.269 366.843 181.271 366.775 180.246C367.506 180.314 368.201 180.598 368.772 181.061C368.856 181.148 368.96 181.214 369.075 181.252C369.191 181.29 369.313 181.299 369.433 181.278C369.552 181.258 369.665 181.209 369.761 181.135C369.857 181.061 369.934 180.964 369.984 180.854C370.33 181.571 370.837 182.199 371.466 182.688C372.094 183.176 372.827 183.512 373.607 183.669Z" fill="white" fill-opacity="0.5"/>
<path d="M391.458 120.537L391.223 120.923C391.209 120.842 391.226 120.757 391.269 120.686C391.312 120.615 391.379 120.562 391.458 120.537Z" fill="white" fill-opacity="0.5"/>
<path d="M177.313 24.6097L177.051 24.9962C177.035 24.9102 177.054 24.8213 177.103 24.7489C177.152 24.6765 177.227 24.6265 177.313 24.6097Z" fill="white" fill-opacity="0.5"/>
<path d="M244.682 66.319C244.697 66.2412 244.735 66.1698 244.791 66.1139V66.2506L244.682 66.319Z" fill="white" fill-opacity="0.5"/>
<path d="M189.558 3.28503C189.563 3.37805 189.539 3.47025 189.49 3.54922C189.44 3.62819 189.368 3.69015 189.283 3.72672C189.274 3.63299 189.296 3.53889 189.346 3.45904C189.395 3.37918 189.47 3.31802 189.558 3.28503Z" fill="white" fill-opacity="0.5"/>
<path d="M189.958 2.59485L189.71 3.00893C189.697 2.9654 189.694 2.91981 189.7 2.87496C189.706 2.83011 189.721 2.78695 189.744 2.74815C189.768 2.70935 189.798 2.67574 189.835 2.64938C189.872 2.62301 189.913 2.60444 189.958 2.59485Z" fill="white" fill-opacity="0.5"/>
<path d="M171.803 163.463L172.051 163.877C171.972 163.842 171.905 163.784 171.861 163.71C171.816 163.635 171.796 163.549 171.803 163.463Z" fill="white" fill-opacity="0.5"/>
<path d="M381.788 137.376L381.554 137.721C381.546 137.683 381.546 137.644 381.554 137.605C381.561 137.567 381.576 137.531 381.598 137.499C381.62 137.466 381.648 137.439 381.681 137.418C381.713 137.397 381.75 137.383 381.788 137.376Z" fill="white" fill-opacity="0.5"/>
<path d="M195.577 501.278H231.872C232.547 501.278 233.249 501.278 233.91 501.361C233.353 501.642 232.717 501.724 232.106 501.595H197.34C197.041 501.671 196.729 501.682 196.425 501.627C196.121 501.572 195.832 501.453 195.577 501.278Z" fill="white" fill-opacity="0.5"/>
<path d="M73.4293 116.313C73.3186 116.26 73.2258 116.175 73.1623 116.07C73.0987 115.965 73.0671 115.843 73.0712 115.72C73.1819 115.773 73.2747 115.858 73.3383 115.963C73.4019 116.069 73.4335 116.19 73.4293 116.313Z" fill="white" fill-opacity="0.5"/>
<path d="M73.7461 116.852C73.6629 116.819 73.5932 116.758 73.5483 116.681C73.5033 116.603 73.4857 116.513 73.4982 116.424L73.7461 116.852Z" fill="white" fill-opacity="0.5"/>
</g>
<defs>
<clipPath id="clip0">
<rect width="463" height="508" fill="white"/>
</clipPath>
</defs>
</svg>
