<svg width="330" height="500" viewBox="0 0 330 500" fill="none" xmlns="http://www.w3.org/2000/svg">
<path d="M0.108887 133.159C0.347601 133.128 0.5709 133.026 0.748365 132.865C0.92583 132.705 1.04883 132.495 1.10062 132.264C1.68884 131.165 2.35629 130.109 3.09785 129.104C3.1109 129.342 3.18784 129.573 3.32088 129.774C3.45393 129.974 3.63835 130.135 3.85542 130.243C4.77828 130.799 5.65982 131.436 6.61023 132.006C6.90959 132.15 7.17032 132.361 7.37133 132.623C7.57235 132.884 7.70798 133.189 7.76724 133.511C9.5354 137.056 11.4941 140.506 13.635 143.846C16.7617 149 19.4889 154.371 22.7672 159.429C24.0344 161.382 25.1638 163.417 26.2795 165.451C26.4467 165.802 26.7212 166.093 27.0645 166.282C27.4078 166.472 27.8028 166.551 28.1941 166.509C40.2142 166.509 52.2298 166.509 64.2407 166.509C64.5427 166.579 64.8588 166.563 65.1517 166.462C65.4446 166.361 65.7021 166.18 65.8936 165.939C66.0628 166.647 66.5017 167.264 67.1195 167.662C68.3126 168.394 69.4373 169.229 70.4804 170.157C70.4883 170.216 70.4883 170.275 70.4804 170.334C69.2407 172.721 69.2407 172.721 66.5961 172.721C52.8221 172.721 39.1582 172.721 25.4393 172.721C24.7832 172.791 24.1213 172.656 23.5477 172.334C22.974 172.013 22.5178 171.522 22.2437 170.93C15.3475 159.05 8.40544 147.196 1.41741 135.369C1.32451 135.045 1.16377 134.744 0.94553 134.485C0.727291 134.225 0.456382 134.014 0.150207 133.864V133.159H0.108887Z" fill="white" fill-opacity="0.5"/>
<path d="M237.38 0C240.42 5.24429 243.459 10.4886 246.499 15.7329C249.116 20.2222 251.76 24.6979 254.377 29.1872C254.454 29.3529 254.514 29.5255 254.556 29.7026C254.305 29.8653 254.004 29.9367 253.705 29.9046C253.406 29.8724 253.127 29.7386 252.917 29.5263C251.016 28.17 249.019 27.0578 247.174 25.6608C246.436 25.0081 245.492 24.6251 244.501 24.5758C244.129 24.0062 243.744 23.4637 243.413 22.8805L233.647 6.25244C233.383 6.04195 233.07 5.89851 232.736 5.83467C232.403 5.77083 232.058 5.78855 231.733 5.88626C227.229 5.88626 222.711 5.88626 218.207 5.88626C217.938 5.95971 217.656 5.97222 217.382 5.92289C217.107 5.87356 216.848 5.76366 216.623 5.60143C215.025 3.86539 212.849 2.88887 210.975 1.53259C210.668 1.39383 210.401 1.18259 210.197 0.917606C209.992 0.652617 209.858 0.342081 209.805 0.0135554H237.353L237.38 0Z" fill="white" fill-opacity="0.5"/>
<path d="M209.818 0C209.871 0.328515 210.006 0.639042 210.21 0.904022C210.415 1.169 210.682 1.38023 210.989 1.51898C212.862 2.87522 215.039 3.83815 216.637 5.5877C216.862 5.74992 217.121 5.85982 217.395 5.90915C217.67 5.95848 217.952 5.94595 218.221 5.8725C222.725 5.8725 227.243 5.8725 231.747 5.8725C232.072 5.77479 232.416 5.75709 232.75 5.82093C233.084 5.88477 233.397 6.02821 233.661 6.23869C221.255 6.23869 208.859 6.23869 196.471 6.23869C196.047 6.17041 195.611 6.24589 195.236 6.45282C194.861 6.65975 194.568 6.98588 194.405 7.37793C192.483 6.82378 190.753 5.75855 189.405 4.29928C189.347 4.19507 189.314 4.07904 189.309 3.96022C189.298 3.9117 189.304 3.86099 189.327 3.81656C189.35 3.77213 189.387 3.73666 189.433 3.71609C189.518 3.68015 189.59 3.61929 189.64 3.54169C189.689 3.46409 189.713 3.37349 189.708 3.2821C189.694 3.22312 189.697 3.16139 189.716 3.10388C189.736 3.04637 189.771 2.99536 189.818 2.95659L190.08 2.57685C190.259 1.64104 191.196 1.03073 191.21 0.0271099H209.832L209.818 0Z" fill="white" fill-opacity="0.5"/>
<path d="M210.961 188.561C211.581 188.561 212.201 188.48 212.807 188.48C228.372 188.48 243.937 188.48 259.501 188.48C260.097 188.42 260.698 188.546 261.217 188.84C261.736 189.135 262.148 189.583 262.394 190.121C270.502 204.046 278.647 217.948 286.829 231.827C287.104 232.301 287.325 232.803 287.573 233.292C286.698 233.329 285.84 233.049 285.162 232.505C282.876 230.932 280.562 229.426 278.275 227.866C277.662 227.452 277.007 227.102 276.319 226.822C275.672 226.551 275.41 226.917 275.327 227.5C275.001 227.219 274.746 226.866 274.584 226.469C269.005 216.976 263.399 207.482 257.89 197.906C257.63 197.341 257.196 196.87 256.65 196.561C256.104 196.252 255.472 196.12 254.846 196.184C235.856 196.247 216.866 196.247 197.876 196.184C197.132 196.184 196.389 196.184 195.645 196.184C195.932 196.01 196.252 195.894 196.585 195.843C196.919 195.792 197.259 195.806 197.587 195.885C202.394 195.885 207.229 195.885 212.008 195.885H230.769C231.292 195.885 232.146 196.17 232.27 195.587C232.394 195.004 231.567 194.705 231.127 194.393C228.923 192.847 226.581 191.464 224.46 189.809C223.78 189.223 222.898 188.912 221.994 188.941C218.895 188.941 215.81 188.941 212.711 188.941C212.409 189.006 212.096 189.005 211.794 188.939C211.492 188.874 211.208 188.745 210.961 188.561Z" fill="white" fill-opacity="0.5"/>
<path d="M230.645 308.374C230.094 308.374 229.529 308.374 228.978 308.374C216.939 308.374 204.901 308.374 192.876 308.374C192.28 308.428 191.681 308.294 191.166 307.992C190.652 307.69 190.247 307.235 190.011 306.693C184.102 296.521 178.124 286.349 172.174 276.232C171.871 275.703 171.609 275.147 171.334 274.618C171.956 274.54 172.585 274.695 173.097 275.052C174.791 276.164 176.471 277.276 178.138 278.429C179.718 279.593 181.374 280.653 183.097 281.602C183.496 281.806 183.896 282.023 184.171 281.44C184.605 281.873 184.951 282.384 185.19 282.945C188.345 288.302 191.513 293.632 194.584 299.03C194.824 299.571 195.232 300.023 195.749 300.32C196.267 300.617 196.867 300.745 197.463 300.684C209.97 300.684 222.477 300.684 234.983 300.684C235.658 300.684 236.361 300.684 237.022 300.684C236.48 300.99 235.842 301.087 235.231 300.956H224.818C224.391 300.956 223.95 300.956 223.523 300.956C223.375 300.91 223.215 300.913 223.069 300.964C222.922 301.016 222.796 301.113 222.711 301.24C222.67 301.42 222.695 301.608 222.78 301.771C222.866 301.935 223.007 302.064 223.179 302.136C223.413 302.325 223.703 302.461 223.964 302.624C225.837 303.899 227.711 305.201 229.598 306.462C229.967 306.616 230.272 306.889 230.463 307.237C230.653 307.585 230.717 307.986 230.645 308.374Z" fill="white" fill-opacity="0.5"/>
<path d="M174.268 110.102C172.257 113.587 170.218 117.059 168.248 120.572C167.794 121.399 166.747 121.928 166.871 123.027C166.995 124.125 168.014 124.383 168.579 125.116C170.251 127.061 171.312 129.443 171.632 131.972C171.953 134.5 171.519 137.066 170.383 139.356C169.645 140.756 168.682 142.029 167.532 143.127C167.374 143.241 167.242 143.387 167.145 143.556C167.049 143.724 166.991 143.911 166.974 144.104C166.957 144.296 166.982 144.49 167.047 144.673C167.113 144.855 167.217 145.022 167.353 145.161C170.011 149.637 172.628 154.126 175.259 158.615C175.934 159.768 176.637 160.961 177.229 162.128C176.561 162.165 175.905 161.946 175.397 161.517C174.512 160.893 173.592 160.318 172.642 159.795C171.898 159.375 171.857 159.958 171.857 160.473C169.612 157.11 167.725 153.529 165.645 150.084C165.039 149.094 164.433 148.091 163.896 147.06C163.83 146.882 163.727 146.72 163.594 146.584C163.461 146.448 163.301 146.34 163.123 146.269C162.945 146.197 162.754 146.163 162.562 146.169C162.371 146.174 162.182 146.219 162.009 146.3C159.076 147.202 155.91 147.029 153.097 145.812C151.194 145.045 149.499 143.851 148.148 142.326C146.797 140.8 145.827 138.984 145.315 137.023C144.915 135.667 145.315 135.667 143.469 135.667H105.342C105.033 135.684 104.724 135.72 104.419 135.776L104.736 135.328H129.598C129.781 135.35 129.966 135.35 130.149 135.328C130.322 135.301 130.482 135.221 130.604 135.098C130.635 135.046 130.654 134.988 130.661 134.928C130.668 134.869 130.662 134.808 130.644 134.751C130.625 134.693 130.595 134.64 130.555 134.595C130.515 134.55 130.466 134.513 130.411 134.487C129.474 133.809 128.538 133.131 127.656 132.372C126.775 131.612 125.397 132.168 124.24 132.073C123.62 132.073 123.001 132.073 122.381 132.073C121.717 132.22 121.021 132.109 120.439 131.761C123.483 131.761 126.513 131.693 129.557 131.68H143.138C144.874 131.68 144.874 131.68 145.356 130.039C146.176 127.194 147.94 124.701 150.366 122.958C152.793 121.215 155.742 120.323 158.744 120.423C159.864 120.439 160.975 120.627 162.036 120.979C162.198 121.063 162.376 121.112 162.558 121.122C162.74 121.133 162.923 121.104 163.093 121.038C163.263 120.973 163.417 120.871 163.543 120.742C163.67 120.612 163.767 120.457 163.827 120.287C165.7 116.992 167.67 113.737 169.571 110.441C169.873 109.775 170.282 109.161 170.783 108.623C171.105 108.577 171.433 108.598 171.746 108.685C172.059 108.771 172.35 108.921 172.601 109.125C173.131 109.491 173.688 109.817 174.268 110.102ZM167.78 133.592C167.785 132.37 167.545 131.159 167.073 130.028C166.601 128.898 165.907 127.871 165.03 127.006C164.152 126.141 163.11 125.456 161.963 124.989C160.816 124.523 159.586 124.285 158.345 124.288C155.837 124.292 153.432 125.269 151.653 127.009C149.873 128.749 148.862 131.11 148.841 133.579C148.791 134.833 148.999 136.084 149.452 137.258C149.906 138.431 150.594 139.502 151.478 140.407C152.361 141.312 153.421 142.032 154.594 142.525C155.767 143.017 157.028 143.271 158.303 143.272C159.578 143.273 160.84 143.021 162.014 142.53C163.187 142.039 164.248 141.321 165.133 140.417C166.018 139.513 166.708 138.443 167.163 137.27C167.618 136.098 167.828 134.847 167.78 133.592Z" fill="white" fill-opacity="0.5"/>
<path d="M179.226 94.2193C180.296 92.0213 181.506 89.8922 182.849 87.8449C183.057 87.5557 183.17 87.2096 183.17 86.8548C183.17 86.5 183.057 86.154 182.849 85.8647C179.818 80.7517 176.788 75.6521 173.84 70.4984C173.628 69.9678 173.241 69.5224 172.742 69.2325C172.243 68.9426 171.66 68.8249 171.086 68.898C170.106 68.9301 169.129 68.7637 168.217 68.409C167.305 68.0544 166.476 67.5191 165.783 66.8363C165.089 66.1535 164.546 65.3377 164.186 64.4396C163.825 63.5414 163.656 62.5801 163.689 61.615C163.727 60.6503 163.962 59.703 164.379 58.8292C164.795 57.9553 165.386 57.1727 166.116 56.5277C166.845 55.8827 167.699 55.3885 168.626 55.0742C169.553 54.7599 170.534 54.632 171.513 54.6981C172.723 54.7807 173.892 55.1642 174.911 55.8126C175.93 56.461 176.765 57.3532 177.339 58.4058C177.913 59.4584 178.206 60.637 178.192 61.8315C178.177 63.026 177.855 64.1974 177.256 65.2362C176.872 65.7627 176.671 66.3983 176.686 67.0468C176.701 67.6953 176.93 68.3214 177.339 68.8302C180.025 73.2245 182.587 77.7001 185.19 82.1351C185.496 82.5435 185.725 83.0029 185.865 83.4913C185.882 83.7192 185.948 83.9408 186.059 84.1415C186.17 84.3421 186.323 84.5171 186.508 84.6546C186.694 84.792 186.907 84.8889 187.133 84.9385C187.359 84.9882 187.594 84.9896 187.821 84.9425C194.148 84.9425 200.475 84.9425 206.802 84.9425C207.163 84.9742 207.525 84.8859 207.829 84.6918C208.134 84.4976 208.364 84.2087 208.482 83.8711C209.127 82.4641 210.222 81.3042 211.601 80.5692C212.979 79.8343 214.564 79.5649 216.113 79.8023C217.861 80.047 219.457 80.9128 220.602 82.2365C221.746 83.5602 222.359 85.2504 222.325 86.9884C222.291 88.7264 221.613 90.3922 220.418 91.6717C219.223 92.9512 217.594 93.756 215.838 93.9344C214.32 94.1649 212.769 93.8897 211.429 93.1525C210.088 92.4154 209.037 91.2585 208.441 89.8657C208.321 89.5253 208.085 89.2359 207.775 89.0459C207.464 88.8558 207.096 88.7765 206.733 88.8214C200.305 88.8214 193.914 88.8214 187.559 88.8214C187.247 88.8116 186.94 88.907 186.689 89.0919C186.439 89.2768 186.26 89.5402 186.182 89.8386C185.09 92.029 183.843 94.141 182.449 96.1587C181.196 95.7925 180.535 94.4498 179.226 94.2193ZM215.039 82.881C213.975 82.8798 212.952 83.2823 212.183 84.0048C211.413 84.7272 210.956 85.714 210.906 86.7599C210.931 87.8314 211.374 88.8523 212.144 89.6102C212.914 90.368 213.95 90.8045 215.039 90.8286C216.135 90.8286 217.186 90.3999 217.961 89.6369C218.735 88.8739 219.171 87.839 219.171 86.7599C219.16 86.2398 219.045 85.7268 218.833 85.2504C218.621 84.774 218.316 84.3433 217.935 83.9831C217.553 83.6229 217.104 83.3402 216.612 83.1511C216.12 82.962 215.594 82.8702 215.066 82.881H215.039ZM170.962 65.7651C172.025 65.7651 173.044 65.3493 173.796 64.6091C174.548 63.869 174.97 62.8651 174.97 61.8184C174.97 60.7717 174.548 59.7678 173.796 59.0277C173.044 58.2875 172.025 57.8717 170.962 57.8717C170.434 57.8735 169.912 57.9778 169.426 58.1786C168.939 58.3794 168.498 58.6728 168.127 59.042C167.755 59.4112 167.462 59.8489 167.263 60.33C167.064 60.8111 166.964 61.3261 166.967 61.8455C166.965 62.3636 167.068 62.8768 167.271 63.3551C167.473 63.8334 167.77 64.2672 168.144 64.631C168.519 64.9948 168.964 65.2812 169.452 65.4737C169.941 65.6661 170.463 65.7605 170.989 65.7515L170.962 65.7651Z" fill="white" fill-opacity="0.5"/>
<path d="M216.912 78.0803C213.937 78.0803 210.962 78.0803 208 78.1481C203.042 78.1481 198.083 78.1481 193.124 78.1481C192.583 78.1957 192.041 78.0745 191.574 77.802C191.107 77.5294 190.738 77.1191 190.521 76.6291C183.487 64.5764 176.421 52.5417 169.323 40.5252C168.981 40.1061 168.794 39.5845 168.794 39.0468C168.794 38.5091 168.981 37.9876 169.323 37.5685C169.722 37.026 170.067 36.4428 170.438 35.8867C171.665 36.0819 172.792 36.668 173.648 37.5549C174.29 38.1315 175.121 38.4633 175.989 38.4908C175.944 38.8526 175.98 39.2198 176.094 39.5666C176.208 39.9134 176.398 40.2313 176.651 40.498C178.854 44.377 181.223 48.161 183.345 52.1077C184.832 54.8202 186.471 57.5328 188.152 60.2453C190.245 63.5546 192.188 67.0267 194.088 70.3902C194.321 70.9061 194.712 71.3376 195.206 71.6244C195.7 71.9113 196.272 72.0393 196.843 71.9906C209.116 71.9906 221.388 71.9906 233.661 71.9906C233.381 72.1805 233.062 72.3081 232.727 72.3643C232.391 72.4205 232.047 72.4041 231.719 72.3162H212.587C212.269 72.2333 211.936 72.217 211.611 72.2684C211.286 72.3198 210.976 72.4377 210.7 72.6145C210.759 72.8645 210.871 73.0996 211.027 73.305C211.184 73.5105 211.382 73.6817 211.609 73.808C212.766 74.6218 213.923 75.422 215.121 76.1544C215.544 76.3274 215.924 76.5894 216.233 76.9221C216.543 77.2548 216.774 77.6501 216.912 78.0803Z" fill="white" fill-opacity="0.5"/>
<path d="M212.022 195.804C207.215 195.804 202.38 195.804 197.601 195.804C197.273 195.725 196.933 195.71 196.599 195.762C196.266 195.813 195.946 195.929 195.659 196.103C193.772 199.195 191.802 202.233 190.053 205.42C187.422 210.194 184.543 214.914 181.788 219.552C181.182 220.75 180.472 221.893 179.667 222.97C177.245 222.128 175.06 220.734 173.29 218.901C174.667 216.04 176.416 213.381 178.014 210.642C182.036 203.738 186.127 196.862 190.121 189.945C190.326 189.447 190.697 189.033 191.172 188.769C191.648 188.506 192.2 188.409 192.739 188.494C194.116 188.616 195.493 188.562 196.871 188.589C198.086 189.012 199.393 189.11 200.659 188.874C202.325 188.874 203.813 188.874 204.942 190.379C205.438 190.834 206 191.214 206.609 191.505C208.221 192.604 209.832 193.716 211.457 194.801C211.633 194.904 211.778 195.051 211.878 195.227C211.977 195.404 212.027 195.603 212.022 195.804Z" fill="white" fill-opacity="0.5"/>
<path d="M184.144 281.535C183.868 282.118 183.469 281.901 183.069 281.698C181.347 280.749 179.69 279.689 178.111 278.524C176.444 277.371 174.763 276.259 173.069 275.147C172.557 274.79 171.928 274.635 171.306 274.713C169.061 270.929 166.802 267.158 164.557 263.374C161.802 258.79 159.199 254.192 156.472 249.635C156.215 249.304 156.075 248.899 156.075 248.482C156.075 248.065 156.215 247.66 156.472 247.329C158.29 244.508 159.777 241.484 161.692 238.717C162.18 238.769 162.639 238.973 163 239.3C164.695 240.466 166.43 241.592 168.138 242.745C167.365 244.334 166.501 245.878 165.549 247.37C164.832 248.726 164.832 248.726 165.714 249.906C166.086 250.394 166.361 250.937 166.692 251.452C169.708 256.24 172.201 261.285 175.218 266.1C177.628 269.993 180.011 273.899 182.105 278.009C182.627 279.266 183.313 280.451 184.144 281.535Z" fill="white" fill-opacity="0.5"/>
<path d="M293.564 253.419C290.81 258.261 288.055 263.075 285.107 267.795C283.895 269.748 282.89 271.864 281.705 273.831C279.432 277.587 277.49 281.548 274.818 285.088C274.566 285.517 274.363 285.971 274.212 286.444C274.137 286.154 273.987 285.888 273.777 285.672C273.568 285.455 273.304 285.296 273.014 285.21C271.829 284.369 270.589 283.609 269.363 282.823C269.082 282.705 268.836 282.518 268.648 282.281C268.461 282.044 268.337 281.763 268.289 281.466C268.73 280.666 269.143 279.852 269.666 279.066C273.652 272.266 277.642 265.485 281.636 258.722C283.537 255.521 285.3 252.239 287.366 249.133C288.868 250.069 290.369 251.004 291.856 251.967C292.537 252.308 293.123 252.806 293.564 253.419Z" fill="white" fill-opacity="0.5"/>
<path d="M120.452 131.707C121.034 132.055 121.731 132.167 122.395 132.019C123.014 132.019 123.634 132.019 124.254 132.019C125.411 132.114 126.775 131.545 127.67 132.318C128.565 133.091 129.488 133.755 130.425 134.434C130.48 134.459 130.529 134.496 130.569 134.541C130.609 134.587 130.639 134.64 130.657 134.697C130.675 134.754 130.681 134.815 130.674 134.875C130.668 134.934 130.648 134.992 130.618 135.044C130.495 135.167 130.336 135.248 130.163 135.274C129.98 135.296 129.795 135.296 129.612 135.274H104.75C104.379 134.631 103.843 134.096 103.195 133.722C102.547 133.348 101.81 133.149 101.059 133.145C99.1027 130.324 97.5325 127.272 95.7694 124.329C94.2818 121.861 92.808 119.393 91.4168 116.87C91.2393 116.429 90.9109 116.063 90.4884 115.835C90.0658 115.607 89.5757 115.532 89.1028 115.622C87.4195 115.731 85.7522 115.244 84.4012 114.249C83.0502 113.254 82.1042 111.817 81.7337 110.197C81.3698 108.634 81.5515 106.995 82.2496 105.546C82.9476 104.097 84.1213 102.922 85.5811 102.21C87.0409 101.498 88.7016 101.292 90.2953 101.624C91.8889 101.956 93.3224 102.807 94.3644 104.04C95.3364 105.154 95.9187 106.547 96.0254 108.012C96.132 109.477 95.7574 110.938 94.9567 112.177C94.5999 112.608 94.405 113.147 94.405 113.703C94.405 114.259 94.5999 114.798 94.9567 115.229C97.9227 120.166 100.838 125.139 103.703 130.148C103.912 130.638 104.275 131.05 104.738 131.323C105.201 131.596 105.741 131.717 106.279 131.667C111.017 131.599 115.742 131.68 120.452 131.707ZM92.9044 108.515C92.8803 107.476 92.453 106.485 91.7102 105.746C90.9673 105.007 89.9654 104.576 88.9099 104.541C87.814 104.541 86.763 104.97 85.988 105.733C85.2131 106.496 84.7777 107.531 84.7777 108.61C84.7885 109.145 84.906 109.672 85.1237 110.161C85.3413 110.651 85.6548 111.093 86.0462 111.464C86.4376 111.834 86.8993 112.125 87.4048 112.319C87.9104 112.514 88.4499 112.608 88.9926 112.598C90.0449 112.532 91.0319 112.073 91.7515 111.314C92.471 110.555 92.8687 109.554 92.8631 108.515H92.9044Z" fill="white" fill-opacity="0.5"/>
<path d="M82.381 117.358C85.4388 122.525 88.4829 127.692 91.582 132.833C91.7538 133.156 91.8171 133.524 91.7626 133.885C91.7081 134.246 91.5388 134.58 91.279 134.84C88.9007 138.909 86.5132 142.978 84.1165 147.046C82.5738 149.65 81.0036 152.227 79.4471 154.804C79.4328 154.564 79.3537 154.332 79.2182 154.132C79.0827 153.931 78.8955 153.77 78.6758 153.665C77.8907 153.204 77.1331 152.688 76.3756 152.173C76.0185 152.003 75.7075 151.752 75.4681 151.441C75.2286 151.13 75.0676 150.767 74.9982 150.383C75.0992 150.1 75.2188 149.823 75.3563 149.555C78.1111 144.809 80.8659 140.062 83.7722 135.355C84.1488 134.86 84.3524 134.258 84.3524 133.64C84.3524 133.021 84.1488 132.419 83.7722 131.924C81.4995 128.289 79.3645 124.573 77.2433 120.857C75.9657 118.924 74.8155 116.913 73.7998 114.835L73.5519 114.415V114.293C73.5561 114.172 73.5244 114.052 73.4608 113.949C73.3972 113.845 73.3045 113.762 73.1938 113.709C72.8138 113.293 72.5358 112.797 72.3811 112.258C72.4637 111.919 72.5051 111.444 73.0422 111.702C73.5794 111.96 73.9513 112.299 74.4196 112.584C77.0643 114.17 79.4058 116.273 82.381 117.358Z" fill="white" fill-opacity="0.5"/>
<path d="M230.645 308.374C230.678 308.01 230.593 307.644 230.402 307.33C230.212 307.016 229.926 306.769 229.584 306.625C227.697 305.363 225.824 304.075 223.95 302.787C223.703 302.61 223.4 302.488 223.165 302.299C222.993 302.227 222.852 302.098 222.767 301.934C222.681 301.771 222.656 301.583 222.697 301.404C222.783 301.276 222.908 301.179 223.055 301.127C223.202 301.076 223.361 301.073 223.51 301.119C223.937 301.119 224.377 301.119 224.804 301.119H235.218C235.828 301.25 236.466 301.153 237.008 300.848H244.612L257.008 300.766C258.744 301.987 260.479 303.234 262.228 304.428C262.457 304.512 262.656 304.659 262.802 304.852C262.949 305.044 263.036 305.273 263.055 305.513C261.678 308.537 261.678 308.537 258.317 308.523H232.683C231.994 308.442 231.32 308.401 230.645 308.374Z" fill="white" fill-opacity="0.5"/>
<path d="M14.2685 110.102C15.9076 106.847 17.9048 103.781 19.7781 100.608C20.7423 98.9168 21.7294 97.2396 22.7395 95.5759C22.7772 95.3356 22.8977 95.1155 23.0808 94.9524C23.2639 94.7894 23.4985 94.6935 23.745 94.6807H25.7836H44.9433C45.8716 94.5244 46.8256 94.7181 47.6154 95.2232C49.3363 96.6007 51.1444 97.8691 53.0286 99.0208C53.3022 99.1369 53.5382 99.3249 53.7106 99.5641C53.8831 99.8033 53.9855 100.084 54.0066 100.377C53.3688 100.566 52.6978 100.622 52.0369 100.54H28.9103C28.2399 100.403 27.5425 100.489 26.9268 100.784L24.7643 104.378C22.8773 107.498 21.1831 110.739 19.1445 113.764C17.3401 113.343 16.1004 111.987 14.5715 111.051C14.4468 110.929 14.3541 110.779 14.3013 110.613C14.2485 110.448 14.2373 110.272 14.2685 110.102Z" fill="white" fill-opacity="0.5"/>
<path d="M26.913 100.731C27.5287 100.436 28.2261 100.35 28.8965 100.487H51.968C52.6289 100.568 53.2999 100.513 53.9377 100.324C53.9165 100.031 53.8141 99.7499 53.6417 99.5107C53.4692 99.2715 53.2333 99.0836 52.9597 98.9675C51.0754 97.8159 49.2674 96.5476 47.5465 95.1701C46.7567 94.665 45.8027 94.4714 44.8744 94.6276H25.7147H23.6761C24.2271 94.6276 24.7781 94.5327 25.329 94.5327C39.3234 94.5327 53.3178 94.5327 67.3122 94.5327C67.8788 94.4807 68.4478 94.6027 68.941 94.882C69.4343 95.1613 69.8276 95.5841 70.067 96.0924C73.8411 102.67 77.7116 109.193 81.5545 115.73C81.8576 116.259 82.1055 116.802 82.381 117.344C79.4058 116.259 77.0642 114.157 74.4058 112.57C73.9375 112.286 73.5105 111.919 73.0284 111.689C72.5463 111.458 72.4637 111.906 72.3673 112.245C70.2048 109.058 68.359 105.667 66.4582 102.317C66.2134 101.776 65.7998 101.324 65.2773 101.029C64.7548 100.734 64.1505 100.611 63.5519 100.676C51.3344 100.744 39.1306 100.731 26.913 100.731Z" fill="white" fill-opacity="0.5"/>
<path d="M185.962 180.777C184.075 183.991 182.27 187.274 180.259 190.42C177.807 194.258 175.838 198.368 173.372 202.179C173.028 202.585 172.845 203.101 172.858 203.629C172.871 204.158 173.078 204.665 173.441 205.054C174.292 206.164 174.761 207.512 174.781 208.902C174.801 210.292 174.37 211.653 173.551 212.785C172.796 213.946 171.715 214.867 170.44 215.435C169.165 216.004 167.749 216.197 166.365 215.99C164.981 215.784 163.687 215.186 162.64 214.271C161.593 213.356 160.838 212.161 160.466 210.832C160.16 209.785 160.106 208.681 160.308 207.609C160.511 206.538 160.965 205.527 161.633 204.658C162.302 203.789 163.167 203.086 164.16 202.604C165.153 202.122 166.246 201.874 167.353 201.881C167.889 201.93 168.426 201.809 168.887 201.536C169.348 201.262 169.708 200.851 169.915 200.362C173.785 193.702 177.711 187.07 181.595 180.411C181.868 180.122 182.073 179.778 182.196 179.404C182.32 179.029 182.359 178.632 182.312 178.241C183.703 178.645 184.962 179.403 185.962 180.438C185.948 180.551 185.948 180.664 185.962 180.777ZM171.499 208.92C171.492 207.876 171.067 206.878 170.316 206.142C169.566 205.405 168.55 204.99 167.491 204.987C166.395 204.987 165.344 205.415 164.569 206.178C163.794 206.941 163.359 207.976 163.359 209.055C163.403 210.1 163.846 211.09 164.599 211.826C165.353 212.563 166.361 212.993 167.422 213.029C168.515 213.015 169.559 212.574 170.323 211.804C171.087 211.034 171.51 209.997 171.499 208.92Z" fill="white" fill-opacity="0.5"/>
<path d="M216.912 78.0807C216.778 77.6455 216.548 77.2448 216.238 76.9073C215.929 76.5697 215.547 76.3035 215.121 76.1277C213.923 75.3817 212.752 74.5951 211.609 73.7813C211.382 73.655 211.184 73.4838 211.027 73.2784C210.871 73.0729 210.76 72.8378 210.7 72.5878C210.976 72.411 211.286 72.2931 211.611 72.2417C211.936 72.1903 212.269 72.2066 212.587 72.2894H231.719C232.047 72.3774 232.391 72.3938 232.727 72.3376C233.062 72.2814 233.381 72.1539 233.661 71.964L239.405 62.3481C240.686 63.1483 241.994 63.9349 243.262 64.7758C243.669 65.1451 244.209 65.3402 244.763 65.3183C242.601 69.3871 240.08 73.3609 237.78 77.4025C237.643 77.6715 237.426 77.8926 237.157 78.0358C236.889 78.179 236.582 78.2372 236.278 78.2027L216.912 78.0807Z" fill="white" fill-opacity="0.5"/>
<path d="M293.564 253.419C293.123 252.766 292.521 252.234 291.815 251.873C290.327 250.91 288.826 249.988 287.325 249.038C287.391 248.74 287.384 248.431 287.305 248.137C287.226 247.842 287.077 247.57 286.87 247.343C284.115 242.664 281.361 238.012 278.606 233.319C277.392 231.444 276.306 229.491 275.355 227.474C275.438 226.891 275.713 226.524 276.347 226.796C277.034 227.075 277.69 227.425 278.303 227.84C280.589 229.4 282.903 230.919 285.19 232.478C285.868 233.023 286.726 233.303 287.6 233.265C290.456 238.084 293.321 242.903 296.195 247.723C296.357 247.941 296.445 248.205 296.445 248.475C296.445 248.746 296.357 249.01 296.195 249.228C295.245 250.598 294.597 252.131 293.564 253.419Z" fill="white" fill-opacity="0.5"/>
<path d="M303.633 259.657C301.057 264.16 298.688 268.785 295.658 273.016C295.245 273.586 294.983 274.264 294.57 274.875C294.344 275.265 294.247 275.716 294.294 276.164C294.341 276.611 294.529 277.033 294.832 277.37C295.428 278.249 295.817 279.249 295.969 280.296C296.122 281.343 296.033 282.41 295.711 283.419C295.388 284.428 294.84 285.352 294.106 286.125C293.372 286.897 292.471 287.497 291.471 287.881C290.132 288.395 288.669 288.508 287.265 288.206C285.861 287.905 284.578 287.202 283.578 286.186C282.6 285.152 281.948 283.86 281.704 282.468C281.459 281.076 281.632 279.644 282.201 278.347C282.768 277.033 283.734 275.924 284.968 275.173C286.201 274.423 287.641 274.067 289.088 274.156C289.619 274.254 290.167 274.161 290.635 273.895C291.102 273.629 291.458 273.206 291.636 272.705C294.391 267.876 297.256 263.075 300.079 258.274C300.3 257.908 300.575 257.569 300.823 257.229C301.457 258.315 302.889 258.599 303.633 259.657ZM292.862 281.29C292.888 280.24 292.491 279.223 291.758 278.461C291.025 277.699 290.016 277.253 288.95 277.221C287.861 277.199 286.807 277.601 286.018 278.34C285.229 279.08 284.768 280.096 284.735 281.168C284.735 282.247 285.171 283.282 285.945 284.045C286.72 284.808 287.771 285.236 288.867 285.236C289.918 285.202 290.916 284.775 291.658 284.042C292.401 283.309 292.831 282.324 292.862 281.29Z" fill="white" fill-opacity="0.5"/>
<path d="M168.083 242.745C166.361 241.606 164.639 240.467 162.945 239.3C162.583 238.973 162.125 238.769 161.637 238.717C162.546 236.723 163.785 234.906 164.887 233.021C167.325 228.803 169.805 224.598 172.27 220.394C172.504 219.833 172.845 219.322 173.276 218.888C175.046 220.721 177.231 222.115 179.653 222.957C175.976 229.684 172.077 236.235 168.083 242.745Z" fill="white" fill-opacity="0.5"/>
<path d="M185.962 180.777C185.948 180.664 185.948 180.551 185.962 180.438C191.719 180.438 197.463 180.438 203.221 180.438C204.102 180.438 205.521 180.926 205.783 180.14C206.127 179.082 204.488 178.96 203.882 178.268C203.776 178.207 203.675 178.139 203.579 178.064C203.307 177.696 202.93 177.415 202.497 177.255C202.063 177.096 201.591 177.066 201.141 177.169C196.687 177.169 192.233 177.169 187.78 177.169C187.481 177.244 187.17 177.256 186.866 177.204C186.562 177.153 186.273 177.039 186.017 176.871C195.576 176.871 205.121 176.871 214.681 176.871C215.252 176.962 215.837 176.856 216.339 176.572C216.841 176.288 217.228 175.843 217.435 175.311C218.186 173.925 219.397 172.834 220.866 172.22C222.334 171.605 223.972 171.504 225.507 171.934C227.074 172.318 228.465 173.206 229.46 174.458C230.454 175.711 230.994 177.255 230.994 178.844C230.994 180.434 230.454 181.978 229.46 183.23C228.465 184.482 227.074 185.371 225.507 185.755C223.965 186.17 222.325 186.051 220.861 185.42C219.397 184.788 218.198 183.68 217.463 182.282C217.257 181.751 216.869 181.307 216.366 181.027C215.863 180.747 215.277 180.649 214.708 180.75C205.08 180.804 195.521 180.777 185.962 180.777ZM223.579 174.864C223.05 174.864 222.527 174.966 222.039 175.165C221.551 175.364 221.108 175.656 220.735 176.024C220.361 176.391 220.065 176.828 219.863 177.308C219.661 177.789 219.557 178.304 219.557 178.824C219.557 179.344 219.661 179.859 219.863 180.34C220.065 180.82 220.361 181.257 220.735 181.624C221.108 181.992 221.551 182.284 222.039 182.483C222.527 182.682 223.05 182.784 223.579 182.784C224.127 182.805 224.674 182.714 225.185 182.517C225.696 182.32 226.16 182.021 226.548 181.639C226.936 181.257 227.24 180.8 227.44 180.297C227.64 179.794 227.732 179.255 227.711 178.715C227.678 177.667 227.225 176.675 226.451 175.955C225.676 175.236 224.643 174.848 223.579 174.877V174.864Z" fill="white" fill-opacity="0.5"/>
<path d="M263.055 305.404C263.036 305.165 262.949 304.935 262.802 304.743C262.656 304.551 262.457 304.404 262.228 304.319C260.479 303.112 258.744 301.878 257.008 300.657C259.019 297.172 261.003 293.673 263.055 290.201C264.79 287.258 266.402 284.247 268.317 281.398C268.364 281.696 268.488 281.976 268.676 282.213C268.864 282.45 269.11 282.637 269.391 282.755C270.617 283.541 271.857 284.301 273.041 285.142C273.332 285.228 273.595 285.387 273.805 285.604C274.015 285.82 274.165 286.086 274.24 286.376C272.789 289.181 271.17 291.898 269.391 294.514C268.84 295.287 268.537 296.236 268.014 297.05C266.388 299.871 264.887 302.692 263.055 305.404Z" fill="white" fill-opacity="0.5"/>
<path d="M244.501 24.562C245.492 24.6112 246.436 24.9943 247.174 25.647C249.019 27.0033 251.017 28.1968 252.917 29.5123C253.127 29.7247 253.406 29.8584 253.705 29.8906C254.004 29.9228 254.305 29.8514 254.557 29.6886C256.526 32.4961 258.041 35.5612 259.846 38.4636C259.982 38.6677 260.048 38.909 260.036 39.1527C260.023 39.3965 259.933 39.63 259.777 39.8198C257.752 43.1562 255.92 46.6011 253.744 49.8696C251.499 49.6933 250.025 48.215 248.496 46.8452C249.322 45.0007 250.479 43.3461 251.444 41.583C253.179 38.45 253.193 39.7113 251.444 36.5919C249.171 32.5639 246.65 28.7257 244.501 24.562Z" fill="white" fill-opacity="0.5"/>
<path d="M189.267 3.90576C189.273 4.02458 189.306 4.14061 189.364 4.24483C190.711 5.70413 192.441 6.7694 194.364 7.32356C194.102 7.79825 193.868 8.30007 193.579 8.7612L182.243 27.8574C181.498 27.6404 180.808 27.2706 180.218 26.7724C179.231 26.0062 178.136 25.385 176.967 24.9279L177.146 24.5617L177.408 24.182C179.474 20.1131 181.898 16.3156 184.185 12.396C185.838 9.54785 187.353 6.6183 189.267 3.90576Z" fill="white" fill-opacity="0.5"/>
<path d="M101.059 133.158C101.81 133.162 102.547 133.361 103.195 133.735C103.843 134.109 104.379 134.644 104.75 135.288L104.433 135.735L95.301 151.468C95.1325 151.795 94.9439 152.112 94.7363 152.417C94.4468 152.726 94.286 153.13 94.286 153.55C94.286 153.97 94.4468 154.374 94.7363 154.682C95.6009 155.878 96.0481 157.318 96.0109 158.785C95.9736 160.252 95.4539 161.668 94.5296 162.82C93.9971 162.778 93.4871 162.59 93.0565 162.279C92.6259 161.968 92.2918 161.544 92.0916 161.057C92.2156 160.785 92.3533 160.514 92.4635 160.229C92.8534 159.39 92.929 158.442 92.6768 157.554C92.4247 156.665 91.8612 155.893 91.0861 155.374C90.3489 154.869 89.4648 154.615 88.5676 154.649C87.6705 154.683 86.8091 155.005 86.1137 155.564C85.8574 155.907 85.5023 156.167 85.0944 156.31C83.9925 156.31 83.3176 155.496 82.3396 155.157C83.0189 153.918 84.0619 152.91 85.3324 152.264C86.6028 151.618 88.0416 151.364 89.4608 151.536C89.7891 151.588 90.1256 151.529 90.4156 151.369C90.7057 151.209 90.9323 150.957 91.0586 150.654C94.1991 145.229 97.3579 139.845 100.535 134.501C100.708 134.322 100.843 134.111 100.933 133.881C101.023 133.651 101.066 133.405 101.059 133.158Z" fill="white" fill-opacity="0.5"/>
<path d="M212.022 195.805C212.021 195.593 211.96 195.385 211.846 195.206C211.731 195.026 211.568 194.881 211.375 194.788C209.749 193.703 208.138 192.59 206.526 191.492C205.917 191.2 205.355 190.821 204.86 190.366C203.73 188.901 202.243 188.82 200.576 188.86C199.31 189.097 198.003 188.998 196.788 188.575C201.513 188.413 206.223 188.467 210.948 188.575C211.202 188.749 211.49 188.867 211.795 188.921C212.099 188.975 212.411 188.963 212.711 188.887C215.81 188.887 218.895 188.887 221.995 188.887C222.898 188.859 223.78 189.169 224.46 189.755C226.581 191.41 228.923 192.794 231.127 194.34C231.568 194.652 232.504 194.788 232.27 195.534C232.036 196.28 231.292 195.832 230.769 195.832L212.022 195.805Z" fill="white" fill-opacity="0.5"/>
<path d="M186.003 176.844C186.259 177.013 186.549 177.126 186.852 177.178C187.156 177.229 187.467 177.217 187.766 177.143C192.22 177.143 196.673 177.143 201.127 177.143C201.578 177.04 202.049 177.069 202.483 177.229C202.916 177.388 203.293 177.669 203.565 178.038C203.661 178.112 203.762 178.18 203.868 178.241C204.488 178.933 206.113 179.055 205.769 180.113C205.521 180.9 204.102 180.411 203.207 180.411C197.449 180.411 191.706 180.411 185.948 180.411C184.948 179.376 183.689 178.618 182.298 178.214C180.149 175 178.303 171.609 176.375 168.273C174.839 165.923 173.437 163.492 172.174 160.99L171.926 160.583C171.907 160.579 171.89 160.57 171.875 160.559C171.86 160.547 171.848 160.532 171.84 160.515C171.832 160.498 171.828 160.479 171.829 160.46C171.829 160.441 171.834 160.423 171.843 160.406C171.843 159.891 171.843 159.321 172.628 159.728C173.579 160.251 174.498 160.826 175.383 161.451C175.891 161.88 176.547 162.098 177.215 162.061L186.003 176.844Z" fill="white" fill-opacity="0.5"/>
<path d="M14.2685 110.102C14.2259 110.279 14.2301 110.465 14.2807 110.64C14.3313 110.816 14.4267 110.976 14.5578 111.105C16.0729 112 17.3126 113.357 19.1307 113.818C18.9241 114.252 18.7313 114.699 18.4834 115.174C16.5275 118.524 14.544 121.874 12.5881 125.224C10.9628 128.018 9.35123 130.839 7.73968 133.646C7.68042 133.324 7.54479 133.019 7.34377 132.758C7.14276 132.496 6.88203 132.285 6.58267 132.141C5.65982 131.571 4.77829 130.934 3.82788 130.378C3.61081 130.271 3.42641 130.109 3.29337 129.909C3.16033 129.709 3.08337 129.477 3.07031 129.239C3.29278 128.609 3.6084 128.015 4.00695 127.475C6.98212 122.376 9.96648 117.276 12.96 112.177C13.387 111.349 13.8415 110.698 14.2685 110.102Z" fill="white" fill-opacity="0.5"/>
<path d="M74.9845 150.383C75.0539 150.768 75.215 151.13 75.4544 151.442C75.6939 151.753 76.0049 152.004 76.3619 152.174C77.1057 152.689 77.877 153.204 78.6621 153.665C78.8818 153.771 79.069 153.932 79.2045 154.132C79.3401 154.332 79.4191 154.564 79.4335 154.805C78.3535 157.044 77.0623 159.178 75.5768 161.179C75.0258 161.857 74.8881 162.861 74.3784 163.62C73.375 165.508 72.2333 167.321 70.9625 169.045C70.8513 169.441 70.6844 169.82 70.4666 170.171C69.4235 169.243 68.2988 168.408 67.1058 167.675C66.4879 167.277 66.0491 166.661 65.8799 165.953C68.8091 160.682 71.844 155.492 74.9845 150.383Z" fill="white" fill-opacity="0.5"/>
<path d="M248.496 46.8452C250.038 48.2016 251.498 49.7071 253.744 49.8699C252.008 53.3557 249.859 56.6516 247.917 59.9747C246.953 61.6566 245.906 63.2977 244.887 64.9661C244.83 65.0215 244.792 65.0924 244.777 65.1695V65.2645C244.223 65.2864 243.683 65.0913 243.275 64.7219C242.008 63.881 240.713 63.0943 239.419 62.294C241.65 58.4285 243.868 54.5628 246.127 50.7108C246.813 49.3637 247.605 48.0712 248.496 46.8452Z" fill="white" fill-opacity="0.5"/>
<path d="M176.967 24.9287C178.136 25.3857 179.231 26.007 180.218 26.7731C180.808 27.2713 181.498 27.6411 182.243 27.8581C182.168 28.2817 181.983 28.6789 181.706 29.0109L176.003 38.5044C175.134 38.4769 174.304 38.1451 173.662 37.5686C172.806 36.6817 171.679 36.0957 170.452 35.9005C172.532 32.2116 174.667 28.482 176.967 24.9287Z" fill="white" fill-opacity="0.5"/>
<path d="M179.226 94.2197C180.604 94.4639 181.21 95.793 182.477 96.105C179.819 100.811 177.16 105.518 174.213 110.088C173.637 109.794 173.085 109.459 172.56 109.085C172.309 108.881 172.018 108.731 171.705 108.644C171.391 108.558 171.063 108.537 170.741 108.583C172.918 104.419 175.452 100.445 177.808 96.3762C178.17 95.5923 178.648 94.8655 179.226 94.2197Z" fill="white" fill-opacity="0.5"/>
<path d="M303.633 259.658C302.876 258.6 301.457 258.301 300.741 257.217C302 254.708 303.403 252.272 304.942 249.92C305.34 249.437 305.557 248.833 305.557 248.211C305.557 247.589 305.34 246.986 304.942 246.502C304.716 246.142 304.527 245.76 304.377 245.363C304.938 245.298 305.504 245.443 305.961 245.77C307.709 246.817 309.371 247.996 310.933 249.296C310.768 250.042 309.887 249.527 309.556 250.042C308.981 250.505 308.54 251.108 308.275 251.792C306.76 254.409 305.396 257.149 303.633 259.658Z" fill="white" fill-opacity="0.5"/>
<path d="M82.4638 155.157C83.3866 155.509 84.0616 156.377 85.2186 156.31C85.1359 156.717 85.0533 157.137 84.9569 157.544C84.7777 158.173 84.759 158.836 84.9022 159.474C85.0455 160.112 85.3463 160.706 85.7781 161.202C86.2099 161.698 86.7593 162.082 87.3777 162.319C87.9961 162.557 88.6643 162.64 89.3232 162.562C90.4221 162.389 91.4306 161.859 92.1882 161.057C92.3884 161.545 92.7225 161.968 93.1531 162.279C93.5837 162.591 94.0937 162.778 94.6262 162.82C93.6182 164.217 92.1237 165.201 90.4271 165.583C88.7305 165.966 86.9503 165.721 85.4252 164.895C83.9167 164.093 82.7465 162.79 82.1234 161.218C81.5002 159.645 81.4647 157.906 82.023 156.31C82.0919 155.93 82.2985 155.55 82.4638 155.157Z" fill="white" fill-opacity="0.5"/>
<path d="M177.422 24.1816L177.16 24.5615C177.144 24.477 177.162 24.3896 177.211 24.3184C177.261 24.2473 177.336 24.1981 177.422 24.1816Z" fill="white" fill-opacity="0.5"/>
<path d="M244.791 65.167C244.806 65.0905 244.844 65.0203 244.9 64.9653V65.0998L244.791 65.167Z" fill="white" fill-opacity="0.5"/>
<path d="M189.667 3.22803C189.672 3.31944 189.648 3.41005 189.598 3.48767C189.549 3.56528 189.477 3.62617 189.391 3.66211C189.382 3.56999 189.404 3.47752 189.454 3.39904C189.504 3.32056 189.579 3.26044 189.667 3.22803Z" fill="white" fill-opacity="0.5"/>
<path d="M190.066 2.5498L189.818 2.95654C189.806 2.91378 189.803 2.86901 189.809 2.82495C189.815 2.78089 189.83 2.7385 189.853 2.70039C189.876 2.66228 189.907 2.62926 189.944 2.60336C189.981 2.57747 190.022 2.55923 190.066 2.5498Z" fill="white" fill-opacity="0.5"/>
<path d="M171.912 160.623L172.16 161.03C172.081 160.996 172.014 160.939 171.97 160.866C171.925 160.793 171.905 160.708 171.912 160.623Z" fill="white" fill-opacity="0.5"/>
<path d="M73.5382 114.294C73.4275 114.241 73.3347 114.158 73.2711 114.054C73.2075 113.95 73.1759 113.831 73.1801 113.709C73.2908 113.762 73.3836 113.845 73.4472 113.949C73.5107 114.053 73.5424 114.173 73.5382 114.294Z" fill="white" fill-opacity="0.5"/>
<path d="M73.8549 114.822C73.7717 114.789 73.702 114.73 73.657 114.654C73.6121 114.578 73.5944 114.489 73.6069 114.401L73.8549 114.822Z" fill="white" fill-opacity="0.5"/>
</svg>
