<svg width="120" height="44" viewBox="0 0 120 44" fill="none" xmlns="http://www.w3.org/2000/svg">
<path d="M120 0H0V43.2356H120V0Z" fill="#10284B"/>
<path d="M13.0797 27.4556C12.1562 27.7328 11.2133 27.5858 10.2898 27.5914C9.73183 27.5914 9.51701 27.231 9.5198 26.6433C9.5198 20.8253 9.5198 15.0037 9.5198 9.17831C9.5198 8.56287 9.79879 8.28011 10.34 8.28565C12.8816 8.30783 15.426 8.24961 17.9592 8.38822C20.099 8.50466 23.6812 10.3288 24.5209 12.5465C24.9757 13.7525 25.4667 14.9334 25.5699 16.2475C25.5504 17.5726 25.6648 18.906 25.3858 20.2145C25.0231 23.2224 23.5919 25.4817 21.201 27.0785C19.5968 27.9407 16.7037 27.9684 14.974 27.7716C14.791 27.6802 14.6481 27.5254 14.5723 27.3363C14.4241 26.3729 14.4317 25.3921 14.5946 24.4311C14.7013 24.2306 14.8624 24.0638 15.0597 23.9496C15.2569 23.8355 15.4824 23.7785 15.7105 23.7851C19.0137 24.0152 20.5956 22.496 20.8578 18.7951C20.9255 17.9426 20.9087 17.0856 20.8076 16.2364C20.0404 11.0274 14.9489 11.7232 13.9975 12.2638C13.9418 12.3664 13.8832 12.4606 13.8329 12.566C13.6098 13.101 13.6516 13.6748 13.646 14.2293C13.6181 18.4375 13.7074 22.6485 13.6014 26.8568C13.5845 26.9969 13.5258 27.1288 13.4329 27.2356C13.3399 27.3423 13.2169 27.4189 13.0797 27.4556Z" fill="white"/>
<path d="M42.3957 27.3306C42.3734 24.3422 42.3455 21.3565 42.326 18.3708C42.3064 15.3851 42.326 12.4715 42.326 9.52189C42.326 8.70686 42.5519 8.27162 43.4001 8.28271C46.0142 8.31598 48.6311 8.21895 51.2424 8.32152C55.0534 8.47122 57.2295 12.2026 55.7704 15.9507C55.3351 17.0596 54.5233 17.7997 53.4408 18.4041C55.43 19.3577 55.9712 21.0488 56.0047 23.0282C56.0242 24.223 56.0047 25.4178 56.0047 26.6126C56.0047 27.3195 55.7257 27.6189 55.0534 27.6162C51.7306 27.5968 52.297 27.9655 52.2244 24.8107C52.2049 23.9402 51.1085 21.0626 50.411 20.6939C49.4262 20.1755 48.486 20.4611 47.557 20.1395C46.7619 19.3411 46.7925 18.4457 47.0548 17.5281C47.317 16.6105 48.2349 16.4192 48.9938 16.3665C49.2365 16.3499 49.482 16.3665 49.7247 16.3471C51.1196 16.3083 51.7222 15.7927 51.8143 14.5756C51.9315 13.026 51.4823 12.3995 50.0734 12.0474C49.1416 11.8145 48.207 11.8644 47.2668 11.87C47.1244 11.8546 46.9806 11.8834 46.8552 11.9523C46.7299 12.0213 46.629 12.1271 46.5666 12.2553C46.2876 12.8097 46.2876 13.3947 46.2876 13.9963C46.2653 18.3542 46.3434 22.7093 46.2513 27.0673C46.2281 27.2037 46.1788 27.3345 46.1062 27.4526C44.9122 28.1595 43.7042 28.0708 42.4794 27.5219L42.3957 27.3306Z" fill="white"/>
<path d="M92.2198 21.007C92.3398 19.1136 92.3398 19.1136 94.1728 19.1108H95.5286C96.745 19.1108 96.8566 18.9029 96.3237 17.7081C96.1267 17.2276 95.7837 16.8201 95.3427 16.5424C94.9017 16.2646 94.3845 16.1304 93.8631 16.1584C92.6885 16.1584 91.6312 16.5909 91.1206 17.8217C90.3367 19.7318 90.3451 21.7028 91.2992 23.5214C92.3761 25.5756 95.205 25.6422 96.5999 23.7376C96.9766 22.942 97.6684 23.222 98.2738 23.1832C98.6543 23.147 99.0373 23.147 99.4177 23.1832C99.9757 23.2553 100.238 23.5519 99.9087 24.1618C98.8932 26.2548 98.1093 27.1419 95.4979 28.0013C94.7447 28.248 93.6064 28.1649 92.8392 27.9847C90.6073 27.6825 87.9988 25.9915 87.067 22.4763C86.5313 20.6743 86.6848 19.1801 87.1283 17.4502C88.1411 14.4174 92.3872 12.9482 94.9567 13.2919C97.2611 13.5996 98.79 15.044 99.7329 17.2617C99.8641 17.7801 100.517 20.0866 100.481 20.7714C100.444 21.4561 100.149 21.8193 99.5126 21.822C97.3895 21.822 95.2664 21.822 93.1461 21.8359C92.563 21.8525 92.3426 21.5143 92.2198 21.007Z" fill="white"/>
<path d="M35.8506 13.6221C38.4312 14.4538 40.4259 18.0577 40.0103 20.9186C39.9321 21.4481 39.6894 21.7115 39.1733 21.7087C37.0474 21.7087 34.9215 21.7087 32.7929 21.7087C31.981 21.7087 31.9754 21.0766 31.9559 20.4529C31.9559 19.7792 31.9754 19.1361 32.8375 19.1333C33.7442 19.1333 34.6537 19.0862 35.5548 19.1333C36.3555 19.1804 36.4225 18.8367 36.1937 18.1381C35.7697 16.849 34.7988 16.1171 33.468 16.1476C32.7778 16.1514 32.1098 16.3901 31.5752 16.8239C31.0407 17.2578 30.6719 17.8605 30.5303 18.5318C30.1939 19.8386 30.2083 21.2103 30.5721 22.5099C30.9348 23.835 31.6881 24.7471 32.9826 25.0049C34.2771 25.2627 35.3986 24.9578 36.2914 23.8655C36.7098 23.3526 38.8887 23.0089 39.3993 23.3665C39.7424 23.6077 39.6643 23.9209 39.5276 24.2536C39.19 25.0853 38.4368 26.4326 37.8091 26.829C32.3158 30.2776 27.3303 26.3799 26.817 23.2528C26.4459 20.999 26.4041 18.8173 27.3136 16.7076C28.4323 14.1849 32.1791 12.4855 35.8506 13.6221Z" fill="white"/>
<path d="M80.0868 23.6241C80.0868 21.5338 80.0617 19.4436 80.1063 17.3561C80.1231 16.6104 79.9752 16.225 79.2024 16.347C78.2566 16.4967 77.9274 16.0559 77.9163 15.0191C77.9051 13.9823 78.2538 13.6497 79.1912 13.6552C80.8652 13.6552 81.5347 12.9372 81.5961 11.1796C81.6575 9.42202 80.8512 8.47115 79.3028 8.34917C77.7014 8.22442 76.6218 9.01728 76.5743 10.6612C76.5353 12.003 75.9634 12.1499 74.9451 12.1222C72.8945 12.0667 72.5235 11.5927 73.0647 9.4442C73.2216 8.79904 73.5144 8.19432 73.924 7.66998C75.3189 5.91794 78.3738 5.30805 80.9265 6.28387C82.8962 7.03237 83.9535 8.77886 84.0093 11.3543C84.0093 11.4651 84.0093 11.5788 84.0093 11.6897C84.0847 12.3051 83.5546 13.0758 84.0093 13.4778C84.3553 13.78 85.0723 13.6164 85.6247 13.6164C85.869 13.6322 86.1027 13.722 86.2942 13.8737C86.4857 14.0253 86.6259 14.2315 86.696 14.4647C87.0447 15.8868 86.6067 16.5716 85.3317 16.7739C84.0568 16.9763 84.0484 16.9763 84.0428 18.3319C84.0372 19.6876 84.0233 21.0737 84.0428 22.4459C84.0623 23.8182 84.2158 23.9817 85.4712 24.2284C85.9218 24.3401 86.321 24.6 86.6039 24.9659C87.1451 25.8835 87.0336 26.7428 86.2747 27.6909C86.1289 27.8381 85.9579 27.9583 85.7698 28.0458C84.8247 28.2513 83.8521 28.3019 82.8906 28.1955C82.0676 28.1373 80.0561 28.3868 80.0868 23.6241Z" fill="white"/>
<path d="M66.7652 25.6781C65.4316 27.5743 63.78 28.0705 61.8383 27.7739C59.8965 27.4773 58.8057 26.4044 58.5267 24.3419C58.0999 21.0762 58.4095 17.7856 58.3426 14.5088C58.3426 14.1623 58.4374 13.7853 58.7973 13.7132C59.6501 13.5266 60.5335 13.5266 61.3863 13.7132C61.8997 13.8352 61.8383 14.3924 61.8383 14.8387C61.8383 16.929 61.8383 19.0165 61.8383 21.1067C61.827 21.6622 61.8522 22.2178 61.9136 22.77C62.1201 24.2781 62.7701 24.8853 64.1232 24.9019C65.3926 24.9157 66.2491 24.2088 66.4778 22.8588C66.8684 20.5661 66.6257 18.2458 66.662 15.9282C66.6982 13.6106 67.379 13.0534 69.5216 13.6134C69.9903 13.7354 70.1381 14.0542 70.1381 14.5061C70.1381 18.572 70.1381 22.6379 70.1381 26.7038C70.1381 27.3082 69.8592 27.5882 69.3012 27.5882H68.6818C66.9772 27.6103 66.9772 27.6103 66.7652 25.6781Z" fill="white"/>
<path d="M110.834 16.466C110.647 17.1008 109.648 17.0565 109.138 17.0038C107.001 16.7876 106.002 18.5535 105.79 20.1808C105.689 20.9431 105.717 25.2345 105.72 26.5957C105.72 27.4273 105.508 27.6796 104.755 27.7877C103.884 27.9125 103.053 27.9125 102.272 27.4883H102.289C102.15 27.1046 102.085 26.6983 102.099 26.2907C102.099 22.5205 102.124 18.7475 102.099 14.9773C102.099 13.9682 102.406 13.5912 103.371 13.5912C105.346 13.6189 105.346 13.5773 105.773 15.7591C106.571 14.348 107.642 13.3971 109.06 13.3084C111.621 13.1393 111.013 15.845 110.834 16.466Z" fill="white"/>
<path d="M72.9531 20.6747C72.9531 18.7008 72.9754 16.7243 72.9531 14.7504C72.9531 13.9354 73.2321 13.6027 73.9881 13.6055C76.8756 13.6055 76.4766 13.4419 76.485 16.1005C76.485 19.5297 76.4655 22.959 76.485 26.3854C76.485 27.3114 76.1837 27.644 75.33 27.6357C72.5402 27.6052 72.9754 27.8076 72.9503 25.1574C72.9419 23.6548 72.9531 22.1633 72.9531 20.6747Z" fill="white"/>
<path d="M70.3949 11.2152C70.8942 11.4231 71.1956 11.5839 70.6739 11.7918C70.459 11.8888 69.8592 11.595 68.919 11.2734C66.8629 10.6025 62.0252 9.88727 58.2338 11.8722C57.5057 11.7696 57.8544 11.3371 58.1417 11.2179C63.9558 8.80057 69.915 11.0156 70.3949 11.2152Z" fill="white"/>
<path d="M70.3418 12.1053C70.3418 12.8316 69.9317 12.4878 69.6471 12.3991C67.958 11.8561 66.2035 11.5401 64.43 11.4594C62.547 11.3559 60.6643 11.6683 58.9173 12.3742C58.6076 12.5017 58.2533 12.754 58.231 12.097C59.0751 11.6318 59.9872 11.3007 60.9343 11.1156C63.5042 10.5646 66.1732 10.6762 68.6874 11.4399C69.7643 11.8142 69.8815 11.792 70.3418 12.1053Z" fill="white"/>
<path d="M70.3837 8.34638C70.5245 8.3131 70.6592 8.2579 70.7826 8.18282C71.0254 8.5737 70.6571 8.80934 70.5762 9.11983C70.5429 9.15418 70.498 9.17514 70.4502 9.17872C70.4023 9.1823 70.3548 9.16824 70.3167 9.13924C70.3167 9.24181 70.4144 9.23349 70.473 9.24181C70.5738 9.24052 70.673 9.26771 70.7589 9.32022C70.8449 9.37273 70.914 9.4484 70.9584 9.53843C70.4479 10.3174 69.5858 10.5558 68.9023 11.0742C68.4615 11.0493 67.9928 11.1047 67.7082 10.6113C67.6594 9.93421 67.7447 9.2542 67.9593 8.60974C68.0184 8.5273 68.0945 8.4583 68.1825 8.40736C68.5368 8.23272 68.9385 8.35469 69.2984 8.19945C69.6639 8.19668 70.0154 8.37133 70.3837 8.34638Z" fill="white"/>
<path d="M59.665 10.8826C59.0847 10.6497 58.722 10.0509 58.1055 9.85683C58.0488 9.82576 58.0001 9.78204 57.9634 9.72913C57.9266 9.67622 57.9026 9.61554 57.8934 9.55188C58.0329 9.21645 58.3426 9.27466 58.616 9.27466C58.8169 8.9767 59.1115 8.75332 59.4538 8.63945C59.796 8.52559 60.1666 8.52767 60.5075 8.64537C60.8842 8.92259 61.032 9.25526 60.7865 9.7099C60.4461 10.1341 60.6861 11.1986 59.665 10.8826Z" fill="white"/>
<path d="M66.1765 3.87434C67.7444 4.07394 67.8895 4.35394 67.2032 5.88143C67.1669 6.55231 67.0414 7.16219 66.3383 7.39783C66.2692 7.40684 66.199 7.40121 66.1323 7.38132C66.0655 7.36143 66.0038 7.32773 65.9511 7.28243C65.8983 7.23713 65.8559 7.18126 65.8265 7.11849C65.7971 7.05572 65.7813 6.98748 65.7803 6.91824C65.7246 6.38597 66.1402 6.02559 66.2156 5.53213C66.3579 5.07749 65.9645 4.91393 65.8055 4.61453C65.5878 4.22642 65.3702 3.73019 66.1765 3.87434Z" fill="white"/>
<path d="M62.678 5.88191C61.7852 5.46885 61.6094 4.8451 62.2706 4.32115C62.5496 4.09106 62.996 3.63641 63.0155 4.59838C63.0323 5.34133 63.6879 5.48826 64.1985 5.73498L64.2236 5.91795C64.1699 6.0271 64.0817 6.11573 63.9725 6.17022C63.7516 6.25044 63.5121 6.26591 63.2827 6.2148C63.0532 6.16368 62.8433 6.04814 62.678 5.88191Z" fill="white"/>
<path d="M69.6583 6.46644C70.0266 6.77693 69.9373 7.44226 70.4646 7.63632C70.7212 7.7278 71.0393 7.94126 70.8217 8.26006C70.6738 8.4763 70.3223 8.37927 70.0907 8.20185C69.7336 8.27393 69.3793 8.42086 69.0166 8.3072C68.8709 8.22312 68.7562 8.09478 68.6894 7.94107C68.6226 7.78736 68.6072 7.61639 68.6456 7.45335C68.6314 7.15622 68.7189 6.86308 68.8939 6.62169C68.989 6.51968 69.1139 6.44984 69.251 6.42199C69.3881 6.39415 69.5305 6.40969 69.6583 6.46644Z" fill="white"/>
<path d="M60.0193 9.59662C59.5087 9.10871 58.761 9.15306 58.1752 8.83703C58.0441 8.29922 57.0592 7.86398 58.0971 7.1737C58.7192 7.32063 59.0958 7.77527 59.4501 8.25764C59.5757 8.72337 60.1197 8.68179 60.3568 9.01445C60.3996 9.07506 60.4269 9.145 60.4366 9.21836C60.4464 9.29171 60.4381 9.36631 60.4126 9.43583C60.3725 9.50038 60.3128 9.55067 60.2422 9.57954C60.1715 9.60841 60.0935 9.61439 60.0193 9.59662Z" fill="white"/>
<path d="M63.4955 6.15347L63.2946 5.07785C63.28 5.00935 63.2793 4.93865 63.2925 4.86988C63.3057 4.8011 63.3325 4.73564 63.3715 4.6773C63.4105 4.61896 63.4607 4.56894 63.5194 4.53014C63.578 4.49134 63.6439 4.46454 63.7131 4.45133C64.0673 4.3835 64.4341 4.43842 64.7525 4.60692C65.0708 4.77543 65.3214 5.04733 65.4623 5.37725C65.5033 5.45271 65.5252 5.53692 65.5262 5.62265C65.5271 5.70837 65.5071 5.79305 65.4679 5.8694C65.4286 5.94575 65.3713 6.01149 65.3009 6.06097C65.2304 6.11045 65.1489 6.1422 65.0634 6.15347C64.4831 6.17565 64.0423 6.30871 63.462 6.13406L63.4955 6.15347Z" fill="white"/>
<path d="M63.3057 4.34314C63.1735 4.38835 63.0307 4.39318 62.8956 4.357C62.7227 4.21008 62.8956 4.07978 62.9877 3.99107C63.5708 3.39504 64.2933 3.53088 65.0215 3.71385C65.4204 3.90236 65.8947 3.96335 66.0677 4.52888C65.931 5.08332 65.5097 4.78947 65.2614 4.70907C64.6186 4.5431 63.9652 4.42084 63.3057 4.34314Z" fill="white"/>
<path d="M59.6427 6.34755C59.916 6.07448 60.2772 5.90546 60.6632 5.86999C61.0492 5.83453 61.4355 5.93486 61.7546 6.15349C61.7923 6.18037 61.82 6.21879 61.8337 6.26285C61.8473 6.30691 61.846 6.35419 61.8299 6.39745C61.7277 6.55038 61.5947 6.68063 61.4393 6.78001C61.4195 6.81048 61.3971 6.83923 61.3724 6.86595C61.1101 7.17644 61.5509 7.80297 61.0599 7.93049C60.5215 8.0691 60.5019 7.37604 60.223 7.09882C60.0053 6.87704 59.5785 6.83546 59.6427 6.34755Z" fill="white"/>
<path d="M59.6427 6.34755C59.8435 6.72734 60.3345 6.4474 60.5465 6.80224C60.5762 7.01268 60.5522 7.22715 60.4768 7.42599C60.4325 7.54965 60.3475 7.6549 60.2357 7.72479C60.1239 7.79469 59.9916 7.82517 59.8602 7.81133C59.4585 7.53411 58.8363 7.63113 58.6187 7.01293C58.7499 6.40858 59.3637 6.65526 59.6427 6.34755Z" fill="white"/>
<path d="M58.6271 7.01501C58.9731 7.41144 59.9049 6.85144 59.8602 7.88271C59.8145 7.98893 59.7311 8.07476 59.6259 8.1239C59.1042 8.10172 59.2102 7.74687 58.3481 7.60826C58.2832 7.60633 58.221 7.58197 58.1723 7.53937C58.1235 7.49678 58.0912 7.43861 58.081 7.37491C58.0707 7.3112 58.0832 7.24594 58.1162 7.19036C58.1491 7.13479 58.2006 7.09238 58.2616 7.07045C58.3727 7.0085 58.5026 6.9888 58.6271 7.01501Z" fill="white"/>
<path d="M68.8046 6.32525L68.3247 6.79099C68.1071 7.01554 67.9871 7.64483 67.5631 6.9989C67.5461 6.91624 67.5483 6.83083 67.5696 6.74916C67.5909 6.66749 67.6306 6.59172 67.6858 6.52762C67.9257 5.62942 68.3805 6.06189 68.8046 6.32525Z" fill="white"/>
<path d="M68.9887 8.14957C69.0979 8.02027 69.236 7.9181 69.3919 7.8512C69.5479 7.7843 69.7174 7.75452 69.887 7.76423C69.8647 8.0664 70.1214 8.16897 70.2581 8.35471C69.9066 8.47669 69.555 8.67629 69.1896 8.38798C69.1324 8.37981 69.0803 8.35097 69.0432 8.30697C69.0061 8.26297 68.9867 8.20692 68.9887 8.14957Z" fill="white"/>
<path d="M70.445 8.98069C70.2023 8.61753 70.7101 8.47892 70.657 8.17398C71.215 8.12408 71.2429 8.19616 71.0476 9.00564C70.8384 9.23297 70.6375 9.25792 70.445 8.98069Z" fill="white"/>
<path d="M70.445 8.42688L71.0476 8.44906L70.8328 8.97578C70.4512 8.93986 70.0843 8.81134 69.7643 8.60153C69.9652 8.39361 70.2163 8.44906 70.445 8.42688Z" fill="white"/>
<path d="M67.0944 6.58035C67.1342 6.50983 67.195 6.45331 67.2684 6.41855C67.3419 6.3838 67.4244 6.37253 67.5045 6.38629L67.6886 6.52767V7.0239C67.6077 7.35103 67.8923 7.80844 67.4097 7.99418C67.3583 7.9867 67.309 7.96881 67.2648 7.94163C67.2207 7.91445 67.1826 7.87855 67.153 7.83616C66.8405 7.43142 67.2423 6.99341 67.0944 6.58035Z" fill="white"/>
<path d="M65.546 10.3952L63.6795 10.3675L63.448 10.1762C63.0379 8.85942 64.1622 8.56556 64.7564 7.91964C65.2251 7.4844 65.7998 7.41509 66.3829 7.36519C66.8544 7.2848 67.418 7.00758 67.4152 7.91964L67.4431 7.89469C67.7807 8.03607 68.0568 8.23289 68.0401 8.68477C68.1684 9.36119 68.1796 10.0237 67.8113 10.6253H67.4235C67.0553 10.3481 66.9381 9.86574 66.6982 9.48594L65.546 10.3952Z" fill="white"/>
<path d="M67.9146 8.70333C67.7574 8.63058 67.6206 8.52042 67.5165 8.3826C67.4124 8.24479 67.344 8.08357 67.3176 7.91325L67.6942 7.02059C67.9732 7.1897 68.0708 6.72674 68.3247 6.78496L68.5702 7.4891C68.2048 7.76632 68.5507 8.29027 68.2578 8.59799L67.9146 8.70333Z" fill="white"/>
<path d="M68.3722 8.04674C68.2634 7.60595 67.8589 7.07369 68.6847 6.93785C68.6947 7.07448 68.7394 7.20636 68.8145 7.32124C68.8896 7.43611 68.9927 7.53024 69.1143 7.59486L69.3152 7.83605C69.1004 8.38772 68.6903 7.99406 68.3722 8.04674Z" fill="white"/>
<path d="M61.9973 9.51854C61.9471 9.94269 61.657 10.1756 61.3752 10.4195C60.7112 10.7106 60.2983 10.6718 60.5717 9.72368C60.8786 9.42982 60.6582 9.13874 60.5717 8.84766L60.6861 8.63143C61.4087 8.14352 61.0181 7.24532 61.3557 6.60216L61.8076 6.35543L62.8092 6.63265C63.5904 6.71028 64.458 6.58275 64.8402 7.61125C64.8616 7.72279 64.8559 7.8378 64.8235 7.94669C64.4152 8.43593 63.9571 8.88186 63.4565 9.27735C62.9905 9.56012 62.4716 9.36052 61.9973 9.51854Z" fill="white"/>
<path d="M63.0463 6.45307C62.837 6.34218 62.0921 6.47247 62.2093 6.00397C62.3404 5.4218 63.1774 5.95961 63.5429 5.94021C64.2552 5.57272 65.0029 5.27738 65.7747 5.05865C66.143 5.05865 66.263 5.76279 66.6284 5.76279L65.9673 6.85504C65.7106 7.38731 65.373 7.75601 64.7202 7.50651C64.2431 7.01306 63.4647 7.02138 63.0463 6.45307Z" fill="white"/>
<path d="M61.2245 6.59981C61.2106 7.35385 61.5342 8.23819 60.5549 8.62907L60.3066 8.39897C60.0276 8.05522 60.2257 7.66988 60.2229 7.29009L60.4266 6.79109C60.7056 7.01564 60.4405 7.55068 60.9065 7.72256C60.8352 7.33688 60.8137 6.94376 60.8423 6.55268C60.9371 6.10081 61.0906 6.57763 61.2245 6.59981Z" fill="white"/>
<path d="M60.3512 6.747C60.6609 7.08798 60.5688 7.465 60.4349 7.85588C60.0388 7.90856 59.6342 8.28835 59.2576 7.81153L59.7402 7.38183C59.7509 7.38733 59.7627 7.39054 59.7747 7.39127C59.7868 7.39199 59.7988 7.3902 59.8101 7.38602C59.8214 7.38185 59.8317 7.37538 59.8403 7.36701C59.8489 7.35865 59.8557 7.3486 59.8602 7.33748L60.3512 6.747Z" fill="white"/>
<path d="M66.3383 7.45593C66.3558 7.38859 66.3679 7.32 66.3746 7.25078C66.8656 7.33118 67.0023 6.89594 67.2115 6.57991C67.6523 6.97079 67.3315 7.48642 67.4096 7.9383C67.2422 7.31732 66.7568 7.46702 66.3383 7.45593Z" fill="white"/>
<path d="M63.2694 9.0395L62.9263 9.74088C62.4883 10.1234 62.2484 9.41375 61.8606 9.52187C62.2874 9.18643 62.7924 9.13653 63.2694 9.0395Z" fill="white"/>
<path d="M13.3049 35.8463L14.1062 35.9496C14.0187 36.4977 13.7938 36.9274 13.4316 37.2389C13.0725 37.5474 12.6303 37.7016 12.1052 37.7016C11.4472 37.7016 10.9175 37.489 10.5161 37.0637C10.1177 36.6354 9.91849 36.023 9.91849 35.2263C9.91849 34.7112 10.0045 34.2604 10.1765 33.8741C10.3486 33.4877 10.6097 33.1987 10.9598 33.0071C11.3129 32.8124 11.6962 32.715 12.1097 32.715C12.6318 32.715 13.0589 32.8468 13.3909 33.1104C13.7229 33.3709 13.9357 33.7423 14.0292 34.2245L13.237 34.3458C13.1615 34.0253 13.0272 33.7842 12.834 33.6225C12.6439 33.4608 12.413 33.3799 12.1414 33.3799C11.7309 33.3799 11.3974 33.5267 11.1409 33.8202C10.8843 34.1107 10.756 34.5719 10.756 35.2038C10.756 35.8448 10.8798 36.3105 11.1273 36.601C11.3748 36.8915 11.6977 37.0367 12.0961 37.0367C12.416 37.0367 12.6831 36.9394 12.8974 36.7447C13.1117 36.5501 13.2475 36.2506 13.3049 35.8463Z" fill="white"/>
<path d="M14.7943 37.5938V32.8229H15.5278V33.5461C15.7149 33.2077 15.8869 32.9846 16.0439 32.8768C16.2038 32.769 16.3789 32.715 16.569 32.715C16.8437 32.715 17.1228 32.8019 17.4066 32.9756L17.1259 33.7258C16.9267 33.609 16.7275 33.5506 16.5283 33.5506C16.3502 33.5506 16.1902 33.6045 16.0484 33.7124C15.9065 33.8172 15.8054 33.9639 15.7451 34.1526C15.6545 34.4401 15.6092 34.7546 15.6092 35.096V37.5938H14.7943Z" fill="white"/>
<path d="M21.1823 36.0574L22.0243 36.1607C21.8915 36.6489 21.6456 37.0278 21.2864 37.2973C20.9272 37.5668 20.4685 37.7016 19.9101 37.7016C19.2069 37.7016 18.6485 37.4875 18.235 37.0592C17.8246 36.6279 17.6193 36.0245 17.6193 35.2488C17.6193 34.4461 17.8276 33.8232 18.2441 33.3799C18.6606 32.9367 19.2009 32.715 19.8649 32.715C20.5077 32.715 21.0329 32.9322 21.4403 33.3664C21.8478 33.8007 22.0515 34.4117 22.0515 35.1993C22.0515 35.2473 22.05 35.3191 22.047 35.415H18.4614C18.4916 35.9391 18.641 36.3404 18.9096 36.6189C19.1782 36.8975 19.5132 37.0367 19.9146 37.0367C20.2134 37.0367 20.4685 36.9589 20.6798 36.8031C20.891 36.6474 21.0585 36.3988 21.1823 36.0574ZM18.5067 34.7501H21.1913C21.1551 34.3488 21.0525 34.0478 20.8835 33.8471C20.6239 33.5357 20.2874 33.3799 19.8739 33.3799C19.4997 33.3799 19.1843 33.5042 18.9277 33.7528C18.6742 34.0014 18.5338 34.3338 18.5067 34.7501Z" fill="white"/>
<path d="M26.1894 37.0053C25.8876 37.2599 25.5963 37.4396 25.3157 37.5444C25.038 37.6492 24.7392 37.7016 24.4193 37.7016C23.8911 37.7016 23.4851 37.5743 23.2014 37.3198C22.9177 37.0622 22.7759 36.7343 22.7759 36.3359C22.7759 36.1023 22.8287 35.8897 22.9343 35.698C23.043 35.5033 23.1833 35.3476 23.3554 35.2308C23.5304 35.114 23.7266 35.0256 23.9439 34.9657C24.1039 34.9238 24.3453 34.8834 24.6683 34.8444C25.3262 34.7666 25.8106 34.6737 26.1215 34.5659C26.1245 34.4551 26.126 34.3847 26.126 34.3548C26.126 34.0253 26.0491 33.7932 25.8951 33.6584C25.6869 33.4758 25.3775 33.3844 24.9671 33.3844C24.5837 33.3844 24.3 33.4518 24.1159 33.5866C23.9348 33.7183 23.8005 33.9535 23.713 34.2919L22.9162 34.1841C22.9886 33.8456 23.1079 33.5731 23.2739 33.3664C23.4399 33.1568 23.6798 32.9966 23.9937 32.8858C24.3076 32.7719 24.6713 32.715 25.0848 32.715C25.4952 32.715 25.8287 32.763 26.0853 32.8588C26.3418 32.9546 26.5305 33.0759 26.6512 33.2227C26.7719 33.3664 26.8564 33.5491 26.9047 33.7708C26.9319 33.9085 26.9455 34.1571 26.9455 34.5165V35.5947C26.9455 36.3464 26.9621 36.8226 26.9953 37.0233C27.0315 37.2209 27.1009 37.4111 27.2035 37.5938H26.3524C26.2679 37.4261 26.2136 37.2299 26.1894 37.0053ZM26.1215 35.1993C25.8257 35.3191 25.3821 35.421 24.7905 35.5048C24.4555 35.5527 24.2185 35.6067 24.0797 35.6666C23.9409 35.7265 23.8337 35.8148 23.7583 35.9316C23.6828 36.0454 23.6451 36.1727 23.6451 36.3135C23.6451 36.5291 23.7266 36.7088 23.8896 36.8526C24.0556 36.9963 24.297 37.0682 24.6139 37.0682C24.9278 37.0682 25.207 37.0008 25.4515 36.866C25.6959 36.7283 25.8755 36.5411 25.9902 36.3045C26.0777 36.1218 26.1215 35.8522 26.1215 35.4958V35.1993Z" fill="white"/>
<path d="M29.9923 36.8705L30.11 37.5848C29.8806 37.6327 29.6754 37.6567 29.4943 37.6567C29.1985 37.6567 28.9691 37.6103 28.8062 37.5174C28.6432 37.4246 28.5285 37.3033 28.4621 37.1535C28.3957 37.0008 28.3625 36.6818 28.3625 36.1967V33.4518H27.7649V32.8229H28.3625V31.6414L29.1729 31.1562V32.8229H29.9923V33.4518H29.1729V36.2416C29.1729 36.4722 29.1864 36.6204 29.2136 36.6863C29.2438 36.7522 29.2906 36.8046 29.354 36.8436C29.4204 36.8825 29.5139 36.902 29.6346 36.902C29.7252 36.902 29.8444 36.8915 29.9923 36.8705Z" fill="white"/>
<path d="M30.7981 31.9379V31.0079H31.613V31.9379H30.7981ZM30.7981 37.5938V32.8229H31.613V37.5938H30.7981Z" fill="white"/>
<path d="M32.858 37.5938V32.8229H33.5915V33.5012C33.9446 32.9771 34.4546 32.715 35.1217 32.715C35.4114 32.715 35.677 32.7675 35.9185 32.8723C36.1629 32.9741 36.3455 33.1089 36.4663 33.2766C36.587 33.4443 36.6715 33.6435 36.7198 33.8741C36.75 34.0238 36.7651 34.2859 36.7651 34.6603V37.5938H35.9501V34.6917C35.9501 34.3623 35.9185 34.1167 35.8551 33.9549C35.7917 33.7902 35.6785 33.6599 35.5155 33.5641C35.3556 33.4653 35.1669 33.4159 34.9496 33.4159C34.6025 33.4159 34.3022 33.5252 34.0487 33.7438C33.7982 33.9624 33.6729 34.3772 33.6729 34.9882V37.5938H32.858Z" fill="white"/>
<path d="M37.8697 37.9891L38.662 38.1059C38.6952 38.3485 38.7872 38.5252 38.9381 38.636C39.1403 38.7858 39.4165 38.8607 39.7666 38.8607C40.1439 38.8607 40.4351 38.7858 40.6404 38.636C40.8456 38.4863 40.9844 38.2766 41.0569 38.0071C41.0991 37.8424 41.1188 37.4965 41.1157 36.9694C40.7596 37.3857 40.3159 37.5938 39.7847 37.5938C39.1237 37.5938 38.6122 37.3572 38.25 36.884C37.8878 36.4108 37.7067 35.8433 37.7067 35.1814C37.7067 34.7261 37.7897 34.3069 37.9557 33.9235C38.1217 33.5372 38.3617 33.2392 38.6755 33.0295C38.9925 32.8199 39.3637 32.715 39.7893 32.715C40.3567 32.715 40.8245 32.9427 41.1927 33.3979V32.8229H41.9442V36.9469C41.9442 37.6896 41.8673 38.2153 41.7133 38.5237C41.5624 38.8352 41.321 39.0808 40.989 39.2605C40.66 39.4402 40.254 39.53 39.7711 39.53C39.1977 39.53 38.7344 39.4012 38.3813 39.1437C38.0282 38.8891 37.8576 38.5043 37.8697 37.9891ZM38.5443 35.123C38.5443 35.7489 38.6695 36.2056 38.92 36.4932C39.1705 36.7807 39.4844 36.9244 39.8617 36.9244C40.2359 36.9244 40.5498 36.7822 40.8034 36.4977C41.0569 36.2101 41.1836 35.7609 41.1836 35.1499C41.1836 34.5659 41.0524 34.1257 40.7898 33.8292C40.5302 33.5327 40.2163 33.3844 39.8481 33.3844C39.4859 33.3844 39.1781 33.5312 38.9245 33.8247C38.671 34.1152 38.5443 34.5479 38.5443 35.123Z" fill="white"/>
<path d="M45.9554 37.5938V33.4518H45.2355V32.8229H45.9554V32.3152C45.9554 31.9948 45.984 31.7567 46.0414 31.6009C46.1198 31.3913 46.2572 31.2221 46.4534 31.0933C46.6526 30.9615 46.9302 30.8956 47.2864 30.8956C47.5157 30.8956 47.7693 30.9226 48.0469 30.9765L47.9247 31.6818C47.7557 31.6518 47.5957 31.6369 47.4448 31.6369C47.1973 31.6369 47.0223 31.6893 46.9197 31.7941C46.817 31.8989 46.7657 32.0951 46.7657 32.3826V32.8229H47.7029V33.4518H46.7657V37.5938H45.9554Z" fill="white"/>
<path d="M48.3231 37.5938V31.0079H49.138V37.5938H48.3231Z" fill="white"/>
<path d="M50.1023 35.2083C50.1023 34.3248 50.3498 33.6704 50.8448 33.2451C51.2583 32.8917 51.7623 32.715 52.3569 32.715C53.0179 32.715 53.5581 32.9307 53.9776 33.362C54.3972 33.7902 54.6069 34.3832 54.6069 35.1409C54.6069 35.7549 54.5134 36.2386 54.3262 36.592C54.1421 36.9424 53.872 37.2149 53.5159 37.4096C53.1627 37.6043 52.7764 37.7016 52.3569 37.7016C51.6838 37.7016 51.1391 37.4875 50.7225 37.0592C50.3091 36.6309 50.1023 36.014 50.1023 35.2083ZM50.9399 35.2083C50.9399 35.8193 51.0742 36.2775 51.3428 36.583C51.6114 36.8855 51.9494 37.0367 52.3569 37.0367C52.7613 37.0367 53.0978 36.884 53.3665 36.5785C53.6351 36.273 53.7694 35.8073 53.7694 35.1814C53.7694 34.5914 53.6336 34.1451 53.3619 33.8426C53.0933 33.5372 52.7583 33.3844 52.3569 33.3844C51.9494 33.3844 51.6114 33.5357 51.3428 33.8381C51.0742 34.1406 50.9399 34.5974 50.9399 35.2083Z" fill="white"/>
<path d="M56.454 37.5938L54.9827 32.8229H55.8247L56.8751 36.601C56.8871 36.5501 56.9701 36.2221 57.1241 35.6171L57.8892 32.8229H58.7267L59.4465 35.5902L59.6865 36.5021L59.9627 35.5812L60.7866 32.8229H61.5789L60.0758 37.5938H59.2292L58.4641 34.7366L58.2785 33.9235L57.3052 37.5938H56.454Z" fill="white"/>
<path d="M65.5583 36.0574L66.4004 36.1607C66.2676 36.6489 66.0216 37.0278 65.6624 37.2973C65.3033 37.5668 64.8445 37.7016 64.2862 37.7016C63.5829 37.7016 63.0246 37.4875 62.6111 37.0592C62.2006 36.6279 61.9954 36.0245 61.9954 35.2488C61.9954 34.4461 62.2036 33.8232 62.6201 33.3799C63.0366 32.9367 63.5769 32.715 64.2409 32.715C64.8838 32.715 65.4089 32.9322 65.8164 33.3664C66.2238 33.8007 66.4276 34.4117 66.4276 35.1993C66.4276 35.2473 66.426 35.3191 66.423 35.415H62.8375C62.8676 35.9391 63.017 36.3404 63.2856 36.6189C63.5543 36.8975 63.8893 37.0367 64.2907 37.0367C64.5895 37.0367 64.8445 36.9589 65.0558 36.8031C65.2671 36.6474 65.4346 36.3988 65.5583 36.0574ZM62.8827 34.7501H65.5674C65.5312 34.3488 65.4285 34.0478 65.2595 33.8471C65 33.5357 64.6634 33.3799 64.25 33.3799C63.8757 33.3799 63.5603 33.5042 63.3038 33.7528C63.0502 34.0014 62.9099 34.3338 62.8827 34.7501Z" fill="white"/>
<path d="M67.419 37.5938V32.8229H68.1524V33.5461C68.3396 33.2077 68.5116 32.9846 68.6685 32.8768C68.8285 32.769 69.0036 32.715 69.1937 32.715C69.4684 32.715 69.7475 32.8019 70.0312 32.9756L69.7506 33.7258C69.5514 33.609 69.3522 33.5506 69.153 33.5506C68.9749 33.5506 68.8149 33.6045 68.6731 33.7124C68.5312 33.8172 68.4301 33.9639 68.3697 34.1526C68.2792 34.4401 68.2339 34.7546 68.2339 35.096V37.5938H67.419Z" fill="white"/>
<path d="M73.8477 37.5938H73.0917V31.0079H73.9066V33.3575C74.2506 32.9292 74.6898 32.715 75.224 32.715C75.5198 32.715 75.799 32.7749 76.0615 32.8947C76.3271 33.0115 76.5444 33.1778 76.7135 33.3934C76.8855 33.606 77.0198 33.8636 77.1164 34.1661C77.213 34.4686 77.2613 34.792 77.2613 35.1365C77.2613 35.9541 77.0575 36.586 76.6501 37.0322C76.2426 37.4785 75.7537 37.7016 75.1832 37.7016C74.6158 37.7016 74.1707 37.4665 73.8477 36.9963V37.5938ZM73.8387 35.1724C73.8387 35.7444 73.9171 36.1577 74.0741 36.4123C74.3306 36.8286 74.6777 37.0367 75.1153 37.0367C75.4715 37.0367 75.7793 36.884 76.0389 36.5785C76.2985 36.27 76.4282 35.8118 76.4282 35.2038C76.4282 34.5809 76.303 34.1212 76.0525 33.8247C75.805 33.5282 75.5047 33.3799 75.1516 33.3799C74.7954 33.3799 74.4876 33.5342 74.228 33.8426C73.9684 34.1481 73.8387 34.5914 73.8387 35.1724Z" fill="white"/>
<path d="M81.4082 37.5938V36.893C81.034 37.4321 80.5254 37.7016 79.8825 37.7016C79.5988 37.7016 79.3332 37.6477 79.0857 37.5399C78.8413 37.4321 78.6587 37.2973 78.5379 37.1356C78.4202 36.9709 78.3372 36.7702 78.2889 36.5336C78.2557 36.3749 78.2391 36.1233 78.2391 35.7789V32.8229H79.054V35.4689C79.054 35.8912 79.0706 36.1757 79.1038 36.3224C79.1551 36.5351 79.2638 36.7028 79.4298 36.8256C79.5958 36.9454 79.801 37.0053 80.0455 37.0053C80.29 37.0053 80.5194 36.9439 80.7336 36.8211C80.9479 36.6953 81.0988 36.5261 81.1864 36.3135C81.2769 36.0978 81.3222 35.7864 81.3222 35.379V32.8229H82.1371V37.5938H81.4082Z" fill="white"/>
<path d="M83.0923 36.1697L83.8982 36.0439C83.9435 36.3644 84.0687 36.61 84.2739 36.7807C84.4822 36.9514 84.7719 37.0367 85.1432 37.0367C85.5174 37.0367 85.7951 36.9619 85.9762 36.8121C86.1573 36.6594 86.2478 36.4812 86.2478 36.2775C86.2478 36.0948 86.1678 35.9511 86.0079 35.8463C85.8962 35.7744 85.6185 35.683 85.1749 35.5722C84.5773 35.4225 84.1623 35.2937 83.9299 35.1859C83.7005 35.0751 83.5254 34.9238 83.4047 34.7321C83.287 34.5375 83.2282 34.3233 83.2282 34.0897C83.2282 33.8771 83.2765 33.6809 83.373 33.5012C83.4726 33.3185 83.6069 33.1673 83.776 33.0475C83.9027 32.9546 84.0748 32.8768 84.2921 32.8139C84.5124 32.748 84.7478 32.715 84.9983 32.715C85.3756 32.715 85.7061 32.769 85.9898 32.8768C86.2765 32.9846 86.4878 33.1313 86.6236 33.317C86.7594 33.4997 86.853 33.7453 86.9043 34.0538L86.1075 34.1616C86.0713 33.916 85.9656 33.7243 85.7906 33.5866C85.6185 33.4488 85.3741 33.3799 85.0572 33.3799C84.6829 33.3799 84.4158 33.4413 84.2558 33.5641C84.0959 33.6869 84.0159 33.8307 84.0159 33.9954C84.0159 34.1002 84.0491 34.1945 84.1155 34.2784C84.1819 34.3653 84.286 34.4371 84.4279 34.494C84.5094 34.524 84.7493 34.5929 85.1477 34.7007C85.7242 34.8534 86.1256 34.9792 86.352 35.0781C86.5813 35.1739 86.7609 35.3147 86.8907 35.5003C87.0205 35.686 87.0854 35.9166 87.0854 36.1922C87.0854 36.4617 87.0054 36.7163 86.8454 36.9559C86.6885 37.1925 86.4606 37.3767 86.1618 37.5084C85.863 37.6372 85.525 37.7016 85.1477 37.7016C84.5229 37.7016 84.0461 37.5728 83.7171 37.3153C83.3911 37.0577 83.1829 36.6758 83.0923 36.1697Z" fill="white"/>
<path d="M88.0587 31.9379V31.0079H88.8736V31.9379H88.0587ZM88.0587 37.5938V32.8229H88.8736V37.5938H88.0587Z" fill="white"/>
<path d="M90.1186 37.5938V32.8229H90.852V33.5012C91.2052 32.9771 91.7152 32.715 92.3822 32.715C92.672 32.715 92.9376 32.7675 93.179 32.8723C93.4235 32.9741 93.6061 33.1089 93.7268 33.2766C93.8476 33.4443 93.9321 33.6435 93.9804 33.8741C94.0105 34.0238 94.0256 34.2859 94.0256 34.6603V37.5938H93.2107V34.6917C93.2107 34.3623 93.179 34.1167 93.1157 33.9549C93.0523 33.7902 92.9391 33.6599 92.7761 33.5641C92.6161 33.4653 92.4275 33.4159 92.2102 33.4159C91.8631 33.4159 91.5628 33.5252 91.3093 33.7438C91.0588 33.9624 90.9335 34.3772 90.9335 34.9882V37.5938H90.1186Z" fill="white"/>
<path d="M98.571 36.0574L99.4131 36.1607C99.2803 36.6489 99.0343 37.0278 98.6751 37.2973C98.316 37.5668 97.8572 37.7016 97.2988 37.7016C96.5956 37.7016 96.0372 37.4875 95.6237 37.0592C95.2133 36.6279 95.008 36.0245 95.008 35.2488C95.008 34.4461 95.2163 33.8232 95.6328 33.3799C96.0493 32.9367 96.5896 32.715 97.2536 32.715C97.8964 32.715 98.4216 32.9322 98.829 33.3664C99.2365 33.8007 99.4402 34.4117 99.4402 35.1993C99.4402 35.2473 99.4387 35.3191 99.4357 35.415H95.8501C95.8803 35.9391 96.0297 36.3404 96.2983 36.6189C96.5669 36.8975 96.9019 37.0367 97.3034 37.0367C97.6022 37.0367 97.8572 36.9589 98.0685 36.8031C98.2797 36.6474 98.4472 36.3988 98.571 36.0574ZM95.8954 34.7501H98.58C98.5438 34.3488 98.4412 34.0478 98.2722 33.8471C98.0126 33.5357 97.6761 33.3799 97.2626 33.3799C96.8884 33.3799 96.573 33.5042 96.3164 33.7528C96.0629 34.0014 95.9225 34.3338 95.8954 34.7501Z" fill="white"/>
<path d="M100.115 36.1697L100.921 36.0439C100.966 36.3644 101.091 36.61 101.296 36.7807C101.505 36.9514 101.794 37.0367 102.166 37.0367C102.54 37.0367 102.818 36.9619 102.999 36.8121C103.18 36.6594 103.27 36.4812 103.27 36.2775C103.27 36.0948 103.19 35.9511 103.03 35.8463C102.919 35.7744 102.641 35.683 102.197 35.5722C101.6 35.4225 101.185 35.2937 100.952 35.1859C100.723 35.0751 100.548 34.9238 100.427 34.7321C100.309 34.5375 100.251 34.3233 100.251 34.0897C100.251 33.8771 100.299 33.6809 100.395 33.5012C100.495 33.3185 100.629 33.1673 100.798 33.0475C100.925 32.9546 101.097 32.8768 101.314 32.8139C101.535 32.748 101.77 32.715 102.021 32.715C102.398 32.715 102.729 32.769 103.012 32.8768C103.299 32.9846 103.51 33.1313 103.646 33.317C103.782 33.4997 103.875 33.7453 103.927 34.0538L103.13 34.1616C103.094 33.916 102.988 33.7243 102.813 33.5866C102.641 33.4488 102.397 33.3799 102.08 33.3799C101.705 33.3799 101.438 33.4413 101.278 33.5641C101.118 33.6869 101.038 33.8307 101.038 33.9954C101.038 34.1002 101.072 34.1945 101.138 34.2784C101.204 34.3653 101.308 34.4371 101.45 34.494C101.532 34.524 101.772 34.5929 102.17 34.7007C102.747 34.8534 103.148 34.9792 103.374 35.0781C103.604 35.1739 103.783 35.3147 103.913 35.5003C104.043 35.686 104.108 35.9166 104.108 36.1922C104.108 36.4617 104.028 36.7163 103.868 36.9559C103.711 37.1925 103.483 37.3767 103.184 37.5084C102.885 37.6372 102.547 37.7016 102.17 37.7016C101.545 37.7016 101.069 37.5728 100.74 37.3153C100.414 37.0577 100.205 36.6758 100.115 36.1697Z" fill="white"/>
<path d="M104.751 36.1697L105.557 36.0439C105.602 36.3644 105.727 36.61 105.932 36.7807C106.141 36.9514 106.43 37.0367 106.802 37.0367C107.176 37.0367 107.453 36.9619 107.635 36.8121C107.816 36.6594 107.906 36.4812 107.906 36.2775C107.906 36.0948 107.826 35.9511 107.666 35.8463C107.555 35.7744 107.277 35.683 106.833 35.5722C106.236 35.4225 105.821 35.2937 105.588 35.1859C105.359 35.0751 105.184 34.9238 105.063 34.7321C104.945 34.5375 104.886 34.3233 104.886 34.0897C104.886 33.8771 104.935 33.6809 105.031 33.5012C105.131 33.3185 105.265 33.1673 105.434 33.0475C105.561 32.9546 105.733 32.8768 105.95 32.8139C106.171 32.748 106.406 32.715 106.657 32.715C107.034 32.715 107.364 32.769 107.648 32.8768C107.935 32.9846 108.146 33.1313 108.282 33.317C108.418 33.4997 108.511 33.7453 108.563 34.0538L107.766 34.1616C107.73 33.916 107.624 33.7243 107.449 33.5866C107.277 33.4488 107.032 33.3799 106.715 33.3799C106.341 33.3799 106.074 33.4413 105.914 33.5641C105.754 33.6869 105.674 33.8307 105.674 33.9954C105.674 34.1002 105.707 34.1945 105.774 34.2784C105.84 34.3653 105.944 34.4371 106.086 34.494C106.168 34.524 106.408 34.5929 106.806 34.7007C107.383 34.8534 107.784 34.9792 108.01 35.0781C108.24 35.1739 108.419 35.3147 108.549 35.5003C108.679 35.686 108.744 35.9166 108.744 36.1922C108.744 36.4617 108.664 36.7163 108.504 36.9559C108.347 37.1925 108.119 37.3767 107.82 37.5084C107.521 37.6372 107.183 37.7016 106.806 37.7016C106.181 37.7016 105.704 37.5728 105.375 37.3153C105.049 37.0577 104.841 36.6758 104.751 36.1697Z" fill="white"/>
</svg>
