<svg width="356" height="163" viewBox="0 0 356 163" fill="none" xmlns="http://www.w3.org/2000/svg">
<path d="M164.223 133.564C162.172 133.662 160.178 133.889 158.221 134.426C155.543 134.736 152.978 135.533 150.32 135.908L149.256 136.054L147.471 136.201C147.585 136.624 147.66 137.047 147.66 137.47C147.66 137.91 147.603 138.333 147.471 138.691C147.357 139.033 146.995 139.456 146.71 139.717C146.331 140.075 145.932 140.384 145.457 140.579C145.001 140.774 144.488 140.856 143.975 140.889C143.463 140.905 142.931 140.889 142.437 140.726C141.924 140.579 141.449 140.303 141.012 139.977C140.481 140.091 139.93 140.172 139.417 140.221C138.885 140.27 138.391 140.27 137.916 140.221C137.385 140.091 136.834 139.944 136.321 139.766C135.804 139.582 135.309 139.359 134.839 139.098C132.902 140.075 130.737 141.003 129.559 142.712C128.895 143.493 128.761 144.388 128.61 145.316C128.514 146.456 128.856 147.66 129.426 148.718C129.635 149.027 129.806 147.595 130.452 147.4C131.535 146.634 132.883 146.081 134.251 145.772C135.409 145.267 135.257 145.804 134.782 146.586C134.669 146.993 134.023 148.539 134.896 147.758C138.752 146.293 143.026 146 147.186 145.723C153.226 145.186 159.285 145.072 165.344 145.007C171.042 145.072 176.74 145.137 182.438 145.316C185.154 145.381 187.889 145.902 190.568 145.511C191.213 145.365 192.22 145.333 192.6 145.007C191.384 144.405 189.96 144.388 188.611 144.242H177.747C174.727 143.981 171.574 143.949 168.725 142.972C167.965 142.712 167.262 142.093 166.54 142.76C165.457 143.086 164.299 143.314 163.159 143.379C161.165 143.509 159.171 143.151 157.328 142.516C158.658 140.938 160.253 139.554 161.716 138.089C160.538 137.926 159.399 137.715 158.221 137.47C160.292 136.25 162.21 134.866 164.223 133.564Z" fill="#FEC50C"/>
<path d="M252.963 150.432C248.834 152.556 245.683 148.79 242.232 147.661C239.768 148.808 239.538 152.645 237.235 154.463C234.48 157.15 231.104 153.712 231.355 151.062C228.061 153.442 226.394 158.837 221.066 158.116C218.542 156.351 216.666 152.646 214.738 156.864C213.165 158.926 208.977 161.86 206.808 158.746C206.137 155.997 204.529 152.764 202.783 157.131C201.586 160.219 197.741 162.491 194.02 161.139C191.984 159.712 195.653 154.436 193.061 154.812C189.186 157.007 186.933 162.458 181.526 162.021C179.427 160.001 182.8 156.579 180.497 154.337C177.779 157.327 174.763 161.706 170.061 162.021C167.789 160.443 170.15 155.917 168.699 155.247C163.875 157.726 158.784 162.146 152.716 160.762C155.081 153.011 164.961 150.291 173.271 149.687C187.567 148.181 202.607 150.949 216.363 146.527C218.585 145.368 223.97 143.725 222.052 141.037C220.354 138.914 226.47 139.744 227.058 137.265C226.694 134.125 229.866 134.557 232.964 134.282C246.854 133.769 260.574 136.276 274.423 136.702C275.469 142.484 267.984 146.545 261.957 144.759C259.078 145.159 254.762 139.087 255.608 143.504C255.028 145.823 255.434 148.884 252.963 150.433V150.432ZM134.782 138.592C137.998 141.114 140.253 138.117 143.259 137.021C153.34 134.05 162.135 128.857 170.807 123.669C176.061 119.943 180.616 115.111 187.672 113.902C201.436 110.336 216.067 110.769 229.884 107.477C240.406 95.1325 258.276 90.7283 273.245 83.6324C276.607 82.7373 277.905 80.3665 278.979 77.7491C284.693 70.019 292.477 63.1692 301.683 58.4901C306.039 56.4504 311.236 55.2759 316.167 56.2086C315.814 61.2418 312.444 65.7026 308.376 69.1834C311.705 69.1209 314.566 67.3185 317.93 67.4201C319.083 72.5856 312.574 75.2889 309.111 78.505C311.04 78.8894 318.429 79.3684 314.402 81.0243C309.271 84.0763 303.411 86.1717 298.674 89.716C303.045 90.3889 303.543 91.1849 299.099 92.5395C296.693 93.9371 292.066 94.4254 291.619 97.1478C294.921 98.8867 290.098 100.613 288.238 101.179C284.682 101.889 280.946 103.213 285.67 105.528C283.883 107.842 280.049 108.336 276.92 108.107C277.869 110.729 279.244 113.663 275.272 114.82C266.369 120.587 255.921 124.783 244.73 125.743C258.71 126.664 273.11 124.44 285.057 117.924C286.634 116.326 294.905 114.608 290.279 113.264C288.101 112.488 283.432 111.625 283.116 110.202C289.587 106.781 297.74 107.998 304.701 105.965C304.881 104.034 299.406 104.571 297.365 104.132C292.497 103.79 292.783 102.725 297.476 102.331C303.415 100.983 310.141 100.718 315.137 97.3998C311.069 95.7849 305.953 97.2064 301.614 95.8879C308.971 93.1289 317.65 92.852 324.25 88.7076C327.257 85.8411 320.398 86.7367 318.4 86.8065C314.326 87.4145 312.442 85.743 317.071 84.2922C324.975 79.2981 334.982 76.0541 340.534 68.8138C341.849 67.193 343.63 62.3098 339.435 64.0663C333.919 65.6382 329.066 70.9521 322.781 69.3084C335.165 61.0831 346.948 51.719 355.412 40.3362C355.85 37.0532 349.837 36.6981 348.272 39.2755C340.315 45.8454 333.114 53.6005 322.928 57.7195C332.684 49.65 340.749 40.0949 347.787 30.1917C349.295 27.2461 353.35 23.7038 351.15 20.4335C347.602 17.9172 343.165 20.2206 341.321 23.2316C335.137 30.1512 330.44 38.2276 322.487 43.8633C329.45 32.4751 336.659 20.352 336.835 7.21653C336.813 4.51219 336.179 0.529429 331.894 1.03436C328.497 1.55638 329.304 5.91368 327.903 8.11749C324.82 17.0914 323.373 26.8101 317.048 34.6677C318.471 27.3755 320.961 19.7738 319.05 12.4099C318.157 9.11905 311.955 10.5347 312.754 13.7918C305.345 45.9529 280.164 74.0803 247.231 90.3513C232.151 97.663 215.308 102.377 198.172 104.514C193.562 105.379 188.576 104.871 184.17 106.218C173.494 113.234 167.03 124.973 153.513 128.649C147.455 131.229 139.555 131.753 135.223 136.576C134.848 137.193 134.767 137.908 134.782 138.592" fill="#FEC50C"/>
<path d="M175.24 105.965C173.245 109.067 172.071 112.634 169.507 115.412C161.791 109.396 150.606 109.594 140.819 109.194C132.74 108.824 123.955 108.186 117.705 103.248C111.13 98.6325 105.763 92.6398 98.4156 88.8948C91.7094 87.3322 84.949 85.3769 79.5574 81.4376C68.0357 73.389 61.4372 61.4471 50.1787 53.1475C48.0322 51.3368 45.5011 49.9338 43.0965 48.3976C40.8115 48.8747 41.8457 53.1006 39.0496 50.9466C37.5282 50.0188 33.7229 49.9285 33.3799 51.2245C36.8222 55.1115 40.2679 59.5499 40.7448 64.5215C38.3972 64.7276 34.2232 64.0967 33.0597 64.8458C36.1771 68.85 40.1733 72.4016 44.7136 75.229C42.5358 75.5289 38.2445 75.3658 37.4097 76.1178C41.9164 79.2655 46.749 82.4826 52.6506 83.2913C53.8586 84.6556 50.8842 87.2906 53.3857 88.4558C54.8359 88.9636 59.6218 89.8133 56.3254 91.227C54.0632 92.5333 54.9025 95.578 57.7955 95.5096C59.6246 96.3105 63.7313 96.5063 64.0527 97.8927C62.4315 99.3064 57.3869 100.983 61.6805 102.307C65.6915 104.214 70.266 105.451 74.8462 105.587C72.5475 107.245 69.7155 108.185 67.3496 109.744C77.9197 115.056 89.6369 118.549 101.216 121.913C105.825 123.233 110.489 124.463 115.267 125.238C101.382 124.551 87.9611 121.029 75.3146 116.207C68.7599 113.743 62.1609 111.363 55.4433 109.241C58.3887 107.927 61.7956 107.606 64.8504 106.47C58.5095 105.381 51.5822 105.024 46.0082 102.037C46.8629 100.73 50.1012 100.669 51.8922 100.004C55.2604 99.3122 57.3499 98.4733 52.6005 98.2223C47.8111 97.1084 42.3181 97.6085 38.0974 95.1322C38.3692 93.6477 42.7865 94.1653 44.5854 93.5241C46.851 93.1906 49.3696 92.9113 51.1799 91.605C43.7757 88.9744 34.0911 90.8383 28.2914 85.2348C26.9541 83.0999 32.4449 84.8197 34.0084 84.4637C37.9818 84.4637 42.252 85.5459 46.0356 84.1732C35.2467 80.1138 23.6902 76.3136 15.462 68.8051C14.5486 67.598 11.8112 64.3003 14.0198 63.8926C20.424 64.6187 25.0594 70.6085 31.9098 69.6763C32.8198 68.6249 27.9302 66.9021 26.7096 65.3996C16.7219 58.0547 7.0281 50.0838 0.0278836 40.4628C-0.453613 37.2496 5.43947 36.7686 6.99108 39.2498C14.6295 45.5546 21.5294 52.9116 31.0431 57.2157C34.4187 58.6187 29.1046 55.5554 28.3969 54.4445C19.6063 45.6966 11.2379 36.4576 5.09413 26.1549C3.99438 24.2983 2.1721 20.9366 5.46223 19.9483C8.75179 18.536 12.0157 20.46 13.6836 22.8816C20.1465 29.8671 24.9021 38.1696 32.9531 43.9895C26.0942 32.5827 18.7709 20.5753 18.5937 7.44913C18.755 4.90496 18.9458 1.05598 22.9722 1.16048C26.3529 0.720991 25.819 4.43031 26.9267 6.19902C30.2579 15.842 31.7103 26.2794 38.3926 34.7933C36.9168 27.6399 34.7441 20.273 36.1874 13.0009C36.5202 10.613 39.657 9.89026 41.7044 11.3337C43.3597 14.8057 43.7044 19.0932 45.2128 22.805C53.7942 47.9634 73.0626 70.0904 98.1722 84.9394C118.852 97.0942 143.394 104.35 168.442 105.616C170.704 105.784 172.976 105.843 175.241 105.962" fill="#FEC50C"/>
<path d="M143.444 139.321C144.189 139.321 144.793 138.803 144.793 138.164C144.793 137.526 144.189 137.008 143.444 137.008C142.699 137.008 142.095 137.526 142.095 138.164C142.095 138.803 142.699 139.321 143.444 139.321Z" fill="#FEC50C"/>
<path d="M143.33 138.448C143.634 138.448 143.88 138.237 143.88 137.977C143.88 137.717 143.634 137.507 143.33 137.507C143.026 137.507 142.78 137.717 142.78 137.977C142.78 138.237 143.026 138.448 143.33 138.448Z" fill="#FEC50C" stroke="#00AFCA" stroke-width="0.1905"/>
</svg>
