<svg width="20" height="20" viewBox="0 0 20 20" fill="none" xmlns="http://www.w3.org/2000/svg">
<g clip-path="url(#clip0)">
<path d="M17.6562 0H2.34375C1.05141 0 0 1.01515 0 2.26293V17.0474C0 18.2952 1.05141 19.3103 2.34375 19.3103H17.6562C18.9486 19.3103 20 18.2952 20 17.0474V2.26293C20 1.01515 18.9486 0 17.6562 0ZM18.4375 17.0474C18.4375 17.4633 18.087 17.8017 17.6562 17.8017H13.2031V11.6541H15.6168L16.0156 9.31573H13.2031V7.69397C13.2031 7.05374 13.7119 6.5625 14.375 6.5625H15.9766V4.22414H14.375C12.3858 4.22414 10.7821 5.7799 10.7821 7.70053V9.31573H8.4375V11.6541H10.7821V17.8017H2.34375C1.91297 17.8017 1.5625 17.4633 1.5625 17.0474V2.26293C1.5625 1.847 1.91297 1.50862 2.34375 1.50862H17.6562C18.087 1.50862 18.4375 1.847 18.4375 2.26293V17.0474Z" fill="white"/>
</g>
<defs>
<clipPath id="clip0">
<rect width="20" height="19.3103" fill="white"/>
</clipPath>
</defs>
</svg>
