<svg width="15" height="15" viewBox="0 0 15 15" fill="none" xmlns="http://www.w3.org/2000/svg">
<g clip-path="url(#clip0)">
<path d="M14.3182 0H8.86361C8.48706 0 8.18179 0.291417 8.18179 0.650878C8.18179 1.01034 8.48706 1.30176 8.86361 1.30176H12.6721L5.65426 8.0011C5.38803 8.25524 5.38803 8.66736 5.65426 8.92156C5.78735 9.04861 5.96184 9.11218 6.13634 9.11218C6.31083 9.11218 6.48535 9.04861 6.61842 8.92153L13.6364 2.22221V5.85785C13.6364 6.21731 13.9416 6.50872 14.3182 6.50872C14.6947 6.50872 15 6.21731 15 5.85785V0.650878C15 0.291417 14.6947 0 14.3182 0Z" fill="#00AFCA"/>
<path d="M11.5909 6.50873C11.2143 6.50873 10.9091 6.80014 10.9091 7.15961V13.0175H1.36362V3.90524H7.5C7.87655 3.90524 8.18183 3.61383 8.18183 3.25437C8.18183 2.8949 7.87655 2.60352 7.5 2.60352H0.681826C0.305273 2.60352 0 2.89493 0 3.25439V13.6683C0 14.0278 0.305273 14.3192 0.681826 14.3192H11.5909C11.9675 14.3192 12.2728 14.0278 12.2728 13.6683V7.15961C12.2727 6.80014 11.9674 6.50873 11.5909 6.50873Z" fill="#00AFCA"/>
</g>
<defs>
<clipPath id="clip0">
<rect width="15" height="14.3191" fill="white"/>
</clipPath>
</defs>
</svg>
