<svg width="54" height="58" viewBox="0 0 54 58" fill="none" xmlns="http://www.w3.org/2000/svg">
<g clip-path="url(#clip0)">
<path d="M15.0765 22.7961H10.4375C9.79736 22.7961 9.27777 23.3572 9.27777 24.0484V34.0657C9.27777 34.7569 9.79736 35.3179 10.4375 35.3179C11.0777 35.3179 11.5973 34.7569 11.5973 34.0657V25.3005H15.0765C15.7166 25.3005 16.2362 24.7394 16.2362 24.0482C16.2362 23.357 15.7166 22.7961 15.0765 22.7961Z" fill="#00AFCA"/>
<path d="M12.7569 27.8049H10.4375C9.79736 27.8049 9.27777 28.3659 9.27777 29.0571C9.27777 29.7483 9.79736 30.3092 10.4375 30.3092H12.7569C13.3971 30.3092 13.9167 29.7482 13.9167 29.057C13.9167 28.3658 13.3971 27.8049 12.7569 27.8049Z" fill="#00AFCA"/>
<path d="M26.6737 0.256958C11.9661 0.256958 0 13.177 0 29.057C0 44.937 11.9661 57.857 26.6737 57.857C41.3812 57.857 53.3473 44.937 53.3473 29.057C53.3473 13.177 41.3813 0.256958 26.6737 0.256958ZM26.6737 55.3527C13.244 55.3527 2.31942 43.5572 2.31942 29.057C2.31942 14.5568 13.244 2.76127 26.6737 2.76127C40.1033 2.76127 51.0279 14.5568 51.0279 29.057C51.0279 43.5572 40.1033 55.3527 26.6737 55.3527Z" fill="#00AFCA"/>
<path d="M42.0493 15.7513C38.2802 10.68 32.6764 7.77002 26.6737 7.77002C20.6709 7.77002 15.0671 10.68 11.298 15.7513C10.8967 16.2898 10.9756 17.0787 11.4766 17.5119C11.9753 17.9452 12.706 17.8599 13.1049 17.319C16.4332 12.8412 21.3783 10.2742 26.6737 10.2742C31.969 10.2742 36.9141 12.8412 40.2402 17.319C40.4698 17.627 40.8061 17.7873 41.1447 17.7873C41.4022 17.7873 41.6574 17.6971 41.8707 17.5118C42.3717 17.0787 42.4506 16.2898 42.0493 15.7513Z" fill="#00AFCA"/>
<path d="M40.9244 41.9219C40.4651 41.4486 39.7275 41.4687 39.2869 41.9695C35.9585 45.7536 31.4796 47.8396 26.6737 47.8396C21.8677 47.8396 17.3889 45.7535 14.0628 41.9695C13.6245 41.4636 12.8869 41.4486 12.4253 41.9219C11.9569 42.3977 11.9405 43.1916 12.3813 43.6925C16.1505 47.9825 21.2254 50.3441 26.6738 50.3441C32.1222 50.3441 37.1971 47.9825 40.9685 43.6925C41.4092 43.1916 41.3906 42.3977 40.9244 41.9219Z" fill="#00AFCA"/>
<path d="M22.4847 30.2767C24.1918 30.0387 25.5139 28.4585 25.5139 26.5527C25.5139 24.4815 23.9529 22.7961 22.0347 22.7961H19.7153C19.0751 22.7961 18.5555 23.3572 18.5555 24.0484V29.047C18.5555 29.0521 18.5555 29.0596 18.5555 29.0645V34.0657C18.5555 34.7569 19.0751 35.3179 19.7153 35.3179C20.3554 35.3179 20.875 34.7569 20.875 34.0657V32.0798L23.5331 34.9523C23.7605 35.1952 24.0573 35.3179 24.3542 35.3179C24.6511 35.3179 24.948 35.1953 25.173 34.9498C25.6253 34.4615 25.6253 33.6675 25.173 33.1792L22.4847 30.2767ZM20.875 27.8049V25.3006H22.0348C22.6727 25.3006 23.1946 25.8616 23.1946 26.5528C23.1946 27.244 22.6727 27.805 22.0348 27.805H20.875V27.8049Z" fill="#00AFCA"/>
<path d="M33.632 32.8135H30.1528V25.3005H33.632C34.2722 25.3005 34.7918 24.7394 34.7918 24.0482C34.7918 23.357 34.2722 22.7961 33.632 22.7961H28.9931C28.3529 22.7961 27.8333 23.3572 27.8333 24.0484V34.0657C27.8333 34.7569 28.3529 35.3179 28.9931 35.3179H33.632C34.2722 35.3179 34.7918 34.7569 34.7918 34.0657C34.7918 33.3745 34.2722 32.8135 33.632 32.8135Z" fill="#00AFCA"/>
<path d="M31.3126 27.8049H28.9932C28.353 27.8049 27.8334 28.3659 27.8334 29.0571C27.8334 29.7483 28.353 30.3092 28.9932 30.3092H31.3126C31.9528 30.3092 32.4724 29.7482 32.4724 29.057C32.4724 28.3658 31.9528 27.8049 31.3126 27.8049Z" fill="#00AFCA"/>
<path d="M42.9099 32.8135H39.4307V25.3005H42.9099C43.55 25.3005 44.0696 24.7394 44.0696 24.0482C44.0696 23.357 43.55 22.7961 42.9099 22.7961H38.2709C37.6308 22.7961 37.1112 23.3572 37.1112 24.0484V34.0657C37.1112 34.7569 37.6308 35.3179 38.2709 35.3179H42.9099C43.55 35.3179 44.0696 34.7569 44.0696 34.0657C44.0696 33.3745 43.55 32.8135 42.9099 32.8135Z" fill="#00AFCA"/>
<path d="M40.5904 27.8049H38.2709C37.6308 27.8049 37.1112 28.3659 37.1112 29.0571C37.1112 29.7483 37.6308 30.3092 38.2709 30.3092H40.5904C41.2305 30.3092 41.7501 29.7482 41.7501 29.057C41.7501 28.3658 41.2305 27.8049 40.5904 27.8049Z" fill="#00AFCA"/>
</g>
<defs>
<clipPath id="clip0">
<rect width="53.3474" height="57.6001" fill="white" transform="translate(0 0.256958)"/>
</clipPath>
</defs>
</svg>
