<svg width="20" height="20" viewBox="0 0 20 20" fill="none" xmlns="http://www.w3.org/2000/svg">
<g clip-path="url(#clip0)">
<path d="M14.5862 0H5.41381C2.42858 0 0 2.34484 0 5.22713V14.0833C0 16.9655 2.42858 19.3103 5.41381 19.3103H14.5863C17.5714 19.3103 20 16.9655 20 14.0833V5.22713C20 2.34484 17.5714 0 14.5862 0V0ZM18.8275 14.0833C18.8275 16.3412 16.9249 18.1783 14.5862 18.1783H5.41381C3.0751 18.1783 1.17248 16.3412 1.17248 14.0833V5.22713C1.17248 2.96906 3.0751 1.13205 5.41381 1.13205H14.5863C16.9249 1.13205 18.8275 2.96906 18.8275 5.22713V14.0833Z" fill="white"/>
<path d="M9.99996 4.375C6.98452 4.375 4.53137 6.74356 4.53137 9.65501C4.53137 12.5665 6.98452 14.935 9.99996 14.935C13.0154 14.935 15.4685 12.5665 15.4685 9.65501C15.4685 6.74356 13.0154 4.375 9.99996 4.375ZM9.99996 13.803C7.63119 13.803 5.70386 11.9422 5.70386 9.65501C5.70386 7.36793 7.63119 5.50705 9.99996 5.50705C12.3689 5.50705 14.2961 7.36793 14.2961 9.65501C14.2961 11.9422 12.3689 13.803 9.99996 13.803Z" fill="white"/>
<path d="M15.5994 2.5C14.7083 2.5 13.9835 3.19995 13.9835 4.06018C13.9835 4.92057 14.7083 5.62051 15.5994 5.62051C16.4905 5.62051 17.2154 4.92057 17.2154 4.06018C17.2154 3.1998 16.4905 2.5 15.5994 2.5ZM15.5994 4.48831C15.3549 4.48831 15.1559 4.2962 15.1559 4.06018C15.1559 3.82402 15.3549 3.63205 15.5994 3.63205C15.844 3.63205 16.0429 3.82402 16.0429 4.06018C16.0429 4.2962 15.844 4.48831 15.5994 4.48831Z" fill="white"/>
</g>
<defs>
<clipPath id="clip0">
<rect width="20" height="19.3103" fill="white"/>
</clipPath>
</defs>
</svg>
