<svg width="120" height="22" viewBox="0 0 120 22" fill="none" xmlns="http://www.w3.org/2000/svg">
<path d="M0 21.3986V2.43994H6.26806L10.0309 15.3714L13.7523 2.43994H20.0336V21.3986H16.1434V6.47516L12.0265 21.3986H7.99393L3.89024 6.47516V21.3986H0Z" fill="#1C1C1B"/>
<path d="M33.0943 13.3594C33.0656 12.3078 32.7683 11.5082 32.2024 10.9607C31.9416 10.6976 31.6226 10.4884 31.2666 10.3468C30.9105 10.2052 30.5255 10.1345 30.1373 10.1394C29.731 10.1303 29.3276 10.2033 28.9558 10.3531C28.584 10.5029 28.2529 10.7258 27.9861 11.006C27.4202 11.5838 27.1444 12.3683 27.1588 13.3594H33.0943ZM32.8676 17.0317L36.8289 17.6367C36.3193 18.9646 35.5151 19.9754 34.4164 20.6691C33.3176 21.3628 31.9426 21.7097 30.2912 21.7097C27.6789 21.7097 25.7451 20.9293 24.4897 19.3684C23.4969 18.1181 23.0005 16.5406 23.0005 14.6359C23.0005 12.3602 23.6513 10.5775 24.9531 9.28789C26.2548 7.99827 27.9007 7.35397 29.8907 7.35498C32.1257 7.35498 33.8907 8.02954 35.1858 9.37865C36.4809 10.7278 37.0987 12.7948 37.0391 15.5797H27.0777C27.1064 16.6576 27.4269 17.496 28.0391 18.0949C28.3287 18.3857 28.6831 18.6163 29.0784 18.7713C29.4737 18.9262 29.9008 19.002 30.3309 18.9933C30.8977 19.01 31.4531 18.8453 31.9012 18.5275C32.3259 18.2169 32.6464 17.7168 32.8626 17.0271L32.8676 17.0317Z" fill="#1C1C1B"/>
<path d="M38.8857 17.4793L42.8753 16.9227C43.0451 17.6285 43.3893 18.1649 43.9078 18.5319C44.4263 18.8989 45.1527 19.0819 46.0871 19.0809C47.1152 19.0809 47.8874 18.9085 48.4037 18.5637C48.5708 18.4534 48.7058 18.3074 48.797 18.1384C48.8881 17.9694 48.9326 17.7825 48.9266 17.5942C48.9311 17.4686 48.9084 17.3434 48.8598 17.2258C48.8113 17.1083 48.7378 17.0006 48.6436 16.9091C48.445 16.7366 48.0038 16.5773 47.3198 16.4311C44.113 15.7848 42.0804 15.1944 41.2222 14.6601C40.6578 14.3299 40.1968 13.8714 39.8844 13.3295C39.572 12.7876 39.4189 12.1808 39.4401 11.5686C39.4401 10.3788 39.9541 9.37857 40.9823 8.5679C42.0104 7.75723 43.6044 7.35391 45.7644 7.35794C47.8207 7.35794 49.3485 7.66397 50.348 8.27601C51.3474 8.88805 52.0358 9.79552 52.413 10.9984L48.6635 11.6321C48.5316 11.1356 48.2078 10.6994 47.7517 10.404C47.3038 10.1197 46.6646 9.97751 45.8339 9.97751C44.787 9.97751 44.0369 10.1111 43.5835 10.3783C43.445 10.4551 43.3305 10.5632 43.251 10.6922C43.1716 10.8212 43.13 10.9668 43.1301 11.1149C43.1321 11.2459 43.1692 11.3746 43.2382 11.4895C43.3071 11.6044 43.4058 11.7022 43.5256 11.7743C43.8841 12.0163 45.1224 12.3566 47.2404 12.7952C49.3584 13.2338 50.8372 13.7727 51.6767 14.412C52.5063 15.0583 52.921 15.9592 52.921 17.1148C52.921 18.3731 52.3457 19.455 51.1952 20.3605C50.0446 21.2659 48.3419 21.7197 46.0871 21.7217C44.0396 21.7217 42.4197 21.3426 41.2272 20.5843C40.0523 19.8506 39.2178 18.7439 38.8857 17.4793Z" fill="#1C1C1B"/>
<path d="M60.3574 2.43945V9.41038C61.6404 8.03908 63.1732 7.35344 64.9559 7.35344C65.8105 7.3408 66.6579 7.49981 67.4379 7.81927C68.0948 8.07558 68.6657 8.48626 69.0927 9.00957C69.4646 9.49064 69.7248 10.0363 69.8571 10.6128C69.9939 11.1996 70.0623 12.1071 70.0623 13.3352V21.3921H66.091V14.1323C66.091 12.6924 66.0154 11.7784 65.8643 11.3902C65.7188 11.0089 65.4374 10.6834 65.0651 10.4661C64.6337 10.225 64.1341 10.1056 63.6288 10.1227C63.0055 10.1135 62.3921 10.2662 61.8599 10.5629C61.3264 10.8731 60.9248 11.3406 60.7214 11.8878C60.481 12.4787 60.3607 13.3513 60.3607 14.5059V21.386H56.3894V2.43945H60.3607H60.3574Z" fill="#1C1C1B"/>
<path d="M73.9542 21.3981V2.43945H77.9305V12.5003L82.5852 7.66346H87.4799L82.3436 12.6818L87.8489 21.3981H83.5615L79.7838 15.2288L77.9305 17.0014V21.3981H73.9542Z" fill="#1C1C1B"/>
<path d="M110.444 21.3985L104.388 7.66406H108.561L111.391 14.6727L112.218 17.014C112.439 16.4191 112.575 16.0268 112.628 15.8373C112.761 15.4491 112.902 15.0609 113.054 14.6727L115.911 7.66406H120L114.03 21.3985H110.451H110.444Z" fill="#1C1C1B"/>
<path d="M100.122 3.53034L101.004 2.72412L102.767 4.33656L101.886 5.14129L100.122 3.53034Z" fill="#F39200"/>
<path d="M95.7617 20.084V18.0029C97.7167 17.84 99.5347 17.0158 100.859 15.6916C102.184 14.3674 102.92 12.6388 102.923 10.8445C102.922 9.10518 102.227 7.42593 100.969 6.12109L98.9454 7.97082C99.6682 8.78278 100.063 9.79768 100.062 10.8445C100.061 12.0578 99.5324 13.221 98.5938 14.0789C97.6551 14.9368 96.3826 15.4195 95.0551 15.4211C94.2519 15.4195 93.4612 15.2397 92.7507 14.8972C92.0403 14.5548 91.4314 14.0598 90.9762 13.455H92.909V12.1497H85.7556V13.458H87.7595C88.2901 14.6952 89.1864 15.7732 90.3485 16.5718C91.5106 17.3703 92.8926 17.858 94.3403 17.9802V20.084H90.0479V21.3923H100.062V20.084H95.77H95.7617Z" fill="#F39200"/>
<path d="M91.4711 5.54833L97.5412 0L101.587 3.69838L95.5173 9.24673L91.4711 5.54833Z" fill="#F39200"/>
<path d="M93.4917 9.24596L91.4678 7.396L90.4566 8.32023C90.1883 8.56559 90.0376 8.8983 90.0376 9.2452C90.0376 9.59211 90.1883 9.92482 90.4566 10.1702C90.7251 10.4154 91.0891 10.5532 91.4686 10.5532C91.8481 10.5532 92.2121 10.4154 92.4806 10.1702L93.4917 9.24596Z" fill="#F39200"/>
</svg>
