<svg width="62" height="58" viewBox="0 0 62 58" fill="none" xmlns="http://www.w3.org/2000/svg">
<path d="M61.9999 8.52721C61.9999 6.00664 59.7926 3.95599 57.0795 3.95599H51.9694V2.93606C51.9694 1.44307 50.6621 0.228516 49.055 0.228516H12.9449C11.3378 0.228516 10.0306 1.44307 10.0306 2.93606V3.95599H4.92042C2.20731 3.95599 0 6.00664 0 8.52721V42.0751C0 44.5957 2.20731 46.6462 4.92042 46.6462H9.15666C9.65835 46.6462 10.0649 46.2685 10.0649 45.8025C10.0649 45.3365 9.65835 44.9587 9.15666 44.9587H4.9203C3.20875 44.9587 1.81629 43.6651 1.81629 42.0751V41.0548H60.1833V42.0751C60.1833 43.6652 58.7909 44.9587 57.0793 44.9587H12.7895C12.2878 44.9587 11.8813 45.3365 11.8813 45.8025C11.8813 46.2685 12.2878 46.6462 12.7895 46.6462H23.0703L23.0704 52.4138H17.9259C16.8909 52.4138 16.049 53.196 16.049 54.1576V56.0849C16.049 57.0464 16.8909 57.8287 17.9259 57.8287H36.205C36.7067 57.8287 37.1132 57.4509 37.1132 56.9849C37.1132 56.5189 36.7067 56.1412 36.205 56.1412H17.9259C17.8926 56.1412 17.8654 56.116 17.8654 56.0849V54.1576C17.8654 54.1265 17.8926 54.1013 17.9259 54.1013H44.0742C44.1075 54.1013 44.1347 54.1265 44.1347 54.1576V56.0849C44.1347 56.116 44.1075 56.1412 44.0742 56.1412H39.8379C39.3362 56.1412 38.9297 56.5189 38.9297 56.9849C38.9297 57.4509 39.3362 57.8287 39.8379 57.8287H44.0742C45.1092 57.8287 45.9511 57.0464 45.9511 56.0849V54.1576C45.9511 53.196 45.1092 52.4138 44.0742 52.4138H38.9297V46.6462H57.0796C59.7927 46.6462 62 44.5956 62 42.0751V8.52721H61.9999ZM32.098 52.4138H29.902V50.4615C29.902 50.4129 29.9447 50.3734 29.9969 50.3734H32.003C32.0553 50.3734 32.0978 50.4129 32.0978 50.4615V52.4138H32.098ZM37.1132 52.4138H33.9144V50.4615C33.9144 49.4824 33.057 48.6859 32.0031 48.6859H29.997C28.9431 48.6859 28.0857 49.4824 28.0857 50.4615V52.4138H24.8869L24.8868 46.6462H37.1133V52.4138H37.1132ZM56.1715 39.3671H51.9694V9.37119H55.0737C55.679 9.37119 56.1715 9.82873 56.1715 10.3911V39.3671ZM10.0306 39.3671H5.82839V10.3911C5.82839 9.82873 6.32088 9.37119 6.92623 9.37119H10.0305V39.3671H10.0306ZM11.847 29.8723H20.0612V39.3671H11.847V29.8723ZM17.8653 14.1186C17.8653 12.5285 19.2577 11.2349 20.9694 11.2349C22.6809 11.2349 24.0734 12.5285 24.0734 14.1186C24.0734 15.7087 22.6808 17.0023 20.9693 17.0023C19.2577 17.0023 17.8653 15.7087 17.8653 14.1186ZM20.9693 18.6898C21.6469 18.6898 22.3046 18.8114 22.9161 19.046L21.655 19.9833C21.2513 20.2835 20.6871 20.2835 20.2834 19.9833L19.0247 19.0479C19.6247 18.8176 20.2811 18.6898 20.9693 18.6898ZM17.4264 20.0209L19.1489 21.3009C19.6848 21.6993 20.3271 21.8985 20.9694 21.8985C21.6117 21.8985 22.254 21.6994 22.7899 21.3009L24.5764 19.9731L26.4478 21.1356C26.9361 21.438 27.5365 21.5156 28.0948 21.348C28.6532 21.1807 29.0916 20.792 29.2977 20.2816L29.4168 19.9863L31.5008 20.633L30.0222 24.2965C29.9039 24.5897 29.6519 24.813 29.331 24.9092C29.0155 25.004 28.6614 24.9583 28.3851 24.787L27.896 24.4841V23.4373C27.896 22.9713 27.4895 22.5936 26.9878 22.5936C26.4861 22.5936 26.0796 22.9713 26.0796 23.4373V24.9336C26.0796 24.9375 26.0795 24.9415 26.0796 24.9455V28.1848H15.8592V23.4373C15.8591 22.0967 16.4613 20.885 17.4264 20.0209ZM30.2347 17.96C30.2384 17.9513 30.2421 17.9424 30.2453 17.9335L30.9752 16.1254C31.0782 15.8703 31.2819 15.6677 31.549 15.555C31.7572 15.4671 31.9845 15.4428 32.2045 15.4815L32.1248 15.7777C32.0033 16.2298 32.2991 16.6879 32.7857 16.8009C32.8596 16.8181 32.9338 16.8264 33.0066 16.8264C33.0169 16.8264 33.027 16.8243 33.0373 16.824C33.035 16.83 33.0335 16.8359 33.0311 16.8419L32.1389 19.0523L30.0547 18.4055L30.2347 17.96ZM34.6563 15.3632C34.5525 15.1509 34.4195 14.9569 34.2658 14.7801L35.8933 8.73185C36.0149 8.27982 35.719 7.82172 35.2325 7.70866C34.7457 7.5956 34.2528 7.87043 34.131 8.32257L32.6457 13.8426C32.028 13.7117 31.3845 13.7707 30.7977 14.0186C30.456 14.1628 30.1546 14.3636 29.902 14.6075V5.73169C29.902 5.68309 29.9447 5.6436 29.9969 5.6436H46.0458C46.0981 5.6436 46.1407 5.6832 46.1407 5.73169V16.9142C46.1407 16.9628 46.098 17.0024 46.0458 17.0024H34.8634C34.9802 16.4523 34.911 15.8837 34.6563 15.3632ZM21.8775 29.8723H50.1529V39.3671H21.8775V29.8723ZM12.9449 1.91602H49.055C49.6604 1.91602 50.1529 2.37356 50.1529 2.93606V28.1848H27.896V26.4452C28.2428 26.5765 28.6142 26.6459 28.9942 26.6459C29.2985 26.6459 29.5994 26.602 29.8886 26.5152C30.74 26.2601 31.4087 25.6674 31.7228 24.889L34.2251 18.6897H46.0458C47.0997 18.6897 47.9571 17.8931 47.9571 16.914V5.73147C47.9571 4.75238 47.0997 3.95588 46.0458 3.95588H29.9969C28.943 3.95588 28.0856 4.75238 28.0856 5.73147V16.914C28.0856 17.2388 28.1808 17.5475 28.3525 17.8167L27.5968 19.689C27.5928 19.6988 27.5807 19.7289 27.5372 19.7419C27.4934 19.7549 27.4647 19.7371 27.4564 19.732L25.045 18.2341C24.7296 18.0205 24.3988 17.8344 24.0555 17.6751C25.1731 16.8364 25.8897 15.554 25.8897 14.1184C25.8897 11.5978 23.6825 9.54714 20.9693 9.54714C18.256 9.54714 16.0487 11.5978 16.0487 14.1184C16.0487 15.5552 16.7666 16.8385 17.886 17.6772C17.5558 17.8304 17.2408 18.0075 16.9431 18.2058C16.9004 18.2297 16.8592 18.2566 16.8206 18.2873C15.1352 19.4621 14.0427 21.3332 14.0427 23.4371V28.1846H11.847V2.93606C11.847 2.37356 12.3395 1.91602 12.9449 1.91602ZM1.81641 8.52721C1.81641 6.93713 3.20888 5.64349 4.92042 5.64349H10.0306V7.68368H6.92635C5.31931 7.68368 4.01209 8.89824 4.01209 10.3911V39.3671H1.81641V8.52721ZM57.9879 39.3671V10.3911C57.9879 8.89824 56.6806 7.68368 55.0737 7.68368H51.9694V5.64349H57.0795C58.791 5.64349 60.1835 6.93713 60.1835 8.52721V39.3671H57.9879Z" fill="#00AFCA"/>
<path d="M47.0491 33.7765H31.7625C31.3799 32.6956 30.2837 31.9128 28.9938 31.9128C27.7039 31.9128 26.6078 32.6957 26.2252 33.7765H24.9815C24.4798 33.7765 24.0732 34.1543 24.0732 34.6202C24.0732 35.0862 24.4798 35.464 24.9815 35.464H26.2251C26.6078 36.5448 27.7039 37.3277 28.9937 37.3277C30.2836 37.3277 31.3797 36.5448 31.7624 35.464H47.0489C47.5506 35.464 47.9572 35.0862 47.9572 34.6202C47.9573 34.1543 47.5506 33.7765 47.0491 33.7765ZM28.9938 35.6402C28.3885 35.6402 27.896 35.1827 27.896 34.6202C27.896 34.0578 28.3885 33.6003 28.9938 33.6003C29.5992 33.6003 30.0917 34.0578 30.0917 34.6202C30.0918 35.1826 29.5992 35.6402 28.9938 35.6402Z" fill="#00AFCA"/>
<path d="M16.4554 33.7766H15.4524C14.9507 33.7766 14.5442 34.1545 14.5442 34.6207C14.5442 35.0868 14.9507 35.4647 15.4524 35.4647H16.4554C16.9571 35.4647 17.3636 35.0868 17.3636 34.6207C17.3636 34.1545 16.9571 33.7766 16.4554 33.7766Z" fill="#00AFCA"/>
</svg>
