<svg width="62" height="59" viewBox="0 0 62 59" fill="none" xmlns="http://www.w3.org/2000/svg">
<path d="M59.7583 51.1149H58.377V18.0855C58.377 16.8508 57.3262 15.8462 56.0347 15.8462H32.7163C32.1866 15.412 31.5 15.1489 30.75 15.1489C30 15.1489 29.3134 15.412 28.7837 15.8462H17.5755C17.0779 15.8462 16.6747 16.2318 16.6747 16.7075C16.6747 17.1832 17.0779 17.5688 17.5755 17.5688H27.7623C27.6653 18.1184 27.7309 18.6975 27.983 19.2375H8.21722C7.45555 19.2375 6.83587 19.8299 6.83587 20.5581V48.1255C6.83587 48.8537 7.45555 49.4461 8.21722 49.4461H53.2828C54.0444 49.4461 54.6641 48.8537 54.6641 48.1255V20.5581C54.6641 19.8299 54.0444 19.2375 53.2828 19.2375H33.517C33.763 18.7108 33.8374 18.133 33.7377 17.5688H56.0347C56.3327 17.5688 56.5752 17.8006 56.5752 18.0855V51.1149H4.9248V18.0855C4.9248 17.8006 5.16732 17.5688 5.46533 17.5688H13.3714C13.8691 17.5688 14.2723 17.1832 14.2723 16.7075C14.2723 16.2318 13.8691 15.8462 13.3714 15.8462H5.46533C4.17383 15.8462 3.12305 16.8508 3.12305 18.0855V51.1149H1.7417C0.781362 51.1149 0 51.862 0 52.7801V57.2205C0 58.1386 0.781362 58.8856 1.7417 58.8856H36.5757C37.0733 58.8856 37.4766 58.5 37.4766 58.0244C37.4766 57.5487 37.0733 57.1631 36.5757 57.1631H1.80176V52.8375H59.6982V57.1631H40.7798C40.2821 57.1631 39.8789 57.5487 39.8789 58.0244C39.8789 58.5 40.2821 58.8856 40.7798 58.8856H59.7583C60.7186 58.8856 61.5 58.1386 61.5 57.2205V52.7801C61.5 51.862 60.7186 51.1149 59.7583 51.1149ZM30.75 16.8715C31.4325 16.8715 31.9787 17.4131 31.9787 18.0545C31.9787 18.7068 31.4275 19.2376 30.75 19.2376C30.0725 19.2376 29.5213 18.7069 29.5213 18.0545C29.5213 17.4199 30.0608 16.8715 30.75 16.8715ZM52.8624 20.96V47.7236H8.63763V20.96H52.8624Z" fill="#00AFCA"/>
<path d="M11.0199 45.5914H23.3404C23.8381 45.5914 24.2413 45.2058 24.2413 44.7301V43.1435C24.2413 40.5128 22.6582 38.2303 20.3558 37.1168C21.682 36.1822 22.5444 34.6792 22.5444 32.9867C22.5444 30.1588 20.1381 27.8582 17.1802 27.8582C14.2223 27.8582 11.8159 30.1587 11.8159 32.9866C11.8159 34.6791 12.6784 36.1821 14.0046 37.1167C11.7022 38.2301 10.119 40.5127 10.119 43.1434V44.73C10.119 45.2058 10.5224 45.5914 11.0199 45.5914ZM13.6177 32.9866C13.6177 31.1085 15.2158 29.5806 17.1802 29.5806C19.1446 29.5806 20.7427 31.1085 20.7427 32.9866C20.7427 34.8647 19.1445 36.3926 17.1802 36.3926C15.2158 36.3926 13.6177 34.8647 13.6177 32.9866ZM11.9208 43.1435C11.9208 40.3708 14.2802 38.1152 17.1802 38.1152C20.0802 38.1152 22.4396 40.3708 22.4396 43.1435V43.8688H11.9208V43.1435Z" fill="#00AFCA"/>
<path d="M27.8071 45.5913H49.2789C50.4379 45.5913 51.381 44.6897 51.381 43.5817V25.102C51.381 23.9939 50.4379 23.0923 49.2789 23.0923H27.8071C26.6481 23.0923 25.7051 23.9939 25.7051 25.102V43.5817C25.7051 44.6899 26.6481 45.5913 27.8071 45.5913ZM27.5068 25.102C27.5068 24.9437 27.6415 24.8149 27.8071 24.8149H49.2789C49.4446 24.8149 49.5792 24.9437 49.5792 25.102V43.5817C49.5792 43.7399 49.4446 43.8688 49.2789 43.8688H27.8071C27.6415 43.8688 27.5068 43.7399 27.5068 43.5817V25.102Z" fill="#00AFCA"/>
<path d="M38.543 37.6908C40.4746 37.6908 42.0461 36.1884 42.0461 34.3418C42.0461 32.4951 40.4746 30.9927 38.543 30.9927C36.6114 30.9927 35.0399 32.4951 35.0399 34.3418C35.0399 36.1884 36.6114 37.6908 38.543 37.6908ZM38.543 32.7152C39.4812 32.7152 40.2443 33.4449 40.2443 34.3418C40.2443 35.2386 39.4811 35.9683 38.543 35.9683C37.6048 35.9683 36.8416 35.2386 36.8416 34.3418C36.8416 33.4449 37.6047 32.7152 38.543 32.7152Z" fill="#00AFCA"/>
<path d="M31.4702 36.7716H32.0844C32.1145 36.8449 32.1461 36.9176 32.179 36.9898L31.7445 37.4052C31.1659 37.9584 31.1659 38.8587 31.7445 39.4119L33.2399 40.8415C33.8186 41.3945 34.7601 41.3946 35.3389 40.8414L35.7733 40.4261C35.8488 40.4576 35.9249 40.4878 36.0014 40.5166V41.1038C36.0014 41.8862 36.6672 42.5228 37.4855 42.5228H39.6001C40.4184 42.5228 41.0841 41.8862 41.0841 41.1038V40.5166C41.1608 40.4878 41.2368 40.4576 41.3124 40.426L41.7468 40.8415C42.3255 41.3945 43.267 41.3945 43.8459 40.8414L45.341 39.4119C45.9196 38.8587 45.9196 37.9584 45.341 37.4052L44.9066 36.9899C44.9394 36.9177 44.9711 36.8449 45.0013 36.7717H45.6154C46.4338 36.7717 47.0995 36.1352 47.0995 35.3528V33.3311C47.0995 32.5487 46.4337 31.9122 45.6154 31.9122H45.0013C44.9711 31.8389 44.9394 31.7662 44.9066 31.694L45.341 31.2787C45.9196 30.7254 45.9196 29.8252 45.341 29.2719L43.8459 27.8424C43.2671 27.289 42.3255 27.2892 41.7467 27.8424L41.3124 28.2576C41.2368 28.2262 41.1606 28.196 41.0841 28.167V27.5798C41.0841 26.7974 40.4183 26.1609 39.6001 26.1609H37.4855C36.6672 26.1609 36.0014 26.7974 36.0014 27.5798V28.167C35.9247 28.1958 35.8487 28.226 35.7733 28.2575L35.3389 27.8423C34.7604 27.2891 33.8187 27.2888 33.2399 27.8423L31.7445 29.2717C31.1659 29.825 31.1659 30.7252 31.7447 31.2785L32.179 31.6937C32.1461 31.7659 32.1145 31.8387 32.0844 31.9119H31.4702C30.6518 31.9119 29.986 32.5485 29.986 33.3309V35.3525C29.986 36.1351 30.6518 36.7716 31.4702 36.7716ZM31.7878 33.6346H32.7302C33.1336 33.6346 33.4879 33.3782 33.5973 33.0071C33.7062 32.6376 33.8615 32.2798 34.059 31.9431C34.2564 31.6066 34.1957 31.1856 33.9103 30.9127L33.2434 30.2751L34.2895 29.275L34.9565 29.9127C35.242 30.1856 35.6823 30.2436 36.0343 30.0549C36.3866 29.8658 36.7609 29.7175 37.1468 29.6135C37.5352 29.5089 37.8035 29.1703 37.8035 28.7845V27.8835H39.2829V28.7845C39.2829 29.1703 39.5511 29.509 39.9397 29.6135C40.3256 29.7175 40.6998 29.8658 41.0522 30.0549C41.4038 30.2433 41.8444 30.1857 42.13 29.9127L42.7969 29.275L43.843 30.2751L43.1761 30.9127C42.8906 31.1856 42.8298 31.6066 43.0274 31.9432C43.225 32.2797 43.3802 32.6375 43.4889 33.0067C43.5983 33.378 43.9525 33.6345 44.3561 33.6345H45.2986V35.0489H44.3561C43.9527 35.0489 43.5983 35.3055 43.4889 35.6767C43.3802 36.0461 43.225 36.4038 43.0275 36.7401C42.8298 37.0767 42.8906 37.4979 43.176 37.7707L43.843 38.4084L42.7969 39.4086L42.13 38.7709C41.8444 38.498 41.404 38.44 41.0522 38.6287C40.7 38.8176 40.3257 38.9661 39.9395 39.07C39.5512 39.1746 39.2829 39.5133 39.2829 39.899V40.8001H37.8033V39.899C37.8033 39.5133 37.535 39.1746 37.1467 39.07C36.7605 38.966 36.3862 38.8175 36.034 38.6287C35.6823 38.4401 35.2418 38.4979 34.9562 38.7709L34.2893 39.4086L33.2431 38.4083L33.9101 37.7707C34.1954 37.4979 34.2562 37.0769 34.0587 36.7404C33.8612 36.4039 33.7059 36.0459 33.5971 35.6765C33.4877 35.3053 33.1335 35.0489 32.73 35.0489H31.7875V33.6346H31.7878Z" fill="#00AFCA"/>
<path d="M36.173 13.0962C36.6443 13.2495 37.1558 13.0084 37.316 12.5581C37.4209 12.2634 37.474 11.9545 37.474 11.6401C37.474 10.8446 37.1308 10.1004 36.5323 9.5983C33.1448 6.75635 28.3142 6.77231 24.9478 9.65033C23.0969 11.2327 24.2157 14.3445 26.6306 14.3445C27.2425 14.3445 27.8411 14.1241 28.3161 13.7235C29.6002 12.641 31.2937 12.5515 32.6199 13.2994C33.0481 13.541 33.6008 13.4048 33.8537 12.9952C34.1065 12.5855 33.9639 12.0574 33.5355 11.8156C31.4441 10.6361 28.9073 10.9284 27.1244 12.4314C26.8466 12.6658 26.4735 12.6829 26.1957 12.4677C25.7304 12.1073 25.6975 11.3205 26.1489 10.9344C28.8395 8.63433 32.6413 8.6256 35.3441 10.893C35.5527 11.068 35.6723 11.3404 35.6723 11.6401C35.6723 11.7655 35.6514 11.8878 35.6102 12.0035C35.45 12.4538 35.7021 12.943 36.173 13.0962Z" fill="#00AFCA"/>
<path d="M21.0486 10.0064C21.7592 10.0064 22.4668 9.70912 22.9884 9.13194C27.2289 4.44019 34.2378 4.40321 38.529 9.062C39.464 10.0773 40.9745 10.2069 42.0436 9.36288C43.2586 8.40374 43.4012 6.57551 42.3487 5.42895C35.9831 -1.50422 25.4372 -1.46391 19.1336 5.53323C17.5866 7.25019 18.8173 10.0067 21.0486 10.0064ZM20.4987 6.6575C26.0814 0.460787 35.3452 0.41221 40.9947 6.5654C41.3798 6.98479 41.3264 7.69542 40.8952 8.0358C40.5847 8.28087 40.1678 8.23493 39.8814 7.92372C34.8879 2.50228 26.6054 2.49551 21.6253 8.00571C21.3272 8.33564 20.8988 8.3585 20.6078 8.12308C20.1796 7.78798 20.1173 7.08091 20.4987 6.6575Z" fill="#00AFCA"/>
</svg>
