<svg width="112" height="112" viewBox="0 0 112 112" fill="none" xmlns="http://www.w3.org/2000/svg">
<path d="M40.598 0C43.5996 7.90778 49.8676 9.76368 57.9012 9.19884C61.6973 8.95677 65.67 9.03746 69.4661 9.19884C77.8528 9.6023 84.3856 12.9106 87.6521 20.2536C90.8302 27.5158 89.2411 34.2132 83.3263 39.781C76.7934 46.0749 69.9075 52.1268 63.2864 58.2594C60.02 61.3257 58.9606 64.7954 61.0793 68.6686C63.0215 72.1383 66.288 73.9135 70.6137 73.5101C75.2044 73.0259 78.2942 70.5245 79.5302 66.4899C81.1192 61.3256 77.7645 58.1786 72.5559 54.951C76.8817 51.3199 80.9427 48.0115 84.8271 44.5418C87.0341 42.5245 88.27 44.0576 89.5943 45.268C98.2458 53.0144 100.983 62.3746 97.4513 72.7031C93.8318 83.1124 85.6216 89.487 73.7036 90.9395C61.609 92.3919 51.8098 88.3573 45.1004 78.9164C37.5082 68.2651 39.1855 54.951 49.1613 45.7522C53.5754 41.6369 58.3426 37.9251 62.7567 33.8905C64.6989 32.1153 68.4067 30.8242 67.1708 27.7579C65.9348 24.5303 62.1387 25.902 59.4903 25.8213C49.4262 25.4986 41.4809 19.6888 40.598 11.2968C40.2449 7.66571 40.598 3.79251 40.598 0Z" fill="#98BF10"/>
<path d="M51.9863 38.7322C35.8308 48.1731 34.7714 62.1328 35.6542 76.6573C35.8308 80.0463 35.4777 83.4353 35.7425 86.8244C35.9191 89.6486 34.6831 90.4555 31.7699 90.2941C27.7972 90.1327 23.7362 90.1327 19.6753 90.2941C17.2917 90.3748 16.144 89.7293 16.2323 87.3086C16.4089 78.7553 15.9675 70.2019 16.4971 61.7293C17.4682 46.3172 34.4183 34.859 51.9863 38.7322Z" fill="#98BF10"/>
<path d="M74.8512 64.6341C74.5864 67.2162 72.9973 68.9914 69.9957 68.9107C67.0825 68.83 65.2285 67.2162 65.1403 64.4727C65.1403 61.7292 66.9942 60.0347 69.9075 60.0347C72.9973 60.0347 74.4981 61.8906 74.8512 64.6341Z" fill="#FFDD00"/>
<path d="M4.13762 105.787V111.839H0.871216V98.9279C0.871216 97.6369 2.01887 96.5879 3.43137 96.5879H7.05092C8.19858 96.5879 9.0814 96.7493 9.78766 96.9913C10.4939 97.3141 11.0236 97.7983 11.465 98.6052C11.9064 99.3314 12.1712 100.219 12.1712 101.187C12.1712 103.043 11.3767 104.334 9.78766 105.141L12.3478 111.839H8.72827L6.60952 105.787H4.13762ZM4.13762 99.3314V103.205H6.16811C6.78608 103.205 7.31577 103.124 7.58062 103.043C7.84546 102.963 8.1103 102.72 8.37515 102.398C8.63999 102.075 8.72827 101.671 8.72827 101.187C8.72827 100.784 8.63999 100.38 8.37515 100.058C8.1103 99.7349 7.93374 99.4928 7.58062 99.4121C7.31577 99.3314 6.78607 99.3314 6.07982 99.3314H4.13762Z" fill="#1B6731"/>
<path d="M17.8222 96.5879V111.758H14.5549V99.5735C14.5549 97.9596 16.0561 96.5879 17.8222 96.5879Z" fill="#1B6731"/>
<path d="M25.9431 96.5879V107.401C25.9431 108.934 25.59 110.063 24.972 110.87C24.2657 111.596 23.2064 112 21.6173 112C20.9111 112 20.2048 111.919 19.4103 111.758V108.772C20.0282 108.853 20.6462 108.934 21.0876 108.934C21.529 108.934 21.7939 108.853 22.0587 108.692C22.3236 108.53 22.5001 108.369 22.5884 108.127C22.6767 107.885 22.765 107.481 22.765 106.916V99.4928C22.6767 97.9596 24.0892 96.5879 25.9431 96.5879Z" fill="#1B6731"/>
<path d="M30.9753 99.4928V103.689L35.301 96.5879H38.3909L35.0362 101.994L39.1854 111.758H35.6542L32.9174 105.141L30.9753 108.288V111.758H27.7971V96.5879C29.5627 96.5879 30.9753 97.8789 30.9753 99.4928Z" fill="#1B6731"/>
<path d="M56.1354 99.2507L49.0729 108.934H56.3119V111.839H45.1002V109.256L52.0744 99.4928H48.7197C46.9541 99.4928 45.5416 98.2017 45.5416 96.5879H56.0471V99.2507H56.1354Z" fill="#1B6731"/>
<path d="M74.7628 96.83L71.4081 111.597C71.4081 111.677 71.3198 111.758 71.1433 111.758H68.3183C68.23 111.758 68.1417 111.677 68.0534 111.597L66.0229 102.72C65.9347 102.478 65.5815 102.478 65.5815 102.72L63.6394 111.597C63.6394 111.677 63.5511 111.758 63.3745 111.758H60.5495C60.4612 111.758 60.3729 111.677 60.2846 111.597L56.8417 96.83C56.8417 96.6686 56.9299 96.5879 57.1065 96.5879H58.9604C59.6667 96.5879 60.2846 97.072 60.3729 97.6369L62.0503 105.867C62.0503 105.948 62.0503 106.11 62.1386 106.352C62.1386 106.432 62.2268 106.594 62.2268 106.836L64.4339 96.7492C64.4339 96.6685 64.5222 96.5879 64.6987 96.5879H67.3472C67.4354 96.5879 67.5237 96.6685 67.612 96.7492L69.9073 106.836C69.9956 106.674 69.9956 106.352 70.0839 105.867L71.9378 97.1527C72.0261 96.8299 72.2909 96.5879 72.644 96.5879H74.4097C74.6745 96.5879 74.8511 96.7493 74.7628 96.83Z" fill="#1B6731"/>
<path d="M83.0612 98.2021L86.9455 111.839H83.4143L82.5315 108.692H78.0291L77.1463 111.839H74.3213L78.294 98.2021C78.5588 97.3145 79.4416 96.6689 80.501 96.6689H80.7658C81.8252 96.5882 82.7963 97.2338 83.0612 98.2021ZM78.9119 105.868H81.8252L80.3244 100.542L78.9119 105.868Z" fill="#1B6731"/>
<path d="M95.7738 98.2824L99.6582 111.839H96.1269L95.2441 108.692H90.7417L89.8589 111.839H87.0339L91.0066 98.2824C91.2714 97.3141 92.2425 96.5879 93.3902 96.5879C94.4496 96.5879 95.4207 97.3141 95.7738 98.2824ZM91.5363 105.867H94.4496L92.9488 100.542L91.5363 105.867Z" fill="#1B6731"/>
<path d="M111.841 96.5879V110.225C111.841 111.112 111.046 111.758 110.164 111.758C109.546 111.758 108.928 111.435 108.663 110.87L103.719 101.51C103.719 101.752 103.719 101.914 103.719 101.994C103.719 102.236 103.719 102.478 103.719 102.64V111.758H101.159V98.5245C101.159 97.4755 102.13 96.5879 103.278 96.5879C104.072 96.5879 104.867 96.9913 105.22 97.7175L109.369 105.545C109.369 105.061 109.281 104.738 109.281 104.496V99.6542C109.281 98.2824 110.252 96.9914 111.664 96.5879H111.841Z" fill="#1B6731"/>
</svg>
