<svg width="41" height="48" viewBox="0 0 41 48" fill="none" xmlns="http://www.w3.org/2000/svg">
<path d="M40.7666 42.5878C39.5551 36.8456 36.9262 30.0901 27.3688 28.2446V24.0051C29.4953 21.7369 30.7073 19.2012 30.7073 16.9933V14.2695C31.5577 13.7716 32.6126 12.9849 33.4339 11.3636C34.5408 9.17818 34.9682 5.9799 34.7402 1.58605C34.7211 1.21697 34.5315 0.880826 34.2324 0.685499C33.9333 0.49006 33.5623 0.45994 33.2378 0.604806C29.3808 2.32757 25.6716 1.82633 22.3991 1.3842C20.3946 1.11335 18.6634 0.87959 17.1137 1.16662C15.3465 1.49412 14.0887 2.47536 13.2785 4.16171C10.2748 6.1251 10.2747 9.91599 10.2747 13.586V16.9933C10.2747 19.2075 11.4936 21.7513 13.6312 24.0244V28.2446C4.07372 30.0901 1.4448 36.8455 0.233419 42.587C-0.0373378 43.8659 -0.238449 45.4773 0.616571 46.5951C1.45295 47.6885 2.91237 47.8288 4.09065 47.8288H10.6862C11.283 47.8288 11.7668 47.3212 11.7668 46.6952C11.7668 46.0693 11.283 45.5617 10.6862 45.5617H4.09065C2.79109 45.5617 2.41243 45.3203 2.3024 45.1765C2.18454 45.0223 2.03293 44.5447 2.34354 43.0776C3.27078 38.6829 4.976 34.0944 10.1199 31.7039L14.7857 39.213C14.9681 39.5066 15.2696 39.6952 15.6026 39.7238C15.6321 39.7264 15.6617 39.7276 15.6911 39.7276C15.9928 39.7276 16.2824 39.595 16.488 39.3596L20.4999 34.7634L24.5118 39.3596C24.7173 39.5951 25.007 39.7276 25.3088 39.7276C25.3381 39.7276 25.3677 39.7264 25.3973 39.7238C25.7303 39.6952 26.0318 39.5066 26.2141 39.213L30.8799 31.7039C36.0238 34.0944 37.7292 38.683 38.6564 43.0784C38.9669 44.5447 38.8154 45.0223 38.6974 45.1763C38.5874 45.3202 38.2087 45.5616 36.9092 45.5616H21.0514C20.4546 45.5616 19.9709 46.069 19.9709 46.6951C19.9709 47.3211 20.4548 47.8287 21.0514 47.8287H36.9094C38.0876 47.8287 39.5471 47.6884 40.3835 46.595C41.2385 45.4772 41.0373 43.8658 40.7666 42.5878ZM14.6297 5.95843C14.8386 5.83896 15.0039 5.65049 15.1003 5.42235C16.1478 2.94154 18.119 3.09157 22.123 3.6326C25.1204 4.03764 28.77 4.53056 32.634 3.25273C32.6781 6.39157 32.3063 8.75774 31.5252 10.2998C30.8926 11.5486 30.0998 12.051 29.3731 12.4478C23.6114 12.3368 20.0883 11.4573 17.2549 9.4315C17.0697 9.29911 16.8576 9.2346 16.6467 9.2346C16.356 9.2346 16.0678 9.35732 15.8569 9.59401C14.7517 10.834 13.8146 11.4558 12.4476 12.0015C12.5053 8.9606 12.8363 6.98451 14.6297 5.95843ZM12.436 16.9933V14.4131C14.0117 13.8637 15.3556 13.2286 16.7962 11.815C19.7189 13.6593 23.25 14.5219 28.5461 14.6942V16.9933C28.5461 18.6709 27.4278 20.8043 25.5547 22.7002C23.8311 24.4449 21.7962 25.617 20.491 25.617C19.1857 25.617 17.1508 24.4448 15.4273 22.7002C13.5543 20.8043 12.436 18.6709 12.436 16.9933ZM15.8354 36.7502L12.2106 30.9166C12.9129 30.7069 13.6657 30.5306 14.474 30.3921L18.8347 33.314L15.8354 36.7502ZM15.7925 28.5856V25.9553C17.4414 27.1743 19.1307 27.8842 20.4911 27.8842C21.8564 27.8842 23.5531 27.1691 25.2076 25.9417V28.5856L20.5001 31.7398L15.7925 28.5856ZM25.1648 36.7503L22.1653 33.314L26.5261 30.3921C27.3345 30.5306 28.0874 30.7069 28.7896 30.9166L25.1648 36.7503Z" fill="#00AFCA"/>
</svg>
