<svg width="56" height="58" viewBox="0 0 56 58" fill="none" xmlns="http://www.w3.org/2000/svg">
<g clip-path="url(#clip0)">
<path d="M40.4806 22.1032C41.2225 22.1032 41.9275 21.808 42.4655 21.272C42.791 20.9478 42.7994 20.4134 42.4843 20.0786C42.1692 19.7436 41.6499 19.7348 41.3245 20.0592C41.094 20.2887 40.7944 20.4152 40.4806 20.4152H40.2417C39.9279 20.4152 39.6282 20.2888 39.3978 20.0592C39.0721 19.7348 38.5529 19.7436 38.2379 20.0786C37.9228 20.4135 37.9313 20.9479 38.2568 21.272C38.7949 21.808 39.4998 22.1032 40.2417 22.1032H40.4806Z" fill="#00AFCA"/>
<path d="M23.9877 42.6998C24.1919 42.817 24.4183 42.8754 24.6445 42.8754C24.8899 42.8754 25.1351 42.8065 25.3514 42.6696L30.4456 39.441C30.8467 39.1868 31.0861 38.7457 31.0861 38.2612C31.0861 37.7766 30.8467 37.3355 30.4456 37.0814L25.3513 33.8527C24.9361 33.5896 24.4136 33.5781 23.9877 33.8226C23.5619 34.0671 23.2973 34.5308 23.2973 35.0324V41.4897C23.2974 41.9915 23.5619 42.4551 23.9877 42.6998ZM24.9379 35.5727L29.1798 38.2612L24.9379 40.9496V35.5727Z" fill="#00AFCA"/>
<path d="M34.0482 46.8216H26.1655C25.824 45.8 24.8811 45.0635 23.7735 45.0635C22.6659 45.0635 21.723 45.8 21.3814 46.8218H20.3353C19.8823 46.8218 19.515 47.1996 19.5151 47.6656C19.5151 48.1316 19.8824 48.5093 20.3354 48.5093H21.3815C21.7231 49.5308 22.666 50.267 23.7735 50.267C24.8811 50.267 25.8239 49.5307 26.1655 48.5093H34.0482C34.5011 48.5093 34.8685 48.1316 34.8685 47.6656C34.8685 47.1996 34.5013 46.8216 34.0482 46.8216ZM23.7735 48.5794C23.2834 48.5794 22.8848 48.1693 22.8848 47.6652C22.8848 47.1609 23.2834 46.7508 23.7735 46.7508C24.2635 46.7508 24.6622 47.1609 24.6622 47.6652C24.6622 48.1693 24.2635 48.5794 23.7735 48.5794Z" fill="#00AFCA"/>
<path d="M55.2976 41.0583V35.1459C55.2976 31.2157 52.1889 28.0182 48.3679 28.0182H44.1813V25.0329C46.0527 23.8324 47.3013 21.6969 47.3013 19.266V18.6057H48.6118C50.4541 18.6057 51.953 17.064 51.953 15.1689C51.953 14.2705 51.6157 13.4518 51.065 12.8388V9.92449C51.065 7.38569 49.9717 5.00123 48.0655 3.38246C47.7162 3.08579 47.1991 3.13665 46.9107 3.49597C46.6223 3.8553 46.6717 4.38709 47.0211 4.68376C48.5485 5.98078 49.4245 7.89104 49.4245 9.92449V11.8357C49.1642 11.7685 48.892 11.7324 48.6118 11.7324H47.2793C47.0489 9.18829 44.9624 7.19005 42.4298 7.19005H34.5693C33.9361 7.19005 33.421 7.71993 33.421 8.37119V11.7324H32.1101C31.8302 11.7324 31.5585 11.7684 31.2985 11.8354V3.65516C31.2985 3.00457 31.6293 2.42834 32.1832 2.1139C32.7373 1.79912 33.388 1.81847 33.9229 2.16486L34.4103 2.48133C35.0682 2.90771 35.8276 3.13316 36.6062 3.13316H42.8216C43.1647 3.13316 43.5063 3.16005 43.8371 3.21315C44.2848 3.28458 44.7041 2.96992 44.7739 2.50945C44.8438 2.04899 44.5375 1.61766 44.0898 1.54588C43.6757 1.4794 43.2491 1.44576 42.8216 1.44576H36.6062C36.1376 1.44576 35.6806 1.31008 35.2854 1.05403L34.7979 0.737454C33.7492 0.0581743 32.4753 0.020374 31.3902 0.636653C30.3055 1.25259 29.6578 2.38109 29.6578 3.65527V12.8378C29.1064 13.4509 28.7687 14.2701 28.7687 15.1691C28.7687 17.0641 30.2676 18.6058 32.1099 18.6058H33.4207V19.2661C33.4207 21.6972 34.6697 23.8331 36.5415 25.0335V26.2093H24.6249C24.9622 25.0457 25.1443 23.8127 25.1443 22.5359C25.1443 15.5166 19.662 9.8058 12.9234 9.8058C6.18483 9.8058 0.702404 15.5166 0.702404 22.5359C0.702404 29.5554 6.18472 35.2661 12.9233 35.2661C13.2239 35.2661 13.5218 35.2543 13.8169 35.2319V51.3328C13.8169 52.5187 14.7555 53.4837 15.9091 53.4837H22.1548V54.6725C22.1548 55.813 23.0569 56.7409 24.1658 56.7409H26.7775C27.8864 56.7409 28.7885 55.813 28.7885 54.6725V53.4837H29.9981V56.9564C29.9981 57.4224 30.3653 57.8002 30.8184 57.8002H48.7889C49.2419 57.8002 49.6092 57.4224 49.6092 56.9564V54.0417C49.6092 53.5757 49.2419 53.1979 48.7889 53.1979C48.3359 53.1979 47.9686 53.5757 47.9686 54.0417V56.1127H31.6388V53.4837H38.4744C39.6281 53.4837 40.5666 52.5187 40.5666 51.3328V46.5228H47.9688V50.1044C47.9688 50.5703 48.3361 50.9481 48.7891 50.9481C49.2422 50.9481 49.6094 50.5703 49.6094 50.1044V46.5227H51.0717C51.8727 46.5227 52.6224 46.2923 53.2614 45.8924C54.4812 45.1292 55.2977 43.7487 55.2977 42.1759V41.0583H55.2976ZM50.3125 15.1691C50.3125 16.1336 49.5496 16.9183 48.6118 16.9183H47.3013V13.4198H48.6118C49.5496 13.4198 50.3125 14.2045 50.3125 15.1691ZM32.1101 16.9183C31.1723 16.9183 30.4094 16.1335 30.4094 15.1691C30.4094 14.2046 31.1723 13.4198 32.1101 13.4198H33.421V16.9183H32.1101ZM35.0615 19.266V17.7729C35.0615 17.7693 35.062 17.7657 35.062 17.762C35.062 17.7583 35.0616 17.7548 35.0615 17.7511V12.5868C35.0615 12.5832 35.062 12.5796 35.062 12.5759C35.062 12.5722 35.0616 12.5687 35.0615 12.565V8.87722H42.4298C44.2113 8.87722 45.6607 10.368 45.6607 12.2004V19.2658C45.6607 22.0808 43.4341 24.3709 40.6973 24.3709H40.0247C37.288 24.3712 35.0615 22.081 35.0615 19.266ZM38.1824 25.7875C38.7676 25.9628 39.3854 26.0586 40.0248 26.0586H40.6975C41.3372 26.0586 41.9553 25.9627 42.5408 25.7873V29.4109C42.5408 30.412 41.7489 31.2265 40.7755 31.2265H40.5666V28.3601C40.5666 27.1741 39.628 26.2092 38.4744 26.2092H38.1824V25.7875ZM39.7527 44.8355C39.7505 44.8355 39.7485 44.8352 39.7463 44.8352C39.7441 44.8352 39.7422 44.8355 39.74 44.8355H38.7732C38.1076 44.8355 37.5659 44.2785 37.5659 43.5937V41.9031H40.4168V44.8354H39.7527V44.8355ZM38.4743 27.8967C38.7233 27.8967 38.926 28.1046 38.926 28.3602V30.0793C38.7803 30.0463 38.6295 30.0275 38.4743 30.0275H22.7976C23.2635 29.3629 23.6692 28.6498 24.0062 27.8968H38.4743V27.8967ZM2.34292 22.5359C2.34292 16.4469 7.08925 11.4932 12.9233 11.4932C18.7574 11.4932 23.5037 16.4469 23.5037 22.5359C23.5037 28.6249 18.7574 33.5787 12.9233 33.5787C7.08925 33.5787 2.34292 28.6249 2.34292 22.5359ZM27.1481 54.6726C27.1481 54.8827 26.9819 55.0536 26.7776 55.0536H24.1659C23.9615 55.0536 23.7954 54.8827 23.7954 54.6726V53.4838H27.148L27.1481 54.6726ZM38.9261 51.3329C38.9261 51.5885 38.7235 51.7964 38.4744 51.7964H15.9092C15.6602 51.7964 15.4575 51.5885 15.4575 51.3329V34.9901C17.7276 34.4895 19.767 33.3307 21.3824 31.7149H38.4743C38.7233 31.7149 38.926 31.9228 38.926 32.1784V40.2158H34.4999C34.0469 40.2158 33.6796 40.5935 33.6796 41.0595C33.6796 41.5255 34.0469 41.9033 34.4999 41.9033H35.9254V43.5939C35.9254 45.2091 37.2029 46.5231 38.7732 46.5231H38.9261V51.3329ZM53.4017 43.3279C52.9835 44.219 52.0962 44.8353 51.0716 44.8353C50.587 44.8353 42.5373 44.8355 42.0573 44.8355V41.9032H50.2443C50.6973 41.9032 51.0646 41.5254 51.0646 41.0594C51.0646 40.5934 50.6973 40.2157 50.2443 40.2157H49.6097V34.8539C49.6097 34.3879 49.2424 34.0101 48.7893 34.0101C48.3363 34.0101 47.969 34.3879 47.969 34.8539V40.2157H40.5664V32.9139H40.7753C42.5567 32.9139 44.022 31.4997 44.1681 29.7055H48.3678C51.2842 29.7055 53.657 32.146 53.657 35.1458V42.1758C53.6571 42.405 53.6359 42.8475 53.4017 43.3279Z" fill="#00AFCA"/>
<path d="M21.3335 22.6459C21.7957 22.5024 22.1063 22.0713 22.1063 21.573C22.1063 21.0749 21.7958 20.6436 21.3335 20.4999L13.3266 18.0126C13.0629 17.9307 12.7839 17.9307 12.52 18.0126L4.51303 20.5C4.05081 20.6437 3.7403 21.0749 3.7403 21.573C3.7403 21.8069 3.80953 22.0256 3.92995 22.2071V24.9947C3.92995 25.4607 4.29723 25.8385 4.75026 25.8385C5.2033 25.8385 5.57058 25.4607 5.57058 24.9947V22.9744L6.81406 23.3607V27.2476C6.81406 27.9088 7.24653 28.4862 7.86549 28.6513L12.4282 29.8707C12.5902 29.9142 12.7568 29.9358 12.9235 29.9358C13.0901 29.9358 13.2566 29.9142 13.4185 29.8707L17.9811 28.6514C18.6004 28.4861 19.0329 27.9088 19.0329 27.2476V23.3605L21.3335 22.6459ZM12.9233 19.65L19.1133 21.5729L12.9233 23.4958L6.73334 21.5729L12.9233 19.65ZM17.3923 27.0654L13.0056 28.2378C12.9518 28.2522 12.895 28.2521 12.841 28.2378L8.45458 27.0655V23.8705L12.52 25.1334C12.652 25.1744 12.7877 25.1949 12.9233 25.1949C13.059 25.1949 13.1947 25.1744 13.3266 25.1334L17.3923 23.8704V27.0654Z" fill="#00AFCA"/>
</g>
<defs>
<clipPath id="clip0">
<rect width="56" height="57.6004" fill="white" transform="translate(0 0.199829)"/>
</clipPath>
</defs>
</svg>
