<svg width="20" height="22" viewBox="0 0 20 22" fill="none" xmlns="http://www.w3.org/2000/svg">
<g clip-path="url(#clip0)">
<path d="M13.0784 9.72861L8.65994 7.14428C8.40588 6.99568 8.10559 7.00123 7.85657 7.15896C7.60739 7.31685 7.45877 7.59577 7.45877 7.90535V13.0297C7.45877 13.3378 7.60647 13.6162 7.85397 13.7743C7.98321 13.8568 8.12649 13.8982 8.27008 13.8982C8.40161 13.8982 8.53344 13.8635 8.65475 13.7937L13.0734 11.2539C13.3357 11.103 13.4994 10.8115 13.5006 10.493C13.5017 10.1744 13.3399 9.88161 13.0784 9.72861ZM8.63079 12.385V8.55519L11.9331 10.4868L8.63079 12.385Z" fill="white"/>
<path d="M19.8528 6.41073L19.8519 6.40094C19.835 6.22886 19.6664 4.69822 18.9703 3.91969C18.1657 3.00399 17.2535 2.89274 16.8148 2.83941C16.7785 2.835 16.7452 2.83092 16.7155 2.82668L16.6805 2.82277C14.0365 2.61725 10.0434 2.58919 10.0035 2.58903L9.99996 2.58887L9.99645 2.58903C9.95647 2.58919 5.96342 2.61725 3.29558 2.82277L3.26033 2.82668C3.23195 2.83076 3.20067 2.83451 3.16664 2.83875C2.73299 2.89225 1.83059 3.00366 1.02371 3.95248C0.360716 4.72269 0.169067 6.22054 0.149383 6.38887L0.147094 6.41073C0.141143 6.48233 0 8.18701 0 9.89837V11.4982C0 13.2095 0.141143 14.9142 0.147094 14.986L0.148162 14.9967C0.165099 15.166 0.333556 16.6686 1.02645 17.4475C1.78298 18.3325 2.73955 18.4496 3.25408 18.5126C3.33541 18.5225 3.40544 18.531 3.4532 18.54L3.49944 18.5468C5.02607 18.7021 9.81258 18.7786 10.0155 18.7817L10.0216 18.7819L10.0277 18.7817C10.0677 18.7816 14.0606 18.7535 16.7046 18.548L16.7396 18.5441C16.773 18.5393 16.8105 18.5351 16.8517 18.5305C17.283 18.4816 18.1805 18.38 18.9762 17.4441C19.6392 16.6737 19.831 15.1758 19.8505 15.0077L19.8528 14.9858C19.8588 14.914 20.0001 13.2095 20.0001 11.4982V9.89837C19.9999 8.18701 19.8588 6.48249 19.8528 6.41073ZM18.8279 11.4982C18.8279 13.0821 18.6985 14.7134 18.6863 14.8631C18.6366 15.2757 18.4344 16.2233 18.1113 16.5986C17.6133 17.1844 17.1017 17.2424 16.7281 17.2847C16.683 17.2898 16.6412 17.2946 16.6033 17.2997C14.046 17.4974 10.2037 17.5277 10.0267 17.5289C9.82815 17.5258 5.11167 17.4486 3.63158 17.3017C3.55574 17.2884 3.4738 17.2783 3.38744 17.2679C2.94936 17.2142 2.34969 17.1408 1.88857 16.5986L1.87774 16.5863C1.56036 16.2328 1.36398 15.3466 1.31408 14.868C1.30477 14.7548 1.17202 13.1043 1.17202 11.4982V9.89837C1.17202 8.31619 1.30111 6.68671 1.31362 6.53387C1.37298 6.04797 1.57897 5.15771 1.88857 4.79788C2.40188 4.19437 2.9431 4.12749 3.30107 4.08329C3.33525 4.07905 3.36714 4.07514 3.39659 4.07106C5.99119 3.87239 9.86111 3.84287 9.99996 3.84172C10.1388 3.8427 14.0074 3.87239 16.5789 4.07106C16.6105 4.0753 16.645 4.07954 16.6821 4.08411C17.0503 4.12896 17.6067 4.19682 18.1175 4.77912L18.1222 4.78451C18.4396 5.13797 18.6359 6.03965 18.6858 6.52784C18.6947 6.63468 18.8279 8.28879 18.8279 9.89837V11.4982Z" fill="white"/>
</g>
<defs>
<clipPath id="clip0">
<rect width="20" height="21.3793" fill="white"/>
</clipPath>
</defs>
</svg>
